<?xml version="1.0" encoding="UTF-8" standalone="no"?>
<!DOCTYPE svg PUBLIC "-//W3C//DTD SVG 1.1//EN"
 "http://www.w3.org/Graphics/SVG/1.1/DTD/svg11.dtd">
<!-- Generated by graphviz version 2.43.0 (0)
 -->
<!-- Title: src/Attacker.cpp Pages: 1 -->
<svg width="339pt" height="252pt"
 viewBox="0.00 0.00 339.00 252.00" xmlns="http://www.w3.org/2000/svg" xmlns:xlink="http://www.w3.org/1999/xlink">
<g id="graph0" class="graph" transform="scale(1 1) rotate(0) translate(4 248)">
<title>src/Attacker.cpp</title>
<polygon fill="white" stroke="transparent" points="-4,4 -4,-248 335,-248 335,4 -4,4"/>
<!-- Node1 -->
<g id="node1" class="node">
<title>Node1</title>
<g id="a_node1"><a xlink:title=" ">
<polygon fill="#bfbfbf" stroke="black" points="137.5,-224.5 137.5,-243.5 231.5,-243.5 231.5,-224.5 137.5,-224.5"/>
<text text-anchor="middle" x="184.5" y="-231.5" font-family="Helvetica,sans-Serif" font-size="10.00">src/Attacker.cpp</text>
</a>
</g>
</g>
<!-- Node2 -->
<g id="node2" class="node">
<title>Node2</title>
<g id="a_node2"><a xlink:href="Attacker_8h.html" target="_top" target="_top" target="_top" xlink:title=" ">
<polygon fill="white" stroke="black" points="122,-168.5 122,-187.5 187,-187.5 187,-168.5 122,-168.5"/>
<text text-anchor="middle" x="154.5" y="-175.5" font-family="Helvetica,sans-Serif" font-size="10.00">Attacker.h</text>
</a>
</g>
</g>
<!-- Node1&#45;&gt;Node2 -->
<g id="edge1" class="edge">
<title>Node1&#45;&gt;Node2</title>
<path fill="none" stroke="midnightblue" d="M179.55,-224.08C175.4,-216.61 169.35,-205.72 164.23,-196.52"/>
<polygon fill="midnightblue" stroke="midnightblue" points="167.28,-194.79 159.36,-187.75 161.16,-198.19 167.28,-194.79"/>
</g>
<!-- Node3 -->
<g id="node3" class="node">
<title>Node3</title>
<g id="a_node3"><a xlink:href="Entity_8h.html" target="_top" target="_top" target="_top" xlink:title=" ">
<polygon fill="white" stroke="black" points="188,-112.5 188,-131.5 241,-131.5 241,-112.5 188,-112.5"/>
<text text-anchor="middle" x="214.5" y="-119.5" font-family="Helvetica,sans-Serif" font-size="10.00">Entity.h</text>
</a>
</g>
</g>
<!-- Node1&#45;&gt;Node3 -->
<g id="edge14" class="edge">
<title>Node1&#45;&gt;Node3</title>
<path fill="none" stroke="midnightblue" d="M186.85,-224.37C191.72,-206.54 202.96,-165.3 209.52,-141.27"/>
<polygon fill="midnightblue" stroke="midnightblue" points="212.9,-142.16 212.16,-131.59 206.15,-140.32 212.9,-142.16"/>
</g>
<!-- Node4 -->
<g id="node4" class="node">
<title>Node4</title>
<g id="a_node4"><a xlink:href="constants_8h.html" target="_top" target="_top" target="_top" xlink:title=" ">
<polygon fill="white" stroke="black" points="0,-56.5 0,-75.5 73,-75.5 73,-56.5 0,-56.5"/>
<text text-anchor="middle" x="36.5" y="-63.5" font-family="Helvetica,sans-Serif" font-size="10.00">constants.h</text>
</a>
</g>
</g>
<!-- Node1&#45;&gt;Node4 -->
<g id="edge16" class="edge">
<title>Node1&#45;&gt;Node4</title>
<path fill="none" stroke="midnightblue" d="M167.48,-224.35C152.21,-216.15 129.63,-202.89 112.5,-188 87.98,-166.68 82.73,-159.55 65.5,-132 56.19,-117.12 48.29,-98.74 43.09,-85.33"/>
<polygon fill="midnightblue" stroke="midnightblue" points="46.31,-83.94 39.53,-75.8 39.75,-86.39 46.31,-83.94"/>
</g>
<!-- Node5 -->
<g id="node5" class="node">
<title>Node5</title>
<g id="a_node5"><a xlink:href="Map_8h.html" target="_top" target="_top" target="_top" xlink:title=" ">
<polygon fill="white" stroke="black" points="284,-56.5 284,-75.5 331,-75.5 331,-56.5 284,-56.5"/>
<text text-anchor="middle" x="307.5" y="-63.5" font-family="Helvetica,sans-Serif" font-size="10.00">Map.h</text>
</a>
</g>
</g>
<!-- Node1&#45;&gt;Node5 -->
<g id="edge15" class="edge">
<title>Node1&#45;&gt;Node5</title>
<path fill="none" stroke="midnightblue" d="M193.53,-224.46C210.77,-207.83 248.95,-169.44 274.5,-132 284.63,-117.15 293.68,-98.77 299.73,-85.35"/>
<polygon fill="midnightblue" stroke="midnightblue" points="303.1,-86.37 303.9,-75.81 296.68,-83.57 303.1,-86.37"/>
</g>
<!-- Node2&#45;&gt;Node3 -->
<g id="edge2" class="edge">
<title>Node2&#45;&gt;Node3</title>
<path fill="none" stroke="midnightblue" d="M164.14,-168.32C173.01,-160.34 186.37,-148.31 197.11,-138.65"/>
<polygon fill="midnightblue" stroke="midnightblue" points="199.59,-141.13 204.68,-131.83 194.91,-135.92 199.59,-141.13"/>
</g>
<!-- Node2&#45;&gt;Node4 -->
<g id="edge10" class="edge">
<title>Node2&#45;&gt;Node4</title>
<path fill="none" stroke="midnightblue" d="M138.87,-168.42C124.62,-160.16 103.41,-146.78 87.5,-132 71.96,-117.57 57.35,-98.12 47.79,-84.27"/>
<polygon fill="midnightblue" stroke="midnightblue" points="50.51,-82.04 42.03,-75.7 44.71,-85.95 50.51,-82.04"/>
</g>
<!-- Node2&#45;&gt;Node5 -->
<g id="edge13" class="edge">
<title>Node2&#45;&gt;Node5</title>
<path fill="none" stroke="midnightblue" d="M179.71,-168.47C200.04,-160.85 228.72,-148.37 250.5,-132 268.61,-118.39 285.18,-98.23 295.73,-83.98"/>
<polygon fill="midnightblue" stroke="midnightblue" points="298.76,-85.76 301.75,-75.59 293.07,-81.68 298.76,-85.76"/>
</g>
<!-- Node6 -->
<g id="node6" class="node">
<title>Node6</title>
<g id="a_node6"><a xlink:title=" ">
<polygon fill="white" stroke="#bfbfbf" points="149,-0.5 149,-19.5 196,-19.5 196,-0.5 149,-0.5"/>
<text text-anchor="middle" x="172.5" y="-7.5" font-family="Helvetica,sans-Serif" font-size="10.00">vector</text>
</a>
</g>
</g>
<!-- Node2&#45;&gt;Node6 -->
<g id="edge11" class="edge">
<title>Node2&#45;&gt;Node6</title>
<path fill="none" stroke="midnightblue" d="M148.15,-168.47C133.94,-148.25 102.18,-96.09 120.5,-56 126.28,-43.36 137.55,-32.91 148.13,-25.27"/>
<polygon fill="midnightblue" stroke="midnightblue" points="150.35,-28 156.72,-19.53 146.46,-22.18 150.35,-28"/>
</g>
<!-- Node9 -->
<g id="node9" class="node">
<title>Node9</title>
<g id="a_node9"><a xlink:title=" ">
<polygon fill="white" stroke="#bfbfbf" points="129.5,-56.5 129.5,-75.5 187.5,-75.5 187.5,-56.5 129.5,-56.5"/>
<text text-anchor="middle" x="158.5" y="-63.5" font-family="Helvetica,sans-Serif" font-size="10.00">memory</text>
</a>
</g>
</g>
<!-- Node2&#45;&gt;Node9 -->
<g id="edge12" class="edge">
<title>Node2&#45;&gt;Node9</title>
<path fill="none" stroke="midnightblue" d="M154.81,-168.37C155.46,-150.62 156.95,-109.67 157.82,-85.6"/>
<polygon fill="midnightblue" stroke="midnightblue" points="161.32,-85.71 158.19,-75.59 154.33,-85.46 161.32,-85.71"/>
</g>
<!-- Node3&#45;&gt;Node4 -->
<g id="edge3" class="edge">
<title>Node3&#45;&gt;Node4</title>
<path fill="none" stroke="midnightblue" d="M187.85,-112.92C157.75,-103.78 108.53,-88.85 74.43,-78.51"/>
<polygon fill="midnightblue" stroke="midnightblue" points="75.39,-75.14 64.8,-75.59 73.36,-81.84 75.39,-75.14"/>
</g>
<!-- Node3&#45;&gt;Node5 -->
<g id="edge4" class="edge">
<title>Node3&#45;&gt;Node5</title>
<path fill="none" stroke="midnightblue" d="M224.33,-112.32C237.31,-103.7 260.01,-90.36 278.53,-80.39"/>
<polygon fill="midnightblue" stroke="midnightblue" points="280.28,-83.42 287.48,-75.65 277.01,-77.23 280.28,-83.42"/>
</g>
<!-- Node8 -->
<g id="node8" class="node">
<title>Node8</title>
<g id="a_node8"><a xlink:title=" ">
<polygon fill="white" stroke="#bfbfbf" points="205.5,-56.5 205.5,-75.5 265.5,-75.5 265.5,-56.5 205.5,-56.5"/>
<text text-anchor="middle" x="235.5" y="-63.5" font-family="Helvetica,sans-Serif" font-size="10.00">iostream</text>
</a>
</g>
</g>
<!-- Node3&#45;&gt;Node8 -->
<g id="edge8" class="edge">
<title>Node3&#45;&gt;Node8</title>
<path fill="none" stroke="midnightblue" d="M217.97,-112.08C220.81,-104.77 224.93,-94.18 228.46,-85.1"/>
<polygon fill="midnightblue" stroke="midnightblue" points="231.73,-86.34 232.1,-75.75 225.21,-83.8 231.73,-86.34"/>
</g>
<!-- Node3&#45;&gt;Node9 -->
<g id="edge9" class="edge">
<title>Node3&#45;&gt;Node9</title>
<path fill="none" stroke="midnightblue" d="M205.5,-112.32C197.31,-104.42 184.99,-92.55 175.03,-82.94"/>
<polygon fill="midnightblue" stroke="midnightblue" points="177.29,-80.26 167.66,-75.83 172.43,-85.29 177.29,-80.26"/>
</g>
<!-- Node5&#45;&gt;Node3 -->
<g id="edge7" class="edge">
<title>Node5&#45;&gt;Node3</title>
<path fill="none" stroke="midnightblue" d="M297.71,-75.65C284.74,-84.27 262.04,-97.61 243.52,-107.59"/>
<polygon fill="midnightblue" stroke="midnightblue" points="241.76,-104.56 234.56,-112.32 245.03,-110.75 241.76,-104.56"/>
</g>
<!-- Node5&#45;&gt;Node6 -->
<g id="edge5" class="edge">
<title>Node5&#45;&gt;Node6</title>
<path fill="none" stroke="midnightblue" d="M286.11,-56.44C263.79,-47.52 228.6,-33.44 203.29,-23.32"/>
<polygon fill="midnightblue" stroke="midnightblue" points="204.38,-19.98 193.79,-19.52 201.78,-26.48 204.38,-19.98"/>
</g>
<!-- Node7 -->
<g id="node7" class="node">
<title>Node7</title>
<g id="a_node7"><a xlink:title=" ">
<polygon fill="white" stroke="#bfbfbf" points="285.5,-0.5 285.5,-19.5 329.5,-19.5 329.5,-0.5 285.5,-0.5"/>
<text text-anchor="middle" x="307.5" y="-7.5" font-family="Helvetica,sans-Serif" font-size="10.00">string</text>
</a>
</g>
</g>
<!-- Node5&#45;&gt;Node7 -->
<g id="edge6" class="edge">
<title>Node5&#45;&gt;Node7</title>
<path fill="none" stroke="midnightblue" d="M307.5,-56.08C307.5,-49.01 307.5,-38.86 307.5,-29.99"/>
<polygon fill="midnightblue" stroke="midnightblue" points="311,-29.75 307.5,-19.75 304,-29.75 311,-29.75"/>
</g>
</g>
</svg>
