<?xml version="1.0" encoding="UTF-8" standalone="no"?>
<!DOCTYPE svg PUBLIC "-//W3C//DTD SVG 1.1//EN"
 "http://www.w3.org/Graphics/SVG/1.1/DTD/svg11.dtd">
<!-- Generated by graphviz version 2.43.0 (0)
 -->
<!-- Title: src/Attacker.h Pages: 1 -->
<svg width="313pt" height="196pt"
 viewBox="0.00 0.00 312.50 196.00" xmlns="http://www.w3.org/2000/svg" xmlns:xlink="http://www.w3.org/1999/xlink">
<g id="graph0" class="graph" transform="scale(1 1) rotate(0) translate(4 192)">
<title>src/Attacker.h</title>
<polygon fill="white" stroke="transparent" points="-4,4 -4,-192 308.5,-192 308.5,4 -4,4"/>
<!-- Node1 -->
<g id="node1" class="node">
<title>Node1</title>
<g id="a_node1"><a xlink:title=" ">
<polygon fill="#bfbfbf" stroke="black" points="45,-168.5 45,-187.5 128,-187.5 128,-168.5 45,-168.5"/>
<text text-anchor="middle" x="86.5" y="-175.5" font-family="Helvetica,sans-Serif" font-size="10.00">src/Attacker.h</text>
</a>
</g>
</g>
<!-- Node2 -->
<g id="node2" class="node">
<title>Node2</title>
<g id="a_node2"><a xlink:href="Entity_8h.html" target="_top" xlink:title=" ">
<polygon fill="white" stroke="black" points="115,-112.5 115,-131.5 168,-131.5 168,-112.5 115,-112.5"/>
<text text-anchor="middle" x="141.5" y="-119.5" font-family="Helvetica,sans-Serif" font-size="10.00">Entity.h</text>
</a>
</g>
</g>
<!-- Node1&#45;&gt;Node2 -->
<g id="edge1" class="edge">
<title>Node1&#45;&gt;Node2</title>
<path fill="none" stroke="midnightblue" d="M95.58,-168.08C103.67,-160.14 115.7,-148.34 125.41,-138.8"/>
<polygon fill="midnightblue" stroke="midnightblue" points="127.9,-141.25 132.59,-131.75 123,-136.26 127.9,-141.25"/>
</g>
<!-- Node3 -->
<g id="node3" class="node">
<title>Node3</title>
<g id="a_node3"><a xlink:href="constants_8h.html" target="_top" xlink:title=" ">
<polygon fill="white" stroke="black" points="12,-56.5 12,-75.5 85,-75.5 85,-56.5 12,-56.5"/>
<text text-anchor="middle" x="48.5" y="-63.5" font-family="Helvetica,sans-Serif" font-size="10.00">constants.h</text>
</a>
</g>
</g>
<!-- Node1&#45;&gt;Node3 -->
<g id="edge9" class="edge">
<title>Node1&#45;&gt;Node3</title>
<path fill="none" stroke="midnightblue" d="M83.52,-168.37C77.36,-150.54 63.11,-109.3 54.81,-85.27"/>
<polygon fill="midnightblue" stroke="midnightblue" points="58.04,-83.9 51.47,-75.59 51.43,-86.19 58.04,-83.9"/>
</g>
<!-- Node4 -->
<g id="node4" class="node">
<title>Node4</title>
<g id="a_node4"><a xlink:href="Map_8h.html" target="_top" xlink:title=" ">
<polygon fill="white" stroke="black" points="103,-56.5 103,-75.5 150,-75.5 150,-56.5 103,-56.5"/>
<text text-anchor="middle" x="126.5" y="-63.5" font-family="Helvetica,sans-Serif" font-size="10.00">Map.h</text>
</a>
</g>
</g>
<!-- Node1&#45;&gt;Node4 -->
<g id="edge12" class="edge">
<title>Node1&#45;&gt;Node4</title>
<path fill="none" stroke="midnightblue" d="M88.77,-168.48C92.19,-155.95 99.05,-131.9 106.5,-112 109.87,-102.99 114.14,-93.21 117.87,-85.08"/>
<polygon fill="midnightblue" stroke="midnightblue" points="121.13,-86.38 122.2,-75.83 114.79,-83.41 121.13,-86.38"/>
</g>
<!-- Node5 -->
<g id="node5" class="node">
<title>Node5</title>
<g id="a_node5"><a xlink:title=" ">
<polygon fill="white" stroke="#bfbfbf" points="0,-0.5 0,-19.5 47,-19.5 47,-0.5 0,-0.5"/>
<text text-anchor="middle" x="23.5" y="-7.5" font-family="Helvetica,sans-Serif" font-size="10.00">vector</text>
</a>
</g>
</g>
<!-- Node1&#45;&gt;Node5 -->
<g id="edge10" class="edge">
<title>Node1&#45;&gt;Node5</title>
<path fill="none" stroke="midnightblue" d="M75.57,-168.45C56.37,-152.65 17.23,-116.75 2.5,-76 -3.27,-60.03 3.99,-41.58 11.5,-28.43"/>
<polygon fill="midnightblue" stroke="midnightblue" points="14.5,-30.23 16.84,-19.9 8.57,-26.52 14.5,-30.23"/>
</g>
<!-- Node8 -->
<g id="node8" class="node">
<title>Node8</title>
<g id="a_node8"><a xlink:title=" ">
<polygon fill="white" stroke="#bfbfbf" points="246.5,-56.5 246.5,-75.5 304.5,-75.5 304.5,-56.5 246.5,-56.5"/>
<text text-anchor="middle" x="275.5" y="-63.5" font-family="Helvetica,sans-Serif" font-size="10.00">memory</text>
</a>
</g>
</g>
<!-- Node1&#45;&gt;Node8 -->
<g id="edge11" class="edge">
<title>Node1&#45;&gt;Node8</title>
<path fill="none" stroke="midnightblue" d="M105.69,-168.37C124.36,-159.78 153.37,-145.9 177.5,-132 205.3,-115.99 235.89,-95.15 255.37,-81.44"/>
<polygon fill="midnightblue" stroke="midnightblue" points="257.61,-84.14 263.74,-75.51 253.56,-78.43 257.61,-84.14"/>
</g>
<!-- Node2&#45;&gt;Node3 -->
<g id="edge2" class="edge">
<title>Node2&#45;&gt;Node3</title>
<path fill="none" stroke="midnightblue" d="M126.56,-112.32C111.91,-103.82 89.37,-90.73 72.26,-80.8"/>
<polygon fill="midnightblue" stroke="midnightblue" points="73.81,-77.65 63.4,-75.65 70.3,-83.7 73.81,-77.65"/>
</g>
<!-- Node2&#45;&gt;Node4 -->
<g id="edge3" class="edge">
<title>Node2&#45;&gt;Node4</title>
<path fill="none" stroke="midnightblue" d="M133.86,-112.08C130.36,-104.93 127.07,-94.64 125.23,-85.69"/>
<polygon fill="midnightblue" stroke="midnightblue" points="128.69,-85.15 123.8,-75.75 121.76,-86.15 128.69,-85.15"/>
</g>
<!-- Node7 -->
<g id="node7" class="node">
<title>Node7</title>
<g id="a_node7"><a xlink:title=" ">
<polygon fill="white" stroke="#bfbfbf" points="168.5,-56.5 168.5,-75.5 228.5,-75.5 228.5,-56.5 168.5,-56.5"/>
<text text-anchor="middle" x="198.5" y="-63.5" font-family="Helvetica,sans-Serif" font-size="10.00">iostream</text>
</a>
</g>
</g>
<!-- Node2&#45;&gt;Node7 -->
<g id="edge7" class="edge">
<title>Node2&#45;&gt;Node7</title>
<path fill="none" stroke="midnightblue" d="M150.66,-112.32C159,-104.42 171.53,-92.55 181.68,-82.94"/>
<polygon fill="midnightblue" stroke="midnightblue" points="184.32,-85.25 189.18,-75.83 179.51,-80.17 184.32,-85.25"/>
</g>
<!-- Node2&#45;&gt;Node8 -->
<g id="edge8" class="edge">
<title>Node2&#45;&gt;Node8</title>
<path fill="none" stroke="midnightblue" d="M162.73,-112.44C184.88,-103.52 219.82,-89.44 244.94,-79.32"/>
<polygon fill="midnightblue" stroke="midnightblue" points="246.4,-82.5 254.37,-75.52 243.78,-76.01 246.4,-82.5"/>
</g>
<!-- Node4&#45;&gt;Node2 -->
<g id="edge6" class="edge">
<title>Node4&#45;&gt;Node2</title>
<path fill="none" stroke="midnightblue" d="M134.06,-75.75C137.56,-82.86 140.86,-93.14 142.72,-102.1"/>
<polygon fill="midnightblue" stroke="midnightblue" points="139.27,-102.7 144.19,-112.08 146.2,-101.68 139.27,-102.7"/>
</g>
<!-- Node4&#45;&gt;Node5 -->
<g id="edge4" class="edge">
<title>Node4&#45;&gt;Node5</title>
<path fill="none" stroke="midnightblue" d="M109.95,-56.32C93.51,-47.7 68.07,-34.36 49.03,-24.39"/>
<polygon fill="midnightblue" stroke="midnightblue" points="50.49,-21.2 40.01,-19.65 47.24,-27.4 50.49,-21.2"/>
</g>
<!-- Node6 -->
<g id="node6" class="node">
<title>Node6</title>
<g id="a_node6"><a xlink:title=" ">
<polygon fill="white" stroke="#bfbfbf" points="104.5,-0.5 104.5,-19.5 148.5,-19.5 148.5,-0.5 104.5,-0.5"/>
<text text-anchor="middle" x="126.5" y="-7.5" font-family="Helvetica,sans-Serif" font-size="10.00">string</text>
</a>
</g>
</g>
<!-- Node4&#45;&gt;Node6 -->
<g id="edge5" class="edge">
<title>Node4&#45;&gt;Node6</title>
<path fill="none" stroke="midnightblue" d="M126.5,-56.08C126.5,-49.01 126.5,-38.86 126.5,-29.99"/>
<polygon fill="midnightblue" stroke="midnightblue" points="130,-29.75 126.5,-19.75 123,-29.75 130,-29.75"/>
</g>
</g>
</svg>
