<?xml version="1.0" encoding="UTF-8" standalone="no"?>
<!DOCTYPE svg PUBLIC "-//W3C//DTD SVG 1.1//EN"
 "http://www.w3.org/Graphics/SVG/1.1/DTD/svg11.dtd">
<!-- Generated by graphviz version 2.43.0 (0)
 -->
<!-- Title: src/Attacker.h Pages: 1 -->
<svg width="474pt" height="252pt"
 viewBox="0.00 0.00 474.00 252.00" xmlns="http://www.w3.org/2000/svg" xmlns:xlink="http://www.w3.org/1999/xlink">
<g id="graph0" class="graph" transform="scale(1 1) rotate(0) translate(4 248)">
<title>src/Attacker.h</title>
<polygon fill="white" stroke="transparent" points="-4,4 -4,-248 470,-248 470,4 -4,4"/>
<!-- Node1 -->
<g id="node1" class="node">
<title>Node1</title>
<g id="a_node1"><a xlink:title=" ">
<polygon fill="#bfbfbf" stroke="black" points="126.5,-224.5 126.5,-243.5 209.5,-243.5 209.5,-224.5 126.5,-224.5"/>
<text text-anchor="middle" x="168" y="-231.5" font-family="Helvetica,sans-Serif" font-size="10.00">src/Attacker.h</text>
</a>
</g>
</g>
<!-- Node2 -->
<g id="node2" class="node">
<title>Node2</title>
<g id="a_node2"><a xlink:href="Attacker_8cpp.html" target="_top" xlink:title=" ">
<polygon fill="white" stroke="black" points="0,-168.5 0,-187.5 94,-187.5 94,-168.5 0,-168.5"/>
<text text-anchor="middle" x="47" y="-175.5" font-family="Helvetica,sans-Serif" font-size="10.00">src/Attacker.cpp</text>
</a>
</g>
</g>
<!-- Node1&#45;&gt;Node2 -->
<g id="edge1" class="edge">
<title>Node1&#45;&gt;Node2</title>
<path fill="none" stroke="midnightblue" d="M139.69,-220.37C117.03,-210.26 85.87,-196.35 66.08,-187.52"/>
<polygon fill="midnightblue" stroke="midnightblue" points="138.27,-223.56 148.83,-224.44 141.12,-217.17 138.27,-223.56"/>
</g>
<!-- Node3 -->
<g id="node3" class="node">
<title>Node3</title>
<g id="a_node3"><a xlink:href="Player_8h.html" target="_top" xlink:title=" ">
<polygon fill="white" stroke="black" points="178.5,-168.5 178.5,-187.5 251.5,-187.5 251.5,-168.5 178.5,-168.5"/>
<text text-anchor="middle" x="215" y="-175.5" font-family="Helvetica,sans-Serif" font-size="10.00">src/Player.h</text>
</a>
</g>
</g>
<!-- Node1&#45;&gt;Node3 -->
<g id="edge2" class="edge">
<title>Node1&#45;&gt;Node3</title>
<path fill="none" stroke="midnightblue" d="M182.42,-216.43C190.66,-206.97 200.65,-195.48 207.38,-187.75"/>
<polygon fill="midnightblue" stroke="midnightblue" points="179.69,-214.24 175.76,-224.08 184.97,-218.84 179.69,-214.24"/>
</g>
<!-- Node6 -->
<g id="node6" class="node">
<title>Node6</title>
<g id="a_node6"><a xlink:href="Game_8h.html" target="_top" xlink:title=" ">
<polygon fill="white" stroke="black" points="210,-56.5 210,-75.5 282,-75.5 282,-56.5 210,-56.5"/>
<text text-anchor="middle" x="246" y="-63.5" font-family="Helvetica,sans-Serif" font-size="10.00">src/Game.h</text>
</a>
</g>
</g>
<!-- Node1&#45;&gt;Node6 -->
<g id="edge13" class="edge">
<title>Node1&#45;&gt;Node6</title>
<path fill="none" stroke="midnightblue" d="M156.44,-215.56C141.49,-190.62 119.77,-144.2 141,-112 156.18,-88.99 185.83,-77.7 209.76,-72.19"/>
<polygon fill="midnightblue" stroke="midnightblue" points="153.63,-217.67 161.91,-224.28 159.56,-213.95 153.63,-217.67"/>
</g>
<!-- Node10 -->
<g id="node10" class="node">
<title>Node10</title>
<g id="a_node10"><a xlink:href="Tower_8h.html" target="_top" xlink:title=" ">
<polygon fill="white" stroke="black" points="292.5,-168.5 292.5,-187.5 363.5,-187.5 363.5,-168.5 292.5,-168.5"/>
<text text-anchor="middle" x="328" y="-175.5" font-family="Helvetica,sans-Serif" font-size="10.00">src/Tower.h</text>
</a>
</g>
</g>
<!-- Node1&#45;&gt;Node10 -->
<g id="edge10" class="edge">
<title>Node1&#45;&gt;Node10</title>
<path fill="none" stroke="midnightblue" d="M203.05,-221.17C233.17,-211 275.9,-196.59 302.77,-187.52"/>
<polygon fill="midnightblue" stroke="midnightblue" points="201.71,-217.93 193.35,-224.44 203.95,-224.56 201.71,-217.93"/>
</g>
<!-- Node4 -->
<g id="node4" class="node">
<title>Node4</title>
<g id="a_node4"><a xlink:href="Enemy_8h.html" target="_top" xlink:title=" ">
<polygon fill="white" stroke="black" points="290.5,-112.5 290.5,-131.5 365.5,-131.5 365.5,-112.5 290.5,-112.5"/>
<text text-anchor="middle" x="328" y="-119.5" font-family="Helvetica,sans-Serif" font-size="10.00">src/Enemy.h</text>
</a>
</g>
</g>
<!-- Node3&#45;&gt;Node4 -->
<g id="edge3" class="edge">
<title>Node3&#45;&gt;Node4</title>
<path fill="none" stroke="midnightblue" d="M242,-164.1C263.11,-154.01 291.86,-140.27 310.18,-131.52"/>
<polygon fill="midnightblue" stroke="midnightblue" points="240.42,-160.97 232.91,-168.44 243.44,-167.29 240.42,-160.97"/>
</g>
<!-- Node3&#45;&gt;Node6 -->
<g id="edge8" class="edge">
<title>Node3&#45;&gt;Node6</title>
<path fill="none" stroke="midnightblue" d="M228.3,-160.24C233.91,-152.18 239.86,-142.09 243,-132 249.04,-112.58 248.07,-88.34 246.96,-75.65"/>
<polygon fill="midnightblue" stroke="midnightblue" points="225.41,-158.25 222.27,-168.37 231.04,-162.42 225.41,-158.25"/>
</g>
<!-- Node9 -->
<g id="node9" class="node">
<title>Node9</title>
<g id="a_node9"><a xlink:href="Player_8cpp.html" target="_top" xlink:title=" ">
<polygon fill="white" stroke="black" points="150,-112.5 150,-131.5 234,-131.5 234,-112.5 150,-112.5"/>
<text text-anchor="middle" x="192" y="-119.5" font-family="Helvetica,sans-Serif" font-size="10.00">src/Player.cpp</text>
</a>
</g>
</g>
<!-- Node3&#45;&gt;Node9 -->
<g id="edge9" class="edge">
<title>Node3&#45;&gt;Node9</title>
<path fill="none" stroke="midnightblue" d="M207.2,-158.69C203.32,-149.59 198.82,-139.01 195.73,-131.75"/>
<polygon fill="midnightblue" stroke="midnightblue" points="204.06,-160.25 211.2,-168.08 210.5,-157.51 204.06,-160.25"/>
</g>
<!-- Node5 -->
<g id="node5" class="node">
<title>Node5</title>
<g id="a_node5"><a xlink:href="Enemy_8cpp.html" target="_top" xlink:title=" ">
<polygon fill="white" stroke="black" points="300,-56.5 300,-75.5 386,-75.5 386,-56.5 300,-56.5"/>
<text text-anchor="middle" x="343" y="-63.5" font-family="Helvetica,sans-Serif" font-size="10.00">src/Enemy.cpp</text>
</a>
</g>
</g>
<!-- Node4&#45;&gt;Node5 -->
<g id="edge4" class="edge">
<title>Node4&#45;&gt;Node5</title>
<path fill="none" stroke="midnightblue" d="M333.17,-102.4C335.68,-93.36 338.57,-82.94 340.57,-75.75"/>
<polygon fill="midnightblue" stroke="midnightblue" points="329.78,-101.51 330.48,-112.08 336.53,-103.38 329.78,-101.51"/>
</g>
<!-- Node4&#45;&gt;Node6 -->
<g id="edge5" class="edge">
<title>Node4&#45;&gt;Node6</title>
<path fill="none" stroke="midnightblue" d="M306.17,-106.62C291.19,-96.76 271.8,-83.99 259.14,-75.65"/>
<polygon fill="midnightblue" stroke="midnightblue" points="304.55,-109.75 314.83,-112.32 308.4,-103.9 304.55,-109.75"/>
</g>
<!-- Node7 -->
<g id="node7" class="node">
<title>Node7</title>
<g id="a_node7"><a xlink:href="Game_8cpp.html" target="_top" xlink:title=" ">
<polygon fill="white" stroke="black" points="155.5,-0.5 155.5,-19.5 238.5,-19.5 238.5,-0.5 155.5,-0.5"/>
<text text-anchor="middle" x="197" y="-7.5" font-family="Helvetica,sans-Serif" font-size="10.00">src/Game.cpp</text>
</a>
</g>
</g>
<!-- Node6&#45;&gt;Node7 -->
<g id="edge6" class="edge">
<title>Node6&#45;&gt;Node7</title>
<path fill="none" stroke="midnightblue" d="M230.97,-48.43C222.38,-38.97 211.96,-27.48 204.94,-19.75"/>
<polygon fill="midnightblue" stroke="midnightblue" points="228.6,-51.03 237.91,-56.08 233.78,-46.33 228.6,-51.03"/>
</g>
<!-- Node8 -->
<g id="node8" class="node">
<title>Node8</title>
<g id="a_node8"><a xlink:href="main_8cpp.html" target="_top" xlink:title=" ">
<polygon fill="white" stroke="black" points="256.5,-0.5 256.5,-19.5 335.5,-19.5 335.5,-0.5 256.5,-0.5"/>
<text text-anchor="middle" x="296" y="-7.5" font-family="Helvetica,sans-Serif" font-size="10.00">src/main.cpp</text>
</a>
</g>
</g>
<!-- Node6&#45;&gt;Node8 -->
<g id="edge7" class="edge">
<title>Node6&#45;&gt;Node8</title>
<path fill="none" stroke="midnightblue" d="M261.08,-48.72C269.89,-39.2 280.67,-27.56 287.9,-19.75"/>
<polygon fill="midnightblue" stroke="midnightblue" points="258.48,-46.37 254.26,-56.08 263.62,-51.12 258.48,-46.37"/>
</g>
<!-- Node10&#45;&gt;Node4 -->
<g id="edge11" class="edge">
<title>Node10&#45;&gt;Node4</title>
<path fill="none" stroke="midnightblue" d="M328,-157.8C328,-148.91 328,-138.78 328,-131.75"/>
<polygon fill="midnightblue" stroke="midnightblue" points="324.5,-158.08 328,-168.08 331.5,-158.08 324.5,-158.08"/>
</g>
<!-- Node11 -->
<g id="node11" class="node">
<title>Node11</title>
<g id="a_node11"><a xlink:href="Tower_8cpp.html" target="_top" xlink:title=" ">
<polygon fill="white" stroke="black" points="384,-112.5 384,-131.5 466,-131.5 466,-112.5 384,-112.5"/>
<text text-anchor="middle" x="425" y="-119.5" font-family="Helvetica,sans-Serif" font-size="10.00">src/Tower.cpp</text>
</a>
</g>
</g>
<!-- Node10&#45;&gt;Node11 -->
<g id="edge12" class="edge">
<title>Node10&#45;&gt;Node11</title>
<path fill="none" stroke="midnightblue" d="M352.34,-163.45C370.24,-153.48 394.05,-140.23 409.45,-131.65"/>
<polygon fill="midnightblue" stroke="midnightblue" points="350.62,-160.4 343.58,-168.32 354.02,-166.52 350.62,-160.4"/>
</g>
</g>
</svg>
