<?xml version="1.0" encoding="UTF-8" standalone="no"?>
<!DOCTYPE svg PUBLIC "-//W3C//DTD SVG 1.1//EN"
 "http://www.w3.org/Graphics/SVG/1.1/DTD/svg11.dtd">
<!-- Generated by graphviz version 2.43.0 (0)
 -->
<!-- Title: src/Attacker.h Pages: 1 -->
<svg width="1034pt" height="252pt"
 viewBox="0.00 0.00 1034.00 252.00" xmlns="http://www.w3.org/2000/svg" xmlns:xlink="http://www.w3.org/1999/xlink">
<g id="graph0" class="graph" transform="scale(1 1) rotate(0) translate(4 248)">
<title>src/Attacker.h</title>
<polygon fill="white" stroke="transparent" points="-4,4 -4,-248 1030,-248 1030,4 -4,4"/>
<!-- Node1 -->
<g id="node1" class="node">
<title>Node1</title>
<g id="a_node1"><a xlink:title=" ">
<polygon fill="#bfbfbf" stroke="black" points="601,-224.5 601,-243.5 684,-243.5 684,-224.5 601,-224.5"/>
<text text-anchor="middle" x="642.5" y="-231.5" font-family="Helvetica,sans-Serif" font-size="10.00">src/Attacker.h</text>
</a>
</g>
</g>
<!-- Node2 -->
<g id="node2" class="node">
<title>Node2</title>
<g id="a_node2"><a xlink:href="Entity_8h.html" target="_top" xlink:title=" ">
<polygon fill="white" stroke="black" points="589,-168.5 589,-187.5 642,-187.5 642,-168.5 589,-168.5"/>
<text text-anchor="middle" x="615.5" y="-175.5" font-family="Helvetica,sans-Serif" font-size="10.00">Entity.h</text>
</a>
</g>
</g>
<!-- Node1&#45;&gt;Node2 -->
<g id="edge1" class="edge">
<title>Node1&#45;&gt;Node2</title>
<path fill="none" stroke="midnightblue" d="M638.04,-224.08C634.35,-216.69 628.98,-205.95 624.41,-196.81"/>
<polygon fill="midnightblue" stroke="midnightblue" points="627.48,-195.13 619.88,-187.75 621.22,-198.26 627.48,-195.13"/>
</g>
<!-- Node3 -->
<g id="node3" class="node">
<title>Node3</title>
<g id="a_node3"><a xlink:href="constants_8h.html" target="_top" xlink:title=" ">
<polygon fill="white" stroke="black" points="640,-0.5 640,-19.5 713,-19.5 713,-0.5 640,-0.5"/>
<text text-anchor="middle" x="676.5" y="-7.5" font-family="Helvetica,sans-Serif" font-size="10.00">constants.h</text>
</a>
</g>
</g>
<!-- Node1&#45;&gt;Node3 -->
<g id="edge23" class="edge">
<title>Node1&#45;&gt;Node3</title>
<path fill="none" stroke="midnightblue" d="M680.25,-224.44C723.84,-212.26 793.27,-185.24 822.5,-132 851.07,-79.95 766.9,-41.18 714.68,-22.81"/>
<polygon fill="midnightblue" stroke="midnightblue" points="715.61,-19.43 705.02,-19.52 713.35,-26.06 715.61,-19.43"/>
</g>
<!-- Node4 -->
<g id="node4" class="node">
<title>Node4</title>
<g id="a_node4"><a xlink:href="Map_8h.html" target="_top" xlink:title=" ">
<polygon fill="white" stroke="black" points="410,-112.5 410,-131.5 457,-131.5 457,-112.5 410,-112.5"/>
<text text-anchor="middle" x="433.5" y="-119.5" font-family="Helvetica,sans-Serif" font-size="10.00">Map.h</text>
</a>
</g>
</g>
<!-- Node1&#45;&gt;Node4 -->
<g id="edge24" class="edge">
<title>Node1&#45;&gt;Node4</title>
<path fill="none" stroke="midnightblue" d="M600.9,-228.15C567.44,-222.67 520.43,-211.26 485.5,-188 467.15,-175.78 452.2,-155.03 443.12,-140.27"/>
<polygon fill="midnightblue" stroke="midnightblue" points="446.1,-138.43 438.02,-131.58 440.06,-141.98 446.1,-138.43"/>
</g>
<!-- Node5 -->
<g id="node5" class="node">
<title>Node5</title>
<g id="a_node5"><a xlink:title=" ">
<polygon fill="white" stroke="#bfbfbf" points="122,-56.5 122,-75.5 169,-75.5 169,-56.5 122,-56.5"/>
<text text-anchor="middle" x="145.5" y="-63.5" font-family="Helvetica,sans-Serif" font-size="10.00">vector</text>
</a>
</g>
</g>
<!-- Node1&#45;&gt;Node5 -->
<g id="edge30" class="edge">
<title>Node1&#45;&gt;Node5</title>
<path fill="none" stroke="midnightblue" d="M600.97,-227.58C555.1,-220.93 479.4,-208.03 416.5,-188 322.31,-158.01 217.09,-105.01 170.28,-80.34"/>
<polygon fill="midnightblue" stroke="midnightblue" points="171.67,-77.11 161.2,-75.52 168.39,-83.3 171.67,-77.11"/>
</g>
<!-- Node7 -->
<g id="node7" class="node">
<title>Node7</title>
<g id="a_node7"><a xlink:title=" ">
<polygon fill="white" stroke="#bfbfbf" points="470.5,-56.5 470.5,-75.5 528.5,-75.5 528.5,-56.5 470.5,-56.5"/>
<text text-anchor="middle" x="499.5" y="-63.5" font-family="Helvetica,sans-Serif" font-size="10.00">memory</text>
</a>
</g>
</g>
<!-- Node1&#45;&gt;Node7 -->
<g id="edge32" class="edge">
<title>Node1&#45;&gt;Node7</title>
<path fill="none" stroke="midnightblue" d="M627.31,-224.36C613.75,-216.16 593.87,-202.9 579.5,-188 548.31,-155.66 521.73,-109.63 508.49,-84.69"/>
<polygon fill="midnightblue" stroke="midnightblue" points="511.52,-82.93 503.8,-75.68 505.32,-86.17 511.52,-82.93"/>
</g>
<!-- Node11 -->
<g id="node11" class="node">
<title>Node11</title>
<g id="a_node11"><a xlink:href="Definitions_8h.html" target="_top" xlink:title=" ">
<polygon fill="white" stroke="black" points="225.5,-56.5 225.5,-75.5 303.5,-75.5 303.5,-56.5 225.5,-56.5"/>
<text text-anchor="middle" x="264.5" y="-63.5" font-family="Helvetica,sans-Serif" font-size="10.00">Definitions.h</text>
</a>
</g>
</g>
<!-- Node1&#45;&gt;Node11 -->
<g id="edge29" class="edge">
<title>Node1&#45;&gt;Node11</title>
<path fill="none" stroke="midnightblue" d="M600.85,-226.51C563.19,-219.76 506.71,-207.41 460.5,-188 391.12,-158.85 317.83,-107.17 283.87,-81.84"/>
<polygon fill="midnightblue" stroke="midnightblue" points="285.83,-78.93 275.74,-75.71 281.62,-84.53 285.83,-78.93"/>
</g>
<!-- Node16 -->
<g id="node16" class="node">
<title>Node16</title>
<g id="a_node16"><a xlink:href="HelpStructs_8h.html" target="_top" xlink:title=" ">
<polygon fill="white" stroke="black" points="681.5,-112.5 681.5,-131.5 763.5,-131.5 763.5,-112.5 681.5,-112.5"/>
<text text-anchor="middle" x="722.5" y="-119.5" font-family="Helvetica,sans-Serif" font-size="10.00">HelpStructs.h</text>
</a>
</g>
</g>
<!-- Node1&#45;&gt;Node16 -->
<g id="edge28" class="edge">
<title>Node1&#45;&gt;Node16</title>
<path fill="none" stroke="midnightblue" d="M648.78,-224.37C661.98,-206.22 692.83,-163.8 710.14,-139.99"/>
<polygon fill="midnightblue" stroke="midnightblue" points="713.2,-141.74 716.25,-131.59 707.54,-137.62 713.2,-141.74"/>
</g>
<!-- Node17 -->
<g id="node17" class="node">
<title>Node17</title>
<g id="a_node17"><a xlink:title=" ">
<polygon fill="white" stroke="#bfbfbf" points="781.5,-112.5 781.5,-131.5 813.5,-131.5 813.5,-112.5 781.5,-112.5"/>
<text text-anchor="middle" x="797.5" y="-119.5" font-family="Helvetica,sans-Serif" font-size="10.00">set</text>
</a>
</g>
</g>
<!-- Node1&#45;&gt;Node17 -->
<g id="edge31" class="edge">
<title>Node1&#45;&gt;Node17</title>
<path fill="none" stroke="midnightblue" d="M654.66,-224.37C681.15,-205.57 744.28,-160.77 777.02,-137.53"/>
<polygon fill="midnightblue" stroke="midnightblue" points="779.26,-140.23 785.39,-131.59 775.21,-134.52 779.26,-140.23"/>
</g>
<!-- Node18 -->
<g id="node18" class="node">
<title>Node18</title>
<g id="a_node18"><a xlink:href="exceptions_8h.html" target="_top" xlink:title=" ">
<polygon fill="white" stroke="black" points="54,-168.5 54,-187.5 133,-187.5 133,-168.5 54,-168.5"/>
<text text-anchor="middle" x="93.5" y="-175.5" font-family="Helvetica,sans-Serif" font-size="10.00">exceptions.h</text>
</a>
</g>
</g>
<!-- Node1&#45;&gt;Node18 -->
<g id="edge25" class="edge">
<title>Node1&#45;&gt;Node18</title>
<path fill="none" stroke="midnightblue" d="M600.95,-228.98C520.28,-221.17 336.81,-203.35 182.5,-188 169.82,-186.74 156.12,-185.36 143.36,-184.07"/>
<polygon fill="midnightblue" stroke="midnightblue" points="143.67,-180.58 133.37,-183.06 142.97,-187.55 143.67,-180.58"/>
</g>
<!-- Node20 -->
<g id="node20" class="node">
<title>Node20</title>
<g id="a_node20"><a xlink:title=" ">
<polygon fill="white" stroke="#bfbfbf" points="851,-168.5 851,-187.5 898,-187.5 898,-168.5 851,-168.5"/>
<text text-anchor="middle" x="874.5" y="-175.5" font-family="Helvetica,sans-Serif" font-size="10.00">queue</text>
</a>
</g>
</g>
<!-- Node1&#45;&gt;Node20 -->
<g id="edge33" class="edge">
<title>Node1&#45;&gt;Node20</title>
<path fill="none" stroke="midnightblue" d="M679.7,-224.42C718.76,-215.41 781.97,-200.78 836.5,-188 837.94,-187.66 839.42,-187.32 840.91,-186.96"/>
<polygon fill="midnightblue" stroke="midnightblue" points="841.86,-190.34 850.79,-184.63 840.25,-183.52 841.86,-190.34"/>
</g>
<!-- Node21 -->
<g id="node21" class="node">
<title>Node21</title>
<g id="a_node21"><a xlink:title=" ">
<polygon fill="white" stroke="#bfbfbf" points="916,-168.5 916,-187.5 963,-187.5 963,-168.5 916,-168.5"/>
<text text-anchor="middle" x="939.5" y="-175.5" font-family="Helvetica,sans-Serif" font-size="10.00">deque</text>
</a>
</g>
</g>
<!-- Node1&#45;&gt;Node21 -->
<g id="edge34" class="edge">
<title>Node1&#45;&gt;Node21</title>
<path fill="none" stroke="midnightblue" d="M684.08,-227.33C734.49,-220.15 822.19,-206.69 905.89,-188.19"/>
<polygon fill="midnightblue" stroke="midnightblue" points="906.81,-191.57 915.81,-185.97 905.28,-184.74 906.81,-191.57"/>
</g>
<!-- Node22 -->
<g id="node22" class="node">
<title>Node22</title>
<g id="a_node22"><a xlink:title=" ">
<polygon fill="white" stroke="#bfbfbf" points="981,-168.5 981,-187.5 1026,-187.5 1026,-168.5 981,-168.5"/>
<text text-anchor="middle" x="1003.5" y="-175.5" font-family="Helvetica,sans-Serif" font-size="10.00">utility</text>
</a>
</g>
</g>
<!-- Node1&#45;&gt;Node22 -->
<g id="edge35" class="edge">
<title>Node1&#45;&gt;Node22</title>
<path fill="none" stroke="midnightblue" d="M684.25,-229.29C745.3,-223.44 862.6,-210.56 970.81,-188.11"/>
<polygon fill="midnightblue" stroke="midnightblue" points="971.85,-191.46 980.91,-185.97 970.4,-184.61 971.85,-191.46"/>
</g>
<!-- Node2&#45;&gt;Node3 -->
<g id="edge2" class="edge">
<title>Node2&#45;&gt;Node3</title>
<path fill="none" stroke="midnightblue" d="M618.78,-168.08C628.42,-141.83 656.82,-64.55 669.84,-29.12"/>
<polygon fill="midnightblue" stroke="midnightblue" points="673.19,-30.16 673.35,-19.57 666.62,-27.75 673.19,-30.16"/>
</g>
<!-- Node2&#45;&gt;Node4 -->
<g id="edge3" class="edge">
<title>Node2&#45;&gt;Node4</title>
<path fill="none" stroke="midnightblue" d="M588.96,-170.49C556.55,-161.6 502.05,-145.54 466.86,-134.58"/>
<polygon fill="midnightblue" stroke="midnightblue" points="467.63,-131.15 457.04,-131.49 465.53,-137.83 467.63,-131.15"/>
</g>
<!-- Node2&#45;&gt;Node7 -->
<g id="edge21" class="edge">
<title>Node2&#45;&gt;Node7</title>
<path fill="none" stroke="midnightblue" d="M606.4,-168.37C586.92,-149.89 540.94,-106.29 516.1,-82.74"/>
<polygon fill="midnightblue" stroke="midnightblue" points="518.22,-79.93 508.56,-75.59 513.41,-85.01 518.22,-79.93"/>
</g>
<!-- Node8 -->
<g id="node8" class="node">
<title>Node8</title>
<g id="a_node8"><a xlink:title=" ">
<polygon fill="white" stroke="#bfbfbf" points="547,-56.5 547,-75.5 610,-75.5 610,-56.5 547,-56.5"/>
<text text-anchor="middle" x="578.5" y="-63.5" font-family="Helvetica,sans-Serif" font-size="10.00">ncurses.h</text>
</a>
</g>
</g>
<!-- Node2&#45;&gt;Node8 -->
<g id="edge18" class="edge">
<title>Node2&#45;&gt;Node8</title>
<path fill="none" stroke="midnightblue" d="M612.6,-168.37C606.6,-150.54 592.73,-109.3 584.65,-85.27"/>
<polygon fill="midnightblue" stroke="midnightblue" points="587.9,-83.95 581.39,-75.59 581.26,-86.19 587.9,-83.95"/>
</g>
<!-- Node15 -->
<g id="node15" class="node">
<title>Node15</title>
<g id="a_node15"><a xlink:title=" ">
<polygon fill="white" stroke="#bfbfbf" points="473.5,-0.5 473.5,-19.5 533.5,-19.5 533.5,-0.5 473.5,-0.5"/>
<text text-anchor="middle" x="503.5" y="-7.5" font-family="Helvetica,sans-Serif" font-size="10.00">iostream</text>
</a>
</g>
</g>
<!-- Node2&#45;&gt;Node15 -->
<g id="edge20" class="edge">
<title>Node2&#45;&gt;Node15</title>
<path fill="none" stroke="midnightblue" d="M616.96,-168.45C620.95,-143.97 630.94,-74.22 618.5,-56 601.8,-31.53 569.63,-20.37 543.55,-15.28"/>
<polygon fill="midnightblue" stroke="midnightblue" points="543.99,-11.8 533.54,-13.55 542.8,-18.7 543.99,-11.8"/>
</g>
<!-- Node2&#45;&gt;Node16 -->
<g id="edge19" class="edge">
<title>Node2&#45;&gt;Node16</title>
<path fill="none" stroke="midnightblue" d="M632.69,-168.32C649.85,-159.66 676.45,-146.24 696.25,-136.25"/>
<polygon fill="midnightblue" stroke="midnightblue" points="698,-139.28 705.35,-131.65 694.85,-133.04 698,-139.28"/>
</g>
<!-- Node2&#45;&gt;Node17 -->
<g id="edge22" class="edge">
<title>Node2&#45;&gt;Node17</title>
<path fill="none" stroke="midnightblue" d="M642.05,-169.97C671.57,-162.03 720.83,-148.4 771.87,-132.05"/>
<polygon fill="midnightblue" stroke="midnightblue" points="772.98,-135.37 781.42,-128.97 770.82,-128.71 772.98,-135.37"/>
</g>
<!-- Node4&#45;&gt;Node2 -->
<g id="edge10" class="edge">
<title>Node4&#45;&gt;Node2</title>
<path fill="none" stroke="midnightblue" d="M457.06,-128.7C489.01,-137.38 545.8,-154.11 582.1,-165.41"/>
<polygon fill="midnightblue" stroke="midnightblue" points="581.16,-168.78 591.75,-168.44 583.26,-162.11 581.16,-168.78"/>
</g>
<!-- Node4&#45;&gt;Node5 -->
<g id="edge4" class="edge">
<title>Node4&#45;&gt;Node5</title>
<path fill="none" stroke="midnightblue" d="M409.98,-117.21C365.57,-109.94 266.39,-93.26 183.5,-76 182.05,-75.7 180.57,-75.38 179.07,-75.06"/>
<polygon fill="midnightblue" stroke="midnightblue" points="179.7,-71.61 169.17,-72.82 178.15,-78.44 179.7,-71.61"/>
</g>
<!-- Node6 -->
<g id="node6" class="node">
<title>Node6</title>
<g id="a_node6"><a xlink:title=" ">
<polygon fill="white" stroke="#bfbfbf" points="146.5,-0.5 146.5,-19.5 190.5,-19.5 190.5,-0.5 146.5,-0.5"/>
<text text-anchor="middle" x="168.5" y="-7.5" font-family="Helvetica,sans-Serif" font-size="10.00">string</text>
</a>
</g>
</g>
<!-- Node4&#45;&gt;Node6 -->
<g id="edge5" class="edge">
<title>Node4&#45;&gt;Node6</title>
<path fill="none" stroke="midnightblue" d="M409.94,-121.43C367.78,-121.12 278.06,-115.42 216.5,-76 198.65,-64.57 185.14,-43.98 177.08,-29.03"/>
<polygon fill="midnightblue" stroke="midnightblue" points="180.02,-27.1 172.38,-19.77 173.78,-30.27 180.02,-27.1"/>
</g>
<!-- Node4&#45;&gt;Node7 -->
<g id="edge6" class="edge">
<title>Node4&#45;&gt;Node7</title>
<path fill="none" stroke="midnightblue" d="M444.1,-112.32C453.96,-104.26 468.85,-92.08 480.72,-82.37"/>
<polygon fill="midnightblue" stroke="midnightblue" points="483.18,-84.88 488.7,-75.83 478.75,-79.46 483.18,-84.88"/>
</g>
<!-- Node4&#45;&gt;Node8 -->
<g id="edge7" class="edge">
<title>Node4&#45;&gt;Node8</title>
<path fill="none" stroke="midnightblue" d="M456.48,-112.44C480.66,-103.44 518.92,-89.19 546.15,-79.05"/>
<polygon fill="midnightblue" stroke="midnightblue" points="547.48,-82.29 555.63,-75.52 545.04,-75.73 547.48,-82.29"/>
</g>
<!-- Node9 -->
<g id="node9" class="node">
<title>Node9</title>
<g id="a_node9"><a xlink:title=" ">
<polygon fill="white" stroke="#bfbfbf" points="387,-56.5 387,-75.5 452,-75.5 452,-56.5 387,-56.5"/>
<text text-anchor="middle" x="419.5" y="-63.5" font-family="Helvetica,sans-Serif" font-size="10.00">functional</text>
</a>
</g>
</g>
<!-- Node4&#45;&gt;Node9 -->
<g id="edge8" class="edge">
<title>Node4&#45;&gt;Node9</title>
<path fill="none" stroke="midnightblue" d="M431.19,-112.08C429.33,-104.93 426.66,-94.64 424.35,-85.69"/>
<polygon fill="midnightblue" stroke="midnightblue" points="427.67,-84.55 421.77,-75.75 420.89,-86.31 427.67,-84.55"/>
</g>
<!-- Node10 -->
<g id="node10" class="node">
<title>Node10</title>
<g id="a_node10"><a xlink:title=" ">
<polygon fill="white" stroke="#bfbfbf" points="322,-56.5 322,-75.5 369,-75.5 369,-56.5 322,-56.5"/>
<text text-anchor="middle" x="345.5" y="-63.5" font-family="Helvetica,sans-Serif" font-size="10.00">cmath</text>
</a>
</g>
</g>
<!-- Node4&#45;&gt;Node10 -->
<g id="edge9" class="edge">
<title>Node4&#45;&gt;Node10</title>
<path fill="none" stroke="midnightblue" d="M419.36,-112.32C405.63,-103.9 384.56,-90.97 368.44,-81.07"/>
<polygon fill="midnightblue" stroke="midnightblue" points="369.96,-77.9 359.6,-75.65 366.3,-83.87 369.96,-77.9"/>
</g>
<!-- Node4&#45;&gt;Node11 -->
<g id="edge11" class="edge">
<title>Node4&#45;&gt;Node11</title>
<path fill="none" stroke="midnightblue" d="M409.64,-113.38C381.36,-104.34 333.92,-89.18 301.01,-78.67"/>
<polygon fill="midnightblue" stroke="midnightblue" points="301.89,-75.27 291.3,-75.56 299.76,-81.94 301.89,-75.27"/>
</g>
<!-- Node11&#45;&gt;Node3 -->
<g id="edge17" class="edge">
<title>Node11&#45;&gt;Node3</title>
<path fill="none" stroke="midnightblue" d="M303.76,-57.43C306.71,-56.93 309.65,-56.44 312.5,-56 426.06,-38.35 560.42,-23.22 629.81,-15.83"/>
<polygon fill="midnightblue" stroke="midnightblue" points="630.4,-19.29 639.97,-14.75 629.66,-12.33 630.4,-19.29"/>
</g>
<!-- Node11&#45;&gt;Node6 -->
<g id="edge14" class="edge">
<title>Node11&#45;&gt;Node6</title>
<path fill="none" stroke="midnightblue" d="M249.08,-56.32C233.96,-47.82 210.68,-34.73 193.03,-24.8"/>
<polygon fill="midnightblue" stroke="midnightblue" points="194.32,-21.51 183.89,-19.65 190.89,-27.61 194.32,-21.51"/>
</g>
<!-- Node12 -->
<g id="node12" class="node">
<title>Node12</title>
<g id="a_node12"><a xlink:title=" ">
<polygon fill="white" stroke="#bfbfbf" points="339,-0.5 339,-19.5 394,-19.5 394,-0.5 339,-0.5"/>
<text text-anchor="middle" x="366.5" y="-7.5" font-family="Helvetica,sans-Serif" font-size="10.00">fstream</text>
</a>
</g>
</g>
<!-- Node11&#45;&gt;Node12 -->
<g id="edge12" class="edge">
<title>Node11&#45;&gt;Node12</title>
<path fill="none" stroke="midnightblue" d="M280.89,-56.32C297.17,-47.7 322.37,-34.36 341.22,-24.39"/>
<polygon fill="midnightblue" stroke="midnightblue" points="342.95,-27.43 350.15,-19.65 339.68,-21.24 342.95,-27.43"/>
</g>
<!-- Node13 -->
<g id="node13" class="node">
<title>Node13</title>
<g id="a_node13"><a xlink:title=" ">
<polygon fill="white" stroke="#bfbfbf" points="208.5,-0.5 208.5,-19.5 246.5,-19.5 246.5,-0.5 208.5,-0.5"/>
<text text-anchor="middle" x="227.5" y="-7.5" font-family="Helvetica,sans-Serif" font-size="10.00">map</text>
</a>
</g>
</g>
<!-- Node11&#45;&gt;Node13 -->
<g id="edge13" class="edge">
<title>Node11&#45;&gt;Node13</title>
<path fill="none" stroke="midnightblue" d="M258.39,-56.08C253.22,-48.53 245.65,-37.49 239.31,-28.23"/>
<polygon fill="midnightblue" stroke="midnightblue" points="242.04,-26.02 233.5,-19.75 236.26,-29.98 242.04,-26.02"/>
</g>
<!-- Node14 -->
<g id="node14" class="node">
<title>Node14</title>
<g id="a_node14"><a xlink:title=" ">
<polygon fill="white" stroke="#bfbfbf" points="264.5,-0.5 264.5,-19.5 320.5,-19.5 320.5,-0.5 264.5,-0.5"/>
<text text-anchor="middle" x="292.5" y="-7.5" font-family="Helvetica,sans-Serif" font-size="10.00">sstream</text>
</a>
</g>
</g>
<!-- Node11&#45;&gt;Node14 -->
<g id="edge15" class="edge">
<title>Node11&#45;&gt;Node14</title>
<path fill="none" stroke="midnightblue" d="M269.12,-56.08C272.96,-48.69 278.52,-37.95 283.26,-28.81"/>
<polygon fill="midnightblue" stroke="midnightblue" points="286.47,-30.24 287.96,-19.75 280.25,-27.02 286.47,-30.24"/>
</g>
<!-- Node11&#45;&gt;Node15 -->
<g id="edge16" class="edge">
<title>Node11&#45;&gt;Node15</title>
<path fill="none" stroke="midnightblue" d="M302.37,-56.44C346.33,-46.51 418.52,-30.2 463.41,-20.06"/>
<polygon fill="midnightblue" stroke="midnightblue" points="464.39,-23.42 473.37,-17.81 462.85,-16.6 464.39,-23.42"/>
</g>
<!-- Node18&#45;&gt;Node6 -->
<g id="edge26" class="edge">
<title>Node18&#45;&gt;Node6</title>
<path fill="none" stroke="midnightblue" d="M92.82,-168.39C91.6,-147.55 90.87,-93.36 112.5,-56 119.85,-43.31 132.26,-32.78 143.53,-25.11"/>
<polygon fill="midnightblue" stroke="midnightblue" points="145.66,-27.91 152.21,-19.58 141.89,-22 145.66,-27.91"/>
</g>
<!-- Node19 -->
<g id="node19" class="node">
<title>Node19</title>
<g id="a_node19"><a xlink:title=" ">
<polygon fill="white" stroke="#bfbfbf" points="0,-112.5 0,-131.5 65,-131.5 65,-112.5 0,-112.5"/>
<text text-anchor="middle" x="32.5" y="-119.5" font-family="Helvetica,sans-Serif" font-size="10.00">exception</text>
</a>
</g>
</g>
<!-- Node18&#45;&gt;Node19 -->
<g id="edge27" class="edge">
<title>Node18&#45;&gt;Node19</title>
<path fill="none" stroke="midnightblue" d="M83.7,-168.32C74.68,-160.34 61.09,-148.31 50.18,-138.65"/>
<polygon fill="midnightblue" stroke="midnightblue" points="52.29,-135.84 42.48,-131.83 47.65,-141.08 52.29,-135.84"/>
</g>
</g>
</svg>
