<?xml version="1.0" encoding="UTF-8" standalone="no"?>
<!DOCTYPE svg PUBLIC "-//W3C//DTD SVG 1.1//EN"
 "http://www.w3.org/Graphics/SVG/1.1/DTD/svg11.dtd">
<!-- Generated by graphviz version 2.43.0 (0)
 -->
<!-- Title: src/Attacker.cpp Pages: 1 -->
<svg width="474pt" height="252pt"
 viewBox="0.00 0.00 474.00 252.00" xmlns="http://www.w3.org/2000/svg" xmlns:xlink="http://www.w3.org/1999/xlink">
<g id="graph0" class="graph" transform="scale(1 1) rotate(0) translate(4 248)">
<title>src/Attacker.cpp</title>
<polygon fill="white" stroke="transparent" points="-4,4 -4,-248 470,-248 470,4 -4,4"/>
<!-- Node1 -->
<g id="node1" class="node">
<title>Node1</title>
<g id="a_node1"><a xlink:title=" ">
<polygon fill="#bfbfbf" stroke="black" points="142.5,-224.5 142.5,-243.5 236.5,-243.5 236.5,-224.5 142.5,-224.5"/>
<text text-anchor="middle" x="189.5" y="-231.5" font-family="Helvetica,sans-Serif" font-size="10.00">src/Attacker.cpp</text>
</a>
</g>
</g>
<!-- Node2 -->
<g id="node2" class="node">
<title>Node2</title>
<g id="a_node2"><a xlink:href="Attacker_8h.html" target="_top" xlink:title=" ">
<polygon fill="white" stroke="black" points="188,-168.5 188,-187.5 253,-187.5 253,-168.5 188,-168.5"/>
<text text-anchor="middle" x="220.5" y="-175.5" font-family="Helvetica,sans-Serif" font-size="10.00">Attacker.h</text>
</a>
</g>
</g>
<!-- Node1&#45;&gt;Node2 -->
<g id="edge1" class="edge">
<title>Node1&#45;&gt;Node2</title>
<path fill="none" stroke="midnightblue" d="M194.62,-224.08C198.91,-216.61 205.16,-205.72 210.44,-196.52"/>
<polygon fill="midnightblue" stroke="midnightblue" points="213.53,-198.17 215.48,-187.75 207.46,-194.68 213.53,-198.17"/>
</g>
<!-- Node3 -->
<g id="node3" class="node">
<title>Node3</title>
<g id="a_node3"><a xlink:href="Entity_8h.html" target="_top" xlink:title=" ">
<polygon fill="white" stroke="black" points="136,-112.5 136,-131.5 189,-131.5 189,-112.5 136,-112.5"/>
<text text-anchor="middle" x="162.5" y="-119.5" font-family="Helvetica,sans-Serif" font-size="10.00">Entity.h</text>
</a>
</g>
</g>
<!-- Node1&#45;&gt;Node3 -->
<g id="edge17" class="edge">
<title>Node1&#45;&gt;Node3</title>
<path fill="none" stroke="midnightblue" d="M187.38,-224.37C183.02,-206.62 172.97,-165.67 167.06,-141.6"/>
<polygon fill="midnightblue" stroke="midnightblue" points="170.39,-140.47 164.61,-131.59 163.59,-142.14 170.39,-140.47"/>
</g>
<!-- Node4 -->
<g id="node4" class="node">
<title>Node4</title>
<g id="a_node4"><a xlink:href="constants_8h.html" target="_top" xlink:title=" ">
<polygon fill="white" stroke="black" points="0,-56.5 0,-75.5 73,-75.5 73,-56.5 0,-56.5"/>
<text text-anchor="middle" x="36.5" y="-63.5" font-family="Helvetica,sans-Serif" font-size="10.00">constants.h</text>
</a>
</g>
</g>
<!-- Node1&#45;&gt;Node4 -->
<g id="edge19" class="edge">
<title>Node1&#45;&gt;Node4</title>
<path fill="none" stroke="midnightblue" d="M180.77,-224.24C163.58,-206.9 124.24,-166.89 92.5,-132 77.7,-115.73 61.34,-96.61 50.15,-83.33"/>
<polygon fill="midnightblue" stroke="midnightblue" points="52.72,-80.95 43.61,-75.54 47.36,-85.45 52.72,-80.95"/>
</g>
<!-- Node5 -->
<g id="node5" class="node">
<title>Node5</title>
<g id="a_node5"><a xlink:href="Map_8h.html" target="_top" xlink:title=" ">
<polygon fill="white" stroke="black" points="246,-56.5 246,-75.5 293,-75.5 293,-56.5 246,-56.5"/>
<text text-anchor="middle" x="269.5" y="-63.5" font-family="Helvetica,sans-Serif" font-size="10.00">Map.h</text>
</a>
</g>
</g>
<!-- Node1&#45;&gt;Node5 -->
<g id="edge18" class="edge">
<title>Node1&#45;&gt;Node5</title>
<path fill="none" stroke="midnightblue" d="M214.28,-224.41C230.66,-217.34 250.98,-205.58 261.5,-188 280.53,-156.2 277.17,-110.91 273.21,-85.73"/>
<polygon fill="midnightblue" stroke="midnightblue" points="276.63,-84.93 271.43,-75.7 269.73,-86.15 276.63,-84.93"/>
</g>
<!-- Node2&#45;&gt;Node3 -->
<g id="edge2" class="edge">
<title>Node2&#45;&gt;Node3</title>
<path fill="none" stroke="midnightblue" d="M211.18,-168.32C202.61,-160.34 189.69,-148.31 179.31,-138.65"/>
<polygon fill="midnightblue" stroke="midnightblue" points="181.69,-136.09 171.99,-131.83 176.92,-141.21 181.69,-136.09"/>
</g>
<!-- Node2&#45;&gt;Node4 -->
<g id="edge13" class="edge">
<title>Node2&#45;&gt;Node4</title>
<path fill="none" stroke="midnightblue" d="M199.78,-168.36C180.36,-159.97 150.77,-146.41 126.5,-132 100.58,-116.6 72.74,-95.76 55,-81.87"/>
<polygon fill="midnightblue" stroke="midnightblue" points="57.17,-79.12 47.15,-75.66 52.82,-84.61 57.17,-79.12"/>
</g>
<!-- Node2&#45;&gt;Node5 -->
<g id="edge16" class="edge">
<title>Node2&#45;&gt;Node5</title>
<path fill="none" stroke="midnightblue" d="M224.34,-168.37C232.32,-150.46 250.83,-108.92 261.5,-84.95"/>
<polygon fill="midnightblue" stroke="midnightblue" points="264.8,-86.15 265.67,-75.59 258.41,-83.3 264.8,-86.15"/>
</g>
<!-- Node6 -->
<g id="node6" class="node">
<title>Node6</title>
<g id="a_node6"><a xlink:title=" ">
<polygon fill="white" stroke="#bfbfbf" points="419,-0.5 419,-19.5 466,-19.5 466,-0.5 419,-0.5"/>
<text text-anchor="middle" x="442.5" y="-7.5" font-family="Helvetica,sans-Serif" font-size="10.00">vector</text>
</a>
</g>
</g>
<!-- Node2&#45;&gt;Node6 -->
<g id="edge14" class="edge">
<title>Node2&#45;&gt;Node6</title>
<path fill="none" stroke="midnightblue" d="M232.12,-168.31C268.09,-141.42 377.84,-59.35 422.89,-25.67"/>
<polygon fill="midnightblue" stroke="midnightblue" points="425.08,-28.4 430.99,-19.61 420.89,-22.79 425.08,-28.4"/>
</g>
<!-- Node8 -->
<g id="node8" class="node">
<title>Node8</title>
<g id="a_node8"><a xlink:title=" ">
<polygon fill="white" stroke="#bfbfbf" points="115.5,-0.5 115.5,-19.5 173.5,-19.5 173.5,-0.5 115.5,-0.5"/>
<text text-anchor="middle" x="144.5" y="-7.5" font-family="Helvetica,sans-Serif" font-size="10.00">memory</text>
</a>
</g>
</g>
<!-- Node2&#45;&gt;Node8 -->
<g id="edge15" class="edge">
<title>Node2&#45;&gt;Node8</title>
<path fill="none" stroke="midnightblue" d="M218.28,-168.44C212.83,-148.16 197.69,-95.87 176.5,-56 171.21,-46.05 164.04,-35.76 157.82,-27.53"/>
<polygon fill="midnightblue" stroke="midnightblue" points="160.49,-25.26 151.59,-19.52 154.97,-29.56 160.49,-25.26"/>
</g>
<!-- Node3&#45;&gt;Node4 -->
<g id="edge3" class="edge">
<title>Node3&#45;&gt;Node4</title>
<path fill="none" stroke="midnightblue" d="M142.53,-112.44C121.89,-103.6 89.44,-89.69 65.87,-79.59"/>
<polygon fill="midnightblue" stroke="midnightblue" points="66.94,-76.24 56.37,-75.52 64.18,-82.67 66.94,-76.24"/>
</g>
<!-- Node3&#45;&gt;Node5 -->
<g id="edge4" class="edge">
<title>Node3&#45;&gt;Node5</title>
<path fill="none" stroke="midnightblue" d="M174.58,-112.32C190,-103.59 216.67,-90 237.92,-79.98"/>
<polygon fill="midnightblue" stroke="midnightblue" points="239.64,-83.04 247.24,-75.65 236.7,-76.69 239.64,-83.04"/>
</g>
<!-- Node3&#45;&gt;Node8 -->
<g id="edge12" class="edge">
<title>Node3&#45;&gt;Node8</title>
<path fill="none" stroke="midnightblue" d="M163.07,-112.5C163.72,-99.99 164.26,-75.97 160.5,-56 158.79,-46.93 155.55,-37.25 152.42,-29.2"/>
<polygon fill="midnightblue" stroke="midnightblue" points="155.57,-27.65 148.53,-19.74 149.1,-30.32 155.57,-27.65"/>
</g>
<!-- Node11 -->
<g id="node11" class="node">
<title>Node11</title>
<g id="a_node11"><a xlink:title=" ">
<polygon fill="white" stroke="#bfbfbf" points="91.5,-56.5 91.5,-75.5 151.5,-75.5 151.5,-56.5 91.5,-56.5"/>
<text text-anchor="middle" x="121.5" y="-63.5" font-family="Helvetica,sans-Serif" font-size="10.00">iostream</text>
</a>
</g>
</g>
<!-- Node3&#45;&gt;Node11 -->
<g id="edge11" class="edge">
<title>Node3&#45;&gt;Node11</title>
<path fill="none" stroke="midnightblue" d="M155.73,-112.08C149.94,-104.46 141.44,-93.26 134.36,-83.94"/>
<polygon fill="midnightblue" stroke="midnightblue" points="136.98,-81.6 128.14,-75.75 131.4,-85.83 136.98,-81.6"/>
</g>
<!-- Node5&#45;&gt;Node3 -->
<g id="edge10" class="edge">
<title>Node5&#45;&gt;Node3</title>
<path fill="none" stroke="midnightblue" d="M257.7,-75.52C242.22,-84.31 215.08,-98.13 193.64,-108.23"/>
<polygon fill="midnightblue" stroke="midnightblue" points="192.15,-105.06 184.54,-112.44 195.09,-111.42 192.15,-105.06"/>
</g>
<!-- Node5&#45;&gt;Node6 -->
<g id="edge5" class="edge">
<title>Node5&#45;&gt;Node6</title>
<path fill="none" stroke="midnightblue" d="M293.19,-57.6C323.13,-48.26 374.85,-32.12 408.87,-21.5"/>
<polygon fill="midnightblue" stroke="midnightblue" points="410.31,-24.71 418.82,-18.39 408.23,-18.03 410.31,-24.71"/>
</g>
<!-- Node7 -->
<g id="node7" class="node">
<title>Node7</title>
<g id="a_node7"><a xlink:title=" ">
<polygon fill="white" stroke="#bfbfbf" points="356.5,-0.5 356.5,-19.5 400.5,-19.5 400.5,-0.5 356.5,-0.5"/>
<text text-anchor="middle" x="378.5" y="-7.5" font-family="Helvetica,sans-Serif" font-size="10.00">string</text>
</a>
</g>
</g>
<!-- Node5&#45;&gt;Node7 -->
<g id="edge6" class="edge">
<title>Node5&#45;&gt;Node7</title>
<path fill="none" stroke="midnightblue" d="M287.01,-56.32C304.57,-47.62 331.83,-34.12 352.03,-24.11"/>
<polygon fill="midnightblue" stroke="midnightblue" points="353.62,-27.23 361.03,-19.65 350.52,-20.96 353.62,-27.23"/>
</g>
<!-- Node5&#45;&gt;Node8 -->
<g id="edge7" class="edge">
<title>Node5&#45;&gt;Node8</title>
<path fill="none" stroke="midnightblue" d="M249.69,-56.44C229.21,-47.6 197.02,-33.69 173.64,-23.59"/>
<polygon fill="midnightblue" stroke="midnightblue" points="174.78,-20.27 164.21,-19.52 172.01,-26.7 174.78,-20.27"/>
</g>
<!-- Node9 -->
<g id="node9" class="node">
<title>Node9</title>
<g id="a_node9"><a xlink:title=" ">
<polygon fill="white" stroke="#bfbfbf" points="192,-0.5 192,-19.5 255,-19.5 255,-0.5 192,-0.5"/>
<text text-anchor="middle" x="223.5" y="-7.5" font-family="Helvetica,sans-Serif" font-size="10.00">ncurses.h</text>
</a>
</g>
</g>
<!-- Node5&#45;&gt;Node9 -->
<g id="edge8" class="edge">
<title>Node5&#45;&gt;Node9</title>
<path fill="none" stroke="midnightblue" d="M261.9,-56.08C255.27,-48.3 245.48,-36.8 237.44,-27.37"/>
<polygon fill="midnightblue" stroke="midnightblue" points="240.1,-25.09 230.95,-19.75 234.77,-29.63 240.1,-25.09"/>
</g>
<!-- Node10 -->
<g id="node10" class="node">
<title>Node10</title>
<g id="a_node10"><a xlink:title=" ">
<polygon fill="white" stroke="#bfbfbf" points="273,-0.5 273,-19.5 338,-19.5 338,-0.5 273,-0.5"/>
<text text-anchor="middle" x="305.5" y="-7.5" font-family="Helvetica,sans-Serif" font-size="10.00">functional</text>
</a>
</g>
</g>
<!-- Node5&#45;&gt;Node10 -->
<g id="edge9" class="edge">
<title>Node5&#45;&gt;Node10</title>
<path fill="none" stroke="midnightblue" d="M275.44,-56.08C280.48,-48.53 287.84,-37.49 294.01,-28.23"/>
<polygon fill="midnightblue" stroke="midnightblue" points="297.03,-30.01 299.67,-19.75 291.21,-26.13 297.03,-30.01"/>
</g>
</g>
</svg>
