<?xml version="1.0" encoding="UTF-8" standalone="no"?>
<!DOCTYPE svg PUBLIC "-//W3C//DTD SVG 1.1//EN"
 "http://www.w3.org/Graphics/SVG/1.1/DTD/svg11.dtd">
<!-- Generated by graphviz version 2.43.0 (0)
 -->
<!-- Title: src/Attacker.h Pages: 1 -->
<svg width="361pt" height="196pt"
 viewBox="0.00 0.00 360.50 196.00" xmlns="http://www.w3.org/2000/svg" xmlns:xlink="http://www.w3.org/1999/xlink">
<g id="graph0" class="graph" transform="scale(1 1) rotate(0) translate(4 192)">
<title>src/Attacker.h</title>
<polygon fill="white" stroke="transparent" points="-4,4 -4,-192 356.5,-192 356.5,4 -4,4"/>
<!-- Node1 -->
<g id="node1" class="node">
<title>Node1</title>
<g id="a_node1"><a xlink:title=" ">
<polygon fill="#bfbfbf" stroke="black" points="82,-168.5 82,-187.5 165,-187.5 165,-168.5 82,-168.5"/>
<text text-anchor="middle" x="123.5" y="-175.5" font-family="Helvetica,sans-Serif" font-size="10.00">src/Attacker.h</text>
</a>
</g>
</g>
<!-- Node2 -->
<g id="node2" class="node">
<title>Node2</title>
<g id="a_node2"><a xlink:href="Entity_8h.html" target="_top" xlink:title=" ">
<polygon fill="white" stroke="black" points="152,-112.5 152,-131.5 205,-131.5 205,-112.5 152,-112.5"/>
<text text-anchor="middle" x="178.5" y="-119.5" font-family="Helvetica,sans-Serif" font-size="10.00">Entity.h</text>
</a>
</g>
</g>
<!-- Node1&#45;&gt;Node2 -->
<g id="edge1" class="edge">
<title>Node1&#45;&gt;Node2</title>
<path fill="none" stroke="midnightblue" d="M132.58,-168.08C140.67,-160.14 152.7,-148.34 162.41,-138.8"/>
<polygon fill="midnightblue" stroke="midnightblue" points="164.9,-141.25 169.59,-131.75 160,-136.26 164.9,-141.25"/>
</g>
<!-- Node3 -->
<g id="node3" class="node">
<title>Node3</title>
<g id="a_node3"><a xlink:href="constants_8h.html" target="_top" xlink:title=" ">
<polygon fill="white" stroke="black" points="49,-56.5 49,-75.5 122,-75.5 122,-56.5 49,-56.5"/>
<text text-anchor="middle" x="85.5" y="-63.5" font-family="Helvetica,sans-Serif" font-size="10.00">constants.h</text>
</a>
</g>
</g>
<!-- Node1&#45;&gt;Node3 -->
<g id="edge12" class="edge">
<title>Node1&#45;&gt;Node3</title>
<path fill="none" stroke="midnightblue" d="M120.52,-168.37C114.36,-150.54 100.11,-109.3 91.81,-85.27"/>
<polygon fill="midnightblue" stroke="midnightblue" points="95.04,-83.9 88.47,-75.59 88.43,-86.19 95.04,-83.9"/>
</g>
<!-- Node4 -->
<g id="node4" class="node">
<title>Node4</title>
<g id="a_node4"><a xlink:href="Map_8h.html" target="_top" xlink:title=" ">
<polygon fill="white" stroke="black" points="140,-56.5 140,-75.5 187,-75.5 187,-56.5 140,-56.5"/>
<text text-anchor="middle" x="163.5" y="-63.5" font-family="Helvetica,sans-Serif" font-size="10.00">Map.h</text>
</a>
</g>
</g>
<!-- Node1&#45;&gt;Node4 -->
<g id="edge15" class="edge">
<title>Node1&#45;&gt;Node4</title>
<path fill="none" stroke="midnightblue" d="M125.56,-168.45C128.67,-155.89 135.03,-131.8 142.5,-112 145.92,-102.92 150.39,-93.14 154.33,-85.01"/>
<polygon fill="midnightblue" stroke="midnightblue" points="157.59,-86.31 158.91,-75.79 151.32,-83.19 157.59,-86.31"/>
</g>
<!-- Node5 -->
<g id="node5" class="node">
<title>Node5</title>
<g id="a_node5"><a xlink:title=" ">
<polygon fill="white" stroke="#bfbfbf" points="0,-0.5 0,-19.5 47,-19.5 47,-0.5 0,-0.5"/>
<text text-anchor="middle" x="23.5" y="-7.5" font-family="Helvetica,sans-Serif" font-size="10.00">vector</text>
</a>
</g>
</g>
<!-- Node1&#45;&gt;Node5 -->
<g id="edge13" class="edge">
<title>Node1&#45;&gt;Node5</title>
<path fill="none" stroke="midnightblue" d="M113.8,-168.29C96.23,-151.97 59.13,-114.89 39.5,-76 32.13,-61.41 28.03,-43.24 25.83,-29.82"/>
<polygon fill="midnightblue" stroke="midnightblue" points="29.29,-29.25 24.4,-19.85 22.36,-30.24 29.29,-29.25"/>
</g>
<!-- Node7 -->
<g id="node7" class="node">
<title>Node7</title>
<g id="a_node7"><a xlink:title=" ">
<polygon fill="white" stroke="#bfbfbf" points="294.5,-0.5 294.5,-19.5 352.5,-19.5 352.5,-0.5 294.5,-0.5"/>
<text text-anchor="middle" x="323.5" y="-7.5" font-family="Helvetica,sans-Serif" font-size="10.00">memory</text>
</a>
</g>
</g>
<!-- Node1&#45;&gt;Node7 -->
<g id="edge14" class="edge">
<title>Node1&#45;&gt;Node7</title>
<path fill="none" stroke="midnightblue" d="M159.32,-168.43C203.06,-155.97 275.75,-128.38 312.5,-76 321.85,-62.68 324.2,-44.1 324.45,-30.22"/>
<polygon fill="midnightblue" stroke="midnightblue" points="327.95,-29.82 324.27,-19.88 320.95,-29.94 327.95,-29.82"/>
</g>
<!-- Node2&#45;&gt;Node3 -->
<g id="edge2" class="edge">
<title>Node2&#45;&gt;Node3</title>
<path fill="none" stroke="midnightblue" d="M163.56,-112.32C148.91,-103.82 126.37,-90.73 109.26,-80.8"/>
<polygon fill="midnightblue" stroke="midnightblue" points="110.81,-77.65 100.4,-75.65 107.3,-83.7 110.81,-77.65"/>
</g>
<!-- Node2&#45;&gt;Node4 -->
<g id="edge3" class="edge">
<title>Node2&#45;&gt;Node4</title>
<path fill="none" stroke="midnightblue" d="M170.86,-112.08C167.36,-104.93 164.07,-94.64 162.23,-85.69"/>
<polygon fill="midnightblue" stroke="midnightblue" points="165.69,-85.15 160.8,-75.75 158.76,-86.15 165.69,-85.15"/>
</g>
<!-- Node2&#45;&gt;Node7 -->
<g id="edge11" class="edge">
<title>Node2&#45;&gt;Node7</title>
<path fill="none" stroke="midnightblue" d="M184.17,-112.47C193.43,-99.08 212.91,-72.89 234.5,-56 251.76,-42.5 273.71,-31.35 291.49,-23.52"/>
<polygon fill="midnightblue" stroke="midnightblue" points="293.05,-26.66 300.88,-19.53 290.31,-20.22 293.05,-26.66"/>
</g>
<!-- Node10 -->
<g id="node10" class="node">
<title>Node10</title>
<g id="a_node10"><a xlink:title=" ">
<polygon fill="white" stroke="#bfbfbf" points="243.5,-56.5 243.5,-75.5 303.5,-75.5 303.5,-56.5 243.5,-56.5"/>
<text text-anchor="middle" x="273.5" y="-63.5" font-family="Helvetica,sans-Serif" font-size="10.00">iostream</text>
</a>
</g>
</g>
<!-- Node2&#45;&gt;Node10 -->
<g id="edge10" class="edge">
<title>Node2&#45;&gt;Node10</title>
<path fill="none" stroke="midnightblue" d="M193.76,-112.32C208.72,-103.82 231.75,-90.73 249.23,-80.8"/>
<polygon fill="midnightblue" stroke="midnightblue" points="251.31,-83.64 258.27,-75.65 247.85,-77.55 251.31,-83.64"/>
</g>
<!-- Node4&#45;&gt;Node2 -->
<g id="edge9" class="edge">
<title>Node4&#45;&gt;Node2</title>
<path fill="none" stroke="midnightblue" d="M171.06,-75.75C174.56,-82.86 177.86,-93.14 179.72,-102.1"/>
<polygon fill="midnightblue" stroke="midnightblue" points="176.27,-102.7 181.19,-112.08 183.2,-101.68 176.27,-102.7"/>
</g>
<!-- Node4&#45;&gt;Node5 -->
<g id="edge4" class="edge">
<title>Node4&#45;&gt;Node5</title>
<path fill="none" stroke="midnightblue" d="M141.32,-56.44C118.07,-47.48 81.35,-33.31 55.08,-23.18"/>
<polygon fill="midnightblue" stroke="midnightblue" points="56.17,-19.85 45.58,-19.52 53.65,-26.38 56.17,-19.85"/>
</g>
<!-- Node6 -->
<g id="node6" class="node">
<title>Node6</title>
<g id="a_node6"><a xlink:title=" ">
<polygon fill="white" stroke="#bfbfbf" points="67.5,-0.5 67.5,-19.5 111.5,-19.5 111.5,-0.5 67.5,-0.5"/>
<text text-anchor="middle" x="89.5" y="-7.5" font-family="Helvetica,sans-Serif" font-size="10.00">string</text>
</a>
</g>
</g>
<!-- Node4&#45;&gt;Node6 -->
<g id="edge5" class="edge">
<title>Node4&#45;&gt;Node6</title>
<path fill="none" stroke="midnightblue" d="M151.61,-56.32C140.35,-48.11 123.21,-35.6 109.79,-25.81"/>
<polygon fill="midnightblue" stroke="midnightblue" points="111.75,-22.9 101.61,-19.83 107.62,-28.56 111.75,-22.9"/>
</g>
<!-- Node4&#45;&gt;Node7 -->
<g id="edge6" class="edge">
<title>Node4&#45;&gt;Node7</title>
<path fill="none" stroke="midnightblue" d="M187.11,-57.03C213.93,-47.98 257.97,-33.12 288.73,-22.74"/>
<polygon fill="midnightblue" stroke="midnightblue" points="289.85,-26.05 298.21,-19.54 287.61,-19.42 289.85,-26.05"/>
</g>
<!-- Node8 -->
<g id="node8" class="node">
<title>Node8</title>
<g id="a_node8"><a xlink:title=" ">
<polygon fill="white" stroke="#bfbfbf" points="130,-0.5 130,-19.5 193,-19.5 193,-0.5 130,-0.5"/>
<text text-anchor="middle" x="161.5" y="-7.5" font-family="Helvetica,sans-Serif" font-size="10.00">ncurses.h</text>
</a>
</g>
</g>
<!-- Node4&#45;&gt;Node8 -->
<g id="edge7" class="edge">
<title>Node4&#45;&gt;Node8</title>
<path fill="none" stroke="midnightblue" d="M163.17,-56.08C162.91,-49.01 162.53,-38.86 162.2,-29.99"/>
<polygon fill="midnightblue" stroke="midnightblue" points="165.69,-29.61 161.82,-19.75 158.7,-29.87 165.69,-29.61"/>
</g>
<!-- Node9 -->
<g id="node9" class="node">
<title>Node9</title>
<g id="a_node9"><a xlink:title=" ">
<polygon fill="white" stroke="#bfbfbf" points="211,-0.5 211,-19.5 276,-19.5 276,-0.5 211,-0.5"/>
<text text-anchor="middle" x="243.5" y="-7.5" font-family="Helvetica,sans-Serif" font-size="10.00">functional</text>
</a>
</g>
</g>
<!-- Node4&#45;&gt;Node9 -->
<g id="edge8" class="edge">
<title>Node4&#45;&gt;Node9</title>
<path fill="none" stroke="midnightblue" d="M176.35,-56.32C188.72,-47.98 207.63,-35.21 222.24,-25.35"/>
<polygon fill="midnightblue" stroke="midnightblue" points="224.35,-28.15 230.68,-19.65 220.43,-22.35 224.35,-28.15"/>
</g>
</g>
</svg>
