<?xml version="1.0" encoding="UTF-8" standalone="no"?>
<!DOCTYPE svg PUBLIC "-//W3C//DTD SVG 1.1//EN"
 "http://www.w3.org/Graphics/SVG/1.1/DTD/svg11.dtd">
<!-- Generated by graphviz version 2.43.0 (0)
 -->
<!-- Title: src/Attacker.h Pages: 1 -->
<svg width="830pt" height="252pt"
 viewBox="0.00 0.00 830.00 252.00" xmlns="http://www.w3.org/2000/svg" xmlns:xlink="http://www.w3.org/1999/xlink">
<g id="graph0" class="graph" transform="scale(1 1) rotate(0) translate(4 248)">
<title>src/Attacker.h</title>
<polygon fill="white" stroke="transparent" points="-4,4 -4,-248 826,-248 826,4 -4,4"/>
<!-- Node1 -->
<g id="node1" class="node">
<title>Node1</title>
<g id="a_node1"><a xlink:title=" ">
<polygon fill="#bfbfbf" stroke="black" points="360,-224.5 360,-243.5 443,-243.5 443,-224.5 360,-224.5"/>
<text text-anchor="middle" x="401.5" y="-231.5" font-family="Helvetica,sans-Serif" font-size="10.00">src/Attacker.h</text>
</a>
</g>
</g>
<!-- Node2 -->
<g id="node2" class="node">
<title>Node2</title>
<g id="a_node2"><a xlink:href="Entity_8h.html" target="_top" xlink:title=" ">
<polygon fill="white" stroke="black" points="202,-168.5 202,-187.5 255,-187.5 255,-168.5 202,-168.5"/>
<text text-anchor="middle" x="228.5" y="-175.5" font-family="Helvetica,sans-Serif" font-size="10.00">Entity.h</text>
</a>
</g>
</g>
<!-- Node1&#45;&gt;Node2 -->
<g id="edge1" class="edge">
<title>Node1&#45;&gt;Node2</title>
<path fill="none" stroke="midnightblue" d="M374.09,-224.44C344.56,-215.23 297.43,-200.52 264.83,-190.34"/>
<polygon fill="midnightblue" stroke="midnightblue" points="265.8,-186.98 255.22,-187.34 263.72,-193.66 265.8,-186.98"/>
</g>
<!-- Node3 -->
<g id="node3" class="node">
<title>Node3</title>
<g id="a_node3"><a xlink:href="constants_8h.html" target="_top" xlink:title=" ">
<polygon fill="white" stroke="black" points="0,-0.5 0,-19.5 73,-19.5 73,-0.5 0,-0.5"/>
<text text-anchor="middle" x="36.5" y="-7.5" font-family="Helvetica,sans-Serif" font-size="10.00">constants.h</text>
</a>
</g>
</g>
<!-- Node1&#45;&gt;Node3 -->
<g id="edge22" class="edge">
<title>Node1&#45;&gt;Node3</title>
<path fill="none" stroke="midnightblue" d="M359.87,-230.27C312.36,-225.95 233.14,-215.04 170.5,-188 104.7,-159.6 84.58,-141.05 54.5,-76 47.59,-61.05 42.84,-42.91 39.96,-29.6"/>
<polygon fill="midnightblue" stroke="midnightblue" points="43.38,-28.84 37.98,-19.73 36.52,-30.22 43.38,-28.84"/>
</g>
<!-- Node4 -->
<g id="node4" class="node">
<title>Node4</title>
<g id="a_node4"><a xlink:href="Map_8h.html" target="_top" xlink:title=" ">
<polygon fill="white" stroke="black" points="257,-112.5 257,-131.5 304,-131.5 304,-112.5 257,-112.5"/>
<text text-anchor="middle" x="280.5" y="-119.5" font-family="Helvetica,sans-Serif" font-size="10.00">Map.h</text>
</a>
</g>
</g>
<!-- Node1&#45;&gt;Node4 -->
<g id="edge28" class="edge">
<title>Node1&#45;&gt;Node4</title>
<path fill="none" stroke="midnightblue" d="M392.01,-224.37C371.6,-205.81 323.3,-161.91 297.48,-138.44"/>
<polygon fill="midnightblue" stroke="midnightblue" points="299.7,-135.73 289.95,-131.59 295,-140.91 299.7,-135.73"/>
</g>
<!-- Node5 -->
<g id="node5" class="node">
<title>Node5</title>
<g id="a_node5"><a xlink:title=" ">
<polygon fill="white" stroke="#bfbfbf" points="543,-56.5 543,-75.5 590,-75.5 590,-56.5 543,-56.5"/>
<text text-anchor="middle" x="566.5" y="-63.5" font-family="Helvetica,sans-Serif" font-size="10.00">vector</text>
</a>
</g>
</g>
<!-- Node1&#45;&gt;Node5 -->
<g id="edge23" class="edge">
<title>Node1&#45;&gt;Node5</title>
<path fill="none" stroke="midnightblue" d="M405.44,-224.37C411.68,-211.28 424.75,-186.04 440.5,-168 471.84,-132.11 517.1,-99.35 543.99,-81.39"/>
<polygon fill="midnightblue" stroke="midnightblue" points="546.25,-84.1 552.68,-75.68 542.4,-78.25 546.25,-84.1"/>
</g>
<!-- Node7 -->
<g id="node7" class="node">
<title>Node7</title>
<g id="a_node7"><a xlink:title=" ">
<polygon fill="white" stroke="#bfbfbf" points="102.5,-56.5 102.5,-75.5 160.5,-75.5 160.5,-56.5 102.5,-56.5"/>
<text text-anchor="middle" x="131.5" y="-63.5" font-family="Helvetica,sans-Serif" font-size="10.00">memory</text>
</a>
</g>
</g>
<!-- Node1&#45;&gt;Node7 -->
<g id="edge25" class="edge">
<title>Node1&#45;&gt;Node7</title>
<path fill="none" stroke="midnightblue" d="M359.69,-228.3C306.43,-221.6 218.2,-207.86 192.5,-188 158.95,-162.07 142.4,-112.67 135.55,-85.7"/>
<polygon fill="midnightblue" stroke="midnightblue" points="138.88,-84.58 133.18,-75.65 132.07,-86.19 138.88,-84.58"/>
</g>
<!-- Node11 -->
<g id="node11" class="node">
<title>Node11</title>
<g id="a_node11"><a xlink:href="Definitions_8h.html" target="_top" xlink:title=" ">
<polygon fill="white" stroke="black" points="408.5,-56.5 408.5,-75.5 486.5,-75.5 486.5,-56.5 408.5,-56.5"/>
<text text-anchor="middle" x="447.5" y="-63.5" font-family="Helvetica,sans-Serif" font-size="10.00">Definitions.h</text>
</a>
</g>
</g>
<!-- Node1&#45;&gt;Node11 -->
<g id="edge33" class="edge">
<title>Node1&#45;&gt;Node11</title>
<path fill="none" stroke="midnightblue" d="M399.92,-224.36C396.57,-203.91 390.35,-151.28 406.5,-112 411.19,-100.59 420.13,-90.23 428.46,-82.34"/>
<polygon fill="midnightblue" stroke="midnightblue" points="430.94,-84.82 436.11,-75.57 426.3,-79.58 430.94,-84.82"/>
</g>
<!-- Node16 -->
<g id="node16" class="node">
<title>Node16</title>
<g id="a_node16"><a xlink:title=" ">
<polygon fill="white" stroke="#bfbfbf" points="322.5,-112.5 322.5,-131.5 354.5,-131.5 354.5,-112.5 322.5,-112.5"/>
<text text-anchor="middle" x="338.5" y="-119.5" font-family="Helvetica,sans-Serif" font-size="10.00">set</text>
</a>
</g>
</g>
<!-- Node1&#45;&gt;Node16 -->
<g id="edge24" class="edge">
<title>Node1&#45;&gt;Node16</title>
<path fill="none" stroke="midnightblue" d="M394.38,-224.4C387.29,-215.59 376.37,-201.35 368.5,-188 359.54,-172.79 351.28,-154.45 345.71,-141.14"/>
<polygon fill="midnightblue" stroke="midnightblue" points="348.88,-139.62 341.86,-131.69 342.4,-142.27 348.88,-139.62"/>
</g>
<!-- Node17 -->
<g id="node17" class="node">
<title>Node17</title>
<g id="a_node17"><a xlink:title=" ">
<polygon fill="white" stroke="#bfbfbf" points="449,-168.5 449,-187.5 496,-187.5 496,-168.5 449,-168.5"/>
<text text-anchor="middle" x="472.5" y="-175.5" font-family="Helvetica,sans-Serif" font-size="10.00">queue</text>
</a>
</g>
</g>
<!-- Node1&#45;&gt;Node17 -->
<g id="edge26" class="edge">
<title>Node1&#45;&gt;Node17</title>
<path fill="none" stroke="midnightblue" d="M412.91,-224.32C423.61,-216.18 439.84,-203.84 452.66,-194.09"/>
<polygon fill="midnightblue" stroke="midnightblue" points="455.04,-196.67 460.89,-187.83 450.81,-191.1 455.04,-196.67"/>
</g>
<!-- Node18 -->
<g id="node18" class="node">
<title>Node18</title>
<g id="a_node18"><a xlink:title=" ">
<polygon fill="white" stroke="#bfbfbf" points="514,-168.5 514,-187.5 561,-187.5 561,-168.5 514,-168.5"/>
<text text-anchor="middle" x="537.5" y="-175.5" font-family="Helvetica,sans-Serif" font-size="10.00">deque</text>
</a>
</g>
</g>
<!-- Node1&#45;&gt;Node18 -->
<g id="edge27" class="edge">
<title>Node1&#45;&gt;Node18</title>
<path fill="none" stroke="midnightblue" d="M423.05,-224.44C445.53,-215.52 480.99,-201.44 506.48,-191.32"/>
<polygon fill="midnightblue" stroke="midnightblue" points="508.05,-194.46 516.05,-187.52 505.47,-187.95 508.05,-194.46"/>
</g>
<!-- Node19 -->
<g id="node19" class="node">
<title>Node19</title>
<g id="a_node19"><a xlink:href="exceptions_8h.html" target="_top" xlink:title=" ">
<polygon fill="white" stroke="black" points="579,-168.5 579,-187.5 658,-187.5 658,-168.5 579,-168.5"/>
<text text-anchor="middle" x="618.5" y="-175.5" font-family="Helvetica,sans-Serif" font-size="10.00">exceptions.h</text>
</a>
</g>
</g>
<!-- Node1&#45;&gt;Node19 -->
<g id="edge29" class="edge">
<title>Node1&#45;&gt;Node19</title>
<path fill="none" stroke="midnightblue" d="M435.88,-224.44C473.42,-215.1 533.63,-200.12 574.57,-189.93"/>
<polygon fill="midnightblue" stroke="midnightblue" points="575.42,-193.33 584.28,-187.52 573.73,-186.53 575.42,-193.33"/>
</g>
<!-- Node21 -->
<g id="node21" class="node">
<title>Node21</title>
<g id="a_node21"><a xlink:href="HelpStructs_8h.html" target="_top" xlink:title=" ">
<polygon fill="white" stroke="black" points="676.5,-168.5 676.5,-187.5 758.5,-187.5 758.5,-168.5 676.5,-168.5"/>
<text text-anchor="middle" x="717.5" y="-175.5" font-family="Helvetica,sans-Serif" font-size="10.00">HelpStructs.h</text>
</a>
</g>
</g>
<!-- Node1&#45;&gt;Node21 -->
<g id="edge32" class="edge">
<title>Node1&#45;&gt;Node21</title>
<path fill="none" stroke="midnightblue" d="M443.45,-226.04C493.89,-217.65 581.38,-202.99 666.24,-188.21"/>
<polygon fill="midnightblue" stroke="midnightblue" points="667.06,-191.62 676.31,-186.45 665.85,-184.72 667.06,-191.62"/>
</g>
<!-- Node22 -->
<g id="node22" class="node">
<title>Node22</title>
<g id="a_node22"><a xlink:title=" ">
<polygon fill="white" stroke="#bfbfbf" points="777,-168.5 777,-187.5 822,-187.5 822,-168.5 777,-168.5"/>
<text text-anchor="middle" x="799.5" y="-175.5" font-family="Helvetica,sans-Serif" font-size="10.00">utility</text>
</a>
</g>
</g>
<!-- Node1&#45;&gt;Node22 -->
<g id="edge34" class="edge">
<title>Node1&#45;&gt;Node22</title>
<path fill="none" stroke="midnightblue" d="M443.27,-229.94C509.78,-224.62 643.91,-212.04 766.91,-187.82"/>
<polygon fill="midnightblue" stroke="midnightblue" points="767.76,-191.22 776.88,-185.82 766.39,-184.35 767.76,-191.22"/>
</g>
<!-- Node2&#45;&gt;Node3 -->
<g id="edge2" class="edge">
<title>Node2&#45;&gt;Node3</title>
<path fill="none" stroke="midnightblue" d="M201.71,-171.1C177.42,-164.7 141.67,-152.53 116.5,-132 81.34,-103.32 56.05,-55.07 44.14,-29.01"/>
<polygon fill="midnightblue" stroke="midnightblue" points="47.24,-27.34 40,-19.61 40.83,-30.17 47.24,-27.34"/>
</g>
<!-- Node2&#45;&gt;Node4 -->
<g id="edge3" class="edge">
<title>Node2&#45;&gt;Node4</title>
<path fill="none" stroke="midnightblue" d="M231.92,-168.08C237.95,-160.06 249.13,-148.1 259.39,-138.51"/>
<polygon fill="midnightblue" stroke="midnightblue" points="261.82,-141.03 266.94,-131.75 257.16,-135.81 261.82,-141.03"/>
</g>
<!-- Node2&#45;&gt;Node7 -->
<g id="edge19" class="edge">
<title>Node2&#45;&gt;Node7</title>
<path fill="none" stroke="midnightblue" d="M220.89,-168.37C204.74,-150.05 166.82,-107.05 145.93,-83.36"/>
<polygon fill="midnightblue" stroke="midnightblue" points="148.32,-80.78 139.08,-75.59 143.06,-85.41 148.32,-80.78"/>
</g>
<!-- Node8 -->
<g id="node8" class="node">
<title>Node8</title>
<g id="a_node8"><a xlink:title=" ">
<polygon fill="white" stroke="#bfbfbf" points="179,-56.5 179,-75.5 242,-75.5 242,-56.5 179,-56.5"/>
<text text-anchor="middle" x="210.5" y="-63.5" font-family="Helvetica,sans-Serif" font-size="10.00">ncurses.h</text>
</a>
</g>
</g>
<!-- Node2&#45;&gt;Node8 -->
<g id="edge21" class="edge">
<title>Node2&#45;&gt;Node8</title>
<path fill="none" stroke="midnightblue" d="M227.09,-168.37C224.18,-150.62 217.48,-109.67 213.54,-85.6"/>
<polygon fill="midnightblue" stroke="midnightblue" points="216.97,-84.89 211.91,-75.59 210.07,-86.03 216.97,-84.89"/>
</g>
<!-- Node15 -->
<g id="node15" class="node">
<title>Node15</title>
<g id="a_node15"><a xlink:title=" ">
<polygon fill="white" stroke="#bfbfbf" points="188.5,-0.5 188.5,-19.5 248.5,-19.5 248.5,-0.5 188.5,-0.5"/>
<text text-anchor="middle" x="218.5" y="-7.5" font-family="Helvetica,sans-Serif" font-size="10.00">iostream</text>
</a>
</g>
</g>
<!-- Node2&#45;&gt;Node15 -->
<g id="edge18" class="edge">
<title>Node2&#45;&gt;Node15</title>
<path fill="none" stroke="midnightblue" d="M206.87,-168.4C175.13,-154.46 117.16,-123.57 93.5,-76 75.15,-39.1 135.1,-22.61 178.24,-15.66"/>
<polygon fill="midnightblue" stroke="midnightblue" points="178.86,-19.1 188.24,-14.16 177.83,-12.18 178.86,-19.1"/>
</g>
<!-- Node2&#45;&gt;Node16 -->
<g id="edge20" class="edge">
<title>Node2&#45;&gt;Node16</title>
<path fill="none" stroke="midnightblue" d="M246.17,-168.32C264.31,-159.42 292.71,-145.48 313.22,-135.41"/>
<polygon fill="midnightblue" stroke="midnightblue" points="314.87,-138.5 322.3,-130.95 311.79,-132.22 314.87,-138.5"/>
</g>
<!-- Node4&#45;&gt;Node2 -->
<g id="edge10" class="edge">
<title>Node4&#45;&gt;Node2</title>
<path fill="none" stroke="midnightblue" d="M277.14,-131.83C271.11,-139.87 259.86,-151.91 249.56,-161.54"/>
<polygon fill="midnightblue" stroke="midnightblue" points="247.09,-159.05 241.97,-168.32 251.76,-164.27 247.09,-159.05"/>
</g>
<!-- Node4&#45;&gt;Node5 -->
<g id="edge4" class="edge">
<title>Node4&#45;&gt;Node5</title>
<path fill="none" stroke="midnightblue" d="M304.22,-114.22C307.33,-113.43 310.48,-112.66 313.5,-112 408.13,-91.23 433.53,-95.18 528.5,-76 529.95,-75.71 531.44,-75.4 532.93,-75.08"/>
<polygon fill="midnightblue" stroke="midnightblue" points="533.84,-78.46 542.84,-72.86 532.31,-71.63 533.84,-78.46"/>
</g>
<!-- Node6 -->
<g id="node6" class="node">
<title>Node6</title>
<g id="a_node6"><a xlink:title=" ">
<polygon fill="white" stroke="#bfbfbf" points="530.5,-0.5 530.5,-19.5 574.5,-19.5 574.5,-0.5 530.5,-0.5"/>
<text text-anchor="middle" x="552.5" y="-7.5" font-family="Helvetica,sans-Serif" font-size="10.00">string</text>
</a>
</g>
</g>
<!-- Node4&#45;&gt;Node6 -->
<g id="edge5" class="edge">
<title>Node4&#45;&gt;Node6</title>
<path fill="none" stroke="midnightblue" d="M304.24,-114.31C307.35,-113.5 310.49,-112.71 313.5,-112 393.77,-93.14 424.07,-117.19 495.5,-76 515.34,-64.56 531.78,-43.67 541.82,-28.65"/>
<polygon fill="midnightblue" stroke="midnightblue" points="545.04,-30.11 547.47,-19.79 539.14,-26.34 545.04,-30.11"/>
</g>
<!-- Node4&#45;&gt;Node7 -->
<g id="edge6" class="edge">
<title>Node4&#45;&gt;Node7</title>
<path fill="none" stroke="midnightblue" d="M256.89,-112.44C232.04,-103.44 192.73,-89.19 164.75,-79.05"/>
<polygon fill="midnightblue" stroke="midnightblue" points="165.59,-75.63 155,-75.52 163.21,-82.21 165.59,-75.63"/>
</g>
<!-- Node4&#45;&gt;Node8 -->
<g id="edge7" class="edge">
<title>Node4&#45;&gt;Node8</title>
<path fill="none" stroke="midnightblue" d="M269.25,-112.32C258.7,-104.18 242.7,-91.84 230.06,-82.09"/>
<polygon fill="midnightblue" stroke="midnightblue" points="232.01,-79.17 221.95,-75.83 227.73,-84.71 232.01,-79.17"/>
</g>
<!-- Node9 -->
<g id="node9" class="node">
<title>Node9</title>
<g id="a_node9"><a xlink:title=" ">
<polygon fill="white" stroke="#bfbfbf" points="325,-56.5 325,-75.5 390,-75.5 390,-56.5 325,-56.5"/>
<text text-anchor="middle" x="357.5" y="-63.5" font-family="Helvetica,sans-Serif" font-size="10.00">functional</text>
</a>
</g>
</g>
<!-- Node4&#45;&gt;Node9 -->
<g id="edge8" class="edge">
<title>Node4&#45;&gt;Node9</title>
<path fill="none" stroke="midnightblue" d="M292.87,-112.32C304.66,-104.06 322.63,-91.45 336.64,-81.63"/>
<polygon fill="midnightblue" stroke="midnightblue" points="338.98,-84.26 345.16,-75.65 334.96,-78.53 338.98,-84.26"/>
</g>
<!-- Node10 -->
<g id="node10" class="node">
<title>Node10</title>
<g id="a_node10"><a xlink:title=" ">
<polygon fill="white" stroke="#bfbfbf" points="260,-56.5 260,-75.5 307,-75.5 307,-56.5 260,-56.5"/>
<text text-anchor="middle" x="283.5" y="-63.5" font-family="Helvetica,sans-Serif" font-size="10.00">cmath</text>
</a>
</g>
</g>
<!-- Node4&#45;&gt;Node10 -->
<g id="edge9" class="edge">
<title>Node4&#45;&gt;Node10</title>
<path fill="none" stroke="midnightblue" d="M281,-112.08C281.39,-105.01 281.95,-94.86 282.45,-85.99"/>
<polygon fill="midnightblue" stroke="midnightblue" points="285.95,-85.93 283.01,-75.75 278.96,-85.54 285.95,-85.93"/>
</g>
<!-- Node4&#45;&gt;Node11 -->
<g id="edge11" class="edge">
<title>Node4&#45;&gt;Node11</title>
<path fill="none" stroke="midnightblue" d="M304.07,-113.38C332.02,-104.34 378.9,-89.18 411.42,-78.67"/>
<polygon fill="midnightblue" stroke="midnightblue" points="412.58,-81.97 421.02,-75.56 410.42,-75.31 412.58,-81.97"/>
</g>
<!-- Node11&#45;&gt;Node3 -->
<g id="edge17" class="edge">
<title>Node11&#45;&gt;Node3</title>
<path fill="none" stroke="midnightblue" d="M408.24,-57.43C405.29,-56.93 402.35,-56.44 399.5,-56 286.4,-38.4 152.61,-23.28 83.33,-15.87"/>
<polygon fill="midnightblue" stroke="midnightblue" points="83.5,-12.36 73.19,-14.79 82.76,-19.33 83.5,-12.36"/>
</g>
<!-- Node11&#45;&gt;Node6 -->
<g id="edge14" class="edge">
<title>Node11&#45;&gt;Node6</title>
<path fill="none" stroke="midnightblue" d="M464.37,-56.32C481.21,-47.66 507.31,-34.24 526.74,-24.25"/>
<polygon fill="midnightblue" stroke="midnightblue" points="528.38,-27.34 535.67,-19.65 525.18,-21.12 528.38,-27.34"/>
</g>
<!-- Node12 -->
<g id="node12" class="node">
<title>Node12</title>
<g id="a_node12"><a xlink:title=" ">
<polygon fill="white" stroke="#bfbfbf" points="457,-0.5 457,-19.5 512,-19.5 512,-0.5 457,-0.5"/>
<text text-anchor="middle" x="484.5" y="-7.5" font-family="Helvetica,sans-Serif" font-size="10.00">fstream</text>
</a>
</g>
</g>
<!-- Node11&#45;&gt;Node12 -->
<g id="edge12" class="edge">
<title>Node11&#45;&gt;Node12</title>
<path fill="none" stroke="midnightblue" d="M453.61,-56.08C458.78,-48.53 466.35,-37.49 472.69,-28.23"/>
<polygon fill="midnightblue" stroke="midnightblue" points="475.74,-29.98 478.5,-19.75 469.96,-26.02 475.74,-29.98"/>
</g>
<!-- Node13 -->
<g id="node13" class="node">
<title>Node13</title>
<g id="a_node13"><a xlink:title=" ">
<polygon fill="white" stroke="#bfbfbf" points="326.5,-0.5 326.5,-19.5 364.5,-19.5 364.5,-0.5 326.5,-0.5"/>
<text text-anchor="middle" x="345.5" y="-7.5" font-family="Helvetica,sans-Serif" font-size="10.00">map</text>
</a>
</g>
</g>
<!-- Node11&#45;&gt;Node13 -->
<g id="edge13" class="edge">
<title>Node11&#45;&gt;Node13</title>
<path fill="none" stroke="midnightblue" d="M431.11,-56.32C414.83,-47.7 389.63,-34.36 370.78,-24.39"/>
<polygon fill="midnightblue" stroke="midnightblue" points="372.32,-21.24 361.85,-19.65 369.05,-27.43 372.32,-21.24"/>
</g>
<!-- Node14 -->
<g id="node14" class="node">
<title>Node14</title>
<g id="a_node14"><a xlink:title=" ">
<polygon fill="white" stroke="#bfbfbf" points="382.5,-0.5 382.5,-19.5 438.5,-19.5 438.5,-0.5 382.5,-0.5"/>
<text text-anchor="middle" x="410.5" y="-7.5" font-family="Helvetica,sans-Serif" font-size="10.00">sstream</text>
</a>
</g>
</g>
<!-- Node11&#45;&gt;Node14 -->
<g id="edge15" class="edge">
<title>Node11&#45;&gt;Node14</title>
<path fill="none" stroke="midnightblue" d="M441.39,-56.08C436.22,-48.53 428.65,-37.49 422.31,-28.23"/>
<polygon fill="midnightblue" stroke="midnightblue" points="425.04,-26.02 416.5,-19.75 419.26,-29.98 425.04,-26.02"/>
</g>
<!-- Node11&#45;&gt;Node15 -->
<g id="edge16" class="edge">
<title>Node11&#45;&gt;Node15</title>
<path fill="none" stroke="midnightblue" d="M411.21,-56.44C369.65,-46.64 301.74,-30.63 258.63,-20.46"/>
<polygon fill="midnightblue" stroke="midnightblue" points="259.3,-17.03 248.77,-18.14 257.7,-23.84 259.3,-17.03"/>
</g>
<!-- Node19&#45;&gt;Node6 -->
<g id="edge30" class="edge">
<title>Node19&#45;&gt;Node6</title>
<path fill="none" stroke="midnightblue" d="M618.98,-168.2C619.72,-147.4 619.39,-94.07 599.5,-56 593.35,-44.23 582.94,-33.78 573.47,-25.92"/>
<polygon fill="midnightblue" stroke="midnightblue" points="575.57,-23.11 565.53,-19.71 571.25,-28.63 575.57,-23.11"/>
</g>
<!-- Node20 -->
<g id="node20" class="node">
<title>Node20</title>
<g id="a_node20"><a xlink:title=" ">
<polygon fill="white" stroke="#bfbfbf" points="647,-112.5 647,-131.5 712,-131.5 712,-112.5 647,-112.5"/>
<text text-anchor="middle" x="679.5" y="-119.5" font-family="Helvetica,sans-Serif" font-size="10.00">exception</text>
</a>
</g>
</g>
<!-- Node19&#45;&gt;Node20 -->
<g id="edge31" class="edge">
<title>Node19&#45;&gt;Node20</title>
<path fill="none" stroke="midnightblue" d="M628.3,-168.32C637.32,-160.34 650.91,-148.31 661.82,-138.65"/>
<polygon fill="midnightblue" stroke="midnightblue" points="664.35,-141.08 669.52,-131.83 659.71,-135.84 664.35,-141.08"/>
</g>
</g>
</svg>
