<?xml version="1.0" encoding="UTF-8" standalone="no"?>
<!DOCTYPE svg PUBLIC "-//W3C//DTD SVG 1.1//EN"
 "http://www.w3.org/Graphics/SVG/1.1/DTD/svg11.dtd">
<!-- Generated by graphviz version 2.43.0 (0)
 -->
<!-- Title: src/Attacker.h Pages: 1 -->
<svg width="417pt" height="252pt"
 viewBox="0.00 0.00 416.50 252.00" xmlns="http://www.w3.org/2000/svg" xmlns:xlink="http://www.w3.org/1999/xlink">
<g id="graph0" class="graph" transform="scale(1 1) rotate(0) translate(4 248)">
<title>src/Attacker.h</title>
<polygon fill="white" stroke="transparent" points="-4,4 -4,-248 412.5,-248 412.5,4 -4,4"/>
<!-- Node1 -->
<g id="node1" class="node">
<title>Node1</title>
<g id="a_node1"><a xlink:title=" ">
<polygon fill="#bfbfbf" stroke="black" points="171.5,-224.5 171.5,-243.5 254.5,-243.5 254.5,-224.5 171.5,-224.5"/>
<text text-anchor="middle" x="213" y="-231.5" font-family="Helvetica,sans-Serif" font-size="10.00">src/Attacker.h</text>
</a>
</g>
</g>
<!-- Node2 -->
<g id="node2" class="node">
<title>Node2</title>
<g id="a_node2"><a xlink:href="Attacker_8cpp.html" target="_top" xlink:title=" ">
<polygon fill="white" stroke="black" points="0,-168.5 0,-187.5 94,-187.5 94,-168.5 0,-168.5"/>
<text text-anchor="middle" x="47" y="-175.5" font-family="Helvetica,sans-Serif" font-size="10.00">src/Attacker.cpp</text>
</a>
</g>
</g>
<!-- Node1&#45;&gt;Node2 -->
<g id="edge1" class="edge">
<title>Node1&#45;&gt;Node2</title>
<path fill="none" stroke="midnightblue" d="M177.05,-221.3C145.77,-211.13 101.18,-196.62 73.18,-187.52"/>
<polygon fill="midnightblue" stroke="midnightblue" points="176.1,-224.68 186.7,-224.44 178.27,-218.02 176.1,-224.68"/>
</g>
<!-- Node3 -->
<g id="node3" class="node">
<title>Node3</title>
<g id="a_node3"><a xlink:href="Player_8h.html" target="_top" xlink:title=" ">
<polygon fill="white" stroke="black" points="241.5,-168.5 241.5,-187.5 314.5,-187.5 314.5,-168.5 241.5,-168.5"/>
<text text-anchor="middle" x="278" y="-175.5" font-family="Helvetica,sans-Serif" font-size="10.00">src/Player.h</text>
</a>
</g>
</g>
<!-- Node1&#45;&gt;Node3 -->
<g id="edge2" class="edge">
<title>Node1&#45;&gt;Node3</title>
<path fill="none" stroke="midnightblue" d="M231.27,-217.82C242.92,-208.15 257.6,-195.95 267.37,-187.83"/>
<polygon fill="midnightblue" stroke="midnightblue" points="228.9,-215.24 223.44,-224.32 233.37,-220.63 228.9,-215.24"/>
</g>
<!-- Node6 -->
<g id="node6" class="node">
<title>Node6</title>
<g id="a_node6"><a xlink:href="Game_8h.html" target="_top" xlink:title=" ">
<polygon fill="white" stroke="black" points="211,-56.5 211,-75.5 283,-75.5 283,-56.5 211,-56.5"/>
<text text-anchor="middle" x="247" y="-63.5" font-family="Helvetica,sans-Serif" font-size="10.00">src/Game.h</text>
</a>
</g>
</g>
<!-- Node1&#45;&gt;Node6 -->
<g id="edge13" class="edge">
<title>Node1&#45;&gt;Node6</title>
<path fill="none" stroke="midnightblue" d="M216.91,-213.93C224.28,-177.92 239.99,-101.23 245.25,-75.57"/>
<polygon fill="midnightblue" stroke="midnightblue" points="213.41,-213.58 214.83,-224.08 220.26,-214.98 213.41,-213.58"/>
</g>
<!-- Node8 -->
<g id="node8" class="node">
<title>Node8</title>
<g id="a_node8"><a xlink:href="main_8cpp.html" target="_top" xlink:title=" ">
<polygon fill="white" stroke="black" points="329.5,-0.5 329.5,-19.5 408.5,-19.5 408.5,-0.5 329.5,-0.5"/>
<text text-anchor="middle" x="369" y="-7.5" font-family="Helvetica,sans-Serif" font-size="10.00">src/main.cpp</text>
</a>
</g>
</g>
<!-- Node1&#45;&gt;Node8 -->
<g id="edge14" class="edge">
<title>Node1&#45;&gt;Node8</title>
<path fill="none" stroke="midnightblue" d="M256.85,-221.35C297.4,-207.73 354.02,-180.59 372,-132 386.73,-92.19 376.35,-39.87 371.31,-19.57"/>
<polygon fill="midnightblue" stroke="midnightblue" points="255.63,-218.06 247.17,-224.45 257.76,-224.73 255.63,-218.06"/>
</g>
<!-- Node10 -->
<g id="node10" class="node">
<title>Node10</title>
<g id="a_node10"><a xlink:href="Tower_8h.html" target="_top" xlink:title=" ">
<polygon fill="white" stroke="black" points="112.5,-168.5 112.5,-187.5 183.5,-187.5 183.5,-168.5 112.5,-168.5"/>
<text text-anchor="middle" x="148" y="-175.5" font-family="Helvetica,sans-Serif" font-size="10.00">src/Tower.h</text>
</a>
</g>
</g>
<!-- Node1&#45;&gt;Node10 -->
<g id="edge10" class="edge">
<title>Node1&#45;&gt;Node10</title>
<path fill="none" stroke="midnightblue" d="M194.73,-217.82C183.08,-208.15 168.4,-195.95 158.63,-187.83"/>
<polygon fill="midnightblue" stroke="midnightblue" points="192.63,-220.63 202.56,-224.32 197.1,-215.24 192.63,-220.63"/>
</g>
<!-- Node4 -->
<g id="node4" class="node">
<title>Node4</title>
<g id="a_node4"><a xlink:href="Enemy_8h.html" target="_top" xlink:title=" ">
<polygon fill="white" stroke="black" points="109.5,-112.5 109.5,-131.5 184.5,-131.5 184.5,-112.5 109.5,-112.5"/>
<text text-anchor="middle" x="147" y="-119.5" font-family="Helvetica,sans-Serif" font-size="10.00">src/Enemy.h</text>
</a>
</g>
</g>
<!-- Node3&#45;&gt;Node4 -->
<g id="edge3" class="edge">
<title>Node3&#45;&gt;Node4</title>
<path fill="none" stroke="midnightblue" d="M247.68,-164.5C223.12,-154.38 189.18,-140.39 167.66,-131.52"/>
<polygon fill="midnightblue" stroke="midnightblue" points="246.66,-167.87 257.24,-168.44 249.33,-161.4 246.66,-167.87"/>
</g>
<!-- Node3&#45;&gt;Node6 -->
<g id="edge8" class="edge">
<title>Node3&#45;&gt;Node6</title>
<path fill="none" stroke="midnightblue" d="M272.84,-158.67C266.06,-134.62 254.44,-93.39 249.42,-75.59"/>
<polygon fill="midnightblue" stroke="midnightblue" points="269.49,-159.69 275.57,-168.37 276.22,-157.79 269.49,-159.69"/>
</g>
<!-- Node9 -->
<g id="node9" class="node">
<title>Node9</title>
<g id="a_node9"><a xlink:href="Player_8cpp.html" target="_top" xlink:title=" ">
<polygon fill="white" stroke="black" points="279,-112.5 279,-131.5 363,-131.5 363,-112.5 279,-112.5"/>
<text text-anchor="middle" x="321" y="-119.5" font-family="Helvetica,sans-Serif" font-size="10.00">src/Player.cpp</text>
</a>
</g>
</g>
<!-- Node3&#45;&gt;Node9 -->
<g id="edge9" class="edge">
<title>Node3&#45;&gt;Node9</title>
<path fill="none" stroke="midnightblue" d="M291.42,-160.14C298.91,-150.74 307.94,-139.4 314.03,-131.75"/>
<polygon fill="midnightblue" stroke="midnightblue" points="288.59,-158.08 285.1,-168.08 294.07,-162.44 288.59,-158.08"/>
</g>
<!-- Node5 -->
<g id="node5" class="node">
<title>Node5</title>
<g id="a_node5"><a xlink:href="Enemy_8cpp.html" target="_top" xlink:title=" ">
<polygon fill="white" stroke="black" points="104,-56.5 104,-75.5 190,-75.5 190,-56.5 104,-56.5"/>
<text text-anchor="middle" x="147" y="-63.5" font-family="Helvetica,sans-Serif" font-size="10.00">src/Enemy.cpp</text>
</a>
</g>
</g>
<!-- Node4&#45;&gt;Node5 -->
<g id="edge4" class="edge">
<title>Node4&#45;&gt;Node5</title>
<path fill="none" stroke="midnightblue" d="M147,-101.8C147,-92.91 147,-82.78 147,-75.75"/>
<polygon fill="midnightblue" stroke="midnightblue" points="143.5,-102.08 147,-112.08 150.5,-102.08 143.5,-102.08"/>
</g>
<!-- Node4&#45;&gt;Node6 -->
<g id="edge5" class="edge">
<title>Node4&#45;&gt;Node6</title>
<path fill="none" stroke="midnightblue" d="M172.09,-107.45C190.55,-97.48 215.1,-84.23 230.97,-75.65"/>
<polygon fill="midnightblue" stroke="midnightblue" points="170.2,-104.49 163.07,-112.32 173.53,-110.65 170.2,-104.49"/>
</g>
<!-- Node7 -->
<g id="node7" class="node">
<title>Node7</title>
<g id="a_node7"><a xlink:href="Game_8cpp.html" target="_top" xlink:title=" ">
<polygon fill="white" stroke="black" points="205.5,-0.5 205.5,-19.5 288.5,-19.5 288.5,-0.5 205.5,-0.5"/>
<text text-anchor="middle" x="247" y="-7.5" font-family="Helvetica,sans-Serif" font-size="10.00">src/Game.cpp</text>
</a>
</g>
</g>
<!-- Node6&#45;&gt;Node7 -->
<g id="edge6" class="edge">
<title>Node6&#45;&gt;Node7</title>
<path fill="none" stroke="midnightblue" d="M247,-45.8C247,-36.91 247,-26.78 247,-19.75"/>
<polygon fill="midnightblue" stroke="midnightblue" points="243.5,-46.08 247,-56.08 250.5,-46.08 243.5,-46.08"/>
</g>
<!-- Node6&#45;&gt;Node8 -->
<g id="edge7" class="edge">
<title>Node6&#45;&gt;Node8</title>
<path fill="none" stroke="midnightblue" d="M275.54,-52.37C298.39,-42.26 329.81,-28.35 349.76,-19.52"/>
<polygon fill="midnightblue" stroke="midnightblue" points="274.06,-49.2 266.33,-56.44 276.89,-55.6 274.06,-49.2"/>
</g>
<!-- Node10&#45;&gt;Node4 -->
<g id="edge11" class="edge">
<title>Node10&#45;&gt;Node4</title>
<path fill="none" stroke="midnightblue" d="M147.64,-157.8C147.48,-148.91 147.29,-138.78 147.16,-131.75"/>
<polygon fill="midnightblue" stroke="midnightblue" points="144.15,-158.15 147.83,-168.08 151.15,-158.02 144.15,-158.15"/>
</g>
<!-- Node11 -->
<g id="node11" class="node">
<title>Node11</title>
<g id="a_node11"><a xlink:href="Tower_8cpp.html" target="_top" xlink:title=" ">
<polygon fill="white" stroke="black" points="9,-112.5 9,-131.5 91,-131.5 91,-112.5 9,-112.5"/>
<text text-anchor="middle" x="50" y="-119.5" font-family="Helvetica,sans-Serif" font-size="10.00">src/Tower.cpp</text>
</a>
</g>
</g>
<!-- Node10&#45;&gt;Node11 -->
<g id="edge12" class="edge">
<title>Node10&#45;&gt;Node11</title>
<path fill="none" stroke="midnightblue" d="M123.41,-163.45C105.32,-153.48 81.27,-140.23 65.71,-131.65"/>
<polygon fill="midnightblue" stroke="midnightblue" points="121.81,-166.56 132.25,-168.32 125.19,-160.43 121.81,-166.56"/>
</g>
</g>
</svg>
