<?xml version="1.0" encoding="UTF-8" standalone="no"?>
<!DOCTYPE svg PUBLIC "-//W3C//DTD SVG 1.1//EN"
 "http://www.w3.org/Graphics/SVG/1.1/DTD/svg11.dtd">
<!-- Generated by graphviz version 2.43.0 (0)
 -->
<!-- Title: logException::what Pages: 1 -->
<svg width="516pt" height="104pt"
 viewBox="0.00 0.00 516.00 104.00" xmlns="http://www.w3.org/2000/svg" xmlns:xlink="http://www.w3.org/1999/xlink">
<g id="graph0" class="graph" transform="scale(1 1) rotate(0) translate(4 100)">
<title>logException::what</title>
<polygon fill="white" stroke="transparent" points="-4,4 -4,-100 512,-100 512,4 -4,4"/>
<!-- Node1 -->
<g id="node1" class="node">
<title>Node1</title>
<g id="a_node1"><a xlink:title=" ">
<polygon fill="#bfbfbf" stroke="black" points="398,-38.5 398,-57.5 508,-57.5 508,-38.5 398,-38.5"/>
<text text-anchor="middle" x="453" y="-45.5" font-family="Helvetica,sans-Serif" font-size="10.00">logException::what</text>
</a>
</g>
</g>
<!-- Node2 -->
<g id="node2" class="node">
<title>Node2</title>
<g id="a_node2"><a xlink:href="classMap.html#a79a4355510b026646449df1852768c38" target="_top" xlink:title=" ">
<polygon fill="white" stroke="black" points="276,-38.5 276,-57.5 362,-57.5 362,-38.5 276,-38.5"/>
<text text-anchor="middle" x="319" y="-45.5" font-family="Helvetica,sans-Serif" font-size="10.00">Map::readMap</text>
</a>
</g>
</g>
<!-- Node1&#45;&gt;Node2 -->
<g id="edge1" class="edge">
<title>Node1&#45;&gt;Node2</title>
<path fill="none" stroke="midnightblue" d="M387.75,-48C379.02,-48 370.26,-48 362.07,-48"/>
<polygon fill="midnightblue" stroke="midnightblue" points="387.93,-51.5 397.93,-48 387.93,-44.5 387.93,-51.5"/>
</g>
<!-- Node3 -->
<g id="node3" class="node">
<title>Node3</title>
<g id="a_node3"><a xlink:href="classCGame.html#a9945af5487d059db1d7119ae16cd2dd3" target="_top" xlink:title=" ">
<polygon fill="white" stroke="black" points="145.5,-76.5 145.5,-95.5 225.5,-95.5 225.5,-76.5 145.5,-76.5"/>
<text text-anchor="middle" x="185.5" y="-83.5" font-family="Helvetica,sans-Serif" font-size="10.00">CGame::load</text>
</a>
</g>
</g>
<!-- Node2&#45;&gt;Node3 -->
<g id="edge2" class="edge">
<title>Node2&#45;&gt;Node3</title>
<path fill="none" stroke="midnightblue" d="M275.12,-60.39C257.11,-65.59 236.49,-71.55 219.67,-76.41"/>
<polygon fill="midnightblue" stroke="midnightblue" points="276.18,-63.73 284.82,-57.59 274.24,-57 276.18,-63.73"/>
</g>
<!-- Node5 -->
<g id="node5" class="node">
<title>Node5</title>
<g id="a_node5"><a xlink:href="classMap.html#a0a1bc119b284fc82e2f3b1c2956b4381" target="_top" xlink:title=" ">
<polygon fill="white" stroke="black" points="131,-38.5 131,-57.5 240,-57.5 240,-38.5 131,-38.5"/>
<text text-anchor="middle" x="185.5" y="-45.5" font-family="Helvetica,sans-Serif" font-size="10.00">Map::loadNextMap</text>
</a>
</g>
</g>
<!-- Node2&#45;&gt;Node5 -->
<g id="edge4" class="edge">
<title>Node2&#45;&gt;Node5</title>
<path fill="none" stroke="midnightblue" d="M265.4,-48C257.14,-48 248.59,-48 240.3,-48"/>
<polygon fill="midnightblue" stroke="midnightblue" points="265.67,-51.5 275.67,-48 265.67,-44.5 265.67,-51.5"/>
</g>
<!-- Node6 -->
<g id="node6" class="node">
<title>Node6</title>
<g id="a_node6"><a xlink:href="classMap.html#a0f5ad0fd4563497b4214038cbca8b582" target="_top" xlink:title=" ">
<polygon fill="white" stroke="black" points="153,-0.5 153,-19.5 218,-19.5 218,-0.5 153,-0.5"/>
<text text-anchor="middle" x="185.5" y="-7.5" font-family="Helvetica,sans-Serif" font-size="10.00">Map::Map</text>
</a>
</g>
</g>
<!-- Node2&#45;&gt;Node6 -->
<g id="edge5" class="edge">
<title>Node2&#45;&gt;Node6</title>
<path fill="none" stroke="midnightblue" d="M275.15,-35.62C256.65,-30.27 235.38,-24.12 218.31,-19.19"/>
<polygon fill="midnightblue" stroke="midnightblue" points="274.24,-39 284.82,-38.41 276.18,-32.27 274.24,-39"/>
</g>
<!-- Node4 -->
<g id="node4" class="node">
<title>Node4</title>
<g id="a_node4"><a xlink:href="classCGame.html#ab58906b7f567405bf84200f6b5af4b86" target="_top" xlink:title=" ">
<polygon fill="white" stroke="black" points="0,-76.5 0,-95.5 95,-95.5 95,-76.5 0,-76.5"/>
<text text-anchor="middle" x="47.5" y="-83.5" font-family="Helvetica,sans-Serif" font-size="10.00">CGame::CGame</text>
</a>
</g>
</g>
<!-- Node3&#45;&gt;Node4 -->
<g id="edge3" class="edge">
<title>Node3&#45;&gt;Node4</title>
<path fill="none" stroke="midnightblue" d="M135.05,-86C122.13,-86 108.24,-86 95.45,-86"/>
<polygon fill="midnightblue" stroke="midnightblue" points="135.16,-89.5 145.16,-86 135.16,-82.5 135.16,-89.5"/>
</g>
</g>
</svg>
