<?xml version="1.0" encoding="UTF-8" standalone="no"?>
<!DOCTYPE svg PUBLIC "-//W3C//DTD SVG 1.1//EN"
 "http://www.w3.org/Graphics/SVG/1.1/DTD/svg11.dtd">
<!-- Generated by graphviz version 2.43.0 (0)
 -->
<!-- Title: Entity::draw Pages: 1 -->
<svg width="374pt" height="142pt"
 viewBox="0.00 0.00 374.00 142.00" xmlns="http://www.w3.org/2000/svg" xmlns:xlink="http://www.w3.org/1999/xlink">
<g id="graph0" class="graph" transform="scale(1 1) rotate(0) translate(4 138)">
<title>Entity::draw</title>
<polygon fill="white" stroke="transparent" points="-4,4 -4,-138 370,-138 370,4 -4,4"/>
<!-- Node1 -->
<g id="node1" class="node">
<title>Node1</title>
<g id="a_node1"><a xlink:title=" ">
<polygon fill="#bfbfbf" stroke="black" points="0,-76.5 0,-95.5 74,-95.5 74,-76.5 0,-76.5"/>
<text text-anchor="middle" x="37" y="-83.5" font-family="Helvetica,sans-Serif" font-size="10.00">Entity::draw</text>
</a>
</g>
</g>
<!-- Node2 -->
<g id="node2" class="node">
<title>Node2</title>
<g id="a_node2"><a xlink:href="classMap.html#adba2ce32305e081466f8039fd9ccdf17" target="_top" xlink:title=" ">
<polygon fill="white" stroke="black" points="110,-95.5 110,-114.5 227,-114.5 227,-95.5 110,-95.5"/>
<text text-anchor="middle" x="168.5" y="-102.5" font-family="Helvetica,sans-Serif" font-size="10.00">Map::refreshWindow</text>
</a>
</g>
</g>
<!-- Node1&#45;&gt;Node2 -->
<g id="edge1" class="edge">
<title>Node1&#45;&gt;Node2</title>
<path fill="none" stroke="midnightblue" d="M74.07,-91.29C82.12,-92.47 90.91,-93.76 99.77,-95.06"/>
<polygon fill="midnightblue" stroke="midnightblue" points="99.37,-98.54 109.77,-96.53 100.39,-91.62 99.37,-98.54"/>
</g>
<!-- Node3 -->
<g id="node3" class="node">
<title>Node3</title>
<g id="a_node3"><a xlink:href="classMap.html#adb8bd1312b25de59794e421009b6fa3e" target="_top" xlink:title=" ">
<polygon fill="white" stroke="black" points="125,-57.5 125,-76.5 212,-76.5 212,-57.5 125,-57.5"/>
<text text-anchor="middle" x="168.5" y="-64.5" font-family="Helvetica,sans-Serif" font-size="10.00">Map::setEntity</text>
</a>
</g>
</g>
<!-- Node1&#45;&gt;Node3 -->
<g id="edge2" class="edge">
<title>Node1&#45;&gt;Node3</title>
<path fill="none" stroke="midnightblue" d="M74.07,-80.71C86.6,-78.87 100.91,-76.77 114.52,-74.77"/>
<polygon fill="midnightblue" stroke="midnightblue" points="115.35,-78.19 124.74,-73.27 114.33,-71.26 115.35,-78.19"/>
</g>
<!-- Node4 -->
<g id="node4" class="node">
<title>Node4</title>
<g id="a_node4"><a xlink:href="classEntity.html#ae18a1a6367fa577ecc7e5889679b285c" target="_top" xlink:title=" ">
<polygon fill="white" stroke="black" points="276,-114.5 276,-133.5 353,-133.5 353,-114.5 276,-114.5"/>
<text text-anchor="middle" x="314.5" y="-121.5" font-family="Helvetica,sans-Serif" font-size="10.00">Entity::getID</text>
</a>
</g>
</g>
<!-- Node3&#45;&gt;Node4 -->
<g id="edge3" class="edge">
<title>Node3&#45;&gt;Node4</title>
<path fill="none" stroke="midnightblue" d="M201.49,-76.52C209.89,-79.31 218.87,-82.54 227,-86 243.65,-93.08 246.5,-97.58 263,-105 267.41,-106.99 272.1,-108.94 276.77,-110.8"/>
<polygon fill="midnightblue" stroke="midnightblue" points="275.66,-114.13 286.25,-114.46 278.18,-107.6 275.66,-114.13"/>
</g>
<!-- Node5 -->
<g id="node5" class="node">
<title>Node5</title>
<g id="a_node5"><a xlink:href="classEntity.html#aa9b4d32a894d4117dddcdff3c46842ae" target="_top" xlink:title=" ">
<polygon fill="white" stroke="black" points="263,-76.5 263,-95.5 366,-95.5 366,-76.5 263,-76.5"/>
<text text-anchor="middle" x="314.5" y="-83.5" font-family="Helvetica,sans-Serif" font-size="10.00">Entity::getSymbol</text>
</a>
</g>
</g>
<!-- Node3&#45;&gt;Node5 -->
<g id="edge4" class="edge">
<title>Node3&#45;&gt;Node5</title>
<path fill="none" stroke="midnightblue" d="M212.31,-72.65C225,-74.32 239.14,-76.19 252.73,-77.98"/>
<polygon fill="midnightblue" stroke="midnightblue" points="252.61,-81.5 262.98,-79.33 253.53,-74.56 252.61,-81.5"/>
</g>
<!-- Node6 -->
<g id="node6" class="node">
<title>Node6</title>
<g id="a_node6"><a xlink:href="classEntity.html#aaaef5a4ba021755cd32ae39ecbbb38cd" target="_top" xlink:title=" ">
<polygon fill="white" stroke="black" points="270,-38.5 270,-57.5 359,-57.5 359,-38.5 270,-38.5"/>
<text text-anchor="middle" x="314.5" y="-45.5" font-family="Helvetica,sans-Serif" font-size="10.00">Entity::getType</text>
</a>
</g>
</g>
<!-- Node3&#45;&gt;Node6 -->
<g id="edge5" class="edge">
<title>Node3&#45;&gt;Node6</title>
<path fill="none" stroke="midnightblue" d="M212.31,-61.35C227.14,-59.39 243.95,-57.18 259.56,-55.12"/>
<polygon fill="midnightblue" stroke="midnightblue" points="260.15,-58.57 269.6,-53.79 259.23,-51.63 260.15,-58.57"/>
</g>
<!-- Node7 -->
<g id="node7" class="node">
<title>Node7</title>
<g id="a_node7"><a xlink:href="classEntity.html#a6171cc57bf9ab1a0d0fe18b7a8acc4ea" target="_top" xlink:title=" ">
<polygon fill="white" stroke="black" points="275.5,-0.5 275.5,-19.5 353.5,-19.5 353.5,-0.5 275.5,-0.5"/>
<text text-anchor="middle" x="314.5" y="-7.5" font-family="Helvetica,sans-Serif" font-size="10.00">Entity::move</text>
</a>
</g>
</g>
<!-- Node3&#45;&gt;Node7 -->
<g id="edge6" class="edge">
<title>Node3&#45;&gt;Node7</title>
<path fill="none" stroke="midnightblue" d="M192.49,-57.46C211.37,-49.67 238.85,-38.45 263,-29 267.89,-27.09 273.06,-25.1 278.15,-23.16"/>
<polygon fill="midnightblue" stroke="midnightblue" points="279.64,-26.34 287.76,-19.54 277.17,-19.8 279.64,-26.34"/>
</g>
</g>
</svg>
