<?xml version="1.0" encoding="UTF-8" standalone="no"?>
<!DOCTYPE svg PUBLIC "-//W3C//DTD SVG 1.1//EN"
 "http://www.w3.org/Graphics/SVG/1.1/DTD/svg11.dtd">
<!-- Generated by graphviz version 2.43.0 (0)
 -->
<!-- Title: CGame Pages: 1 -->
<svg width="215pt" height="229pt"
 viewBox="0.00 0.00 215.00 229.00" xmlns="http://www.w3.org/2000/svg" xmlns:xlink="http://www.w3.org/1999/xlink">
<g id="graph0" class="graph" transform="scale(1 1) rotate(0) translate(4 225)">
<title>CGame</title>
<polygon fill="white" stroke="transparent" points="-4,4 -4,-225 211,-225 211,4 -4,4"/>
<!-- Node1 -->
<g id="node1" class="node">
<title>Node1</title>
<g id="a_node1"><a xlink:title=" ">
<polygon fill="#bfbfbf" stroke="black" points="49.5,-0.5 49.5,-19.5 102.5,-19.5 102.5,-0.5 49.5,-0.5"/>
<text text-anchor="middle" x="76" y="-7.5" font-family="Helvetica,sans-Serif" font-size="10.00">CGame</text>
</a>
</g>
</g>
<!-- Node2 -->
<g id="node2" class="node">
<title>Node2</title>
<g id="a_node2"><a xlink:href="classEnemy.html" target="_top" xlink:title=" ">
<polygon fill="white" stroke="black" points="134,-67.5 134,-86.5 184,-86.5 184,-67.5 134,-67.5"/>
<text text-anchor="middle" x="159" y="-74.5" font-family="Helvetica,sans-Serif" font-size="10.00">Enemy</text>
</a>
</g>
</g>
<!-- Node2&#45;&gt;Node1 -->
<g id="edge1" class="edge">
<title>Node2&#45;&gt;Node1</title>
<path fill="none" stroke="#9a32cd" stroke-dasharray="5,2" d="M139.93,-61.07C123.55,-48.24 100.5,-30.19 87.02,-19.63"/>
<polygon fill="#9a32cd" stroke="#9a32cd" points="137.78,-63.82 147.81,-67.23 142.09,-58.31 137.78,-63.82"/>
<text text-anchor="middle" x="164.5" y="-41" font-family="Helvetica,sans-Serif" font-size="10.00"> _tower_manager</text>
</g>
<!-- Node3 -->
<g id="node3" class="node">
<title>Node3</title>
<g id="a_node3"><a xlink:href="classPlayer.html" target="_top" xlink:title=" ">
<polygon fill="white" stroke="black" points="52.5,-134.5 52.5,-153.5 99.5,-153.5 99.5,-134.5 52.5,-134.5"/>
<text text-anchor="middle" x="76" y="-141.5" font-family="Helvetica,sans-Serif" font-size="10.00">Player</text>
</a>
</g>
</g>
<!-- Node3&#45;&gt;Node1 -->
<g id="edge5" class="edge">
<title>Node3&#45;&gt;Node1</title>
<path fill="none" stroke="#9a32cd" stroke-dasharray="5,2" d="M76,-124.28C76,-95.25 76,-40.54 76,-19.52"/>
<polygon fill="#9a32cd" stroke="#9a32cd" points="72.5,-124.34 76,-134.34 79.5,-124.34 72.5,-124.34"/>
<text text-anchor="middle" x="96" y="-74.5" font-family="Helvetica,sans-Serif" font-size="10.00"> _player</text>
</g>
<!-- Node3&#45;&gt;Node2 -->
<g id="edge2" class="edge">
<title>Node3&#45;&gt;Node2</title>
<path fill="none" stroke="midnightblue" d="M95.07,-128.07C111.45,-115.24 134.5,-97.19 147.98,-86.63"/>
<polygon fill="midnightblue" stroke="midnightblue" points="92.91,-125.31 87.19,-134.23 97.22,-130.82 92.91,-125.31"/>
</g>
<!-- Node4 -->
<g id="node4" class="node">
<title>Node4</title>
<g id="a_node4"><a xlink:href="classMap.html" target="_top" xlink:title=" ">
<polygon fill="white" stroke="black" points="0,-201.5 0,-220.5 38,-220.5 38,-201.5 0,-201.5"/>
<text text-anchor="middle" x="19" y="-208.5" font-family="Helvetica,sans-Serif" font-size="10.00">Map</text>
</a>
</g>
</g>
<!-- Node4&#45;&gt;Node1 -->
<g id="edge4" class="edge">
<title>Node4&#45;&gt;Node1</title>
<path fill="none" stroke="#9a32cd" stroke-dasharray="5,2" d="M14.43,-191.33C10.04,-169.97 5.24,-134.19 14,-105 24.56,-69.8 53.05,-35.6 67.44,-19.92"/>
<polygon fill="#9a32cd" stroke="#9a32cd" points="11.07,-192.34 16.68,-201.33 17.9,-190.8 11.07,-192.34"/>
<text text-anchor="middle" x="43" y="-108" font-family="Helvetica,sans-Serif" font-size="10.00"> _gameMap</text>
</g>
<!-- Node4&#45;&gt;Node3 -->
<g id="edge3" class="edge">
<title>Node4&#45;&gt;Node3</title>
<path fill="none" stroke="#9a32cd" stroke-dasharray="5,2" d="M33.35,-193.63C44.5,-180.92 59.52,-163.8 68.43,-153.63"/>
<polygon fill="#9a32cd" stroke="#9a32cd" points="30.65,-191.41 26.69,-201.23 35.91,-196.02 30.65,-191.41"/>
<text text-anchor="middle" x="65.5" y="-175" font-family="Helvetica,sans-Serif" font-size="10.00"> _map</text>
</g>
</g>
</svg>
