<?xml version="1.0" encoding="UTF-8" standalone="no"?>
<!DOCTYPE svg PUBLIC "-//W3C//DTD SVG 1.1//EN"
 "http://www.w3.org/Graphics/SVG/1.1/DTD/svg11.dtd">
<!-- Generated by graphviz version 2.43.0 (0)
 -->
<!-- Title: Attacker Pages: 1 -->
<svg width="298pt" height="140pt"
 viewBox="0.00 0.00 297.50 140.00" xmlns="http://www.w3.org/2000/svg" xmlns:xlink="http://www.w3.org/1999/xlink">
<g id="graph0" class="graph" transform="scale(1 1) rotate(0) translate(4 136)">
<title>Attacker</title>
<polygon fill="white" stroke="transparent" points="-4,4 -4,-136 293.5,-136 293.5,4 -4,4"/>
<!-- Node1 -->
<g id="node1" class="node">
<title>Node1</title>
<g id="a_node1"><a xlink:title=" ">
<polygon fill="#bfbfbf" stroke="black" points="120,-56.5 120,-75.5 177,-75.5 177,-56.5 120,-56.5"/>
<text text-anchor="middle" x="148.5" y="-63.5" font-family="Helvetica,sans-Serif" font-size="10.00">Attacker</text>
</a>
</g>
</g>
<!-- Node3 -->
<g id="node3" class="node">
<title>Node3</title>
<g id="a_node3"><a xlink:href="classbasicAttacker.html" target="_top" xlink:title=" ">
<polygon fill="white" stroke="black" points="0,-0.5 0,-19.5 83,-19.5 83,-0.5 0,-0.5"/>
<text text-anchor="middle" x="41.5" y="-7.5" font-family="Helvetica,sans-Serif" font-size="10.00">basicAttacker</text>
</a>
</g>
</g>
<!-- Node1&#45;&gt;Node3 -->
<g id="edge2" class="edge">
<title>Node1&#45;&gt;Node3</title>
<path fill="none" stroke="midnightblue" d="M122.2,-51.73C102.39,-41.73 75.79,-28.31 58.65,-19.65"/>
<polygon fill="midnightblue" stroke="midnightblue" points="120.8,-54.94 131.31,-56.32 123.96,-48.69 120.8,-54.94"/>
</g>
<!-- Node4 -->
<g id="node4" class="node">
<title>Node4</title>
<g id="a_node4"><a xlink:href="classchargerAttacker.html" target="_top" xlink:title=" ">
<polygon fill="white" stroke="black" points="101.5,-0.5 101.5,-19.5 195.5,-19.5 195.5,-0.5 101.5,-0.5"/>
<text text-anchor="middle" x="148.5" y="-7.5" font-family="Helvetica,sans-Serif" font-size="10.00">chargerAttacker</text>
</a>
</g>
</g>
<!-- Node1&#45;&gt;Node4 -->
<g id="edge3" class="edge">
<title>Node1&#45;&gt;Node4</title>
<path fill="none" stroke="midnightblue" d="M148.5,-45.8C148.5,-36.91 148.5,-26.78 148.5,-19.75"/>
<polygon fill="midnightblue" stroke="midnightblue" points="145,-46.08 148.5,-56.08 152,-46.08 145,-46.08"/>
</g>
<!-- Node5 -->
<g id="node5" class="node">
<title>Node5</title>
<g id="a_node5"><a xlink:href="classfastAttacker.html" target="_top" xlink:title=" ">
<polygon fill="white" stroke="black" points="213.5,-0.5 213.5,-19.5 289.5,-19.5 289.5,-0.5 213.5,-0.5"/>
<text text-anchor="middle" x="251.5" y="-7.5" font-family="Helvetica,sans-Serif" font-size="10.00">fastAttacker</text>
</a>
</g>
</g>
<!-- Node1&#45;&gt;Node5 -->
<g id="edge4" class="edge">
<title>Node1&#45;&gt;Node5</title>
<path fill="none" stroke="midnightblue" d="M174.08,-51.59C193.12,-41.61 218.56,-28.27 234.99,-19.65"/>
<polygon fill="midnightblue" stroke="midnightblue" points="172.28,-48.58 165.05,-56.32 175.53,-54.78 172.28,-48.58"/>
</g>
<!-- Node2 -->
<g id="node2" class="node">
<title>Node2</title>
<g id="a_node2"><a xlink:href="classEntity.html" target="_top" xlink:title=" ">
<polygon fill="white" stroke="black" points="126,-112.5 126,-131.5 171,-131.5 171,-112.5 126,-112.5"/>
<text text-anchor="middle" x="148.5" y="-119.5" font-family="Helvetica,sans-Serif" font-size="10.00">Entity</text>
</a>
</g>
</g>
<!-- Node2&#45;&gt;Node1 -->
<g id="edge1" class="edge">
<title>Node2&#45;&gt;Node1</title>
<path fill="none" stroke="midnightblue" d="M148.5,-101.8C148.5,-92.91 148.5,-82.78 148.5,-75.75"/>
<polygon fill="midnightblue" stroke="midnightblue" points="145,-102.08 148.5,-112.08 152,-102.08 145,-102.08"/>
</g>
</g>
</svg>
