<?xml version="1.0" encoding="UTF-8" standalone="no"?>
<!DOCTYPE svg PUBLIC "-//W3C//DTD SVG 1.1//EN"
 "http://www.w3.org/Graphics/SVG/1.1/DTD/svg11.dtd">
<!-- Generated by graphviz version 2.43.0 (0)
 -->
<!-- Title: CGame Pages: 1 -->
<svg width="306pt" height="229pt"
 viewBox="0.00 0.00 306.05 229.00" xmlns="http://www.w3.org/2000/svg" xmlns:xlink="http://www.w3.org/1999/xlink">
<g id="graph0" class="graph" transform="scale(1 1) rotate(0) translate(4 225)">
<title>CGame</title>
<polygon fill="white" stroke="transparent" points="-4,4 -4,-225 302.05,-225 302.05,4 -4,4"/>
<!-- Node1 -->
<g id="node1" class="node">
<title>Node1</title>
<g id="a_node1"><a xlink:title=" ">
<polygon fill="#bfbfbf" stroke="black" points="107.55,-0.5 107.55,-19.5 160.55,-19.5 160.55,-0.5 107.55,-0.5"/>
<text text-anchor="middle" x="134.05" y="-7.5" font-family="Helvetica,sans-Serif" font-size="10.00">CGame</text>
</a>
</g>
</g>
<!-- Node2 -->
<g id="node2" class="node">
<title>Node2</title>
<g id="a_node2"><a xlink:href="classEnemy.html" target="_top" xlink:title=" ">
<polygon fill="white" stroke="black" points="72.05,-67.5 72.05,-86.5 122.05,-86.5 122.05,-67.5 72.05,-67.5"/>
<text text-anchor="middle" x="97.05" y="-74.5" font-family="Helvetica,sans-Serif" font-size="10.00">Enemy</text>
</a>
</g>
</g>
<!-- Node2&#45;&gt;Node1 -->
<g id="edge1" class="edge">
<title>Node2&#45;&gt;Node1</title>
<path fill="none" stroke="#9a32cd" stroke-dasharray="5,2" d="M83.06,-59.05C79.19,-52.28 77.04,-44.55 81.05,-38 86.93,-28.4 97.41,-22.08 107.51,-17.99"/>
<polygon fill="#9a32cd" stroke="#9a32cd" points="80.36,-61.3 88.96,-67.49 86.1,-57.29 80.36,-61.3"/>
<text text-anchor="middle" x="123.55" y="-41" font-family="Helvetica,sans-Serif" font-size="10.00"> _tower_manager</text>
</g>
<!-- Node3 -->
<g id="node3" class="node">
<title>Node3</title>
<g id="a_node3"><a xlink:href="classMap.html" target="_top" xlink:title=" ">
<polygon fill="white" stroke="black" points="92.05,-134.5 92.05,-153.5 130.05,-153.5 130.05,-134.5 92.05,-134.5"/>
<text text-anchor="middle" x="111.05" y="-141.5" font-family="Helvetica,sans-Serif" font-size="10.00">Map</text>
</a>
</g>
</g>
<!-- Node3&#45;&gt;Node1 -->
<g id="edge4" class="edge">
<title>Node3&#45;&gt;Node1</title>
<path fill="none" stroke="#9a32cd" stroke-dasharray="5,2" d="M82.31,-135.79C43.81,-124.67 -17.24,-100.98 5.05,-67 27.68,-32.5 76.65,-19.15 107.32,-14.05"/>
<polygon fill="#9a32cd" stroke="#9a32cd" points="81.45,-139.19 92.02,-138.47 83.31,-132.44 81.45,-139.19"/>
<text text-anchor="middle" x="34.05" y="-74.5" font-family="Helvetica,sans-Serif" font-size="10.00"> _gameMap</text>
</g>
<!-- Node3&#45;&gt;Node2 -->
<g id="edge2" class="edge">
<title>Node3&#45;&gt;Node2</title>
<path fill="none" stroke="#9a32cd" stroke-dasharray="5,2" d="M94.65,-126.33C92.35,-123.13 90.34,-119.63 89.05,-116 85.57,-106.22 89.17,-94.45 92.59,-86.63"/>
<polygon fill="#9a32cd" stroke="#9a32cd" points="91.98,-128.6 101.08,-134.02 97.35,-124.11 91.98,-128.6"/>
<text text-anchor="middle" x="104.55" y="-108" font-family="Helvetica,sans-Serif" font-size="10.00"> _map</text>
</g>
<!-- Node6 -->
<g id="node6" class="node">
<title>Node6</title>
<g id="a_node6"><a xlink:href="classPlayer.html" target="_top" xlink:title=" ">
<polygon fill="white" stroke="black" points="156.55,-67.5 156.55,-86.5 203.55,-86.5 203.55,-67.5 156.55,-67.5"/>
<text text-anchor="middle" x="180.05" y="-74.5" font-family="Helvetica,sans-Serif" font-size="10.00">Player</text>
</a>
</g>
</g>
<!-- Node3&#45;&gt;Node6 -->
<g id="edge7" class="edge">
<title>Node3&#45;&gt;Node6</title>
<path fill="none" stroke="#9a32cd" stroke-dasharray="5,2" d="M123.68,-126.27C129.27,-119.35 136.13,-111.45 143.05,-105 150.37,-98.17 159.45,-91.52 166.78,-86.53"/>
<polygon fill="#9a32cd" stroke="#9a32cd" points="120.78,-124.3 117.38,-134.34 126.29,-128.61 120.78,-124.3"/>
<text text-anchor="middle" x="158.55" y="-108" font-family="Helvetica,sans-Serif" font-size="10.00"> _map</text>
</g>
<!-- Node4 -->
<g id="node4" class="node">
<title>Node4</title>
<g id="a_node4"><a xlink:href="classPoint.html" target="_top" xlink:title=" ">
<polygon fill="white" stroke="black" points="140.55,-201.5 140.55,-220.5 181.55,-220.5 181.55,-201.5 140.55,-201.5"/>
<text text-anchor="middle" x="161.05" y="-208.5" font-family="Helvetica,sans-Serif" font-size="10.00">Point</text>
</a>
</g>
</g>
<!-- Node4&#45;&gt;Node3 -->
<g id="edge3" class="edge">
<title>Node4&#45;&gt;Node3</title>
<path fill="none" stroke="#9a32cd" stroke-dasharray="5,2" d="M145.98,-193.72C142.94,-190.25 139.83,-186.56 137.05,-183 129.47,-173.3 121.6,-161.52 116.53,-153.67"/>
<polygon fill="#9a32cd" stroke="#9a32cd" points="143.46,-196.15 152.76,-201.24 148.67,-191.47 143.46,-196.15"/>
<text text-anchor="middle" x="155.55" y="-175" font-family="Helvetica,sans-Serif" font-size="10.00"> m_exit</text>
</g>
<!-- Node4&#45;&gt;Node6 -->
<g id="edge8" class="edge">
<title>Node4&#45;&gt;Node6</title>
<path fill="none" stroke="#9a32cd" stroke-dasharray="5,2" d="M170.74,-192.36C172.06,-189.32 173.24,-186.12 174.05,-183 183.05,-148.17 181.75,-104.77 180.67,-86.61"/>
<polygon fill="#9a32cd" stroke="#9a32cd" points="167.6,-190.82 166.3,-201.34 173.87,-193.93 167.6,-190.82"/>
<text text-anchor="middle" x="212.05" y="-141.5" font-family="Helvetica,sans-Serif" font-size="10.00"> _spawnLane</text>
</g>
<!-- Node5 -->
<g id="node5" class="node">
<title>Node5</title>
<g id="a_node5"><a xlink:href="classCDefinitions.html" target="_top" xlink:title=" ">
<polygon fill="white" stroke="black" points="222.05,-67.5 222.05,-86.5 298.05,-86.5 298.05,-67.5 222.05,-67.5"/>
<text text-anchor="middle" x="260.05" y="-74.5" font-family="Helvetica,sans-Serif" font-size="10.00">CDefinitions</text>
</a>
</g>
</g>
<!-- Node5&#45;&gt;Node1 -->
<g id="edge5" class="edge">
<title>Node5&#45;&gt;Node1</title>
<path fill="none" stroke="#9a32cd" stroke-dasharray="5,2" d="M244.5,-60.31C236.3,-52.73 225.75,-44.01 215.05,-38 197.99,-28.42 176.98,-21.54 160.64,-17.13"/>
<polygon fill="#9a32cd" stroke="#9a32cd" points="242.2,-62.94 251.83,-67.36 247.05,-57.9 242.2,-62.94"/>
<text text-anchor="middle" x="261.05" y="-41" font-family="Helvetica,sans-Serif" font-size="10.00"> _definitions</text>
</g>
<!-- Node6&#45;&gt;Node1 -->
<g id="edge6" class="edge">
<title>Node6&#45;&gt;Node1</title>
<path fill="none" stroke="#9a32cd" stroke-dasharray="5,2" d="M175.28,-57.27C173.1,-50.81 170.08,-43.75 166.05,-38 161.04,-30.86 153.7,-24.48 147.31,-19.72"/>
<polygon fill="#9a32cd" stroke="#9a32cd" points="172.03,-58.63 178.19,-67.25 178.75,-56.67 172.03,-58.63"/>
<text text-anchor="middle" x="191.05" y="-41" font-family="Helvetica,sans-Serif" font-size="10.00"> _player</text>
</g>
</g>
</svg>
