<?xml version="1.0" encoding="UTF-8" standalone="no"?>
<!DOCTYPE svg PUBLIC "-//W3C//DTD SVG 1.1//EN"
 "http://www.w3.org/Graphics/SVG/1.1/DTD/svg11.dtd">
<!-- Generated by graphviz version 2.43.0 (0)
 -->
<!-- Title: Entity::move Pages: 1 -->
<svg width="1013pt" height="123pt"
 viewBox="0.00 0.00 1013.00 123.00" xmlns="http://www.w3.org/2000/svg" xmlns:xlink="http://www.w3.org/1999/xlink">
<g id="graph0" class="graph" transform="scale(1 1) rotate(0) translate(4 119)">
<title>Entity::move</title>
<polygon fill="white" stroke="transparent" points="-4,4 -4,-119 1009,-119 1009,4 -4,4"/>
<!-- Node1 -->
<g id="node1" class="node">
<title>Node1</title>
<g id="a_node1"><a xlink:title=" ">
<polygon fill="#bfbfbf" stroke="black" points="927,-19.5 927,-38.5 1005,-38.5 1005,-19.5 927,-19.5"/>
<text text-anchor="middle" x="966" y="-26.5" font-family="Helvetica,sans-Serif" font-size="10.00">Entity::move</text>
</a>
</g>
</g>
<!-- Node2 -->
<g id="node2" class="node">
<title>Node2</title>
<g id="a_node2"><a xlink:href="classMap.html#adb8bd1312b25de59794e421009b6fa3e" target="_top" xlink:title=" ">
<polygon fill="white" stroke="black" points="798.5,-38.5 798.5,-57.5 885.5,-57.5 885.5,-38.5 798.5,-38.5"/>
<text text-anchor="middle" x="842" y="-45.5" font-family="Helvetica,sans-Serif" font-size="10.00">Map::setEntity</text>
</a>
</g>
</g>
<!-- Node1&#45;&gt;Node2 -->
<g id="edge1" class="edge">
<title>Node1&#45;&gt;Node2</title>
<path fill="none" stroke="midnightblue" d="M916.73,-36.52C906.51,-38.11 895.8,-39.78 885.8,-41.33"/>
<polygon fill="midnightblue" stroke="midnightblue" points="917.39,-39.96 926.73,-34.96 916.31,-33.04 917.39,-39.96"/>
</g>
<!-- Node10 -->
<g id="node10" class="node">
<title>Node10</title>
<g id="a_node10"><a xlink:href="classMap.html#ae84f294b7e9de1a49954dc2d13698e13" target="_top" xlink:title="Map::updateMap.">
<polygon fill="white" stroke="black" points="793,-0.5 793,-19.5 891,-19.5 891,-0.5 793,-0.5"/>
<text text-anchor="middle" x="842" y="-7.5" font-family="Helvetica,sans-Serif" font-size="10.00">Map::updateMap</text>
</a>
</g>
</g>
<!-- Node1&#45;&gt;Node10 -->
<g id="edge10" class="edge">
<title>Node1&#45;&gt;Node10</title>
<path fill="none" stroke="midnightblue" d="M916.66,-21.47C908.22,-20.16 899.45,-18.79 891.02,-17.48"/>
<polygon fill="midnightblue" stroke="midnightblue" points="916.31,-24.96 926.73,-23.04 917.39,-18.04 916.31,-24.96"/>
</g>
<!-- Node3 -->
<g id="node3" class="node">
<title>Node3</title>
<g id="a_node3"><a xlink:href="classEnemy.html#a238798e0d954a7ee3b6fafb592151cde" target="_top" xlink:title=" ">
<polygon fill="white" stroke="black" points="621.5,-76.5 621.5,-95.5 741.5,-95.5 741.5,-76.5 621.5,-76.5"/>
<text text-anchor="middle" x="681.5" y="-83.5" font-family="Helvetica,sans-Serif" font-size="10.00">Enemy::createTowers</text>
</a>
</g>
</g>
<!-- Node2&#45;&gt;Node3 -->
<g id="edge2" class="edge">
<title>Node2&#45;&gt;Node3</title>
<path fill="none" stroke="midnightblue" d="M791.08,-59.97C768.87,-65.29 743.08,-71.48 722.21,-76.48"/>
<polygon fill="midnightblue" stroke="midnightblue" points="792.1,-63.32 801,-57.59 790.46,-56.52 792.1,-63.32"/>
</g>
<!-- Node9 -->
<g id="node9" class="node">
<title>Node9</title>
<g id="a_node9"><a xlink:href="classEntity.html#a7666f416dd0d1fce0f1133f78df44476" target="_top" xlink:title=" ">
<polygon fill="white" stroke="black" points="644.5,-38.5 644.5,-57.5 718.5,-57.5 718.5,-38.5 644.5,-38.5"/>
<text text-anchor="middle" x="681.5" y="-45.5" font-family="Helvetica,sans-Serif" font-size="10.00">Entity::draw</text>
</a>
</g>
</g>
<!-- Node2&#45;&gt;Node9 -->
<g id="edge9" class="edge">
<title>Node2&#45;&gt;Node9</title>
<path fill="none" stroke="midnightblue" d="M787.92,-48C765.17,-48 739.19,-48 718.71,-48"/>
<polygon fill="midnightblue" stroke="midnightblue" points="788.11,-51.5 798.11,-48 788.11,-44.5 788.11,-51.5"/>
</g>
<!-- Node4 -->
<g id="node4" class="node">
<title>Node4</title>
<g id="a_node4"><a xlink:href="classCGame.html#a6890a8e74412ff0ced3959e3093e6d84" target="_top" xlink:title=" ">
<polygon fill="white" stroke="black" points="454,-76.5 454,-95.5 570,-95.5 570,-76.5 454,-76.5"/>
<text text-anchor="middle" x="512" y="-83.5" font-family="Helvetica,sans-Serif" font-size="10.00">CGame::drawTowers</text>
</a>
</g>
</g>
<!-- Node3&#45;&gt;Node4 -->
<g id="edge3" class="edge">
<title>Node3&#45;&gt;Node4</title>
<path fill="none" stroke="midnightblue" d="M611.13,-86C597.48,-86 583.31,-86 570.11,-86"/>
<polygon fill="midnightblue" stroke="midnightblue" points="611.45,-89.5 621.45,-86 611.45,-82.5 611.45,-89.5"/>
</g>
<!-- Node5 -->
<g id="node5" class="node">
<title>Node5</title>
<g id="a_node5"><a xlink:href="classCGame.html#aa70fa8586abbd097b8eb7fb8d540841d" target="_top" xlink:title=" ">
<polygon fill="white" stroke="black" points="337,-76.5 337,-95.5 418,-95.5 418,-76.5 337,-76.5"/>
<text text-anchor="middle" x="377.5" y="-83.5" font-family="Helvetica,sans-Serif" font-size="10.00">CGame::start</text>
</a>
</g>
</g>
<!-- Node4&#45;&gt;Node5 -->
<g id="edge4" class="edge">
<title>Node4&#45;&gt;Node5</title>
<path fill="none" stroke="midnightblue" d="M443.56,-86C434.95,-86 426.36,-86 418.38,-86"/>
<polygon fill="midnightblue" stroke="midnightblue" points="443.65,-89.5 453.65,-86 443.65,-82.5 443.65,-89.5"/>
</g>
<!-- Node6 -->
<g id="node6" class="node">
<title>Node6</title>
<g id="a_node6"><a xlink:href="classCGame.html#aa7c80b7185158a0bde186d83f0e8cbb4" target="_top" xlink:title=" ">
<polygon fill="white" stroke="black" points="221,-76.5 221,-95.5 301,-95.5 301,-76.5 221,-76.5"/>
<text text-anchor="middle" x="261" y="-83.5" font-family="Helvetica,sans-Serif" font-size="10.00">CGame::play</text>
</a>
</g>
</g>
<!-- Node5&#45;&gt;Node6 -->
<g id="edge5" class="edge">
<title>Node5&#45;&gt;Node6</title>
<path fill="none" stroke="midnightblue" d="M326.59,-86C318.12,-86 309.42,-86 301.27,-86"/>
<polygon fill="midnightblue" stroke="midnightblue" points="326.77,-89.5 336.77,-86 326.77,-82.5 326.77,-89.5"/>
</g>
<!-- Node7 -->
<g id="node7" class="node">
<title>Node7</title>
<g id="a_node7"><a xlink:href="main_8cpp.html#a3c04138a5bfe5d72780bb7e82a18e627" target="_top" xlink:title=" ">
<polygon fill="white" stroke="black" points="144,-95.5 144,-114.5 185,-114.5 185,-95.5 144,-95.5"/>
<text text-anchor="middle" x="164.5" y="-102.5" font-family="Helvetica,sans-Serif" font-size="10.00">main</text>
</a>
</g>
</g>
<!-- Node6&#45;&gt;Node7 -->
<g id="edge6" class="edge">
<title>Node6&#45;&gt;Node7</title>
<path fill="none" stroke="midnightblue" d="M210.87,-95.88C201.75,-97.71 192.72,-99.53 185.15,-101.05"/>
<polygon fill="midnightblue" stroke="midnightblue" points="211.63,-99.3 220.74,-93.89 210.25,-92.43 211.63,-99.3"/>
</g>
<!-- Node8 -->
<g id="node8" class="node">
<title>Node8</title>
<g id="a_node8"><a xlink:href="structCMenu.html#a07236cc397b0e4e55ec4f916c3893fbd" target="_top" xlink:title=" ">
<polygon fill="white" stroke="black" points="0,-76.5 0,-95.5 108,-95.5 108,-76.5 0,-76.5"/>
<text text-anchor="middle" x="54" y="-83.5" font-family="Helvetica,sans-Serif" font-size="10.00">CMenu::mainMenu</text>
</a>
</g>
</g>
<!-- Node7&#45;&gt;Node8 -->
<g id="edge7" class="edge">
<title>Node7&#45;&gt;Node8</title>
<path fill="none" stroke="midnightblue" d="M133.76,-99.79C125.89,-98.41 117.17,-96.89 108.46,-95.36"/>
<polygon fill="midnightblue" stroke="midnightblue" points="133.4,-103.28 143.85,-101.56 134.61,-96.39 133.4,-103.28"/>
</g>
<!-- Node8&#45;&gt;Node6 -->
<g id="edge8" class="edge">
<title>Node8&#45;&gt;Node6</title>
<path fill="none" stroke="midnightblue" d="M118.4,-86C151.92,-86 192.01,-86 220.96,-86"/>
<polygon fill="midnightblue" stroke="midnightblue" points="118.22,-82.5 108.22,-86 118.22,-89.5 118.22,-82.5"/>
</g>
<!-- Node11 -->
<g id="node11" class="node">
<title>Node11</title>
<g id="a_node11"><a xlink:href="classbasicAttacker.html#a8991658b680212c76e6a4a773e16ff4b" target="_top" xlink:title=" ">
<polygon fill="white" stroke="black" points="606,-0.5 606,-19.5 757,-19.5 757,-0.5 606,-0.5"/>
<text text-anchor="middle" x="681.5" y="-7.5" font-family="Helvetica,sans-Serif" font-size="10.00">basicAttacker::moveOnPath</text>
</a>
</g>
</g>
<!-- Node10&#45;&gt;Node11 -->
<g id="edge11" class="edge">
<title>Node10&#45;&gt;Node11</title>
<path fill="none" stroke="midnightblue" d="M782.38,-10C774.17,-10 765.64,-10 757.18,-10"/>
<polygon fill="midnightblue" stroke="midnightblue" points="782.58,-13.5 792.58,-10 782.58,-6.5 782.58,-13.5"/>
</g>
</g>
</svg>
