<?xml version="1.0" encoding="UTF-8" standalone="no"?>
<!DOCTYPE svg PUBLIC "-//W3C//DTD SVG 1.1//EN"
 "http://www.w3.org/Graphics/SVG/1.1/DTD/svg11.dtd">
<!-- Generated by graphviz version 2.43.0 (0)
 -->
<!-- Title: Enemy::printTowers Pages: 1 -->
<svg width="738pt" height="104pt"
 viewBox="0.00 0.00 738.00 104.00" xmlns="http://www.w3.org/2000/svg" xmlns:xlink="http://www.w3.org/1999/xlink">
<g id="graph0" class="graph" transform="scale(1 1) rotate(0) translate(4 100)">
<title>Enemy::printTowers</title>
<polygon fill="white" stroke="transparent" points="-4,4 -4,-100 734,-100 734,4 -4,4"/>
<!-- Node1 -->
<g id="node1" class="node">
<title>Node1</title>
<g id="a_node1"><a xlink:title=" ">
<polygon fill="#bfbfbf" stroke="black" points="618,-38.5 618,-57.5 730,-57.5 730,-38.5 618,-38.5"/>
<text text-anchor="middle" x="674" y="-45.5" font-family="Helvetica,sans-Serif" font-size="10.00">Enemy::printTowers</text>
</a>
</g>
</g>
<!-- Node2 -->
<g id="node2" class="node">
<title>Node2</title>
<g id="a_node2"><a xlink:href="classCGame.html#a6890a8e74412ff0ced3959e3093e6d84" target="_top" xlink:title=" ">
<polygon fill="white" stroke="black" points="460,-76.5 460,-95.5 576,-95.5 576,-76.5 460,-76.5"/>
<text text-anchor="middle" x="518" y="-83.5" font-family="Helvetica,sans-Serif" font-size="10.00">CGame::drawTowers</text>
</a>
</g>
</g>
<!-- Node1&#45;&gt;Node2 -->
<g id="edge1" class="edge">
<title>Node1&#45;&gt;Node2</title>
<path fill="none" stroke="midnightblue" d="M624.21,-60.04C602.69,-65.35 577.77,-71.5 557.58,-76.48"/>
<polygon fill="midnightblue" stroke="midnightblue" points="625.27,-63.38 634.14,-57.59 623.59,-56.59 625.27,-63.38"/>
</g>
<!-- Node7 -->
<g id="node7" class="node">
<title>Node7</title>
<g id="a_node7"><a xlink:href="classCGame.html#afbbb4f8d05f753b7c2d6a0d91ca96a9b" target="_top" xlink:title=" ">
<polygon fill="white" stroke="black" points="454,-38.5 454,-57.5 582,-57.5 582,-38.5 454,-38.5"/>
<text text-anchor="middle" x="518" y="-45.5" font-family="Helvetica,sans-Serif" font-size="10.00">CGame::loadFromSave</text>
</a>
</g>
</g>
<!-- Node1&#45;&gt;Node7 -->
<g id="edge7" class="edge">
<title>Node1&#45;&gt;Node7</title>
<path fill="none" stroke="midnightblue" d="M607.66,-48C599.21,-48 590.57,-48 582.16,-48"/>
<polygon fill="midnightblue" stroke="midnightblue" points="607.84,-51.5 617.84,-48 607.84,-44.5 607.84,-51.5"/>
</g>
<!-- Node9 -->
<g id="node9" class="node">
<title>Node9</title>
<g id="a_node9"><a xlink:href="classCGame.html#ac614fee61f8ff86a286f727faf3a3cf4" target="_top" xlink:title=" ">
<polygon fill="white" stroke="black" points="455,-0.5 455,-19.5 581,-19.5 581,-0.5 455,-0.5"/>
<text text-anchor="middle" x="518" y="-7.5" font-family="Helvetica,sans-Serif" font-size="10.00">CGame::redrawTowers</text>
</a>
</g>
</g>
<!-- Node1&#45;&gt;Node9 -->
<g id="edge10" class="edge">
<title>Node1&#45;&gt;Node9</title>
<path fill="none" stroke="midnightblue" d="M624.21,-35.96C602.69,-30.65 577.77,-24.5 557.58,-19.52"/>
<polygon fill="midnightblue" stroke="midnightblue" points="623.59,-39.41 634.14,-38.41 625.27,-32.62 623.59,-39.41"/>
</g>
<!-- Node3 -->
<g id="node3" class="node">
<title>Node3</title>
<g id="a_node3"><a xlink:href="classCGame.html#aa70fa8586abbd097b8eb7fb8d540841d" target="_top" xlink:title=" ">
<polygon fill="white" stroke="black" points="337,-76.5 337,-95.5 418,-95.5 418,-76.5 337,-76.5"/>
<text text-anchor="middle" x="377.5" y="-83.5" font-family="Helvetica,sans-Serif" font-size="10.00">CGame::start</text>
</a>
</g>
</g>
<!-- Node2&#45;&gt;Node3 -->
<g id="edge2" class="edge">
<title>Node2&#45;&gt;Node3</title>
<path fill="none" stroke="midnightblue" d="M449.6,-86C438.84,-86 428.02,-86 418.18,-86"/>
<polygon fill="midnightblue" stroke="midnightblue" points="449.87,-89.5 459.87,-86 449.87,-82.5 449.87,-89.5"/>
</g>
<!-- Node4 -->
<g id="node4" class="node">
<title>Node4</title>
<g id="a_node4"><a xlink:href="classCGame.html#aa7c80b7185158a0bde186d83f0e8cbb4" target="_top" xlink:title=" ">
<polygon fill="white" stroke="black" points="221,-57.5 221,-76.5 301,-76.5 301,-57.5 221,-57.5"/>
<text text-anchor="middle" x="261" y="-64.5" font-family="Helvetica,sans-Serif" font-size="10.00">CGame::play</text>
</a>
</g>
</g>
<!-- Node3&#45;&gt;Node4 -->
<g id="edge3" class="edge">
<title>Node3&#45;&gt;Node4</title>
<path fill="none" stroke="midnightblue" d="M326.87,-77.77C318.31,-76.34 309.51,-74.88 301.27,-73.52"/>
<polygon fill="midnightblue" stroke="midnightblue" points="326.34,-81.22 336.77,-79.41 327.48,-74.32 326.34,-81.22"/>
</g>
<!-- Node5 -->
<g id="node5" class="node">
<title>Node5</title>
<g id="a_node5"><a xlink:href="main_8cpp.html#a3c04138a5bfe5d72780bb7e82a18e627" target="_top" xlink:title=" ">
<polygon fill="white" stroke="black" points="144,-76.5 144,-95.5 185,-95.5 185,-76.5 144,-76.5"/>
<text text-anchor="middle" x="164.5" y="-83.5" font-family="Helvetica,sans-Serif" font-size="10.00">main</text>
</a>
</g>
</g>
<!-- Node4&#45;&gt;Node5 -->
<g id="edge4" class="edge">
<title>Node4&#45;&gt;Node5</title>
<path fill="none" stroke="midnightblue" d="M210.87,-76.88C201.75,-78.71 192.72,-80.53 185.15,-82.05"/>
<polygon fill="midnightblue" stroke="midnightblue" points="211.63,-80.3 220.74,-74.89 210.25,-73.43 211.63,-80.3"/>
</g>
<!-- Node6 -->
<g id="node6" class="node">
<title>Node6</title>
<g id="a_node6"><a xlink:href="structCMenu.html#a07236cc397b0e4e55ec4f916c3893fbd" target="_top" xlink:title=" ">
<polygon fill="white" stroke="black" points="0,-57.5 0,-76.5 108,-76.5 108,-57.5 0,-57.5"/>
<text text-anchor="middle" x="54" y="-64.5" font-family="Helvetica,sans-Serif" font-size="10.00">CMenu::mainMenu</text>
</a>
</g>
</g>
<!-- Node5&#45;&gt;Node6 -->
<g id="edge5" class="edge">
<title>Node5&#45;&gt;Node6</title>
<path fill="none" stroke="midnightblue" d="M133.76,-80.79C125.89,-79.41 117.17,-77.89 108.46,-76.36"/>
<polygon fill="midnightblue" stroke="midnightblue" points="133.4,-84.28 143.85,-82.56 134.61,-77.39 133.4,-84.28"/>
</g>
<!-- Node6&#45;&gt;Node4 -->
<g id="edge6" class="edge">
<title>Node6&#45;&gt;Node4</title>
<path fill="none" stroke="midnightblue" d="M118.4,-67C151.92,-67 192.01,-67 220.96,-67"/>
<polygon fill="midnightblue" stroke="midnightblue" points="118.22,-63.5 108.22,-67 118.22,-70.5 118.22,-63.5"/>
</g>
<!-- Node8 -->
<g id="node8" class="node">
<title>Node8</title>
<g id="a_node8"><a xlink:href="classCGame.html#a4225411d7a9a23bf0dcbaf63d6a41936" target="_top" xlink:title=" ">
<polygon fill="white" stroke="black" points="340.5,-38.5 340.5,-57.5 414.5,-57.5 414.5,-38.5 340.5,-38.5"/>
<text text-anchor="middle" x="377.5" y="-45.5" font-family="Helvetica,sans-Serif" font-size="10.00">CGame::init</text>
</a>
</g>
</g>
<!-- Node7&#45;&gt;Node8 -->
<g id="edge8" class="edge">
<title>Node7&#45;&gt;Node8</title>
<path fill="none" stroke="midnightblue" d="M443.74,-48C433.67,-48 423.7,-48 414.71,-48"/>
<polygon fill="midnightblue" stroke="midnightblue" points="443.83,-51.5 453.83,-48 443.83,-44.5 443.83,-51.5"/>
</g>
<!-- Node8&#45;&gt;Node4 -->
<g id="edge9" class="edge">
<title>Node8&#45;&gt;Node4</title>
<path fill="none" stroke="midnightblue" d="M330.39,-55.65C320.7,-57.26 310.57,-58.94 301.16,-60.5"/>
<polygon fill="midnightblue" stroke="midnightblue" points="330.98,-59.1 340.27,-54.01 329.83,-52.2 330.98,-59.1"/>
</g>
</g>
</svg>
