<?xml version="1.0" encoding="UTF-8" standalone="no"?>
<!DOCTYPE svg PUBLIC "-//W3C//DTD SVG 1.1//EN"
 "http://www.w3.org/Graphics/SVG/1.1/DTD/svg11.dtd">
<!-- Generated by graphviz version 2.43.0 (0)
 -->
<!-- Title: Map::Map Pages: 1 -->
<svg width="316pt" height="28pt"
 viewBox="0.00 0.00 316.00 28.00" xmlns="http://www.w3.org/2000/svg" xmlns:xlink="http://www.w3.org/1999/xlink">
<g id="graph0" class="graph" transform="scale(1 1) rotate(0) translate(4 24)">
<title>Map::Map</title>
<polygon fill="white" stroke="transparent" points="-4,4 -4,-24 312,-24 312,4 -4,4"/>
<!-- Node1 -->
<g id="node1" class="node">
<title>Node1</title>
<g id="a_node1"><a xlink:title=" ">
<polygon fill="#bfbfbf" stroke="black" points="0,-0.5 0,-19.5 65,-19.5 65,-0.5 0,-0.5"/>
<text text-anchor="middle" x="32.5" y="-7.5" font-family="Helvetica,sans-Serif" font-size="10.00">Map::Map</text>
</a>
</g>
</g>
<!-- Node2 -->
<g id="node2" class="node">
<title>Node2</title>
<g id="a_node2"><a xlink:href="classMap.html#a79a4355510b026646449df1852768c38" target="_top" xlink:title=" ">
<polygon fill="white" stroke="black" points="101,-0.5 101,-19.5 187,-19.5 187,-0.5 101,-0.5"/>
<text text-anchor="middle" x="144" y="-7.5" font-family="Helvetica,sans-Serif" font-size="10.00">Map::readMap</text>
</a>
</g>
</g>
<!-- Node1&#45;&gt;Node2 -->
<g id="edge1" class="edge">
<title>Node1&#45;&gt;Node2</title>
<path fill="none" stroke="midnightblue" d="M65.17,-10C73.16,-10 81.95,-10 90.67,-10"/>
<polygon fill="midnightblue" stroke="midnightblue" points="90.8,-13.5 100.8,-10 90.8,-6.5 90.8,-13.5"/>
</g>
<!-- Node3 -->
<g id="node3" class="node">
<title>Node3</title>
<g id="a_node3"><a xlink:href="logFile_8cpp.html#a7044c91cfa1a776cbf7b08b4af30888d" target="_top" xlink:title=" ">
<polygon fill="white" stroke="black" points="223,-0.5 223,-19.5 308,-19.5 308,-0.5 223,-0.5"/>
<text text-anchor="middle" x="265.5" y="-7.5" font-family="Helvetica,sans-Serif" font-size="10.00">sendToLogFile</text>
</a>
</g>
</g>
<!-- Node2&#45;&gt;Node3 -->
<g id="edge2" class="edge">
<title>Node2&#45;&gt;Node3</title>
<path fill="none" stroke="midnightblue" d="M187.13,-10C195.35,-10 204.05,-10 212.54,-10"/>
<polygon fill="midnightblue" stroke="midnightblue" points="212.75,-13.5 222.75,-10 212.75,-6.5 212.75,-13.5"/>
</g>
</g>
</svg>
