<?xml version="1.0" encoding="UTF-8" standalone="no"?>
<!DOCTYPE svg PUBLIC "-//W3C//DTD SVG 1.1//EN"
 "http://www.w3.org/Graphics/SVG/1.1/DTD/svg11.dtd">
<!-- Generated by graphviz version 2.43.0 (0)
 -->
<!-- Title: CGame::start Pages: 1 -->
<svg width="901pt" height="750pt"
 viewBox="0.00 0.00 901.00 750.00" xmlns="http://www.w3.org/2000/svg" xmlns:xlink="http://www.w3.org/1999/xlink">
<g id="graph0" class="graph" transform="scale(1 1) rotate(0) translate(4 746)">
<title>CGame::start</title>
<polygon fill="white" stroke="transparent" points="-4,4 -4,-746 897,-746 897,4 -4,4"/>
<!-- Node1 -->
<g id="node1" class="node">
<title>Node1</title>
<g id="a_node1"><a xlink:title=" ">
<polygon fill="#bfbfbf" stroke="black" points="0,-399.5 0,-418.5 81,-418.5 81,-399.5 0,-399.5"/>
<text text-anchor="middle" x="40.5" y="-406.5" font-family="Helvetica,sans-Serif" font-size="10.00">CGame::start</text>
</a>
</g>
</g>
<!-- Node2 -->
<g id="node2" class="node">
<title>Node2</title>
<g id="a_node2"><a xlink:href="classCGame.html#ac171bc92e70f80457d200d6498548dd0" target="_top" xlink:title=" ">
<polygon fill="white" stroke="black" points="117,-466.5 117,-485.5 263,-485.5 263,-466.5 117,-466.5"/>
<text text-anchor="middle" x="190" y="-473.5" font-family="Helvetica,sans-Serif" font-size="10.00">CGame::drawAttackerDefs</text>
</a>
</g>
</g>
<!-- Node1&#45;&gt;Node2 -->
<g id="edge1" class="edge">
<title>Node1&#45;&gt;Node2</title>
<path fill="none" stroke="midnightblue" d="M62.63,-418.6C87.83,-430.04 130.11,-449.25 158.76,-462.26"/>
<polygon fill="midnightblue" stroke="midnightblue" points="157.35,-465.47 167.91,-466.42 160.25,-459.1 157.35,-465.47"/>
</g>
<!-- Node4 -->
<g id="node4" class="node">
<title>Node4</title>
<g id="a_node4"><a xlink:href="classCGame.html#a6890a8e74412ff0ced3959e3093e6d84" target="_top" xlink:title=" ">
<polygon fill="white" stroke="black" points="132,-627.5 132,-646.5 248,-646.5 248,-627.5 132,-627.5"/>
<text text-anchor="middle" x="190" y="-634.5" font-family="Helvetica,sans-Serif" font-size="10.00">CGame::drawTowers</text>
</a>
</g>
</g>
<!-- Node1&#45;&gt;Node4 -->
<g id="edge3" class="edge">
<title>Node1&#45;&gt;Node4</title>
<path fill="none" stroke="midnightblue" d="M47.65,-418.51C70.05,-453.13 147.49,-572.84 177.24,-618.82"/>
<polygon fill="midnightblue" stroke="midnightblue" points="174.45,-620.96 182.82,-627.45 180.33,-617.16 174.45,-620.96"/>
</g>
<!-- Node17 -->
<g id="node17" class="node">
<title>Node17</title>
<g id="a_node17"><a xlink:href="classMap.html#a1cefc1b8ed6692667e2019f64acc0f5a" target="_top" xlink:title=" ">
<polygon fill="white" stroke="black" points="146.5,-247.5 146.5,-266.5 233.5,-266.5 233.5,-247.5 146.5,-247.5"/>
<text text-anchor="middle" x="190" y="-254.5" font-family="Helvetica,sans-Serif" font-size="10.00">Map::printMap</text>
</a>
</g>
</g>
<!-- Node1&#45;&gt;Node17 -->
<g id="edge16" class="edge">
<title>Node1&#45;&gt;Node17</title>
<path fill="none" stroke="midnightblue" d="M44.16,-399.22C51.4,-374.52 73.88,-309.21 117,-276 122.84,-271.5 129.66,-268.06 136.73,-265.43"/>
<polygon fill="midnightblue" stroke="midnightblue" points="137.98,-268.71 146.44,-262.33 135.85,-262.04 137.98,-268.71"/>
</g>
<!-- Node18 -->
<g id="node18" class="node">
<title>Node18</title>
<g id="a_node18"><a xlink:href="classCGame.html#abca9e7318a19887770d007a56248fa82" target="_top" xlink:title=" ">
<polygon fill="white" stroke="black" points="142.5,-285.5 142.5,-304.5 237.5,-304.5 237.5,-285.5 142.5,-285.5"/>
<text text-anchor="middle" x="190" y="-292.5" font-family="Helvetica,sans-Serif" font-size="10.00">CGame::resume</text>
</a>
</g>
</g>
<!-- Node1&#45;&gt;Node18 -->
<g id="edge17" class="edge">
<title>Node1&#45;&gt;Node18</title>
<path fill="none" stroke="midnightblue" d="M53.82,-399.48C79.14,-379.91 137.23,-335.01 168.38,-310.94"/>
<polygon fill="midnightblue" stroke="midnightblue" points="170.63,-313.62 176.4,-304.74 166.35,-308.08 170.63,-313.62"/>
</g>
<!-- Node3 -->
<g id="node3" class="node">
<title>Node3</title>
<g id="a_node3"><a xlink:href="classCDefinitions.html#ab8536fabb45ea006662e63bbc414dbef" target="_top" xlink:title=" ">
<polygon fill="white" stroke="black" points="502.5,-513.5 502.5,-532.5 640.5,-532.5 640.5,-513.5 502.5,-513.5"/>
<text text-anchor="middle" x="571.5" y="-520.5" font-family="Helvetica,sans-Serif" font-size="10.00">CDefinitions::getAttacker</text>
</a>
</g>
</g>
<!-- Node2&#45;&gt;Node3 -->
<g id="edge2" class="edge">
<title>Node2&#45;&gt;Node3</title>
<path fill="none" stroke="midnightblue" d="M207.13,-485.54C227.65,-497.08 264.57,-515.83 299,-523 363.19,-536.36 437.77,-535.2 492.51,-531.36"/>
<polygon fill="midnightblue" stroke="midnightblue" points="492.78,-534.85 502.49,-530.61 492.26,-527.87 492.78,-534.85"/>
</g>
<!-- Node5 -->
<g id="node5" class="node">
<title>Node5</title>
<g id="a_node5"><a xlink:href="classEnemy.html#ab8dab466556eb7f9a39697c045864289" target="_top" xlink:title=" ">
<polygon fill="white" stroke="black" points="321,-646.5 321,-665.5 434,-665.5 434,-646.5 321,-646.5"/>
<text text-anchor="middle" x="377.5" y="-653.5" font-family="Helvetica,sans-Serif" font-size="10.00">Enemy::clearTowers</text>
</a>
</g>
</g>
<!-- Node4&#45;&gt;Node5 -->
<g id="edge4" class="edge">
<title>Node4&#45;&gt;Node5</title>
<path fill="none" stroke="midnightblue" d="M248.17,-642.86C267.93,-644.88 290.23,-647.16 310.64,-649.25"/>
<polygon fill="midnightblue" stroke="midnightblue" points="310.49,-652.76 320.79,-650.29 311.2,-645.79 310.49,-652.76"/>
</g>
<!-- Node6 -->
<g id="node6" class="node">
<title>Node6</title>
<g id="a_node6"><a xlink:href="classEnemy.html#a238798e0d954a7ee3b6fafb592151cde" target="_top" xlink:title=" ">
<polygon fill="white" stroke="black" points="317.5,-684.5 317.5,-703.5 437.5,-703.5 437.5,-684.5 317.5,-684.5"/>
<text text-anchor="middle" x="377.5" y="-691.5" font-family="Helvetica,sans-Serif" font-size="10.00">Enemy::createTowers</text>
</a>
</g>
</g>
<!-- Node4&#45;&gt;Node6 -->
<g id="edge5" class="edge">
<title>Node4&#45;&gt;Node6</title>
<path fill="none" stroke="midnightblue" d="M216.08,-646.61C237.83,-654.75 270.23,-666.44 299,-675 307.21,-677.44 315.97,-679.81 324.54,-682.01"/>
<polygon fill="midnightblue" stroke="midnightblue" points="323.92,-685.46 334.47,-684.49 325.62,-678.67 323.92,-685.46"/>
</g>
<!-- Node13 -->
<g id="node13" class="node">
<title>Node13</title>
<g id="a_node13"><a xlink:href="classEnemy.html#ac81638432442d1e4cc2aa0c4ca49f439" target="_top" xlink:title=" ">
<polygon fill="white" stroke="black" points="307.5,-722.5 307.5,-741.5 447.5,-741.5 447.5,-722.5 307.5,-722.5"/>
<text text-anchor="middle" x="377.5" y="-729.5" font-family="Helvetica,sans-Serif" font-size="10.00">Enemy::findEmptySpaces</text>
</a>
</g>
</g>
<!-- Node4&#45;&gt;Node13 -->
<g id="edge12" class="edge">
<title>Node4&#45;&gt;Node13</title>
<path fill="none" stroke="midnightblue" d="M201.8,-646.72C220.33,-662.88 259.97,-695.25 299,-713 304.33,-715.42 310.02,-717.57 315.79,-719.45"/>
<polygon fill="midnightblue" stroke="midnightblue" points="314.97,-722.86 325.55,-722.39 316.99,-716.16 314.97,-722.86"/>
</g>
<!-- Node15 -->
<g id="node15" class="node">
<title>Node15</title>
<g id="a_node15"><a xlink:href="classEnemy.html#ac7a14593067f5d799c2080fadaf33cbb" target="_top" xlink:title=" ">
<polygon fill="white" stroke="black" points="507.5,-456.5 507.5,-475.5 635.5,-475.5 635.5,-456.5 507.5,-456.5"/>
<text text-anchor="middle" x="571.5" y="-463.5" font-family="Helvetica,sans-Serif" font-size="10.00">Enemy::getTowerCount</text>
</a>
</g>
</g>
<!-- Node4&#45;&gt;Node15 -->
<g id="edge14" class="edge">
<title>Node4&#45;&gt;Node15</title>
<path fill="none" stroke="midnightblue" d="M215.04,-627.41C261.91,-608.54 368.57,-564.8 456,-523 472.32,-515.2 475.86,-512.16 492,-504 508.07,-495.87 526.16,-487.09 540.91,-480.02"/>
<polygon fill="midnightblue" stroke="midnightblue" points="542.56,-483.12 550.07,-475.65 539.54,-476.8 542.56,-483.12"/>
</g>
<!-- Node16 -->
<g id="node16" class="node">
<title>Node16</title>
<g id="a_node16"><a xlink:href="classEnemy.html#a95c457b3e58d8c931e06877c6bde6d11" target="_top" xlink:title=" ">
<polygon fill="white" stroke="black" points="321.5,-608.5 321.5,-627.5 433.5,-627.5 433.5,-608.5 321.5,-608.5"/>
<text text-anchor="middle" x="377.5" y="-615.5" font-family="Helvetica,sans-Serif" font-size="10.00">Enemy::printTowers</text>
</a>
</g>
</g>
<!-- Node4&#45;&gt;Node16 -->
<g id="edge15" class="edge">
<title>Node4&#45;&gt;Node16</title>
<path fill="none" stroke="midnightblue" d="M248.17,-631.14C268.11,-629.1 290.64,-626.79 311.2,-624.69"/>
<polygon fill="midnightblue" stroke="midnightblue" points="311.83,-628.14 321.43,-623.64 311.12,-621.18 311.83,-628.14"/>
</g>
<!-- Node7 -->
<g id="node7" class="node">
<title>Node7</title>
<g id="a_node7"><a xlink:href="classMap.html#a4b669f3ae1f41ad70ae8c28910bfa4e8" target="_top" xlink:title=" ">
<polygon fill="white" stroke="black" points="507.5,-684.5 507.5,-703.5 635.5,-703.5 635.5,-684.5 507.5,-684.5"/>
<text text-anchor="middle" x="571.5" y="-691.5" font-family="Helvetica,sans-Serif" font-size="10.00">Map::checkNeighbours</text>
</a>
</g>
</g>
<!-- Node6&#45;&gt;Node7 -->
<g id="edge6" class="edge">
<title>Node6&#45;&gt;Node7</title>
<path fill="none" stroke="midnightblue" d="M437.67,-694C456.44,-694 477.42,-694 497.06,-694"/>
<polygon fill="midnightblue" stroke="midnightblue" points="497.19,-697.5 507.19,-694 497.19,-690.5 497.19,-697.5"/>
</g>
<!-- Node8 -->
<g id="node8" class="node">
<title>Node8</title>
<g id="a_node8"><a xlink:href="classMap.html#adb8bd1312b25de59794e421009b6fa3e" target="_top" xlink:title=" ">
<polygon fill="white" stroke="black" points="528,-646.5 528,-665.5 615,-665.5 615,-646.5 528,-646.5"/>
<text text-anchor="middle" x="571.5" y="-653.5" font-family="Helvetica,sans-Serif" font-size="10.00">Map::setEntity</text>
</a>
</g>
</g>
<!-- Node6&#45;&gt;Node8 -->
<g id="edge7" class="edge">
<title>Node6&#45;&gt;Node8</title>
<path fill="none" stroke="midnightblue" d="M426.95,-684.41C454.65,-678.93 489.42,-672.05 517.81,-666.43"/>
<polygon fill="midnightblue" stroke="midnightblue" points="518.82,-669.8 527.95,-664.42 517.46,-662.93 518.82,-669.8"/>
</g>
<!-- Node9 -->
<g id="node9" class="node">
<title>Node9</title>
<g id="a_node9"><a xlink:href="classEntity.html#ae18a1a6367fa577ecc7e5889679b285c" target="_top" xlink:title=" ">
<polygon fill="white" stroke="black" points="703.5,-665.5 703.5,-684.5 780.5,-684.5 780.5,-665.5 703.5,-665.5"/>
<text text-anchor="middle" x="742" y="-672.5" font-family="Helvetica,sans-Serif" font-size="10.00">Entity::getID</text>
</a>
</g>
</g>
<!-- Node8&#45;&gt;Node9 -->
<g id="edge8" class="edge">
<title>Node8&#45;&gt;Node9</title>
<path fill="none" stroke="midnightblue" d="M615.02,-660.79C638.82,-663.48 668.57,-666.83 693.18,-669.61"/>
<polygon fill="midnightblue" stroke="midnightblue" points="693.05,-673.11 703.38,-670.76 693.83,-666.16 693.05,-673.11"/>
</g>
<!-- Node10 -->
<g id="node10" class="node">
<title>Node10</title>
<g id="a_node10"><a xlink:href="classEntity.html#aa9b4d32a894d4117dddcdff3c46842ae" target="_top" xlink:title=" ">
<polygon fill="white" stroke="black" points="690.5,-627.5 690.5,-646.5 793.5,-646.5 793.5,-627.5 690.5,-627.5"/>
<text text-anchor="middle" x="742" y="-634.5" font-family="Helvetica,sans-Serif" font-size="10.00">Entity::getSymbol</text>
</a>
</g>
</g>
<!-- Node8&#45;&gt;Node10 -->
<g id="edge9" class="edge">
<title>Node8&#45;&gt;Node10</title>
<path fill="none" stroke="midnightblue" d="M615.02,-651.21C634.8,-648.98 658.68,-646.28 680.31,-643.84"/>
<polygon fill="midnightblue" stroke="midnightblue" points="680.85,-647.3 690.39,-642.71 680.07,-640.35 680.85,-647.3"/>
</g>
<!-- Node11 -->
<g id="node11" class="node">
<title>Node11</title>
<g id="a_node11"><a xlink:href="classEntity.html#aaaef5a4ba021755cd32ae39ecbbb38cd" target="_top" xlink:title=" ">
<polygon fill="white" stroke="black" points="697.5,-589.5 697.5,-608.5 786.5,-608.5 786.5,-589.5 697.5,-589.5"/>
<text text-anchor="middle" x="742" y="-596.5" font-family="Helvetica,sans-Serif" font-size="10.00">Entity::getType</text>
</a>
</g>
</g>
<!-- Node8&#45;&gt;Node11 -->
<g id="edge10" class="edge">
<title>Node8&#45;&gt;Node11</title>
<path fill="none" stroke="midnightblue" d="M600.7,-646.46C628.77,-636.97 672.02,-622.33 703.08,-611.83"/>
<polygon fill="midnightblue" stroke="midnightblue" points="704.35,-615.09 712.7,-608.57 702.11,-608.46 704.35,-615.09"/>
</g>
<!-- Node12 -->
<g id="node12" class="node">
<title>Node12</title>
<g id="a_node12"><a xlink:href="classEntity.html#a6171cc57bf9ab1a0d0fe18b7a8acc4ea" target="_top" xlink:title=" ">
<polygon fill="white" stroke="black" points="703,-703.5 703,-722.5 781,-722.5 781,-703.5 703,-703.5"/>
<text text-anchor="middle" x="742" y="-710.5" font-family="Helvetica,sans-Serif" font-size="10.00">Entity::move</text>
</a>
</g>
</g>
<!-- Node8&#45;&gt;Node12 -->
<g id="edge11" class="edge">
<title>Node8&#45;&gt;Node12</title>
<path fill="none" stroke="midnightblue" d="M615.05,-664.27C626.87,-667.11 639.59,-670.68 651,-675 667.92,-681.4 670.42,-686.76 687,-694 691.72,-696.06 696.74,-698.07 701.74,-699.95"/>
<polygon fill="midnightblue" stroke="midnightblue" points="700.67,-703.29 711.27,-703.42 703.07,-696.71 700.67,-703.29"/>
</g>
<!-- Node14 -->
<g id="node14" class="node">
<title>Node14</title>
<g id="a_node14"><a xlink:href="classMap.html#ae4713f8271b2c9fd62184ab0f2342447" target="_top" xlink:title=" ">
<polygon fill="white" stroke="black" points="509,-722.5 509,-741.5 634,-741.5 634,-722.5 509,-722.5"/>
<text text-anchor="middle" x="571.5" y="-729.5" font-family="Helvetica,sans-Serif" font-size="10.00">Map::getEmptySpaces</text>
</a>
</g>
</g>
<!-- Node13&#45;&gt;Node14 -->
<g id="edge13" class="edge">
<title>Node13&#45;&gt;Node14</title>
<path fill="none" stroke="midnightblue" d="M447.55,-732C464.1,-732 481.83,-732 498.52,-732"/>
<polygon fill="midnightblue" stroke="midnightblue" points="498.76,-735.5 508.76,-732 498.76,-728.5 498.76,-735.5"/>
</g>
<!-- Node18&#45;&gt;Node15 -->
<g id="edge25" class="edge">
<title>Node18&#45;&gt;Node15</title>
<path fill="none" stroke="midnightblue" d="M194.47,-304.74C205.02,-332.76 239.72,-413.73 299,-447 361.48,-482.07 445.21,-482.26 503.09,-476.59"/>
<polygon fill="midnightblue" stroke="midnightblue" points="503.65,-480.05 513.22,-475.51 502.91,-473.08 503.65,-480.05"/>
</g>
<!-- Node19 -->
<g id="node19" class="node">
<title>Node19</title>
<g id="a_node19"><a xlink:href="classPlayer.html#a48ee21b77d6b43d234aaac7470b7bc04" target="_top" xlink:title=" ">
<polygon fill="white" stroke="black" points="300.5,-152.5 300.5,-171.5 454.5,-171.5 454.5,-152.5 300.5,-152.5"/>
<text text-anchor="middle" x="377.5" y="-159.5" font-family="Helvetica,sans-Serif" font-size="10.00">Player::addAttackerToQueue</text>
</a>
</g>
</g>
<!-- Node18&#45;&gt;Node19 -->
<g id="edge18" class="edge">
<title>Node18&#45;&gt;Node19</title>
<path fill="none" stroke="midnightblue" d="M237.65,-289.55C246.88,-286.69 255.89,-282.4 263,-276 296.55,-245.78 265.19,-210.92 299,-181 300.77,-179.43 302.65,-177.99 304.61,-176.66"/>
<polygon fill="midnightblue" stroke="midnightblue" points="306.71,-179.5 313.71,-171.55 303.28,-173.4 306.71,-179.5"/>
</g>
<!-- Node20 -->
<g id="node20" class="node">
<title>Node20</title>
<g id="a_node20"><a xlink:href="classCGame.html#aabb1f7e83086241852153c784791fb51" target="_top" xlink:title=" ">
<polygon fill="white" stroke="black" points="301.5,-228.5 301.5,-247.5 453.5,-247.5 453.5,-228.5 301.5,-228.5"/>
<text text-anchor="middle" x="377.5" y="-235.5" font-family="Helvetica,sans-Serif" font-size="10.00">CGame::drawCurrentMoney</text>
</a>
</g>
</g>
<!-- Node18&#45;&gt;Node20 -->
<g id="edge19" class="edge">
<title>Node18&#45;&gt;Node20</title>
<path fill="none" stroke="midnightblue" d="M230.47,-285.44C241.1,-282.64 252.55,-279.4 263,-276 279.33,-270.69 282.79,-267.65 299,-262 310.31,-258.05 322.67,-254.08 334.12,-250.53"/>
<polygon fill="midnightblue" stroke="midnightblue" points="335.37,-253.81 343.9,-247.54 333.32,-247.12 335.37,-253.81"/>
</g>
<!-- Node21 -->
<g id="node21" class="node">
<title>Node21</title>
<g id="a_node21"><a xlink:href="classPlayer.html#a35e23c050e86892c31ff783457f8ec24" target="_top" xlink:title=" ">
<polygon fill="white" stroke="black" points="694,-190.5 694,-209.5 790,-209.5 790,-190.5 694,-190.5"/>
<text text-anchor="middle" x="742" y="-197.5" font-family="Helvetica,sans-Serif" font-size="10.00">Player::getCoins</text>
</a>
</g>
</g>
<!-- Node18&#45;&gt;Node21 -->
<g id="edge24" class="edge">
<title>Node18&#45;&gt;Node21</title>
<path fill="none" stroke="midnightblue" d="M237.63,-293.97C338.78,-291.27 575.31,-282.38 651,-257 677.73,-248.04 704.54,-229.54 721.85,-216.04"/>
<polygon fill="midnightblue" stroke="midnightblue" points="724.38,-218.5 729.99,-209.51 720,-213.04 724.38,-218.5"/>
</g>
<!-- Node23 -->
<g id="node23" class="node">
<title>Node23</title>
<g id="a_node23"><a xlink:href="classPlayer.html#af8808a3a7405e9dfdcd6a3e89c5c3f23" target="_top" xlink:title=" ">
<polygon fill="white" stroke="black" points="299,-38.5 299,-57.5 456,-57.5 456,-38.5 299,-38.5"/>
<text text-anchor="middle" x="377.5" y="-45.5" font-family="Helvetica,sans-Serif" font-size="10.00">Player::emptyAttackerQueue</text>
</a>
</g>
</g>
<!-- Node18&#45;&gt;Node23 -->
<g id="edge22" class="edge">
<title>Node18&#45;&gt;Node23</title>
<path fill="none" stroke="midnightblue" d="M237.51,-290.89C247.08,-287.98 256.28,-283.34 263,-276 326.67,-206.5 234.72,-135.94 299,-67 300.2,-65.71 301.48,-64.5 302.81,-63.37"/>
<polygon fill="midnightblue" stroke="midnightblue" points="304.81,-66.25 311.06,-57.69 300.84,-60.48 304.81,-66.25"/>
</g>
<!-- Node24 -->
<g id="node24" class="node">
<title>Node24</title>
<g id="a_node24"><a xlink:href="classPlayer.html#a600133320cd307c65c50966d300c4412" target="_top" xlink:title=" ">
<polygon fill="white" stroke="black" points="312,-0.5 312,-19.5 443,-19.5 443,-0.5 312,-0.5"/>
<text text-anchor="middle" x="377.5" y="-7.5" font-family="Helvetica,sans-Serif" font-size="10.00">Player::emptyAttackers</text>
</a>
</g>
</g>
<!-- Node18&#45;&gt;Node24 -->
<g id="edge23" class="edge">
<title>Node18&#45;&gt;Node24</title>
<path fill="none" stroke="midnightblue" d="M237.65,-291.01C247.22,-288.1 256.37,-283.43 263,-276 336.88,-193.24 224.4,-111.11 299,-29 300.36,-27.5 301.82,-26.11 303.36,-24.82"/>
<polygon fill="midnightblue" stroke="midnightblue" points="305.36,-27.7 311.68,-19.19 301.44,-21.9 305.36,-27.7"/>
</g>
<!-- Node25 -->
<g id="node25" class="node">
<title>Node25</title>
<g id="a_node25"><a xlink:href="classCGame.html#a07e1a07f124c590afd975c34ec7ab7cd" target="_top" xlink:title=" ">
<polygon fill="white" stroke="black" points="306.5,-494.5 306.5,-513.5 448.5,-513.5 448.5,-494.5 306.5,-494.5"/>
<text text-anchor="middle" x="377.5" y="-501.5" font-family="Helvetica,sans-Serif" font-size="10.00">CGame::highlightAttacker</text>
</a>
</g>
</g>
<!-- Node18&#45;&gt;Node25 -->
<g id="edge26" class="edge">
<title>Node18&#45;&gt;Node25</title>
<path fill="none" stroke="midnightblue" d="M193.87,-304.73C203.4,-335.38 236.98,-430.72 299,-480 304.34,-484.24 310.42,-487.73 316.78,-490.61"/>
<polygon fill="midnightblue" stroke="midnightblue" points="315.66,-493.93 326.25,-494.4 318.27,-487.44 315.66,-493.93"/>
</g>
<!-- Node26 -->
<g id="node26" class="node">
<title>Node26</title>
<g id="a_node26"><a xlink:href="classPlayer.html#a2df57835c101550b9a7a573648138ca4" target="_top" xlink:title=" ">
<polygon fill="white" stroke="black" points="314,-418.5 314,-437.5 441,-437.5 441,-418.5 314,-418.5"/>
<text text-anchor="middle" x="377.5" y="-425.5" font-family="Helvetica,sans-Serif" font-size="10.00">Player::moveAttackers</text>
</a>
</g>
</g>
<!-- Node18&#45;&gt;Node26 -->
<g id="edge28" class="edge">
<title>Node18&#45;&gt;Node26</title>
<path fill="none" stroke="midnightblue" d="M197.25,-304.71C212.06,-326.89 251.62,-381.47 299,-409 302.88,-411.25 307.01,-413.24 311.28,-414.99"/>
<polygon fill="midnightblue" stroke="midnightblue" points="310.19,-418.32 320.78,-418.47 312.59,-411.75 310.19,-418.32"/>
</g>
<!-- Node27 -->
<g id="node27" class="node">
<title>Node27</title>
<g id="a_node27"><a xlink:href="classCGame.html#a6edb2bd6c59fa64f137a19b3aacb49df" target="_top" xlink:title=" ">
<polygon fill="white" stroke="black" points="320,-76.5 320,-95.5 435,-95.5 435,-76.5 320,-76.5"/>
<text text-anchor="middle" x="377.5" y="-83.5" font-family="Helvetica,sans-Serif" font-size="10.00">CGame::pauseMenu</text>
</a>
</g>
</g>
<!-- Node18&#45;&gt;Node27 -->
<g id="edge29" class="edge">
<title>Node18&#45;&gt;Node27</title>
<path fill="none" stroke="midnightblue" d="M237.69,-290.59C247.13,-287.69 256.23,-283.12 263,-276 316.51,-219.71 244.99,-160.81 299,-105 302.43,-101.45 306.41,-98.53 310.71,-96.11"/>
<polygon fill="midnightblue" stroke="midnightblue" points="312.33,-99.22 319.94,-91.85 309.39,-92.87 312.33,-99.22"/>
</g>
<!-- Node32 -->
<g id="node32" class="node">
<title>Node32</title>
<g id="a_node32"><a xlink:href="classCGame.html#a746d639da0897949fda403039daf4bf5" target="_top" xlink:title=" ">
<polygon fill="white" stroke="black" points="310.5,-304.5 310.5,-323.5 444.5,-323.5 444.5,-304.5 310.5,-304.5"/>
<text text-anchor="middle" x="377.5" y="-311.5" font-family="Helvetica,sans-Serif" font-size="10.00">CGame::performAttacks</text>
</a>
</g>
</g>
<!-- Node18&#45;&gt;Node32 -->
<g id="edge35" class="edge">
<title>Node18&#45;&gt;Node32</title>
<path fill="none" stroke="midnightblue" d="M237.81,-299.79C256.8,-301.74 279.24,-304.04 300.46,-306.21"/>
<polygon fill="midnightblue" stroke="midnightblue" points="300.13,-309.7 310.44,-307.23 300.85,-302.73 300.13,-309.7"/>
</g>
<!-- Node37 -->
<g id="node37" class="node">
<title>Node37</title>
<g id="a_node37"><a xlink:href="classPlayer.html#af6bb254e5c2d40bce8900e48acec7317" target="_top" xlink:title=" ">
<polygon fill="white" stroke="black" points="312,-380.5 312,-399.5 443,-399.5 443,-380.5 312,-380.5"/>
<text text-anchor="middle" x="377.5" y="-387.5" font-family="Helvetica,sans-Serif" font-size="10.00">Player::setAttackerType</text>
</a>
</g>
</g>
<!-- Node18&#45;&gt;Node37 -->
<g id="edge41" class="edge">
<title>Node18&#45;&gt;Node37</title>
<path fill="none" stroke="midnightblue" d="M201.8,-304.72C220.33,-320.88 259.97,-353.25 299,-371 304.33,-373.42 310.02,-375.57 315.79,-377.45"/>
<polygon fill="midnightblue" stroke="midnightblue" points="314.97,-380.86 325.55,-380.39 316.99,-374.16 314.97,-380.86"/>
</g>
<!-- Node38 -->
<g id="node38" class="node">
<title>Node38</title>
<g id="a_node38"><a xlink:href="classPlayer.html#aea8b3fb5b8a32d97929f59b13b1bedfa" target="_top" xlink:title=" ">
<polygon fill="white" stroke="black" points="330,-342.5 330,-361.5 425,-361.5 425,-342.5 330,-342.5"/>
<text text-anchor="middle" x="377.5" y="-349.5" font-family="Helvetica,sans-Serif" font-size="10.00">Player::setCoins</text>
</a>
</g>
</g>
<!-- Node18&#45;&gt;Node38 -->
<g id="edge42" class="edge">
<title>Node18&#45;&gt;Node38</title>
<path fill="none" stroke="midnightblue" d="M216.08,-304.61C237.83,-312.75 270.23,-324.44 299,-333 307.21,-335.44 315.97,-337.81 324.54,-340.01"/>
<polygon fill="midnightblue" stroke="midnightblue" points="323.92,-343.46 334.47,-342.49 325.62,-336.67 323.92,-343.46"/>
</g>
<!-- Node39 -->
<g id="node39" class="node">
<title>Node39</title>
<g id="a_node39"><a xlink:href="classPlayer.html#a1e161036e7ec8b770596180923c6acef" target="_top" xlink:title=" ">
<polygon fill="white" stroke="black" points="331.5,-114.5 331.5,-133.5 423.5,-133.5 423.5,-114.5 331.5,-114.5"/>
<text text-anchor="middle" x="377.5" y="-121.5" font-family="Helvetica,sans-Serif" font-size="10.00">Player::setLane</text>
</a>
</g>
</g>
<!-- Node18&#45;&gt;Node39 -->
<g id="edge43" class="edge">
<title>Node18&#45;&gt;Node39</title>
<path fill="none" stroke="midnightblue" d="M237.77,-290.19C247.09,-287.29 256.12,-282.83 263,-276 306.44,-232.84 255.18,-185.78 299,-143 305.34,-136.81 313.34,-132.53 321.79,-129.59"/>
<polygon fill="midnightblue" stroke="midnightblue" points="322.81,-132.94 331.45,-126.8 320.87,-126.21 322.81,-132.94"/>
</g>
<!-- Node42 -->
<g id="node42" class="node">
<title>Node42</title>
<g id="a_node42"><a xlink:href="classPlayer.html#a8d38cdd7f2b7ae64ff095d17dc6e9075" target="_top" xlink:title=" ">
<polygon fill="white" stroke="black" points="315,-190.5 315,-209.5 440,-209.5 440,-190.5 315,-190.5"/>
<text text-anchor="middle" x="377.5" y="-197.5" font-family="Helvetica,sans-Serif" font-size="10.00">Player::spawnAttacker</text>
</a>
</g>
</g>
<!-- Node18&#45;&gt;Node42 -->
<g id="edge46" class="edge">
<title>Node18&#45;&gt;Node42</title>
<path fill="none" stroke="midnightblue" d="M237.86,-288.08C246.76,-285.31 255.6,-281.43 263,-276 287.16,-258.28 274.68,-236.51 299,-219 301.7,-217.06 304.57,-215.31 307.56,-213.74"/>
<polygon fill="midnightblue" stroke="midnightblue" points="309.17,-216.86 316.84,-209.55 306.29,-210.48 309.17,-216.86"/>
</g>
<!-- Node20&#45;&gt;Node21 -->
<g id="edge20" class="edge">
<title>Node20&#45;&gt;Node21</title>
<path fill="none" stroke="midnightblue" d="M429.49,-228.46C448.99,-225.08 471.47,-221.5 492,-219 557.43,-211.04 632.96,-205.84 683.52,-202.92"/>
<polygon fill="midnightblue" stroke="midnightblue" points="683.82,-206.41 693.6,-202.35 683.42,-199.42 683.82,-206.41"/>
</g>
<!-- Node22 -->
<g id="node22" class="node">
<title>Node22</title>
<g id="a_node22"><a xlink:href="classMap.html#a286853d8475bc1bbede582c89e9b1491" target="_top" xlink:title=" ">
<polygon fill="white" stroke="black" points="517,-228.5 517,-247.5 626,-247.5 626,-228.5 517,-228.5"/>
<text text-anchor="middle" x="571.5" y="-235.5" font-family="Helvetica,sans-Serif" font-size="10.00">Map::getMapWidth</text>
</a>
</g>
</g>
<!-- Node20&#45;&gt;Node22 -->
<g id="edge21" class="edge">
<title>Node20&#45;&gt;Node22</title>
<path fill="none" stroke="midnightblue" d="M453.56,-238C471.06,-238 489.55,-238 506.52,-238"/>
<polygon fill="midnightblue" stroke="midnightblue" points="506.88,-241.5 516.88,-238 506.88,-234.5 506.88,-241.5"/>
</g>
<!-- Node25&#45;&gt;Node3 -->
<g id="edge27" class="edge">
<title>Node25&#45;&gt;Node3</title>
<path fill="none" stroke="midnightblue" d="M448.63,-510.94C462.77,-512.34 477.71,-513.82 492.11,-515.24"/>
<polygon fill="midnightblue" stroke="midnightblue" points="492.18,-518.77 502.48,-516.27 492.87,-511.8 492.18,-518.77"/>
</g>
<!-- Node28 -->
<g id="node28" class="node">
<title>Node28</title>
<g id="a_node28"><a xlink:href="classCGame.html#ad0eafae848690ed00fd50af9d7464bb2" target="_top" xlink:title=" ">
<polygon fill="white" stroke="black" points="530.5,-76.5 530.5,-95.5 612.5,-95.5 612.5,-76.5 530.5,-76.5"/>
<text text-anchor="middle" x="571.5" y="-83.5" font-family="Helvetica,sans-Serif" font-size="10.00">CGame::save</text>
</a>
</g>
</g>
<!-- Node27&#45;&gt;Node28 -->
<g id="edge30" class="edge">
<title>Node27&#45;&gt;Node28</title>
<path fill="none" stroke="midnightblue" d="M435.07,-86C462.12,-86 494.22,-86 520.38,-86"/>
<polygon fill="midnightblue" stroke="midnightblue" points="520.46,-89.5 530.46,-86 520.46,-82.5 520.46,-89.5"/>
</g>
<!-- Node28&#45;&gt;Node21 -->
<g id="edge31" class="edge">
<title>Node28&#45;&gt;Node21</title>
<path fill="none" stroke="midnightblue" d="M612.51,-91.08C625.4,-93.9 639.35,-98.25 651,-105 684.72,-124.53 713.65,-160.53 729.08,-182.16"/>
<polygon fill="midnightblue" stroke="midnightblue" points="726.26,-184.25 734.84,-190.47 732.01,-180.26 726.26,-184.25"/>
</g>
<!-- Node29 -->
<g id="node29" class="node">
<title>Node29</title>
<g id="a_node29"><a xlink:href="classPlayer.html#a58da876811cd1848aab2809f5758d315" target="_top" xlink:title=" ">
<polygon fill="white" stroke="black" points="687,-57.5 687,-76.5 797,-76.5 797,-57.5 687,-57.5"/>
<text text-anchor="middle" x="742" y="-64.5" font-family="Helvetica,sans-Serif" font-size="10.00">Player::getFinished</text>
</a>
</g>
</g>
<!-- Node28&#45;&gt;Node29 -->
<g id="edge32" class="edge">
<title>Node28&#45;&gt;Node29</title>
<path fill="none" stroke="midnightblue" d="M612.86,-81.45C632.02,-79.29 655.39,-76.65 676.9,-74.23"/>
<polygon fill="midnightblue" stroke="midnightblue" points="677.41,-77.69 686.95,-73.09 676.62,-70.74 677.41,-77.69"/>
</g>
<!-- Node30 -->
<g id="node30" class="node">
<title>Node30</title>
<g id="a_node30"><a xlink:href="structCMenu.html#ac9ee7892120cb46cd7670bdf99eb9965" target="_top" xlink:title=" ">
<polygon fill="white" stroke="black" points="688.5,-95.5 688.5,-114.5 795.5,-114.5 795.5,-95.5 688.5,-95.5"/>
<text text-anchor="middle" x="742" y="-102.5" font-family="Helvetica,sans-Serif" font-size="10.00">CMenu::saveMenu</text>
</a>
</g>
</g>
<!-- Node28&#45;&gt;Node30 -->
<g id="edge33" class="edge">
<title>Node28&#45;&gt;Node30</title>
<path fill="none" stroke="midnightblue" d="M612.86,-90.55C632.36,-92.75 656.21,-95.44 678.03,-97.9"/>
<polygon fill="midnightblue" stroke="midnightblue" points="677.88,-101.41 688.21,-99.05 678.67,-94.45 677.88,-101.41"/>
</g>
<!-- Node31 -->
<g id="node31" class="node">
<title>Node31</title>
<g id="a_node31"><a xlink:href="Menu_8cpp.html#a991c482871701a7cb19cdbceae408dcb" target="_top" xlink:title=" ">
<polygon fill="white" stroke="black" points="833,-95.5 833,-114.5 893,-114.5 893,-95.5 833,-95.5"/>
<text text-anchor="middle" x="863" y="-102.5" font-family="Helvetica,sans-Serif" font-size="10.00">cleanPos</text>
</a>
</g>
</g>
<!-- Node30&#45;&gt;Node31 -->
<g id="edge34" class="edge">
<title>Node30&#45;&gt;Node31</title>
<path fill="none" stroke="midnightblue" d="M795.54,-105C804.66,-105 814,-105 822.69,-105"/>
<polygon fill="midnightblue" stroke="midnightblue" points="822.9,-108.5 832.9,-105 822.9,-101.5 822.9,-108.5"/>
</g>
<!-- Node32&#45;&gt;Node15 -->
<g id="edge39" class="edge">
<title>Node32&#45;&gt;Node15</title>
<path fill="none" stroke="midnightblue" d="M442.28,-323.66C447.28,-326.14 451.96,-329.21 456,-333 494.78,-369.32 453.17,-410.74 492,-447 493.97,-448.84 496.09,-450.51 498.33,-452.03"/>
<polygon fill="midnightblue" stroke="midnightblue" points="497,-455.3 507.44,-457.15 500.43,-449.2 497,-455.3"/>
</g>
<!-- Node33 -->
<g id="node33" class="node">
<title>Node33</title>
<g id="a_node33"><a xlink:href="classEnemy.html#ae18d396bd69ed23683e95a03b97cfc8c" target="_top" xlink:title=" ">
<polygon fill="white" stroke="black" points="507,-418.5 507,-437.5 636,-437.5 636,-418.5 507,-418.5"/>
<text text-anchor="middle" x="571.5" y="-425.5" font-family="Helvetica,sans-Serif" font-size="10.00">Enemy::damageTowers</text>
</a>
</g>
</g>
<!-- Node32&#45;&gt;Node33 -->
<g id="edge36" class="edge">
<title>Node32&#45;&gt;Node33</title>
<path fill="none" stroke="midnightblue" d="M440.2,-323.58C445.89,-326.06 451.28,-329.15 456,-333 484.96,-356.63 463.01,-385.41 492,-409 494.05,-410.66 496.22,-412.19 498.48,-413.58"/>
<polygon fill="midnightblue" stroke="midnightblue" points="497.13,-416.82 507.61,-418.33 500.36,-410.61 497.13,-416.82"/>
</g>
<!-- Node34 -->
<g id="node34" class="node">
<title>Node34</title>
<g id="a_node34"><a xlink:href="classPlayer.html#a569c871c07f6a047808542fc2492691d" target="_top" xlink:title=" ">
<polygon fill="white" stroke="black" points="502.5,-380.5 502.5,-399.5 640.5,-399.5 640.5,-380.5 502.5,-380.5"/>
<text text-anchor="middle" x="571.5" y="-387.5" font-family="Helvetica,sans-Serif" font-size="10.00">Player::getAttackerCount</text>
</a>
</g>
</g>
<!-- Node32&#45;&gt;Node34 -->
<g id="edge37" class="edge">
<title>Node32&#45;&gt;Node34</title>
<path fill="none" stroke="midnightblue" d="M434.22,-323.53C441.81,-326 449.29,-329.1 456,-333 476.11,-344.69 471.87,-359.34 492,-371 495.86,-373.23 499.97,-375.21 504.21,-376.95"/>
<polygon fill="midnightblue" stroke="midnightblue" points="503.06,-380.25 513.66,-380.4 505.47,-373.68 503.06,-380.25"/>
</g>
<!-- Node35 -->
<g id="node35" class="node">
<title>Node35</title>
<g id="a_node35"><a xlink:href="classEnemy.html#a44e4128d98c48b30045cd11873a132c2" target="_top" xlink:title=" ">
<polygon fill="white" stroke="black" points="492,-342.5 492,-361.5 651,-361.5 651,-342.5 492,-342.5"/>
<text text-anchor="middle" x="571.5" y="-349.5" font-family="Helvetica,sans-Serif" font-size="10.00">Enemy::getAttackersToAttack</text>
</a>
</g>
</g>
<!-- Node32&#45;&gt;Node35 -->
<g id="edge38" class="edge">
<title>Node32&#45;&gt;Node35</title>
<path fill="none" stroke="midnightblue" d="M426.95,-323.59C452.97,-328.74 485.23,-335.12 512.57,-340.53"/>
<polygon fill="midnightblue" stroke="midnightblue" points="511.91,-343.97 522.4,-342.48 513.27,-337.1 511.91,-343.97"/>
</g>
<!-- Node36 -->
<g id="node36" class="node">
<title>Node36</title>
<g id="a_node36"><a xlink:href="classPlayer.html#a040334eb4b145681595cc67168543b5d" target="_top" xlink:title=" ">
<polygon fill="white" stroke="black" points="499,-304.5 499,-323.5 644,-323.5 644,-304.5 499,-304.5"/>
<text text-anchor="middle" x="571.5" y="-311.5" font-family="Helvetica,sans-Serif" font-size="10.00">Player::getTowersToAttack</text>
</a>
</g>
</g>
<!-- Node32&#45;&gt;Node36 -->
<g id="edge40" class="edge">
<title>Node32&#45;&gt;Node36</title>
<path fill="none" stroke="midnightblue" d="M444.58,-314C458.77,-314 473.92,-314 488.63,-314"/>
<polygon fill="midnightblue" stroke="midnightblue" points="488.72,-317.5 498.72,-314 488.72,-310.5 488.72,-317.5"/>
</g>
<!-- Node40 -->
<g id="node40" class="node">
<title>Node40</title>
<g id="a_node40"><a xlink:href="classMap.html#a93e47351a83408edee40bef3198ef101" target="_top" xlink:title=" ">
<polygon fill="white" stroke="black" points="518.5,-114.5 518.5,-133.5 624.5,-133.5 624.5,-114.5 518.5,-114.5"/>
<text text-anchor="middle" x="571.5" y="-121.5" font-family="Helvetica,sans-Serif" font-size="10.00">Map::getLaneByID</text>
</a>
</g>
</g>
<!-- Node39&#45;&gt;Node40 -->
<g id="edge44" class="edge">
<title>Node39&#45;&gt;Node40</title>
<path fill="none" stroke="midnightblue" d="M423.52,-124C448.68,-124 480.42,-124 507.96,-124"/>
<polygon fill="midnightblue" stroke="midnightblue" points="508.29,-127.5 518.29,-124 508.29,-120.5 508.29,-127.5"/>
</g>
<!-- Node41 -->
<g id="node41" class="node">
<title>Node41</title>
<g id="a_node41"><a xlink:href="classMap.html#a4c6de1d62db7a7aca78b01838b8d0a6a" target="_top" xlink:title=" ">
<polygon fill="white" stroke="black" points="516.5,-152.5 516.5,-171.5 626.5,-171.5 626.5,-152.5 516.5,-152.5"/>
<text text-anchor="middle" x="571.5" y="-159.5" font-family="Helvetica,sans-Serif" font-size="10.00">Map::highlightLane</text>
</a>
</g>
</g>
<!-- Node39&#45;&gt;Node41 -->
<g id="edge45" class="edge">
<title>Node39&#45;&gt;Node41</title>
<path fill="none" stroke="midnightblue" d="M423.52,-132.91C450.09,-138.17 484,-144.88 512.55,-150.53"/>
<polygon fill="midnightblue" stroke="midnightblue" points="511.92,-153.97 522.41,-152.48 513.28,-147.11 511.92,-153.97"/>
</g>
</g>
</svg>
