<?xml version="1.0" encoding="UTF-8" standalone="no"?>
<!DOCTYPE svg PUBLIC "-//W3C//DTD SVG 1.1//EN"
 "http://www.w3.org/Graphics/SVG/1.1/DTD/svg11.dtd">
<!-- Generated by graphviz version 2.43.0 (0)
 -->
<!-- Title: Player Pages: 1 -->
<svg width="133pt" height="162pt"
 viewBox="0.00 0.00 132.50 162.00" xmlns="http://www.w3.org/2000/svg" xmlns:xlink="http://www.w3.org/1999/xlink">
<g id="graph0" class="graph" transform="scale(1 1) rotate(0) translate(4 158)">
<title>Player</title>
<polygon fill="white" stroke="transparent" points="-4,4 -4,-158 128.5,-158 128.5,4 -4,4"/>
<!-- Node1 -->
<g id="node1" class="node">
<title>Node1</title>
<g id="a_node1"><a xlink:title=" ">
<polygon fill="#bfbfbf" stroke="black" points="14,-0.5 14,-19.5 61,-19.5 61,-0.5 14,-0.5"/>
<text text-anchor="middle" x="37.5" y="-7.5" font-family="Helvetica,sans-Serif" font-size="10.00">Player</text>
</a>
</g>
</g>
<!-- Node2 -->
<g id="node2" class="node">
<title>Node2</title>
<g id="a_node2"><a xlink:href="classMap.html" target="_top" xlink:title=" ">
<polygon fill="white" stroke="black" points="86.5,-67.5 86.5,-86.5 124.5,-86.5 124.5,-67.5 86.5,-67.5"/>
<text text-anchor="middle" x="105.5" y="-74.5" font-family="Helvetica,sans-Serif" font-size="10.00">Map</text>
</a>
</g>
</g>
<!-- Node2&#45;&gt;Node1 -->
<g id="edge1" class="edge">
<title>Node2&#45;&gt;Node1</title>
<path fill="none" stroke="#9a32cd" stroke-dasharray="5,2" d="M88.76,-60C75.42,-47.25 57.27,-29.89 46.53,-19.63"/>
<polygon fill="#9a32cd" stroke="#9a32cd" points="86.68,-62.85 96.33,-67.23 91.52,-57.79 86.68,-62.85"/>
<text text-anchor="middle" x="91" y="-41" font-family="Helvetica,sans-Serif" font-size="10.00"> _map</text>
</g>
<!-- Node3 -->
<g id="node3" class="node">
<title>Node3</title>
<g id="a_node3"><a xlink:href="classPoint.html" target="_top" xlink:title=" ">
<polygon fill="white" stroke="black" points="0,-134.5 0,-153.5 41,-153.5 41,-134.5 0,-134.5"/>
<text text-anchor="middle" x="20.5" y="-141.5" font-family="Helvetica,sans-Serif" font-size="10.00">Point</text>
</a>
</g>
</g>
<!-- Node3&#45;&gt;Node1 -->
<g id="edge3" class="edge">
<title>Node3&#45;&gt;Node1</title>
<path fill="none" stroke="#9a32cd" stroke-dasharray="5,2" d="M15.82,-124.61C12.58,-109.12 9.51,-86.43 13.5,-67 17.12,-49.39 26.51,-30.47 32.42,-19.75"/>
<polygon fill="#9a32cd" stroke="#9a32cd" points="12.44,-125.53 18.1,-134.48 19.25,-123.94 12.44,-125.53"/>
<text text-anchor="middle" x="45.5" y="-74.5" font-family="Helvetica,sans-Serif" font-size="10.00"> _spawnLane</text>
</g>
<!-- Node3&#45;&gt;Node2 -->
<g id="edge2" class="edge">
<title>Node3&#45;&gt;Node2</title>
<path fill="none" stroke="#9a32cd" stroke-dasharray="5,2" d="M40.03,-128.07C56.8,-115.24 80.41,-97.19 94.22,-86.63"/>
<polygon fill="#9a32cd" stroke="#9a32cd" points="37.78,-125.38 31.96,-134.23 42.03,-130.94 37.78,-125.38"/>
<text text-anchor="middle" x="86" y="-108" font-family="Helvetica,sans-Serif" font-size="10.00"> m_exit</text>
</g>
</g>
</svg>
