<?xml version="1.0" encoding="UTF-8" standalone="no"?>
<!DOCTYPE svg PUBLIC "-//W3C//DTD SVG 1.1//EN"
 "http://www.w3.org/Graphics/SVG/1.1/DTD/svg11.dtd">
<!-- Generated by graphviz version 2.43.0 (0)
 -->
<!-- Title: chargerAttacker Pages: 1 -->
<svg width="136pt" height="286pt"
 viewBox="0.00 0.00 135.50 286.00" xmlns="http://www.w3.org/2000/svg" xmlns:xlink="http://www.w3.org/1999/xlink">
<g id="graph0" class="graph" transform="scale(1 1) rotate(0) translate(4 282)">
<title>chargerAttacker</title>
<polygon fill="white" stroke="transparent" points="-4,4 -4,-282 131.5,-282 131.5,4 -4,4"/>
<!-- Node1 -->
<g id="node1" class="node">
<title>Node1</title>
<g id="a_node1"><a xlink:title=" ">
<polygon fill="#bfbfbf" stroke="black" points="9.5,-0.5 9.5,-19.5 103.5,-19.5 103.5,-0.5 9.5,-0.5"/>
<text text-anchor="middle" x="56.5" y="-7.5" font-family="Helvetica,sans-Serif" font-size="10.00">chargerAttacker</text>
</a>
</g>
</g>
<!-- Node2 -->
<g id="node2" class="node">
<title>Node2</title>
<g id="a_node2"><a xlink:href="classAttacker.html" target="_top" xlink:title=" ">
<polygon fill="white" stroke="black" points="28,-57.5 28,-76.5 85,-76.5 85,-57.5 28,-57.5"/>
<text text-anchor="middle" x="56.5" y="-64.5" font-family="Helvetica,sans-Serif" font-size="10.00">Attacker</text>
</a>
</g>
</g>
<!-- Node2&#45;&gt;Node1 -->
<g id="edge1" class="edge">
<title>Node2&#45;&gt;Node1</title>
<path fill="none" stroke="midnightblue" d="M56.5,-47.12C56.5,-37.82 56.5,-27.06 56.5,-19.71"/>
<polygon fill="midnightblue" stroke="midnightblue" points="53,-47.41 56.5,-57.41 60,-47.41 53,-47.41"/>
</g>
<!-- Node3 -->
<g id="node3" class="node">
<title>Node3</title>
<g id="a_node3"><a xlink:href="classEntity.html" target="_top" xlink:title=" ">
<polygon fill="white" stroke="black" points="0,-124.5 0,-143.5 45,-143.5 45,-124.5 0,-124.5"/>
<text text-anchor="middle" x="22.5" y="-131.5" font-family="Helvetica,sans-Serif" font-size="10.00">Entity</text>
</a>
</g>
</g>
<!-- Node3&#45;&gt;Node2 -->
<g id="edge2" class="edge">
<title>Node3&#45;&gt;Node2</title>
<path fill="none" stroke="midnightblue" d="M31.83,-115.16C38.39,-102.63 46.87,-86.41 51.99,-76.63"/>
<polygon fill="midnightblue" stroke="midnightblue" points="28.62,-113.75 27.09,-124.23 34.82,-117 28.62,-113.75"/>
</g>
<!-- Node4 -->
<g id="node4" class="node">
<title>Node4</title>
<g id="a_node4"><a xlink:href="classMap.html" target="_top" xlink:title=" ">
<polygon fill="white" stroke="black" points="3.5,-191.5 3.5,-210.5 41.5,-210.5 41.5,-191.5 3.5,-191.5"/>
<text text-anchor="middle" x="22.5" y="-198.5" font-family="Helvetica,sans-Serif" font-size="10.00">Map</text>
</a>
</g>
</g>
<!-- Node4&#45;&gt;Node3 -->
<g id="edge3" class="edge">
<title>Node4&#45;&gt;Node3</title>
<path fill="none" stroke="#9a32cd" stroke-dasharray="5,2" d="M22.5,-181.04C22.5,-168.67 22.5,-153.12 22.5,-143.63"/>
<polygon fill="#9a32cd" stroke="#9a32cd" points="19,-181.23 22.5,-191.23 26,-181.23 19,-181.23"/>
<text text-anchor="middle" x="59" y="-165" font-family="Helvetica,sans-Serif" font-size="10.00"> m_sharedMap</text>
</g>
<!-- Node5 -->
<g id="node5" class="node">
<title>Node5</title>
<g id="a_node5"><a xlink:href="classPoint.html" target="_top" xlink:title=" ">
<polygon fill="white" stroke="black" points="2,-258.5 2,-277.5 43,-277.5 43,-258.5 2,-258.5"/>
<text text-anchor="middle" x="22.5" y="-265.5" font-family="Helvetica,sans-Serif" font-size="10.00">Point</text>
</a>
</g>
</g>
<!-- Node5&#45;&gt;Node4 -->
<g id="edge4" class="edge">
<title>Node5&#45;&gt;Node4</title>
<path fill="none" stroke="#9a32cd" stroke-dasharray="5,2" d="M22.5,-248.04C22.5,-235.67 22.5,-220.12 22.5,-210.63"/>
<polygon fill="#9a32cd" stroke="#9a32cd" points="19,-248.23 22.5,-258.23 26,-248.23 19,-248.23"/>
<text text-anchor="middle" x="41" y="-232" font-family="Helvetica,sans-Serif" font-size="10.00"> m_exit</text>
</g>
<!-- Node6 -->
<g id="node6" class="node">
<title>Node6</title>
<g id="a_node6"><a xlink:href="structCEffects.html" target="_top" xlink:title=" ">
<polygon fill="white" stroke="black" points="63.5,-124.5 63.5,-143.5 119.5,-143.5 119.5,-124.5 63.5,-124.5"/>
<text text-anchor="middle" x="91.5" y="-131.5" font-family="Helvetica,sans-Serif" font-size="10.00">CEffects</text>
</a>
</g>
</g>
<!-- Node6&#45;&gt;Node2 -->
<g id="edge5" class="edge">
<title>Node6&#45;&gt;Node2</title>
<path fill="none" stroke="#9a32cd" stroke-dasharray="5,2" d="M81.9,-115.16C75.15,-102.63 66.41,-86.41 61.15,-76.63"/>
<polygon fill="#9a32cd" stroke="#9a32cd" points="78.96,-117.09 86.78,-124.23 85.12,-113.77 78.96,-117.09"/>
<text text-anchor="middle" x="101.5" y="-98" font-family="Helvetica,sans-Serif" font-size="10.00"> m_effects</text>
</g>
</g>
</svg>
