<?xml version="1.0" encoding="UTF-8" standalone="no"?>
<!DOCTYPE svg PUBLIC "-//W3C//DTD SVG 1.1//EN"
 "http://www.w3.org/Graphics/SVG/1.1/DTD/svg11.dtd">
<!-- Generated by graphviz version 2.43.0 (0)
 -->
<!-- Title: Entity Pages: 1 -->
<svg width="104pt" height="162pt"
 viewBox="0.00 0.00 103.50 162.00" xmlns="http://www.w3.org/2000/svg" xmlns:xlink="http://www.w3.org/1999/xlink">
<g id="graph0" class="graph" transform="scale(1 1) rotate(0) translate(4 158)">
<title>Entity</title>
<polygon fill="white" stroke="transparent" points="-4,4 -4,-158 99.5,-158 99.5,4 -4,4"/>
<!-- Node1 -->
<g id="node1" class="node">
<title>Node1</title>
<g id="a_node1"><a xlink:title=" ">
<polygon fill="#bfbfbf" stroke="black" points="0,-0.5 0,-19.5 45,-19.5 45,-0.5 0,-0.5"/>
<text text-anchor="middle" x="22.5" y="-7.5" font-family="Helvetica,sans-Serif" font-size="10.00">Entity</text>
</a>
</g>
</g>
<!-- Node2 -->
<g id="node2" class="node">
<title>Node2</title>
<g id="a_node2"><a xlink:href="classMap.html" target="_top" xlink:title=" ">
<polygon fill="white" stroke="black" points="3.5,-67.5 3.5,-86.5 41.5,-86.5 41.5,-67.5 3.5,-67.5"/>
<text text-anchor="middle" x="22.5" y="-74.5" font-family="Helvetica,sans-Serif" font-size="10.00">Map</text>
</a>
</g>
</g>
<!-- Node2&#45;&gt;Node1 -->
<g id="edge1" class="edge">
<title>Node2&#45;&gt;Node1</title>
<path fill="none" stroke="#9a32cd" stroke-dasharray="5,2" d="M22.5,-57.04C22.5,-44.67 22.5,-29.12 22.5,-19.63"/>
<polygon fill="#9a32cd" stroke="#9a32cd" points="19,-57.23 22.5,-67.23 26,-57.23 19,-57.23"/>
<text text-anchor="middle" x="59" y="-41" font-family="Helvetica,sans-Serif" font-size="10.00"> m_sharedMap</text>
</g>
<!-- Node3 -->
<g id="node3" class="node">
<title>Node3</title>
<g id="a_node3"><a xlink:href="classPoint.html" target="_top" xlink:title=" ">
<polygon fill="white" stroke="black" points="2,-134.5 2,-153.5 43,-153.5 43,-134.5 2,-134.5"/>
<text text-anchor="middle" x="22.5" y="-141.5" font-family="Helvetica,sans-Serif" font-size="10.00">Point</text>
</a>
</g>
</g>
<!-- Node3&#45;&gt;Node2 -->
<g id="edge2" class="edge">
<title>Node3&#45;&gt;Node2</title>
<path fill="none" stroke="#9a32cd" stroke-dasharray="5,2" d="M22.5,-124.04C22.5,-111.67 22.5,-96.12 22.5,-86.63"/>
<polygon fill="#9a32cd" stroke="#9a32cd" points="19,-124.23 22.5,-134.23 26,-124.23 19,-124.23"/>
<text text-anchor="middle" x="41" y="-108" font-family="Helvetica,sans-Serif" font-size="10.00"> m_exit</text>
</g>
</g>
</svg>
