<?xml version="1.0" encoding="UTF-8" standalone="no"?>
<!DOCTYPE svg PUBLIC "-//W3C//DTD SVG 1.1//EN"
 "http://www.w3.org/Graphics/SVG/1.1/DTD/svg11.dtd">
<!-- Generated by graphviz version 2.43.0 (0)
 -->
<!-- Title: fastTower Pages: 1 -->
<svg width="113pt" height="276pt"
 viewBox="0.00 0.00 113.00 276.00" xmlns="http://www.w3.org/2000/svg" xmlns:xlink="http://www.w3.org/1999/xlink">
<g id="graph0" class="graph" transform="scale(1 1) rotate(0) translate(4 272)">
<title>fastTower</title>
<polygon fill="white" stroke="transparent" points="-4,4 -4,-272 109,-272 109,4 -4,4"/>
<!-- Node1 -->
<g id="node1" class="node">
<title>Node1</title>
<g id="a_node1"><a xlink:title=" ">
<polygon fill="#bfbfbf" stroke="black" points="0,-0.5 0,-19.5 64,-19.5 64,-0.5 0,-0.5"/>
<text text-anchor="middle" x="32" y="-7.5" font-family="Helvetica,sans-Serif" font-size="10.00">fastTower</text>
</a>
</g>
</g>
<!-- Node2 -->
<g id="node2" class="node">
<title>Node2</title>
<g id="a_node2"><a xlink:href="classTower.html" target="_top" xlink:title=" ">
<polygon fill="white" stroke="black" points="9.5,-57.5 9.5,-76.5 54.5,-76.5 54.5,-57.5 9.5,-57.5"/>
<text text-anchor="middle" x="32" y="-64.5" font-family="Helvetica,sans-Serif" font-size="10.00">Tower</text>
</a>
</g>
</g>
<!-- Node2&#45;&gt;Node1 -->
<g id="edge1" class="edge">
<title>Node2&#45;&gt;Node1</title>
<path fill="none" stroke="midnightblue" d="M32,-47.12C32,-37.82 32,-27.06 32,-19.71"/>
<polygon fill="midnightblue" stroke="midnightblue" points="28.5,-47.41 32,-57.41 35.5,-47.41 28.5,-47.41"/>
</g>
<!-- Node3 -->
<g id="node3" class="node">
<title>Node3</title>
<g id="a_node3"><a xlink:href="classEntity.html" target="_top" xlink:title=" ">
<polygon fill="white" stroke="black" points="9.5,-114.5 9.5,-133.5 54.5,-133.5 54.5,-114.5 9.5,-114.5"/>
<text text-anchor="middle" x="32" y="-121.5" font-family="Helvetica,sans-Serif" font-size="10.00">Entity</text>
</a>
</g>
</g>
<!-- Node3&#45;&gt;Node2 -->
<g id="edge2" class="edge">
<title>Node3&#45;&gt;Node2</title>
<path fill="none" stroke="midnightblue" d="M32,-104.12C32,-94.82 32,-84.06 32,-76.71"/>
<polygon fill="midnightblue" stroke="midnightblue" points="28.5,-104.41 32,-114.41 35.5,-104.41 28.5,-104.41"/>
</g>
<!-- Node4 -->
<g id="node4" class="node">
<title>Node4</title>
<g id="a_node4"><a xlink:href="classMap.html" target="_top" xlink:title=" ">
<polygon fill="white" stroke="black" points="13,-181.5 13,-200.5 51,-200.5 51,-181.5 13,-181.5"/>
<text text-anchor="middle" x="32" y="-188.5" font-family="Helvetica,sans-Serif" font-size="10.00">Map</text>
</a>
</g>
</g>
<!-- Node4&#45;&gt;Node3 -->
<g id="edge3" class="edge">
<title>Node4&#45;&gt;Node3</title>
<path fill="none" stroke="#9a32cd" stroke-dasharray="5,2" d="M32,-171.04C32,-158.67 32,-143.12 32,-133.63"/>
<polygon fill="#9a32cd" stroke="#9a32cd" points="28.5,-171.23 32,-181.23 35.5,-171.23 28.5,-171.23"/>
<text text-anchor="middle" x="68.5" y="-155" font-family="Helvetica,sans-Serif" font-size="10.00"> m_sharedMap</text>
</g>
<!-- Node5 -->
<g id="node5" class="node">
<title>Node5</title>
<g id="a_node5"><a xlink:href="classPoint.html" target="_top" xlink:title=" ">
<polygon fill="white" stroke="black" points="11.5,-248.5 11.5,-267.5 52.5,-267.5 52.5,-248.5 11.5,-248.5"/>
<text text-anchor="middle" x="32" y="-255.5" font-family="Helvetica,sans-Serif" font-size="10.00">Point</text>
</a>
</g>
</g>
<!-- Node5&#45;&gt;Node4 -->
<g id="edge4" class="edge">
<title>Node5&#45;&gt;Node4</title>
<path fill="none" stroke="#9a32cd" stroke-dasharray="5,2" d="M32,-238.04C32,-225.67 32,-210.12 32,-200.63"/>
<polygon fill="#9a32cd" stroke="#9a32cd" points="28.5,-238.23 32,-248.23 35.5,-238.23 28.5,-238.23"/>
<text text-anchor="middle" x="50.5" y="-222" font-family="Helvetica,sans-Serif" font-size="10.00"> m_exit</text>
</g>
</g>
</svg>
