<?xml version="1.0" encoding="UTF-8" standalone="no"?>
<!DOCTYPE svg PUBLIC "-//W3C//DTD SVG 1.1//EN"
 "http://www.w3.org/Graphics/SVG/1.1/DTD/svg11.dtd">
<!-- Generated by graphviz version 2.43.0 (0)
 -->
<!-- Title: CGame::resume Pages: 1 -->
<svg width="557pt" height="47pt"
 viewBox="0.00 0.00 557.00 47.00" xmlns="http://www.w3.org/2000/svg" xmlns:xlink="http://www.w3.org/1999/xlink">
<g id="graph0" class="graph" transform="scale(1 1) rotate(0) translate(4 43)">
<title>CGame::resume</title>
<polygon fill="white" stroke="transparent" points="-4,4 -4,-43 553,-43 553,4 -4,4"/>
<!-- Node1 -->
<g id="node1" class="node">
<title>Node1</title>
<g id="a_node1"><a xlink:title=" ">
<polygon fill="#bfbfbf" stroke="black" points="454,-0.5 454,-19.5 549,-19.5 549,-0.5 454,-0.5"/>
<text text-anchor="middle" x="501.5" y="-7.5" font-family="Helvetica,sans-Serif" font-size="10.00">CGame::resume</text>
</a>
</g>
</g>
<!-- Node2 -->
<g id="node2" class="node">
<title>Node2</title>
<g id="a_node2"><a xlink:href="classCGame.html#aa70fa8586abbd097b8eb7fb8d540841d" target="_top" xlink:title=" ">
<polygon fill="white" stroke="black" points="337,-0.5 337,-19.5 418,-19.5 418,-0.5 337,-0.5"/>
<text text-anchor="middle" x="377.5" y="-7.5" font-family="Helvetica,sans-Serif" font-size="10.00">CGame::start</text>
</a>
</g>
</g>
<!-- Node1&#45;&gt;Node2 -->
<g id="edge1" class="edge">
<title>Node1&#45;&gt;Node2</title>
<path fill="none" stroke="midnightblue" d="M443.4,-10C434.9,-10 426.29,-10 418.25,-10"/>
<polygon fill="midnightblue" stroke="midnightblue" points="443.68,-13.5 453.68,-10 443.68,-6.5 443.68,-13.5"/>
</g>
<!-- Node3 -->
<g id="node3" class="node">
<title>Node3</title>
<g id="a_node3"><a xlink:href="classCGame.html#aa7c80b7185158a0bde186d83f0e8cbb4" target="_top" xlink:title=" ">
<polygon fill="white" stroke="black" points="221,-0.5 221,-19.5 301,-19.5 301,-0.5 221,-0.5"/>
<text text-anchor="middle" x="261" y="-7.5" font-family="Helvetica,sans-Serif" font-size="10.00">CGame::play</text>
</a>
</g>
</g>
<!-- Node2&#45;&gt;Node3 -->
<g id="edge2" class="edge">
<title>Node2&#45;&gt;Node3</title>
<path fill="none" stroke="midnightblue" d="M326.59,-10C318.12,-10 309.42,-10 301.27,-10"/>
<polygon fill="midnightblue" stroke="midnightblue" points="326.77,-13.5 336.77,-10 326.77,-6.5 326.77,-13.5"/>
</g>
<!-- Node4 -->
<g id="node4" class="node">
<title>Node4</title>
<g id="a_node4"><a xlink:href="main_8cpp.html#a3c04138a5bfe5d72780bb7e82a18e627" target="_top" xlink:title=" ">
<polygon fill="white" stroke="black" points="144,-19.5 144,-38.5 185,-38.5 185,-19.5 144,-19.5"/>
<text text-anchor="middle" x="164.5" y="-26.5" font-family="Helvetica,sans-Serif" font-size="10.00">main</text>
</a>
</g>
</g>
<!-- Node3&#45;&gt;Node4 -->
<g id="edge3" class="edge">
<title>Node3&#45;&gt;Node4</title>
<path fill="none" stroke="midnightblue" d="M210.87,-19.88C201.75,-21.71 192.72,-23.53 185.15,-25.05"/>
<polygon fill="midnightblue" stroke="midnightblue" points="211.63,-23.3 220.74,-17.89 210.25,-16.43 211.63,-23.3"/>
</g>
<!-- Node5 -->
<g id="node5" class="node">
<title>Node5</title>
<g id="a_node5"><a xlink:href="structCMenu.html#a07236cc397b0e4e55ec4f916c3893fbd" target="_top" xlink:title=" ">
<polygon fill="white" stroke="black" points="0,-0.5 0,-19.5 108,-19.5 108,-0.5 0,-0.5"/>
<text text-anchor="middle" x="54" y="-7.5" font-family="Helvetica,sans-Serif" font-size="10.00">CMenu::mainMenu</text>
</a>
</g>
</g>
<!-- Node4&#45;&gt;Node5 -->
<g id="edge4" class="edge">
<title>Node4&#45;&gt;Node5</title>
<path fill="none" stroke="midnightblue" d="M133.76,-23.79C125.89,-22.41 117.17,-20.89 108.46,-19.36"/>
<polygon fill="midnightblue" stroke="midnightblue" points="133.4,-27.28 143.85,-25.56 134.61,-20.39 133.4,-27.28"/>
</g>
<!-- Node5&#45;&gt;Node3 -->
<g id="edge5" class="edge">
<title>Node5&#45;&gt;Node3</title>
<path fill="none" stroke="midnightblue" d="M118.4,-10C151.92,-10 192.01,-10 220.96,-10"/>
<polygon fill="midnightblue" stroke="midnightblue" points="118.22,-6.5 108.22,-10 118.22,-13.5 118.22,-6.5"/>
</g>
</g>
</svg>
