<?xml version="1.0" encoding="UTF-8" standalone="no"?>
<!DOCTYPE svg PUBLIC "-//W3C//DTD SVG 1.1//EN"
 "http://www.w3.org/Graphics/SVG/1.1/DTD/svg11.dtd">
<!-- Generated by graphviz version 2.43.0 (0)
 -->
<!-- Title: Map::printMap Pages: 1 -->
<svg width="713pt" height="85pt"
 viewBox="0.00 0.00 713.00 85.00" xmlns="http://www.w3.org/2000/svg" xmlns:xlink="http://www.w3.org/1999/xlink">
<g id="graph0" class="graph" transform="scale(1 1) rotate(0) translate(4 81)">
<title>Map::printMap</title>
<polygon fill="white" stroke="transparent" points="-4,4 -4,-81 709,-81 709,4 -4,4"/>
<!-- Node1 -->
<g id="node1" class="node">
<title>Node1</title>
<g id="a_node1"><a xlink:title=" ">
<polygon fill="#bfbfbf" stroke="black" points="618,-19.5 618,-38.5 705,-38.5 705,-19.5 618,-19.5"/>
<text text-anchor="middle" x="661.5" y="-26.5" font-family="Helvetica,sans-Serif" font-size="10.00">Map::printMap</text>
</a>
</g>
</g>
<!-- Node2 -->
<g id="node2" class="node">
<title>Node2</title>
<g id="a_node2"><a xlink:href="classCGame.html#afbbb4f8d05f753b7c2d6a0d91ca96a9b" target="_top" xlink:title=" ">
<polygon fill="white" stroke="black" points="454,-57.5 454,-76.5 582,-76.5 582,-57.5 454,-57.5"/>
<text text-anchor="middle" x="518" y="-64.5" font-family="Helvetica,sans-Serif" font-size="10.00">CGame::loadFromSave</text>
</a>
</g>
</g>
<!-- Node1&#45;&gt;Node2 -->
<g id="edge1" class="edge">
<title>Node1&#45;&gt;Node2</title>
<path fill="none" stroke="midnightblue" d="M614.9,-41.25C595.39,-46.48 572.96,-52.51 554.7,-57.41"/>
<polygon fill="midnightblue" stroke="midnightblue" points="616.04,-44.56 624.79,-38.59 614.23,-37.8 616.04,-44.56"/>
</g>
<!-- Node7 -->
<g id="node7" class="node">
<title>Node7</title>
<g id="a_node7"><a xlink:href="classMap.html#af5b5492b49e9d1aaa54e586d1203030f" target="_top" xlink:title=" ">
<polygon fill="white" stroke="black" points="469,-19.5 469,-38.5 567,-38.5 567,-19.5 469,-19.5"/>
<text text-anchor="middle" x="518" y="-26.5" font-family="Helvetica,sans-Serif" font-size="10.00">Map::redrawMap</text>
</a>
</g>
</g>
<!-- Node1&#45;&gt;Node7 -->
<g id="edge7" class="edge">
<title>Node1&#45;&gt;Node7</title>
<path fill="none" stroke="midnightblue" d="M607.31,-29C594.12,-29 580.07,-29 567.14,-29"/>
<polygon fill="midnightblue" stroke="midnightblue" points="607.66,-32.5 617.66,-29 607.66,-25.5 607.66,-32.5"/>
</g>
<!-- Node8 -->
<g id="node8" class="node">
<title>Node8</title>
<g id="a_node8"><a xlink:href="classCGame.html#aa70fa8586abbd097b8eb7fb8d540841d" target="_top" xlink:title=" ">
<polygon fill="white" stroke="black" points="337,-0.5 337,-19.5 418,-19.5 418,-0.5 337,-0.5"/>
<text text-anchor="middle" x="377.5" y="-7.5" font-family="Helvetica,sans-Serif" font-size="10.00">CGame::start</text>
</a>
</g>
</g>
<!-- Node1&#45;&gt;Node8 -->
<g id="edge8" class="edge">
<title>Node1&#45;&gt;Node8</title>
<path fill="none" stroke="midnightblue" d="M618.72,-16.94C606.95,-14.08 594.06,-11.44 582,-10 525.34,-3.24 459.18,-5.01 418.06,-7.24"/>
<polygon fill="midnightblue" stroke="midnightblue" points="618.18,-20.42 628.73,-19.49 619.9,-13.63 618.18,-20.42"/>
</g>
<!-- Node3 -->
<g id="node3" class="node">
<title>Node3</title>
<g id="a_node3"><a xlink:href="classCGame.html#a4225411d7a9a23bf0dcbaf63d6a41936" target="_top" xlink:title=" ">
<polygon fill="white" stroke="black" points="340.5,-47.5 340.5,-66.5 414.5,-66.5 414.5,-47.5 340.5,-47.5"/>
<text text-anchor="middle" x="377.5" y="-54.5" font-family="Helvetica,sans-Serif" font-size="10.00">CGame::init</text>
</a>
</g>
</g>
<!-- Node2&#45;&gt;Node3 -->
<g id="edge2" class="edge">
<title>Node2&#45;&gt;Node3</title>
<path fill="none" stroke="midnightblue" d="M443.74,-61.71C433.67,-60.98 423.7,-60.26 414.71,-59.61"/>
<polygon fill="midnightblue" stroke="midnightblue" points="443.6,-65.21 453.83,-62.44 444.11,-58.23 443.6,-65.21"/>
</g>
<!-- Node4 -->
<g id="node4" class="node">
<title>Node4</title>
<g id="a_node4"><a xlink:href="classCGame.html#aa7c80b7185158a0bde186d83f0e8cbb4" target="_top" xlink:title=" ">
<polygon fill="white" stroke="black" points="221,-19.5 221,-38.5 301,-38.5 301,-19.5 221,-19.5"/>
<text text-anchor="middle" x="261" y="-26.5" font-family="Helvetica,sans-Serif" font-size="10.00">CGame::play</text>
</a>
</g>
</g>
<!-- Node3&#45;&gt;Node4 -->
<g id="edge3" class="edge">
<title>Node3&#45;&gt;Node4</title>
<path fill="none" stroke="midnightblue" d="M330.39,-45.72C320.7,-43.35 310.57,-40.88 301.16,-38.58"/>
<polygon fill="midnightblue" stroke="midnightblue" points="329.73,-49.16 340.27,-48.14 331.39,-42.37 329.73,-49.16"/>
</g>
<!-- Node5 -->
<g id="node5" class="node">
<title>Node5</title>
<g id="a_node5"><a xlink:href="main_8cpp.html#a3c04138a5bfe5d72780bb7e82a18e627" target="_top" xlink:title=" ">
<polygon fill="white" stroke="black" points="144,-38.5 144,-57.5 185,-57.5 185,-38.5 144,-38.5"/>
<text text-anchor="middle" x="164.5" y="-45.5" font-family="Helvetica,sans-Serif" font-size="10.00">main</text>
</a>
</g>
</g>
<!-- Node4&#45;&gt;Node5 -->
<g id="edge4" class="edge">
<title>Node4&#45;&gt;Node5</title>
<path fill="none" stroke="midnightblue" d="M210.87,-38.88C201.75,-40.71 192.72,-42.53 185.15,-44.05"/>
<polygon fill="midnightblue" stroke="midnightblue" points="211.63,-42.3 220.74,-36.89 210.25,-35.43 211.63,-42.3"/>
</g>
<!-- Node6 -->
<g id="node6" class="node">
<title>Node6</title>
<g id="a_node6"><a xlink:href="structCMenu.html#a07236cc397b0e4e55ec4f916c3893fbd" target="_top" xlink:title=" ">
<polygon fill="white" stroke="black" points="0,-19.5 0,-38.5 108,-38.5 108,-19.5 0,-19.5"/>
<text text-anchor="middle" x="54" y="-26.5" font-family="Helvetica,sans-Serif" font-size="10.00">CMenu::mainMenu</text>
</a>
</g>
</g>
<!-- Node5&#45;&gt;Node6 -->
<g id="edge5" class="edge">
<title>Node5&#45;&gt;Node6</title>
<path fill="none" stroke="midnightblue" d="M133.76,-42.79C125.89,-41.41 117.17,-39.89 108.46,-38.36"/>
<polygon fill="midnightblue" stroke="midnightblue" points="133.4,-46.28 143.85,-44.56 134.61,-39.39 133.4,-46.28"/>
</g>
<!-- Node6&#45;&gt;Node4 -->
<g id="edge6" class="edge">
<title>Node6&#45;&gt;Node4</title>
<path fill="none" stroke="midnightblue" d="M118.4,-29C151.92,-29 192.01,-29 220.96,-29"/>
<polygon fill="midnightblue" stroke="midnightblue" points="118.22,-25.5 108.22,-29 118.22,-32.5 118.22,-25.5"/>
</g>
<!-- Node8&#45;&gt;Node4 -->
<g id="edge9" class="edge">
<title>Node8&#45;&gt;Node4</title>
<path fill="none" stroke="midnightblue" d="M326.87,-18.23C318.31,-19.66 309.51,-21.12 301.27,-22.48"/>
<polygon fill="midnightblue" stroke="midnightblue" points="327.48,-21.68 336.77,-16.59 326.34,-14.78 327.48,-21.68"/>
</g>
</g>
</svg>
