<?xml version="1.0" encoding="UTF-8" standalone="no"?>
<!DOCTYPE svg PUBLIC "-//W3C//DTD SVG 1.1//EN"
 "http://www.w3.org/Graphics/SVG/1.1/DTD/svg11.dtd">
<!-- Generated by graphviz version 2.43.0 (0)
 -->
<!-- Title: CGame::resume Pages: 1 -->
<svg width="733pt" height="522pt"
 viewBox="0.00 0.00 733.00 522.00" xmlns="http://www.w3.org/2000/svg" xmlns:xlink="http://www.w3.org/1999/xlink">
<g id="graph0" class="graph" transform="scale(1 1) rotate(0) translate(4 518)">
<title>CGame::resume</title>
<polygon fill="white" stroke="transparent" points="-4,4 -4,-518 729,-518 729,4 -4,4"/>
<!-- Node1 -->
<g id="node1" class="node">
<title>Node1</title>
<g id="a_node1"><a xlink:title=" ">
<polygon fill="#bfbfbf" stroke="black" points="0,-247.5 0,-266.5 95,-266.5 95,-247.5 0,-247.5"/>
<text text-anchor="middle" x="47.5" y="-254.5" font-family="Helvetica,sans-Serif" font-size="10.00">CGame::resume</text>
</a>
</g>
</g>
<!-- Node2 -->
<g id="node2" class="node">
<title>Node2</title>
<g id="a_node2"><a xlink:href="classPlayer.html#a48ee21b77d6b43d234aaac7470b7bc04" target="_top" xlink:title=" ">
<polygon fill="white" stroke="black" points="132.5,-494.5 132.5,-513.5 286.5,-513.5 286.5,-494.5 132.5,-494.5"/>
<text text-anchor="middle" x="209.5" y="-501.5" font-family="Helvetica,sans-Serif" font-size="10.00">Player::addAttackerToQueue</text>
</a>
</g>
</g>
<!-- Node1&#45;&gt;Node2 -->
<g id="edge1" class="edge">
<title>Node1&#45;&gt;Node2</title>
<path fill="none" stroke="midnightblue" d="M48.9,-266.53C50.91,-301.46 62.74,-423.67 131,-485 132.72,-486.54 134.54,-487.96 136.44,-489.28"/>
<polygon fill="midnightblue" stroke="midnightblue" points="134.85,-492.4 145.27,-494.34 138.34,-486.33 134.85,-492.4"/>
</g>
<!-- Node3 -->
<g id="node3" class="node">
<title>Node3</title>
<g id="a_node3"><a xlink:href="classCGame.html#aabb1f7e83086241852153c784791fb51" target="_top" xlink:title=" ">
<polygon fill="white" stroke="black" points="133.5,-456.5 133.5,-475.5 285.5,-475.5 285.5,-456.5 133.5,-456.5"/>
<text text-anchor="middle" x="209.5" y="-463.5" font-family="Helvetica,sans-Serif" font-size="10.00">CGame::drawCurrentMoney</text>
</a>
</g>
</g>
<!-- Node1&#45;&gt;Node3 -->
<g id="edge2" class="edge">
<title>Node1&#45;&gt;Node3</title>
<path fill="none" stroke="midnightblue" d="M49.96,-266.7C55.07,-297.23 74.97,-392.28 131,-442 135.7,-446.17 141.12,-449.62 146.86,-452.47"/>
<polygon fill="midnightblue" stroke="midnightblue" points="145.52,-455.7 156.09,-456.47 148.31,-449.28 145.52,-455.7"/>
</g>
<!-- Node4 -->
<g id="node4" class="node">
<title>Node4</title>
<g id="a_node4"><a xlink:href="classPlayer.html#a35e23c050e86892c31ff783457f8ec24" target="_top" xlink:title=" ">
<polygon fill="white" stroke="black" points="526,-418.5 526,-437.5 622,-437.5 622,-418.5 526,-418.5"/>
<text text-anchor="middle" x="574" y="-425.5" font-family="Helvetica,sans-Serif" font-size="10.00">Player::getCoins</text>
</a>
</g>
</g>
<!-- Node1&#45;&gt;Node4 -->
<g id="edge7" class="edge">
<title>Node1&#45;&gt;Node4</title>
<path fill="none" stroke="midnightblue" d="M50.35,-266.72C56.27,-294.71 77.52,-375.6 131,-409 193.57,-448.08 411.13,-439.21 515.83,-432.34"/>
<polygon fill="midnightblue" stroke="midnightblue" points="516.16,-435.83 525.91,-431.67 515.69,-428.84 516.16,-435.83"/>
</g>
<!-- Node6 -->
<g id="node6" class="node">
<title>Node6</title>
<g id="a_node6"><a xlink:href="classPlayer.html#af8808a3a7405e9dfdcd6a3e89c5c3f23" target="_top" xlink:title=" ">
<polygon fill="white" stroke="black" points="131,-380.5 131,-399.5 288,-399.5 288,-380.5 131,-380.5"/>
<text text-anchor="middle" x="209.5" y="-387.5" font-family="Helvetica,sans-Serif" font-size="10.00">Player::emptyAttackerQueue</text>
</a>
</g>
</g>
<!-- Node1&#45;&gt;Node6 -->
<g id="edge5" class="edge">
<title>Node1&#45;&gt;Node6</title>
<path fill="none" stroke="midnightblue" d="M52.65,-266.73C62.64,-288.94 90.26,-343.58 131,-371 133.96,-372.99 137.12,-374.78 140.39,-376.38"/>
<polygon fill="midnightblue" stroke="midnightblue" points="139.3,-379.72 149.88,-380.4 142.04,-373.28 139.3,-379.72"/>
</g>
<!-- Node7 -->
<g id="node7" class="node">
<title>Node7</title>
<g id="a_node7"><a xlink:href="classPlayer.html#a600133320cd307c65c50966d300c4412" target="_top" xlink:title=" ">
<polygon fill="white" stroke="black" points="144,-342.5 144,-361.5 275,-361.5 275,-342.5 144,-342.5"/>
<text text-anchor="middle" x="209.5" y="-349.5" font-family="Helvetica,sans-Serif" font-size="10.00">Player::emptyAttackers</text>
</a>
</g>
</g>
<!-- Node1&#45;&gt;Node7 -->
<g id="edge6" class="edge">
<title>Node1&#45;&gt;Node7</title>
<path fill="none" stroke="midnightblue" d="M56.04,-266.57C69.37,-282.82 98.74,-315.69 131,-333 135.28,-335.29 139.83,-337.32 144.51,-339.1"/>
<polygon fill="midnightblue" stroke="midnightblue" points="143.65,-342.5 154.25,-342.43 145.92,-335.88 143.65,-342.5"/>
</g>
<!-- Node8 -->
<g id="node8" class="node">
<title>Node8</title>
<g id="a_node8"><a xlink:href="classEnemy.html#ac7a14593067f5d799c2080fadaf33cbb" target="_top" xlink:title=" ">
<polygon fill="white" stroke="black" points="339.5,-228.5 339.5,-247.5 467.5,-247.5 467.5,-228.5 339.5,-228.5"/>
<text text-anchor="middle" x="403.5" y="-235.5" font-family="Helvetica,sans-Serif" font-size="10.00">Enemy::getTowerCount</text>
</a>
</g>
</g>
<!-- Node1&#45;&gt;Node8 -->
<g id="edge8" class="edge">
<title>Node1&#45;&gt;Node8</title>
<path fill="none" stroke="midnightblue" d="M63.91,-247.43C79.96,-238.07 106.2,-224.44 131,-219 207.69,-202.19 299.2,-215.2 353.99,-226.41"/>
<polygon fill="midnightblue" stroke="midnightblue" points="353.27,-229.84 363.78,-228.47 354.72,-222.99 353.27,-229.84"/>
</g>
<!-- Node9 -->
<g id="node9" class="node">
<title>Node9</title>
<g id="a_node9"><a xlink:href="classCGame.html#a07e1a07f124c590afd975c34ec7ab7cd" target="_top" xlink:title=" ">
<polygon fill="white" stroke="black" points="138.5,-304.5 138.5,-323.5 280.5,-323.5 280.5,-304.5 138.5,-304.5"/>
<text text-anchor="middle" x="209.5" y="-311.5" font-family="Helvetica,sans-Serif" font-size="10.00">CGame::highlightAttacker</text>
</a>
</g>
</g>
<!-- Node1&#45;&gt;Node9 -->
<g id="edge9" class="edge">
<title>Node1&#45;&gt;Node9</title>
<path fill="none" stroke="midnightblue" d="M66.76,-266.64C83.2,-275.02 108.22,-287.04 131,-295 138.26,-297.54 146.03,-299.87 153.73,-301.96"/>
<polygon fill="midnightblue" stroke="midnightblue" points="152.84,-305.35 163.4,-304.49 154.61,-298.58 152.84,-305.35"/>
</g>
<!-- Node11 -->
<g id="node11" class="node">
<title>Node11</title>
<g id="a_node11"><a xlink:href="classPlayer.html#a2df57835c101550b9a7a573648138ca4" target="_top" xlink:title=" ">
<polygon fill="white" stroke="black" points="146,-228.5 146,-247.5 273,-247.5 273,-228.5 146,-228.5"/>
<text text-anchor="middle" x="209.5" y="-235.5" font-family="Helvetica,sans-Serif" font-size="10.00">Player::moveAttackers</text>
</a>
</g>
</g>
<!-- Node1&#45;&gt;Node11 -->
<g id="edge11" class="edge">
<title>Node1&#45;&gt;Node11</title>
<path fill="none" stroke="midnightblue" d="M95.21,-251.45C107.98,-249.94 122.12,-248.26 135.96,-246.61"/>
<polygon fill="midnightblue" stroke="midnightblue" points="136.45,-250.08 145.96,-245.43 135.62,-243.13 136.45,-250.08"/>
</g>
<!-- Node12 -->
<g id="node12" class="node">
<title>Node12</title>
<g id="a_node12"><a xlink:href="classCGame.html#a6edb2bd6c59fa64f137a19b3aacb49df" target="_top" xlink:title=" ">
<polygon fill="white" stroke="black" points="152,-266.5 152,-285.5 267,-285.5 267,-266.5 152,-266.5"/>
<text text-anchor="middle" x="209.5" y="-273.5" font-family="Helvetica,sans-Serif" font-size="10.00">CGame::pauseMenu</text>
</a>
</g>
</g>
<!-- Node1&#45;&gt;Node12 -->
<g id="edge12" class="edge">
<title>Node1&#45;&gt;Node12</title>
<path fill="none" stroke="midnightblue" d="M95.21,-262.55C109.74,-264.27 126.05,-266.21 141.67,-268.06"/>
<polygon fill="midnightblue" stroke="midnightblue" points="141.47,-271.56 151.81,-269.27 142.29,-264.61 141.47,-271.56"/>
</g>
<!-- Node17 -->
<g id="node17" class="node">
<title>Node17</title>
<g id="a_node17"><a xlink:href="classCGame.html#a746d639da0897949fda403039daf4bf5" target="_top" xlink:title=" ">
<polygon fill="white" stroke="black" points="142.5,-152.5 142.5,-171.5 276.5,-171.5 276.5,-152.5 142.5,-152.5"/>
<text text-anchor="middle" x="209.5" y="-159.5" font-family="Helvetica,sans-Serif" font-size="10.00">CGame::performAttacks</text>
</a>
</g>
</g>
<!-- Node1&#45;&gt;Node17 -->
<g id="edge18" class="edge">
<title>Node1&#45;&gt;Node17</title>
<path fill="none" stroke="midnightblue" d="M57.19,-247.31C71.27,-232.15 100.58,-202.84 131,-186 139.05,-181.54 148.05,-177.8 156.98,-174.69"/>
<polygon fill="midnightblue" stroke="midnightblue" points="158.16,-177.98 166.59,-171.57 156,-171.33 158.16,-177.98"/>
</g>
<!-- Node22 -->
<g id="node22" class="node">
<title>Node22</title>
<g id="a_node22"><a xlink:href="classPlayer.html#af6bb254e5c2d40bce8900e48acec7317" target="_top" xlink:title=" ">
<polygon fill="white" stroke="black" points="144,-114.5 144,-133.5 275,-133.5 275,-114.5 144,-114.5"/>
<text text-anchor="middle" x="209.5" y="-121.5" font-family="Helvetica,sans-Serif" font-size="10.00">Player::setAttackerType</text>
</a>
</g>
</g>
<!-- Node1&#45;&gt;Node22 -->
<g id="edge24" class="edge">
<title>Node1&#45;&gt;Node22</title>
<path fill="none" stroke="midnightblue" d="M52.65,-247.27C62.64,-225.06 90.26,-170.42 131,-143 133.96,-141.01 137.12,-139.22 140.39,-137.62"/>
<polygon fill="midnightblue" stroke="midnightblue" points="142.04,-140.72 149.88,-133.6 139.3,-134.28 142.04,-140.72"/>
</g>
<!-- Node23 -->
<g id="node23" class="node">
<title>Node23</title>
<g id="a_node23"><a xlink:href="classPlayer.html#aea8b3fb5b8a32d97929f59b13b1bedfa" target="_top" xlink:title=" ">
<polygon fill="white" stroke="black" points="162,-76.5 162,-95.5 257,-95.5 257,-76.5 162,-76.5"/>
<text text-anchor="middle" x="209.5" y="-83.5" font-family="Helvetica,sans-Serif" font-size="10.00">Player::setCoins</text>
</a>
</g>
</g>
<!-- Node1&#45;&gt;Node23 -->
<g id="edge25" class="edge">
<title>Node1&#45;&gt;Node23</title>
<path fill="none" stroke="midnightblue" d="M50.8,-247.39C57.77,-220.38 81.31,-143.32 131,-105 137.25,-100.18 144.55,-96.57 152.13,-93.86"/>
<polygon fill="midnightblue" stroke="midnightblue" points="153.29,-97.17 161.82,-90.89 151.24,-90.47 153.29,-97.17"/>
</g>
<!-- Node24 -->
<g id="node24" class="node">
<title>Node24</title>
<g id="a_node24"><a xlink:href="classPlayer.html#a1e161036e7ec8b770596180923c6acef" target="_top" xlink:title=" ">
<polygon fill="white" stroke="black" points="163.5,-38.5 163.5,-57.5 255.5,-57.5 255.5,-38.5 163.5,-38.5"/>
<text text-anchor="middle" x="209.5" y="-45.5" font-family="Helvetica,sans-Serif" font-size="10.00">Player::setLane</text>
</a>
</g>
</g>
<!-- Node1&#45;&gt;Node24 -->
<g id="edge26" class="edge">
<title>Node1&#45;&gt;Node24</title>
<path fill="none" stroke="midnightblue" d="M49.68,-247.34C54.05,-216.05 72.18,-116.62 131,-67 137.55,-61.48 145.45,-57.52 153.67,-54.68"/>
<polygon fill="midnightblue" stroke="midnightblue" points="154.79,-58 163.41,-51.84 152.83,-51.28 154.79,-58"/>
</g>
<!-- Node27 -->
<g id="node27" class="node">
<title>Node27</title>
<g id="a_node27"><a xlink:href="classPlayer.html#a8d38cdd7f2b7ae64ff095d17dc6e9075" target="_top" xlink:title=" ">
<polygon fill="white" stroke="black" points="147,-0.5 147,-19.5 272,-19.5 272,-0.5 147,-0.5"/>
<text text-anchor="middle" x="209.5" y="-7.5" font-family="Helvetica,sans-Serif" font-size="10.00">Player::spawnAttacker</text>
</a>
</g>
</g>
<!-- Node1&#45;&gt;Node27 -->
<g id="edge29" class="edge">
<title>Node1&#45;&gt;Node27</title>
<path fill="none" stroke="midnightblue" d="M48.9,-247.47C50.91,-212.54 62.74,-90.33 131,-29 133.17,-27.05 135.52,-25.29 137.98,-23.7"/>
<polygon fill="midnightblue" stroke="midnightblue" points="139.65,-26.78 146.79,-18.95 136.33,-20.62 139.65,-26.78"/>
</g>
<!-- Node3&#45;&gt;Node4 -->
<g id="edge3" class="edge">
<title>Node3&#45;&gt;Node4</title>
<path fill="none" stroke="midnightblue" d="M256.67,-475.51C277.19,-479.28 301.7,-483.15 324,-485 394.42,-490.85 415.13,-504.68 483,-485 510.23,-477.1 537.12,-458.23 554.31,-444.35"/>
<polygon fill="midnightblue" stroke="midnightblue" points="556.93,-446.73 562.37,-437.64 552.44,-441.35 556.93,-446.73"/>
</g>
<!-- Node5 -->
<g id="node5" class="node">
<title>Node5</title>
<g id="a_node5"><a xlink:href="classMap.html#a286853d8475bc1bbede582c89e9b1491" target="_top" xlink:title=" ">
<polygon fill="white" stroke="black" points="349,-456.5 349,-475.5 458,-475.5 458,-456.5 349,-456.5"/>
<text text-anchor="middle" x="403.5" y="-463.5" font-family="Helvetica,sans-Serif" font-size="10.00">Map::getMapWidth</text>
</a>
</g>
</g>
<!-- Node3&#45;&gt;Node5 -->
<g id="edge4" class="edge">
<title>Node3&#45;&gt;Node5</title>
<path fill="none" stroke="midnightblue" d="M285.56,-466C303.06,-466 321.55,-466 338.52,-466"/>
<polygon fill="midnightblue" stroke="midnightblue" points="338.88,-469.5 348.88,-466 338.88,-462.5 338.88,-469.5"/>
</g>
<!-- Node10 -->
<g id="node10" class="node">
<title>Node10</title>
<g id="a_node10"><a xlink:href="classCDefinitions.html#ab8536fabb45ea006662e63bbc414dbef" target="_top" xlink:title=" ">
<polygon fill="white" stroke="black" points="334.5,-304.5 334.5,-323.5 472.5,-323.5 472.5,-304.5 334.5,-304.5"/>
<text text-anchor="middle" x="403.5" y="-311.5" font-family="Helvetica,sans-Serif" font-size="10.00">CDefinitions::getAttacker</text>
</a>
</g>
</g>
<!-- Node9&#45;&gt;Node10 -->
<g id="edge10" class="edge">
<title>Node9&#45;&gt;Node10</title>
<path fill="none" stroke="midnightblue" d="M280.63,-314C294.77,-314 309.71,-314 324.11,-314"/>
<polygon fill="midnightblue" stroke="midnightblue" points="324.48,-317.5 334.48,-314 324.48,-310.5 324.48,-317.5"/>
</g>
<!-- Node13 -->
<g id="node13" class="node">
<title>Node13</title>
<g id="a_node13"><a xlink:href="classCGame.html#ad0eafae848690ed00fd50af9d7464bb2" target="_top" xlink:title=" ">
<polygon fill="white" stroke="black" points="362.5,-266.5 362.5,-285.5 444.5,-285.5 444.5,-266.5 362.5,-266.5"/>
<text text-anchor="middle" x="403.5" y="-273.5" font-family="Helvetica,sans-Serif" font-size="10.00">CGame::save</text>
</a>
</g>
</g>
<!-- Node12&#45;&gt;Node13 -->
<g id="edge13" class="edge">
<title>Node12&#45;&gt;Node13</title>
<path fill="none" stroke="midnightblue" d="M267.07,-276C294.12,-276 326.22,-276 352.38,-276"/>
<polygon fill="midnightblue" stroke="midnightblue" points="352.46,-279.5 362.46,-276 352.46,-272.5 352.46,-279.5"/>
</g>
<!-- Node13&#45;&gt;Node4 -->
<g id="edge14" class="edge">
<title>Node13&#45;&gt;Node4</title>
<path fill="none" stroke="midnightblue" d="M444.8,-279.91C457.85,-282.64 471.83,-287.25 483,-295 524.82,-324.02 552.77,-379.3 565.36,-408.62"/>
<polygon fill="midnightblue" stroke="midnightblue" points="562.24,-410.24 569.3,-418.15 568.71,-407.57 562.24,-410.24"/>
</g>
<!-- Node14 -->
<g id="node14" class="node">
<title>Node14</title>
<g id="a_node14"><a xlink:href="classPlayer.html#a58da876811cd1848aab2809f5758d315" target="_top" xlink:title=" ">
<polygon fill="white" stroke="black" points="519,-247.5 519,-266.5 629,-266.5 629,-247.5 519,-247.5"/>
<text text-anchor="middle" x="574" y="-254.5" font-family="Helvetica,sans-Serif" font-size="10.00">Player::getFinished</text>
</a>
</g>
</g>
<!-- Node13&#45;&gt;Node14 -->
<g id="edge15" class="edge">
<title>Node13&#45;&gt;Node14</title>
<path fill="none" stroke="midnightblue" d="M444.86,-271.45C464.02,-269.29 487.39,-266.65 508.9,-264.23"/>
<polygon fill="midnightblue" stroke="midnightblue" points="509.41,-267.69 518.95,-263.09 508.62,-260.74 509.41,-267.69"/>
</g>
<!-- Node15 -->
<g id="node15" class="node">
<title>Node15</title>
<g id="a_node15"><a xlink:href="structCMenu.html#ac9ee7892120cb46cd7670bdf99eb9965" target="_top" xlink:title=" ">
<polygon fill="white" stroke="black" points="520.5,-285.5 520.5,-304.5 627.5,-304.5 627.5,-285.5 520.5,-285.5"/>
<text text-anchor="middle" x="574" y="-292.5" font-family="Helvetica,sans-Serif" font-size="10.00">CMenu::saveMenu</text>
</a>
</g>
</g>
<!-- Node13&#45;&gt;Node15 -->
<g id="edge16" class="edge">
<title>Node13&#45;&gt;Node15</title>
<path fill="none" stroke="midnightblue" d="M444.86,-280.55C464.36,-282.75 488.21,-285.44 510.03,-287.9"/>
<polygon fill="midnightblue" stroke="midnightblue" points="509.88,-291.41 520.21,-289.05 510.67,-284.45 509.88,-291.41"/>
</g>
<!-- Node16 -->
<g id="node16" class="node">
<title>Node16</title>
<g id="a_node16"><a xlink:href="Menu_8cpp.html#a991c482871701a7cb19cdbceae408dcb" target="_top" xlink:title=" ">
<polygon fill="white" stroke="black" points="665,-285.5 665,-304.5 725,-304.5 725,-285.5 665,-285.5"/>
<text text-anchor="middle" x="695" y="-292.5" font-family="Helvetica,sans-Serif" font-size="10.00">cleanPos</text>
</a>
</g>
</g>
<!-- Node15&#45;&gt;Node16 -->
<g id="edge17" class="edge">
<title>Node15&#45;&gt;Node16</title>
<path fill="none" stroke="midnightblue" d="M627.54,-295C636.66,-295 646,-295 654.69,-295"/>
<polygon fill="midnightblue" stroke="midnightblue" points="654.9,-298.5 664.9,-295 654.9,-291.5 654.9,-298.5"/>
</g>
<!-- Node17&#45;&gt;Node8 -->
<g id="edge22" class="edge">
<title>Node17&#45;&gt;Node8</title>
<path fill="none" stroke="midnightblue" d="M253.34,-171.59C265.02,-175.17 277.37,-179.9 288,-186 306.82,-196.81 304.85,-208.79 324,-219 328.45,-221.37 333.2,-223.45 338.07,-225.28"/>
<polygon fill="midnightblue" stroke="midnightblue" points="336.96,-228.59 347.56,-228.48 339.2,-221.96 336.96,-228.59"/>
</g>
<!-- Node18 -->
<g id="node18" class="node">
<title>Node18</title>
<g id="a_node18"><a xlink:href="classEnemy.html#ae18d396bd69ed23683e95a03b97cfc8c" target="_top" xlink:title=" ">
<polygon fill="white" stroke="black" points="339,-190.5 339,-209.5 468,-209.5 468,-190.5 339,-190.5"/>
<text text-anchor="middle" x="403.5" y="-197.5" font-family="Helvetica,sans-Serif" font-size="10.00">Enemy::damageTowers</text>
</a>
</g>
</g>
<!-- Node17&#45;&gt;Node18 -->
<g id="edge19" class="edge">
<title>Node17&#45;&gt;Node18</title>
<path fill="none" stroke="midnightblue" d="M258.95,-171.59C284.97,-176.74 317.23,-183.12 344.57,-188.53"/>
<polygon fill="midnightblue" stroke="midnightblue" points="343.91,-191.97 354.4,-190.48 345.27,-185.1 343.91,-191.97"/>
</g>
<!-- Node19 -->
<g id="node19" class="node">
<title>Node19</title>
<g id="a_node19"><a xlink:href="classPlayer.html#a569c871c07f6a047808542fc2492691d" target="_top" xlink:title=" ">
<polygon fill="white" stroke="black" points="334.5,-152.5 334.5,-171.5 472.5,-171.5 472.5,-152.5 334.5,-152.5"/>
<text text-anchor="middle" x="403.5" y="-159.5" font-family="Helvetica,sans-Serif" font-size="10.00">Player::getAttackerCount</text>
</a>
</g>
</g>
<!-- Node17&#45;&gt;Node19 -->
<g id="edge20" class="edge">
<title>Node17&#45;&gt;Node19</title>
<path fill="none" stroke="midnightblue" d="M276.58,-162C291.88,-162 308.31,-162 324.09,-162"/>
<polygon fill="midnightblue" stroke="midnightblue" points="324.34,-165.5 334.34,-162 324.34,-158.5 324.34,-165.5"/>
</g>
<!-- Node20 -->
<g id="node20" class="node">
<title>Node20</title>
<g id="a_node20"><a xlink:href="classEnemy.html#a44e4128d98c48b30045cd11873a132c2" target="_top" xlink:title=" ">
<polygon fill="white" stroke="black" points="324,-114.5 324,-133.5 483,-133.5 483,-114.5 324,-114.5"/>
<text text-anchor="middle" x="403.5" y="-121.5" font-family="Helvetica,sans-Serif" font-size="10.00">Enemy::getAttackersToAttack</text>
</a>
</g>
</g>
<!-- Node17&#45;&gt;Node20 -->
<g id="edge21" class="edge">
<title>Node17&#45;&gt;Node20</title>
<path fill="none" stroke="midnightblue" d="M258.95,-152.41C284.97,-147.26 317.23,-140.88 344.57,-135.47"/>
<polygon fill="midnightblue" stroke="midnightblue" points="345.27,-138.9 354.4,-133.52 343.91,-132.03 345.27,-138.9"/>
</g>
<!-- Node21 -->
<g id="node21" class="node">
<title>Node21</title>
<g id="a_node21"><a xlink:href="classPlayer.html#a040334eb4b145681595cc67168543b5d" target="_top" xlink:title=" ">
<polygon fill="white" stroke="black" points="331,-76.5 331,-95.5 476,-95.5 476,-76.5 331,-76.5"/>
<text text-anchor="middle" x="403.5" y="-83.5" font-family="Helvetica,sans-Serif" font-size="10.00">Player::getTowersToAttack</text>
</a>
</g>
</g>
<!-- Node17&#45;&gt;Node21 -->
<g id="edge23" class="edge">
<title>Node17&#45;&gt;Node21</title>
<path fill="none" stroke="midnightblue" d="M266.22,-152.47C273.81,-150 281.29,-146.9 288,-143 308.11,-131.31 303.87,-116.66 324,-105 327.86,-102.77 331.97,-100.79 336.21,-99.05"/>
<polygon fill="midnightblue" stroke="midnightblue" points="337.47,-102.32 345.66,-95.6 335.06,-95.75 337.47,-102.32"/>
</g>
<!-- Node25 -->
<g id="node25" class="node">
<title>Node25</title>
<g id="a_node25"><a xlink:href="classMap.html#a93e47351a83408edee40bef3198ef101" target="_top" xlink:title=" ">
<polygon fill="white" stroke="black" points="350.5,-38.5 350.5,-57.5 456.5,-57.5 456.5,-38.5 350.5,-38.5"/>
<text text-anchor="middle" x="403.5" y="-45.5" font-family="Helvetica,sans-Serif" font-size="10.00">Map::getLaneByID</text>
</a>
</g>
</g>
<!-- Node24&#45;&gt;Node25 -->
<g id="edge27" class="edge">
<title>Node24&#45;&gt;Node25</title>
<path fill="none" stroke="midnightblue" d="M255.52,-48C280.68,-48 312.42,-48 339.96,-48"/>
<polygon fill="midnightblue" stroke="midnightblue" points="340.29,-51.5 350.29,-48 340.29,-44.5 340.29,-51.5"/>
</g>
<!-- Node26 -->
<g id="node26" class="node">
<title>Node26</title>
<g id="a_node26"><a xlink:href="classMap.html#a4c6de1d62db7a7aca78b01838b8d0a6a" target="_top" xlink:title=" ">
<polygon fill="white" stroke="black" points="348.5,-0.5 348.5,-19.5 458.5,-19.5 458.5,-0.5 348.5,-0.5"/>
<text text-anchor="middle" x="403.5" y="-7.5" font-family="Helvetica,sans-Serif" font-size="10.00">Map::highlightLane</text>
</a>
</g>
</g>
<!-- Node24&#45;&gt;Node26 -->
<g id="edge28" class="edge">
<title>Node24&#45;&gt;Node26</title>
<path fill="none" stroke="midnightblue" d="M255.52,-39.09C282.09,-33.83 316,-27.12 344.55,-21.47"/>
<polygon fill="midnightblue" stroke="midnightblue" points="345.28,-24.89 354.41,-19.52 343.92,-18.03 345.28,-24.89"/>
</g>
</g>
</svg>
