<?xml version="1.0" encoding="UTF-8" standalone="no"?>
<!DOCTYPE svg PUBLIC "-//W3C//DTD SVG 1.1//EN"
 "http://www.w3.org/Graphics/SVG/1.1/DTD/svg11.dtd">
<!-- Generated by graphviz version 2.43.0 (0)
 -->
<!-- Title: logException::what Pages: 1 -->
<svg width="886pt" height="142pt"
 viewBox="0.00 0.00 886.00 142.00" xmlns="http://www.w3.org/2000/svg" xmlns:xlink="http://www.w3.org/1999/xlink">
<g id="graph0" class="graph" transform="scale(1 1) rotate(0) translate(4 138)">
<title>logException::what</title>
<polygon fill="white" stroke="transparent" points="-4,4 -4,-138 882,-138 882,4 -4,4"/>
<!-- Node1 -->
<g id="node1" class="node">
<title>Node1</title>
<g id="a_node1"><a xlink:title=" ">
<polygon fill="#bfbfbf" stroke="black" points="768,-57.5 768,-76.5 878,-76.5 878,-57.5 768,-57.5"/>
<text text-anchor="middle" x="823" y="-64.5" font-family="Helvetica,sans-Serif" font-size="10.00">logException::what</text>
</a>
</g>
</g>
<!-- Node2 -->
<g id="node2" class="node">
<title>Node2</title>
<g id="a_node2"><a xlink:href="classMap.html#acd24cfa7aca34a2839a94490ef563aa2" target="_top" xlink:title=" ">
<polygon fill="white" stroke="black" points="646,-57.5 646,-76.5 732,-76.5 732,-57.5 646,-57.5"/>
<text text-anchor="middle" x="689" y="-64.5" font-family="Helvetica,sans-Serif" font-size="10.00">Map::readMap</text>
</a>
</g>
</g>
<!-- Node1&#45;&gt;Node2 -->
<g id="edge1" class="edge">
<title>Node1&#45;&gt;Node2</title>
<path fill="none" stroke="midnightblue" d="M757.75,-67C749.02,-67 740.26,-67 732.07,-67"/>
<polygon fill="midnightblue" stroke="midnightblue" points="757.93,-70.5 767.93,-67 757.93,-63.5 757.93,-70.5"/>
</g>
<!-- Node3 -->
<g id="node3" class="node">
<title>Node3</title>
<g id="a_node3"><a xlink:href="classCGame.html#a9945af5487d059db1d7119ae16cd2dd3" target="_top" xlink:title=" ">
<polygon fill="white" stroke="black" points="506,-114.5 506,-133.5 586,-133.5 586,-114.5 506,-114.5"/>
<text text-anchor="middle" x="546" y="-121.5" font-family="Helvetica,sans-Serif" font-size="10.00">CGame::load</text>
</a>
</g>
</g>
<!-- Node2&#45;&gt;Node3 -->
<g id="edge2" class="edge">
<title>Node2&#45;&gt;Node3</title>
<path fill="none" stroke="midnightblue" d="M661.29,-81.33C646.45,-88.96 627.49,-98.15 610,-105 601.17,-108.46 591.44,-111.67 582.33,-114.43"/>
<polygon fill="midnightblue" stroke="midnightblue" points="663.15,-84.31 670.4,-76.59 659.91,-78.11 663.15,-84.31"/>
</g>
<!-- Node8 -->
<g id="node8" class="node">
<title>Node8</title>
<g id="a_node8"><a xlink:href="classCGame.html#a5dc70520b14c22acbd728f6599bb150a" target="_top" xlink:title=" ">
<polygon fill="white" stroke="black" points="221,-38.5 221,-57.5 336,-57.5 336,-38.5 221,-38.5"/>
<text text-anchor="middle" x="278.5" y="-45.5" font-family="Helvetica,sans-Serif" font-size="10.00">CGame::testRoutine</text>
</a>
</g>
</g>
<!-- Node2&#45;&gt;Node8 -->
<g id="edge12" class="edge">
<title>Node2&#45;&gt;Node8</title>
<path fill="none" stroke="midnightblue" d="M635.4,-64.55C558.33,-60.97 415.31,-54.32 336.06,-50.63"/>
<polygon fill="midnightblue" stroke="midnightblue" points="635.67,-68.07 645.82,-65.04 636,-61.08 635.67,-68.07"/>
</g>
<!-- Node9 -->
<g id="node9" class="node">
<title>Node9</title>
<g id="a_node9"><a xlink:href="classCGame.html#afbbb4f8d05f753b7c2d6a0d91ca96a9b" target="_top" xlink:title=" ">
<polygon fill="white" stroke="black" points="482,-76.5 482,-95.5 610,-95.5 610,-76.5 482,-76.5"/>
<text text-anchor="middle" x="546" y="-83.5" font-family="Helvetica,sans-Serif" font-size="10.00">CGame::loadFromSave</text>
</a>
</g>
</g>
<!-- Node2&#45;&gt;Node9 -->
<g id="edge9" class="edge">
<title>Node2&#45;&gt;Node9</title>
<path fill="none" stroke="midnightblue" d="M635.74,-74.04C627.4,-75.17 618.69,-76.34 610.13,-77.49"/>
<polygon fill="midnightblue" stroke="midnightblue" points="636.25,-77.5 645.7,-72.7 635.32,-70.57 636.25,-77.5"/>
</g>
<!-- Node10 -->
<g id="node10" class="node">
<title>Node10</title>
<g id="a_node10"><a xlink:href="classMap.html#a0a1bc119b284fc82e2f3b1c2956b4381" target="_top" xlink:title=" ">
<polygon fill="white" stroke="black" points="491.5,-0.5 491.5,-19.5 600.5,-19.5 600.5,-0.5 491.5,-0.5"/>
<text text-anchor="middle" x="546" y="-7.5" font-family="Helvetica,sans-Serif" font-size="10.00">Map::loadNextMap</text>
</a>
</g>
</g>
<!-- Node2&#45;&gt;Node10 -->
<g id="edge11" class="edge">
<title>Node2&#45;&gt;Node10</title>
<path fill="none" stroke="midnightblue" d="M656.58,-53.4C642.4,-47.34 625.41,-40.19 610,-34 597.84,-29.11 584.26,-23.91 572.83,-19.6"/>
<polygon fill="midnightblue" stroke="midnightblue" points="655.33,-56.67 665.9,-57.4 658.09,-50.24 655.33,-56.67"/>
</g>
<!-- Node4 -->
<g id="node4" class="node">
<title>Node4</title>
<g id="a_node4"><a xlink:href="classCGame.html#aaae1d58e5125f6ab128afe0ec688a00a" target="_top" xlink:title=" ">
<polygon fill="white" stroke="black" points="372,-76.5 372,-95.5 446,-95.5 446,-76.5 372,-76.5"/>
<text text-anchor="middle" x="409" y="-83.5" font-family="Helvetica,sans-Serif" font-size="10.00">CGame::init</text>
</a>
</g>
</g>
<!-- Node3&#45;&gt;Node4 -->
<g id="edge3" class="edge">
<title>Node3&#45;&gt;Node4</title>
<path fill="none" stroke="midnightblue" d="M501.24,-111.68C482.69,-106.46 461.4,-100.47 444.06,-95.59"/>
<polygon fill="midnightblue" stroke="midnightblue" points="500.36,-115.07 510.93,-114.41 502.26,-108.33 500.36,-115.07"/>
</g>
<!-- Node5 -->
<g id="node5" class="node">
<title>Node5</title>
<g id="a_node5"><a xlink:href="classCGame.html#aa7c80b7185158a0bde186d83f0e8cbb4" target="_top" xlink:title=" ">
<polygon fill="white" stroke="black" points="238.5,-76.5 238.5,-95.5 318.5,-95.5 318.5,-76.5 238.5,-76.5"/>
<text text-anchor="middle" x="278.5" y="-83.5" font-family="Helvetica,sans-Serif" font-size="10.00">CGame::play</text>
</a>
</g>
</g>
<!-- Node4&#45;&gt;Node5 -->
<g id="edge4" class="edge">
<title>Node4&#45;&gt;Node5</title>
<path fill="none" stroke="midnightblue" d="M361.81,-86C347.62,-86 332.16,-86 318.51,-86"/>
<polygon fill="midnightblue" stroke="midnightblue" points="361.86,-89.5 371.86,-86 361.86,-82.5 361.86,-89.5"/>
</g>
<!-- Node4&#45;&gt;Node8 -->
<g id="edge8" class="edge">
<title>Node4&#45;&gt;Node8</title>
<path fill="none" stroke="midnightblue" d="M365.61,-73.46C348.13,-68.3 328.2,-62.4 311.92,-57.59"/>
<polygon fill="midnightblue" stroke="midnightblue" points="364.99,-76.93 375.57,-76.41 366.98,-70.22 364.99,-76.93"/>
</g>
<!-- Node6 -->
<g id="node6" class="node">
<title>Node6</title>
<g id="a_node6"><a xlink:href="main_8cpp.html#a3c04138a5bfe5d72780bb7e82a18e627" target="_top" xlink:title=" ">
<polygon fill="white" stroke="black" points="144,-95.5 144,-114.5 185,-114.5 185,-95.5 144,-95.5"/>
<text text-anchor="middle" x="164.5" y="-102.5" font-family="Helvetica,sans-Serif" font-size="10.00">main</text>
</a>
</g>
</g>
<!-- Node5&#45;&gt;Node6 -->
<g id="edge5" class="edge">
<title>Node5&#45;&gt;Node6</title>
<path fill="none" stroke="midnightblue" d="M228.04,-94.39C212.95,-96.95 197.22,-99.62 185.31,-101.64"/>
<polygon fill="midnightblue" stroke="midnightblue" points="229.05,-97.77 238.33,-92.65 227.88,-90.87 229.05,-97.77"/>
</g>
<!-- Node7 -->
<g id="node7" class="node">
<title>Node7</title>
<g id="a_node7"><a xlink:href="structCMenu.html#a07236cc397b0e4e55ec4f916c3893fbd" target="_top" xlink:title=" ">
<polygon fill="white" stroke="black" points="0,-76.5 0,-95.5 108,-95.5 108,-76.5 0,-76.5"/>
<text text-anchor="middle" x="54" y="-83.5" font-family="Helvetica,sans-Serif" font-size="10.00">CMenu::mainMenu</text>
</a>
</g>
</g>
<!-- Node6&#45;&gt;Node7 -->
<g id="edge6" class="edge">
<title>Node6&#45;&gt;Node7</title>
<path fill="none" stroke="midnightblue" d="M133.76,-99.79C125.89,-98.41 117.17,-96.89 108.46,-95.36"/>
<polygon fill="midnightblue" stroke="midnightblue" points="133.4,-103.28 143.85,-101.56 134.61,-96.39 133.4,-103.28"/>
</g>
<!-- Node7&#45;&gt;Node5 -->
<g id="edge7" class="edge">
<title>Node7&#45;&gt;Node5</title>
<path fill="none" stroke="midnightblue" d="M118.32,-86C157.03,-86 205.31,-86 238.49,-86"/>
<polygon fill="midnightblue" stroke="midnightblue" points="118.19,-82.5 108.19,-86 118.19,-89.5 118.19,-82.5"/>
</g>
<!-- Node9&#45;&gt;Node4 -->
<g id="edge10" class="edge">
<title>Node9&#45;&gt;Node4</title>
<path fill="none" stroke="midnightblue" d="M471.82,-86C462.95,-86 454.22,-86 446.24,-86"/>
<polygon fill="midnightblue" stroke="midnightblue" points="471.85,-89.5 481.85,-86 471.85,-82.5 471.85,-89.5"/>
</g>
</g>
</svg>
