<?xml version="1.0" encoding="UTF-8" standalone="no"?>
<!DOCTYPE svg PUBLIC "-//W3C//DTD SVG 1.1//EN"
 "http://www.w3.org/Graphics/SVG/1.1/DTD/svg11.dtd">
<!-- Generated by graphviz version 2.43.0 (0)
 -->
<!-- Title: CGame::resume Pages: 1 -->
<svg width="769pt" height="655pt"
 viewBox="0.00 0.00 769.00 655.00" xmlns="http://www.w3.org/2000/svg" xmlns:xlink="http://www.w3.org/1999/xlink">
<g id="graph0" class="graph" transform="scale(1 1) rotate(0) translate(4 651)">
<title>CGame::resume</title>
<polygon fill="white" stroke="transparent" points="-4,4 -4,-651 765,-651 765,4 -4,4"/>
<!-- Node1 -->
<g id="node1" class="node">
<title>Node1</title>
<g id="a_node1"><a xlink:title=" ">
<polygon fill="#bfbfbf" stroke="black" points="0,-342.5 0,-361.5 95,-361.5 95,-342.5 0,-342.5"/>
<text text-anchor="middle" x="47.5" y="-349.5" font-family="Helvetica,sans-Serif" font-size="10.00">CGame::resume</text>
</a>
</g>
</g>
<!-- Node2 -->
<g id="node2" class="node">
<title>Node2</title>
<g id="a_node2"><a xlink:href="classPlayer.html#a1ea667bf317320dc59bd784251bfccf1" target="_top" xlink:title=" ">
<polygon fill="white" stroke="black" points="132.5,-627.5 132.5,-646.5 286.5,-646.5 286.5,-627.5 132.5,-627.5"/>
<text text-anchor="middle" x="209.5" y="-634.5" font-family="Helvetica,sans-Serif" font-size="10.00">Player::addAttackerToQueue</text>
</a>
</g>
</g>
<!-- Node1&#45;&gt;Node2 -->
<g id="edge1" class="edge">
<title>Node1&#45;&gt;Node2</title>
<path fill="none" stroke="midnightblue" d="M48.34,-361.71C48.27,-400.39 53.37,-544.92 131,-618 132.51,-619.42 134.11,-620.75 135.79,-621.98"/>
<polygon fill="midnightblue" stroke="midnightblue" points="134.33,-625.18 144.7,-627.36 137.95,-619.19 134.33,-625.18"/>
</g>
<!-- Node3 -->
<g id="node3" class="node">
<title>Node3</title>
<g id="a_node3"><a xlink:href="classCGame.html#a5e869346471dd717a4393ee1cfe5eed6" target="_top" xlink:title=" ">
<polygon fill="white" stroke="black" points="133.5,-589.5 133.5,-608.5 285.5,-608.5 285.5,-589.5 133.5,-589.5"/>
<text text-anchor="middle" x="209.5" y="-596.5" font-family="Helvetica,sans-Serif" font-size="10.00">CGame::cleanErrorMessage</text>
</a>
</g>
</g>
<!-- Node1&#45;&gt;Node3 -->
<g id="edge2" class="edge">
<title>Node1&#45;&gt;Node3</title>
<path fill="none" stroke="midnightblue" d="M48.9,-361.53C50.91,-396.46 62.74,-518.67 131,-580 132.72,-581.54 134.54,-582.96 136.44,-584.28"/>
<polygon fill="midnightblue" stroke="midnightblue" points="134.85,-587.4 145.27,-589.34 138.34,-581.33 134.85,-587.4"/>
</g>
<!-- Node5 -->
<g id="node5" class="node">
<title>Node5</title>
<g id="a_node5"><a xlink:href="classCGame.html#aabb1f7e83086241852153c784791fb51" target="_top" xlink:title=" ">
<polygon fill="white" stroke="black" points="133.5,-513.5 133.5,-532.5 285.5,-532.5 285.5,-513.5 133.5,-513.5"/>
<text text-anchor="middle" x="209.5" y="-520.5" font-family="Helvetica,sans-Serif" font-size="10.00">CGame::drawCurrentMoney</text>
</a>
</g>
</g>
<!-- Node1&#45;&gt;Node5 -->
<g id="edge4" class="edge">
<title>Node1&#45;&gt;Node5</title>
<path fill="none" stroke="midnightblue" d="M51.12,-361.53C58.79,-387.61 83.66,-460.73 131,-499 136.23,-503.22 142.19,-506.71 148.45,-509.58"/>
<polygon fill="midnightblue" stroke="midnightblue" points="147.18,-512.84 157.76,-513.36 149.82,-506.36 147.18,-512.84"/>
</g>
<!-- Node6 -->
<g id="node6" class="node">
<title>Node6</title>
<g id="a_node6"><a xlink:href="classPlayer.html#a35e23c050e86892c31ff783457f8ec24" target="_top" xlink:title=" ">
<polygon fill="white" stroke="black" points="544,-475.5 544,-494.5 640,-494.5 640,-475.5 544,-475.5"/>
<text text-anchor="middle" x="592" y="-482.5" font-family="Helvetica,sans-Serif" font-size="10.00">Player::getCoins</text>
</a>
</g>
</g>
<!-- Node1&#45;&gt;Node6 -->
<g id="edge12" class="edge">
<title>Node1&#45;&gt;Node6</title>
<path fill="none" stroke="midnightblue" d="M52.03,-361.62C61.03,-384.6 87.31,-442.54 131,-466 199.05,-502.54 426.52,-494.74 533.93,-488.72"/>
<polygon fill="midnightblue" stroke="midnightblue" points="534.15,-492.21 543.94,-488.14 533.75,-485.22 534.15,-492.21"/>
</g>
<!-- Node7 -->
<g id="node7" class="node">
<title>Node7</title>
<g id="a_node7"><a xlink:href="classCGame.html#a8f17e82253ef0fb17f4d6b64bb171e1f" target="_top" xlink:title=" ">
<polygon fill="white" stroke="black" points="135,-551.5 135,-570.5 284,-570.5 284,-551.5 135,-551.5"/>
<text text-anchor="middle" x="209.5" y="-558.5" font-family="Helvetica,sans-Serif" font-size="10.00">CGame::drawErrorMessage</text>
</a>
</g>
</g>
<!-- Node1&#45;&gt;Node7 -->
<g id="edge7" class="edge">
<title>Node1&#45;&gt;Node7</title>
<path fill="none" stroke="midnightblue" d="M49.68,-361.66C54.05,-392.95 72.18,-492.38 131,-542 132.99,-543.68 135.11,-545.22 137.32,-546.62"/>
<polygon fill="midnightblue" stroke="midnightblue" points="135.81,-549.78 146.28,-551.41 139.11,-543.61 135.81,-549.78"/>
</g>
<!-- Node8 -->
<g id="node8" class="node">
<title>Node8</title>
<g id="a_node8"><a xlink:href="classPlayer.html#af8808a3a7405e9dfdcd6a3e89c5c3f23" target="_top" xlink:title=" ">
<polygon fill="white" stroke="black" points="131,-437.5 131,-456.5 288,-456.5 288,-437.5 131,-437.5"/>
<text text-anchor="middle" x="209.5" y="-444.5" font-family="Helvetica,sans-Serif" font-size="10.00">Player::emptyAttackerQueue</text>
</a>
</g>
</g>
<!-- Node1&#45;&gt;Node8 -->
<g id="edge9" class="edge">
<title>Node1&#45;&gt;Node8</title>
<path fill="none" stroke="midnightblue" d="M56.04,-361.57C69.37,-377.82 98.74,-410.69 131,-428 135.28,-430.29 139.83,-432.32 144.51,-434.1"/>
<polygon fill="midnightblue" stroke="midnightblue" points="143.65,-437.5 154.25,-437.43 145.92,-430.88 143.65,-437.5"/>
</g>
<!-- Node9 -->
<g id="node9" class="node">
<title>Node9</title>
<g id="a_node9"><a xlink:href="classPlayer.html#a600133320cd307c65c50966d300c4412" target="_top" xlink:title=" ">
<polygon fill="white" stroke="black" points="144,-399.5 144,-418.5 275,-418.5 275,-399.5 144,-399.5"/>
<text text-anchor="middle" x="209.5" y="-406.5" font-family="Helvetica,sans-Serif" font-size="10.00">Player::emptyAttackers</text>
</a>
</g>
</g>
<!-- Node1&#45;&gt;Node9 -->
<g id="edge10" class="edge">
<title>Node1&#45;&gt;Node9</title>
<path fill="none" stroke="midnightblue" d="M66.76,-361.64C83.2,-370.02 108.22,-382.04 131,-390 138.26,-392.54 146.03,-394.87 153.73,-396.96"/>
<polygon fill="midnightblue" stroke="midnightblue" points="152.84,-400.35 163.4,-399.49 154.61,-393.58 152.84,-400.35"/>
</g>
<!-- Node10 -->
<g id="node10" class="node">
<title>Node10</title>
<g id="a_node10"><a xlink:href="classPlayer.html#a569c871c07f6a047808542fc2492691d" target="_top" xlink:title=" ">
<polygon fill="white" stroke="black" points="140.5,-361.5 140.5,-380.5 278.5,-380.5 278.5,-361.5 140.5,-361.5"/>
<text text-anchor="middle" x="209.5" y="-368.5" font-family="Helvetica,sans-Serif" font-size="10.00">Player::getAttackerCount</text>
</a>
</g>
</g>
<!-- Node1&#45;&gt;Node10 -->
<g id="edge11" class="edge">
<title>Node1&#45;&gt;Node10</title>
<path fill="none" stroke="midnightblue" d="M95.21,-357.55C106.23,-358.86 118.29,-360.29 130.28,-361.71"/>
<polygon fill="midnightblue" stroke="midnightblue" points="129.98,-365.2 140.33,-362.9 130.81,-358.25 129.98,-365.2"/>
</g>
<!-- Node11 -->
<g id="node11" class="node">
<title>Node11</title>
<g id="a_node11"><a xlink:href="classEnemy.html#ac7a14593067f5d799c2080fadaf33cbb" target="_top" xlink:title=" ">
<polygon fill="white" stroke="black" points="145.5,-323.5 145.5,-342.5 273.5,-342.5 273.5,-323.5 145.5,-323.5"/>
<text text-anchor="middle" x="209.5" y="-330.5" font-family="Helvetica,sans-Serif" font-size="10.00">Enemy::getTowerCount</text>
</a>
</g>
</g>
<!-- Node1&#45;&gt;Node11 -->
<g id="edge13" class="edge">
<title>Node1&#45;&gt;Node11</title>
<path fill="none" stroke="midnightblue" d="M95.21,-346.45C107.7,-344.97 121.52,-343.33 135.08,-341.72"/>
<polygon fill="midnightblue" stroke="midnightblue" points="135.86,-345.15 145.37,-340.5 135.03,-338.2 135.86,-345.15"/>
</g>
<!-- Node12 -->
<g id="node12" class="node">
<title>Node12</title>
<g id="a_node12"><a xlink:href="classCGame.html#a07e1a07f124c590afd975c34ec7ab7cd" target="_top" xlink:title=" ">
<polygon fill="white" stroke="black" points="138.5,-285.5 138.5,-304.5 280.5,-304.5 280.5,-285.5 138.5,-285.5"/>
<text text-anchor="middle" x="209.5" y="-292.5" font-family="Helvetica,sans-Serif" font-size="10.00">CGame::highlightAttacker</text>
</a>
</g>
</g>
<!-- Node1&#45;&gt;Node12 -->
<g id="edge14" class="edge">
<title>Node1&#45;&gt;Node12</title>
<path fill="none" stroke="midnightblue" d="M66.76,-342.36C83.2,-333.98 108.22,-321.96 131,-314 138.26,-311.46 146.03,-309.13 153.73,-307.04"/>
<polygon fill="midnightblue" stroke="midnightblue" points="154.61,-310.42 163.4,-304.51 152.84,-303.65 154.61,-310.42"/>
</g>
<!-- Node14 -->
<g id="node14" class="node">
<title>Node14</title>
<g id="a_node14"><a xlink:href="classPlayer.html#a2df57835c101550b9a7a573648138ca4" target="_top" xlink:title=" ">
<polygon fill="white" stroke="black" points="146,-247.5 146,-266.5 273,-266.5 273,-247.5 146,-247.5"/>
<text text-anchor="middle" x="209.5" y="-254.5" font-family="Helvetica,sans-Serif" font-size="10.00">Player::moveAttackers</text>
</a>
</g>
</g>
<!-- Node1&#45;&gt;Node14 -->
<g id="edge16" class="edge">
<title>Node1&#45;&gt;Node14</title>
<path fill="none" stroke="midnightblue" d="M56.04,-342.43C69.37,-326.18 98.74,-293.31 131,-276 135.28,-273.71 139.83,-271.68 144.51,-269.9"/>
<polygon fill="midnightblue" stroke="midnightblue" points="145.92,-273.12 154.25,-266.57 143.65,-266.5 145.92,-273.12"/>
</g>
<!-- Node15 -->
<g id="node15" class="node">
<title>Node15</title>
<g id="a_node15"><a xlink:href="classCGame.html#a6edb2bd6c59fa64f137a19b3aacb49df" target="_top" xlink:title=" ">
<polygon fill="white" stroke="black" points="152,-209.5 152,-228.5 267,-228.5 267,-209.5 152,-209.5"/>
<text text-anchor="middle" x="209.5" y="-216.5" font-family="Helvetica,sans-Serif" font-size="10.00">CGame::pauseMenu</text>
</a>
</g>
</g>
<!-- Node1&#45;&gt;Node15 -->
<g id="edge17" class="edge">
<title>Node1&#45;&gt;Node15</title>
<path fill="none" stroke="midnightblue" d="M52.65,-342.27C62.64,-320.06 90.26,-265.42 131,-238 134.56,-235.61 138.38,-233.51 142.37,-231.69"/>
<polygon fill="midnightblue" stroke="midnightblue" points="143.9,-234.84 151.88,-227.88 141.3,-228.34 143.9,-234.84"/>
</g>
<!-- Node23 -->
<g id="node23" class="node">
<title>Node23</title>
<g id="a_node23"><a xlink:href="classCGame.html#a746d639da0897949fda403039daf4bf5" target="_top" xlink:title=" ">
<polygon fill="white" stroke="black" points="142.5,-171.5 142.5,-190.5 276.5,-190.5 276.5,-171.5 142.5,-171.5"/>
<text text-anchor="middle" x="209.5" y="-178.5" font-family="Helvetica,sans-Serif" font-size="10.00">CGame::performAttacks</text>
</a>
</g>
</g>
<!-- Node1&#45;&gt;Node23 -->
<g id="edge26" class="edge">
<title>Node1&#45;&gt;Node23</title>
<path fill="none" stroke="midnightblue" d="M50.8,-342.39C57.77,-315.38 81.31,-238.32 131,-200 133.44,-198.11 136.05,-196.41 138.77,-194.88"/>
<polygon fill="midnightblue" stroke="midnightblue" points="140.31,-198.02 147.79,-190.52 137.27,-191.72 140.31,-198.02"/>
</g>
<!-- Node29 -->
<g id="node29" class="node">
<title>Node29</title>
<g id="a_node29"><a xlink:href="classPlayer.html#af6bb254e5c2d40bce8900e48acec7317" target="_top" xlink:title=" ">
<polygon fill="white" stroke="black" points="144,-133.5 144,-152.5 275,-152.5 275,-133.5 144,-133.5"/>
<text text-anchor="middle" x="209.5" y="-140.5" font-family="Helvetica,sans-Serif" font-size="10.00">Player::setAttackerType</text>
</a>
</g>
</g>
<!-- Node1&#45;&gt;Node29 -->
<g id="edge32" class="edge">
<title>Node1&#45;&gt;Node29</title>
<path fill="none" stroke="midnightblue" d="M49.68,-342.34C54.05,-311.05 72.18,-211.62 131,-162 132.99,-160.32 135.11,-158.78 137.32,-157.38"/>
<polygon fill="midnightblue" stroke="midnightblue" points="139.11,-160.39 146.28,-152.59 135.81,-154.22 139.11,-160.39"/>
</g>
<!-- Node30 -->
<g id="node30" class="node">
<title>Node30</title>
<g id="a_node30"><a xlink:href="classPlayer.html#a1e161036e7ec8b770596180923c6acef" target="_top" xlink:title=" ">
<polygon fill="white" stroke="black" points="163.5,-76.5 163.5,-95.5 255.5,-95.5 255.5,-76.5 163.5,-76.5"/>
<text text-anchor="middle" x="209.5" y="-83.5" font-family="Helvetica,sans-Serif" font-size="10.00">Player::setLane</text>
</a>
</g>
</g>
<!-- Node1&#45;&gt;Node30 -->
<g id="edge33" class="edge">
<title>Node1&#45;&gt;Node30</title>
<path fill="none" stroke="midnightblue" d="M49.41,-342.47C53.14,-308.54 70.01,-192 131,-124 140.58,-113.32 153.84,-105.31 166.68,-99.47"/>
<polygon fill="midnightblue" stroke="midnightblue" points="168.04,-102.7 175.9,-95.59 165.32,-96.24 168.04,-102.7"/>
</g>
<!-- Node33 -->
<g id="node33" class="node">
<title>Node33</title>
<g id="a_node33"><a xlink:href="classPlayer.html#a6747b8f4ad701da6235e6ee6793be974" target="_top" xlink:title=" ">
<polygon fill="white" stroke="black" points="147,-19.5 147,-38.5 272,-38.5 272,-19.5 147,-19.5"/>
<text text-anchor="middle" x="209.5" y="-26.5" font-family="Helvetica,sans-Serif" font-size="10.00">Player::spawnAttacker</text>
</a>
</g>
</g>
<!-- Node1&#45;&gt;Node33 -->
<g id="edge36" class="edge">
<title>Node1&#45;&gt;Node33</title>
<path fill="none" stroke="midnightblue" d="M48.6,-342.36C49.5,-303.24 57.81,-154.19 131,-67 139.98,-56.3 152.7,-48.35 165.25,-42.57"/>
<polygon fill="midnightblue" stroke="midnightblue" points="166.89,-45.68 174.74,-38.57 164.16,-39.23 166.89,-45.68"/>
</g>
<!-- Node4 -->
<g id="node4" class="node">
<title>Node4</title>
<g id="a_node4"><a xlink:href="classMap.html#a286853d8475bc1bbede582c89e9b1491" target="_top" xlink:title=" ">
<polygon fill="white" stroke="black" points="349,-551.5 349,-570.5 458,-570.5 458,-551.5 349,-551.5"/>
<text text-anchor="middle" x="403.5" y="-558.5" font-family="Helvetica,sans-Serif" font-size="10.00">Map::getMapWidth</text>
</a>
</g>
</g>
<!-- Node3&#45;&gt;Node4 -->
<g id="edge3" class="edge">
<title>Node3&#45;&gt;Node4</title>
<path fill="none" stroke="midnightblue" d="M258.95,-589.41C284.97,-584.26 317.23,-577.88 344.57,-572.47"/>
<polygon fill="midnightblue" stroke="midnightblue" points="345.27,-575.9 354.4,-570.52 343.91,-569.03 345.27,-575.9"/>
</g>
<!-- Node5&#45;&gt;Node4 -->
<g id="edge6" class="edge">
<title>Node5&#45;&gt;Node4</title>
<path fill="none" stroke="midnightblue" d="M258.95,-532.59C284.97,-537.74 317.23,-544.12 344.57,-549.53"/>
<polygon fill="midnightblue" stroke="midnightblue" points="343.91,-552.97 354.4,-551.48 345.27,-546.1 343.91,-552.97"/>
</g>
<!-- Node5&#45;&gt;Node6 -->
<g id="edge5" class="edge">
<title>Node5&#45;&gt;Node6</title>
<path fill="none" stroke="midnightblue" d="M285.76,-517.21C340.52,-512.79 416.43,-506.24 483,-499 499.5,-497.2 517.38,-494.99 533.76,-492.87"/>
<polygon fill="midnightblue" stroke="midnightblue" points="534.28,-496.33 543.74,-491.55 533.37,-489.39 534.28,-496.33"/>
</g>
<!-- Node7&#45;&gt;Node4 -->
<g id="edge8" class="edge">
<title>Node7&#45;&gt;Node4</title>
<path fill="none" stroke="midnightblue" d="M284.18,-561C302.22,-561 321.36,-561 338.88,-561"/>
<polygon fill="midnightblue" stroke="midnightblue" points="338.99,-564.5 348.99,-561 338.99,-557.5 338.99,-564.5"/>
</g>
<!-- Node13 -->
<g id="node13" class="node">
<title>Node13</title>
<g id="a_node13"><a xlink:href="classCDefinitions.html#ab8536fabb45ea006662e63bbc414dbef" target="_top" xlink:title=" ">
<polygon fill="white" stroke="black" points="334.5,-342.5 334.5,-361.5 472.5,-361.5 472.5,-342.5 334.5,-342.5"/>
<text text-anchor="middle" x="403.5" y="-349.5" font-family="Helvetica,sans-Serif" font-size="10.00">CDefinitions::getAttacker</text>
</a>
</g>
</g>
<!-- Node12&#45;&gt;Node13 -->
<g id="edge15" class="edge">
<title>Node12&#45;&gt;Node13</title>
<path fill="none" stroke="midnightblue" d="M257.38,-304.53C267.61,-307.15 278.29,-310.31 288,-314 304.91,-320.42 307.08,-326.6 324,-333 330.67,-335.52 337.79,-337.79 344.92,-339.81"/>
<polygon fill="midnightblue" stroke="midnightblue" points="344.04,-343.2 354.6,-342.41 345.85,-336.44 344.04,-343.2"/>
</g>
<!-- Node16 -->
<g id="node16" class="node">
<title>Node16</title>
<g id="a_node16"><a xlink:href="classCGame.html#a260a60819a5e6a8991e7f7983c51a509" target="_top" xlink:title=" ">
<polygon fill="white" stroke="black" points="362.5,-304.5 362.5,-323.5 444.5,-323.5 444.5,-304.5 362.5,-304.5"/>
<text text-anchor="middle" x="403.5" y="-311.5" font-family="Helvetica,sans-Serif" font-size="10.00">CGame::save</text>
</a>
</g>
</g>
<!-- Node15&#45;&gt;Node16 -->
<g id="edge18" class="edge">
<title>Node15&#45;&gt;Node16</title>
<path fill="none" stroke="midnightblue" d="M267.37,-227.51C274.71,-230.13 281.82,-233.55 288,-238 312.32,-255.51 299.66,-277.53 324,-295 332.37,-301.01 342.41,-305.13 352.46,-307.96"/>
<polygon fill="midnightblue" stroke="midnightblue" points="351.92,-311.43 362.46,-310.38 353.56,-304.63 351.92,-311.43"/>
</g>
<!-- Node16&#45;&gt;Node6 -->
<g id="edge21" class="edge">
<title>Node16&#45;&gt;Node6</title>
<path fill="none" stroke="midnightblue" d="M444.71,-316.79C458.05,-319.41 472.23,-324.24 483,-333 511.99,-356.59 497.88,-378.16 519,-409 534.48,-431.6 556.69,-453.94 572.34,-468.48"/>
<polygon fill="midnightblue" stroke="midnightblue" points="570.11,-471.18 579.85,-475.34 574.83,-466.01 570.11,-471.18"/>
</g>
<!-- Node17 -->
<g id="node17" class="node">
<title>Node17</title>
<g id="a_node17"><a xlink:href="classPlayer.html#a4290b069dee4760372951ba56983a4cb" target="_top" xlink:title=" ">
<polygon fill="white" stroke="black" points="534.5,-380.5 534.5,-399.5 649.5,-399.5 649.5,-380.5 534.5,-380.5"/>
<text text-anchor="middle" x="592" y="-387.5" font-family="Helvetica,sans-Serif" font-size="10.00">Player::getAttackers</text>
</a>
</g>
</g>
<!-- Node16&#45;&gt;Node17 -->
<g id="edge19" class="edge">
<title>Node16&#45;&gt;Node17</title>
<path fill="none" stroke="midnightblue" d="M444.51,-319.08C457.4,-321.9 471.35,-326.25 483,-333 503.13,-344.66 498.99,-359.13 519,-371 522.69,-373.19 526.63,-375.13 530.7,-376.85"/>
<polygon fill="midnightblue" stroke="midnightblue" points="529.77,-380.24 540.37,-380.47 532.23,-373.68 529.77,-380.24"/>
</g>
<!-- Node18 -->
<g id="node18" class="node">
<title>Node18</title>
<g id="a_node18"><a xlink:href="classPlayer.html#a7705c2b518ef16626bd14f44a445bf49" target="_top" xlink:title=" ">
<polygon fill="white" stroke="black" points="519,-342.5 519,-361.5 665,-361.5 665,-342.5 519,-342.5"/>
<text text-anchor="middle" x="592" y="-349.5" font-family="Helvetica,sans-Serif" font-size="10.00">Player::getAttackersQueue</text>
</a>
</g>
</g>
<!-- Node16&#45;&gt;Node18 -->
<g id="edge20" class="edge">
<title>Node16&#45;&gt;Node18</title>
<path fill="none" stroke="midnightblue" d="M444.51,-322.15C470.65,-327.48 505.18,-334.51 534.15,-340.42"/>
<polygon fill="midnightblue" stroke="midnightblue" points="533.64,-343.89 544.14,-342.45 535.04,-337.03 533.64,-343.89"/>
</g>
<!-- Node19 -->
<g id="node19" class="node">
<title>Node19</title>
<g id="a_node19"><a xlink:href="classPlayer.html#a58da876811cd1848aab2809f5758d315" target="_top" xlink:title=" ">
<polygon fill="white" stroke="black" points="537,-304.5 537,-323.5 647,-323.5 647,-304.5 537,-304.5"/>
<text text-anchor="middle" x="592" y="-311.5" font-family="Helvetica,sans-Serif" font-size="10.00">Player::getFinished</text>
</a>
</g>
</g>
<!-- Node16&#45;&gt;Node19 -->
<g id="edge22" class="edge">
<title>Node16&#45;&gt;Node19</title>
<path fill="none" stroke="midnightblue" d="M444.51,-314C468.43,-314 499.37,-314 526.65,-314"/>
<polygon fill="midnightblue" stroke="midnightblue" points="526.9,-317.5 536.9,-314 526.9,-310.5 526.9,-317.5"/>
</g>
<!-- Node20 -->
<g id="node20" class="node">
<title>Node20</title>
<g id="a_node20"><a xlink:href="classEnemy.html#a8eca7a1be6c0e00dc6f95c60157f0e8c" target="_top" xlink:title=" ">
<polygon fill="white" stroke="black" points="539.5,-266.5 539.5,-285.5 644.5,-285.5 644.5,-266.5 539.5,-266.5"/>
<text text-anchor="middle" x="592" y="-273.5" font-family="Helvetica,sans-Serif" font-size="10.00">Enemy::getTowers</text>
</a>
</g>
</g>
<!-- Node16&#45;&gt;Node20 -->
<g id="edge23" class="edge">
<title>Node16&#45;&gt;Node20</title>
<path fill="none" stroke="midnightblue" d="M444.51,-305.85C470.65,-300.52 505.18,-293.49 534.15,-287.58"/>
<polygon fill="midnightblue" stroke="midnightblue" points="535.04,-290.97 544.14,-285.55 533.64,-284.11 535.04,-290.97"/>
</g>
<!-- Node21 -->
<g id="node21" class="node">
<title>Node21</title>
<g id="a_node21"><a xlink:href="structCMenu.html#ac9ee7892120cb46cd7670bdf99eb9965" target="_top" xlink:title=" ">
<polygon fill="white" stroke="black" points="538.5,-228.5 538.5,-247.5 645.5,-247.5 645.5,-228.5 538.5,-228.5"/>
<text text-anchor="middle" x="592" y="-235.5" font-family="Helvetica,sans-Serif" font-size="10.00">CMenu::saveMenu</text>
</a>
</g>
</g>
<!-- Node16&#45;&gt;Node21 -->
<g id="edge24" class="edge">
<title>Node16&#45;&gt;Node21</title>
<path fill="none" stroke="midnightblue" d="M444.51,-308.92C457.4,-306.1 471.35,-301.75 483,-295 503.13,-283.34 498.99,-268.87 519,-257 522.69,-254.81 526.63,-252.87 530.7,-251.15"/>
<polygon fill="midnightblue" stroke="midnightblue" points="532.23,-254.32 540.37,-247.53 529.77,-247.76 532.23,-254.32"/>
</g>
<!-- Node22 -->
<g id="node22" class="node">
<title>Node22</title>
<g id="a_node22"><a xlink:href="Menu_8cpp.html#a991c482871701a7cb19cdbceae408dcb" target="_top" xlink:title=" ">
<polygon fill="white" stroke="black" points="701,-228.5 701,-247.5 761,-247.5 761,-228.5 701,-228.5"/>
<text text-anchor="middle" x="731" y="-235.5" font-family="Helvetica,sans-Serif" font-size="10.00">cleanPos</text>
</a>
</g>
</g>
<!-- Node21&#45;&gt;Node22 -->
<g id="edge25" class="edge">
<title>Node21&#45;&gt;Node22</title>
<path fill="none" stroke="midnightblue" d="M645.58,-238C660.49,-238 676.47,-238 690.47,-238"/>
<polygon fill="midnightblue" stroke="midnightblue" points="690.74,-241.5 700.74,-238 690.74,-234.5 690.74,-241.5"/>
</g>
<!-- Node24 -->
<g id="node24" class="node">
<title>Node24</title>
<g id="a_node24"><a xlink:href="classPlayer.html#a1c67211c58095aaea38d2b04d69ea320" target="_top" xlink:title=" ">
<polygon fill="white" stroke="black" points="334,-266.5 334,-285.5 473,-285.5 473,-266.5 334,-266.5"/>
<text text-anchor="middle" x="403.5" y="-273.5" font-family="Helvetica,sans-Serif" font-size="10.00">Player::damageAttackers</text>
</a>
</g>
</g>
<!-- Node23&#45;&gt;Node24 -->
<g id="edge27" class="edge">
<title>Node23&#45;&gt;Node24</title>
<path fill="none" stroke="midnightblue" d="M270.16,-190.55C276.51,-193.02 282.6,-196.12 288,-200 312.32,-217.51 299.66,-239.53 324,-257 326.68,-258.92 329.52,-260.65 332.49,-262.21"/>
<polygon fill="midnightblue" stroke="midnightblue" points="331.12,-265.43 341.67,-266.37 334.01,-259.05 331.12,-265.43"/>
</g>
<!-- Node25 -->
<g id="node25" class="node">
<title>Node25</title>
<g id="a_node25"><a xlink:href="classEnemy.html#a390bf077438219faa02e4afddbe48926" target="_top" xlink:title=" ">
<polygon fill="white" stroke="black" points="339,-228.5 339,-247.5 468,-247.5 468,-228.5 339,-228.5"/>
<text text-anchor="middle" x="403.5" y="-235.5" font-family="Helvetica,sans-Serif" font-size="10.00">Enemy::damageTowers</text>
</a>
</g>
</g>
<!-- Node23&#45;&gt;Node25 -->
<g id="edge28" class="edge">
<title>Node23&#45;&gt;Node25</title>
<path fill="none" stroke="midnightblue" d="M257.38,-190.53C267.61,-193.15 278.29,-196.31 288,-200 304.91,-206.42 307.08,-212.6 324,-219 330.67,-221.52 337.79,-223.79 344.92,-225.81"/>
<polygon fill="midnightblue" stroke="midnightblue" points="344.04,-229.2 354.6,-228.41 345.85,-222.44 344.04,-229.2"/>
</g>
<!-- Node26 -->
<g id="node26" class="node">
<title>Node26</title>
<g id="a_node26"><a xlink:href="classEnemy.html#a998ef3d944cd7973580c247895b811e3" target="_top" xlink:title=" ">
<polygon fill="white" stroke="black" points="324,-190.5 324,-209.5 483,-209.5 483,-190.5 324,-190.5"/>
<text text-anchor="middle" x="403.5" y="-197.5" font-family="Helvetica,sans-Serif" font-size="10.00">Enemy::getAttackersToAttack</text>
</a>
</g>
</g>
<!-- Node23&#45;&gt;Node26 -->
<g id="edge29" class="edge">
<title>Node23&#45;&gt;Node26</title>
<path fill="none" stroke="midnightblue" d="M276.58,-187.54C288.56,-188.72 301.23,-189.98 313.74,-191.22"/>
<polygon fill="midnightblue" stroke="midnightblue" points="313.43,-194.7 323.72,-192.2 314.12,-187.74 313.43,-194.7"/>
</g>
<!-- Node27 -->
<g id="node27" class="node">
<title>Node27</title>
<g id="a_node27"><a xlink:href="classPlayer.html#a040334eb4b145681595cc67168543b5d" target="_top" xlink:title=" ">
<polygon fill="white" stroke="black" points="331,-152.5 331,-171.5 476,-171.5 476,-152.5 331,-152.5"/>
<text text-anchor="middle" x="403.5" y="-159.5" font-family="Helvetica,sans-Serif" font-size="10.00">Player::getTowersToAttack</text>
</a>
</g>
</g>
<!-- Node23&#45;&gt;Node27 -->
<g id="edge30" class="edge">
<title>Node23&#45;&gt;Node27</title>
<path fill="none" stroke="midnightblue" d="M276.58,-174.46C290.77,-173.06 305.92,-171.56 320.63,-170.1"/>
<polygon fill="midnightblue" stroke="midnightblue" points="321.12,-173.57 330.72,-169.1 320.43,-166.6 321.12,-173.57"/>
</g>
<!-- Node28 -->
<g id="node28" class="node">
<title>Node28</title>
<g id="a_node28"><a xlink:href="logFile_8cpp.html#a4646ee780db7319bd0615817febd557c" target="_top" xlink:title=" ">
<polygon fill="white" stroke="black" points="361,-114.5 361,-133.5 446,-133.5 446,-114.5 361,-114.5"/>
<text text-anchor="middle" x="403.5" y="-121.5" font-family="Helvetica,sans-Serif" font-size="10.00">sendToLogFile</text>
</a>
</g>
</g>
<!-- Node23&#45;&gt;Node28 -->
<g id="edge31" class="edge">
<title>Node23&#45;&gt;Node28</title>
<path fill="none" stroke="midnightblue" d="M257.38,-171.47C267.61,-168.85 278.29,-165.69 288,-162 304.91,-155.58 307.08,-149.4 324,-143 332.57,-139.76 341.88,-136.93 351,-134.52"/>
<polygon fill="midnightblue" stroke="midnightblue" points="351.92,-137.9 360.77,-132.07 350.22,-131.11 351.92,-137.9"/>
</g>
<!-- Node31 -->
<g id="node31" class="node">
<title>Node31</title>
<g id="a_node31"><a xlink:href="classMap.html#a93e47351a83408edee40bef3198ef101" target="_top" xlink:title=" ">
<polygon fill="white" stroke="black" points="350.5,-76.5 350.5,-95.5 456.5,-95.5 456.5,-76.5 350.5,-76.5"/>
<text text-anchor="middle" x="403.5" y="-83.5" font-family="Helvetica,sans-Serif" font-size="10.00">Map::getLaneByID</text>
</a>
</g>
</g>
<!-- Node30&#45;&gt;Node31 -->
<g id="edge34" class="edge">
<title>Node30&#45;&gt;Node31</title>
<path fill="none" stroke="midnightblue" d="M255.52,-86C280.68,-86 312.42,-86 339.96,-86"/>
<polygon fill="midnightblue" stroke="midnightblue" points="340.29,-89.5 350.29,-86 340.29,-82.5 340.29,-89.5"/>
</g>
<!-- Node32 -->
<g id="node32" class="node">
<title>Node32</title>
<g id="a_node32"><a xlink:href="classMap.html#a4c6de1d62db7a7aca78b01838b8d0a6a" target="_top" xlink:title=" ">
<polygon fill="white" stroke="black" points="348.5,-38.5 348.5,-57.5 458.5,-57.5 458.5,-38.5 348.5,-38.5"/>
<text text-anchor="middle" x="403.5" y="-45.5" font-family="Helvetica,sans-Serif" font-size="10.00">Map::highlightLane</text>
</a>
</g>
</g>
<!-- Node30&#45;&gt;Node32 -->
<g id="edge35" class="edge">
<title>Node30&#45;&gt;Node32</title>
<path fill="none" stroke="midnightblue" d="M255.52,-77.09C282.09,-71.83 316,-65.12 344.55,-59.47"/>
<polygon fill="midnightblue" stroke="midnightblue" points="345.28,-62.89 354.41,-57.52 343.92,-56.03 345.28,-62.89"/>
</g>
<!-- Node34 -->
<g id="node34" class="node">
<title>Node34</title>
<g id="a_node34"><a xlink:href="classMap.html#af482c6f7d02d4e79c26097b53f4ce808" target="_top" xlink:title=" ">
<polygon fill="white" stroke="black" points="362.5,-0.5 362.5,-19.5 444.5,-19.5 444.5,-0.5 362.5,-0.5"/>
<text text-anchor="middle" x="403.5" y="-7.5" font-family="Helvetica,sans-Serif" font-size="10.00">Map::getType</text>
</a>
</g>
</g>
<!-- Node33&#45;&gt;Node34 -->
<g id="edge37" class="edge">
<title>Node33&#45;&gt;Node34</title>
<path fill="none" stroke="midnightblue" d="M272.04,-22.91C297.96,-20.35 327.73,-17.4 352.29,-14.97"/>
<polygon fill="midnightblue" stroke="midnightblue" points="352.86,-18.43 362.47,-13.96 352.17,-11.46 352.86,-18.43"/>
</g>
</g>
</svg>
