<?xml version="1.0" encoding="UTF-8" standalone="no"?>
<!DOCTYPE svg PUBLIC "-//W3C//DTD SVG 1.1//EN"
 "http://www.w3.org/Graphics/SVG/1.1/DTD/svg11.dtd">
<!-- Generated by graphviz version 2.43.0 (0)
 -->
<!-- Title: CGame Pages: 1 -->
<svg width="332pt" height="229pt"
 viewBox="0.00 0.00 332.49 229.00" xmlns="http://www.w3.org/2000/svg" xmlns:xlink="http://www.w3.org/1999/xlink">
<g id="graph0" class="graph" transform="scale(1 1) rotate(0) translate(4 225)">
<title>CGame</title>
<polygon fill="white" stroke="transparent" points="-4,4 -4,-225 328.49,-225 328.49,4 -4,4"/>
<!-- Node1 -->
<g id="node1" class="node">
<title>Node1</title>
<g id="a_node1"><a xlink:title=" ">
<polygon fill="#bfbfbf" stroke="black" points="116.99,-0.5 116.99,-19.5 169.99,-19.5 169.99,-0.5 116.99,-0.5"/>
<text text-anchor="middle" x="143.49" y="-7.5" font-family="Helvetica,sans-Serif" font-size="10.00">CGame</text>
</a>
</g>
</g>
<!-- Node2 -->
<g id="node2" class="node">
<title>Node2</title>
<g id="a_node2"><a xlink:href="classEnemy.html" target="_top" xlink:title=" ">
<polygon fill="white" stroke="black" points="81.49,-67.5 81.49,-86.5 131.49,-86.5 131.49,-67.5 81.49,-67.5"/>
<text text-anchor="middle" x="106.49" y="-74.5" font-family="Helvetica,sans-Serif" font-size="10.00">Enemy</text>
</a>
</g>
</g>
<!-- Node2&#45;&gt;Node1 -->
<g id="edge1" class="edge">
<title>Node2&#45;&gt;Node1</title>
<path fill="none" stroke="#9a32cd" stroke-dasharray="5,2" d="M89.2,-59.52C84.18,-52.74 81.1,-44.88 85.49,-38 92.47,-27.04 105.19,-20.46 116.93,-16.54"/>
<polygon fill="#9a32cd" stroke="#9a32cd" points="86.91,-62.22 96.17,-67.37 92.15,-57.57 86.91,-62.22"/>
<text text-anchor="middle" x="132.99" y="-41" font-family="Helvetica,sans-Serif" font-size="10.00"> m_tower_manager</text>
</g>
<!-- Node3 -->
<g id="node3" class="node">
<title>Node3</title>
<g id="a_node3"><a xlink:href="classMap.html" target="_top" xlink:title=" ">
<polygon fill="white" stroke="black" points="106.49,-134.5 106.49,-153.5 144.49,-153.5 144.49,-134.5 106.49,-134.5"/>
<text text-anchor="middle" x="125.49" y="-141.5" font-family="Helvetica,sans-Serif" font-size="10.00">Map</text>
</a>
</g>
</g>
<!-- Node3&#45;&gt;Node1 -->
<g id="edge4" class="edge">
<title>Node3&#45;&gt;Node1</title>
<path fill="none" stroke="#9a32cd" stroke-dasharray="5,2" d="M96.22,-137.25C53.1,-127.39 -19.84,-104.6 5.49,-67 30.4,-30 84.4,-17.44 116.97,-13.18"/>
<polygon fill="#9a32cd" stroke="#9a32cd" points="95.69,-140.72 106.21,-139.43 97.18,-133.88 95.69,-140.72"/>
<text text-anchor="middle" x="38.99" y="-74.5" font-family="Helvetica,sans-Serif" font-size="10.00"> m_gameMap</text>
</g>
<!-- Node3&#45;&gt;Node2 -->
<g id="edge2" class="edge">
<title>Node3&#45;&gt;Node2</title>
<path fill="none" stroke="#9a32cd" stroke-dasharray="5,2" d="M102.99,-127.71C99.54,-124.28 96.47,-120.36 94.49,-116 90.07,-106.3 95.31,-94.52 100.19,-86.67"/>
<polygon fill="#9a32cd" stroke="#9a32cd" points="100.99,-130.59 110.89,-134.37 105.5,-125.24 100.99,-130.59"/>
<text text-anchor="middle" x="114.49" y="-108" font-family="Helvetica,sans-Serif" font-size="10.00"> m_map</text>
</g>
<!-- Node6 -->
<g id="node6" class="node">
<title>Node6</title>
<g id="a_node6"><a xlink:href="classPlayer.html" target="_top" xlink:title=" ">
<polygon fill="white" stroke="black" points="174.99,-67.5 174.99,-86.5 221.99,-86.5 221.99,-67.5 174.99,-67.5"/>
<text text-anchor="middle" x="198.49" y="-74.5" font-family="Helvetica,sans-Serif" font-size="10.00">Player</text>
</a>
</g>
</g>
<!-- Node3&#45;&gt;Node6 -->
<g id="edge7" class="edge">
<title>Node3&#45;&gt;Node6</title>
<path fill="none" stroke="#9a32cd" stroke-dasharray="5,2" d="M137.97,-126.11C143.53,-119.16 150.41,-111.29 157.49,-105 165.38,-97.98 175.25,-91.42 183.33,-86.53"/>
<polygon fill="#9a32cd" stroke="#9a32cd" points="135.04,-124.17 131.72,-134.23 140.59,-128.44 135.04,-124.17"/>
<text text-anchor="middle" x="177.49" y="-108" font-family="Helvetica,sans-Serif" font-size="10.00"> m_map</text>
</g>
<!-- Node4 -->
<g id="node4" class="node">
<title>Node4</title>
<g id="a_node4"><a xlink:href="classPoint.html" target="_top" xlink:title=" ">
<polygon fill="white" stroke="black" points="163.99,-201.5 163.99,-220.5 204.99,-220.5 204.99,-201.5 163.99,-201.5"/>
<text text-anchor="middle" x="184.49" y="-208.5" font-family="Helvetica,sans-Serif" font-size="10.00">Point</text>
</a>
</g>
</g>
<!-- Node4&#45;&gt;Node3 -->
<g id="edge3" class="edge">
<title>Node4&#45;&gt;Node3</title>
<path fill="none" stroke="#9a32cd" stroke-dasharray="5,2" d="M169.63,-193.63C158.09,-180.92 142.55,-163.8 133.32,-153.63"/>
<polygon fill="#9a32cd" stroke="#9a32cd" points="167.22,-196.18 176.53,-201.23 172.4,-191.48 167.22,-196.18"/>
<text text-anchor="middle" x="176.99" y="-175" font-family="Helvetica,sans-Serif" font-size="10.00"> m_exit</text>
</g>
<!-- Node4&#45;&gt;Node6 -->
<g id="edge8" class="edge">
<title>Node4&#45;&gt;Node6</title>
<path fill="none" stroke="#9a32cd" stroke-dasharray="5,2" d="M194.31,-192.4C195.61,-189.34 196.75,-186.14 197.49,-183 205.64,-148.03 201.84,-104.7 199.65,-86.59"/>
<polygon fill="#9a32cd" stroke="#9a32cd" points="191.16,-190.85 189.85,-201.36 197.43,-193.96 191.16,-190.85"/>
<text text-anchor="middle" x="237.99" y="-141.5" font-family="Helvetica,sans-Serif" font-size="10.00"> m_spawnLane</text>
</g>
<!-- Node5 -->
<g id="node5" class="node">
<title>Node5</title>
<g id="a_node5"><a xlink:href="classCDefinitions.html" target="_top" xlink:title=" ">
<polygon fill="white" stroke="black" points="240.49,-67.5 240.49,-86.5 316.49,-86.5 316.49,-67.5 240.49,-67.5"/>
<text text-anchor="middle" x="278.49" y="-74.5" font-family="Helvetica,sans-Serif" font-size="10.00">CDefinitions</text>
</a>
</g>
</g>
<!-- Node5&#45;&gt;Node1 -->
<g id="edge5" class="edge">
<title>Node5&#45;&gt;Node1</title>
<path fill="none" stroke="#9a32cd" stroke-dasharray="5,2" d="M265.72,-59.8C258.95,-52.2 250.07,-43.6 240.49,-38 218.6,-25.22 190.38,-18.26 170.03,-14.62"/>
<polygon fill="#9a32cd" stroke="#9a32cd" points="263.05,-62.07 272.16,-67.47 268.41,-57.57 263.05,-62.07"/>
<text text-anchor="middle" x="289.49" y="-41" font-family="Helvetica,sans-Serif" font-size="10.00"> m_definitions</text>
</g>
<!-- Node6&#45;&gt;Node1 -->
<g id="edge6" class="edge">
<title>Node6&#45;&gt;Node1</title>
<path fill="none" stroke="#9a32cd" stroke-dasharray="5,2" d="M192.08,-57.84C189.18,-51.17 185.31,-43.83 180.49,-38 174.4,-30.65 165.89,-24.26 158.57,-19.54"/>
<polygon fill="#9a32cd" stroke="#9a32cd" points="188.93,-59.42 195.82,-67.46 195.46,-56.88 188.93,-59.42"/>
<text text-anchor="middle" x="211.99" y="-41" font-family="Helvetica,sans-Serif" font-size="10.00"> m_player</text>
</g>
</g>
</svg>
