<?xml version="1.0" encoding="UTF-8" standalone="no"?>
<!DOCTYPE svg PUBLIC "-//W3C//DTD SVG 1.1//EN"
 "http://www.w3.org/Graphics/SVG/1.1/DTD/svg11.dtd">
<!-- Generated by graphviz version 2.43.0 (0)
 -->
<!-- Title: Map::updateMap Pages: 1 -->
<svg width="426pt" height="360pt"
 viewBox="0.00 0.00 426.00 359.97" xmlns="http://www.w3.org/2000/svg" xmlns:xlink="http://www.w3.org/1999/xlink">
<g id="graph0" class="graph" transform="scale(1 1) rotate(0) translate(4 355.97)">
<title>Map::updateMap</title>
<polygon fill="white" stroke="transparent" points="-4,4 -4,-355.97 422,-355.97 422,4 -4,4"/>
<!-- Node1 -->
<g id="node1" class="node">
<title>Node1</title>
<g id="a_node1"><a xlink:title=" ">
<polygon fill="#bfbfbf" stroke="black" points="0,-171.5 0,-190.5 98,-190.5 98,-171.5 0,-171.5"/>
<text text-anchor="middle" x="49" y="-178.5" font-family="Helvetica,sans-Serif" font-size="10.00">Map::updateMap</text>
</a>
</g>
</g>
<!-- Node2 -->
<g id="node2" class="node">
<title>Node2</title>
<g id="a_node2"><a xlink:href="classMap.html#ae4968d82a24a805f98028a0a5b1a01e8" target="_top" xlink:title=" ">
<polygon fill="white" stroke="black" points="151,-304.5 151,-323.5 256,-323.5 256,-304.5 151,-304.5"/>
<text text-anchor="middle" x="203.5" y="-311.5" font-family="Helvetica,sans-Serif" font-size="10.00">Map::addToRadius</text>
</a>
</g>
</g>
<!-- Node1&#45;&gt;Node2 -->
<g id="edge1" class="edge">
<title>Node1&#45;&gt;Node2</title>
<path fill="none" stroke="midnightblue" d="M54.33,-190.64C64.73,-212.68 93.31,-266.97 134,-295 136.88,-296.99 139.97,-298.76 143.17,-300.36"/>
<polygon fill="midnightblue" stroke="midnightblue" points="141.9,-303.62 152.47,-304.38 144.68,-297.19 141.9,-303.62"/>
</g>
<!-- Node3 -->
<g id="node3" class="node">
<title>Node3</title>
<g id="a_node3"><a xlink:href="classEntity.html#a8c0279c56eee0a37bc905c79c5d15cfd" target="_top" xlink:title=" ">
<polygon fill="white" stroke="black" points="325,-304.5 325,-323.5 402,-323.5 402,-304.5 325,-304.5"/>
<text text-anchor="middle" x="363.5" y="-311.5" font-family="Helvetica,sans-Serif" font-size="10.00">Entity::getID</text>
</a>
</g>
</g>
<!-- Node1&#45;&gt;Node3 -->
<g id="edge7" class="edge">
<title>Node1&#45;&gt;Node3</title>
<path fill="none" stroke="midnightblue" d="M51.88,-190.84C57.88,-219.16 79.47,-300.83 134,-333 196.13,-369.65 284.79,-344.9 331.29,-327.3"/>
<polygon fill="midnightblue" stroke="midnightblue" points="332.78,-330.48 340.82,-323.57 330.23,-323.96 332.78,-330.48"/>
</g>
<!-- Node4 -->
<g id="node4" class="node">
<title>Node4</title>
<g id="a_node4"><a xlink:href="classEntity.html#aaaef5a4ba021755cd32ae39ecbbb38cd" target="_top" xlink:title=" ">
<polygon fill="white" stroke="black" points="319,-266.5 319,-285.5 408,-285.5 408,-266.5 319,-266.5"/>
<text text-anchor="middle" x="363.5" y="-273.5" font-family="Helvetica,sans-Serif" font-size="10.00">Entity::getType</text>
</a>
</g>
</g>
<!-- Node1&#45;&gt;Node4 -->
<g id="edge10" class="edge">
<title>Node1&#45;&gt;Node4</title>
<path fill="none" stroke="midnightblue" d="M68.62,-190.6C85.38,-198.95 110.87,-210.96 134,-219 166.24,-230.21 253.63,-251.05 310.52,-264.18"/>
<polygon fill="midnightblue" stroke="midnightblue" points="309.88,-267.63 320.41,-266.46 311.45,-260.81 309.88,-267.63"/>
</g>
<!-- Node5 -->
<g id="node5" class="node">
<title>Node5</title>
<g id="a_node5"><a xlink:href="classMap.html#a12616a2a3c221b40b7bb56efb7f32330" target="_top" xlink:title=" ">
<polygon fill="white" stroke="black" points="149.5,-190.5 149.5,-209.5 257.5,-209.5 257.5,-190.5 149.5,-190.5"/>
<text text-anchor="middle" x="203.5" y="-197.5" font-family="Helvetica,sans-Serif" font-size="10.00">Map::checkBounds</text>
</a>
</g>
</g>
<!-- Node1&#45;&gt;Node5 -->
<g id="edge4" class="edge">
<title>Node1&#45;&gt;Node5</title>
<path fill="none" stroke="midnightblue" d="M98.25,-187.01C111.19,-188.62 125.37,-190.39 138.99,-192.09"/>
<polygon fill="midnightblue" stroke="midnightblue" points="138.91,-195.6 149.27,-193.37 139.78,-188.66 138.91,-195.6"/>
</g>
<!-- Node7 -->
<g id="node7" class="node">
<title>Node7</title>
<g id="a_node7"><a xlink:href="classEntity.html#ab927c960c0767756d2ec47d965a8605c" target="_top" xlink:title=" ">
<polygon fill="white" stroke="black" points="154.5,-152.5 154.5,-171.5 252.5,-171.5 252.5,-152.5 154.5,-152.5"/>
<text text-anchor="middle" x="203.5" y="-159.5" font-family="Helvetica,sans-Serif" font-size="10.00">Entity::getDeltas</text>
</a>
</g>
</g>
<!-- Node1&#45;&gt;Node7 -->
<g id="edge6" class="edge">
<title>Node1&#45;&gt;Node7</title>
<path fill="none" stroke="midnightblue" d="M98.25,-174.99C112.79,-173.18 128.9,-171.17 144.02,-169.29"/>
<polygon fill="midnightblue" stroke="midnightblue" points="144.81,-172.71 154.3,-168.01 143.94,-165.77 144.81,-172.71"/>
</g>
<!-- Node8 -->
<g id="node8" class="node">
<title>Node8</title>
<g id="a_node8"><a xlink:href="classEntity.html#a52fb5526ad22c0f34358aadd9f545856" target="_top" xlink:title=" ">
<polygon fill="white" stroke="black" points="151,-114.5 151,-133.5 256,-133.5 256,-114.5 151,-114.5"/>
<text text-anchor="middle" x="203.5" y="-121.5" font-family="Helvetica,sans-Serif" font-size="10.00">Entity::getPosition</text>
</a>
</g>
</g>
<!-- Node1&#45;&gt;Node8 -->
<g id="edge8" class="edge">
<title>Node1&#45;&gt;Node8</title>
<path fill="none" stroke="midnightblue" d="M69,-171.39C85.8,-163.13 111.13,-151.29 134,-143 140.47,-140.65 147.37,-138.43 154.21,-136.38"/>
<polygon fill="midnightblue" stroke="midnightblue" points="155.49,-139.66 164.13,-133.52 153.55,-132.93 155.49,-139.66"/>
</g>
<!-- Node9 -->
<g id="node9" class="node">
<title>Node9</title>
<g id="a_node9"><a xlink:href="classEntity.html#aa9b4d32a894d4117dddcdff3c46842ae" target="_top" xlink:title=" ">
<polygon fill="white" stroke="black" points="152,-76.5 152,-95.5 255,-95.5 255,-76.5 152,-76.5"/>
<text text-anchor="middle" x="203.5" y="-83.5" font-family="Helvetica,sans-Serif" font-size="10.00">Entity::getSymbol</text>
</a>
</g>
</g>
<!-- Node1&#45;&gt;Node9 -->
<g id="edge9" class="edge">
<title>Node1&#45;&gt;Node9</title>
<path fill="none" stroke="midnightblue" d="M58,-171.28C71.81,-155.11 101.78,-122.73 134,-105 138,-102.8 142.28,-100.84 146.66,-99.09"/>
<polygon fill="midnightblue" stroke="midnightblue" points="148.15,-102.28 156.38,-95.61 145.79,-95.69 148.15,-102.28"/>
</g>
<!-- Node10 -->
<g id="node10" class="node">
<title>Node10</title>
<g id="a_node10"><a xlink:href="classEntity.html#a6171cc57bf9ab1a0d0fe18b7a8acc4ea" target="_top" xlink:title=" ">
<polygon fill="white" stroke="black" points="164.5,-38.5 164.5,-57.5 242.5,-57.5 242.5,-38.5 164.5,-38.5"/>
<text text-anchor="middle" x="203.5" y="-45.5" font-family="Helvetica,sans-Serif" font-size="10.00">Entity::move</text>
</a>
</g>
</g>
<!-- Node1&#45;&gt;Node10 -->
<g id="edge11" class="edge">
<title>Node1&#45;&gt;Node10</title>
<path fill="none" stroke="midnightblue" d="M54.33,-171.36C64.73,-149.32 93.31,-95.03 134,-67 140.15,-62.76 147.22,-59.47 154.43,-56.91"/>
<polygon fill="midnightblue" stroke="midnightblue" points="155.76,-60.16 164.27,-53.85 153.69,-53.47 155.76,-60.16"/>
</g>
<!-- Node11 -->
<g id="node11" class="node">
<title>Node11</title>
<g id="a_node11"><a xlink:href="classMap.html#a886aa8a72b03b24d6b60202d9cddc634" target="_top" xlink:title=" ">
<polygon fill="white" stroke="black" points="134,-266.5 134,-285.5 273,-285.5 273,-266.5 134,-266.5"/>
<text text-anchor="middle" x="203.5" y="-273.5" font-family="Helvetica,sans-Serif" font-size="10.00">Map::removeFromRadius</text>
</a>
</g>
</g>
<!-- Node1&#45;&gt;Node11 -->
<g id="edge12" class="edge">
<title>Node1&#45;&gt;Node11</title>
<path fill="none" stroke="midnightblue" d="M58.96,-190.55C73.45,-205.51 103.5,-234.56 134,-252 141.39,-256.23 149.65,-259.89 157.81,-263"/>
<polygon fill="midnightblue" stroke="midnightblue" points="156.68,-266.32 167.28,-266.39 159.04,-259.73 156.68,-266.32"/>
</g>
<!-- Node12 -->
<g id="node12" class="node">
<title>Node12</title>
<g id="a_node12"><a xlink:href="classMap.html#a68610141c789e77187bc53fc1510dc15" target="_top" xlink:title=" ">
<polygon fill="white" stroke="black" points="157.5,-0.5 157.5,-19.5 249.5,-19.5 249.5,-0.5 157.5,-0.5"/>
<text text-anchor="middle" x="203.5" y="-7.5" font-family="Helvetica,sans-Serif" font-size="10.00">Map::revertCell</text>
</a>
</g>
</g>
<!-- Node1&#45;&gt;Node12 -->
<g id="edge15" class="edge">
<title>Node1&#45;&gt;Node12</title>
<path fill="none" stroke="midnightblue" d="M52.45,-171.46C59.85,-144.65 84.54,-68.04 134,-29 138.13,-25.74 142.79,-23.04 147.68,-20.8"/>
<polygon fill="midnightblue" stroke="midnightblue" points="149.26,-23.94 157.3,-17.04 146.71,-17.42 149.26,-23.94"/>
</g>
<!-- Node2&#45;&gt;Node3 -->
<g id="edge2" class="edge">
<title>Node2&#45;&gt;Node3</title>
<path fill="none" stroke="midnightblue" d="M256.24,-314C274.98,-314 296.06,-314 314.47,-314"/>
<polygon fill="midnightblue" stroke="midnightblue" points="314.68,-317.5 324.68,-314 314.68,-310.5 314.68,-317.5"/>
</g>
<!-- Node2&#45;&gt;Node4 -->
<g id="edge3" class="edge">
<title>Node2&#45;&gt;Node4</title>
<path fill="none" stroke="midnightblue" d="M244.37,-304.41C265.22,-299.4 290.93,-293.21 313.04,-287.89"/>
<polygon fill="midnightblue" stroke="midnightblue" points="314.01,-291.26 322.92,-285.52 312.38,-284.46 314.01,-291.26"/>
</g>
<!-- Node6 -->
<g id="node6" class="node">
<title>Node6</title>
<g id="a_node6"><a xlink:href="classMap.html#a286853d8475bc1bbede582c89e9b1491" target="_top" xlink:title=" ">
<polygon fill="white" stroke="black" points="309,-190.5 309,-209.5 418,-209.5 418,-190.5 309,-190.5"/>
<text text-anchor="middle" x="363.5" y="-197.5" font-family="Helvetica,sans-Serif" font-size="10.00">Map::getMapWidth</text>
</a>
</g>
</g>
<!-- Node5&#45;&gt;Node6 -->
<g id="edge5" class="edge">
<title>Node5&#45;&gt;Node6</title>
<path fill="none" stroke="midnightblue" d="M257.55,-200C270.7,-200 284.92,-200 298.53,-200"/>
<polygon fill="midnightblue" stroke="midnightblue" points="298.78,-203.5 308.78,-200 298.78,-196.5 298.78,-203.5"/>
</g>
<!-- Node11&#45;&gt;Node3 -->
<g id="edge13" class="edge">
<title>Node11&#45;&gt;Node3</title>
<path fill="none" stroke="midnightblue" d="M244.37,-285.59C265.77,-290.74 292.31,-297.12 314.8,-302.53"/>
<polygon fill="midnightblue" stroke="midnightblue" points="314.28,-306 324.82,-304.94 315.91,-299.2 314.28,-306"/>
</g>
<!-- Node11&#45;&gt;Node4 -->
<g id="edge14" class="edge">
<title>Node11&#45;&gt;Node4</title>
<path fill="none" stroke="midnightblue" d="M273.34,-276C285.18,-276 297.34,-276 308.71,-276"/>
<polygon fill="midnightblue" stroke="midnightblue" points="308.9,-279.5 318.9,-276 308.9,-272.5 308.9,-279.5"/>
</g>
</g>
</svg>
