<?xml version="1.0" encoding="UTF-8" standalone="no"?>
<!DOCTYPE svg PUBLIC "-//W3C//DTD SVG 1.1//EN"
 "http://www.w3.org/Graphics/SVG/1.1/DTD/svg11.dtd">
<!-- Generated by graphviz version 2.43.0 (0)
 -->
<!-- Title: chargerAttacker Pages: 1 -->
<svg width="128pt" height="209pt"
 viewBox="0.00 0.00 128.00 209.00" xmlns="http://www.w3.org/2000/svg" xmlns:xlink="http://www.w3.org/1999/xlink">
<g id="graph0" class="graph" transform="scale(1 1) rotate(0) translate(4 205)">
<title>chargerAttacker</title>
<polygon fill="white" stroke="transparent" points="-4,4 -4,-205 124,-205 124,4 -4,4"/>
<!-- Node1 -->
<g id="node1" class="node">
<title>Node1</title>
<g id="a_node1"><a xlink:title=" ">
<polygon fill="#bfbfbf" stroke="black" points="0,-0.5 0,-19.5 94,-19.5 94,-0.5 0,-0.5"/>
<text text-anchor="middle" x="47" y="-7.5" font-family="Helvetica,sans-Serif" font-size="10.00">chargerAttacker</text>
</a>
</g>
</g>
<!-- Node2 -->
<g id="node2" class="node">
<title>Node2</title>
<g id="a_node2"><a xlink:href="classAttacker.html" target="_top" xlink:title=" ">
<polygon fill="white" stroke="black" points="18.5,-57.5 18.5,-76.5 75.5,-76.5 75.5,-57.5 18.5,-57.5"/>
<text text-anchor="middle" x="47" y="-64.5" font-family="Helvetica,sans-Serif" font-size="10.00">Attacker</text>
</a>
</g>
</g>
<!-- Node2&#45;&gt;Node1 -->
<g id="edge1" class="edge">
<title>Node2&#45;&gt;Node1</title>
<path fill="none" stroke="midnightblue" d="M47,-47.12C47,-37.82 47,-27.06 47,-19.71"/>
<polygon fill="midnightblue" stroke="midnightblue" points="43.5,-47.41 47,-57.41 50.5,-47.41 43.5,-47.41"/>
</g>
<!-- Node3 -->
<g id="node3" class="node">
<title>Node3</title>
<g id="a_node3"><a xlink:href="classEntity.html" target="_top" xlink:title=" ">
<polygon fill="white" stroke="black" points="24.5,-114.5 24.5,-133.5 69.5,-133.5 69.5,-114.5 24.5,-114.5"/>
<text text-anchor="middle" x="47" y="-121.5" font-family="Helvetica,sans-Serif" font-size="10.00">Entity</text>
</a>
</g>
</g>
<!-- Node3&#45;&gt;Node2 -->
<g id="edge2" class="edge">
<title>Node3&#45;&gt;Node2</title>
<path fill="none" stroke="midnightblue" d="M47,-104.12C47,-94.82 47,-84.06 47,-76.71"/>
<polygon fill="midnightblue" stroke="midnightblue" points="43.5,-104.41 47,-114.41 50.5,-104.41 43.5,-104.41"/>
</g>
<!-- Node4 -->
<g id="node4" class="node">
<title>Node4</title>
<g id="a_node4"><a xlink:href="classMap.html" target="_top" xlink:title=" ">
<polygon fill="white" stroke="black" points="28,-181.5 28,-200.5 66,-200.5 66,-181.5 28,-181.5"/>
<text text-anchor="middle" x="47" y="-188.5" font-family="Helvetica,sans-Serif" font-size="10.00">Map</text>
</a>
</g>
</g>
<!-- Node4&#45;&gt;Node3 -->
<g id="edge3" class="edge">
<title>Node4&#45;&gt;Node3</title>
<path fill="none" stroke="#9a32cd" stroke-dasharray="5,2" d="M47,-171.04C47,-158.67 47,-143.12 47,-133.63"/>
<polygon fill="#9a32cd" stroke="#9a32cd" points="43.5,-171.23 47,-181.23 50.5,-171.23 43.5,-171.23"/>
<text text-anchor="middle" x="83.5" y="-155" font-family="Helvetica,sans-Serif" font-size="10.00"> m_sharedMap</text>
</g>
</g>
</svg>
