<?xml version="1.0" encoding="UTF-8" standalone="no"?>
<!DOCTYPE svg PUBLIC "-//W3C//DTD SVG 1.1//EN"
 "http://www.w3.org/Graphics/SVG/1.1/DTD/svg11.dtd">
<!-- Generated by graphviz version 2.43.0 (0)
 -->
<!-- Title: Map::updateMap Pages: 1 -->
<svg width="247pt" height="180pt"
 viewBox="0.00 0.00 247.00 180.00" xmlns="http://www.w3.org/2000/svg" xmlns:xlink="http://www.w3.org/1999/xlink">
<g id="graph0" class="graph" transform="scale(1 1) rotate(0) translate(4 176)">
<title>Map::updateMap</title>
<polygon fill="white" stroke="transparent" points="-4,4 -4,-176 243,-176 243,4 -4,4"/>
<!-- Node1 -->
<g id="node1" class="node">
<title>Node1</title>
<g id="a_node1"><a xlink:title="Map::updateMap.">
<polygon fill="#bfbfbf" stroke="black" points="0,-76.5 0,-95.5 98,-95.5 98,-76.5 0,-76.5"/>
<text text-anchor="middle" x="49" y="-83.5" font-family="Helvetica,sans-Serif" font-size="10.00">Map::updateMap</text>
</a>
</g>
</g>
<!-- Node2 -->
<g id="node2" class="node">
<title>Node2</title>
<g id="a_node2"><a xlink:href="classEntity.html#ae18a1a6367fa577ecc7e5889679b285c" target="_top" xlink:title=" ">
<polygon fill="white" stroke="black" points="148,-152.5 148,-171.5 225,-171.5 225,-152.5 148,-152.5"/>
<text text-anchor="middle" x="186.5" y="-159.5" font-family="Helvetica,sans-Serif" font-size="10.00">Entity::getID</text>
</a>
</g>
</g>
<!-- Node1&#45;&gt;Node2 -->
<g id="edge1" class="edge">
<title>Node1&#45;&gt;Node2</title>
<path fill="none" stroke="midnightblue" d="M62.21,-95.69C78.06,-107.93 106.88,-129.06 134,-143 137.97,-145.04 142.21,-146.97 146.49,-148.76"/>
<polygon fill="midnightblue" stroke="midnightblue" points="145.24,-152.03 155.83,-152.45 147.81,-145.52 145.24,-152.03"/>
</g>
<!-- Node3 -->
<g id="node3" class="node">
<title>Node3</title>
<g id="a_node3"><a xlink:href="classEntity.html#a52fb5526ad22c0f34358aadd9f545856" target="_top" xlink:title=" ">
<polygon fill="white" stroke="black" points="134,-114.5 134,-133.5 239,-133.5 239,-114.5 134,-114.5"/>
<text text-anchor="middle" x="186.5" y="-121.5" font-family="Helvetica,sans-Serif" font-size="10.00">Entity::getPosition</text>
</a>
</g>
</g>
<!-- Node1&#45;&gt;Node3 -->
<g id="edge2" class="edge">
<title>Node1&#45;&gt;Node3</title>
<path fill="none" stroke="midnightblue" d="M84.19,-95.59C101.6,-100.47 122.97,-106.46 141.59,-111.68"/>
<polygon fill="midnightblue" stroke="midnightblue" points="140.74,-115.08 151.32,-114.41 142.64,-108.34 140.74,-115.08"/>
</g>
<!-- Node4 -->
<g id="node4" class="node">
<title>Node4</title>
<g id="a_node4"><a xlink:href="classEntity.html#aa9b4d32a894d4117dddcdff3c46842ae" target="_top" xlink:title=" ">
<polygon fill="white" stroke="black" points="135,-76.5 135,-95.5 238,-95.5 238,-76.5 135,-76.5"/>
<text text-anchor="middle" x="186.5" y="-83.5" font-family="Helvetica,sans-Serif" font-size="10.00">Entity::getSymbol</text>
</a>
</g>
</g>
<!-- Node1&#45;&gt;Node4 -->
<g id="edge3" class="edge">
<title>Node1&#45;&gt;Node4</title>
<path fill="none" stroke="midnightblue" d="M98.15,-86C106.68,-86 115.67,-86 124.49,-86"/>
<polygon fill="midnightblue" stroke="midnightblue" points="124.75,-89.5 134.75,-86 124.75,-82.5 124.75,-89.5"/>
</g>
<!-- Node5 -->
<g id="node5" class="node">
<title>Node5</title>
<g id="a_node5"><a xlink:href="classEntity.html#aaaef5a4ba021755cd32ae39ecbbb38cd" target="_top" xlink:title=" ">
<polygon fill="white" stroke="black" points="142,-38.5 142,-57.5 231,-57.5 231,-38.5 142,-38.5"/>
<text text-anchor="middle" x="186.5" y="-45.5" font-family="Helvetica,sans-Serif" font-size="10.00">Entity::getType</text>
</a>
</g>
</g>
<!-- Node1&#45;&gt;Node5 -->
<g id="edge4" class="edge">
<title>Node1&#45;&gt;Node5</title>
<path fill="none" stroke="midnightblue" d="M84.19,-76.41C101.6,-71.53 122.97,-65.54 141.59,-60.32"/>
<polygon fill="midnightblue" stroke="midnightblue" points="142.64,-63.66 151.32,-57.59 140.74,-56.92 142.64,-63.66"/>
</g>
<!-- Node6 -->
<g id="node6" class="node">
<title>Node6</title>
<g id="a_node6"><a xlink:href="classEntity.html#a6171cc57bf9ab1a0d0fe18b7a8acc4ea" target="_top" xlink:title=" ">
<polygon fill="white" stroke="black" points="147.5,-0.5 147.5,-19.5 225.5,-19.5 225.5,-0.5 147.5,-0.5"/>
<text text-anchor="middle" x="186.5" y="-7.5" font-family="Helvetica,sans-Serif" font-size="10.00">Entity::move</text>
</a>
</g>
</g>
<!-- Node1&#45;&gt;Node6 -->
<g id="edge5" class="edge">
<title>Node1&#45;&gt;Node6</title>
<path fill="none" stroke="midnightblue" d="M62.21,-76.31C78.06,-64.07 106.88,-42.94 134,-29 137.97,-26.96 142.21,-25.03 146.49,-23.24"/>
<polygon fill="midnightblue" stroke="midnightblue" points="147.81,-26.48 155.83,-19.55 145.24,-19.97 147.81,-26.48"/>
</g>
</g>
</svg>
