<?xml version="1.0" encoding="UTF-8" standalone="no"?>
<!DOCTYPE svg PUBLIC "-//W3C//DTD SVG 1.1//EN"
 "http://www.w3.org/Graphics/SVG/1.1/DTD/svg11.dtd">
<!-- Generated by graphviz version 2.43.0 (0)
 -->
<!-- Title: Attacker Pages: 1 -->
<svg width="136pt" height="229pt"
 viewBox="0.00 0.00 135.50 229.00" xmlns="http://www.w3.org/2000/svg" xmlns:xlink="http://www.w3.org/1999/xlink">
<g id="graph0" class="graph" transform="scale(1 1) rotate(0) translate(4 225)">
<title>Attacker</title>
<polygon fill="white" stroke="transparent" points="-4,4 -4,-225 131.5,-225 131.5,4 -4,4"/>
<!-- Node1 -->
<g id="node1" class="node">
<title>Node1</title>
<g id="a_node1"><a xlink:title=" ">
<polygon fill="#bfbfbf" stroke="black" points="28,-0.5 28,-19.5 85,-19.5 85,-0.5 28,-0.5"/>
<text text-anchor="middle" x="56.5" y="-7.5" font-family="Helvetica,sans-Serif" font-size="10.00">Attacker</text>
</a>
</g>
</g>
<!-- Node2 -->
<g id="node2" class="node">
<title>Node2</title>
<g id="a_node2"><a xlink:href="classEntity.html" target="_top" xlink:title=" ">
<polygon fill="white" stroke="black" points="0,-67.5 0,-86.5 45,-86.5 45,-67.5 0,-67.5"/>
<text text-anchor="middle" x="22.5" y="-74.5" font-family="Helvetica,sans-Serif" font-size="10.00">Entity</text>
</a>
</g>
</g>
<!-- Node2&#45;&gt;Node1 -->
<g id="edge1" class="edge">
<title>Node2&#45;&gt;Node1</title>
<path fill="none" stroke="midnightblue" d="M31.83,-58.16C38.39,-45.63 46.87,-29.41 51.99,-19.63"/>
<polygon fill="midnightblue" stroke="midnightblue" points="28.62,-56.75 27.09,-67.23 34.82,-60 28.62,-56.75"/>
</g>
<!-- Node3 -->
<g id="node3" class="node">
<title>Node3</title>
<g id="a_node3"><a xlink:href="classMap.html" target="_top" xlink:title=" ">
<polygon fill="white" stroke="black" points="3.5,-134.5 3.5,-153.5 41.5,-153.5 41.5,-134.5 3.5,-134.5"/>
<text text-anchor="middle" x="22.5" y="-141.5" font-family="Helvetica,sans-Serif" font-size="10.00">Map</text>
</a>
</g>
</g>
<!-- Node3&#45;&gt;Node2 -->
<g id="edge2" class="edge">
<title>Node3&#45;&gt;Node2</title>
<path fill="none" stroke="#9a32cd" stroke-dasharray="5,2" d="M22.5,-124.04C22.5,-111.67 22.5,-96.12 22.5,-86.63"/>
<polygon fill="#9a32cd" stroke="#9a32cd" points="19,-124.23 22.5,-134.23 26,-124.23 19,-124.23"/>
<text text-anchor="middle" x="59" y="-108" font-family="Helvetica,sans-Serif" font-size="10.00"> m_sharedMap</text>
</g>
<!-- Node4 -->
<g id="node4" class="node">
<title>Node4</title>
<g id="a_node4"><a xlink:href="classPoint.html" target="_top" xlink:title=" ">
<polygon fill="white" stroke="black" points="2,-201.5 2,-220.5 43,-220.5 43,-201.5 2,-201.5"/>
<text text-anchor="middle" x="22.5" y="-208.5" font-family="Helvetica,sans-Serif" font-size="10.00">Point</text>
</a>
</g>
</g>
<!-- Node4&#45;&gt;Node3 -->
<g id="edge3" class="edge">
<title>Node4&#45;&gt;Node3</title>
<path fill="none" stroke="#9a32cd" stroke-dasharray="5,2" d="M22.5,-191.04C22.5,-178.67 22.5,-163.12 22.5,-153.63"/>
<polygon fill="#9a32cd" stroke="#9a32cd" points="19,-191.23 22.5,-201.23 26,-191.23 19,-191.23"/>
<text text-anchor="middle" x="41" y="-175" font-family="Helvetica,sans-Serif" font-size="10.00"> m_exit</text>
</g>
<!-- Node5 -->
<g id="node5" class="node">
<title>Node5</title>
<g id="a_node5"><a xlink:href="structCEffects.html" target="_top" xlink:title=" ">
<polygon fill="white" stroke="black" points="63.5,-67.5 63.5,-86.5 119.5,-86.5 119.5,-67.5 63.5,-67.5"/>
<text text-anchor="middle" x="91.5" y="-74.5" font-family="Helvetica,sans-Serif" font-size="10.00">CEffects</text>
</a>
</g>
</g>
<!-- Node5&#45;&gt;Node1 -->
<g id="edge4" class="edge">
<title>Node5&#45;&gt;Node1</title>
<path fill="none" stroke="#9a32cd" stroke-dasharray="5,2" d="M81.9,-58.16C75.15,-45.63 66.41,-29.41 61.15,-19.63"/>
<polygon fill="#9a32cd" stroke="#9a32cd" points="78.96,-60.09 86.78,-67.23 85.12,-56.77 78.96,-60.09"/>
<text text-anchor="middle" x="101.5" y="-41" font-family="Helvetica,sans-Serif" font-size="10.00"> m_effects</text>
</g>
</g>
</svg>
