<?xml version="1.0" encoding="UTF-8" standalone="no"?>
<!DOCTYPE svg PUBLIC "-//W3C//DTD SVG 1.1//EN"
 "http://www.w3.org/Graphics/SVG/1.1/DTD/svg11.dtd">
<!-- Generated by graphviz version 2.43.0 (0)
 -->
<!-- Title: Enemy::clearTowers Pages: 1 -->
<svg width="767pt" height="142pt"
 viewBox="0.00 0.00 767.00 142.00" xmlns="http://www.w3.org/2000/svg" xmlns:xlink="http://www.w3.org/1999/xlink">
<g id="graph0" class="graph" transform="scale(1 1) rotate(0) translate(4 138)">
<title>Enemy::clearTowers</title>
<polygon fill="white" stroke="transparent" points="-4,4 -4,-138 763,-138 763,4 -4,4"/>
<!-- Node1 -->
<g id="node1" class="node">
<title>Node1</title>
<g id="a_node1"><a xlink:title=" ">
<polygon fill="#bfbfbf" stroke="black" points="646,-57.5 646,-76.5 759,-76.5 759,-57.5 646,-57.5"/>
<text text-anchor="middle" x="702.5" y="-64.5" font-family="Helvetica,sans-Serif" font-size="10.00">Enemy::clearTowers</text>
</a>
</g>
</g>
<!-- Node2 -->
<g id="node2" class="node">
<title>Node2</title>
<g id="a_node2"><a xlink:href="classCGame.html#a6890a8e74412ff0ced3959e3093e6d84" target="_top" xlink:title=" ">
<polygon fill="white" stroke="black" points="488,-114.5 488,-133.5 604,-133.5 604,-114.5 488,-114.5"/>
<text text-anchor="middle" x="546" y="-121.5" font-family="Helvetica,sans-Serif" font-size="10.00">CGame::drawTowers</text>
</a>
</g>
</g>
<!-- Node1&#45;&gt;Node2 -->
<g id="edge1" class="edge">
<title>Node1&#45;&gt;Node2</title>
<path fill="none" stroke="midnightblue" d="M666.09,-80.07C637.69,-90.54 598.49,-105.01 572.94,-114.43"/>
<polygon fill="midnightblue" stroke="midnightblue" points="667.47,-83.29 675.64,-76.54 665.05,-76.72 667.47,-83.29"/>
</g>
<!-- Node3 -->
<g id="node3" class="node">
<title>Node3</title>
<g id="a_node3"><a xlink:href="classCGame.html#aaae1d58e5125f6ab128afe0ec688a00a" target="_top" xlink:title=" ">
<polygon fill="white" stroke="black" points="372,-76.5 372,-95.5 446,-95.5 446,-76.5 372,-76.5"/>
<text text-anchor="middle" x="409" y="-83.5" font-family="Helvetica,sans-Serif" font-size="10.00">CGame::init</text>
</a>
</g>
</g>
<!-- Node1&#45;&gt;Node3 -->
<g id="edge8" class="edge">
<title>Node1&#45;&gt;Node3</title>
<path fill="none" stroke="midnightblue" d="M635.72,-71.29C577.19,-75.1 493.73,-80.54 446.42,-83.63"/>
<polygon fill="midnightblue" stroke="midnightblue" points="636.23,-74.76 645.98,-70.62 635.78,-67.78 636.23,-74.76"/>
</g>
<!-- Node8 -->
<g id="node8" class="node">
<title>Node8</title>
<g id="a_node8"><a xlink:href="classCGame.html#afbbb4f8d05f753b7c2d6a0d91ca96a9b" target="_top" xlink:title=" ">
<polygon fill="white" stroke="black" points="482,-38.5 482,-57.5 610,-57.5 610,-38.5 482,-38.5"/>
<text text-anchor="middle" x="546" y="-45.5" font-family="Helvetica,sans-Serif" font-size="10.00">CGame::loadFromSave</text>
</a>
</g>
</g>
<!-- Node1&#45;&gt;Node8 -->
<g id="edge9" class="edge">
<title>Node1&#45;&gt;Node8</title>
<path fill="none" stroke="midnightblue" d="M635.53,-58.89C627.08,-57.85 618.44,-56.79 610.04,-55.75"/>
<polygon fill="midnightblue" stroke="midnightblue" points="635.37,-62.39 645.72,-60.14 636.22,-55.45 635.37,-62.39"/>
</g>
<!-- Node9 -->
<g id="node9" class="node">
<title>Node9</title>
<g id="a_node9"><a xlink:href="classCGame.html#ac614fee61f8ff86a286f727faf3a3cf4" target="_top" xlink:title=" ">
<polygon fill="white" stroke="black" points="483,-0.5 483,-19.5 609,-19.5 609,-0.5 483,-0.5"/>
<text text-anchor="middle" x="546" y="-7.5" font-family="Helvetica,sans-Serif" font-size="10.00">CGame::redrawTowers</text>
</a>
</g>
</g>
<!-- Node1&#45;&gt;Node9 -->
<g id="edge11" class="edge">
<title>Node1&#45;&gt;Node9</title>
<path fill="none" stroke="midnightblue" d="M671.05,-53.45C653.4,-45.82 630.64,-36.38 610,-29 600.64,-25.65 590.37,-22.39 580.88,-19.53"/>
<polygon fill="midnightblue" stroke="midnightblue" points="669.73,-56.69 680.29,-57.48 672.52,-50.27 669.73,-56.69"/>
</g>
<!-- Node2&#45;&gt;Node3 -->
<g id="edge2" class="edge">
<title>Node2&#45;&gt;Node3</title>
<path fill="none" stroke="midnightblue" d="M501.24,-111.68C482.69,-106.46 461.4,-100.47 444.06,-95.59"/>
<polygon fill="midnightblue" stroke="midnightblue" points="500.36,-115.07 510.93,-114.41 502.26,-108.33 500.36,-115.07"/>
</g>
<!-- Node4 -->
<g id="node4" class="node">
<title>Node4</title>
<g id="a_node4"><a xlink:href="classCGame.html#aa7c80b7185158a0bde186d83f0e8cbb4" target="_top" xlink:title=" ">
<polygon fill="white" stroke="black" points="238.5,-95.5 238.5,-114.5 318.5,-114.5 318.5,-95.5 238.5,-95.5"/>
<text text-anchor="middle" x="278.5" y="-102.5" font-family="Helvetica,sans-Serif" font-size="10.00">CGame::play</text>
</a>
</g>
</g>
<!-- Node3&#45;&gt;Node4 -->
<g id="edge3" class="edge">
<title>Node3&#45;&gt;Node4</title>
<path fill="none" stroke="midnightblue" d="M361.81,-92.83C347.62,-94.93 332.16,-97.21 318.51,-99.23"/>
<polygon fill="midnightblue" stroke="midnightblue" points="362.48,-96.27 371.86,-91.34 361.46,-89.34 362.48,-96.27"/>
</g>
<!-- Node7 -->
<g id="node7" class="node">
<title>Node7</title>
<g id="a_node7"><a xlink:href="classCGame.html#a5dc70520b14c22acbd728f6599bb150a" target="_top" xlink:title=" ">
<polygon fill="white" stroke="black" points="221,-57.5 221,-76.5 336,-76.5 336,-57.5 221,-57.5"/>
<text text-anchor="middle" x="278.5" y="-64.5" font-family="Helvetica,sans-Serif" font-size="10.00">CGame::testRoutine</text>
</a>
</g>
</g>
<!-- Node3&#45;&gt;Node7 -->
<g id="edge7" class="edge">
<title>Node3&#45;&gt;Node7</title>
<path fill="none" stroke="midnightblue" d="M361.9,-79.18C353.51,-77.94 344.67,-76.64 336.03,-75.36"/>
<polygon fill="midnightblue" stroke="midnightblue" points="361.46,-82.66 371.86,-80.66 362.48,-75.73 361.46,-82.66"/>
</g>
<!-- Node5 -->
<g id="node5" class="node">
<title>Node5</title>
<g id="a_node5"><a xlink:href="main_8cpp.html#a3c04138a5bfe5d72780bb7e82a18e627" target="_top" xlink:title=" ">
<polygon fill="white" stroke="black" points="144,-114.5 144,-133.5 185,-133.5 185,-114.5 144,-114.5"/>
<text text-anchor="middle" x="164.5" y="-121.5" font-family="Helvetica,sans-Serif" font-size="10.00">main</text>
</a>
</g>
</g>
<!-- Node4&#45;&gt;Node5 -->
<g id="edge4" class="edge">
<title>Node4&#45;&gt;Node5</title>
<path fill="none" stroke="midnightblue" d="M228.04,-113.39C212.95,-115.95 197.22,-118.62 185.31,-120.64"/>
<polygon fill="midnightblue" stroke="midnightblue" points="229.05,-116.77 238.33,-111.65 227.88,-109.87 229.05,-116.77"/>
</g>
<!-- Node6 -->
<g id="node6" class="node">
<title>Node6</title>
<g id="a_node6"><a xlink:href="structCMenu.html#a07236cc397b0e4e55ec4f916c3893fbd" target="_top" xlink:title=" ">
<polygon fill="white" stroke="black" points="0,-95.5 0,-114.5 108,-114.5 108,-95.5 0,-95.5"/>
<text text-anchor="middle" x="54" y="-102.5" font-family="Helvetica,sans-Serif" font-size="10.00">CMenu::mainMenu</text>
</a>
</g>
</g>
<!-- Node5&#45;&gt;Node6 -->
<g id="edge5" class="edge">
<title>Node5&#45;&gt;Node6</title>
<path fill="none" stroke="midnightblue" d="M133.76,-118.79C125.89,-117.41 117.17,-115.89 108.46,-114.36"/>
<polygon fill="midnightblue" stroke="midnightblue" points="133.4,-122.28 143.85,-120.56 134.61,-115.39 133.4,-122.28"/>
</g>
<!-- Node6&#45;&gt;Node4 -->
<g id="edge6" class="edge">
<title>Node6&#45;&gt;Node4</title>
<path fill="none" stroke="midnightblue" d="M118.32,-105C157.03,-105 205.31,-105 238.49,-105"/>
<polygon fill="midnightblue" stroke="midnightblue" points="118.19,-101.5 108.19,-105 118.19,-108.5 118.19,-101.5"/>
</g>
<!-- Node8&#45;&gt;Node3 -->
<g id="edge10" class="edge">
<title>Node8&#45;&gt;Node3</title>
<path fill="none" stroke="midnightblue" d="M501.24,-60.32C482.69,-65.54 461.4,-71.53 444.06,-76.41"/>
<polygon fill="midnightblue" stroke="midnightblue" points="502.26,-63.67 510.93,-57.59 500.36,-56.93 502.26,-63.67"/>
</g>
</g>
</svg>
