<?xml version="1.0" encoding="UTF-8" standalone="no"?>
<!DOCTYPE svg PUBLIC "-//W3C//DTD SVG 1.1//EN"
 "http://www.w3.org/Graphics/SVG/1.1/DTD/svg11.dtd">
<!-- Generated by graphviz version 2.43.0 (0)
 -->
<!-- Title: Entity::move Pages: 1 -->
<svg width="1015pt" height="142pt"
 viewBox="0.00 0.00 1015.00 142.00" xmlns="http://www.w3.org/2000/svg" xmlns:xlink="http://www.w3.org/1999/xlink">
<g id="graph0" class="graph" transform="scale(1 1) rotate(0) translate(4 138)">
<title>Entity::move</title>
<polygon fill="white" stroke="transparent" points="-4,4 -4,-138 1011,-138 1011,4 -4,4"/>
<!-- Node1 -->
<g id="node1" class="node">
<title>Node1</title>
<g id="a_node1"><a xlink:title=" ">
<polygon fill="#bfbfbf" stroke="black" points="929,-19.5 929,-38.5 1007,-38.5 1007,-19.5 929,-19.5"/>
<text text-anchor="middle" x="968" y="-26.5" font-family="Helvetica,sans-Serif" font-size="10.00">Entity::move</text>
</a>
</g>
</g>
<!-- Node2 -->
<g id="node2" class="node">
<title>Node2</title>
<g id="a_node2"><a xlink:href="classMap.html#adb8bd1312b25de59794e421009b6fa3e" target="_top" xlink:title=" ">
<polygon fill="white" stroke="black" points="800.5,-38.5 800.5,-57.5 887.5,-57.5 887.5,-38.5 800.5,-38.5"/>
<text text-anchor="middle" x="844" y="-45.5" font-family="Helvetica,sans-Serif" font-size="10.00">Map::setEntity</text>
</a>
</g>
</g>
<!-- Node1&#45;&gt;Node2 -->
<g id="edge1" class="edge">
<title>Node1&#45;&gt;Node2</title>
<path fill="none" stroke="midnightblue" d="M918.73,-36.52C908.51,-38.11 897.8,-39.78 887.8,-41.33"/>
<polygon fill="midnightblue" stroke="midnightblue" points="919.39,-39.96 928.73,-34.96 918.31,-33.04 919.39,-39.96"/>
</g>
<!-- Node11 -->
<g id="node11" class="node">
<title>Node11</title>
<g id="a_node11"><a xlink:href="classMap.html#ae84f294b7e9de1a49954dc2d13698e13" target="_top" xlink:title=" ">
<polygon fill="white" stroke="black" points="795,-0.5 795,-19.5 893,-19.5 893,-0.5 795,-0.5"/>
<text text-anchor="middle" x="844" y="-7.5" font-family="Helvetica,sans-Serif" font-size="10.00">Map::updateMap</text>
</a>
</g>
</g>
<!-- Node1&#45;&gt;Node11 -->
<g id="edge11" class="edge">
<title>Node1&#45;&gt;Node11</title>
<path fill="none" stroke="midnightblue" d="M918.66,-21.47C910.22,-20.16 901.45,-18.79 893.02,-17.48"/>
<polygon fill="midnightblue" stroke="midnightblue" points="918.31,-24.96 928.73,-23.04 919.39,-18.04 918.31,-24.96"/>
</g>
<!-- Node3 -->
<g id="node3" class="node">
<title>Node3</title>
<g id="a_node3"><a xlink:href="classEnemy.html#a238798e0d954a7ee3b6fafb592151cde" target="_top" xlink:title=" ">
<polygon fill="white" stroke="black" points="636.5,-76.5 636.5,-95.5 756.5,-95.5 756.5,-76.5 636.5,-76.5"/>
<text text-anchor="middle" x="696.5" y="-83.5" font-family="Helvetica,sans-Serif" font-size="10.00">Enemy::createTowers</text>
</a>
</g>
</g>
<!-- Node2&#45;&gt;Node3 -->
<g id="edge2" class="edge">
<title>Node2&#45;&gt;Node3</title>
<path fill="none" stroke="midnightblue" d="M796.35,-60.18C776.15,-65.46 752.85,-71.54 733.95,-76.48"/>
<polygon fill="midnightblue" stroke="midnightblue" points="797.49,-63.5 806.28,-57.59 795.72,-56.73 797.49,-63.5"/>
</g>
<!-- Node10 -->
<g id="node10" class="node">
<title>Node10</title>
<g id="a_node10"><a xlink:href="classEntity.html#a7666f416dd0d1fce0f1133f78df44476" target="_top" xlink:title=" ">
<polygon fill="white" stroke="black" points="659.5,-38.5 659.5,-57.5 733.5,-57.5 733.5,-38.5 659.5,-38.5"/>
<text text-anchor="middle" x="696.5" y="-45.5" font-family="Helvetica,sans-Serif" font-size="10.00">Entity::draw</text>
</a>
</g>
</g>
<!-- Node2&#45;&gt;Node10 -->
<g id="edge10" class="edge">
<title>Node2&#45;&gt;Node10</title>
<path fill="none" stroke="midnightblue" d="M789.97,-48C771.26,-48 750.67,-48 733.68,-48"/>
<polygon fill="midnightblue" stroke="midnightblue" points="790.13,-51.5 800.13,-48 790.13,-44.5 790.13,-51.5"/>
</g>
<!-- Node4 -->
<g id="node4" class="node">
<title>Node4</title>
<g id="a_node4"><a xlink:href="classCGame.html#a6890a8e74412ff0ced3959e3093e6d84" target="_top" xlink:title=" ">
<polygon fill="white" stroke="black" points="482,-76.5 482,-95.5 598,-95.5 598,-76.5 482,-76.5"/>
<text text-anchor="middle" x="540" y="-83.5" font-family="Helvetica,sans-Serif" font-size="10.00">CGame::drawTowers</text>
</a>
</g>
</g>
<!-- Node3&#45;&gt;Node4 -->
<g id="edge3" class="edge">
<title>Node3&#45;&gt;Node4</title>
<path fill="none" stroke="midnightblue" d="M626.13,-86C616.75,-86 607.22,-86 598.1,-86"/>
<polygon fill="midnightblue" stroke="midnightblue" points="626.21,-89.5 636.21,-86 626.21,-82.5 626.21,-89.5"/>
</g>
<!-- Node5 -->
<g id="node5" class="node">
<title>Node5</title>
<g id="a_node5"><a xlink:href="classCGame.html#aaae1d58e5125f6ab128afe0ec688a00a" target="_top" xlink:title=" ">
<polygon fill="white" stroke="black" points="372,-76.5 372,-95.5 446,-95.5 446,-76.5 372,-76.5"/>
<text text-anchor="middle" x="409" y="-83.5" font-family="Helvetica,sans-Serif" font-size="10.00">CGame::init</text>
</a>
</g>
</g>
<!-- Node4&#45;&gt;Node5 -->
<g id="edge4" class="edge">
<title>Node4&#45;&gt;Node5</title>
<path fill="none" stroke="midnightblue" d="M471.41,-86C462.66,-86 453.99,-86 446.04,-86"/>
<polygon fill="midnightblue" stroke="midnightblue" points="471.67,-89.5 481.67,-86 471.67,-82.5 471.67,-89.5"/>
</g>
<!-- Node6 -->
<g id="node6" class="node">
<title>Node6</title>
<g id="a_node6"><a xlink:href="classCGame.html#aa7c80b7185158a0bde186d83f0e8cbb4" target="_top" xlink:title=" ">
<polygon fill="white" stroke="black" points="238.5,-95.5 238.5,-114.5 318.5,-114.5 318.5,-95.5 238.5,-95.5"/>
<text text-anchor="middle" x="278.5" y="-102.5" font-family="Helvetica,sans-Serif" font-size="10.00">CGame::play</text>
</a>
</g>
</g>
<!-- Node5&#45;&gt;Node6 -->
<g id="edge5" class="edge">
<title>Node5&#45;&gt;Node6</title>
<path fill="none" stroke="midnightblue" d="M361.81,-92.83C347.62,-94.93 332.16,-97.21 318.51,-99.23"/>
<polygon fill="midnightblue" stroke="midnightblue" points="362.48,-96.27 371.86,-91.34 361.46,-89.34 362.48,-96.27"/>
</g>
<!-- Node9 -->
<g id="node9" class="node">
<title>Node9</title>
<g id="a_node9"><a xlink:href="classCGame.html#a5dc70520b14c22acbd728f6599bb150a" target="_top" xlink:title=" ">
<polygon fill="white" stroke="black" points="221,-57.5 221,-76.5 336,-76.5 336,-57.5 221,-57.5"/>
<text text-anchor="middle" x="278.5" y="-64.5" font-family="Helvetica,sans-Serif" font-size="10.00">CGame::testRoutine</text>
</a>
</g>
</g>
<!-- Node5&#45;&gt;Node9 -->
<g id="edge9" class="edge">
<title>Node5&#45;&gt;Node9</title>
<path fill="none" stroke="midnightblue" d="M361.9,-79.18C353.51,-77.94 344.67,-76.64 336.03,-75.36"/>
<polygon fill="midnightblue" stroke="midnightblue" points="361.46,-82.66 371.86,-80.66 362.48,-75.73 361.46,-82.66"/>
</g>
<!-- Node7 -->
<g id="node7" class="node">
<title>Node7</title>
<g id="a_node7"><a xlink:href="main_8cpp.html#a3c04138a5bfe5d72780bb7e82a18e627" target="_top" xlink:title=" ">
<polygon fill="white" stroke="black" points="144,-114.5 144,-133.5 185,-133.5 185,-114.5 144,-114.5"/>
<text text-anchor="middle" x="164.5" y="-121.5" font-family="Helvetica,sans-Serif" font-size="10.00">main</text>
</a>
</g>
</g>
<!-- Node6&#45;&gt;Node7 -->
<g id="edge6" class="edge">
<title>Node6&#45;&gt;Node7</title>
<path fill="none" stroke="midnightblue" d="M228.04,-113.39C212.95,-115.95 197.22,-118.62 185.31,-120.64"/>
<polygon fill="midnightblue" stroke="midnightblue" points="229.05,-116.77 238.33,-111.65 227.88,-109.87 229.05,-116.77"/>
</g>
<!-- Node8 -->
<g id="node8" class="node">
<title>Node8</title>
<g id="a_node8"><a xlink:href="structCMenu.html#a07236cc397b0e4e55ec4f916c3893fbd" target="_top" xlink:title=" ">
<polygon fill="white" stroke="black" points="0,-95.5 0,-114.5 108,-114.5 108,-95.5 0,-95.5"/>
<text text-anchor="middle" x="54" y="-102.5" font-family="Helvetica,sans-Serif" font-size="10.00">CMenu::mainMenu</text>
</a>
</g>
</g>
<!-- Node7&#45;&gt;Node8 -->
<g id="edge7" class="edge">
<title>Node7&#45;&gt;Node8</title>
<path fill="none" stroke="midnightblue" d="M133.76,-118.79C125.89,-117.41 117.17,-115.89 108.46,-114.36"/>
<polygon fill="midnightblue" stroke="midnightblue" points="133.4,-122.28 143.85,-120.56 134.61,-115.39 133.4,-122.28"/>
</g>
<!-- Node8&#45;&gt;Node6 -->
<g id="edge8" class="edge">
<title>Node8&#45;&gt;Node6</title>
<path fill="none" stroke="midnightblue" d="M118.32,-105C157.03,-105 205.31,-105 238.49,-105"/>
<polygon fill="midnightblue" stroke="midnightblue" points="118.19,-101.5 108.19,-105 118.19,-108.5 118.19,-101.5"/>
</g>
<!-- Node12 -->
<g id="node12" class="node">
<title>Node12</title>
<g id="a_node12"><a xlink:href="classAttacker.html#a1bbd62ecccaef9e5d9d8e95a0bed5c48" target="_top" xlink:title=" ">
<polygon fill="white" stroke="black" points="634,-0.5 634,-19.5 759,-19.5 759,-0.5 634,-0.5"/>
<text text-anchor="middle" x="696.5" y="-7.5" font-family="Helvetica,sans-Serif" font-size="10.00">Attacker::moveOnPath</text>
</a>
</g>
</g>
<!-- Node11&#45;&gt;Node12 -->
<g id="edge12" class="edge">
<title>Node11&#45;&gt;Node12</title>
<path fill="none" stroke="midnightblue" d="M784.85,-10C776.43,-10 767.74,-10 759.25,-10"/>
<polygon fill="midnightblue" stroke="midnightblue" points="784.95,-13.5 794.95,-10 784.95,-6.5 784.95,-13.5"/>
</g>
</g>
</svg>
