<?xml version="1.0" encoding="UTF-8" standalone="no"?>
<!DOCTYPE svg PUBLIC "-//W3C//DTD SVG 1.1//EN"
 "http://www.w3.org/Graphics/SVG/1.1/DTD/svg11.dtd">
<!-- Generated by graphviz version 2.43.0 (0)
 -->
<!-- Title: Map::Map Pages: 1 -->
<svg width="341pt" height="66pt"
 viewBox="0.00 0.00 341.00 66.00" xmlns="http://www.w3.org/2000/svg" xmlns:xlink="http://www.w3.org/1999/xlink">
<g id="graph0" class="graph" transform="scale(1 1) rotate(0) translate(4 62)">
<title>Map::Map</title>
<polygon fill="white" stroke="transparent" points="-4,4 -4,-62 337,-62 337,4 -4,4"/>
<!-- Node1 -->
<g id="node1" class="node">
<title>Node1</title>
<g id="a_node1"><a xlink:title=" ">
<polygon fill="#bfbfbf" stroke="black" points="0,-19.5 0,-38.5 65,-38.5 65,-19.5 0,-19.5"/>
<text text-anchor="middle" x="32.5" y="-26.5" font-family="Helvetica,sans-Serif" font-size="10.00">Map::Map</text>
</a>
</g>
</g>
<!-- Node2 -->
<g id="node2" class="node">
<title>Node2</title>
<g id="a_node2"><a xlink:href="classMap.html#a79a4355510b026646449df1852768c38" target="_top" xlink:title=" ">
<polygon fill="white" stroke="black" points="101,-19.5 101,-38.5 187,-38.5 187,-19.5 101,-19.5"/>
<text text-anchor="middle" x="144" y="-26.5" font-family="Helvetica,sans-Serif" font-size="10.00">Map::readMap</text>
</a>
</g>
</g>
<!-- Node1&#45;&gt;Node2 -->
<g id="edge1" class="edge">
<title>Node1&#45;&gt;Node2</title>
<path fill="none" stroke="midnightblue" d="M65.17,-29C73.16,-29 81.95,-29 90.67,-29"/>
<polygon fill="midnightblue" stroke="midnightblue" points="90.8,-32.5 100.8,-29 90.8,-25.5 90.8,-32.5"/>
</g>
<!-- Node3 -->
<g id="node3" class="node">
<title>Node3</title>
<g id="a_node3"><a xlink:href="logFile_8cpp.html#a7044c91cfa1a776cbf7b08b4af30888d" target="_top" xlink:title=" ">
<polygon fill="white" stroke="black" points="235.5,-38.5 235.5,-57.5 320.5,-57.5 320.5,-38.5 235.5,-38.5"/>
<text text-anchor="middle" x="278" y="-45.5" font-family="Helvetica,sans-Serif" font-size="10.00">sendToLogFile</text>
</a>
</g>
</g>
<!-- Node2&#45;&gt;Node3 -->
<g id="edge2" class="edge">
<title>Node2&#45;&gt;Node3</title>
<path fill="none" stroke="midnightblue" d="M187.13,-35.06C199.27,-36.81 212.67,-38.74 225.32,-40.56"/>
<polygon fill="midnightblue" stroke="midnightblue" points="224.87,-44.03 235.27,-41.99 225.87,-37.1 224.87,-44.03"/>
</g>
<!-- Node4 -->
<g id="node4" class="node">
<title>Node4</title>
<g id="a_node4"><a xlink:href="classlogException.html#aee5cf9c19e99ce539b58973237cf12ec" target="_top" xlink:title=" ">
<polygon fill="white" stroke="black" points="223,-0.5 223,-19.5 333,-19.5 333,-0.5 223,-0.5"/>
<text text-anchor="middle" x="278" y="-7.5" font-family="Helvetica,sans-Serif" font-size="10.00">logException::what</text>
</a>
</g>
</g>
<!-- Node2&#45;&gt;Node4 -->
<g id="edge3" class="edge">
<title>Node2&#45;&gt;Node4</title>
<path fill="none" stroke="midnightblue" d="M187.13,-22.94C195.26,-21.77 203.96,-20.51 212.61,-19.27"/>
<polygon fill="midnightblue" stroke="midnightblue" points="213.32,-22.7 222.72,-17.81 212.33,-15.77 213.32,-22.7"/>
</g>
</g>
</svg>
