<?xml version="1.0" encoding="UTF-8" standalone="no"?>
<!DOCTYPE svg PUBLIC "-//W3C//DTD SVG 1.1//EN"
 "http://www.w3.org/Graphics/SVG/1.1/DTD/svg11.dtd">
<!-- Generated by graphviz version 2.43.0 (0)
 -->
<!-- Title: basicAttacker Pages: 1 -->
<svg width="123pt" height="276pt"
 viewBox="0.00 0.00 122.50 276.00" xmlns="http://www.w3.org/2000/svg" xmlns:xlink="http://www.w3.org/1999/xlink">
<g id="graph0" class="graph" transform="scale(1 1) rotate(0) translate(4 272)">
<title>basicAttacker</title>
<polygon fill="white" stroke="transparent" points="-4,4 -4,-272 118.5,-272 118.5,4 -4,4"/>
<!-- Node1 -->
<g id="node1" class="node">
<title>Node1</title>
<g id="a_node1"><a xlink:title=" ">
<polygon fill="#bfbfbf" stroke="black" points="0,-0.5 0,-19.5 83,-19.5 83,-0.5 0,-0.5"/>
<text text-anchor="middle" x="41.5" y="-7.5" font-family="Helvetica,sans-Serif" font-size="10.00">basicAttacker</text>
</a>
</g>
</g>
<!-- Node2 -->
<g id="node2" class="node">
<title>Node2</title>
<g id="a_node2"><a xlink:href="classAttacker.html" target="_top" xlink:title=" ">
<polygon fill="white" stroke="black" points="13,-57.5 13,-76.5 70,-76.5 70,-57.5 13,-57.5"/>
<text text-anchor="middle" x="41.5" y="-64.5" font-family="Helvetica,sans-Serif" font-size="10.00">Attacker</text>
</a>
</g>
</g>
<!-- Node2&#45;&gt;Node1 -->
<g id="edge1" class="edge">
<title>Node2&#45;&gt;Node1</title>
<path fill="none" stroke="midnightblue" d="M41.5,-47.12C41.5,-37.82 41.5,-27.06 41.5,-19.71"/>
<polygon fill="midnightblue" stroke="midnightblue" points="38,-47.41 41.5,-57.41 45,-47.41 38,-47.41"/>
</g>
<!-- Node3 -->
<g id="node3" class="node">
<title>Node3</title>
<g id="a_node3"><a xlink:href="classEntity.html" target="_top" xlink:title=" ">
<polygon fill="white" stroke="black" points="19,-114.5 19,-133.5 64,-133.5 64,-114.5 19,-114.5"/>
<text text-anchor="middle" x="41.5" y="-121.5" font-family="Helvetica,sans-Serif" font-size="10.00">Entity</text>
</a>
</g>
</g>
<!-- Node3&#45;&gt;Node2 -->
<g id="edge2" class="edge">
<title>Node3&#45;&gt;Node2</title>
<path fill="none" stroke="midnightblue" d="M41.5,-104.12C41.5,-94.82 41.5,-84.06 41.5,-76.71"/>
<polygon fill="midnightblue" stroke="midnightblue" points="38,-104.41 41.5,-114.41 45,-104.41 38,-104.41"/>
</g>
<!-- Node4 -->
<g id="node4" class="node">
<title>Node4</title>
<g id="a_node4"><a xlink:href="classMap.html" target="_top" xlink:title=" ">
<polygon fill="white" stroke="black" points="22.5,-181.5 22.5,-200.5 60.5,-200.5 60.5,-181.5 22.5,-181.5"/>
<text text-anchor="middle" x="41.5" y="-188.5" font-family="Helvetica,sans-Serif" font-size="10.00">Map</text>
</a>
</g>
</g>
<!-- Node4&#45;&gt;Node3 -->
<g id="edge3" class="edge">
<title>Node4&#45;&gt;Node3</title>
<path fill="none" stroke="#9a32cd" stroke-dasharray="5,2" d="M41.5,-171.04C41.5,-158.67 41.5,-143.12 41.5,-133.63"/>
<polygon fill="#9a32cd" stroke="#9a32cd" points="38,-171.23 41.5,-181.23 45,-171.23 38,-171.23"/>
<text text-anchor="middle" x="78" y="-155" font-family="Helvetica,sans-Serif" font-size="10.00"> m_sharedMap</text>
</g>
<!-- Node5 -->
<g id="node5" class="node">
<title>Node5</title>
<g id="a_node5"><a xlink:href="classPoint.html" target="_top" xlink:title=" ">
<polygon fill="white" stroke="black" points="21,-248.5 21,-267.5 62,-267.5 62,-248.5 21,-248.5"/>
<text text-anchor="middle" x="41.5" y="-255.5" font-family="Helvetica,sans-Serif" font-size="10.00">Point</text>
</a>
</g>
</g>
<!-- Node5&#45;&gt;Node4 -->
<g id="edge4" class="edge">
<title>Node5&#45;&gt;Node4</title>
<path fill="none" stroke="#9a32cd" stroke-dasharray="5,2" d="M41.5,-238.04C41.5,-225.67 41.5,-210.12 41.5,-200.63"/>
<polygon fill="#9a32cd" stroke="#9a32cd" points="38,-238.23 41.5,-248.23 45,-238.23 38,-238.23"/>
<text text-anchor="middle" x="60" y="-222" font-family="Helvetica,sans-Serif" font-size="10.00"> m_exit</text>
</g>
</g>
</svg>
