<?xml version="1.0" encoding="UTF-8" standalone="no"?>
<!DOCTYPE svg PUBLIC "-//W3C//DTD SVG 1.1//EN"
 "http://www.w3.org/Graphics/SVG/1.1/DTD/svg11.dtd">
<!-- Generated by graphviz version 2.43.0 (0)
 -->
<!-- Title: CGame Pages: 1 -->
<svg width="164pt" height="152pt"
 viewBox="0.00 0.00 163.50 152.00" xmlns="http://www.w3.org/2000/svg" xmlns:xlink="http://www.w3.org/1999/xlink">
<g id="graph0" class="graph" transform="scale(1 1) rotate(0) translate(4 148)">
<title>CGame</title>
<polygon fill="white" stroke="transparent" points="-4,4 -4,-148 159.5,-148 159.5,4 -4,4"/>
<!-- Node1 -->
<g id="node1" class="node">
<title>Node1</title>
<g id="a_node1"><a xlink:title=" ">
<polygon fill="#bfbfbf" stroke="black" points="14,-0.5 14,-19.5 67,-19.5 67,-0.5 14,-0.5"/>
<text text-anchor="middle" x="40.5" y="-7.5" font-family="Helvetica,sans-Serif" font-size="10.00">CGame</text>
</a>
</g>
</g>
<!-- Node2 -->
<g id="node2" class="node">
<title>Node2</title>
<g id="a_node2"><a xlink:href="classEnemy.html" target="_top" xlink:title=" ">
<polygon fill="white" stroke="black" points="69.5,-67.5 69.5,-86.5 119.5,-86.5 119.5,-67.5 69.5,-67.5"/>
<text text-anchor="middle" x="94.5" y="-74.5" font-family="Helvetica,sans-Serif" font-size="10.00">Enemy</text>
</a>
</g>
</g>
<!-- Node2&#45;&gt;Node1 -->
<g id="edge1" class="edge">
<title>Node2&#45;&gt;Node1</title>
<path fill="none" stroke="#9a32cd" stroke-dasharray="5,2" d="M80.6,-59.27C70.07,-46.6 56.04,-29.7 47.67,-19.63"/>
<polygon fill="#9a32cd" stroke="#9a32cd" points="78.13,-61.78 87.22,-67.23 83.52,-57.31 78.13,-61.78"/>
<text text-anchor="middle" x="113" y="-41" font-family="Helvetica,sans-Serif" font-size="10.00"> _tower_manager</text>
</g>
<!-- Node3 -->
<g id="node3" class="node">
<title>Node3</title>
<g id="a_node3"><a xlink:href="classPlayer.html" target="_top" xlink:title=" ">
<polygon fill="white" stroke="black" points="0,-124.5 0,-143.5 47,-143.5 47,-124.5 0,-124.5"/>
<text text-anchor="middle" x="23.5" y="-131.5" font-family="Helvetica,sans-Serif" font-size="10.00">Player</text>
</a>
</g>
</g>
<!-- Node3&#45;&gt;Node1 -->
<g id="edge3" class="edge">
<title>Node3&#45;&gt;Node1</title>
<path fill="none" stroke="#9a32cd" stroke-dasharray="5,2" d="M20.5,-114.15C18.9,-100.87 17.77,-82.73 20.5,-67 23.5,-49.71 31.33,-30.69 36.26,-19.86"/>
<polygon fill="#9a32cd" stroke="#9a32cd" points="17.08,-114.97 21.93,-124.38 24.01,-113.99 17.08,-114.97"/>
<text text-anchor="middle" x="40.5" y="-74.5" font-family="Helvetica,sans-Serif" font-size="10.00"> _player</text>
</g>
<!-- Node3&#45;&gt;Node2 -->
<g id="edge2" class="edge">
<title>Node3&#45;&gt;Node2</title>
<path fill="none" stroke="midnightblue" d="M42.87,-118C55.82,-107.96 72.42,-95.1 83.25,-86.71"/>
<polygon fill="midnightblue" stroke="midnightblue" points="40.36,-115.52 34.59,-124.41 44.64,-121.05 40.36,-115.52"/>
</g>
</g>
</svg>
