<?xml version="1.0" encoding="UTF-8" standalone="no"?>
<!DOCTYPE svg PUBLIC "-//W3C//DTD SVG 1.1//EN"
 "http://www.w3.org/Graphics/SVG/1.1/DTD/svg11.dtd">
<!-- Generated by graphviz version 2.43.0 (0)
 -->
<!-- Title: Entity::draw Pages: 1 -->
<svg width="374pt" height="85pt"
 viewBox="0.00 0.00 374.00 85.00" xmlns="http://www.w3.org/2000/svg" xmlns:xlink="http://www.w3.org/1999/xlink">
<g id="graph0" class="graph" transform="scale(1 1) rotate(0) translate(4 81)">
<title>Entity::draw</title>
<polygon fill="white" stroke="transparent" points="-4,4 -4,-81 370,-81 370,4 -4,4"/>
<!-- Node1 -->
<g id="node1" class="node">
<title>Node1</title>
<g id="a_node1"><a xlink:title=" ">
<polygon fill="#bfbfbf" stroke="black" points="0,-38.5 0,-57.5 74,-57.5 74,-38.5 0,-38.5"/>
<text text-anchor="middle" x="37" y="-45.5" font-family="Helvetica,sans-Serif" font-size="10.00">Entity::draw</text>
</a>
</g>
</g>
<!-- Node2 -->
<g id="node2" class="node">
<title>Node2</title>
<g id="a_node2"><a xlink:href="classMap.html#adba2ce32305e081466f8039fd9ccdf17" target="_top" xlink:title=" ">
<polygon fill="white" stroke="black" points="110,-57.5 110,-76.5 227,-76.5 227,-57.5 110,-57.5"/>
<text text-anchor="middle" x="168.5" y="-64.5" font-family="Helvetica,sans-Serif" font-size="10.00">Map::refreshWindow</text>
</a>
</g>
</g>
<!-- Node1&#45;&gt;Node2 -->
<g id="edge1" class="edge">
<title>Node1&#45;&gt;Node2</title>
<path fill="none" stroke="midnightblue" d="M74.07,-53.29C82.12,-54.47 90.91,-55.76 99.77,-57.06"/>
<polygon fill="midnightblue" stroke="midnightblue" points="99.37,-60.54 109.77,-58.53 100.39,-53.62 99.37,-60.54"/>
</g>
<!-- Node3 -->
<g id="node3" class="node">
<title>Node3</title>
<g id="a_node3"><a xlink:href="classMap.html#a4f31628bd7435dc2b6f79a465ce69435" target="_top" xlink:title=" ">
<polygon fill="white" stroke="black" points="115.5,-19.5 115.5,-38.5 221.5,-38.5 221.5,-19.5 115.5,-19.5"/>
<text text-anchor="middle" x="168.5" y="-26.5" font-family="Helvetica,sans-Serif" font-size="10.00">Map::updateEntity</text>
</a>
</g>
</g>
<!-- Node1&#45;&gt;Node3 -->
<g id="edge2" class="edge">
<title>Node1&#45;&gt;Node3</title>
<path fill="none" stroke="midnightblue" d="M74.07,-42.71C83.71,-41.29 94.42,-39.72 105.04,-38.16"/>
<polygon fill="midnightblue" stroke="midnightblue" points="105.78,-41.59 115.16,-36.68 104.76,-34.67 105.78,-41.59"/>
</g>
<!-- Node4 -->
<g id="node4" class="node">
<title>Node4</title>
<g id="a_node4"><a xlink:href="classEntity.html#ac2d420ffaa0663a2acd2ecdf4b1ee9de" target="_top" xlink:title=" ">
<polygon fill="white" stroke="black" points="263,-38.5 263,-57.5 366,-57.5 366,-38.5 263,-38.5"/>
<text text-anchor="middle" x="314.5" y="-45.5" font-family="Helvetica,sans-Serif" font-size="10.00">Entity::getSymbol</text>
</a>
</g>
</g>
<!-- Node3&#45;&gt;Node4 -->
<g id="edge3" class="edge">
<title>Node3&#45;&gt;Node4</title>
<path fill="none" stroke="midnightblue" d="M221.89,-35.91C231.91,-37.23 242.47,-38.63 252.71,-39.98"/>
<polygon fill="midnightblue" stroke="midnightblue" points="252.46,-43.48 262.83,-41.31 253.37,-36.54 252.46,-43.48"/>
</g>
<!-- Node5 -->
<g id="node5" class="node">
<title>Node5</title>
<g id="a_node5"><a xlink:href="classEntity.html#a6171cc57bf9ab1a0d0fe18b7a8acc4ea" target="_top" xlink:title=" ">
<polygon fill="white" stroke="black" points="275.5,-0.5 275.5,-19.5 353.5,-19.5 353.5,-0.5 275.5,-0.5"/>
<text text-anchor="middle" x="314.5" y="-7.5" font-family="Helvetica,sans-Serif" font-size="10.00">Entity::move</text>
</a>
</g>
</g>
<!-- Node3&#45;&gt;Node5 -->
<g id="edge4" class="edge">
<title>Node3&#45;&gt;Node5</title>
<path fill="none" stroke="midnightblue" d="M221.89,-22.09C235.99,-20.23 251.18,-18.22 265.05,-16.39"/>
<polygon fill="midnightblue" stroke="midnightblue" points="265.91,-19.81 275.36,-15.03 264.99,-12.87 265.91,-19.81"/>
</g>
</g>
</svg>
