<?xml version="1.0" encoding="UTF-8" standalone="no"?>
<!DOCTYPE svg PUBLIC "-//W3C//DTD SVG 1.1//EN"
 "http://www.w3.org/Graphics/SVG/1.1/DTD/svg11.dtd">
<!-- Generated by graphviz version 2.43.0 (0)
 -->
<!-- Title: Entity::getSymbol Pages: 1 -->
<svg width="363pt" height="66pt"
 viewBox="0.00 0.00 363.00 66.00" xmlns="http://www.w3.org/2000/svg" xmlns:xlink="http://www.w3.org/1999/xlink">
<g id="graph0" class="graph" transform="scale(1 1) rotate(0) translate(4 62)">
<title>Entity::getSymbol</title>
<polygon fill="white" stroke="transparent" points="-4,4 -4,-62 359,-62 359,4 -4,4"/>
<!-- Node1 -->
<g id="node1" class="node">
<title>Node1</title>
<g id="a_node1"><a xlink:title=" ">
<polygon fill="#bfbfbf" stroke="black" points="252,-19.5 252,-38.5 355,-38.5 355,-19.5 252,-19.5"/>
<text text-anchor="middle" x="303.5" y="-26.5" font-family="Helvetica,sans-Serif" font-size="10.00">Entity::getSymbol</text>
</a>
</g>
</g>
<!-- Node2 -->
<g id="node2" class="node">
<title>Node2</title>
<g id="a_node2"><a xlink:href="classMap.html#a4f31628bd7435dc2b6f79a465ce69435" target="_top" xlink:title=" ">
<polygon fill="white" stroke="black" points="110,-38.5 110,-57.5 216,-57.5 216,-38.5 110,-38.5"/>
<text text-anchor="middle" x="163" y="-45.5" font-family="Helvetica,sans-Serif" font-size="10.00">Map::updateEntity</text>
</a>
</g>
</g>
<!-- Node1&#45;&gt;Node2 -->
<g id="edge1" class="edge">
<title>Node1&#45;&gt;Node2</title>
<path fill="none" stroke="midnightblue" d="M241.8,-37.33C233.26,-38.5 224.54,-39.7 216.17,-40.84"/>
<polygon fill="midnightblue" stroke="midnightblue" points="242.28,-40.79 251.71,-35.97 241.33,-33.86 242.28,-40.79"/>
</g>
<!-- Node4 -->
<g id="node4" class="node">
<title>Node4</title>
<g id="a_node4"><a xlink:href="classMap.html#ac4d6c021e958df55b4c1969d2c0e6c54" target="_top" xlink:title="Map::updateMap.">
<polygon fill="white" stroke="black" points="114,-0.5 114,-19.5 212,-19.5 212,-0.5 114,-0.5"/>
<text text-anchor="middle" x="163" y="-7.5" font-family="Helvetica,sans-Serif" font-size="10.00">Map::updateMap</text>
</a>
</g>
</g>
<!-- Node1&#45;&gt;Node4 -->
<g id="edge3" class="edge">
<title>Node1&#45;&gt;Node4</title>
<path fill="none" stroke="midnightblue" d="M241.53,-20.64C231.65,-19.28 221.54,-17.89 212.02,-16.59"/>
<polygon fill="midnightblue" stroke="midnightblue" points="241.33,-24.14 251.71,-22.03 242.28,-17.21 241.33,-24.14"/>
</g>
<!-- Node3 -->
<g id="node3" class="node">
<title>Node3</title>
<g id="a_node3"><a xlink:href="classEntity.html#a7666f416dd0d1fce0f1133f78df44476" target="_top" xlink:title=" ">
<polygon fill="white" stroke="black" points="0,-38.5 0,-57.5 74,-57.5 74,-38.5 0,-38.5"/>
<text text-anchor="middle" x="37" y="-45.5" font-family="Helvetica,sans-Serif" font-size="10.00">Entity::draw</text>
</a>
</g>
</g>
<!-- Node2&#45;&gt;Node3 -->
<g id="edge2" class="edge">
<title>Node2&#45;&gt;Node3</title>
<path fill="none" stroke="midnightblue" d="M99.64,-48C90.98,-48 82.33,-48 74.37,-48"/>
<polygon fill="midnightblue" stroke="midnightblue" points="99.77,-51.5 109.77,-48 99.77,-44.5 99.77,-51.5"/>
</g>
</g>
</svg>
