<?xml version="1.0" encoding="UTF-8" standalone="no"?>
<!DOCTYPE svg PUBLIC "-//W3C//DTD SVG 1.1//EN"
 "http://www.w3.org/Graphics/SVG/1.1/DTD/svg11.dtd">
<!-- Generated by graphviz version 2.43.0 (0)
 -->
<!-- Title: Enemy::clearTowers Pages: 1 -->
<svg width="739pt" height="142pt"
 viewBox="0.00 0.00 739.00 142.00" xmlns="http://www.w3.org/2000/svg" xmlns:xlink="http://www.w3.org/1999/xlink">
<g id="graph0" class="graph" transform="scale(1 1) rotate(0) translate(4 138)">
<title>Enemy::clearTowers</title>
<polygon fill="white" stroke="transparent" points="-4,4 -4,-138 735,-138 735,4 -4,4"/>
<!-- Node1 -->
<g id="node1" class="node">
<title>Node1</title>
<g id="a_node1"><a xlink:title=" ">
<polygon fill="#bfbfbf" stroke="black" points="618,-57.5 618,-76.5 731,-76.5 731,-57.5 618,-57.5"/>
<text text-anchor="middle" x="674.5" y="-64.5" font-family="Helvetica,sans-Serif" font-size="10.00">Enemy::clearTowers</text>
</a>
</g>
</g>
<!-- Node2 -->
<g id="node2" class="node">
<title>Node2</title>
<g id="a_node2"><a xlink:href="classCGame.html#a6890a8e74412ff0ced3959e3093e6d84" target="_top" xlink:title=" ">
<polygon fill="white" stroke="black" points="460,-114.5 460,-133.5 576,-133.5 576,-114.5 460,-114.5"/>
<text text-anchor="middle" x="518" y="-121.5" font-family="Helvetica,sans-Serif" font-size="10.00">CGame::drawTowers</text>
</a>
</g>
</g>
<!-- Node1&#45;&gt;Node2 -->
<g id="edge1" class="edge">
<title>Node1&#45;&gt;Node2</title>
<path fill="none" stroke="midnightblue" d="M638.09,-80.07C609.69,-90.54 570.49,-105.01 544.94,-114.43"/>
<polygon fill="midnightblue" stroke="midnightblue" points="639.47,-83.29 647.64,-76.54 637.05,-76.72 639.47,-83.29"/>
</g>
<!-- Node7 -->
<g id="node7" class="node">
<title>Node7</title>
<g id="a_node7"><a xlink:href="classCGame.html#a4225411d7a9a23bf0dcbaf63d6a41936" target="_top" xlink:title=" ">
<polygon fill="white" stroke="black" points="340.5,-76.5 340.5,-95.5 414.5,-95.5 414.5,-76.5 340.5,-76.5"/>
<text text-anchor="middle" x="377.5" y="-83.5" font-family="Helvetica,sans-Serif" font-size="10.00">CGame::init</text>
</a>
</g>
</g>
<!-- Node1&#45;&gt;Node7 -->
<g id="edge7" class="edge">
<title>Node1&#45;&gt;Node7</title>
<path fill="none" stroke="midnightblue" d="M607.6,-71.24C548.01,-75.08 462.51,-80.59 414.59,-83.68"/>
<polygon fill="midnightblue" stroke="midnightblue" points="607.91,-74.73 617.67,-70.6 607.46,-67.75 607.91,-74.73"/>
</g>
<!-- Node8 -->
<g id="node8" class="node">
<title>Node8</title>
<g id="a_node8"><a xlink:href="classCGame.html#afbbb4f8d05f753b7c2d6a0d91ca96a9b" target="_top" xlink:title=" ">
<polygon fill="white" stroke="black" points="454,-38.5 454,-57.5 582,-57.5 582,-38.5 454,-38.5"/>
<text text-anchor="middle" x="518" y="-45.5" font-family="Helvetica,sans-Serif" font-size="10.00">CGame::loadFromSave</text>
</a>
</g>
</g>
<!-- Node1&#45;&gt;Node8 -->
<g id="edge9" class="edge">
<title>Node1&#45;&gt;Node8</title>
<path fill="none" stroke="midnightblue" d="M607.53,-58.89C599.08,-57.85 590.44,-56.79 582.04,-55.75"/>
<polygon fill="midnightblue" stroke="midnightblue" points="607.37,-62.39 617.72,-60.14 608.22,-55.45 607.37,-62.39"/>
</g>
<!-- Node9 -->
<g id="node9" class="node">
<title>Node9</title>
<g id="a_node9"><a xlink:href="classCGame.html#ac614fee61f8ff86a286f727faf3a3cf4" target="_top" xlink:title=" ">
<polygon fill="white" stroke="black" points="455,-0.5 455,-19.5 581,-19.5 581,-0.5 455,-0.5"/>
<text text-anchor="middle" x="518" y="-7.5" font-family="Helvetica,sans-Serif" font-size="10.00">CGame::redrawTowers</text>
</a>
</g>
</g>
<!-- Node1&#45;&gt;Node9 -->
<g id="edge11" class="edge">
<title>Node1&#45;&gt;Node9</title>
<path fill="none" stroke="midnightblue" d="M643.05,-53.45C625.4,-45.82 602.64,-36.38 582,-29 572.64,-25.65 562.37,-22.39 552.88,-19.53"/>
<polygon fill="midnightblue" stroke="midnightblue" points="641.73,-56.69 652.29,-57.48 644.52,-50.27 641.73,-56.69"/>
</g>
<!-- Node3 -->
<g id="node3" class="node">
<title>Node3</title>
<g id="a_node3"><a xlink:href="classCGame.html#aa70fa8586abbd097b8eb7fb8d540841d" target="_top" xlink:title=" ">
<polygon fill="white" stroke="black" points="337,-114.5 337,-133.5 418,-133.5 418,-114.5 337,-114.5"/>
<text text-anchor="middle" x="377.5" y="-121.5" font-family="Helvetica,sans-Serif" font-size="10.00">CGame::start</text>
</a>
</g>
</g>
<!-- Node2&#45;&gt;Node3 -->
<g id="edge2" class="edge">
<title>Node2&#45;&gt;Node3</title>
<path fill="none" stroke="midnightblue" d="M449.6,-124C438.84,-124 428.02,-124 418.18,-124"/>
<polygon fill="midnightblue" stroke="midnightblue" points="449.87,-127.5 459.87,-124 449.87,-120.5 449.87,-127.5"/>
</g>
<!-- Node4 -->
<g id="node4" class="node">
<title>Node4</title>
<g id="a_node4"><a xlink:href="classCGame.html#aa7c80b7185158a0bde186d83f0e8cbb4" target="_top" xlink:title=" ">
<polygon fill="white" stroke="black" points="221,-95.5 221,-114.5 301,-114.5 301,-95.5 221,-95.5"/>
<text text-anchor="middle" x="261" y="-102.5" font-family="Helvetica,sans-Serif" font-size="10.00">CGame::play</text>
</a>
</g>
</g>
<!-- Node3&#45;&gt;Node4 -->
<g id="edge3" class="edge">
<title>Node3&#45;&gt;Node4</title>
<path fill="none" stroke="midnightblue" d="M326.87,-115.77C318.31,-114.34 309.51,-112.88 301.27,-111.52"/>
<polygon fill="midnightblue" stroke="midnightblue" points="326.34,-119.22 336.77,-117.41 327.48,-112.32 326.34,-119.22"/>
</g>
<!-- Node5 -->
<g id="node5" class="node">
<title>Node5</title>
<g id="a_node5"><a xlink:href="main_8cpp.html#a3c04138a5bfe5d72780bb7e82a18e627" target="_top" xlink:title=" ">
<polygon fill="white" stroke="black" points="144,-114.5 144,-133.5 185,-133.5 185,-114.5 144,-114.5"/>
<text text-anchor="middle" x="164.5" y="-121.5" font-family="Helvetica,sans-Serif" font-size="10.00">main</text>
</a>
</g>
</g>
<!-- Node4&#45;&gt;Node5 -->
<g id="edge4" class="edge">
<title>Node4&#45;&gt;Node5</title>
<path fill="none" stroke="midnightblue" d="M210.87,-114.88C201.75,-116.71 192.72,-118.53 185.15,-120.05"/>
<polygon fill="midnightblue" stroke="midnightblue" points="211.63,-118.3 220.74,-112.89 210.25,-111.43 211.63,-118.3"/>
</g>
<!-- Node6 -->
<g id="node6" class="node">
<title>Node6</title>
<g id="a_node6"><a xlink:href="structCMenu.html#a07236cc397b0e4e55ec4f916c3893fbd" target="_top" xlink:title=" ">
<polygon fill="white" stroke="black" points="0,-95.5 0,-114.5 108,-114.5 108,-95.5 0,-95.5"/>
<text text-anchor="middle" x="54" y="-102.5" font-family="Helvetica,sans-Serif" font-size="10.00">CMenu::mainMenu</text>
</a>
</g>
</g>
<!-- Node5&#45;&gt;Node6 -->
<g id="edge5" class="edge">
<title>Node5&#45;&gt;Node6</title>
<path fill="none" stroke="midnightblue" d="M133.76,-118.79C125.89,-117.41 117.17,-115.89 108.46,-114.36"/>
<polygon fill="midnightblue" stroke="midnightblue" points="133.4,-122.28 143.85,-120.56 134.61,-115.39 133.4,-122.28"/>
</g>
<!-- Node6&#45;&gt;Node4 -->
<g id="edge6" class="edge">
<title>Node6&#45;&gt;Node4</title>
<path fill="none" stroke="midnightblue" d="M118.4,-105C151.92,-105 192.01,-105 220.96,-105"/>
<polygon fill="midnightblue" stroke="midnightblue" points="118.22,-101.5 108.22,-105 118.22,-108.5 118.22,-101.5"/>
</g>
<!-- Node7&#45;&gt;Node4 -->
<g id="edge8" class="edge">
<title>Node7&#45;&gt;Node4</title>
<path fill="none" stroke="midnightblue" d="M330.39,-93.65C320.7,-95.26 310.57,-96.94 301.16,-98.5"/>
<polygon fill="midnightblue" stroke="midnightblue" points="330.98,-97.1 340.27,-92.01 329.83,-90.2 330.98,-97.1"/>
</g>
<!-- Node8&#45;&gt;Node7 -->
<g id="edge10" class="edge">
<title>Node8&#45;&gt;Node7</title>
<path fill="none" stroke="midnightblue" d="M472.37,-60.25C453.28,-65.48 431.32,-71.51 413.44,-76.41"/>
<polygon fill="midnightblue" stroke="midnightblue" points="473.33,-63.61 482.05,-57.59 471.48,-56.86 473.33,-63.61"/>
</g>
</g>
</svg>
