<?xml version="1.0" encoding="UTF-8" standalone="no"?>
<!DOCTYPE svg PUBLIC "-//W3C//DTD SVG 1.1//EN"
 "http://www.w3.org/Graphics/SVG/1.1/DTD/svg11.dtd">
<!-- Generated by graphviz version 2.43.0 (0)
 -->
<!-- Title: Enemy::createTowers Pages: 1 -->
<svg width="599pt" height="406pt"
 viewBox="0.00 0.00 599.00 406.22" xmlns="http://www.w3.org/2000/svg" xmlns:xlink="http://www.w3.org/1999/xlink">
<g id="graph0" class="graph" transform="scale(1 1) rotate(0) translate(4 402.22)">
<title>Enemy::createTowers</title>
<polygon fill="white" stroke="transparent" points="-4,4 -4,-402.22 595,-402.22 595,4 -4,4"/>
<!-- Node1 -->
<g id="node1" class="node">
<title>Node1</title>
<g id="a_node1"><a xlink:title=" ">
<polygon fill="#bfbfbf" stroke="black" points="0,-226.72 0,-245.72 120,-245.72 120,-226.72 0,-226.72"/>
<text text-anchor="middle" x="60" y="-233.72" font-family="Helvetica,sans-Serif" font-size="10.00">Enemy::createTowers</text>
</a>
</g>
</g>
<!-- Node2 -->
<g id="node2" class="node">
<title>Node2</title>
<g id="a_node2"><a xlink:href="classMap.html#a12616a2a3c221b40b7bb56efb7f32330" target="_top" xlink:title=" ">
<polygon fill="white" stroke="black" points="329,-378.72 329,-397.72 437,-397.72 437,-378.72 329,-378.72"/>
<text text-anchor="middle" x="383" y="-385.72" font-family="Helvetica,sans-Serif" font-size="10.00">Map::checkBounds</text>
</a>
</g>
</g>
<!-- Node1&#45;&gt;Node2 -->
<g id="edge1" class="edge">
<title>Node1&#45;&gt;Node2</title>
<path fill="none" stroke="midnightblue" d="M71.4,-245.76C88.15,-260.72 122.63,-289.89 156,-308.22 213.73,-339.93 286.44,-363.01 333.56,-376.01"/>
<polygon fill="midnightblue" stroke="midnightblue" points="332.64,-379.39 343.21,-378.63 334.47,-372.63 332.64,-379.39"/>
</g>
<!-- Node4 -->
<g id="node4" class="node">
<title>Node4</title>
<g id="a_node4"><a xlink:href="classMap.html#a4b669f3ae1f41ad70ae8c28910bfa4e8" target="_top" xlink:title=" ">
<polygon fill="white" stroke="black" points="156,-188.72 156,-207.72 284,-207.72 284,-188.72 156,-188.72"/>
<text text-anchor="middle" x="220" y="-195.72" font-family="Helvetica,sans-Serif" font-size="10.00">Map::checkNeighbours</text>
</a>
</g>
</g>
<!-- Node1&#45;&gt;Node4 -->
<g id="edge3" class="edge">
<title>Node1&#45;&gt;Node4</title>
<path fill="none" stroke="midnightblue" d="M100.87,-226.63C121.72,-221.62 147.43,-215.44 169.54,-210.12"/>
<polygon fill="midnightblue" stroke="midnightblue" points="170.51,-213.49 179.42,-207.74 168.88,-206.68 170.51,-213.49"/>
</g>
<!-- Node5 -->
<g id="node5" class="node">
<title>Node5</title>
<g id="a_node5"><a xlink:href="classMap.html#a535be22b99fa88937940593a90c1bcb7" target="_top" xlink:title=" ">
<polygon fill="white" stroke="black" points="181,-150.72 181,-169.72 259,-169.72 259,-150.72 181,-150.72"/>
<text text-anchor="middle" x="220" y="-157.72" font-family="Helvetica,sans-Serif" font-size="10.00">Map::getExit</text>
</a>
</g>
</g>
<!-- Node1&#45;&gt;Node5 -->
<g id="edge4" class="edge">
<title>Node1&#45;&gt;Node5</title>
<path fill="none" stroke="midnightblue" d="M74.58,-226.59C92.51,-214.23 125.4,-192.77 156,-179.22 161.09,-176.97 166.53,-174.89 172,-172.99"/>
<polygon fill="midnightblue" stroke="midnightblue" points="173.39,-176.22 181.8,-169.78 171.21,-169.56 173.39,-176.22"/>
</g>
<!-- Node6 -->
<g id="node6" class="node">
<title>Node6</title>
<g id="a_node6"><a xlink:href="classMap.html#af482c6f7d02d4e79c26097b53f4ce808" target="_top" xlink:title=" ">
<polygon fill="white" stroke="black" points="342,-340.72 342,-359.72 424,-359.72 424,-340.72 342,-340.72"/>
<text text-anchor="middle" x="383" y="-347.72" font-family="Helvetica,sans-Serif" font-size="10.00">Map::getType</text>
</a>
</g>
</g>
<!-- Node1&#45;&gt;Node6 -->
<g id="edge5" class="edge">
<title>Node1&#45;&gt;Node6</title>
<path fill="none" stroke="midnightblue" d="M85.84,-245.85C131.8,-263.53 233.29,-302.06 320,-331.22 326.45,-333.39 333.32,-335.6 340.04,-337.7"/>
<polygon fill="midnightblue" stroke="midnightblue" points="339.13,-341.08 349.71,-340.69 341.19,-334.4 339.13,-341.08"/>
</g>
<!-- Node7 -->
<g id="node7" class="node">
<title>Node7</title>
<g id="a_node7"><a xlink:href="classMap.html#adb8bd1312b25de59794e421009b6fa3e" target="_top" xlink:title=" ">
<polygon fill="white" stroke="black" points="176.5,-226.72 176.5,-245.72 263.5,-245.72 263.5,-226.72 176.5,-226.72"/>
<text text-anchor="middle" x="220" y="-233.72" font-family="Helvetica,sans-Serif" font-size="10.00">Map::setEntity</text>
</a>
</g>
</g>
<!-- Node1&#45;&gt;Node7 -->
<g id="edge6" class="edge">
<title>Node1&#45;&gt;Node7</title>
<path fill="none" stroke="midnightblue" d="M120.28,-236.22C135.22,-236.22 151.16,-236.22 165.78,-236.22"/>
<polygon fill="midnightblue" stroke="midnightblue" points="166.16,-239.72 176.16,-236.22 166.16,-232.72 166.16,-239.72"/>
</g>
<!-- Node3 -->
<g id="node3" class="node">
<title>Node3</title>
<g id="a_node3"><a xlink:href="classMap.html#a286853d8475bc1bbede582c89e9b1491" target="_top" xlink:title=" ">
<polygon fill="white" stroke="black" points="482,-378.72 482,-397.72 591,-397.72 591,-378.72 482,-378.72"/>
<text text-anchor="middle" x="536.5" y="-385.72" font-family="Helvetica,sans-Serif" font-size="10.00">Map::getMapWidth</text>
</a>
</g>
</g>
<!-- Node2&#45;&gt;Node3 -->
<g id="edge2" class="edge">
<title>Node2&#45;&gt;Node3</title>
<path fill="none" stroke="midnightblue" d="M437.41,-388.22C448.44,-388.22 460.15,-388.22 471.51,-388.22"/>
<polygon fill="midnightblue" stroke="midnightblue" points="471.8,-391.72 481.8,-388.22 471.8,-384.72 471.8,-391.72"/>
</g>
<!-- Node7&#45;&gt;Node2 -->
<g id="edge11" class="edge">
<title>Node7&#45;&gt;Node2</title>
<path fill="none" stroke="midnightblue" d="M225.48,-245.91C237.3,-270.39 271.77,-335.22 320,-369.22 322.85,-371.23 325.91,-373.03 329.1,-374.64"/>
<polygon fill="midnightblue" stroke="midnightblue" points="327.77,-377.88 338.33,-378.71 330.59,-371.48 327.77,-377.88"/>
</g>
<!-- Node7&#45;&gt;Node6 -->
<g id="edge17" class="edge">
<title>Node7&#45;&gt;Node6</title>
<path fill="none" stroke="midnightblue" d="M230.95,-246.01C255.01,-269.65 314.76,-328.15 320,-331.22 323.87,-333.5 328.04,-335.53 332.33,-337.33"/>
<polygon fill="midnightblue" stroke="midnightblue" points="331.21,-340.65 341.81,-340.92 333.69,-334.1 331.21,-340.65"/>
</g>
<!-- Node8 -->
<g id="node8" class="node">
<title>Node8</title>
<g id="a_node8"><a xlink:href="classMap.html#ae4968d82a24a805f98028a0a5b1a01e8" target="_top" xlink:title=" ">
<polygon fill="white" stroke="black" points="330.5,-36.72 330.5,-55.72 435.5,-55.72 435.5,-36.72 330.5,-36.72"/>
<text text-anchor="middle" x="383" y="-43.72" font-family="Helvetica,sans-Serif" font-size="10.00">Map::addToRadius</text>
</a>
</g>
</g>
<!-- Node7&#45;&gt;Node8 -->
<g id="edge7" class="edge">
<title>Node7&#45;&gt;Node8</title>
<path fill="none" stroke="midnightblue" d="M263.73,-229.9C271.29,-227.08 278.5,-223.03 284,-217.22 330.29,-168.42 275.61,-120.76 320,-70.22 323.39,-66.37 327.47,-63.12 331.91,-60.4"/>
<polygon fill="midnightblue" stroke="midnightblue" points="333.53,-63.5 340.77,-55.78 330.29,-57.3 333.53,-63.5"/>
</g>
<!-- Node9 -->
<g id="node9" class="node">
<title>Node9</title>
<g id="a_node9"><a xlink:href="classEntity.html#a8c0279c56eee0a37bc905c79c5d15cfd" target="_top" xlink:title=" ">
<polygon fill="white" stroke="black" points="498,-65.72 498,-84.72 575,-84.72 575,-65.72 498,-65.72"/>
<text text-anchor="middle" x="536.5" y="-72.72" font-family="Helvetica,sans-Serif" font-size="10.00">Entity::getID</text>
</a>
</g>
</g>
<!-- Node7&#45;&gt;Node9 -->
<g id="edge13" class="edge">
<title>Node7&#45;&gt;Node9</title>
<path fill="none" stroke="midnightblue" d="M263.76,-229.48C271.23,-226.69 278.39,-222.76 284,-217.22 321.81,-179.9 279.26,-137.33 320,-103.22 366.49,-64.3 439.54,-63.21 487.48,-67.79"/>
<polygon fill="midnightblue" stroke="midnightblue" points="487.29,-71.29 497.6,-68.88 488.03,-64.33 487.29,-71.29"/>
</g>
<!-- Node10 -->
<g id="node10" class="node">
<title>Node10</title>
<g id="a_node10"><a xlink:href="classEntity.html#aaaef5a4ba021755cd32ae39ecbbb38cd" target="_top" xlink:title=" ">
<polygon fill="white" stroke="black" points="492,-17.72 492,-36.72 581,-36.72 581,-17.72 492,-17.72"/>
<text text-anchor="middle" x="536.5" y="-24.72" font-family="Helvetica,sans-Serif" font-size="10.00">Entity::getType</text>
</a>
</g>
</g>
<!-- Node7&#45;&gt;Node10 -->
<g id="edge16" class="edge">
<title>Node7&#45;&gt;Node10</title>
<path fill="none" stroke="midnightblue" d="M263.65,-230.25C271.31,-227.4 278.58,-223.25 284,-217.22 341.48,-153.33 253.81,-82.05 320,-27.22 370.33,14.47 452.31,-0.74 499.32,-14.6"/>
<polygon fill="midnightblue" stroke="midnightblue" points="498.49,-18.01 509.07,-17.61 500.55,-11.32 498.49,-18.01"/>
</g>
<!-- Node11 -->
<g id="node11" class="node">
<title>Node11</title>
<g id="a_node11"><a xlink:href="classEntity.html#a4a2f1ef2a622b7c47f8931deed1b8a46" target="_top" xlink:title=" ">
<polygon fill="white" stroke="black" points="320,-302.72 320,-321.72 446,-321.72 446,-302.72 320,-302.72"/>
<text text-anchor="middle" x="383" y="-309.72" font-family="Helvetica,sans-Serif" font-size="10.00">Entity::calculateDeltas</text>
</a>
</g>
</g>
<!-- Node7&#45;&gt;Node11 -->
<g id="edge10" class="edge">
<title>Node7&#45;&gt;Node11</title>
<path fill="none" stroke="midnightblue" d="M235.22,-245.79C253.99,-258.08 288.35,-279.47 320,-293.22 325.16,-295.47 330.67,-297.56 336.2,-299.47"/>
<polygon fill="midnightblue" stroke="midnightblue" points="335.5,-302.93 346.09,-302.72 337.68,-296.28 335.5,-302.93"/>
</g>
<!-- Node12 -->
<g id="node12" class="node">
<title>Node12</title>
<g id="a_node12"><a xlink:href="classEntity.html#ab927c960c0767756d2ec47d965a8605c" target="_top" xlink:title=" ">
<polygon fill="white" stroke="black" points="334,-264.72 334,-283.72 432,-283.72 432,-264.72 334,-264.72"/>
<text text-anchor="middle" x="383" y="-271.72" font-family="Helvetica,sans-Serif" font-size="10.00">Entity::getDeltas</text>
</a>
</g>
</g>
<!-- Node7&#45;&gt;Node12 -->
<g id="edge12" class="edge">
<title>Node7&#45;&gt;Node12</title>
<path fill="none" stroke="midnightblue" d="M261.63,-245.81C282.97,-250.85 309.31,-257.07 331.91,-262.4"/>
<polygon fill="midnightblue" stroke="midnightblue" points="331.13,-265.81 341.67,-264.7 332.74,-259 331.13,-265.81"/>
</g>
<!-- Node13 -->
<g id="node13" class="node">
<title>Node13</title>
<g id="a_node13"><a xlink:href="classEntity.html#acd06d3d9c4914331c38e28d78427024f" target="_top" xlink:title=" ">
<polygon fill="white" stroke="black" points="333.5,-226.72 333.5,-245.72 432.5,-245.72 432.5,-226.72 333.5,-226.72"/>
<text text-anchor="middle" x="383" y="-233.72" font-family="Helvetica,sans-Serif" font-size="10.00">Entity::getRadius</text>
</a>
</g>
</g>
<!-- Node7&#45;&gt;Node13 -->
<g id="edge14" class="edge">
<title>Node7&#45;&gt;Node13</title>
<path fill="none" stroke="midnightblue" d="M263.72,-236.22C281.97,-236.22 303.56,-236.22 323.27,-236.22"/>
<polygon fill="midnightblue" stroke="midnightblue" points="323.38,-239.72 333.38,-236.22 323.38,-232.72 323.38,-239.72"/>
</g>
<!-- Node14 -->
<g id="node14" class="node">
<title>Node14</title>
<g id="a_node14"><a xlink:href="classEntity.html#aa9b4d32a894d4117dddcdff3c46842ae" target="_top" xlink:title=" ">
<polygon fill="white" stroke="black" points="331.5,-188.72 331.5,-207.72 434.5,-207.72 434.5,-188.72 331.5,-188.72"/>
<text text-anchor="middle" x="383" y="-195.72" font-family="Helvetica,sans-Serif" font-size="10.00">Entity::getSymbol</text>
</a>
</g>
</g>
<!-- Node7&#45;&gt;Node14 -->
<g id="edge15" class="edge">
<title>Node7&#45;&gt;Node14</title>
<path fill="none" stroke="midnightblue" d="M261.63,-226.63C282.97,-221.6 309.31,-215.38 331.91,-210.05"/>
<polygon fill="midnightblue" stroke="midnightblue" points="332.74,-213.45 341.67,-207.74 331.13,-206.63 332.74,-213.45"/>
</g>
<!-- Node15 -->
<g id="node15" class="node">
<title>Node15</title>
<g id="a_node15"><a xlink:href="classEntity.html#a6171cc57bf9ab1a0d0fe18b7a8acc4ea" target="_top" xlink:title=" ">
<polygon fill="white" stroke="black" points="344,-150.72 344,-169.72 422,-169.72 422,-150.72 344,-150.72"/>
<text text-anchor="middle" x="383" y="-157.72" font-family="Helvetica,sans-Serif" font-size="10.00">Entity::move</text>
</a>
</g>
</g>
<!-- Node7&#45;&gt;Node15 -->
<g id="edge18" class="edge">
<title>Node7&#45;&gt;Node15</title>
<path fill="none" stroke="midnightblue" d="M263.66,-226.67C270.73,-224.17 277.78,-221.06 284,-217.22 303.8,-205.01 300.23,-191.48 320,-179.22 324.43,-176.48 329.29,-174.1 334.27,-172.05"/>
<polygon fill="midnightblue" stroke="midnightblue" points="335.75,-175.24 343.93,-168.51 333.34,-168.67 335.75,-175.24"/>
</g>
<!-- Node16 -->
<g id="node16" class="node">
<title>Node16</title>
<g id="a_node16"><a xlink:href="classEntity.html#a58cbf4b62fa77ff52fd87ade1a8cacb0" target="_top" xlink:title=" ">
<polygon fill="white" stroke="black" points="334,-112.72 334,-131.72 432,-131.72 432,-112.72 334,-112.72"/>
<text text-anchor="middle" x="383" y="-119.72" font-family="Helvetica,sans-Serif" font-size="10.00">Entity::setRadius</text>
</a>
</g>
</g>
<!-- Node7&#45;&gt;Node16 -->
<g id="edge19" class="edge">
<title>Node7&#45;&gt;Node16</title>
<path fill="none" stroke="midnightblue" d="M263.5,-228.73C270.91,-226.01 278.11,-222.29 284,-217.22 312.33,-192.84 291.73,-165.67 320,-141.22 321.97,-139.52 324.1,-137.96 326.33,-136.55"/>
<polygon fill="midnightblue" stroke="midnightblue" points="328.19,-139.53 335.39,-131.76 324.91,-133.34 328.19,-139.53"/>
</g>
<!-- Node8&#45;&gt;Node9 -->
<g id="edge8" class="edge">
<title>Node8&#45;&gt;Node9</title>
<path fill="none" stroke="midnightblue" d="M434.03,-55.8C451.16,-59.08 470.28,-62.74 487.26,-65.99"/>
<polygon fill="midnightblue" stroke="midnightblue" points="487.05,-69.51 497.53,-67.95 488.36,-62.64 487.05,-69.51"/>
</g>
<!-- Node8&#45;&gt;Node10 -->
<g id="edge9" class="edge">
<title>Node8&#45;&gt;Node10</title>
<path fill="none" stroke="midnightblue" d="M435.71,-39.74C450.48,-37.89 466.6,-35.86 481.5,-34"/>
<polygon fill="midnightblue" stroke="midnightblue" points="482.1,-37.45 491.59,-32.73 481.23,-30.5 482.1,-37.45"/>
</g>
</g>
</svg>
