<?xml version="1.0" encoding="UTF-8" standalone="no"?>
<!DOCTYPE svg PUBLIC "-//W3C//DTD SVG 1.1//EN"
 "http://www.w3.org/Graphics/SVG/1.1/DTD/svg11.dtd">
<!-- Generated by graphviz version 2.43.0 (0)
 -->
<!-- Title: Map::printMap Pages: 1 -->
<svg width="601pt" height="104pt"
 viewBox="0.00 0.00 601.00 104.00" xmlns="http://www.w3.org/2000/svg" xmlns:xlink="http://www.w3.org/1999/xlink">
<g id="graph0" class="graph" transform="scale(1 1) rotate(0) translate(4 100)">
<title>Map::printMap</title>
<polygon fill="white" stroke="transparent" points="-4,4 -4,-100 597,-100 597,4 -4,4"/>
<!-- Node1 -->
<g id="node1" class="node">
<title>Node1</title>
<g id="a_node1"><a xlink:title=" ">
<polygon fill="#bfbfbf" stroke="black" points="506,-19.5 506,-38.5 593,-38.5 593,-19.5 506,-19.5"/>
<text text-anchor="middle" x="549.5" y="-26.5" font-family="Helvetica,sans-Serif" font-size="10.00">Map::printMap</text>
</a>
</g>
</g>
<!-- Node2 -->
<g id="node2" class="node">
<title>Node2</title>
<g id="a_node2"><a xlink:href="classCGame.html#aaae1d58e5125f6ab128afe0ec688a00a" target="_top" xlink:title=" ">
<polygon fill="white" stroke="black" points="384,-38.5 384,-57.5 458,-57.5 458,-38.5 384,-38.5"/>
<text text-anchor="middle" x="421" y="-45.5" font-family="Helvetica,sans-Serif" font-size="10.00">CGame::init</text>
</a>
</g>
</g>
<!-- Node1&#45;&gt;Node2 -->
<g id="edge1" class="edge">
<title>Node1&#45;&gt;Node2</title>
<path fill="none" stroke="midnightblue" d="M495.67,-36.93C483,-38.84 469.75,-40.83 458.04,-42.59"/>
<polygon fill="midnightblue" stroke="midnightblue" points="496.3,-40.38 505.67,-35.43 495.26,-33.46 496.3,-40.38"/>
</g>
<!-- Node7 -->
<g id="node7" class="node">
<title>Node7</title>
<g id="a_node7"><a xlink:href="classMap.html#af5b5492b49e9d1aaa54e586d1203030f" target="_top" xlink:title=" ">
<polygon fill="white" stroke="black" points="372,-0.5 372,-19.5 470,-19.5 470,-0.5 372,-0.5"/>
<text text-anchor="middle" x="421" y="-7.5" font-family="Helvetica,sans-Serif" font-size="10.00">Map::redrawMap</text>
</a>
</g>
</g>
<!-- Node1&#45;&gt;Node7 -->
<g id="edge7" class="edge">
<title>Node1&#45;&gt;Node7</title>
<path fill="none" stroke="midnightblue" d="M495.52,-21.04C487.06,-19.77 478.34,-18.46 470,-17.21"/>
<polygon fill="midnightblue" stroke="midnightblue" points="495.26,-24.54 505.67,-22.57 496.3,-17.62 495.26,-24.54"/>
</g>
<!-- Node3 -->
<g id="node3" class="node">
<title>Node3</title>
<g id="a_node3"><a xlink:href="classCGame.html#aa7c80b7185158a0bde186d83f0e8cbb4" target="_top" xlink:title=" ">
<polygon fill="white" stroke="black" points="238.5,-57.5 238.5,-76.5 318.5,-76.5 318.5,-57.5 238.5,-57.5"/>
<text text-anchor="middle" x="278.5" y="-64.5" font-family="Helvetica,sans-Serif" font-size="10.00">CGame::play</text>
</a>
</g>
</g>
<!-- Node2&#45;&gt;Node3 -->
<g id="edge2" class="edge">
<title>Node2&#45;&gt;Node3</title>
<path fill="none" stroke="midnightblue" d="M373.87,-54.24C355.97,-56.66 335.68,-59.4 318.52,-61.72"/>
<polygon fill="midnightblue" stroke="midnightblue" points="374.38,-57.7 383.82,-52.89 373.44,-50.76 374.38,-57.7"/>
</g>
<!-- Node6 -->
<g id="node6" class="node">
<title>Node6</title>
<g id="a_node6"><a xlink:href="classCGame.html#a5dc70520b14c22acbd728f6599bb150a" target="_top" xlink:title=" ">
<polygon fill="white" stroke="black" points="221,-19.5 221,-38.5 336,-38.5 336,-19.5 221,-19.5"/>
<text text-anchor="middle" x="278.5" y="-26.5" font-family="Helvetica,sans-Serif" font-size="10.00">CGame::testRoutine</text>
</a>
</g>
</g>
<!-- Node2&#45;&gt;Node6 -->
<g id="edge6" class="edge">
<title>Node2&#45;&gt;Node6</title>
<path fill="none" stroke="midnightblue" d="M373.57,-41.72C361.55,-40.1 348.48,-38.33 336.01,-36.64"/>
<polygon fill="midnightblue" stroke="midnightblue" points="373.44,-45.24 383.82,-43.11 374.38,-38.3 373.44,-45.24"/>
</g>
<!-- Node4 -->
<g id="node4" class="node">
<title>Node4</title>
<g id="a_node4"><a xlink:href="main_8cpp.html#a3c04138a5bfe5d72780bb7e82a18e627" target="_top" xlink:title=" ">
<polygon fill="white" stroke="black" points="144,-76.5 144,-95.5 185,-95.5 185,-76.5 144,-76.5"/>
<text text-anchor="middle" x="164.5" y="-83.5" font-family="Helvetica,sans-Serif" font-size="10.00">main</text>
</a>
</g>
</g>
<!-- Node3&#45;&gt;Node4 -->
<g id="edge3" class="edge">
<title>Node3&#45;&gt;Node4</title>
<path fill="none" stroke="midnightblue" d="M228.04,-75.39C212.95,-77.95 197.22,-80.62 185.31,-82.64"/>
<polygon fill="midnightblue" stroke="midnightblue" points="229.05,-78.77 238.33,-73.65 227.88,-71.87 229.05,-78.77"/>
</g>
<!-- Node5 -->
<g id="node5" class="node">
<title>Node5</title>
<g id="a_node5"><a xlink:href="structCMenu.html#a07236cc397b0e4e55ec4f916c3893fbd" target="_top" xlink:title=" ">
<polygon fill="white" stroke="black" points="0,-57.5 0,-76.5 108,-76.5 108,-57.5 0,-57.5"/>
<text text-anchor="middle" x="54" y="-64.5" font-family="Helvetica,sans-Serif" font-size="10.00">CMenu::mainMenu</text>
</a>
</g>
</g>
<!-- Node4&#45;&gt;Node5 -->
<g id="edge4" class="edge">
<title>Node4&#45;&gt;Node5</title>
<path fill="none" stroke="midnightblue" d="M133.76,-80.79C125.89,-79.41 117.17,-77.89 108.46,-76.36"/>
<polygon fill="midnightblue" stroke="midnightblue" points="133.4,-84.28 143.85,-82.56 134.61,-77.39 133.4,-84.28"/>
</g>
<!-- Node5&#45;&gt;Node3 -->
<g id="edge5" class="edge">
<title>Node5&#45;&gt;Node3</title>
<path fill="none" stroke="midnightblue" d="M118.32,-67C157.03,-67 205.31,-67 238.49,-67"/>
<polygon fill="midnightblue" stroke="midnightblue" points="118.19,-63.5 108.19,-67 118.19,-70.5 118.19,-63.5"/>
</g>
</g>
</svg>
