<?xml version="1.0" encoding="UTF-8" standalone="no"?>
<!DOCTYPE svg PUBLIC "-//W3C//DTD SVG 1.1//EN"
 "http://www.w3.org/Graphics/SVG/1.1/DTD/svg11.dtd">
<!-- Generated by graphviz version 2.43.0 (0)
 -->
<!-- Title: CGame::load Pages: 1 -->
<svg width="356pt" height="66pt"
 viewBox="0.00 0.00 356.00 66.00" xmlns="http://www.w3.org/2000/svg" xmlns:xlink="http://www.w3.org/1999/xlink">
<g id="graph0" class="graph" transform="scale(1 1) rotate(0) translate(4 62)">
<title>CGame::load</title>
<polygon fill="white" stroke="transparent" points="-4,4 -4,-62 352,-62 352,4 -4,4"/>
<!-- Node1 -->
<g id="node1" class="node">
<title>Node1</title>
<g id="a_node1"><a xlink:title=" ">
<polygon fill="#bfbfbf" stroke="black" points="0,-19.5 0,-38.5 80,-38.5 80,-19.5 0,-19.5"/>
<text text-anchor="middle" x="40" y="-26.5" font-family="Helvetica,sans-Serif" font-size="10.00">CGame::load</text>
</a>
</g>
</g>
<!-- Node2 -->
<g id="node2" class="node">
<title>Node2</title>
<g id="a_node2"><a xlink:href="classMap.html#acd24cfa7aca34a2839a94490ef563aa2" target="_top" xlink:title=" ">
<polygon fill="white" stroke="black" points="116,-19.5 116,-38.5 202,-38.5 202,-19.5 116,-19.5"/>
<text text-anchor="middle" x="159" y="-26.5" font-family="Helvetica,sans-Serif" font-size="10.00">Map::readMap</text>
</a>
</g>
</g>
<!-- Node1&#45;&gt;Node2 -->
<g id="edge1" class="edge">
<title>Node1&#45;&gt;Node2</title>
<path fill="none" stroke="midnightblue" d="M80.28,-29C88.4,-29 97.08,-29 105.58,-29"/>
<polygon fill="midnightblue" stroke="midnightblue" points="105.81,-32.5 115.81,-29 105.81,-25.5 105.81,-32.5"/>
</g>
<!-- Node3 -->
<g id="node3" class="node">
<title>Node3</title>
<g id="a_node3"><a xlink:href="logFile_8cpp.html#a4646ee780db7319bd0615817febd557c" target="_top" xlink:title=" ">
<polygon fill="white" stroke="black" points="250.5,-38.5 250.5,-57.5 335.5,-57.5 335.5,-38.5 250.5,-38.5"/>
<text text-anchor="middle" x="293" y="-45.5" font-family="Helvetica,sans-Serif" font-size="10.00">sendToLogFile</text>
</a>
</g>
</g>
<!-- Node2&#45;&gt;Node3 -->
<g id="edge2" class="edge">
<title>Node2&#45;&gt;Node3</title>
<path fill="none" stroke="midnightblue" d="M202.13,-35.06C214.27,-36.81 227.67,-38.74 240.32,-40.56"/>
<polygon fill="midnightblue" stroke="midnightblue" points="239.87,-44.03 250.27,-41.99 240.87,-37.1 239.87,-44.03"/>
</g>
<!-- Node4 -->
<g id="node4" class="node">
<title>Node4</title>
<g id="a_node4"><a xlink:href="classlogException.html#ae39c5653d4ea6c93444e3ac290878ad5" target="_top" xlink:title=" ">
<polygon fill="white" stroke="black" points="238,-0.5 238,-19.5 348,-19.5 348,-0.5 238,-0.5"/>
<text text-anchor="middle" x="293" y="-7.5" font-family="Helvetica,sans-Serif" font-size="10.00">logException::what</text>
</a>
</g>
</g>
<!-- Node2&#45;&gt;Node4 -->
<g id="edge3" class="edge">
<title>Node2&#45;&gt;Node4</title>
<path fill="none" stroke="midnightblue" d="M202.13,-22.94C210.26,-21.77 218.96,-20.51 227.61,-19.27"/>
<polygon fill="midnightblue" stroke="midnightblue" points="228.32,-22.7 237.72,-17.81 227.33,-15.77 228.32,-22.7"/>
</g>
</g>
</svg>
