<?xml version="1.0" encoding="UTF-8" standalone="no"?>
<!DOCTYPE svg PUBLIC "-//W3C//DTD SVG 1.1//EN"
 "http://www.w3.org/Graphics/SVG/1.1/DTD/svg11.dtd">
<!-- Generated by graphviz version 2.43.0 (0)
 -->
<!-- Title: Enemy::createTowers Pages: 1 -->
<svg width="762pt" height="85pt"
 viewBox="0.00 0.00 762.00 85.00" xmlns="http://www.w3.org/2000/svg" xmlns:xlink="http://www.w3.org/1999/xlink">
<g id="graph0" class="graph" transform="scale(1 1) rotate(0) translate(4 81)">
<title>Enemy::createTowers</title>
<polygon fill="white" stroke="transparent" points="-4,4 -4,-81 758,-81 758,4 -4,4"/>
<!-- Node1 -->
<g id="node1" class="node">
<title>Node1</title>
<g id="a_node1"><a xlink:title=" ">
<polygon fill="#bfbfbf" stroke="black" points="634,-19.5 634,-38.5 754,-38.5 754,-19.5 634,-19.5"/>
<text text-anchor="middle" x="694" y="-26.5" font-family="Helvetica,sans-Serif" font-size="10.00">Enemy::createTowers</text>
</a>
</g>
</g>
<!-- Node2 -->
<g id="node2" class="node">
<title>Node2</title>
<g id="a_node2"><a xlink:href="classCGame.html#a6890a8e74412ff0ced3959e3093e6d84" target="_top" xlink:title=" ">
<polygon fill="white" stroke="black" points="482,-19.5 482,-38.5 598,-38.5 598,-19.5 482,-19.5"/>
<text text-anchor="middle" x="540" y="-26.5" font-family="Helvetica,sans-Serif" font-size="10.00">CGame::drawTowers</text>
</a>
</g>
</g>
<!-- Node1&#45;&gt;Node2 -->
<g id="edge1" class="edge">
<title>Node1&#45;&gt;Node2</title>
<path fill="none" stroke="midnightblue" d="M623.57,-29C615.11,-29 606.55,-29 598.3,-29"/>
<polygon fill="midnightblue" stroke="midnightblue" points="623.8,-32.5 633.8,-29 623.8,-25.5 623.8,-32.5"/>
</g>
<!-- Node3 -->
<g id="node3" class="node">
<title>Node3</title>
<g id="a_node3"><a xlink:href="classCGame.html#aaae1d58e5125f6ab128afe0ec688a00a" target="_top" xlink:title=" ">
<polygon fill="white" stroke="black" points="372,-19.5 372,-38.5 446,-38.5 446,-19.5 372,-19.5"/>
<text text-anchor="middle" x="409" y="-26.5" font-family="Helvetica,sans-Serif" font-size="10.00">CGame::init</text>
</a>
</g>
</g>
<!-- Node2&#45;&gt;Node3 -->
<g id="edge2" class="edge">
<title>Node2&#45;&gt;Node3</title>
<path fill="none" stroke="midnightblue" d="M471.41,-29C462.66,-29 453.99,-29 446.04,-29"/>
<polygon fill="midnightblue" stroke="midnightblue" points="471.67,-32.5 481.67,-29 471.67,-25.5 471.67,-32.5"/>
</g>
<!-- Node4 -->
<g id="node4" class="node">
<title>Node4</title>
<g id="a_node4"><a xlink:href="classCGame.html#aa7c80b7185158a0bde186d83f0e8cbb4" target="_top" xlink:title=" ">
<polygon fill="white" stroke="black" points="238.5,-38.5 238.5,-57.5 318.5,-57.5 318.5,-38.5 238.5,-38.5"/>
<text text-anchor="middle" x="278.5" y="-45.5" font-family="Helvetica,sans-Serif" font-size="10.00">CGame::play</text>
</a>
</g>
</g>
<!-- Node3&#45;&gt;Node4 -->
<g id="edge3" class="edge">
<title>Node3&#45;&gt;Node4</title>
<path fill="none" stroke="midnightblue" d="M361.81,-35.83C347.62,-37.93 332.16,-40.21 318.51,-42.23"/>
<polygon fill="midnightblue" stroke="midnightblue" points="362.48,-39.27 371.86,-34.34 361.46,-32.34 362.48,-39.27"/>
</g>
<!-- Node7 -->
<g id="node7" class="node">
<title>Node7</title>
<g id="a_node7"><a xlink:href="classCGame.html#a5dc70520b14c22acbd728f6599bb150a" target="_top" xlink:title=" ">
<polygon fill="white" stroke="black" points="221,-0.5 221,-19.5 336,-19.5 336,-0.5 221,-0.5"/>
<text text-anchor="middle" x="278.5" y="-7.5" font-family="Helvetica,sans-Serif" font-size="10.00">CGame::testRoutine</text>
</a>
</g>
</g>
<!-- Node3&#45;&gt;Node7 -->
<g id="edge7" class="edge">
<title>Node3&#45;&gt;Node7</title>
<path fill="none" stroke="midnightblue" d="M361.9,-22.18C353.51,-20.94 344.67,-19.64 336.03,-18.36"/>
<polygon fill="midnightblue" stroke="midnightblue" points="361.46,-25.66 371.86,-23.66 362.48,-18.73 361.46,-25.66"/>
</g>
<!-- Node5 -->
<g id="node5" class="node">
<title>Node5</title>
<g id="a_node5"><a xlink:href="main_8cpp.html#a3c04138a5bfe5d72780bb7e82a18e627" target="_top" xlink:title=" ">
<polygon fill="white" stroke="black" points="144,-57.5 144,-76.5 185,-76.5 185,-57.5 144,-57.5"/>
<text text-anchor="middle" x="164.5" y="-64.5" font-family="Helvetica,sans-Serif" font-size="10.00">main</text>
</a>
</g>
</g>
<!-- Node4&#45;&gt;Node5 -->
<g id="edge4" class="edge">
<title>Node4&#45;&gt;Node5</title>
<path fill="none" stroke="midnightblue" d="M228.04,-56.39C212.95,-58.95 197.22,-61.62 185.31,-63.64"/>
<polygon fill="midnightblue" stroke="midnightblue" points="229.05,-59.77 238.33,-54.65 227.88,-52.87 229.05,-59.77"/>
</g>
<!-- Node6 -->
<g id="node6" class="node">
<title>Node6</title>
<g id="a_node6"><a xlink:href="structCMenu.html#a07236cc397b0e4e55ec4f916c3893fbd" target="_top" xlink:title=" ">
<polygon fill="white" stroke="black" points="0,-38.5 0,-57.5 108,-57.5 108,-38.5 0,-38.5"/>
<text text-anchor="middle" x="54" y="-45.5" font-family="Helvetica,sans-Serif" font-size="10.00">CMenu::mainMenu</text>
</a>
</g>
</g>
<!-- Node5&#45;&gt;Node6 -->
<g id="edge5" class="edge">
<title>Node5&#45;&gt;Node6</title>
<path fill="none" stroke="midnightblue" d="M133.76,-61.79C125.89,-60.41 117.17,-58.89 108.46,-57.36"/>
<polygon fill="midnightblue" stroke="midnightblue" points="133.4,-65.28 143.85,-63.56 134.61,-58.39 133.4,-65.28"/>
</g>
<!-- Node6&#45;&gt;Node4 -->
<g id="edge6" class="edge">
<title>Node6&#45;&gt;Node4</title>
<path fill="none" stroke="midnightblue" d="M118.32,-48C157.03,-48 205.31,-48 238.49,-48"/>
<polygon fill="midnightblue" stroke="midnightblue" points="118.19,-44.5 108.19,-48 118.19,-51.5 118.19,-44.5"/>
</g>
</g>
</svg>
