<?xml version="1.0" encoding="UTF-8" standalone="no"?>
<!DOCTYPE svg PUBLIC "-//W3C//DTD SVG 1.1//EN"
 "http://www.w3.org/Graphics/SVG/1.1/DTD/svg11.dtd">
<!-- Generated by graphviz version 2.43.0 (0)
 -->
<!-- Title: Enemy::createTowers Pages: 1 -->
<svg width="431pt" height="142pt"
 viewBox="0.00 0.00 431.00 142.00" xmlns="http://www.w3.org/2000/svg" xmlns:xlink="http://www.w3.org/1999/xlink">
<g id="graph0" class="graph" transform="scale(1 1) rotate(0) translate(4 138)">
<title>Enemy::createTowers</title>
<polygon fill="white" stroke="transparent" points="-4,4 -4,-138 427,-138 427,4 -4,4"/>
<!-- Node1 -->
<g id="node1" class="node">
<title>Node1</title>
<g id="a_node1"><a xlink:title=" ">
<polygon fill="#bfbfbf" stroke="black" points="0,-76.5 0,-95.5 120,-95.5 120,-76.5 0,-76.5"/>
<text text-anchor="middle" x="60" y="-83.5" font-family="Helvetica,sans-Serif" font-size="10.00">Enemy::createTowers</text>
</a>
</g>
</g>
<!-- Node2 -->
<g id="node2" class="node">
<title>Node2</title>
<g id="a_node2"><a xlink:href="classMap.html#a4b669f3ae1f41ad70ae8c28910bfa4e8" target="_top" xlink:title=" ">
<polygon fill="white" stroke="black" points="156,-95.5 156,-114.5 284,-114.5 284,-95.5 156,-95.5"/>
<text text-anchor="middle" x="220" y="-102.5" font-family="Helvetica,sans-Serif" font-size="10.00">Map::checkNeighbours</text>
</a>
</g>
</g>
<!-- Node1&#45;&gt;Node2 -->
<g id="edge1" class="edge">
<title>Node1&#45;&gt;Node2</title>
<path fill="none" stroke="midnightblue" d="M120.28,-93.13C128.65,-94.14 137.34,-95.18 145.93,-96.21"/>
<polygon fill="midnightblue" stroke="midnightblue" points="145.6,-99.7 155.95,-97.42 146.44,-92.75 145.6,-99.7"/>
</g>
<!-- Node3 -->
<g id="node3" class="node">
<title>Node3</title>
<g id="a_node3"><a xlink:href="classMap.html#adb8bd1312b25de59794e421009b6fa3e" target="_top" xlink:title=" ">
<polygon fill="white" stroke="black" points="176.5,-57.5 176.5,-76.5 263.5,-76.5 263.5,-57.5 176.5,-57.5"/>
<text text-anchor="middle" x="220" y="-64.5" font-family="Helvetica,sans-Serif" font-size="10.00">Map::setEntity</text>
</a>
</g>
</g>
<!-- Node1&#45;&gt;Node3 -->
<g id="edge2" class="edge">
<title>Node1&#45;&gt;Node3</title>
<path fill="none" stroke="midnightblue" d="M120.28,-78.87C135.37,-77.06 151.47,-75.12 166.21,-73.35"/>
<polygon fill="midnightblue" stroke="midnightblue" points="166.65,-76.82 176.16,-72.15 165.82,-69.87 166.65,-76.82"/>
</g>
<!-- Node4 -->
<g id="node4" class="node">
<title>Node4</title>
<g id="a_node4"><a xlink:href="classEntity.html#ae18a1a6367fa577ecc7e5889679b285c" target="_top" xlink:title=" ">
<polygon fill="white" stroke="black" points="333,-114.5 333,-133.5 410,-133.5 410,-114.5 333,-114.5"/>
<text text-anchor="middle" x="371.5" y="-121.5" font-family="Helvetica,sans-Serif" font-size="10.00">Entity::getID</text>
</a>
</g>
</g>
<!-- Node3&#45;&gt;Node4 -->
<g id="edge3" class="edge">
<title>Node3&#45;&gt;Node4</title>
<path fill="none" stroke="midnightblue" d="M257.07,-76.57C265.99,-79.3 275.44,-82.49 284,-86 300.74,-92.87 303.5,-97.58 320,-105 324.41,-106.99 329.1,-108.94 333.77,-110.8"/>
<polygon fill="midnightblue" stroke="midnightblue" points="332.66,-114.13 343.25,-114.46 335.18,-107.6 332.66,-114.13"/>
</g>
<!-- Node5 -->
<g id="node5" class="node">
<title>Node5</title>
<g id="a_node5"><a xlink:href="classEntity.html#aa9b4d32a894d4117dddcdff3c46842ae" target="_top" xlink:title=" ">
<polygon fill="white" stroke="black" points="320,-76.5 320,-95.5 423,-95.5 423,-76.5 320,-76.5"/>
<text text-anchor="middle" x="371.5" y="-83.5" font-family="Helvetica,sans-Serif" font-size="10.00">Entity::getSymbol</text>
</a>
</g>
</g>
<!-- Node3&#45;&gt;Node5 -->
<g id="edge4" class="edge">
<title>Node3&#45;&gt;Node5</title>
<path fill="none" stroke="midnightblue" d="M263.84,-72.44C278.21,-74.27 294.51,-76.34 309.97,-78.31"/>
<polygon fill="midnightblue" stroke="midnightblue" points="309.62,-81.79 319.98,-79.58 310.51,-74.85 309.62,-81.79"/>
</g>
<!-- Node6 -->
<g id="node6" class="node">
<title>Node6</title>
<g id="a_node6"><a xlink:href="classEntity.html#aaaef5a4ba021755cd32ae39ecbbb38cd" target="_top" xlink:title=" ">
<polygon fill="white" stroke="black" points="327,-38.5 327,-57.5 416,-57.5 416,-38.5 327,-38.5"/>
<text text-anchor="middle" x="371.5" y="-45.5" font-family="Helvetica,sans-Serif" font-size="10.00">Entity::getType</text>
</a>
</g>
</g>
<!-- Node3&#45;&gt;Node6 -->
<g id="edge5" class="edge">
<title>Node3&#45;&gt;Node6</title>
<path fill="none" stroke="midnightblue" d="M263.84,-61.56C280.36,-59.46 299.43,-57.03 316.85,-54.82"/>
<polygon fill="midnightblue" stroke="midnightblue" points="317.4,-58.28 326.87,-53.54 316.51,-51.33 317.4,-58.28"/>
</g>
<!-- Node7 -->
<g id="node7" class="node">
<title>Node7</title>
<g id="a_node7"><a xlink:href="classEntity.html#a6171cc57bf9ab1a0d0fe18b7a8acc4ea" target="_top" xlink:title=" ">
<polygon fill="white" stroke="black" points="332.5,-0.5 332.5,-19.5 410.5,-19.5 410.5,-0.5 332.5,-0.5"/>
<text text-anchor="middle" x="371.5" y="-7.5" font-family="Helvetica,sans-Serif" font-size="10.00">Entity::move</text>
</a>
</g>
</g>
<!-- Node3&#45;&gt;Node7 -->
<g id="edge6" class="edge">
<title>Node3&#45;&gt;Node7</title>
<path fill="none" stroke="midnightblue" d="M245.8,-57.43C265.81,-49.72 294.7,-38.61 320,-29 324.96,-27.11 330.2,-25.13 335.35,-23.19"/>
<polygon fill="midnightblue" stroke="midnightblue" points="336.93,-26.34 345.06,-19.54 334.46,-19.78 336.93,-26.34"/>
</g>
</g>
</svg>
