<?xml version="1.0" encoding="UTF-8" standalone="no"?>
<!DOCTYPE svg PUBLIC "-//W3C//DTD SVG 1.1//EN"
 "http://www.w3.org/Graphics/SVG/1.1/DTD/svg11.dtd">
<!-- Generated by graphviz version 2.43.0 (0)
 -->
<!-- Title: CGame::start Pages: 1 -->
<svg width="581pt" height="256pt"
 viewBox="0.00 0.00 581.00 256.00" xmlns="http://www.w3.org/2000/svg" xmlns:xlink="http://www.w3.org/1999/xlink">
<g id="graph0" class="graph" transform="scale(1 1) rotate(0) translate(4 252)">
<title>CGame::start</title>
<polygon fill="white" stroke="transparent" points="-4,4 -4,-252 577,-252 577,4 -4,4"/>
<!-- Node1 -->
<g id="node1" class="node">
<title>Node1</title>
<g id="a_node1"><a xlink:title=" ">
<polygon fill="#bfbfbf" stroke="black" points="0,-67.5 0,-86.5 81,-86.5 81,-67.5 0,-67.5"/>
<text text-anchor="middle" x="40.5" y="-74.5" font-family="Helvetica,sans-Serif" font-size="10.00">CGame::start</text>
</a>
</g>
</g>
<!-- Node2 -->
<g id="node2" class="node">
<title>Node2</title>
<g id="a_node2"><a xlink:href="classCGame.html#a6890a8e74412ff0ced3959e3093e6d84" target="_top" xlink:title=" ">
<polygon fill="white" stroke="black" points="117,-152.5 117,-171.5 233,-171.5 233,-152.5 117,-152.5"/>
<text text-anchor="middle" x="175" y="-159.5" font-family="Helvetica,sans-Serif" font-size="10.00">CGame::drawTowers</text>
</a>
</g>
</g>
<!-- Node1&#45;&gt;Node2 -->
<g id="edge1" class="edge">
<title>Node1&#45;&gt;Node2</title>
<path fill="none" stroke="midnightblue" d="M56.44,-86.59C79.3,-101.25 123.17,-129.39 150.38,-146.85"/>
<polygon fill="midnightblue" stroke="midnightblue" points="148.6,-149.87 158.91,-152.32 152.38,-143.97 148.6,-149.87"/>
</g>
<!-- Node9 -->
<g id="node9" class="node">
<title>Node9</title>
<g id="a_node9"><a xlink:href="classMap.html#af5b5492b49e9d1aaa54e586d1203030f" target="_top" xlink:title=" ">
<polygon fill="white" stroke="black" points="126,-67.5 126,-86.5 224,-86.5 224,-67.5 126,-67.5"/>
<text text-anchor="middle" x="175" y="-74.5" font-family="Helvetica,sans-Serif" font-size="10.00">Map::redrawMap</text>
</a>
</g>
</g>
<!-- Node1&#45;&gt;Node9 -->
<g id="edge8" class="edge">
<title>Node1&#45;&gt;Node9</title>
<path fill="none" stroke="midnightblue" d="M81.25,-77C92.1,-77 104.09,-77 115.73,-77"/>
<polygon fill="midnightblue" stroke="midnightblue" points="115.85,-80.5 125.85,-77 115.85,-73.5 115.85,-80.5"/>
</g>
<!-- Node12 -->
<g id="node12" class="node">
<title>Node12</title>
<g id="a_node12"><a xlink:href="classCGame.html#abca9e7318a19887770d007a56248fa82" target="_top" xlink:title=" ">
<polygon fill="white" stroke="black" points="127.5,-10.5 127.5,-29.5 222.5,-29.5 222.5,-10.5 127.5,-10.5"/>
<text text-anchor="middle" x="175" y="-17.5" font-family="Helvetica,sans-Serif" font-size="10.00">CGame::resume</text>
</a>
</g>
</g>
<!-- Node1&#45;&gt;Node12 -->
<g id="edge11" class="edge">
<title>Node1&#45;&gt;Node12</title>
<path fill="none" stroke="midnightblue" d="M63.68,-67.46C85.17,-58.21 118,-44.09 142.26,-33.65"/>
<polygon fill="midnightblue" stroke="midnightblue" points="143.95,-36.74 151.75,-29.57 141.18,-30.31 143.95,-36.74"/>
</g>
<!-- Node3 -->
<g id="node3" class="node">
<title>Node3</title>
<g id="a_node3"><a xlink:href="classEnemy.html#ab8dab466556eb7f9a39697c045864289" target="_top" xlink:title=" ">
<polygon fill="white" stroke="black" points="282.5,-228.5 282.5,-247.5 395.5,-247.5 395.5,-228.5 282.5,-228.5"/>
<text text-anchor="middle" x="339" y="-235.5" font-family="Helvetica,sans-Serif" font-size="10.00">Enemy::clearTowers</text>
</a>
</g>
</g>
<!-- Node2&#45;&gt;Node3 -->
<g id="edge2" class="edge">
<title>Node2&#45;&gt;Node3</title>
<path fill="none" stroke="midnightblue" d="M188.91,-171.55C206.3,-184.02 238.6,-205.81 269,-219 274.48,-221.38 280.33,-223.53 286.22,-225.46"/>
<polygon fill="midnightblue" stroke="midnightblue" points="285.53,-228.91 296.12,-228.5 287.59,-222.22 285.53,-228.91"/>
</g>
<!-- Node4 -->
<g id="node4" class="node">
<title>Node4</title>
<g id="a_node4"><a xlink:href="classEnemy.html#a238798e0d954a7ee3b6fafb592151cde" target="_top" xlink:title=" ">
<polygon fill="white" stroke="black" points="279,-190.5 279,-209.5 399,-209.5 399,-190.5 279,-190.5"/>
<text text-anchor="middle" x="339" y="-197.5" font-family="Helvetica,sans-Serif" font-size="10.00">Enemy::createTowers</text>
</a>
</g>
</g>
<!-- Node2&#45;&gt;Node4 -->
<g id="edge3" class="edge">
<title>Node2&#45;&gt;Node4</title>
<path fill="none" stroke="midnightblue" d="M216.88,-171.59C238.35,-176.63 264.86,-182.84 287.6,-188.18"/>
<polygon fill="midnightblue" stroke="midnightblue" points="286.88,-191.6 297.41,-190.48 288.48,-184.79 286.88,-191.6"/>
</g>
<!-- Node6 -->
<g id="node6" class="node">
<title>Node6</title>
<g id="a_node6"><a xlink:href="classEnemy.html#ac81638432442d1e4cc2aa0c4ca49f439" target="_top" xlink:title=" ">
<polygon fill="white" stroke="black" points="269,-152.5 269,-171.5 409,-171.5 409,-152.5 269,-152.5"/>
<text text-anchor="middle" x="339" y="-159.5" font-family="Helvetica,sans-Serif" font-size="10.00">Enemy::findEmptySpaces</text>
</a>
</g>
</g>
<!-- Node2&#45;&gt;Node6 -->
<g id="edge5" class="edge">
<title>Node2&#45;&gt;Node6</title>
<path fill="none" stroke="midnightblue" d="M233.12,-162C241.43,-162 250.11,-162 258.77,-162"/>
<polygon fill="midnightblue" stroke="midnightblue" points="258.9,-165.5 268.9,-162 258.9,-158.5 258.9,-165.5"/>
</g>
<!-- Node8 -->
<g id="node8" class="node">
<title>Node8</title>
<g id="a_node8"><a xlink:href="classEnemy.html#a95c457b3e58d8c931e06877c6bde6d11" target="_top" xlink:title=" ">
<polygon fill="white" stroke="black" points="283,-114.5 283,-133.5 395,-133.5 395,-114.5 283,-114.5"/>
<text text-anchor="middle" x="339" y="-121.5" font-family="Helvetica,sans-Serif" font-size="10.00">Enemy::printTowers</text>
</a>
</g>
</g>
<!-- Node2&#45;&gt;Node8 -->
<g id="edge7" class="edge">
<title>Node2&#45;&gt;Node8</title>
<path fill="none" stroke="midnightblue" d="M216.88,-152.41C238.35,-147.37 264.86,-141.16 287.6,-135.82"/>
<polygon fill="midnightblue" stroke="midnightblue" points="288.48,-139.21 297.41,-133.52 286.88,-132.4 288.48,-139.21"/>
</g>
<!-- Node5 -->
<g id="node5" class="node">
<title>Node5</title>
<g id="a_node5"><a xlink:href="classMap.html#a4b669f3ae1f41ad70ae8c28910bfa4e8" target="_top" xlink:title=" ">
<polygon fill="white" stroke="black" points="445,-190.5 445,-209.5 573,-209.5 573,-190.5 445,-190.5"/>
<text text-anchor="middle" x="509" y="-197.5" font-family="Helvetica,sans-Serif" font-size="10.00">Map::checkNeighbours</text>
</a>
</g>
</g>
<!-- Node4&#45;&gt;Node5 -->
<g id="edge4" class="edge">
<title>Node4&#45;&gt;Node5</title>
<path fill="none" stroke="midnightblue" d="M399.23,-200C410.63,-200 422.7,-200 434.48,-200"/>
<polygon fill="midnightblue" stroke="midnightblue" points="434.74,-203.5 444.74,-200 434.74,-196.5 434.74,-203.5"/>
</g>
<!-- Node7 -->
<g id="node7" class="node">
<title>Node7</title>
<g id="a_node7"><a xlink:href="classMap.html#ae4713f8271b2c9fd62184ab0f2342447" target="_top" xlink:title=" ">
<polygon fill="white" stroke="black" points="446.5,-152.5 446.5,-171.5 571.5,-171.5 571.5,-152.5 446.5,-152.5"/>
<text text-anchor="middle" x="509" y="-159.5" font-family="Helvetica,sans-Serif" font-size="10.00">Map::getEmptySpaces</text>
</a>
</g>
</g>
<!-- Node6&#45;&gt;Node7 -->
<g id="edge6" class="edge">
<title>Node6&#45;&gt;Node7</title>
<path fill="none" stroke="midnightblue" d="M409.3,-162C418.23,-162 427.39,-162 436.36,-162"/>
<polygon fill="midnightblue" stroke="midnightblue" points="436.38,-165.5 446.38,-162 436.38,-158.5 436.38,-165.5"/>
</g>
<!-- Node10 -->
<g id="node10" class="node">
<title>Node10</title>
<g id="a_node10"><a xlink:href="classMap.html#a1f7ed5381d68b10d5adfca2a7d26516a" target="_top" xlink:title=" ">
<polygon fill="white" stroke="black" points="288.5,-76.5 288.5,-95.5 389.5,-95.5 389.5,-76.5 288.5,-76.5"/>
<text text-anchor="middle" x="339" y="-83.5" font-family="Helvetica,sans-Serif" font-size="10.00">Map::convertMap</text>
</a>
</g>
</g>
<!-- Node9&#45;&gt;Node10 -->
<g id="edge9" class="edge">
<title>Node9&#45;&gt;Node10</title>
<path fill="none" stroke="midnightblue" d="M224.17,-79.68C241.09,-80.62 260.3,-81.68 278.07,-82.67"/>
<polygon fill="midnightblue" stroke="midnightblue" points="278.16,-86.18 288.33,-83.24 278.54,-79.19 278.16,-86.18"/>
</g>
<!-- Node11 -->
<g id="node11" class="node">
<title>Node11</title>
<g id="a_node11"><a xlink:href="classMap.html#a1cefc1b8ed6692667e2019f64acc0f5a" target="_top" xlink:title=" ">
<polygon fill="white" stroke="black" points="295.5,-38.5 295.5,-57.5 382.5,-57.5 382.5,-38.5 295.5,-38.5"/>
<text text-anchor="middle" x="339" y="-45.5" font-family="Helvetica,sans-Serif" font-size="10.00">Map::printMap</text>
</a>
</g>
</g>
<!-- Node9&#45;&gt;Node11 -->
<g id="edge10" class="edge">
<title>Node9&#45;&gt;Node11</title>
<path fill="none" stroke="midnightblue" d="M224.17,-68.38C243.39,-64.94 265.58,-60.96 285.23,-57.45"/>
<polygon fill="midnightblue" stroke="midnightblue" points="286.02,-60.86 295.25,-55.65 284.79,-53.97 286.02,-60.86"/>
</g>
<!-- Node13 -->
<g id="node13" class="node">
<title>Node13</title>
<g id="a_node13"><a xlink:href="Game_8cpp.html#ad5451da499ab9d3907da8dd7060ab677" target="_top" xlink:title=" ">
<polygon fill="white" stroke="black" points="318.5,-0.5 318.5,-19.5 359.5,-19.5 359.5,-0.5 318.5,-0.5"/>
<text text-anchor="middle" x="339" y="-7.5" font-family="Helvetica,sans-Serif" font-size="10.00">kbhit</text>
</a>
</g>
</g>
<!-- Node12&#45;&gt;Node13 -->
<g id="edge12" class="edge">
<title>Node12&#45;&gt;Node13</title>
<path fill="none" stroke="midnightblue" d="M222.86,-17.11C250.25,-15.42 284.01,-13.33 307.88,-11.86"/>
<polygon fill="midnightblue" stroke="midnightblue" points="308.32,-15.34 318.09,-11.23 307.89,-8.35 308.32,-15.34"/>
</g>
</g>
</svg>
