<?xml version="1.0" encoding="UTF-8" standalone="no"?>
<!DOCTYPE svg PUBLIC "-//W3C//DTD SVG 1.1//EN"
 "http://www.w3.org/Graphics/SVG/1.1/DTD/svg11.dtd">
<!-- Generated by graphviz version 2.43.0 (0)
 -->
<!-- Title: CGame::CGame Pages: 1 -->
<svg width="547pt" height="104pt"
 viewBox="0.00 0.00 547.00 104.00" xmlns="http://www.w3.org/2000/svg" xmlns:xlink="http://www.w3.org/1999/xlink">
<g id="graph0" class="graph" transform="scale(1 1) rotate(0) translate(4 100)">
<title>CGame::CGame</title>
<polygon fill="white" stroke="transparent" points="-4,4 -4,-100 543,-100 543,4 -4,4"/>
<!-- Node1 -->
<g id="node1" class="node">
<title>Node1</title>
<g id="a_node1"><a xlink:title=" ">
<polygon fill="#bfbfbf" stroke="black" points="0,-38.5 0,-57.5 95,-57.5 95,-38.5 0,-38.5"/>
<text text-anchor="middle" x="47.5" y="-45.5" font-family="Helvetica,sans-Serif" font-size="10.00">CGame::CGame</text>
</a>
</g>
</g>
<!-- Node2 -->
<g id="node2" class="node">
<title>Node2</title>
<g id="a_node2"><a xlink:href="classCGame.html#ad3a6ae127f534b0f64f0b6404d454ef9" target="_top" xlink:title=" ">
<polygon fill="white" stroke="black" points="131,-76.5 131,-95.5 271,-95.5 271,-76.5 131,-76.5"/>
<text text-anchor="middle" x="201" y="-83.5" font-family="Helvetica,sans-Serif" font-size="10.00">CGame::initializeWindow</text>
</a>
</g>
</g>
<!-- Node1&#45;&gt;Node2 -->
<g id="edge1" class="edge">
<title>Node1&#45;&gt;Node2</title>
<path fill="none" stroke="midnightblue" d="M86.73,-57.59C106.63,-62.58 131.16,-68.73 152.29,-74.03"/>
<polygon fill="midnightblue" stroke="midnightblue" points="151.49,-77.44 162.05,-76.48 153.2,-70.65 151.49,-77.44"/>
</g>
<!-- Node3 -->
<g id="node3" class="node">
<title>Node3</title>
<g id="a_node3"><a xlink:href="classCGame.html#a9945af5487d059db1d7119ae16cd2dd3" target="_top" xlink:title=" ">
<polygon fill="white" stroke="black" points="161,-38.5 161,-57.5 241,-57.5 241,-38.5 161,-38.5"/>
<text text-anchor="middle" x="201" y="-45.5" font-family="Helvetica,sans-Serif" font-size="10.00">CGame::load</text>
</a>
</g>
</g>
<!-- Node1&#45;&gt;Node3 -->
<g id="edge2" class="edge">
<title>Node1&#45;&gt;Node3</title>
<path fill="none" stroke="midnightblue" d="M95.19,-48C112.78,-48 132.83,-48 150.65,-48"/>
<polygon fill="midnightblue" stroke="midnightblue" points="150.85,-51.5 160.85,-48 150.85,-44.5 150.85,-51.5"/>
</g>
<!-- Node7 -->
<g id="node7" class="node">
<title>Node7</title>
<g id="a_node7"><a xlink:href="classCGame.html#a7957599866556d2dfd5d80cc270c4a4e" target="_top" xlink:title=" ">
<polygon fill="white" stroke="black" points="137,-0.5 137,-19.5 265,-19.5 265,-0.5 137,-0.5"/>
<text text-anchor="middle" x="201" y="-7.5" font-family="Helvetica,sans-Serif" font-size="10.00">CGame::loadFromSave</text>
</a>
</g>
</g>
<!-- Node1&#45;&gt;Node7 -->
<g id="edge6" class="edge">
<title>Node1&#45;&gt;Node7</title>
<path fill="none" stroke="midnightblue" d="M86.73,-38.41C106.63,-33.42 131.16,-27.27 152.29,-21.97"/>
<polygon fill="midnightblue" stroke="midnightblue" points="153.2,-25.35 162.05,-19.52 151.49,-18.56 153.2,-25.35"/>
</g>
<!-- Node4 -->
<g id="node4" class="node">
<title>Node4</title>
<g id="a_node4"><a xlink:href="classMap.html#a79a4355510b026646449df1852768c38" target="_top" xlink:title=" ">
<polygon fill="white" stroke="black" points="307,-38.5 307,-57.5 393,-57.5 393,-38.5 307,-38.5"/>
<text text-anchor="middle" x="350" y="-45.5" font-family="Helvetica,sans-Serif" font-size="10.00">Map::readMap</text>
</a>
</g>
</g>
<!-- Node3&#45;&gt;Node4 -->
<g id="edge3" class="edge">
<title>Node3&#45;&gt;Node4</title>
<path fill="none" stroke="midnightblue" d="M241.01,-48C258.08,-48 278.36,-48 296.72,-48"/>
<polygon fill="midnightblue" stroke="midnightblue" points="296.97,-51.5 306.97,-48 296.97,-44.5 296.97,-51.5"/>
</g>
<!-- Node5 -->
<g id="node5" class="node">
<title>Node5</title>
<g id="a_node5"><a xlink:href="logFile_8cpp.html#a4646ee780db7319bd0615817febd557c" target="_top" xlink:title=" ">
<polygon fill="white" stroke="black" points="441.5,-57.5 441.5,-76.5 526.5,-76.5 526.5,-57.5 441.5,-57.5"/>
<text text-anchor="middle" x="484" y="-64.5" font-family="Helvetica,sans-Serif" font-size="10.00">sendToLogFile</text>
</a>
</g>
</g>
<!-- Node4&#45;&gt;Node5 -->
<g id="edge4" class="edge">
<title>Node4&#45;&gt;Node5</title>
<path fill="none" stroke="midnightblue" d="M393.13,-54.06C405.27,-55.81 418.67,-57.74 431.32,-59.56"/>
<polygon fill="midnightblue" stroke="midnightblue" points="430.87,-63.03 441.27,-60.99 431.87,-56.1 430.87,-63.03"/>
</g>
<!-- Node6 -->
<g id="node6" class="node">
<title>Node6</title>
<g id="a_node6"><a xlink:href="classlogException.html#ae39c5653d4ea6c93444e3ac290878ad5" target="_top" xlink:title=" ">
<polygon fill="white" stroke="black" points="429,-19.5 429,-38.5 539,-38.5 539,-19.5 429,-19.5"/>
<text text-anchor="middle" x="484" y="-26.5" font-family="Helvetica,sans-Serif" font-size="10.00">logException::what</text>
</a>
</g>
</g>
<!-- Node4&#45;&gt;Node6 -->
<g id="edge5" class="edge">
<title>Node4&#45;&gt;Node6</title>
<path fill="none" stroke="midnightblue" d="M393.13,-41.94C401.26,-40.77 409.96,-39.51 418.61,-38.27"/>
<polygon fill="midnightblue" stroke="midnightblue" points="419.32,-41.7 428.72,-36.81 418.33,-34.77 419.32,-41.7"/>
</g>
</g>
</svg>
