<?xml version="1.0" encoding="UTF-8" standalone="no"?>
<!DOCTYPE svg PUBLIC "-//W3C//DTD SVG 1.1//EN"
 "http://www.w3.org/Graphics/SVG/1.1/DTD/svg11.dtd">
<!-- Generated by graphviz version 2.43.0 (0)
 -->
<!-- Title: Enemy::printTowers Pages: 1 -->
<svg width="766pt" height="123pt"
 viewBox="0.00 0.00 766.00 123.00" xmlns="http://www.w3.org/2000/svg" xmlns:xlink="http://www.w3.org/1999/xlink">
<g id="graph0" class="graph" transform="scale(1 1) rotate(0) translate(4 119)">
<title>Enemy::printTowers</title>
<polygon fill="white" stroke="transparent" points="-4,4 -4,-119 762,-119 762,4 -4,4"/>
<!-- Node1 -->
<g id="node1" class="node">
<title>Node1</title>
<g id="a_node1"><a xlink:title=" ">
<polygon fill="#bfbfbf" stroke="black" points="646,-38.5 646,-57.5 758,-57.5 758,-38.5 646,-38.5"/>
<text text-anchor="middle" x="702" y="-45.5" font-family="Helvetica,sans-Serif" font-size="10.00">Enemy::printTowers</text>
</a>
</g>
</g>
<!-- Node2 -->
<g id="node2" class="node">
<title>Node2</title>
<g id="a_node2"><a xlink:href="classCGame.html#a6890a8e74412ff0ced3959e3093e6d84" target="_top" xlink:title=" ">
<polygon fill="white" stroke="black" points="488,-76.5 488,-95.5 604,-95.5 604,-76.5 488,-76.5"/>
<text text-anchor="middle" x="546" y="-83.5" font-family="Helvetica,sans-Serif" font-size="10.00">CGame::drawTowers</text>
</a>
</g>
</g>
<!-- Node1&#45;&gt;Node2 -->
<g id="edge1" class="edge">
<title>Node1&#45;&gt;Node2</title>
<path fill="none" stroke="midnightblue" d="M652.21,-60.04C630.69,-65.35 605.77,-71.5 585.58,-76.48"/>
<polygon fill="midnightblue" stroke="midnightblue" points="653.27,-63.38 662.14,-57.59 651.59,-56.59 653.27,-63.38"/>
</g>
<!-- Node8 -->
<g id="node8" class="node">
<title>Node8</title>
<g id="a_node8"><a xlink:href="classCGame.html#afbbb4f8d05f753b7c2d6a0d91ca96a9b" target="_top" xlink:title=" ">
<polygon fill="white" stroke="black" points="482,-38.5 482,-57.5 610,-57.5 610,-38.5 482,-38.5"/>
<text text-anchor="middle" x="546" y="-45.5" font-family="Helvetica,sans-Serif" font-size="10.00">CGame::loadFromSave</text>
</a>
</g>
</g>
<!-- Node1&#45;&gt;Node8 -->
<g id="edge8" class="edge">
<title>Node1&#45;&gt;Node8</title>
<path fill="none" stroke="midnightblue" d="M635.66,-48C627.21,-48 618.57,-48 610.16,-48"/>
<polygon fill="midnightblue" stroke="midnightblue" points="635.84,-51.5 645.84,-48 635.84,-44.5 635.84,-51.5"/>
</g>
<!-- Node9 -->
<g id="node9" class="node">
<title>Node9</title>
<g id="a_node9"><a xlink:href="classCGame.html#ac614fee61f8ff86a286f727faf3a3cf4" target="_top" xlink:title=" ">
<polygon fill="white" stroke="black" points="483,-0.5 483,-19.5 609,-19.5 609,-0.5 483,-0.5"/>
<text text-anchor="middle" x="546" y="-7.5" font-family="Helvetica,sans-Serif" font-size="10.00">CGame::redrawTowers</text>
</a>
</g>
</g>
<!-- Node1&#45;&gt;Node9 -->
<g id="edge10" class="edge">
<title>Node1&#45;&gt;Node9</title>
<path fill="none" stroke="midnightblue" d="M652.21,-35.96C630.69,-30.65 605.77,-24.5 585.58,-19.52"/>
<polygon fill="midnightblue" stroke="midnightblue" points="651.59,-39.41 662.14,-38.41 653.27,-32.62 651.59,-39.41"/>
</g>
<!-- Node3 -->
<g id="node3" class="node">
<title>Node3</title>
<g id="a_node3"><a xlink:href="classCGame.html#aaae1d58e5125f6ab128afe0ec688a00a" target="_top" xlink:title=" ">
<polygon fill="white" stroke="black" points="372,-57.5 372,-76.5 446,-76.5 446,-57.5 372,-57.5"/>
<text text-anchor="middle" x="409" y="-64.5" font-family="Helvetica,sans-Serif" font-size="10.00">CGame::init</text>
</a>
</g>
</g>
<!-- Node2&#45;&gt;Node3 -->
<g id="edge2" class="edge">
<title>Node2&#45;&gt;Node3</title>
<path fill="none" stroke="midnightblue" d="M477.78,-76.54C466.88,-75.01 455.97,-73.47 446.19,-72.09"/>
<polygon fill="midnightblue" stroke="midnightblue" points="477.36,-80.01 487.75,-77.94 478.33,-73.08 477.36,-80.01"/>
</g>
<!-- Node4 -->
<g id="node4" class="node">
<title>Node4</title>
<g id="a_node4"><a xlink:href="classCGame.html#aa7c80b7185158a0bde186d83f0e8cbb4" target="_top" xlink:title=" ">
<polygon fill="white" stroke="black" points="238.5,-76.5 238.5,-95.5 318.5,-95.5 318.5,-76.5 238.5,-76.5"/>
<text text-anchor="middle" x="278.5" y="-83.5" font-family="Helvetica,sans-Serif" font-size="10.00">CGame::play</text>
</a>
</g>
</g>
<!-- Node3&#45;&gt;Node4 -->
<g id="edge3" class="edge">
<title>Node3&#45;&gt;Node4</title>
<path fill="none" stroke="midnightblue" d="M361.81,-73.83C347.62,-75.93 332.16,-78.21 318.51,-80.23"/>
<polygon fill="midnightblue" stroke="midnightblue" points="362.48,-77.27 371.86,-72.34 361.46,-70.34 362.48,-77.27"/>
</g>
<!-- Node7 -->
<g id="node7" class="node">
<title>Node7</title>
<g id="a_node7"><a xlink:href="classCGame.html#a5dc70520b14c22acbd728f6599bb150a" target="_top" xlink:title=" ">
<polygon fill="white" stroke="black" points="221,-38.5 221,-57.5 336,-57.5 336,-38.5 221,-38.5"/>
<text text-anchor="middle" x="278.5" y="-45.5" font-family="Helvetica,sans-Serif" font-size="10.00">CGame::testRoutine</text>
</a>
</g>
</g>
<!-- Node3&#45;&gt;Node7 -->
<g id="edge7" class="edge">
<title>Node3&#45;&gt;Node7</title>
<path fill="none" stroke="midnightblue" d="M361.9,-60.18C353.51,-58.94 344.67,-57.64 336.03,-56.36"/>
<polygon fill="midnightblue" stroke="midnightblue" points="361.46,-63.66 371.86,-61.66 362.48,-56.73 361.46,-63.66"/>
</g>
<!-- Node5 -->
<g id="node5" class="node">
<title>Node5</title>
<g id="a_node5"><a xlink:href="main_8cpp.html#a3c04138a5bfe5d72780bb7e82a18e627" target="_top" xlink:title=" ">
<polygon fill="white" stroke="black" points="144,-95.5 144,-114.5 185,-114.5 185,-95.5 144,-95.5"/>
<text text-anchor="middle" x="164.5" y="-102.5" font-family="Helvetica,sans-Serif" font-size="10.00">main</text>
</a>
</g>
</g>
<!-- Node4&#45;&gt;Node5 -->
<g id="edge4" class="edge">
<title>Node4&#45;&gt;Node5</title>
<path fill="none" stroke="midnightblue" d="M228.04,-94.39C212.95,-96.95 197.22,-99.62 185.31,-101.64"/>
<polygon fill="midnightblue" stroke="midnightblue" points="229.05,-97.77 238.33,-92.65 227.88,-90.87 229.05,-97.77"/>
</g>
<!-- Node6 -->
<g id="node6" class="node">
<title>Node6</title>
<g id="a_node6"><a xlink:href="structCMenu.html#a07236cc397b0e4e55ec4f916c3893fbd" target="_top" xlink:title=" ">
<polygon fill="white" stroke="black" points="0,-76.5 0,-95.5 108,-95.5 108,-76.5 0,-76.5"/>
<text text-anchor="middle" x="54" y="-83.5" font-family="Helvetica,sans-Serif" font-size="10.00">CMenu::mainMenu</text>
</a>
</g>
</g>
<!-- Node5&#45;&gt;Node6 -->
<g id="edge5" class="edge">
<title>Node5&#45;&gt;Node6</title>
<path fill="none" stroke="midnightblue" d="M133.76,-99.79C125.89,-98.41 117.17,-96.89 108.46,-95.36"/>
<polygon fill="midnightblue" stroke="midnightblue" points="133.4,-103.28 143.85,-101.56 134.61,-96.39 133.4,-103.28"/>
</g>
<!-- Node6&#45;&gt;Node4 -->
<g id="edge6" class="edge">
<title>Node6&#45;&gt;Node4</title>
<path fill="none" stroke="midnightblue" d="M118.32,-86C157.03,-86 205.31,-86 238.49,-86"/>
<polygon fill="midnightblue" stroke="midnightblue" points="118.19,-82.5 108.19,-86 118.19,-89.5 118.19,-82.5"/>
</g>
<!-- Node8&#45;&gt;Node3 -->
<g id="edge9" class="edge">
<title>Node8&#45;&gt;Node3</title>
<path fill="none" stroke="midnightblue" d="M471.82,-58.3C462.95,-59.55 454.22,-60.78 446.24,-61.9"/>
<polygon fill="midnightblue" stroke="midnightblue" points="472.43,-61.75 481.85,-56.89 471.46,-54.82 472.43,-61.75"/>
</g>
</g>
</svg>
