<?xml version="1.0" encoding="UTF-8" standalone="no"?>
<!DOCTYPE svg PUBLIC "-//W3C//DTD SVG 1.1//EN"
 "http://www.w3.org/Graphics/SVG/1.1/DTD/svg11.dtd">
<!-- Generated by graphviz version 2.43.0 (0)
 -->
<!-- Title: CGame::start Pages: 1 -->
<svg width="578pt" height="104pt"
 viewBox="0.00 0.00 578.00 104.00" xmlns="http://www.w3.org/2000/svg" xmlns:xlink="http://www.w3.org/1999/xlink">
<g id="graph0" class="graph" transform="scale(1 1) rotate(0) translate(4 100)">
<title>CGame::start</title>
<polygon fill="white" stroke="transparent" points="-4,4 -4,-100 574,-100 574,4 -4,4"/>
<!-- Node1 -->
<g id="node1" class="node">
<title>Node1</title>
<g id="a_node1"><a xlink:title=" ">
<polygon fill="#bfbfbf" stroke="black" points="0,-38.5 0,-57.5 81,-57.5 81,-38.5 0,-38.5"/>
<text text-anchor="middle" x="40.5" y="-45.5" font-family="Helvetica,sans-Serif" font-size="10.00">CGame::start</text>
</a>
</g>
</g>
<!-- Node2 -->
<g id="node2" class="node">
<title>Node2</title>
<g id="a_node2"><a xlink:href="classCGame.html#ab4b3b154086cd0c34c18522a0716840c" target="_top" xlink:title=" ">
<polygon fill="white" stroke="black" points="117,-38.5 117,-57.5 233,-57.5 233,-38.5 117,-38.5"/>
<text text-anchor="middle" x="175" y="-45.5" font-family="Helvetica,sans-Serif" font-size="10.00">CGame::drawTowers</text>
</a>
</g>
</g>
<!-- Node1&#45;&gt;Node2 -->
<g id="edge1" class="edge">
<title>Node1&#45;&gt;Node2</title>
<path fill="none" stroke="midnightblue" d="M81.25,-48C89.25,-48 97.87,-48 106.51,-48"/>
<polygon fill="midnightblue" stroke="midnightblue" points="106.64,-51.5 116.64,-48 106.64,-44.5 106.64,-51.5"/>
</g>
<!-- Node3 -->
<g id="node3" class="node">
<title>Node3</title>
<g id="a_node3"><a xlink:href="classEnemy.html#ab8dab466556eb7f9a39697c045864289" target="_top" xlink:title=" ">
<polygon fill="white" stroke="black" points="282.5,-76.5 282.5,-95.5 395.5,-95.5 395.5,-76.5 282.5,-76.5"/>
<text text-anchor="middle" x="339" y="-83.5" font-family="Helvetica,sans-Serif" font-size="10.00">Enemy::clearTowers</text>
</a>
</g>
</g>
<!-- Node2&#45;&gt;Node3 -->
<g id="edge2" class="edge">
<title>Node2&#45;&gt;Node3</title>
<path fill="none" stroke="midnightblue" d="M216.88,-57.59C238.35,-62.63 264.86,-68.84 287.6,-74.18"/>
<polygon fill="midnightblue" stroke="midnightblue" points="286.88,-77.6 297.41,-76.48 288.48,-70.79 286.88,-77.6"/>
</g>
<!-- Node4 -->
<g id="node4" class="node">
<title>Node4</title>
<g id="a_node4"><a xlink:href="classEnemy.html#a238798e0d954a7ee3b6fafb592151cde" target="_top" xlink:title=" ">
<polygon fill="white" stroke="black" points="279,-38.5 279,-57.5 399,-57.5 399,-38.5 279,-38.5"/>
<text text-anchor="middle" x="339" y="-45.5" font-family="Helvetica,sans-Serif" font-size="10.00">Enemy::createTowers</text>
</a>
</g>
</g>
<!-- Node2&#45;&gt;Node4 -->
<g id="edge3" class="edge">
<title>Node2&#45;&gt;Node4</title>
<path fill="none" stroke="midnightblue" d="M233.12,-48C244.6,-48 256.79,-48 268.64,-48"/>
<polygon fill="midnightblue" stroke="midnightblue" points="268.94,-51.5 278.94,-48 268.94,-44.5 268.94,-51.5"/>
</g>
<!-- Node5 -->
<g id="node5" class="node">
<title>Node5</title>
<g id="a_node5"><a xlink:href="classEnemy.html#a5d58ae9775a61353ab0203b75edbd7eb" target="_top" xlink:title=" ">
<polygon fill="white" stroke="black" points="269,-0.5 269,-19.5 409,-19.5 409,-0.5 269,-0.5"/>
<text text-anchor="middle" x="339" y="-7.5" font-family="Helvetica,sans-Serif" font-size="10.00">Enemy::findEmptySpaces</text>
</a>
</g>
</g>
<!-- Node2&#45;&gt;Node5 -->
<g id="edge4" class="edge">
<title>Node2&#45;&gt;Node5</title>
<path fill="none" stroke="midnightblue" d="M216.88,-38.41C238.35,-33.37 264.86,-27.16 287.6,-21.82"/>
<polygon fill="midnightblue" stroke="midnightblue" points="288.48,-25.21 297.41,-19.52 286.88,-18.4 288.48,-25.21"/>
</g>
<!-- Node6 -->
<g id="node6" class="node">
<title>Node6</title>
<g id="a_node6"><a xlink:href="classMap.html#a2b42bd45dd0e585fed7a9d71244e3567" target="_top" xlink:title=" ">
<polygon fill="white" stroke="black" points="445,-0.5 445,-19.5 570,-19.5 570,-0.5 445,-0.5"/>
<text text-anchor="middle" x="507.5" y="-7.5" font-family="Helvetica,sans-Serif" font-size="10.00">Map::getEmptySpaces</text>
</a>
</g>
</g>
<!-- Node5&#45;&gt;Node6 -->
<g id="edge5" class="edge">
<title>Node5&#45;&gt;Node6</title>
<path fill="none" stroke="midnightblue" d="M409.16,-10C417.61,-10 426.26,-10 434.75,-10"/>
<polygon fill="midnightblue" stroke="midnightblue" points="434.99,-13.5 444.99,-10 434.99,-6.5 434.99,-13.5"/>
</g>
</g>
</svg>
