<?xml version="1.0" encoding="UTF-8" standalone="no"?>
<!DOCTYPE svg PUBLIC "-//W3C//DTD SVG 1.1//EN"
 "http://www.w3.org/Graphics/SVG/1.1/DTD/svg11.dtd">
<!-- Generated by graphviz version 2.43.0 (0)
 -->
<!-- Title: CGame::drawTowers Pages: 1 -->
<svg width="759pt" height="406pt"
 viewBox="0.00 0.00 759.00 406.22" xmlns="http://www.w3.org/2000/svg" xmlns:xlink="http://www.w3.org/1999/xlink">
<g id="graph0" class="graph" transform="scale(1 1) rotate(0) translate(4 402.22)">
<title>CGame::drawTowers</title>
<polygon fill="white" stroke="transparent" points="-4,4 -4,-402.22 755,-402.22 755,4 -4,4"/>
<!-- Node1 -->
<g id="node1" class="node">
<title>Node1</title>
<g id="a_node1"><a xlink:title=" ">
<polygon fill="#bfbfbf" stroke="black" points="0,-207.72 0,-226.72 116,-226.72 116,-207.72 0,-207.72"/>
<text text-anchor="middle" x="58" y="-214.72" font-family="Helvetica,sans-Serif" font-size="10.00">CGame::drawTowers</text>
</a>
</g>
</g>
<!-- Node2 -->
<g id="node2" class="node">
<title>Node2</title>
<g id="a_node2"><a xlink:href="classEnemy.html#ab8dab466556eb7f9a39697c045864289" target="_top" xlink:title=" ">
<polygon fill="white" stroke="black" points="159.5,-264.72 159.5,-283.72 272.5,-283.72 272.5,-264.72 159.5,-264.72"/>
<text text-anchor="middle" x="216" y="-271.72" font-family="Helvetica,sans-Serif" font-size="10.00">Enemy::clearTowers</text>
</a>
</g>
</g>
<!-- Node1&#45;&gt;Node2 -->
<g id="edge1" class="edge">
<title>Node1&#45;&gt;Node2</title>
<path fill="none" stroke="midnightblue" d="M80.95,-226.88C99.65,-234.94 127.34,-246.49 152,-255.22 158.15,-257.4 164.69,-259.55 171.14,-261.58"/>
<polygon fill="midnightblue" stroke="midnightblue" points="170.54,-265.06 181.13,-264.65 172.6,-258.37 170.54,-265.06"/>
</g>
<!-- Node3 -->
<g id="node3" class="node">
<title>Node3</title>
<g id="a_node3"><a xlink:href="classEnemy.html#a238798e0d954a7ee3b6fafb592151cde" target="_top" xlink:title=" ">
<polygon fill="white" stroke="black" points="156,-226.72 156,-245.72 276,-245.72 276,-226.72 156,-226.72"/>
<text text-anchor="middle" x="216" y="-233.72" font-family="Helvetica,sans-Serif" font-size="10.00">Enemy::createTowers</text>
</a>
</g>
</g>
<!-- Node1&#45;&gt;Node3 -->
<g id="edge2" class="edge">
<title>Node1&#45;&gt;Node3</title>
<path fill="none" stroke="midnightblue" d="M116.2,-224.19C125.82,-225.36 135.89,-226.59 145.77,-227.79"/>
<polygon fill="midnightblue" stroke="midnightblue" points="145.62,-231.3 155.97,-229.03 146.47,-224.35 145.62,-231.3"/>
</g>
<!-- Node19 -->
<g id="node19" class="node">
<title>Node19</title>
<g id="a_node19"><a xlink:href="classEnemy.html#ac7a14593067f5d799c2080fadaf33cbb" target="_top" xlink:title=" ">
<polygon fill="white" stroke="black" points="152,-188.72 152,-207.72 280,-207.72 280,-188.72 152,-188.72"/>
<text text-anchor="middle" x="216" y="-195.72" font-family="Helvetica,sans-Serif" font-size="10.00">Enemy::getTowerCount</text>
</a>
</g>
</g>
<!-- Node1&#45;&gt;Node19 -->
<g id="edge22" class="edge">
<title>Node1&#45;&gt;Node19</title>
<path fill="none" stroke="midnightblue" d="M116.2,-210.26C124.52,-209.24 133.17,-208.19 141.74,-207.15"/>
<polygon fill="midnightblue" stroke="midnightblue" points="142.25,-210.61 151.75,-205.93 141.4,-203.66 142.25,-210.61"/>
</g>
<!-- Node20 -->
<g id="node20" class="node">
<title>Node20</title>
<g id="a_node20"><a xlink:href="classEnemy.html#a95c457b3e58d8c931e06877c6bde6d11" target="_top" xlink:title=" ">
<polygon fill="white" stroke="black" points="160,-150.72 160,-169.72 272,-169.72 272,-150.72 160,-150.72"/>
<text text-anchor="middle" x="216" y="-157.72" font-family="Helvetica,sans-Serif" font-size="10.00">Enemy::printTowers</text>
</a>
</g>
</g>
<!-- Node1&#45;&gt;Node20 -->
<g id="edge23" class="edge">
<title>Node1&#45;&gt;Node20</title>
<path fill="none" stroke="midnightblue" d="M80.95,-207.57C99.65,-199.5 127.34,-187.96 152,-179.22 158.15,-177.05 164.69,-174.89 171.14,-172.87"/>
<polygon fill="midnightblue" stroke="midnightblue" points="172.6,-176.08 181.13,-169.79 170.54,-169.39 172.6,-176.08"/>
</g>
<!-- Node4 -->
<g id="node4" class="node">
<title>Node4</title>
<g id="a_node4"><a xlink:href="classMap.html#a12616a2a3c221b40b7bb56efb7f32330" target="_top" xlink:title=" ">
<polygon fill="white" stroke="black" points="489,-378.72 489,-397.72 597,-397.72 597,-378.72 489,-378.72"/>
<text text-anchor="middle" x="543" y="-385.72" font-family="Helvetica,sans-Serif" font-size="10.00">Map::checkBounds</text>
</a>
</g>
</g>
<!-- Node3&#45;&gt;Node4 -->
<g id="edge3" class="edge">
<title>Node3&#45;&gt;Node4</title>
<path fill="none" stroke="midnightblue" d="M262.12,-245.79C268.45,-248.26 274.62,-251.35 280,-255.22 302.51,-271.45 294.11,-289.18 316,-306.22 377.61,-354.19 406.18,-343.77 480,-369.22 486.36,-371.42 493.14,-373.62 499.78,-375.72"/>
<polygon fill="midnightblue" stroke="midnightblue" points="498.78,-379.07 509.36,-378.69 500.85,-372.38 498.78,-379.07"/>
</g>
<!-- Node6 -->
<g id="node6" class="node">
<title>Node6</title>
<g id="a_node6"><a xlink:href="classMap.html#a4b669f3ae1f41ad70ae8c28910bfa4e8" target="_top" xlink:title=" ">
<polygon fill="white" stroke="black" points="316,-188.72 316,-207.72 444,-207.72 444,-188.72 316,-188.72"/>
<text text-anchor="middle" x="380" y="-195.72" font-family="Helvetica,sans-Serif" font-size="10.00">Map::checkNeighbours</text>
</a>
</g>
</g>
<!-- Node3&#45;&gt;Node6 -->
<g id="edge5" class="edge">
<title>Node3&#45;&gt;Node6</title>
<path fill="none" stroke="midnightblue" d="M257.88,-226.63C279.35,-221.6 305.86,-215.38 328.6,-210.05"/>
<polygon fill="midnightblue" stroke="midnightblue" points="329.48,-213.44 338.41,-207.74 327.88,-206.62 329.48,-213.44"/>
</g>
<!-- Node7 -->
<g id="node7" class="node">
<title>Node7</title>
<g id="a_node7"><a xlink:href="classMap.html#a535be22b99fa88937940593a90c1bcb7" target="_top" xlink:title=" ">
<polygon fill="white" stroke="black" points="341,-150.72 341,-169.72 419,-169.72 419,-150.72 341,-150.72"/>
<text text-anchor="middle" x="380" y="-157.72" font-family="Helvetica,sans-Serif" font-size="10.00">Map::getExit</text>
</a>
</g>
</g>
<!-- Node3&#45;&gt;Node7 -->
<g id="edge6" class="edge">
<title>Node3&#45;&gt;Node7</title>
<path fill="none" stroke="midnightblue" d="M259.66,-226.67C266.73,-224.17 273.78,-221.06 280,-217.22 299.8,-205.01 296.2,-191.44 316,-179.22 320.74,-176.3 325.96,-173.8 331.3,-171.67"/>
<polygon fill="midnightblue" stroke="midnightblue" points="332.74,-174.88 340.98,-168.22 330.39,-168.28 332.74,-174.88"/>
</g>
<!-- Node8 -->
<g id="node8" class="node">
<title>Node8</title>
<g id="a_node8"><a xlink:href="classMap.html#af482c6f7d02d4e79c26097b53f4ce808" target="_top" xlink:title=" ">
<polygon fill="white" stroke="black" points="502,-340.72 502,-359.72 584,-359.72 584,-340.72 502,-340.72"/>
<text text-anchor="middle" x="543" y="-347.72" font-family="Helvetica,sans-Serif" font-size="10.00">Map::getType</text>
</a>
</g>
</g>
<!-- Node3&#45;&gt;Node8 -->
<g id="edge7" class="edge">
<title>Node3&#45;&gt;Node8</title>
<path fill="none" stroke="midnightblue" d="M250.16,-245.75C259.83,-248.65 270.37,-251.95 280,-255.22 370.02,-285.86 390.05,-300.39 480,-331.22 486.37,-333.41 493.14,-335.61 499.79,-337.7"/>
<polygon fill="midnightblue" stroke="midnightblue" points="498.78,-341.05 509.37,-340.66 500.85,-334.36 498.78,-341.05"/>
</g>
<!-- Node9 -->
<g id="node9" class="node">
<title>Node9</title>
<g id="a_node9"><a xlink:href="classMap.html#adb8bd1312b25de59794e421009b6fa3e" target="_top" xlink:title=" ">
<polygon fill="white" stroke="black" points="336.5,-226.72 336.5,-245.72 423.5,-245.72 423.5,-226.72 336.5,-226.72"/>
<text text-anchor="middle" x="380" y="-233.72" font-family="Helvetica,sans-Serif" font-size="10.00">Map::setEntity</text>
</a>
</g>
</g>
<!-- Node3&#45;&gt;Node9 -->
<g id="edge8" class="edge">
<title>Node3&#45;&gt;Node9</title>
<path fill="none" stroke="midnightblue" d="M276.4,-236.22C292.7,-236.22 310.25,-236.22 326.16,-236.22"/>
<polygon fill="midnightblue" stroke="midnightblue" points="326.34,-239.72 336.34,-236.22 326.34,-232.72 326.34,-239.72"/>
</g>
<!-- Node5 -->
<g id="node5" class="node">
<title>Node5</title>
<g id="a_node5"><a xlink:href="classMap.html#a286853d8475bc1bbede582c89e9b1491" target="_top" xlink:title=" ">
<polygon fill="white" stroke="black" points="642,-378.72 642,-397.72 751,-397.72 751,-378.72 642,-378.72"/>
<text text-anchor="middle" x="696.5" y="-385.72" font-family="Helvetica,sans-Serif" font-size="10.00">Map::getMapWidth</text>
</a>
</g>
</g>
<!-- Node4&#45;&gt;Node5 -->
<g id="edge4" class="edge">
<title>Node4&#45;&gt;Node5</title>
<path fill="none" stroke="midnightblue" d="M597.41,-388.22C608.44,-388.22 620.15,-388.22 631.51,-388.22"/>
<polygon fill="midnightblue" stroke="midnightblue" points="631.8,-391.72 641.8,-388.22 631.8,-384.72 631.8,-391.72"/>
</g>
<!-- Node9&#45;&gt;Node4 -->
<g id="edge13" class="edge">
<title>Node9&#45;&gt;Node4</title>
<path fill="none" stroke="midnightblue" d="M385.48,-245.91C397.3,-270.39 431.77,-335.22 480,-369.22 482.85,-371.23 485.91,-373.03 489.1,-374.64"/>
<polygon fill="midnightblue" stroke="midnightblue" points="487.77,-377.88 498.33,-378.71 490.59,-371.48 487.77,-377.88"/>
</g>
<!-- Node9&#45;&gt;Node8 -->
<g id="edge19" class="edge">
<title>Node9&#45;&gt;Node8</title>
<path fill="none" stroke="midnightblue" d="M390.95,-246.01C415.01,-269.65 474.76,-328.15 480,-331.22 483.87,-333.5 488.04,-335.53 492.33,-337.33"/>
<polygon fill="midnightblue" stroke="midnightblue" points="491.21,-340.65 501.81,-340.92 493.69,-334.1 491.21,-340.65"/>
</g>
<!-- Node10 -->
<g id="node10" class="node">
<title>Node10</title>
<g id="a_node10"><a xlink:href="classMap.html#ae4968d82a24a805f98028a0a5b1a01e8" target="_top" xlink:title=" ">
<polygon fill="white" stroke="black" points="490.5,-36.72 490.5,-55.72 595.5,-55.72 595.5,-36.72 490.5,-36.72"/>
<text text-anchor="middle" x="543" y="-43.72" font-family="Helvetica,sans-Serif" font-size="10.00">Map::addToRadius</text>
</a>
</g>
</g>
<!-- Node9&#45;&gt;Node10 -->
<g id="edge9" class="edge">
<title>Node9&#45;&gt;Node10</title>
<path fill="none" stroke="midnightblue" d="M423.73,-229.9C431.29,-227.08 438.5,-223.03 444,-217.22 490.29,-168.42 435.61,-120.76 480,-70.22 483.39,-66.37 487.47,-63.12 491.91,-60.4"/>
<polygon fill="midnightblue" stroke="midnightblue" points="493.53,-63.5 500.77,-55.78 490.29,-57.3 493.53,-63.5"/>
</g>
<!-- Node11 -->
<g id="node11" class="node">
<title>Node11</title>
<g id="a_node11"><a xlink:href="classEntity.html#a8c0279c56eee0a37bc905c79c5d15cfd" target="_top" xlink:title=" ">
<polygon fill="white" stroke="black" points="658,-65.72 658,-84.72 735,-84.72 735,-65.72 658,-65.72"/>
<text text-anchor="middle" x="696.5" y="-72.72" font-family="Helvetica,sans-Serif" font-size="10.00">Entity::getID</text>
</a>
</g>
</g>
<!-- Node9&#45;&gt;Node11 -->
<g id="edge15" class="edge">
<title>Node9&#45;&gt;Node11</title>
<path fill="none" stroke="midnightblue" d="M423.76,-229.48C431.23,-226.69 438.39,-222.76 444,-217.22 481.81,-179.9 439.26,-137.33 480,-103.22 526.49,-64.3 599.54,-63.21 647.48,-67.79"/>
<polygon fill="midnightblue" stroke="midnightblue" points="647.29,-71.29 657.6,-68.88 648.03,-64.33 647.29,-71.29"/>
</g>
<!-- Node12 -->
<g id="node12" class="node">
<title>Node12</title>
<g id="a_node12"><a xlink:href="classEntity.html#aaaef5a4ba021755cd32ae39ecbbb38cd" target="_top" xlink:title=" ">
<polygon fill="white" stroke="black" points="652,-17.72 652,-36.72 741,-36.72 741,-17.72 652,-17.72"/>
<text text-anchor="middle" x="696.5" y="-24.72" font-family="Helvetica,sans-Serif" font-size="10.00">Entity::getType</text>
</a>
</g>
</g>
<!-- Node9&#45;&gt;Node12 -->
<g id="edge18" class="edge">
<title>Node9&#45;&gt;Node12</title>
<path fill="none" stroke="midnightblue" d="M423.65,-230.25C431.31,-227.4 438.58,-223.25 444,-217.22 501.48,-153.33 413.81,-82.05 480,-27.22 530.33,14.47 612.31,-0.74 659.32,-14.6"/>
<polygon fill="midnightblue" stroke="midnightblue" points="658.49,-18.01 669.07,-17.61 660.55,-11.32 658.49,-18.01"/>
</g>
<!-- Node13 -->
<g id="node13" class="node">
<title>Node13</title>
<g id="a_node13"><a xlink:href="classEntity.html#a4a2f1ef2a622b7c47f8931deed1b8a46" target="_top" xlink:title=" ">
<polygon fill="white" stroke="black" points="480,-302.72 480,-321.72 606,-321.72 606,-302.72 480,-302.72"/>
<text text-anchor="middle" x="543" y="-309.72" font-family="Helvetica,sans-Serif" font-size="10.00">Entity::calculateDeltas</text>
</a>
</g>
</g>
<!-- Node9&#45;&gt;Node13 -->
<g id="edge12" class="edge">
<title>Node9&#45;&gt;Node13</title>
<path fill="none" stroke="midnightblue" d="M395.22,-245.79C413.99,-258.08 448.35,-279.47 480,-293.22 485.16,-295.47 490.67,-297.56 496.2,-299.47"/>
<polygon fill="midnightblue" stroke="midnightblue" points="495.5,-302.93 506.09,-302.72 497.68,-296.28 495.5,-302.93"/>
</g>
<!-- Node14 -->
<g id="node14" class="node">
<title>Node14</title>
<g id="a_node14"><a xlink:href="classEntity.html#ab927c960c0767756d2ec47d965a8605c" target="_top" xlink:title=" ">
<polygon fill="white" stroke="black" points="494,-264.72 494,-283.72 592,-283.72 592,-264.72 494,-264.72"/>
<text text-anchor="middle" x="543" y="-271.72" font-family="Helvetica,sans-Serif" font-size="10.00">Entity::getDeltas</text>
</a>
</g>
</g>
<!-- Node9&#45;&gt;Node14 -->
<g id="edge14" class="edge">
<title>Node9&#45;&gt;Node14</title>
<path fill="none" stroke="midnightblue" d="M421.63,-245.81C442.97,-250.85 469.31,-257.07 491.91,-262.4"/>
<polygon fill="midnightblue" stroke="midnightblue" points="491.13,-265.81 501.67,-264.7 492.74,-259 491.13,-265.81"/>
</g>
<!-- Node15 -->
<g id="node15" class="node">
<title>Node15</title>
<g id="a_node15"><a xlink:href="classEntity.html#acd06d3d9c4914331c38e28d78427024f" target="_top" xlink:title=" ">
<polygon fill="white" stroke="black" points="493.5,-226.72 493.5,-245.72 592.5,-245.72 592.5,-226.72 493.5,-226.72"/>
<text text-anchor="middle" x="543" y="-233.72" font-family="Helvetica,sans-Serif" font-size="10.00">Entity::getRadius</text>
</a>
</g>
</g>
<!-- Node9&#45;&gt;Node15 -->
<g id="edge16" class="edge">
<title>Node9&#45;&gt;Node15</title>
<path fill="none" stroke="midnightblue" d="M423.72,-236.22C441.97,-236.22 463.56,-236.22 483.27,-236.22"/>
<polygon fill="midnightblue" stroke="midnightblue" points="483.38,-239.72 493.38,-236.22 483.38,-232.72 483.38,-239.72"/>
</g>
<!-- Node16 -->
<g id="node16" class="node">
<title>Node16</title>
<g id="a_node16"><a xlink:href="classEntity.html#aa9b4d32a894d4117dddcdff3c46842ae" target="_top" xlink:title=" ">
<polygon fill="white" stroke="black" points="491.5,-188.72 491.5,-207.72 594.5,-207.72 594.5,-188.72 491.5,-188.72"/>
<text text-anchor="middle" x="543" y="-195.72" font-family="Helvetica,sans-Serif" font-size="10.00">Entity::getSymbol</text>
</a>
</g>
</g>
<!-- Node9&#45;&gt;Node16 -->
<g id="edge17" class="edge">
<title>Node9&#45;&gt;Node16</title>
<path fill="none" stroke="midnightblue" d="M421.63,-226.63C442.97,-221.6 469.31,-215.38 491.91,-210.05"/>
<polygon fill="midnightblue" stroke="midnightblue" points="492.74,-213.45 501.67,-207.74 491.13,-206.63 492.74,-213.45"/>
</g>
<!-- Node17 -->
<g id="node17" class="node">
<title>Node17</title>
<g id="a_node17"><a xlink:href="classEntity.html#a6171cc57bf9ab1a0d0fe18b7a8acc4ea" target="_top" xlink:title=" ">
<polygon fill="white" stroke="black" points="504,-150.72 504,-169.72 582,-169.72 582,-150.72 504,-150.72"/>
<text text-anchor="middle" x="543" y="-157.72" font-family="Helvetica,sans-Serif" font-size="10.00">Entity::move</text>
</a>
</g>
</g>
<!-- Node9&#45;&gt;Node17 -->
<g id="edge20" class="edge">
<title>Node9&#45;&gt;Node17</title>
<path fill="none" stroke="midnightblue" d="M423.66,-226.67C430.73,-224.17 437.78,-221.06 444,-217.22 463.8,-205.01 460.23,-191.48 480,-179.22 484.43,-176.48 489.29,-174.1 494.27,-172.05"/>
<polygon fill="midnightblue" stroke="midnightblue" points="495.75,-175.24 503.93,-168.51 493.34,-168.67 495.75,-175.24"/>
</g>
<!-- Node18 -->
<g id="node18" class="node">
<title>Node18</title>
<g id="a_node18"><a xlink:href="classEntity.html#a58cbf4b62fa77ff52fd87ade1a8cacb0" target="_top" xlink:title=" ">
<polygon fill="white" stroke="black" points="494,-112.72 494,-131.72 592,-131.72 592,-112.72 494,-112.72"/>
<text text-anchor="middle" x="543" y="-119.72" font-family="Helvetica,sans-Serif" font-size="10.00">Entity::setRadius</text>
</a>
</g>
</g>
<!-- Node9&#45;&gt;Node18 -->
<g id="edge21" class="edge">
<title>Node9&#45;&gt;Node18</title>
<path fill="none" stroke="midnightblue" d="M423.5,-228.73C430.91,-226.01 438.11,-222.29 444,-217.22 472.33,-192.84 451.73,-165.67 480,-141.22 481.97,-139.52 484.1,-137.96 486.33,-136.55"/>
<polygon fill="midnightblue" stroke="midnightblue" points="488.19,-139.53 495.39,-131.76 484.91,-133.34 488.19,-139.53"/>
</g>
<!-- Node10&#45;&gt;Node11 -->
<g id="edge10" class="edge">
<title>Node10&#45;&gt;Node11</title>
<path fill="none" stroke="midnightblue" d="M594.03,-55.8C611.16,-59.08 630.28,-62.74 647.26,-65.99"/>
<polygon fill="midnightblue" stroke="midnightblue" points="647.05,-69.51 657.53,-67.95 648.36,-62.64 647.05,-69.51"/>
</g>
<!-- Node10&#45;&gt;Node12 -->
<g id="edge11" class="edge">
<title>Node10&#45;&gt;Node12</title>
<path fill="none" stroke="midnightblue" d="M595.71,-39.74C610.48,-37.89 626.6,-35.86 641.5,-34"/>
<polygon fill="midnightblue" stroke="midnightblue" points="642.1,-37.45 651.59,-32.73 641.23,-30.5 642.1,-37.45"/>
</g>
</g>
</svg>
