<?xml version="1.0" encoding="UTF-8" standalone="no"?>
<!DOCTYPE svg PUBLIC "-//W3C//DTD SVG 1.1//EN"
 "http://www.w3.org/Graphics/SVG/1.1/DTD/svg11.dtd">
<!-- Generated by graphviz version 2.43.0 (0)
 -->
<!-- Title: Attacker Pages: 1 -->
<svg width="110pt" height="152pt"
 viewBox="0.00 0.00 109.50 152.00" xmlns="http://www.w3.org/2000/svg" xmlns:xlink="http://www.w3.org/1999/xlink">
<g id="graph0" class="graph" transform="scale(1 1) rotate(0) translate(4 148)">
<title>Attacker</title>
<polygon fill="white" stroke="transparent" points="-4,4 -4,-148 105.5,-148 105.5,4 -4,4"/>
<!-- Node1 -->
<g id="node1" class="node">
<title>Node1</title>
<g id="a_node1"><a xlink:title=" ">
<polygon fill="#bfbfbf" stroke="black" points="0,-0.5 0,-19.5 57,-19.5 57,-0.5 0,-0.5"/>
<text text-anchor="middle" x="28.5" y="-7.5" font-family="Helvetica,sans-Serif" font-size="10.00">Attacker</text>
</a>
</g>
</g>
<!-- Node2 -->
<g id="node2" class="node">
<title>Node2</title>
<g id="a_node2"><a xlink:href="classEntity.html" target="_top" xlink:title=" ">
<polygon fill="white" stroke="black" points="6,-57.5 6,-76.5 51,-76.5 51,-57.5 6,-57.5"/>
<text text-anchor="middle" x="28.5" y="-64.5" font-family="Helvetica,sans-Serif" font-size="10.00">Entity</text>
</a>
</g>
</g>
<!-- Node2&#45;&gt;Node1 -->
<g id="edge1" class="edge">
<title>Node2&#45;&gt;Node1</title>
<path fill="none" stroke="midnightblue" d="M28.5,-47.12C28.5,-37.82 28.5,-27.06 28.5,-19.71"/>
<polygon fill="midnightblue" stroke="midnightblue" points="25,-47.41 28.5,-57.41 32,-47.41 25,-47.41"/>
</g>
<!-- Node3 -->
<g id="node3" class="node">
<title>Node3</title>
<g id="a_node3"><a xlink:href="classMap.html" target="_top" xlink:title=" ">
<polygon fill="white" stroke="black" points="9.5,-124.5 9.5,-143.5 47.5,-143.5 47.5,-124.5 9.5,-124.5"/>
<text text-anchor="middle" x="28.5" y="-131.5" font-family="Helvetica,sans-Serif" font-size="10.00">Map</text>
</a>
</g>
</g>
<!-- Node3&#45;&gt;Node2 -->
<g id="edge2" class="edge">
<title>Node3&#45;&gt;Node2</title>
<path fill="none" stroke="#9a32cd" stroke-dasharray="5,2" d="M28.5,-114.04C28.5,-101.67 28.5,-86.12 28.5,-76.63"/>
<polygon fill="#9a32cd" stroke="#9a32cd" points="25,-114.23 28.5,-124.23 32,-114.23 25,-114.23"/>
<text text-anchor="middle" x="65" y="-98" font-family="Helvetica,sans-Serif" font-size="10.00"> m_sharedMap</text>
</g>
</g>
</svg>
