<?xml version="1.0" encoding="UTF-8" standalone="no"?>
<!DOCTYPE svg PUBLIC "-//W3C//DTD SVG 1.1//EN"
 "http://www.w3.org/Graphics/SVG/1.1/DTD/svg11.dtd">
<!-- Generated by graphviz version 2.43.0 (0)
 -->
<!-- Title: Map::loadNextMap Pages: 1 -->
<svg width="385pt" height="66pt"
 viewBox="0.00 0.00 385.00 66.00" xmlns="http://www.w3.org/2000/svg" xmlns:xlink="http://www.w3.org/1999/xlink">
<g id="graph0" class="graph" transform="scale(1 1) rotate(0) translate(4 62)">
<title>Map::loadNextMap</title>
<polygon fill="white" stroke="transparent" points="-4,4 -4,-62 381,-62 381,4 -4,4"/>
<!-- Node1 -->
<g id="node1" class="node">
<title>Node1</title>
<g id="a_node1"><a xlink:title=" ">
<polygon fill="#bfbfbf" stroke="black" points="0,-19.5 0,-38.5 109,-38.5 109,-19.5 0,-19.5"/>
<text text-anchor="middle" x="54.5" y="-26.5" font-family="Helvetica,sans-Serif" font-size="10.00">Map::loadNextMap</text>
</a>
</g>
</g>
<!-- Node2 -->
<g id="node2" class="node">
<title>Node2</title>
<g id="a_node2"><a xlink:href="classMap.html#a79a4355510b026646449df1852768c38" target="_top" xlink:title=" ">
<polygon fill="white" stroke="black" points="145,-19.5 145,-38.5 231,-38.5 231,-19.5 145,-19.5"/>
<text text-anchor="middle" x="188" y="-26.5" font-family="Helvetica,sans-Serif" font-size="10.00">Map::readMap</text>
</a>
</g>
</g>
<!-- Node1&#45;&gt;Node2 -->
<g id="edge1" class="edge">
<title>Node1&#45;&gt;Node2</title>
<path fill="none" stroke="midnightblue" d="M109.37,-29C117.64,-29 126.18,-29 134.43,-29"/>
<polygon fill="midnightblue" stroke="midnightblue" points="134.69,-32.5 144.69,-29 134.69,-25.5 134.69,-32.5"/>
</g>
<!-- Node3 -->
<g id="node3" class="node">
<title>Node3</title>
<g id="a_node3"><a xlink:href="logFile_8cpp.html#a7044c91cfa1a776cbf7b08b4af30888d" target="_top" xlink:title=" ">
<polygon fill="white" stroke="black" points="279.5,-38.5 279.5,-57.5 364.5,-57.5 364.5,-38.5 279.5,-38.5"/>
<text text-anchor="middle" x="322" y="-45.5" font-family="Helvetica,sans-Serif" font-size="10.00">sendToLogFile</text>
</a>
</g>
</g>
<!-- Node2&#45;&gt;Node3 -->
<g id="edge2" class="edge">
<title>Node2&#45;&gt;Node3</title>
<path fill="none" stroke="midnightblue" d="M231.13,-35.06C243.27,-36.81 256.67,-38.74 269.32,-40.56"/>
<polygon fill="midnightblue" stroke="midnightblue" points="268.87,-44.03 279.27,-41.99 269.87,-37.1 268.87,-44.03"/>
</g>
<!-- Node4 -->
<g id="node4" class="node">
<title>Node4</title>
<g id="a_node4"><a xlink:href="classlogException.html#aee5cf9c19e99ce539b58973237cf12ec" target="_top" xlink:title=" ">
<polygon fill="white" stroke="black" points="267,-0.5 267,-19.5 377,-19.5 377,-0.5 267,-0.5"/>
<text text-anchor="middle" x="322" y="-7.5" font-family="Helvetica,sans-Serif" font-size="10.00">logException::what</text>
</a>
</g>
</g>
<!-- Node2&#45;&gt;Node4 -->
<g id="edge3" class="edge">
<title>Node2&#45;&gt;Node4</title>
<path fill="none" stroke="midnightblue" d="M231.13,-22.94C239.26,-21.77 247.96,-20.51 256.61,-19.27"/>
<polygon fill="midnightblue" stroke="midnightblue" points="257.32,-22.7 266.72,-17.81 256.33,-15.77 257.32,-22.7"/>
</g>
</g>
</svg>
