<?xml version="1.0" encoding="UTF-8" standalone="no"?>
<!DOCTYPE svg PUBLIC "-//W3C//DTD SVG 1.1//EN"
 "http://www.w3.org/Graphics/SVG/1.1/DTD/svg11.dtd">
<!-- Generated by graphviz version 2.43.0 (0)
 -->
<!-- Title: logException::what Pages: 1 -->
<svg width="851pt" height="104pt"
 viewBox="0.00 0.00 851.00 104.00" xmlns="http://www.w3.org/2000/svg" xmlns:xlink="http://www.w3.org/1999/xlink">
<g id="graph0" class="graph" transform="scale(1 1) rotate(0) translate(4 100)">
<title>logException::what</title>
<polygon fill="white" stroke="transparent" points="-4,4 -4,-100 847,-100 847,4 -4,4"/>
<!-- Node1 -->
<g id="node1" class="node">
<title>Node1</title>
<g id="a_node1"><a xlink:title=" ">
<polygon fill="#bfbfbf" stroke="black" points="733,-38.5 733,-57.5 843,-57.5 843,-38.5 733,-38.5"/>
<text text-anchor="middle" x="788" y="-45.5" font-family="Helvetica,sans-Serif" font-size="10.00">logException::what</text>
</a>
</g>
</g>
<!-- Node2 -->
<g id="node2" class="node">
<title>Node2</title>
<g id="a_node2"><a xlink:href="classMap.html#acd24cfa7aca34a2839a94490ef563aa2" target="_top" xlink:title=" ">
<polygon fill="white" stroke="black" points="611,-38.5 611,-57.5 697,-57.5 697,-38.5 611,-38.5"/>
<text text-anchor="middle" x="654" y="-45.5" font-family="Helvetica,sans-Serif" font-size="10.00">Map::readMap</text>
</a>
</g>
</g>
<!-- Node1&#45;&gt;Node2 -->
<g id="edge1" class="edge">
<title>Node1&#45;&gt;Node2</title>
<path fill="none" stroke="midnightblue" d="M722.75,-48C714.02,-48 705.26,-48 697.07,-48"/>
<polygon fill="midnightblue" stroke="midnightblue" points="722.93,-51.5 732.93,-48 722.93,-44.5 722.93,-51.5"/>
</g>
<!-- Node3 -->
<g id="node3" class="node">
<title>Node3</title>
<g id="a_node3"><a xlink:href="classCGame.html#a9945af5487d059db1d7119ae16cd2dd3" target="_top" xlink:title=" ">
<polygon fill="white" stroke="black" points="471,-76.5 471,-95.5 551,-95.5 551,-76.5 471,-76.5"/>
<text text-anchor="middle" x="511" y="-83.5" font-family="Helvetica,sans-Serif" font-size="10.00">CGame::load</text>
</a>
</g>
</g>
<!-- Node2&#45;&gt;Node3 -->
<g id="edge2" class="edge">
<title>Node2&#45;&gt;Node3</title>
<path fill="none" stroke="midnightblue" d="M607.56,-60.25C588.13,-65.48 565.77,-71.51 547.57,-76.41"/>
<polygon fill="midnightblue" stroke="midnightblue" points="608.68,-63.57 617.42,-57.59 606.85,-56.81 608.68,-63.57"/>
</g>
<!-- Node8 -->
<g id="node8" class="node">
<title>Node8</title>
<g id="a_node8"><a xlink:href="classCGame.html#afbbb4f8d05f753b7c2d6a0d91ca96a9b" target="_top" xlink:title=" ">
<polygon fill="white" stroke="black" points="447,-38.5 447,-57.5 575,-57.5 575,-38.5 447,-38.5"/>
<text text-anchor="middle" x="511" y="-45.5" font-family="Helvetica,sans-Serif" font-size="10.00">CGame::loadFromSave</text>
</a>
</g>
</g>
<!-- Node2&#45;&gt;Node8 -->
<g id="edge8" class="edge">
<title>Node2&#45;&gt;Node8</title>
<path fill="none" stroke="midnightblue" d="M600.46,-48C592.21,-48 583.6,-48 575.13,-48"/>
<polygon fill="midnightblue" stroke="midnightblue" points="600.7,-51.5 610.7,-48 600.7,-44.5 600.7,-51.5"/>
</g>
<!-- Node9 -->
<g id="node9" class="node">
<title>Node9</title>
<g id="a_node9"><a xlink:href="classMap.html#a0a1bc119b284fc82e2f3b1c2956b4381" target="_top" xlink:title=" ">
<polygon fill="white" stroke="black" points="456.5,-0.5 456.5,-19.5 565.5,-19.5 565.5,-0.5 456.5,-0.5"/>
<text text-anchor="middle" x="511" y="-7.5" font-family="Helvetica,sans-Serif" font-size="10.00">Map::loadNextMap</text>
</a>
</g>
</g>
<!-- Node2&#45;&gt;Node9 -->
<g id="edge10" class="edge">
<title>Node2&#45;&gt;Node9</title>
<path fill="none" stroke="midnightblue" d="M607.56,-35.75C588.13,-30.52 565.77,-24.49 547.57,-19.59"/>
<polygon fill="midnightblue" stroke="midnightblue" points="606.85,-39.19 617.42,-38.41 608.68,-32.43 606.85,-39.19"/>
</g>
<!-- Node4 -->
<g id="node4" class="node">
<title>Node4</title>
<g id="a_node4"><a xlink:href="classCGame.html#a4225411d7a9a23bf0dcbaf63d6a41936" target="_top" xlink:title=" ">
<polygon fill="white" stroke="black" points="337,-57.5 337,-76.5 411,-76.5 411,-57.5 337,-57.5"/>
<text text-anchor="middle" x="374" y="-64.5" font-family="Helvetica,sans-Serif" font-size="10.00">CGame::init</text>
</a>
</g>
</g>
<!-- Node3&#45;&gt;Node4 -->
<g id="edge3" class="edge">
<title>Node3&#45;&gt;Node4</title>
<path fill="none" stroke="midnightblue" d="M460.95,-79.1C444.5,-76.78 426.47,-74.24 411.19,-72.09"/>
<polygon fill="midnightblue" stroke="midnightblue" points="460.56,-82.58 470.95,-80.5 461.54,-75.64 460.56,-82.58"/>
</g>
<!-- Node5 -->
<g id="node5" class="node">
<title>Node5</title>
<g id="a_node5"><a xlink:href="classCGame.html#aa7c80b7185158a0bde186d83f0e8cbb4" target="_top" xlink:title=" ">
<polygon fill="white" stroke="black" points="221,-57.5 221,-76.5 301,-76.5 301,-57.5 221,-57.5"/>
<text text-anchor="middle" x="261" y="-64.5" font-family="Helvetica,sans-Serif" font-size="10.00">CGame::play</text>
</a>
</g>
</g>
<!-- Node4&#45;&gt;Node5 -->
<g id="edge4" class="edge">
<title>Node4&#45;&gt;Node5</title>
<path fill="none" stroke="midnightblue" d="M326.82,-67C318.34,-67 309.56,-67 301.31,-67"/>
<polygon fill="midnightblue" stroke="midnightblue" points="326.96,-70.5 336.96,-67 326.96,-63.5 326.96,-70.5"/>
</g>
<!-- Node6 -->
<g id="node6" class="node">
<title>Node6</title>
<g id="a_node6"><a xlink:href="main_8cpp.html#a3c04138a5bfe5d72780bb7e82a18e627" target="_top" xlink:title=" ">
<polygon fill="white" stroke="black" points="144,-76.5 144,-95.5 185,-95.5 185,-76.5 144,-76.5"/>
<text text-anchor="middle" x="164.5" y="-83.5" font-family="Helvetica,sans-Serif" font-size="10.00">main</text>
</a>
</g>
</g>
<!-- Node5&#45;&gt;Node6 -->
<g id="edge5" class="edge">
<title>Node5&#45;&gt;Node6</title>
<path fill="none" stroke="midnightblue" d="M210.87,-76.88C201.75,-78.71 192.72,-80.53 185.15,-82.05"/>
<polygon fill="midnightblue" stroke="midnightblue" points="211.63,-80.3 220.74,-74.89 210.25,-73.43 211.63,-80.3"/>
</g>
<!-- Node7 -->
<g id="node7" class="node">
<title>Node7</title>
<g id="a_node7"><a xlink:href="structCMenu.html#a07236cc397b0e4e55ec4f916c3893fbd" target="_top" xlink:title=" ">
<polygon fill="white" stroke="black" points="0,-57.5 0,-76.5 108,-76.5 108,-57.5 0,-57.5"/>
<text text-anchor="middle" x="54" y="-64.5" font-family="Helvetica,sans-Serif" font-size="10.00">CMenu::mainMenu</text>
</a>
</g>
</g>
<!-- Node6&#45;&gt;Node7 -->
<g id="edge6" class="edge">
<title>Node6&#45;&gt;Node7</title>
<path fill="none" stroke="midnightblue" d="M133.76,-80.79C125.89,-79.41 117.17,-77.89 108.46,-76.36"/>
<polygon fill="midnightblue" stroke="midnightblue" points="133.4,-84.28 143.85,-82.56 134.61,-77.39 133.4,-84.28"/>
</g>
<!-- Node7&#45;&gt;Node5 -->
<g id="edge7" class="edge">
<title>Node7&#45;&gt;Node5</title>
<path fill="none" stroke="midnightblue" d="M118.4,-67C151.92,-67 192.01,-67 220.96,-67"/>
<polygon fill="midnightblue" stroke="midnightblue" points="118.22,-63.5 108.22,-67 118.22,-70.5 118.22,-63.5"/>
</g>
<!-- Node8&#45;&gt;Node4 -->
<g id="edge9" class="edge">
<title>Node8&#45;&gt;Node4</title>
<path fill="none" stroke="midnightblue" d="M436.82,-58.3C427.95,-59.55 419.22,-60.78 411.24,-61.9"/>
<polygon fill="midnightblue" stroke="midnightblue" points="437.43,-61.75 446.85,-56.89 436.46,-54.82 437.43,-61.75"/>
</g>
</g>
</svg>
