<?xml version="1.0" encoding="UTF-8" standalone="no"?>
<!DOCTYPE svg PUBLIC "-//W3C//DTD SVG 1.1//EN"
 "http://www.w3.org/Graphics/SVG/1.1/DTD/svg11.dtd">
<!-- Generated by graphviz version 2.43.0 (0)
 -->
<!-- Title: FastAttacker Pages: 1 -->
<svg width="120pt" height="209pt"
 viewBox="0.00 0.00 119.50 209.00" xmlns="http://www.w3.org/2000/svg" xmlns:xlink="http://www.w3.org/1999/xlink">
<g id="graph0" class="graph" transform="scale(1 1) rotate(0) translate(4 205)">
<title>FastAttacker</title>
<polygon fill="white" stroke="transparent" points="-4,4 -4,-205 115.5,-205 115.5,4 -4,4"/>
<!-- Node1 -->
<g id="node1" class="node">
<title>Node1</title>
<g id="a_node1"><a xlink:title=" ">
<polygon fill="#bfbfbf" stroke="black" points="0,-0.5 0,-19.5 77,-19.5 77,-0.5 0,-0.5"/>
<text text-anchor="middle" x="38.5" y="-7.5" font-family="Helvetica,sans-Serif" font-size="10.00">FastAttacker</text>
</a>
</g>
</g>
<!-- Node2 -->
<g id="node2" class="node">
<title>Node2</title>
<g id="a_node2"><a xlink:href="classAttacker.html" target="_top" xlink:title=" ">
<polygon fill="white" stroke="black" points="10,-57.5 10,-76.5 67,-76.5 67,-57.5 10,-57.5"/>
<text text-anchor="middle" x="38.5" y="-64.5" font-family="Helvetica,sans-Serif" font-size="10.00">Attacker</text>
</a>
</g>
</g>
<!-- Node2&#45;&gt;Node1 -->
<g id="edge1" class="edge">
<title>Node2&#45;&gt;Node1</title>
<path fill="none" stroke="midnightblue" d="M38.5,-47.12C38.5,-37.82 38.5,-27.06 38.5,-19.71"/>
<polygon fill="midnightblue" stroke="midnightblue" points="35,-47.41 38.5,-57.41 42,-47.41 35,-47.41"/>
</g>
<!-- Node3 -->
<g id="node3" class="node">
<title>Node3</title>
<g id="a_node3"><a xlink:href="classEntity.html" target="_top" xlink:title=" ">
<polygon fill="white" stroke="black" points="16,-114.5 16,-133.5 61,-133.5 61,-114.5 16,-114.5"/>
<text text-anchor="middle" x="38.5" y="-121.5" font-family="Helvetica,sans-Serif" font-size="10.00">Entity</text>
</a>
</g>
</g>
<!-- Node3&#45;&gt;Node2 -->
<g id="edge2" class="edge">
<title>Node3&#45;&gt;Node2</title>
<path fill="none" stroke="midnightblue" d="M38.5,-104.12C38.5,-94.82 38.5,-84.06 38.5,-76.71"/>
<polygon fill="midnightblue" stroke="midnightblue" points="35,-104.41 38.5,-114.41 42,-104.41 35,-104.41"/>
</g>
<!-- Node4 -->
<g id="node4" class="node">
<title>Node4</title>
<g id="a_node4"><a xlink:href="classMap.html" target="_top" xlink:title=" ">
<polygon fill="white" stroke="black" points="19.5,-181.5 19.5,-200.5 57.5,-200.5 57.5,-181.5 19.5,-181.5"/>
<text text-anchor="middle" x="38.5" y="-188.5" font-family="Helvetica,sans-Serif" font-size="10.00">Map</text>
</a>
</g>
</g>
<!-- Node4&#45;&gt;Node3 -->
<g id="edge3" class="edge">
<title>Node4&#45;&gt;Node3</title>
<path fill="none" stroke="#9a32cd" stroke-dasharray="5,2" d="M38.5,-171.04C38.5,-158.67 38.5,-143.12 38.5,-133.63"/>
<polygon fill="#9a32cd" stroke="#9a32cd" points="35,-171.23 38.5,-181.23 42,-171.23 35,-171.23"/>
<text text-anchor="middle" x="75" y="-155" font-family="Helvetica,sans-Serif" font-size="10.00"> m_sharedMap</text>
</g>
</g>
</svg>
