<?xml version="1.0" encoding="UTF-8" standalone="no"?>
<!DOCTYPE svg PUBLIC "-//W3C//DTD SVG 1.1//EN"
 "http://www.w3.org/Graphics/SVG/1.1/DTD/svg11.dtd">
<!-- Generated by graphviz version 2.43.0 (0)
 -->
<!-- Title: Entity::draw Pages: 1 -->
<svg width="542pt" height="409pt"
 viewBox="0.00 0.00 542.00 409.15" xmlns="http://www.w3.org/2000/svg" xmlns:xlink="http://www.w3.org/1999/xlink">
<g id="graph0" class="graph" transform="scale(1 1) rotate(0) translate(4 405.15)">
<title>Entity::draw</title>
<polygon fill="white" stroke="transparent" points="-4,4 -4,-405.15 538,-405.15 538,4 -4,4"/>
<!-- Node1 -->
<g id="node1" class="node">
<title>Node1</title>
<g id="a_node1"><a xlink:title=" ">
<polygon fill="#bfbfbf" stroke="black" points="0,-209.5 0,-228.5 74,-228.5 74,-209.5 0,-209.5"/>
<text text-anchor="middle" x="37" y="-216.5" font-family="Helvetica,sans-Serif" font-size="10.00">Entity::draw</text>
</a>
</g>
</g>
<!-- Node2 -->
<g id="node2" class="node">
<title>Node2</title>
<g id="a_node2"><a xlink:href="classMap.html#adba2ce32305e081466f8039fd9ccdf17" target="_top" xlink:title=" ">
<polygon fill="white" stroke="black" points="110,-228.5 110,-247.5 227,-247.5 227,-228.5 110,-228.5"/>
<text text-anchor="middle" x="168.5" y="-235.5" font-family="Helvetica,sans-Serif" font-size="10.00">Map::refreshWindow</text>
</a>
</g>
</g>
<!-- Node1&#45;&gt;Node2 -->
<g id="edge1" class="edge">
<title>Node1&#45;&gt;Node2</title>
<path fill="none" stroke="midnightblue" d="M74.07,-224.29C82.12,-225.47 90.91,-226.76 99.77,-228.06"/>
<polygon fill="midnightblue" stroke="midnightblue" points="99.37,-231.54 109.77,-229.53 100.39,-224.62 99.37,-231.54"/>
</g>
<!-- Node3 -->
<g id="node3" class="node">
<title>Node3</title>
<g id="a_node3"><a xlink:href="classMap.html#adb8bd1312b25de59794e421009b6fa3e" target="_top" xlink:title=" ">
<polygon fill="white" stroke="black" points="125,-190.5 125,-209.5 212,-209.5 212,-190.5 125,-190.5"/>
<text text-anchor="middle" x="168.5" y="-197.5" font-family="Helvetica,sans-Serif" font-size="10.00">Map::setEntity</text>
</a>
</g>
</g>
<!-- Node1&#45;&gt;Node3 -->
<g id="edge2" class="edge">
<title>Node1&#45;&gt;Node3</title>
<path fill="none" stroke="midnightblue" d="M74.07,-213.71C86.6,-211.87 100.91,-209.77 114.52,-207.77"/>
<polygon fill="midnightblue" stroke="midnightblue" points="115.35,-211.19 124.74,-206.27 114.33,-204.26 115.35,-211.19"/>
</g>
<!-- Node4 -->
<g id="node4" class="node">
<title>Node4</title>
<g id="a_node4"><a xlink:href="classMap.html#ae4968d82a24a805f98028a0a5b1a01e8" target="_top" xlink:title=" ">
<polygon fill="white" stroke="black" points="273.5,-342.5 273.5,-361.5 378.5,-361.5 378.5,-342.5 273.5,-342.5"/>
<text text-anchor="middle" x="326" y="-349.5" font-family="Helvetica,sans-Serif" font-size="10.00">Map::addToRadius</text>
</a>
</g>
</g>
<!-- Node3&#45;&gt;Node4 -->
<g id="edge3" class="edge">
<title>Node3&#45;&gt;Node4</title>
<path fill="none" stroke="midnightblue" d="M212.04,-208.91C217.56,-211.47 222.76,-214.76 227,-219 263.07,-255.08 227.84,-291.03 263,-328 266.64,-331.82 270.95,-335.05 275.58,-337.76"/>
<polygon fill="midnightblue" stroke="midnightblue" points="274.28,-341.03 284.79,-342.38 277.42,-334.77 274.28,-341.03"/>
</g>
<!-- Node5 -->
<g id="node5" class="node">
<title>Node5</title>
<g id="a_node5"><a xlink:href="classEntity.html#a8c0279c56eee0a37bc905c79c5d15cfd" target="_top" xlink:title=" ">
<polygon fill="white" stroke="black" points="441,-370.5 441,-389.5 518,-389.5 518,-370.5 441,-370.5"/>
<text text-anchor="middle" x="479.5" y="-377.5" font-family="Helvetica,sans-Serif" font-size="10.00">Entity::getID</text>
</a>
</g>
</g>
<!-- Node3&#45;&gt;Node5 -->
<g id="edge10" class="edge">
<title>Node3&#45;&gt;Node5</title>
<path fill="none" stroke="midnightblue" d="M212.09,-208.45C217.67,-211.07 222.88,-214.51 227,-219 273.92,-270.17 209.46,-326.81 263,-371 311.3,-410.86 388.45,-402.48 436.16,-391.88"/>
<polygon fill="midnightblue" stroke="midnightblue" points="437.22,-395.23 446.16,-389.53 435.62,-388.41 437.22,-395.23"/>
</g>
<!-- Node6 -->
<g id="node6" class="node">
<title>Node6</title>
<g id="a_node6"><a xlink:href="classEntity.html#aaaef5a4ba021755cd32ae39ecbbb38cd" target="_top" xlink:title=" ">
<polygon fill="white" stroke="black" points="435,-323.5 435,-342.5 524,-342.5 524,-323.5 435,-323.5"/>
<text text-anchor="middle" x="479.5" y="-330.5" font-family="Helvetica,sans-Serif" font-size="10.00">Entity::getType</text>
</a>
</g>
</g>
<!-- Node3&#45;&gt;Node6 -->
<g id="edge13" class="edge">
<title>Node3&#45;&gt;Node6</title>
<path fill="none" stroke="midnightblue" d="M211.87,-209.53C217.36,-212 222.59,-215.1 227,-219 255.01,-243.75 233.28,-272.34 263,-295 287.81,-313.92 369.52,-324.21 424.88,-329.15"/>
<polygon fill="midnightblue" stroke="midnightblue" points="424.63,-332.64 434.9,-330.01 425.23,-325.66 424.63,-332.64"/>
</g>
<!-- Node7 -->
<g id="node7" class="node">
<title>Node7</title>
<g id="a_node7"><a xlink:href="classEntity.html#a4a2f1ef2a622b7c47f8931deed1b8a46" target="_top" xlink:title=" ">
<polygon fill="white" stroke="black" points="263,-266.5 263,-285.5 389,-285.5 389,-266.5 263,-266.5"/>
<text text-anchor="middle" x="326" y="-273.5" font-family="Helvetica,sans-Serif" font-size="10.00">Entity::calculateDeltas</text>
</a>
</g>
</g>
<!-- Node3&#45;&gt;Node7 -->
<g id="edge6" class="edge">
<title>Node3&#45;&gt;Node7</title>
<path fill="none" stroke="midnightblue" d="M207.52,-209.6C214.28,-212.12 221.05,-215.22 227,-219 246.64,-231.47 243.23,-244.74 263,-257 266.4,-259.11 270.05,-261 273.82,-262.69"/>
<polygon fill="midnightblue" stroke="midnightblue" points="272.76,-266.03 283.35,-266.49 275.36,-259.53 272.76,-266.03"/>
</g>
<!-- Node8 -->
<g id="node8" class="node">
<title>Node8</title>
<g id="a_node8"><a xlink:href="classMap.html#a12616a2a3c221b40b7bb56efb7f32330" target="_top" xlink:title=" ">
<polygon fill="white" stroke="black" points="272,-228.5 272,-247.5 380,-247.5 380,-228.5 272,-228.5"/>
<text text-anchor="middle" x="326" y="-235.5" font-family="Helvetica,sans-Serif" font-size="10.00">Map::checkBounds</text>
</a>
</g>
</g>
<!-- Node3&#45;&gt;Node8 -->
<g id="edge7" class="edge">
<title>Node3&#45;&gt;Node8</title>
<path fill="none" stroke="midnightblue" d="M208.74,-209.59C229.26,-214.6 254.57,-220.79 276.33,-226.11"/>
<polygon fill="midnightblue" stroke="midnightblue" points="275.5,-229.51 286.04,-228.48 277.16,-222.71 275.5,-229.51"/>
</g>
<!-- Node10 -->
<g id="node10" class="node">
<title>Node10</title>
<g id="a_node10"><a xlink:href="classEntity.html#ab927c960c0767756d2ec47d965a8605c" target="_top" xlink:title=" ">
<polygon fill="white" stroke="black" points="277,-190.5 277,-209.5 375,-209.5 375,-190.5 277,-190.5"/>
<text text-anchor="middle" x="326" y="-197.5" font-family="Helvetica,sans-Serif" font-size="10.00">Entity::getDeltas</text>
</a>
</g>
</g>
<!-- Node3&#45;&gt;Node10 -->
<g id="edge9" class="edge">
<title>Node3&#45;&gt;Node10</title>
<path fill="none" stroke="midnightblue" d="M212.4,-200C229.16,-200 248.65,-200 266.65,-200"/>
<polygon fill="midnightblue" stroke="midnightblue" points="266.76,-203.5 276.76,-200 266.76,-196.5 266.76,-203.5"/>
</g>
<!-- Node11 -->
<g id="node11" class="node">
<title>Node11</title>
<g id="a_node11"><a xlink:href="classEntity.html#acd06d3d9c4914331c38e28d78427024f" target="_top" xlink:title=" ">
<polygon fill="white" stroke="black" points="276.5,-152.5 276.5,-171.5 375.5,-171.5 375.5,-152.5 276.5,-152.5"/>
<text text-anchor="middle" x="326" y="-159.5" font-family="Helvetica,sans-Serif" font-size="10.00">Entity::getRadius</text>
</a>
</g>
</g>
<!-- Node3&#45;&gt;Node11 -->
<g id="edge11" class="edge">
<title>Node3&#45;&gt;Node11</title>
<path fill="none" stroke="midnightblue" d="M208.74,-190.41C229.26,-185.4 254.57,-179.21 276.33,-173.89"/>
<polygon fill="midnightblue" stroke="midnightblue" points="277.16,-177.29 286.04,-171.52 275.5,-170.49 277.16,-177.29"/>
</g>
<!-- Node12 -->
<g id="node12" class="node">
<title>Node12</title>
<g id="a_node12"><a xlink:href="classEntity.html#aa9b4d32a894d4117dddcdff3c46842ae" target="_top" xlink:title=" ">
<polygon fill="white" stroke="black" points="274.5,-114.5 274.5,-133.5 377.5,-133.5 377.5,-114.5 274.5,-114.5"/>
<text text-anchor="middle" x="326" y="-121.5" font-family="Helvetica,sans-Serif" font-size="10.00">Entity::getSymbol</text>
</a>
</g>
</g>
<!-- Node3&#45;&gt;Node12 -->
<g id="edge12" class="edge">
<title>Node3&#45;&gt;Node12</title>
<path fill="none" stroke="midnightblue" d="M182.85,-190.38C200.48,-178.02 232.83,-156.56 263,-143 268.01,-140.75 273.35,-138.67 278.73,-136.77"/>
<polygon fill="midnightblue" stroke="midnightblue" points="279.99,-140.04 288.38,-133.56 277.78,-133.4 279.99,-140.04"/>
</g>
<!-- Node13 -->
<g id="node13" class="node">
<title>Node13</title>
<g id="a_node13"><a xlink:href="classMap.html#af482c6f7d02d4e79c26097b53f4ce808" target="_top" xlink:title=" ">
<polygon fill="white" stroke="black" points="285,-76.5 285,-95.5 367,-95.5 367,-76.5 285,-76.5"/>
<text text-anchor="middle" x="326" y="-83.5" font-family="Helvetica,sans-Serif" font-size="10.00">Map::getType</text>
</a>
</g>
</g>
<!-- Node3&#45;&gt;Node13 -->
<g id="edge14" class="edge">
<title>Node3&#45;&gt;Node13</title>
<path fill="none" stroke="midnightblue" d="M176.32,-190.38C190.36,-171.28 224.42,-128.41 263,-105 266.84,-102.67 270.99,-100.61 275.26,-98.78"/>
<polygon fill="midnightblue" stroke="midnightblue" points="276.63,-102 284.72,-95.15 274.12,-95.46 276.63,-102"/>
</g>
<!-- Node14 -->
<g id="node14" class="node">
<title>Node14</title>
<g id="a_node14"><a xlink:href="classEntity.html#a6171cc57bf9ab1a0d0fe18b7a8acc4ea" target="_top" xlink:title=" ">
<polygon fill="white" stroke="black" points="287,-38.5 287,-57.5 365,-57.5 365,-38.5 287,-38.5"/>
<text text-anchor="middle" x="326" y="-45.5" font-family="Helvetica,sans-Serif" font-size="10.00">Entity::move</text>
</a>
</g>
</g>
<!-- Node3&#45;&gt;Node14 -->
<g id="edge15" class="edge">
<title>Node3&#45;&gt;Node14</title>
<path fill="none" stroke="midnightblue" d="M173.58,-190.31C184.38,-165.83 216.17,-100.98 263,-67 267.28,-63.9 272.07,-61.29 277.04,-59.11"/>
<polygon fill="midnightblue" stroke="midnightblue" points="278.65,-62.24 286.74,-55.41 276.15,-55.7 278.65,-62.24"/>
</g>
<!-- Node15 -->
<g id="node15" class="node">
<title>Node15</title>
<g id="a_node15"><a xlink:href="classEntity.html#a58cbf4b62fa77ff52fd87ade1a8cacb0" target="_top" xlink:title=" ">
<polygon fill="white" stroke="black" points="277,-0.5 277,-19.5 375,-19.5 375,-0.5 277,-0.5"/>
<text text-anchor="middle" x="326" y="-7.5" font-family="Helvetica,sans-Serif" font-size="10.00">Entity::setRadius</text>
</a>
</g>
</g>
<!-- Node3&#45;&gt;Node15 -->
<g id="edge16" class="edge">
<title>Node3&#45;&gt;Node15</title>
<path fill="none" stroke="midnightblue" d="M172.02,-190.19C180.03,-161.02 207.66,-74.11 263,-29 265.25,-27.17 267.68,-25.51 270.22,-24.01"/>
<polygon fill="midnightblue" stroke="midnightblue" points="271.85,-27.11 279.23,-19.51 268.72,-20.85 271.85,-27.11"/>
</g>
<!-- Node4&#45;&gt;Node5 -->
<g id="edge4" class="edge">
<title>Node4&#45;&gt;Node5</title>
<path fill="none" stroke="midnightblue" d="M378.71,-361.56C395.61,-364.68 414.28,-368.13 430.86,-371.2"/>
<polygon fill="midnightblue" stroke="midnightblue" points="430.41,-374.67 440.88,-373.05 431.68,-367.79 430.41,-374.67"/>
</g>
<!-- Node4&#45;&gt;Node6 -->
<g id="edge5" class="edge">
<title>Node4&#45;&gt;Node6</title>
<path fill="none" stroke="midnightblue" d="M378.71,-345.51C393.48,-343.66 409.6,-341.64 424.5,-339.77"/>
<polygon fill="midnightblue" stroke="midnightblue" points="425.1,-343.22 434.59,-338.51 424.23,-336.28 425.1,-343.22"/>
</g>
<!-- Node9 -->
<g id="node9" class="node">
<title>Node9</title>
<g id="a_node9"><a xlink:href="classMap.html#a286853d8475bc1bbede582c89e9b1491" target="_top" xlink:title=" ">
<polygon fill="white" stroke="black" points="425,-228.5 425,-247.5 534,-247.5 534,-228.5 425,-228.5"/>
<text text-anchor="middle" x="479.5" y="-235.5" font-family="Helvetica,sans-Serif" font-size="10.00">Map::getMapWidth</text>
</a>
</g>
</g>
<!-- Node8&#45;&gt;Node9 -->
<g id="edge8" class="edge">
<title>Node8&#45;&gt;Node9</title>
<path fill="none" stroke="midnightblue" d="M380.41,-238C391.44,-238 403.15,-238 414.51,-238"/>
<polygon fill="midnightblue" stroke="midnightblue" points="414.8,-241.5 424.8,-238 414.8,-234.5 414.8,-241.5"/>
</g>
</g>
</svg>
