<?xml version="1.0" encoding="UTF-8" standalone="no"?>
<!DOCTYPE svg PUBLIC "-//W3C//DTD SVG 1.1//EN"
 "http://www.w3.org/Graphics/SVG/1.1/DTD/svg11.dtd">
<!-- Generated by graphviz version 2.43.0 (0)
 -->
<!-- Title: CGame::start Pages: 1 -->
<svg width="937pt" height="666pt"
 viewBox="0.00 0.00 937.00 666.32" xmlns="http://www.w3.org/2000/svg" xmlns:xlink="http://www.w3.org/1999/xlink">
<g id="graph0" class="graph" transform="scale(1 1) rotate(0) translate(4 662.32)">
<title>CGame::start</title>
<polygon fill="white" stroke="transparent" points="-4,4 -4,-662.32 933,-662.32 933,4 -4,4"/>
<!-- Node1 -->
<g id="node1" class="node">
<title>Node1</title>
<g id="a_node1"><a xlink:title=" ">
<polygon fill="#bfbfbf" stroke="black" points="0,-361.5 0,-380.5 81,-380.5 81,-361.5 0,-361.5"/>
<text text-anchor="middle" x="40.5" y="-368.5" font-family="Helvetica,sans-Serif" font-size="10.00">CGame::start</text>
</a>
</g>
</g>
<!-- Node2 -->
<g id="node2" class="node">
<title>Node2</title>
<g id="a_node2"><a xlink:href="classCGame.html#ac171bc92e70f80457d200d6498548dd0" target="_top" xlink:title=" ">
<polygon fill="white" stroke="black" points="117,-513.5 117,-532.5 263,-532.5 263,-513.5 117,-513.5"/>
<text text-anchor="middle" x="190" y="-520.5" font-family="Helvetica,sans-Serif" font-size="10.00">CGame::drawAttackerDefs</text>
</a>
</g>
</g>
<!-- Node1&#45;&gt;Node2 -->
<g id="edge1" class="edge">
<title>Node1&#45;&gt;Node2</title>
<path fill="none" stroke="midnightblue" d="M50.73,-380.51C75.15,-405.67 141.71,-474.26 172.71,-506.21"/>
<polygon fill="midnightblue" stroke="midnightblue" points="170.3,-508.76 179.78,-513.5 175.32,-503.88 170.3,-508.76"/>
</g>
<!-- Node4 -->
<g id="node4" class="node">
<title>Node4</title>
<g id="a_node4"><a xlink:href="classCGame.html#abca9e7318a19887770d007a56248fa82" target="_top" xlink:title=" ">
<polygon fill="white" stroke="black" points="142.5,-342.5 142.5,-361.5 237.5,-361.5 237.5,-342.5 142.5,-342.5"/>
<text text-anchor="middle" x="190" y="-349.5" font-family="Helvetica,sans-Serif" font-size="10.00">CGame::resume</text>
</a>
</g>
</g>
<!-- Node1&#45;&gt;Node4 -->
<g id="edge3" class="edge">
<title>Node1&#45;&gt;Node4</title>
<path fill="none" stroke="midnightblue" d="M81.03,-365.91C96.64,-363.9 114.89,-361.55 131.9,-359.36"/>
<polygon fill="midnightblue" stroke="midnightblue" points="132.82,-362.77 142.29,-358.02 131.92,-355.82 132.82,-362.77"/>
</g>
<!-- Node3 -->
<g id="node3" class="node">
<title>Node3</title>
<g id="a_node3"><a xlink:href="classCDefinitions.html#ab8536fabb45ea006662e63bbc414dbef" target="_top" xlink:title=" ">
<polygon fill="white" stroke="black" points="502.5,-627.5 502.5,-646.5 640.5,-646.5 640.5,-627.5 502.5,-627.5"/>
<text text-anchor="middle" x="571.5" y="-634.5" font-family="Helvetica,sans-Serif" font-size="10.00">CDefinitions::getAttacker</text>
</a>
</g>
</g>
<!-- Node2&#45;&gt;Node3 -->
<g id="edge2" class="edge">
<title>Node2&#45;&gt;Node3</title>
<path fill="none" stroke="midnightblue" d="M196.43,-532.82C210.04,-556.26 248.16,-615.13 299,-637 370.95,-667.95 463.87,-658.72 520.24,-648.43"/>
<polygon fill="midnightblue" stroke="midnightblue" points="521.16,-651.82 530.32,-646.51 519.84,-644.95 521.16,-651.82"/>
</g>
<!-- Node5 -->
<g id="node5" class="node">
<title>Node5</title>
<g id="a_node5"><a xlink:href="classPlayer.html#a1ea667bf317320dc59bd784251bfccf1" target="_top" xlink:title=" ">
<polygon fill="white" stroke="black" points="300.5,-570.5 300.5,-589.5 454.5,-589.5 454.5,-570.5 300.5,-570.5"/>
<text text-anchor="middle" x="377.5" y="-577.5" font-family="Helvetica,sans-Serif" font-size="10.00">Player::addAttackerToQueue</text>
</a>
</g>
</g>
<!-- Node4&#45;&gt;Node5 -->
<g id="edge4" class="edge">
<title>Node4&#45;&gt;Node5</title>
<path fill="none" stroke="midnightblue" d="M195.39,-361.6C213.36,-400.76 281.23,-547.01 299,-561 301.3,-562.81 303.74,-564.45 306.29,-565.93"/>
<polygon fill="midnightblue" stroke="midnightblue" points="304.81,-569.11 315.32,-570.42 307.92,-562.83 304.81,-569.11"/>
</g>
<!-- Node6 -->
<g id="node6" class="node">
<title>Node6</title>
<g id="a_node6"><a xlink:href="classCGame.html#a5e869346471dd717a4393ee1cfe5eed6" target="_top" xlink:title=" ">
<polygon fill="white" stroke="black" points="301.5,-532.5 301.5,-551.5 453.5,-551.5 453.5,-532.5 301.5,-532.5"/>
<text text-anchor="middle" x="377.5" y="-539.5" font-family="Helvetica,sans-Serif" font-size="10.00">CGame::cleanErrorMessage</text>
</a>
</g>
</g>
<!-- Node4&#45;&gt;Node6 -->
<g id="edge5" class="edge">
<title>Node4&#45;&gt;Node6</title>
<path fill="none" stroke="midnightblue" d="M194.12,-361.56C204.17,-390.78 238.59,-479.51 299,-523 301.7,-524.94 304.57,-526.69 307.56,-528.26"/>
<polygon fill="midnightblue" stroke="midnightblue" points="306.29,-531.52 316.84,-532.45 309.17,-525.14 306.29,-531.52"/>
</g>
<!-- Node8 -->
<g id="node8" class="node">
<title>Node8</title>
<g id="a_node8"><a xlink:href="classCGame.html#aabb1f7e83086241852153c784791fb51" target="_top" xlink:title=" ">
<polygon fill="white" stroke="black" points="301.5,-456.5 301.5,-475.5 453.5,-475.5 453.5,-456.5 301.5,-456.5"/>
<text text-anchor="middle" x="377.5" y="-463.5" font-family="Helvetica,sans-Serif" font-size="10.00">CGame::drawCurrentMoney</text>
</a>
</g>
</g>
<!-- Node4&#45;&gt;Node8 -->
<g id="edge7" class="edge">
<title>Node4&#45;&gt;Node8</title>
<path fill="none" stroke="midnightblue" d="M199.88,-361.58C217.24,-379.78 257.61,-419.52 299,-442 307.18,-446.44 316.3,-450.19 325.34,-453.31"/>
<polygon fill="midnightblue" stroke="midnightblue" points="324.46,-456.7 335.05,-456.44 326.61,-450.04 324.46,-456.7"/>
</g>
<!-- Node9 -->
<g id="node9" class="node">
<title>Node9</title>
<g id="a_node9"><a xlink:href="classPlayer.html#a35e23c050e86892c31ff783457f8ec24" target="_top" xlink:title=" ">
<polygon fill="white" stroke="black" points="712,-456.5 712,-475.5 808,-475.5 808,-456.5 712,-456.5"/>
<text text-anchor="middle" x="760" y="-463.5" font-family="Helvetica,sans-Serif" font-size="10.00">Player::getCoins</text>
</a>
</g>
</g>
<!-- Node4&#45;&gt;Node9 -->
<g id="edge15" class="edge">
<title>Node4&#45;&gt;Node9</title>
<path fill="none" stroke="midnightblue" d="M205.28,-361.72C225.28,-374.81 263.2,-397.75 299,-409 372.83,-432.2 595.4,-452.72 701.52,-461.48"/>
<polygon fill="midnightblue" stroke="midnightblue" points="701.47,-464.99 711.72,-462.32 702.04,-458.01 701.47,-464.99"/>
</g>
<!-- Node10 -->
<g id="node10" class="node">
<title>Node10</title>
<g id="a_node10"><a xlink:href="classCGame.html#a8f17e82253ef0fb17f4d6b64bb171e1f" target="_top" xlink:title=" ">
<polygon fill="white" stroke="black" points="303,-494.5 303,-513.5 452,-513.5 452,-494.5 303,-494.5"/>
<text text-anchor="middle" x="377.5" y="-501.5" font-family="Helvetica,sans-Serif" font-size="10.00">CGame::drawErrorMessage</text>
</a>
</g>
</g>
<!-- Node4&#45;&gt;Node10 -->
<g id="edge10" class="edge">
<title>Node4&#45;&gt;Node10</title>
<path fill="none" stroke="midnightblue" d="M196.02,-361.85C209.22,-386.71 247.49,-452.37 299,-485 302.33,-487.11 305.87,-488.98 309.55,-490.65"/>
<polygon fill="midnightblue" stroke="midnightblue" points="308.3,-493.92 318.89,-494.38 310.9,-487.42 308.3,-493.92"/>
</g>
<!-- Node11 -->
<g id="node11" class="node">
<title>Node11</title>
<g id="a_node11"><a xlink:href="classPlayer.html#af8808a3a7405e9dfdcd6a3e89c5c3f23" target="_top" xlink:title=" ">
<polygon fill="white" stroke="black" points="299,-342.5 299,-361.5 456,-361.5 456,-342.5 299,-342.5"/>
<text text-anchor="middle" x="377.5" y="-349.5" font-family="Helvetica,sans-Serif" font-size="10.00">Player::emptyAttackerQueue</text>
</a>
</g>
</g>
<!-- Node4&#45;&gt;Node11 -->
<g id="edge12" class="edge">
<title>Node4&#45;&gt;Node11</title>
<path fill="none" stroke="midnightblue" d="M237.81,-352C253.24,-352 270.94,-352 288.42,-352"/>
<polygon fill="midnightblue" stroke="midnightblue" points="288.67,-355.5 298.67,-352 288.67,-348.5 288.67,-355.5"/>
</g>
<!-- Node12 -->
<g id="node12" class="node">
<title>Node12</title>
<g id="a_node12"><a xlink:href="classPlayer.html#a600133320cd307c65c50966d300c4412" target="_top" xlink:title=" ">
<polygon fill="white" stroke="black" points="312,-304.5 312,-323.5 443,-323.5 443,-304.5 312,-304.5"/>
<text text-anchor="middle" x="377.5" y="-311.5" font-family="Helvetica,sans-Serif" font-size="10.00">Player::emptyAttackers</text>
</a>
</g>
</g>
<!-- Node4&#45;&gt;Node12 -->
<g id="edge13" class="edge">
<title>Node4&#45;&gt;Node12</title>
<path fill="none" stroke="midnightblue" d="M237.81,-342.41C262.84,-337.28 293.84,-330.93 320.18,-325.54"/>
<polygon fill="midnightblue" stroke="midnightblue" points="320.93,-328.96 330.03,-323.52 319.53,-322.1 320.93,-328.96"/>
</g>
<!-- Node13 -->
<g id="node13" class="node">
<title>Node13</title>
<g id="a_node13"><a xlink:href="classPlayer.html#a569c871c07f6a047808542fc2492691d" target="_top" xlink:title=" ">
<polygon fill="white" stroke="black" points="308.5,-266.5 308.5,-285.5 446.5,-285.5 446.5,-266.5 308.5,-266.5"/>
<text text-anchor="middle" x="377.5" y="-273.5" font-family="Helvetica,sans-Serif" font-size="10.00">Player::getAttackerCount</text>
</a>
</g>
</g>
<!-- Node4&#45;&gt;Node13 -->
<g id="edge14" class="edge">
<title>Node4&#45;&gt;Node13</title>
<path fill="none" stroke="midnightblue" d="M206.18,-342.45C226.58,-329.97 264.32,-308.17 299,-295 305.68,-292.46 312.81,-290.18 319.94,-288.15"/>
<polygon fill="midnightblue" stroke="midnightblue" points="320.88,-291.52 329.62,-285.53 319.06,-284.76 320.88,-291.52"/>
</g>
<!-- Node14 -->
<g id="node14" class="node">
<title>Node14</title>
<g id="a_node14"><a xlink:href="classEnemy.html#ac7a14593067f5d799c2080fadaf33cbb" target="_top" xlink:title=" ">
<polygon fill="white" stroke="black" points="313.5,-228.5 313.5,-247.5 441.5,-247.5 441.5,-228.5 313.5,-228.5"/>
<text text-anchor="middle" x="377.5" y="-235.5" font-family="Helvetica,sans-Serif" font-size="10.00">Enemy::getTowerCount</text>
</a>
</g>
</g>
<!-- Node4&#45;&gt;Node14 -->
<g id="edge16" class="edge">
<title>Node4&#45;&gt;Node14</title>
<path fill="none" stroke="midnightblue" d="M199.12,-342.23C215.76,-322.86 255.83,-279.53 299,-257 303.49,-254.66 308.28,-252.6 313.19,-250.78"/>
<polygon fill="midnightblue" stroke="midnightblue" points="314.36,-254.08 322.73,-247.6 312.14,-247.44 314.36,-254.08"/>
</g>
<!-- Node15 -->
<g id="node15" class="node">
<title>Node15</title>
<g id="a_node15"><a xlink:href="classCGame.html#a07e1a07f124c590afd975c34ec7ab7cd" target="_top" xlink:title=" ">
<polygon fill="white" stroke="black" points="306.5,-608.5 306.5,-627.5 448.5,-627.5 448.5,-608.5 306.5,-608.5"/>
<text text-anchor="middle" x="377.5" y="-615.5" font-family="Helvetica,sans-Serif" font-size="10.00">CGame::highlightAttacker</text>
</a>
</g>
</g>
<!-- Node4&#45;&gt;Node15 -->
<g id="edge17" class="edge">
<title>Node4&#45;&gt;Node15</title>
<path fill="none" stroke="midnightblue" d="M196,-361.83C208.12,-385.84 239.79,-449.46 263,-504 280.68,-545.55 265.19,-569.08 299,-599 300.77,-600.57 302.65,-602.01 304.61,-603.34"/>
<polygon fill="midnightblue" stroke="midnightblue" points="303.28,-606.6 313.71,-608.45 306.71,-600.5 303.28,-606.6"/>
</g>
<!-- Node16 -->
<g id="node16" class="node">
<title>Node16</title>
<g id="a_node16"><a xlink:href="classPlayer.html#a2df57835c101550b9a7a573648138ca4" target="_top" xlink:title=" ">
<polygon fill="white" stroke="black" points="314,-190.5 314,-209.5 441,-209.5 441,-190.5 314,-190.5"/>
<text text-anchor="middle" x="377.5" y="-197.5" font-family="Helvetica,sans-Serif" font-size="10.00">Player::moveAttackers</text>
</a>
</g>
</g>
<!-- Node4&#45;&gt;Node16 -->
<g id="edge19" class="edge">
<title>Node4&#45;&gt;Node16</title>
<path fill="none" stroke="midnightblue" d="M196.02,-342.15C209.22,-317.29 247.49,-251.63 299,-219 302.33,-216.89 305.87,-215.02 309.55,-213.35"/>
<polygon fill="midnightblue" stroke="midnightblue" points="310.9,-216.58 318.89,-209.62 308.3,-210.08 310.9,-216.58"/>
</g>
<!-- Node17 -->
<g id="node17" class="node">
<title>Node17</title>
<g id="a_node17"><a xlink:href="classCGame.html#a6edb2bd6c59fa64f137a19b3aacb49df" target="_top" xlink:title=" ">
<polygon fill="white" stroke="black" points="320,-380.5 320,-399.5 435,-399.5 435,-380.5 320,-380.5"/>
<text text-anchor="middle" x="377.5" y="-387.5" font-family="Helvetica,sans-Serif" font-size="10.00">CGame::pauseMenu</text>
</a>
</g>
</g>
<!-- Node4&#45;&gt;Node17 -->
<g id="edge20" class="edge">
<title>Node4&#45;&gt;Node17</title>
<path fill="none" stroke="midnightblue" d="M237.81,-361.59C262.84,-366.72 293.84,-373.07 320.18,-378.46"/>
<polygon fill="midnightblue" stroke="midnightblue" points="319.53,-381.9 330.03,-380.48 320.93,-375.04 319.53,-381.9"/>
</g>
<!-- Node25 -->
<g id="node25" class="node">
<title>Node25</title>
<g id="a_node25"><a xlink:href="classCGame.html#a746d639da0897949fda403039daf4bf5" target="_top" xlink:title=" ">
<polygon fill="white" stroke="black" points="310.5,-152.5 310.5,-171.5 444.5,-171.5 444.5,-152.5 310.5,-152.5"/>
<text text-anchor="middle" x="377.5" y="-159.5" font-family="Helvetica,sans-Serif" font-size="10.00">CGame::performAttacks</text>
</a>
</g>
</g>
<!-- Node4&#45;&gt;Node25 -->
<g id="edge29" class="edge">
<title>Node4&#45;&gt;Node25</title>
<path fill="none" stroke="midnightblue" d="M194.12,-342.44C204.17,-313.22 238.59,-224.49 299,-181 301.7,-179.06 304.57,-177.31 307.56,-175.74"/>
<polygon fill="midnightblue" stroke="midnightblue" points="309.17,-178.86 316.84,-171.55 306.29,-172.48 309.17,-178.86"/>
</g>
<!-- Node31 -->
<g id="node31" class="node">
<title>Node31</title>
<g id="a_node31"><a xlink:href="classPlayer.html#af6bb254e5c2d40bce8900e48acec7317" target="_top" xlink:title=" ">
<polygon fill="white" stroke="black" points="312,-114.5 312,-133.5 443,-133.5 443,-114.5 312,-114.5"/>
<text text-anchor="middle" x="377.5" y="-121.5" font-family="Helvetica,sans-Serif" font-size="10.00">Player::setAttackerType</text>
</a>
</g>
</g>
<!-- Node4&#45;&gt;Node31 -->
<g id="edge35" class="edge">
<title>Node4&#45;&gt;Node31</title>
<path fill="none" stroke="midnightblue" d="M193.01,-342.28C200.46,-308.85 229.69,-197.59 299,-143 301.3,-141.19 303.74,-139.55 306.29,-138.07"/>
<polygon fill="midnightblue" stroke="midnightblue" points="307.92,-141.17 315.32,-133.58 304.81,-134.89 307.92,-141.17"/>
</g>
<!-- Node32 -->
<g id="node32" class="node">
<title>Node32</title>
<g id="a_node32"><a xlink:href="classPlayer.html#a1e161036e7ec8b770596180923c6acef" target="_top" xlink:title=" ">
<polygon fill="white" stroke="black" points="331.5,-76.5 331.5,-95.5 423.5,-95.5 423.5,-76.5 331.5,-76.5"/>
<text text-anchor="middle" x="377.5" y="-83.5" font-family="Helvetica,sans-Serif" font-size="10.00">Player::setLane</text>
</a>
</g>
</g>
<!-- Node4&#45;&gt;Node32 -->
<g id="edge36" class="edge">
<title>Node4&#45;&gt;Node32</title>
<path fill="none" stroke="midnightblue" d="M192.17,-342.4C197.19,-305.45 220.4,-171.14 299,-105 305.55,-99.49 313.46,-95.53 321.68,-92.69"/>
<polygon fill="midnightblue" stroke="midnightblue" points="322.8,-96.02 331.42,-89.86 320.84,-89.29 322.8,-96.02"/>
</g>
<!-- Node35 -->
<g id="node35" class="node">
<title>Node35</title>
<g id="a_node35"><a xlink:href="classPlayer.html#a6747b8f4ad701da6235e6ee6793be974" target="_top" xlink:title=" ">
<polygon fill="white" stroke="black" points="315,-19.5 315,-38.5 440,-38.5 440,-19.5 315,-19.5"/>
<text text-anchor="middle" x="377.5" y="-26.5" font-family="Helvetica,sans-Serif" font-size="10.00">Player::spawnAttacker</text>
</a>
</g>
</g>
<!-- Node4&#45;&gt;Node35 -->
<g id="edge39" class="edge">
<title>Node4&#45;&gt;Node35</title>
<path fill="none" stroke="midnightblue" d="M192.09,-342.32C196.99,-303.04 220.27,-153.47 299,-67 308.74,-56.3 322.16,-48.27 335.1,-42.41"/>
<polygon fill="midnightblue" stroke="midnightblue" points="336.5,-45.61 344.37,-38.52 333.8,-39.16 336.5,-45.61"/>
</g>
<!-- Node7 -->
<g id="node7" class="node">
<title>Node7</title>
<g id="a_node7"><a xlink:href="classMap.html#a286853d8475bc1bbede582c89e9b1491" target="_top" xlink:title=" ">
<polygon fill="white" stroke="black" points="517,-494.5 517,-513.5 626,-513.5 626,-494.5 517,-494.5"/>
<text text-anchor="middle" x="571.5" y="-501.5" font-family="Helvetica,sans-Serif" font-size="10.00">Map::getMapWidth</text>
</a>
</g>
</g>
<!-- Node6&#45;&gt;Node7 -->
<g id="edge6" class="edge">
<title>Node6&#45;&gt;Node7</title>
<path fill="none" stroke="midnightblue" d="M426.95,-532.41C452.97,-527.26 485.23,-520.88 512.57,-515.47"/>
<polygon fill="midnightblue" stroke="midnightblue" points="513.27,-518.9 522.4,-513.52 511.91,-512.03 513.27,-518.9"/>
</g>
<!-- Node8&#45;&gt;Node7 -->
<g id="edge9" class="edge">
<title>Node8&#45;&gt;Node7</title>
<path fill="none" stroke="midnightblue" d="M426.95,-475.59C452.97,-480.74 485.23,-487.12 512.57,-492.53"/>
<polygon fill="midnightblue" stroke="midnightblue" points="511.91,-495.97 522.4,-494.48 513.27,-489.1 511.91,-495.97"/>
</g>
<!-- Node8&#45;&gt;Node9 -->
<g id="edge8" class="edge">
<title>Node8&#45;&gt;Node9</title>
<path fill="none" stroke="midnightblue" d="M453.67,-466C526.55,-466 635.52,-466 701.66,-466"/>
<polygon fill="midnightblue" stroke="midnightblue" points="701.89,-469.5 711.89,-466 701.89,-462.5 701.89,-469.5"/>
</g>
<!-- Node10&#45;&gt;Node7 -->
<g id="edge11" class="edge">
<title>Node10&#45;&gt;Node7</title>
<path fill="none" stroke="midnightblue" d="M452.18,-504C470.22,-504 489.36,-504 506.88,-504"/>
<polygon fill="midnightblue" stroke="midnightblue" points="506.99,-507.5 516.99,-504 506.99,-500.5 506.99,-507.5"/>
</g>
<!-- Node15&#45;&gt;Node3 -->
<g id="edge18" class="edge">
<title>Node15&#45;&gt;Node3</title>
<path fill="none" stroke="midnightblue" d="M448.63,-624.94C462.77,-626.34 477.71,-627.82 492.11,-629.24"/>
<polygon fill="midnightblue" stroke="midnightblue" points="492.18,-632.77 502.48,-630.27 492.87,-625.8 492.18,-632.77"/>
</g>
<!-- Node18 -->
<g id="node18" class="node">
<title>Node18</title>
<g id="a_node18"><a xlink:href="classCGame.html#a260a60819a5e6a8991e7f7983c51a509" target="_top" xlink:title=" ">
<polygon fill="white" stroke="black" points="530.5,-380.5 530.5,-399.5 612.5,-399.5 612.5,-380.5 530.5,-380.5"/>
<text text-anchor="middle" x="571.5" y="-387.5" font-family="Helvetica,sans-Serif" font-size="10.00">CGame::save</text>
</a>
</g>
</g>
<!-- Node17&#45;&gt;Node18 -->
<g id="edge21" class="edge">
<title>Node17&#45;&gt;Node18</title>
<path fill="none" stroke="midnightblue" d="M435.07,-390C462.12,-390 494.22,-390 520.38,-390"/>
<polygon fill="midnightblue" stroke="midnightblue" points="520.46,-393.5 530.46,-390 520.46,-386.5 520.46,-393.5"/>
</g>
<!-- Node18&#45;&gt;Node9 -->
<g id="edge24" class="edge">
<title>Node18&#45;&gt;Node9</title>
<path fill="none" stroke="midnightblue" d="M612.65,-398.57C625.41,-402.24 639.25,-407.28 651,-414 669.84,-424.77 667.95,-436.59 687,-447 691.75,-449.6 696.87,-451.85 702.12,-453.81"/>
<polygon fill="midnightblue" stroke="midnightblue" points="701.05,-457.14 711.64,-457.01 703.28,-450.5 701.05,-457.14"/>
</g>
<!-- Node19 -->
<g id="node19" class="node">
<title>Node19</title>
<g id="a_node19"><a xlink:href="classPlayer.html#a4290b069dee4760372951ba56983a4cb" target="_top" xlink:title=" ">
<polygon fill="white" stroke="black" points="702.5,-418.5 702.5,-437.5 817.5,-437.5 817.5,-418.5 702.5,-418.5"/>
<text text-anchor="middle" x="760" y="-425.5" font-family="Helvetica,sans-Serif" font-size="10.00">Player::getAttackers</text>
</a>
</g>
</g>
<!-- Node18&#45;&gt;Node19 -->
<g id="edge22" class="edge">
<title>Node18&#45;&gt;Node19</title>
<path fill="none" stroke="midnightblue" d="M612.51,-398.15C638.65,-403.48 673.18,-410.51 702.15,-416.42"/>
<polygon fill="midnightblue" stroke="midnightblue" points="701.64,-419.89 712.14,-418.45 703.04,-413.03 701.64,-419.89"/>
</g>
<!-- Node20 -->
<g id="node20" class="node">
<title>Node20</title>
<g id="a_node20"><a xlink:href="classPlayer.html#a7705c2b518ef16626bd14f44a445bf49" target="_top" xlink:title=" ">
<polygon fill="white" stroke="black" points="687,-380.5 687,-399.5 833,-399.5 833,-380.5 687,-380.5"/>
<text text-anchor="middle" x="760" y="-387.5" font-family="Helvetica,sans-Serif" font-size="10.00">Player::getAttackersQueue</text>
</a>
</g>
</g>
<!-- Node18&#45;&gt;Node20 -->
<g id="edge23" class="edge">
<title>Node18&#45;&gt;Node20</title>
<path fill="none" stroke="midnightblue" d="M612.51,-390C631.26,-390 654.32,-390 676.56,-390"/>
<polygon fill="midnightblue" stroke="midnightblue" points="676.7,-393.5 686.7,-390 676.7,-386.5 676.7,-393.5"/>
</g>
<!-- Node21 -->
<g id="node21" class="node">
<title>Node21</title>
<g id="a_node21"><a xlink:href="classPlayer.html#a58da876811cd1848aab2809f5758d315" target="_top" xlink:title=" ">
<polygon fill="white" stroke="black" points="705,-342.5 705,-361.5 815,-361.5 815,-342.5 705,-342.5"/>
<text text-anchor="middle" x="760" y="-349.5" font-family="Helvetica,sans-Serif" font-size="10.00">Player::getFinished</text>
</a>
</g>
</g>
<!-- Node18&#45;&gt;Node21 -->
<g id="edge25" class="edge">
<title>Node18&#45;&gt;Node21</title>
<path fill="none" stroke="midnightblue" d="M612.51,-381.85C638.65,-376.52 673.18,-369.49 702.15,-363.58"/>
<polygon fill="midnightblue" stroke="midnightblue" points="703.04,-366.97 712.14,-361.55 701.64,-360.11 703.04,-366.97"/>
</g>
<!-- Node22 -->
<g id="node22" class="node">
<title>Node22</title>
<g id="a_node22"><a xlink:href="classEnemy.html#a8eca7a1be6c0e00dc6f95c60157f0e8c" target="_top" xlink:title=" ">
<polygon fill="white" stroke="black" points="707.5,-304.5 707.5,-323.5 812.5,-323.5 812.5,-304.5 707.5,-304.5"/>
<text text-anchor="middle" x="760" y="-311.5" font-family="Helvetica,sans-Serif" font-size="10.00">Enemy::getTowers</text>
</a>
</g>
</g>
<!-- Node18&#45;&gt;Node22 -->
<g id="edge26" class="edge">
<title>Node18&#45;&gt;Node22</title>
<path fill="none" stroke="midnightblue" d="M589.09,-380.39C610.94,-368.05 650.84,-346.61 687,-333 693.42,-330.58 700.28,-328.35 707.11,-326.33"/>
<polygon fill="midnightblue" stroke="midnightblue" points="708.37,-329.61 717.05,-323.53 706.47,-322.88 708.37,-329.61"/>
</g>
<!-- Node23 -->
<g id="node23" class="node">
<title>Node23</title>
<g id="a_node23"><a xlink:href="structCMenu.html#ac9ee7892120cb46cd7670bdf99eb9965" target="_top" xlink:title=" ">
<polygon fill="white" stroke="black" points="706.5,-266.5 706.5,-285.5 813.5,-285.5 813.5,-266.5 706.5,-266.5"/>
<text text-anchor="middle" x="760" y="-273.5" font-family="Helvetica,sans-Serif" font-size="10.00">CMenu::saveMenu</text>
</a>
</g>
</g>
<!-- Node18&#45;&gt;Node23 -->
<g id="edge27" class="edge">
<title>Node18&#45;&gt;Node23</title>
<path fill="none" stroke="midnightblue" d="M581.28,-380.31C599.22,-361.1 642.21,-318.05 687,-295 691.55,-292.66 696.42,-290.58 701.4,-288.75"/>
<polygon fill="midnightblue" stroke="midnightblue" points="702.67,-292.02 711.05,-285.53 700.45,-285.38 702.67,-292.02"/>
</g>
<!-- Node24 -->
<g id="node24" class="node">
<title>Node24</title>
<g id="a_node24"><a xlink:href="Menu_8cpp.html#a991c482871701a7cb19cdbceae408dcb" target="_top" xlink:title=" ">
<polygon fill="white" stroke="black" points="869,-266.5 869,-285.5 929,-285.5 929,-266.5 869,-266.5"/>
<text text-anchor="middle" x="899" y="-273.5" font-family="Helvetica,sans-Serif" font-size="10.00">cleanPos</text>
</a>
</g>
</g>
<!-- Node23&#45;&gt;Node24 -->
<g id="edge28" class="edge">
<title>Node23&#45;&gt;Node24</title>
<path fill="none" stroke="midnightblue" d="M813.58,-276C828.49,-276 844.47,-276 858.47,-276"/>
<polygon fill="midnightblue" stroke="midnightblue" points="858.74,-279.5 868.74,-276 858.74,-272.5 858.74,-279.5"/>
</g>
<!-- Node26 -->
<g id="node26" class="node">
<title>Node26</title>
<g id="a_node26"><a xlink:href="classPlayer.html#a1c67211c58095aaea38d2b04d69ea320" target="_top" xlink:title=" ">
<polygon fill="white" stroke="black" points="502,-266.5 502,-285.5 641,-285.5 641,-266.5 502,-266.5"/>
<text text-anchor="middle" x="571.5" y="-273.5" font-family="Helvetica,sans-Serif" font-size="10.00">Player::damageAttackers</text>
</a>
</g>
</g>
<!-- Node25&#45;&gt;Node26 -->
<g id="edge30" class="edge">
<title>Node25&#45;&gt;Node26</title>
<path fill="none" stroke="midnightblue" d="M440.2,-171.58C445.89,-174.06 451.28,-177.15 456,-181 484.96,-204.63 463.01,-233.41 492,-257 494.05,-258.66 496.22,-260.19 498.48,-261.58"/>
<polygon fill="midnightblue" stroke="midnightblue" points="497.13,-264.82 507.61,-266.33 500.36,-258.61 497.13,-264.82"/>
</g>
<!-- Node27 -->
<g id="node27" class="node">
<title>Node27</title>
<g id="a_node27"><a xlink:href="classEnemy.html#a390bf077438219faa02e4afddbe48926" target="_top" xlink:title=" ">
<polygon fill="white" stroke="black" points="507,-228.5 507,-247.5 636,-247.5 636,-228.5 507,-228.5"/>
<text text-anchor="middle" x="571.5" y="-235.5" font-family="Helvetica,sans-Serif" font-size="10.00">Enemy::damageTowers</text>
</a>
</g>
</g>
<!-- Node25&#45;&gt;Node27 -->
<g id="edge31" class="edge">
<title>Node25&#45;&gt;Node27</title>
<path fill="none" stroke="midnightblue" d="M434.22,-171.53C441.81,-174 449.29,-177.1 456,-181 476.11,-192.69 471.87,-207.34 492,-219 495.86,-221.23 499.97,-223.21 504.21,-224.95"/>
<polygon fill="midnightblue" stroke="midnightblue" points="503.06,-228.25 513.66,-228.4 505.47,-221.68 503.06,-228.25"/>
</g>
<!-- Node28 -->
<g id="node28" class="node">
<title>Node28</title>
<g id="a_node28"><a xlink:href="classEnemy.html#a998ef3d944cd7973580c247895b811e3" target="_top" xlink:title=" ">
<polygon fill="white" stroke="black" points="492,-190.5 492,-209.5 651,-209.5 651,-190.5 492,-190.5"/>
<text text-anchor="middle" x="571.5" y="-197.5" font-family="Helvetica,sans-Serif" font-size="10.00">Enemy::getAttackersToAttack</text>
</a>
</g>
</g>
<!-- Node25&#45;&gt;Node28 -->
<g id="edge32" class="edge">
<title>Node25&#45;&gt;Node28</title>
<path fill="none" stroke="midnightblue" d="M426.95,-171.59C452.97,-176.74 485.23,-183.12 512.57,-188.53"/>
<polygon fill="midnightblue" stroke="midnightblue" points="511.91,-191.97 522.4,-190.48 513.27,-185.1 511.91,-191.97"/>
</g>
<!-- Node29 -->
<g id="node29" class="node">
<title>Node29</title>
<g id="a_node29"><a xlink:href="classPlayer.html#a040334eb4b145681595cc67168543b5d" target="_top" xlink:title=" ">
<polygon fill="white" stroke="black" points="499,-152.5 499,-171.5 644,-171.5 644,-152.5 499,-152.5"/>
<text text-anchor="middle" x="571.5" y="-159.5" font-family="Helvetica,sans-Serif" font-size="10.00">Player::getTowersToAttack</text>
</a>
</g>
</g>
<!-- Node25&#45;&gt;Node29 -->
<g id="edge33" class="edge">
<title>Node25&#45;&gt;Node29</title>
<path fill="none" stroke="midnightblue" d="M444.58,-162C458.77,-162 473.92,-162 488.63,-162"/>
<polygon fill="midnightblue" stroke="midnightblue" points="488.72,-165.5 498.72,-162 488.72,-158.5 488.72,-165.5"/>
</g>
<!-- Node30 -->
<g id="node30" class="node">
<title>Node30</title>
<g id="a_node30"><a xlink:href="logFile_8cpp.html#a4646ee780db7319bd0615817febd557c" target="_top" xlink:title=" ">
<polygon fill="white" stroke="black" points="529,-114.5 529,-133.5 614,-133.5 614,-114.5 529,-114.5"/>
<text text-anchor="middle" x="571.5" y="-121.5" font-family="Helvetica,sans-Serif" font-size="10.00">sendToLogFile</text>
</a>
</g>
</g>
<!-- Node25&#45;&gt;Node30 -->
<g id="edge34" class="edge">
<title>Node25&#45;&gt;Node30</title>
<path fill="none" stroke="midnightblue" d="M426.95,-152.41C455.07,-146.85 490.48,-139.84 519.09,-134.17"/>
<polygon fill="midnightblue" stroke="midnightblue" points="519.78,-137.61 528.91,-132.23 518.42,-130.74 519.78,-137.61"/>
</g>
<!-- Node33 -->
<g id="node33" class="node">
<title>Node33</title>
<g id="a_node33"><a xlink:href="classMap.html#a93e47351a83408edee40bef3198ef101" target="_top" xlink:title=" ">
<polygon fill="white" stroke="black" points="518.5,-76.5 518.5,-95.5 624.5,-95.5 624.5,-76.5 518.5,-76.5"/>
<text text-anchor="middle" x="571.5" y="-83.5" font-family="Helvetica,sans-Serif" font-size="10.00">Map::getLaneByID</text>
</a>
</g>
</g>
<!-- Node32&#45;&gt;Node33 -->
<g id="edge37" class="edge">
<title>Node32&#45;&gt;Node33</title>
<path fill="none" stroke="midnightblue" d="M423.52,-86C448.68,-86 480.42,-86 507.96,-86"/>
<polygon fill="midnightblue" stroke="midnightblue" points="508.29,-89.5 518.29,-86 508.29,-82.5 508.29,-89.5"/>
</g>
<!-- Node34 -->
<g id="node34" class="node">
<title>Node34</title>
<g id="a_node34"><a xlink:href="classMap.html#a4c6de1d62db7a7aca78b01838b8d0a6a" target="_top" xlink:title=" ">
<polygon fill="white" stroke="black" points="516.5,-38.5 516.5,-57.5 626.5,-57.5 626.5,-38.5 516.5,-38.5"/>
<text text-anchor="middle" x="571.5" y="-45.5" font-family="Helvetica,sans-Serif" font-size="10.00">Map::highlightLane</text>
</a>
</g>
</g>
<!-- Node32&#45;&gt;Node34 -->
<g id="edge38" class="edge">
<title>Node32&#45;&gt;Node34</title>
<path fill="none" stroke="midnightblue" d="M423.52,-77.09C450.09,-71.83 484,-65.12 512.55,-59.47"/>
<polygon fill="midnightblue" stroke="midnightblue" points="513.28,-62.89 522.41,-57.52 511.92,-56.03 513.28,-62.89"/>
</g>
<!-- Node36 -->
<g id="node36" class="node">
<title>Node36</title>
<g id="a_node36"><a xlink:href="classMap.html#af482c6f7d02d4e79c26097b53f4ce808" target="_top" xlink:title=" ">
<polygon fill="white" stroke="black" points="530.5,-0.5 530.5,-19.5 612.5,-19.5 612.5,-0.5 530.5,-0.5"/>
<text text-anchor="middle" x="571.5" y="-7.5" font-family="Helvetica,sans-Serif" font-size="10.00">Map::getType</text>
</a>
</g>
</g>
<!-- Node35&#45;&gt;Node36 -->
<g id="edge40" class="edge">
<title>Node35&#45;&gt;Node36</title>
<path fill="none" stroke="midnightblue" d="M440.04,-22.91C465.96,-20.35 495.73,-17.4 520.29,-14.97"/>
<polygon fill="midnightblue" stroke="midnightblue" points="520.86,-18.43 530.47,-13.96 520.17,-11.46 520.86,-18.43"/>
</g>
</g>
</svg>
