<?xml version="1.0" encoding="UTF-8" standalone="no"?>
<!DOCTYPE svg PUBLIC "-//W3C//DTD SVG 1.1//EN"
 "http://www.w3.org/Graphics/SVG/1.1/DTD/svg11.dtd">
<!-- Generated by graphviz version 2.43.0 (0)
 -->
<!-- Title: CGame::drawTowers Pages: 1 -->
<svg width="603pt" height="199pt"
 viewBox="0.00 0.00 603.00 199.00" xmlns="http://www.w3.org/2000/svg" xmlns:xlink="http://www.w3.org/1999/xlink">
<g id="graph0" class="graph" transform="scale(1 1) rotate(0) translate(4 195)">
<title>CGame::drawTowers</title>
<polygon fill="white" stroke="transparent" points="-4,4 -4,-195 599,-195 599,4 -4,4"/>
<!-- Node1 -->
<g id="node1" class="node">
<title>Node1</title>
<g id="a_node1"><a xlink:title=" ">
<polygon fill="#bfbfbf" stroke="black" points="0,-76.5 0,-95.5 116,-95.5 116,-76.5 0,-76.5"/>
<text text-anchor="middle" x="58" y="-83.5" font-family="Helvetica,sans-Serif" font-size="10.00">CGame::drawTowers</text>
</a>
</g>
</g>
<!-- Node2 -->
<g id="node2" class="node">
<title>Node2</title>
<g id="a_node2"><a xlink:href="classEnemy.html#ab8dab466556eb7f9a39697c045864289" target="_top" xlink:title=" ">
<polygon fill="white" stroke="black" points="165.5,-152.5 165.5,-171.5 278.5,-171.5 278.5,-152.5 165.5,-152.5"/>
<text text-anchor="middle" x="222" y="-159.5" font-family="Helvetica,sans-Serif" font-size="10.00">Enemy::clearTowers</text>
</a>
</g>
</g>
<!-- Node1&#45;&gt;Node2 -->
<g id="edge1" class="edge">
<title>Node1&#45;&gt;Node2</title>
<path fill="none" stroke="midnightblue" d="M71.91,-95.55C89.3,-108.02 121.6,-129.81 152,-143 157.48,-145.38 163.33,-147.53 169.22,-149.46"/>
<polygon fill="midnightblue" stroke="midnightblue" points="168.53,-152.91 179.12,-152.5 170.59,-146.22 168.53,-152.91"/>
</g>
<!-- Node3 -->
<g id="node3" class="node">
<title>Node3</title>
<g id="a_node3"><a xlink:href="classEnemy.html#a238798e0d954a7ee3b6fafb592151cde" target="_top" xlink:title=" ">
<polygon fill="white" stroke="black" points="162,-114.5 162,-133.5 282,-133.5 282,-114.5 162,-114.5"/>
<text text-anchor="middle" x="222" y="-121.5" font-family="Helvetica,sans-Serif" font-size="10.00">Enemy::createTowers</text>
</a>
</g>
</g>
<!-- Node1&#45;&gt;Node3 -->
<g id="edge2" class="edge">
<title>Node1&#45;&gt;Node3</title>
<path fill="none" stroke="midnightblue" d="M99.88,-95.59C121.35,-100.63 147.86,-106.84 170.6,-112.18"/>
<polygon fill="midnightblue" stroke="midnightblue" points="169.88,-115.6 180.41,-114.48 171.48,-108.79 169.88,-115.6"/>
</g>
<!-- Node10 -->
<g id="node10" class="node">
<title>Node10</title>
<g id="a_node10"><a xlink:href="classEnemy.html#ac81638432442d1e4cc2aa0c4ca49f439" target="_top" xlink:title=" ">
<polygon fill="white" stroke="black" points="152,-76.5 152,-95.5 292,-95.5 292,-76.5 152,-76.5"/>
<text text-anchor="middle" x="222" y="-83.5" font-family="Helvetica,sans-Serif" font-size="10.00">Enemy::findEmptySpaces</text>
</a>
</g>
</g>
<!-- Node1&#45;&gt;Node10 -->
<g id="edge9" class="edge">
<title>Node1&#45;&gt;Node10</title>
<path fill="none" stroke="midnightblue" d="M116.12,-86C124.43,-86 133.11,-86 141.77,-86"/>
<polygon fill="midnightblue" stroke="midnightblue" points="141.9,-89.5 151.9,-86 141.9,-82.5 141.9,-89.5"/>
</g>
<!-- Node12 -->
<g id="node12" class="node">
<title>Node12</title>
<g id="a_node12"><a xlink:href="classEnemy.html#ac7a14593067f5d799c2080fadaf33cbb" target="_top" xlink:title=" ">
<polygon fill="white" stroke="black" points="158,-38.5 158,-57.5 286,-57.5 286,-38.5 158,-38.5"/>
<text text-anchor="middle" x="222" y="-45.5" font-family="Helvetica,sans-Serif" font-size="10.00">Enemy::getTowerCount</text>
</a>
</g>
</g>
<!-- Node1&#45;&gt;Node12 -->
<g id="edge11" class="edge">
<title>Node1&#45;&gt;Node12</title>
<path fill="none" stroke="midnightblue" d="M99.88,-76.41C121.35,-71.37 147.86,-65.16 170.6,-59.82"/>
<polygon fill="midnightblue" stroke="midnightblue" points="171.48,-63.21 180.41,-57.52 169.88,-56.4 171.48,-63.21"/>
</g>
<!-- Node13 -->
<g id="node13" class="node">
<title>Node13</title>
<g id="a_node13"><a xlink:href="classEnemy.html#a95c457b3e58d8c931e06877c6bde6d11" target="_top" xlink:title=" ">
<polygon fill="white" stroke="black" points="166,-0.5 166,-19.5 278,-19.5 278,-0.5 166,-0.5"/>
<text text-anchor="middle" x="222" y="-7.5" font-family="Helvetica,sans-Serif" font-size="10.00">Enemy::printTowers</text>
</a>
</g>
</g>
<!-- Node1&#45;&gt;Node13 -->
<g id="edge12" class="edge">
<title>Node1&#45;&gt;Node13</title>
<path fill="none" stroke="midnightblue" d="M71.91,-76.45C89.3,-63.98 121.6,-42.19 152,-29 157.48,-26.62 163.33,-24.47 169.22,-22.54"/>
<polygon fill="midnightblue" stroke="midnightblue" points="170.59,-25.78 179.12,-19.5 168.53,-19.09 170.59,-25.78"/>
</g>
<!-- Node4 -->
<g id="node4" class="node">
<title>Node4</title>
<g id="a_node4"><a xlink:href="classMap.html#a4b669f3ae1f41ad70ae8c28910bfa4e8" target="_top" xlink:title=" ">
<polygon fill="white" stroke="black" points="328,-152.5 328,-171.5 456,-171.5 456,-152.5 328,-152.5"/>
<text text-anchor="middle" x="392" y="-159.5" font-family="Helvetica,sans-Serif" font-size="10.00">Map::checkNeighbours</text>
</a>
</g>
</g>
<!-- Node3&#45;&gt;Node4 -->
<g id="edge3" class="edge">
<title>Node3&#45;&gt;Node4</title>
<path fill="none" stroke="midnightblue" d="M265.39,-133.59C287.76,-138.65 315.4,-144.9 339.05,-150.25"/>
<polygon fill="midnightblue" stroke="midnightblue" points="338.39,-153.69 348.91,-152.48 339.93,-146.86 338.39,-153.69"/>
</g>
<!-- Node5 -->
<g id="node5" class="node">
<title>Node5</title>
<g id="a_node5"><a xlink:href="classMap.html#adb8bd1312b25de59794e421009b6fa3e" target="_top" xlink:title=" ">
<polygon fill="white" stroke="black" points="348.5,-114.5 348.5,-133.5 435.5,-133.5 435.5,-114.5 348.5,-114.5"/>
<text text-anchor="middle" x="392" y="-121.5" font-family="Helvetica,sans-Serif" font-size="10.00">Map::setEntity</text>
</a>
</g>
</g>
<!-- Node3&#45;&gt;Node5 -->
<g id="edge4" class="edge">
<title>Node3&#45;&gt;Node5</title>
<path fill="none" stroke="midnightblue" d="M282.23,-124C300.47,-124 320.43,-124 338.21,-124"/>
<polygon fill="midnightblue" stroke="midnightblue" points="338.39,-127.5 348.39,-124 338.39,-120.5 338.39,-127.5"/>
</g>
<!-- Node6 -->
<g id="node6" class="node">
<title>Node6</title>
<g id="a_node6"><a xlink:href="classEntity.html#ae18a1a6367fa577ecc7e5889679b285c" target="_top" xlink:title=" ">
<polygon fill="white" stroke="black" points="505,-171.5 505,-190.5 582,-190.5 582,-171.5 505,-171.5"/>
<text text-anchor="middle" x="543.5" y="-178.5" font-family="Helvetica,sans-Serif" font-size="10.00">Entity::getID</text>
</a>
</g>
</g>
<!-- Node5&#45;&gt;Node6 -->
<g id="edge5" class="edge">
<title>Node5&#45;&gt;Node6</title>
<path fill="none" stroke="midnightblue" d="M429.07,-133.57C437.99,-136.3 447.44,-139.49 456,-143 472.74,-149.87 475.5,-154.58 492,-162 496.41,-163.99 501.1,-165.94 505.77,-167.8"/>
<polygon fill="midnightblue" stroke="midnightblue" points="504.66,-171.13 515.25,-171.46 507.18,-164.6 504.66,-171.13"/>
</g>
<!-- Node7 -->
<g id="node7" class="node">
<title>Node7</title>
<g id="a_node7"><a xlink:href="classEntity.html#aa9b4d32a894d4117dddcdff3c46842ae" target="_top" xlink:title=" ">
<polygon fill="white" stroke="black" points="492,-133.5 492,-152.5 595,-152.5 595,-133.5 492,-133.5"/>
<text text-anchor="middle" x="543.5" y="-140.5" font-family="Helvetica,sans-Serif" font-size="10.00">Entity::getSymbol</text>
</a>
</g>
</g>
<!-- Node5&#45;&gt;Node7 -->
<g id="edge6" class="edge">
<title>Node5&#45;&gt;Node7</title>
<path fill="none" stroke="midnightblue" d="M435.84,-129.44C450.21,-131.27 466.51,-133.34 481.97,-135.31"/>
<polygon fill="midnightblue" stroke="midnightblue" points="481.62,-138.79 491.98,-136.58 482.51,-131.85 481.62,-138.79"/>
</g>
<!-- Node8 -->
<g id="node8" class="node">
<title>Node8</title>
<g id="a_node8"><a xlink:href="classEntity.html#aaaef5a4ba021755cd32ae39ecbbb38cd" target="_top" xlink:title=" ">
<polygon fill="white" stroke="black" points="499,-95.5 499,-114.5 588,-114.5 588,-95.5 499,-95.5"/>
<text text-anchor="middle" x="543.5" y="-102.5" font-family="Helvetica,sans-Serif" font-size="10.00">Entity::getType</text>
</a>
</g>
</g>
<!-- Node5&#45;&gt;Node8 -->
<g id="edge7" class="edge">
<title>Node5&#45;&gt;Node8</title>
<path fill="none" stroke="midnightblue" d="M435.84,-118.56C452.36,-116.46 471.43,-114.03 488.85,-111.82"/>
<polygon fill="midnightblue" stroke="midnightblue" points="489.4,-115.28 498.87,-110.54 488.51,-108.33 489.4,-115.28"/>
</g>
<!-- Node9 -->
<g id="node9" class="node">
<title>Node9</title>
<g id="a_node9"><a xlink:href="classEntity.html#a6171cc57bf9ab1a0d0fe18b7a8acc4ea" target="_top" xlink:title=" ">
<polygon fill="white" stroke="black" points="504.5,-57.5 504.5,-76.5 582.5,-76.5 582.5,-57.5 504.5,-57.5"/>
<text text-anchor="middle" x="543.5" y="-64.5" font-family="Helvetica,sans-Serif" font-size="10.00">Entity::move</text>
</a>
</g>
</g>
<!-- Node5&#45;&gt;Node9 -->
<g id="edge8" class="edge">
<title>Node5&#45;&gt;Node9</title>
<path fill="none" stroke="midnightblue" d="M429.07,-114.43C437.99,-111.7 447.44,-108.51 456,-105 472.74,-98.13 475.5,-93.42 492,-86 496.41,-84.01 501.1,-82.06 505.77,-80.2"/>
<polygon fill="midnightblue" stroke="midnightblue" points="507.18,-83.4 515.25,-76.54 504.66,-76.87 507.18,-83.4"/>
</g>
<!-- Node11 -->
<g id="node11" class="node">
<title>Node11</title>
<g id="a_node11"><a xlink:href="classMap.html#ae4713f8271b2c9fd62184ab0f2342447" target="_top" xlink:title=" ">
<polygon fill="white" stroke="black" points="329.5,-76.5 329.5,-95.5 454.5,-95.5 454.5,-76.5 329.5,-76.5"/>
<text text-anchor="middle" x="392" y="-83.5" font-family="Helvetica,sans-Serif" font-size="10.00">Map::getEmptySpaces</text>
</a>
</g>
</g>
<!-- Node10&#45;&gt;Node11 -->
<g id="edge10" class="edge">
<title>Node10&#45;&gt;Node11</title>
<path fill="none" stroke="midnightblue" d="M292.3,-86C301.23,-86 310.39,-86 319.36,-86"/>
<polygon fill="midnightblue" stroke="midnightblue" points="319.38,-89.5 329.38,-86 319.38,-82.5 319.38,-89.5"/>
</g>
</g>
</svg>
