<?xml version="1.0" encoding="UTF-8" standalone="no"?>
<!DOCTYPE svg PUBLIC "-//W3C//DTD SVG 1.1//EN"
 "http://www.w3.org/Graphics/SVG/1.1/DTD/svg11.dtd">
<!-- Generated by graphviz version 2.43.0 (0)
 -->
<!-- Title: Entity Pages: 1 -->
<svg width="312pt" height="84pt"
 viewBox="0.00 0.00 312.00 84.00" xmlns="http://www.w3.org/2000/svg" xmlns:xlink="http://www.w3.org/1999/xlink">
<g id="graph0" class="graph" transform="scale(1 1) rotate(0) translate(4 80)">
<title>Entity</title>
<polygon fill="white" stroke="transparent" points="-4,4 -4,-80 308,-80 308,4 -4,4"/>
<!-- Node1 -->
<g id="node1" class="node">
<title>Node1</title>
<g id="a_node1"><a xlink:title=" ">
<polygon fill="#bfbfbf" stroke="black" points="140,-56.5 140,-75.5 185,-75.5 185,-56.5 140,-56.5"/>
<text text-anchor="middle" x="162.5" y="-63.5" font-family="Helvetica,sans-Serif" font-size="10.00">Entity</text>
</a>
</g>
</g>
<!-- Node2 -->
<g id="node2" class="node">
<title>Node2</title>
<g id="a_node2"><a xlink:href="classAttacker.html" target="_top" xlink:title=" ">
<polygon fill="white" stroke="black" points="0,-0.5 0,-19.5 57,-19.5 57,-0.5 0,-0.5"/>
<text text-anchor="middle" x="28.5" y="-7.5" font-family="Helvetica,sans-Serif" font-size="10.00">Attacker</text>
</a>
</g>
</g>
<!-- Node1&#45;&gt;Node2 -->
<g id="edge1" class="edge">
<title>Node1&#45;&gt;Node2</title>
<path fill="none" stroke="midnightblue" d="M131.82,-52.64C106.68,-42.5 71.75,-28.43 49.63,-19.52"/>
<polygon fill="midnightblue" stroke="midnightblue" points="130.68,-55.95 141.27,-56.44 133.3,-49.46 130.68,-55.95"/>
</g>
<!-- Node3 -->
<g id="node3" class="node">
<title>Node3</title>
<g id="a_node3"><a xlink:href="classbasicAttacker.html" target="_top" xlink:title=" ">
<polygon fill="white" stroke="black" points="75,-0.5 75,-19.5 158,-19.5 158,-0.5 75,-0.5"/>
<text text-anchor="middle" x="116.5" y="-7.5" font-family="Helvetica,sans-Serif" font-size="10.00">basicAttacker</text>
</a>
</g>
</g>
<!-- Node1&#45;&gt;Node3 -->
<g id="edge2" class="edge">
<title>Node1&#45;&gt;Node3</title>
<path fill="none" stroke="midnightblue" d="M148.39,-48.43C140.32,-38.97 130.54,-27.48 123.95,-19.75"/>
<polygon fill="midnightblue" stroke="midnightblue" points="145.75,-50.74 154.9,-56.08 151.08,-46.2 145.75,-50.74"/>
</g>
<!-- Node4 -->
<g id="node4" class="node">
<title>Node4</title>
<g id="a_node4"><a xlink:href="classfastTower.html" target="_top" xlink:title=" ">
<polygon fill="white" stroke="black" points="176.5,-0.5 176.5,-19.5 240.5,-19.5 240.5,-0.5 176.5,-0.5"/>
<text text-anchor="middle" x="208.5" y="-7.5" font-family="Helvetica,sans-Serif" font-size="10.00">fastTower</text>
</a>
</g>
</g>
<!-- Node1&#45;&gt;Node4 -->
<g id="edge3" class="edge">
<title>Node1&#45;&gt;Node4</title>
<path fill="none" stroke="midnightblue" d="M176.61,-48.43C184.68,-38.97 194.46,-27.48 201.05,-19.75"/>
<polygon fill="midnightblue" stroke="midnightblue" points="173.92,-46.2 170.1,-56.08 179.25,-50.74 173.92,-46.2"/>
</g>
<!-- Node5 -->
<g id="node5" class="node">
<title>Node5</title>
<g id="a_node5"><a xlink:href="classTower.html" target="_top" xlink:title=" ">
<polygon fill="white" stroke="black" points="259,-0.5 259,-19.5 304,-19.5 304,-0.5 259,-0.5"/>
<text text-anchor="middle" x="281.5" y="-7.5" font-family="Helvetica,sans-Serif" font-size="10.00">Tower</text>
</a>
</g>
</g>
<!-- Node1&#45;&gt;Node5 -->
<g id="edge4" class="edge">
<title>Node1&#45;&gt;Node5</title>
<path fill="none" stroke="midnightblue" d="M190.64,-52.23C212.9,-42.13 243.36,-28.31 262.73,-19.52"/>
<polygon fill="midnightblue" stroke="midnightblue" points="189.02,-49.12 181.36,-56.44 191.91,-55.5 189.02,-49.12"/>
</g>
</g>
</svg>
