<?xml version="1.0" encoding="UTF-8" standalone="no"?>
<!DOCTYPE svg PUBLIC "-//W3C//DTD SVG 1.1//EN"
 "http://www.w3.org/Graphics/SVG/1.1/DTD/svg11.dtd">
<!-- Generated by graphviz version 2.43.0 (0)
 -->
<!-- Title: CGame::initializeWindow Pages: 1 -->
<svg width="630pt" height="85pt"
 viewBox="0.00 0.00 630.00 85.00" xmlns="http://www.w3.org/2000/svg" xmlns:xlink="http://www.w3.org/1999/xlink">
<g id="graph0" class="graph" transform="scale(1 1) rotate(0) translate(4 81)">
<title>CGame::initializeWindow</title>
<polygon fill="white" stroke="transparent" points="-4,4 -4,-81 626,-81 626,4 -4,4"/>
<!-- Node1 -->
<g id="node1" class="node">
<title>Node1</title>
<g id="a_node1"><a xlink:title=" ">
<polygon fill="#bfbfbf" stroke="black" points="482,-19.5 482,-38.5 622,-38.5 622,-19.5 482,-19.5"/>
<text text-anchor="middle" x="552" y="-26.5" font-family="Helvetica,sans-Serif" font-size="10.00">CGame::initializeWindow</text>
</a>
</g>
</g>
<!-- Node2 -->
<g id="node2" class="node">
<title>Node2</title>
<g id="a_node2"><a xlink:href="classCGame.html#aaae1d58e5125f6ab128afe0ec688a00a" target="_top" xlink:title=" ">
<polygon fill="white" stroke="black" points="372,-38.5 372,-57.5 446,-57.5 446,-38.5 372,-38.5"/>
<text text-anchor="middle" x="409" y="-45.5" font-family="Helvetica,sans-Serif" font-size="10.00">CGame::init</text>
</a>
</g>
</g>
<!-- Node1&#45;&gt;Node2 -->
<g id="edge1" class="edge">
<title>Node1&#45;&gt;Node2</title>
<path fill="none" stroke="midnightblue" d="M471.7,-39.69C462.86,-40.88 454.2,-42.04 446.3,-43.11"/>
<polygon fill="midnightblue" stroke="midnightblue" points="472.3,-43.14 481.74,-38.33 471.36,-36.2 472.3,-43.14"/>
</g>
<!-- Node6 -->
<g id="node6" class="node">
<title>Node6</title>
<g id="a_node6"><a xlink:href="classCGame.html#a5dc70520b14c22acbd728f6599bb150a" target="_top" xlink:title=" ">
<polygon fill="white" stroke="black" points="221,-0.5 221,-19.5 336,-19.5 336,-0.5 221,-0.5"/>
<text text-anchor="middle" x="278.5" y="-7.5" font-family="Helvetica,sans-Serif" font-size="10.00">CGame::testRoutine</text>
</a>
</g>
</g>
<!-- Node1&#45;&gt;Node6 -->
<g id="edge7" class="edge">
<title>Node1&#45;&gt;Node6</title>
<path fill="none" stroke="midnightblue" d="M471.54,-23.44C428.16,-20.4 375.45,-16.71 336.24,-13.97"/>
<polygon fill="midnightblue" stroke="midnightblue" points="471.57,-26.95 481.79,-24.16 472.06,-19.97 471.57,-26.95"/>
</g>
<!-- Node3 -->
<g id="node3" class="node">
<title>Node3</title>
<g id="a_node3"><a xlink:href="classCGame.html#aa7c80b7185158a0bde186d83f0e8cbb4" target="_top" xlink:title=" ">
<polygon fill="white" stroke="black" points="238.5,-38.5 238.5,-57.5 318.5,-57.5 318.5,-38.5 238.5,-38.5"/>
<text text-anchor="middle" x="278.5" y="-45.5" font-family="Helvetica,sans-Serif" font-size="10.00">CGame::play</text>
</a>
</g>
</g>
<!-- Node2&#45;&gt;Node3 -->
<g id="edge2" class="edge">
<title>Node2&#45;&gt;Node3</title>
<path fill="none" stroke="midnightblue" d="M361.81,-48C347.62,-48 332.16,-48 318.51,-48"/>
<polygon fill="midnightblue" stroke="midnightblue" points="361.86,-51.5 371.86,-48 361.86,-44.5 361.86,-51.5"/>
</g>
<!-- Node2&#45;&gt;Node6 -->
<g id="edge6" class="edge">
<title>Node2&#45;&gt;Node6</title>
<path fill="none" stroke="midnightblue" d="M365.61,-35.46C348.13,-30.3 328.2,-24.4 311.92,-19.59"/>
<polygon fill="midnightblue" stroke="midnightblue" points="364.99,-38.93 375.57,-38.41 366.98,-32.22 364.99,-38.93"/>
</g>
<!-- Node4 -->
<g id="node4" class="node">
<title>Node4</title>
<g id="a_node4"><a xlink:href="main_8cpp.html#a3c04138a5bfe5d72780bb7e82a18e627" target="_top" xlink:title=" ">
<polygon fill="white" stroke="black" points="144,-57.5 144,-76.5 185,-76.5 185,-57.5 144,-57.5"/>
<text text-anchor="middle" x="164.5" y="-64.5" font-family="Helvetica,sans-Serif" font-size="10.00">main</text>
</a>
</g>
</g>
<!-- Node3&#45;&gt;Node4 -->
<g id="edge3" class="edge">
<title>Node3&#45;&gt;Node4</title>
<path fill="none" stroke="midnightblue" d="M228.04,-56.39C212.95,-58.95 197.22,-61.62 185.31,-63.64"/>
<polygon fill="midnightblue" stroke="midnightblue" points="229.05,-59.77 238.33,-54.65 227.88,-52.87 229.05,-59.77"/>
</g>
<!-- Node5 -->
<g id="node5" class="node">
<title>Node5</title>
<g id="a_node5"><a xlink:href="structCMenu.html#a07236cc397b0e4e55ec4f916c3893fbd" target="_top" xlink:title=" ">
<polygon fill="white" stroke="black" points="0,-38.5 0,-57.5 108,-57.5 108,-38.5 0,-38.5"/>
<text text-anchor="middle" x="54" y="-45.5" font-family="Helvetica,sans-Serif" font-size="10.00">CMenu::mainMenu</text>
</a>
</g>
</g>
<!-- Node4&#45;&gt;Node5 -->
<g id="edge4" class="edge">
<title>Node4&#45;&gt;Node5</title>
<path fill="none" stroke="midnightblue" d="M133.76,-61.79C125.89,-60.41 117.17,-58.89 108.46,-57.36"/>
<polygon fill="midnightblue" stroke="midnightblue" points="133.4,-65.28 143.85,-63.56 134.61,-58.39 133.4,-65.28"/>
</g>
<!-- Node5&#45;&gt;Node3 -->
<g id="edge5" class="edge">
<title>Node5&#45;&gt;Node3</title>
<path fill="none" stroke="midnightblue" d="M118.32,-48C157.03,-48 205.31,-48 238.49,-48"/>
<polygon fill="midnightblue" stroke="midnightblue" points="118.19,-44.5 108.19,-48 118.19,-51.5 118.19,-44.5"/>
</g>
</g>
</svg>
