<?xml version="1.0" encoding="UTF-8" standalone="no"?>
<!DOCTYPE svg PUBLIC "-//W3C//DTD SVG 1.1//EN"
 "http://www.w3.org/Graphics/SVG/1.1/DTD/svg11.dtd">
<!-- Generated by graphviz version 2.43.0 (0)
 -->
<!-- Title: src/constants.h Pages: 1 -->
<svg width="714pt" height="420pt"
 viewBox="0.00 0.00 713.59 420.00" xmlns="http://www.w3.org/2000/svg" xmlns:xlink="http://www.w3.org/1999/xlink">
<g id="graph0" class="graph" transform="scale(1 1) rotate(0) translate(4 416)">
<title>src/constants.h</title>
<polygon fill="white" stroke="transparent" points="-4,4 -4,-416 709.59,-416 709.59,4 -4,4"/>
<!-- Node1 -->
<g id="node1" class="node">
<title>Node1</title>
<g id="a_node1"><a xlink:title=" ">
<polygon fill="#bfbfbf" stroke="black" points="589,-392.5 589,-411.5 679,-411.5 679,-392.5 589,-392.5"/>
<text text-anchor="middle" x="634" y="-399.5" font-family="Helvetica,sans-Serif" font-size="10.00">src/constants.h</text>
</a>
</g>
</g>
<!-- Node2 -->
<g id="node2" class="node">
<title>Node2</title>
<g id="a_node2"><a xlink:href="Entity_8h.html" target="_top" xlink:title=" ">
<polygon fill="white" stroke="black" points="419,-336.5 419,-355.5 489,-355.5 489,-336.5 419,-336.5"/>
<text text-anchor="middle" x="454" y="-343.5" font-family="Helvetica,sans-Serif" font-size="10.00">src/Entity.h</text>
</a>
</g>
</g>
<!-- Node1&#45;&gt;Node2 -->
<g id="edge1" class="edge">
<title>Node1&#45;&gt;Node2</title>
<path fill="none" stroke="midnightblue" d="M595.89,-389.57C561.94,-379.38 513.01,-364.7 482.39,-355.52"/>
<polygon fill="midnightblue" stroke="midnightblue" points="594.89,-392.92 605.48,-392.44 596.91,-386.22 594.89,-392.92"/>
</g>
<!-- Node3 -->
<g id="node3" class="node">
<title>Node3</title>
<g id="a_node3"><a xlink:href="Attacker_8h.html" target="_top" xlink:title=" ">
<polygon fill="white" stroke="black" points="193.5,-224.5 193.5,-243.5 276.5,-243.5 276.5,-224.5 193.5,-224.5"/>
<text text-anchor="middle" x="235" y="-231.5" font-family="Helvetica,sans-Serif" font-size="10.00">src/Attacker.h</text>
</a>
</g>
</g>
<!-- Node1&#45;&gt;Node3 -->
<g id="edge33" class="edge">
<title>Node1&#45;&gt;Node3</title>
<path fill="none" stroke="midnightblue" d="M578.71,-395.56C532.38,-389.67 465.14,-378.02 410,-356 366.6,-338.67 359.45,-326.56 321,-300 293.13,-280.75 261.68,-256.23 245.64,-243.51"/>
<polygon fill="midnightblue" stroke="midnightblue" points="578.5,-399.06 588.85,-396.79 579.35,-392.11 578.5,-399.06"/>
</g>
<!-- Node4 -->
<g id="node4" class="node">
<title>Node4</title>
<g id="a_node4"><a xlink:href="Attacker_8cpp.html" target="_top" xlink:title=" ">
<polygon fill="white" stroke="black" points="523,-168.5 523,-187.5 617,-187.5 617,-168.5 523,-168.5"/>
<text text-anchor="middle" x="570" y="-175.5" font-family="Helvetica,sans-Serif" font-size="10.00">src/Attacker.cpp</text>
</a>
</g>
</g>
<!-- Node1&#45;&gt;Node4 -->
<g id="edge34" class="edge">
<title>Node1&#45;&gt;Node4</title>
<path fill="none" stroke="midnightblue" d="M649.29,-384.86C669.4,-361.57 700.37,-317.25 684,-280 664.32,-235.22 613.55,-202.41 586.9,-187.66"/>
<polygon fill="midnightblue" stroke="midnightblue" points="646.56,-382.66 642.48,-392.44 651.77,-387.34 646.56,-382.66"/>
</g>
<!-- Node7 -->
<g id="node7" class="node">
<title>Node7</title>
<g id="a_node7"><a xlink:href="Enemy_8cpp.html" target="_top" xlink:title=" ">
<polygon fill="white" stroke="black" points="414,-56.5 414,-75.5 500,-75.5 500,-56.5 414,-56.5"/>
<text text-anchor="middle" x="457" y="-63.5" font-family="Helvetica,sans-Serif" font-size="10.00">src/Enemy.cpp</text>
</a>
</g>
</g>
<!-- Node1&#45;&gt;Node7 -->
<g id="edge35" class="edge">
<title>Node1&#45;&gt;Node7</title>
<path fill="none" stroke="midnightblue" d="M658.1,-386.83C669.18,-379.09 681.5,-368.53 689,-356 706.53,-326.72 709.62,-312.75 700,-280 683.19,-222.76 669.38,-208.96 626,-168 579.65,-124.24 511.14,-90.63 477.36,-75.61"/>
<polygon fill="midnightblue" stroke="midnightblue" points="656.03,-384 649.59,-392.41 659.87,-389.85 656.03,-384"/>
</g>
<!-- Node16 -->
<g id="node16" class="node">
<title>Node16</title>
<g id="a_node16"><a xlink:href="Entity_8cpp.html" target="_top" xlink:title=" ">
<polygon fill="white" stroke="black" points="593.5,-280.5 593.5,-299.5 674.5,-299.5 674.5,-280.5 593.5,-280.5"/>
<text text-anchor="middle" x="634" y="-287.5" font-family="Helvetica,sans-Serif" font-size="10.00">src/Entity.cpp</text>
</a>
</g>
</g>
<!-- Node1&#45;&gt;Node16 -->
<g id="edge36" class="edge">
<title>Node1&#45;&gt;Node16</title>
<path fill="none" stroke="midnightblue" d="M634,-382.35C634,-358.25 634,-317.31 634,-299.59"/>
<polygon fill="midnightblue" stroke="midnightblue" points="630.5,-382.37 634,-392.37 637.5,-382.37 630.5,-382.37"/>
</g>
<!-- Node2&#45;&gt;Node3 -->
<g id="edge2" class="edge">
<title>Node2&#45;&gt;Node3</title>
<path fill="none" stroke="midnightblue" d="M427.88,-331.88C382.48,-309.08 290.25,-262.75 252.1,-243.59"/>
<polygon fill="midnightblue" stroke="midnightblue" points="426.31,-335.01 436.82,-336.37 429.45,-328.75 426.31,-335.01"/>
</g>
<!-- Node2&#45;&gt;Node4 -->
<g id="edge27" class="edge">
<title>Node2&#45;&gt;Node4</title>
<path fill="none" stroke="midnightblue" d="M474.94,-330.73C494.51,-317.45 524.6,-297.18 551,-280 576.11,-263.66 593.54,-270.24 608,-244 619.23,-223.62 596.47,-200.16 581.56,-187.75"/>
<polygon fill="midnightblue" stroke="midnightblue" points="472.79,-327.96 466.48,-336.48 476.72,-333.75 472.79,-327.96"/>
</g>
<!-- Node5 -->
<g id="node5" class="node">
<title>Node5</title>
<g id="a_node5"><a xlink:href="Player_8h.html" target="_top" xlink:title=" ">
<polygon fill="white" stroke="black" points="189.5,-168.5 189.5,-187.5 262.5,-187.5 262.5,-168.5 189.5,-168.5"/>
<text text-anchor="middle" x="226" y="-175.5" font-family="Helvetica,sans-Serif" font-size="10.00">src/Player.h</text>
</a>
</g>
</g>
<!-- Node2&#45;&gt;Node5 -->
<g id="edge28" class="edge">
<title>Node2&#45;&gt;Node5</title>
<path fill="none" stroke="midnightblue" d="M408.5,-343.23C345.5,-338.02 233.82,-318.19 184,-244 170.59,-224.03 196.47,-200.21 213.25,-187.69"/>
<polygon fill="midnightblue" stroke="midnightblue" points="408.32,-346.73 418.55,-343.97 408.84,-339.75 408.32,-346.73"/>
</g>
<!-- Node10 -->
<g id="node10" class="node">
<title>Node10</title>
<g id="a_node10"><a xlink:href="main_8cpp.html" target="_top" xlink:title=" ">
<polygon fill="white" stroke="black" points="431.5,-0.5 431.5,-19.5 510.5,-19.5 510.5,-0.5 431.5,-0.5"/>
<text text-anchor="middle" x="471" y="-7.5" font-family="Helvetica,sans-Serif" font-size="10.00">src/main.cpp</text>
</a>
</g>
</g>
<!-- Node2&#45;&gt;Node10 -->
<g id="edge31" class="edge">
<title>Node2&#45;&gt;Node10</title>
<path fill="none" stroke="midnightblue" d="M484.88,-332.55C504.14,-324.3 529.15,-312.68 550,-300 567.47,-289.38 613.47,-262.09 623,-244 634.62,-221.95 625.33,-212.92 626,-188 626.24,-179.11 629.23,-176.28 626,-168 601.43,-104.99 571.54,-103.09 523,-56 509.29,-42.7 492.41,-28.45 481.67,-19.63"/>
<polygon fill="midnightblue" stroke="midnightblue" points="483.51,-329.33 475.65,-336.44 486.23,-335.78 483.51,-329.33"/>
</g>
<!-- Node12 -->
<g id="node12" class="node">
<title>Node12</title>
<g id="a_node12"><a xlink:href="Tower_8h.html" target="_top" xlink:title=" ">
<polygon fill="white" stroke="black" points="10.5,-168.5 10.5,-187.5 81.5,-187.5 81.5,-168.5 10.5,-168.5"/>
<text text-anchor="middle" x="46" y="-175.5" font-family="Helvetica,sans-Serif" font-size="10.00">src/Tower.h</text>
</a>
</g>
</g>
<!-- Node2&#45;&gt;Node12 -->
<g id="edge29" class="edge">
<title>Node2&#45;&gt;Node12</title>
<path fill="none" stroke="midnightblue" d="M408.43,-342.04C359.65,-337.58 280.79,-326.6 218,-300 148.75,-270.66 79.57,-210.19 55.2,-187.69"/>
<polygon fill="midnightblue" stroke="midnightblue" points="408.4,-345.55 418.66,-342.92 409,-338.58 408.4,-345.55"/>
</g>
<!-- Node14 -->
<g id="node14" class="node">
<title>Node14</title>
<g id="a_node14"><a xlink:href="Map_8h.html" target="_top" xlink:title=" ">
<polygon fill="white" stroke="black" points="390,-280.5 390,-299.5 454,-299.5 454,-280.5 390,-280.5"/>
<text text-anchor="middle" x="422" y="-287.5" font-family="Helvetica,sans-Serif" font-size="10.00">src/Map.h</text>
</a>
</g>
</g>
<!-- Node2&#45;&gt;Node14 -->
<g id="edge17" class="edge">
<title>Node2&#45;&gt;Node14</title>
<path fill="none" stroke="midnightblue" d="M437.51,-327.86C431.14,-318.5 424.92,-307.33 422.05,-299.75"/>
<polygon fill="midnightblue" stroke="midnightblue" points="434.81,-330.09 443.55,-336.08 440.45,-325.95 434.81,-330.09"/>
</g>
<!-- Node15 -->
<g id="node15" class="node">
<title>Node15</title>
<g id="a_node15"><a xlink:href="Map_8cpp.html" target="_top" xlink:title=" ">
<polygon fill="white" stroke="black" points="523.5,-224.5 523.5,-243.5 598.5,-243.5 598.5,-224.5 523.5,-224.5"/>
<text text-anchor="middle" x="561" y="-231.5" font-family="Helvetica,sans-Serif" font-size="10.00">src/Map.cpp</text>
</a>
</g>
</g>
<!-- Node2&#45;&gt;Node15 -->
<g id="edge32" class="edge">
<title>Node2&#45;&gt;Node15</title>
<path fill="none" stroke="midnightblue" d="M468.28,-328.55C480.01,-315.2 497.22,-296.04 513,-280 525.82,-266.97 541.36,-252.65 551.22,-243.74"/>
<polygon fill="midnightblue" stroke="midnightblue" points="465.37,-326.55 461.43,-336.39 470.64,-331.16 465.37,-326.55"/>
</g>
<!-- Node2&#45;&gt;Node16 -->
<g id="edge30" class="edge">
<title>Node2&#45;&gt;Node16</title>
<path fill="none" stroke="midnightblue" d="M492.11,-333.57C526.06,-323.38 574.99,-308.7 605.61,-299.52"/>
<polygon fill="midnightblue" stroke="midnightblue" points="491.09,-330.22 482.52,-336.44 493.11,-336.92 491.09,-330.22"/>
</g>
<!-- Node3&#45;&gt;Node4 -->
<g id="edge3" class="edge">
<title>Node3&#45;&gt;Node4</title>
<path fill="none" stroke="midnightblue" d="M286.7,-224.67C351.2,-214.27 460.57,-196.64 522.86,-186.6"/>
<polygon fill="midnightblue" stroke="midnightblue" points="286.07,-221.22 276.75,-226.27 287.18,-228.13 286.07,-221.22"/>
</g>
<!-- Node3&#45;&gt;Node5 -->
<g id="edge4" class="edge">
<title>Node3&#45;&gt;Node5</title>
<path fill="none" stroke="midnightblue" d="M231.85,-214.1C230.36,-205.14 228.64,-194.86 227.46,-187.75"/>
<polygon fill="midnightblue" stroke="midnightblue" points="228.42,-214.79 233.51,-224.08 235.32,-213.64 228.42,-214.79"/>
</g>
<!-- Node8 -->
<g id="node8" class="node">
<title>Node8</title>
<g id="a_node8"><a xlink:href="Game_8h.html" target="_top" xlink:title=" ">
<polygon fill="white" stroke="black" points="279,-56.5 279,-75.5 351,-75.5 351,-56.5 279,-56.5"/>
<text text-anchor="middle" x="315" y="-63.5" font-family="Helvetica,sans-Serif" font-size="10.00">src/Game.h</text>
</a>
</g>
</g>
<!-- Node3&#45;&gt;Node8 -->
<g id="edge15" class="edge">
<title>Node3&#45;&gt;Node8</title>
<path fill="none" stroke="midnightblue" d="M214.16,-218.57C183.18,-195.35 131.46,-148.6 159,-112 173.4,-92.85 237.47,-79.29 278.89,-72.34"/>
<polygon fill="midnightblue" stroke="midnightblue" points="212.12,-221.41 222.26,-224.46 216.23,-215.75 212.12,-221.41"/>
</g>
<!-- Node3&#45;&gt;Node10 -->
<g id="edge16" class="edge">
<title>Node3&#45;&gt;Node10</title>
<path fill="none" stroke="midnightblue" d="M257.61,-218.69C284.59,-200.81 329.94,-168.14 361,-132 386.44,-102.4 378.44,-84.6 405,-56 419.35,-40.56 439.92,-27.59 454.28,-19.6"/>
<polygon fill="midnightblue" stroke="midnightblue" points="255.35,-215.98 248.88,-224.38 259.17,-221.85 255.35,-215.98"/>
</g>
<!-- Node3&#45;&gt;Node12 -->
<g id="edge12" class="edge">
<title>Node3&#45;&gt;Node12</title>
<path fill="none" stroke="midnightblue" d="M194.99,-221.57C159.33,-211.38 107.96,-196.7 75.81,-187.52"/>
<polygon fill="midnightblue" stroke="midnightblue" points="194.48,-225.06 205.05,-224.44 196.4,-218.33 194.48,-225.06"/>
</g>
<!-- Node6 -->
<g id="node6" class="node">
<title>Node6</title>
<g id="a_node6"><a xlink:href="Enemy_8h.html" target="_top" xlink:title=" ">
<polygon fill="white" stroke="black" points="277.5,-112.5 277.5,-131.5 352.5,-131.5 352.5,-112.5 277.5,-112.5"/>
<text text-anchor="middle" x="315" y="-119.5" font-family="Helvetica,sans-Serif" font-size="10.00">src/Enemy.h</text>
</a>
</g>
</g>
<!-- Node5&#45;&gt;Node6 -->
<g id="edge5" class="edge">
<title>Node5&#45;&gt;Node6</title>
<path fill="none" stroke="midnightblue" d="M249.24,-162.9C265.56,-153 286.87,-140.07 300.74,-131.65"/>
<polygon fill="midnightblue" stroke="midnightblue" points="247.03,-160.14 240.3,-168.32 250.66,-166.13 247.03,-160.14"/>
</g>
<!-- Node5&#45;&gt;Node8 -->
<g id="edge10" class="edge">
<title>Node5&#45;&gt;Node8</title>
<path fill="none" stroke="midnightblue" d="M199.08,-163.46C177.49,-150.77 152.95,-130.96 167,-112 192.59,-77.48 244,-68.53 278.97,-66.67"/>
<polygon fill="midnightblue" stroke="midnightblue" points="197.58,-166.64 208.02,-168.44 200.99,-160.52 197.58,-166.64"/>
</g>
<!-- Node11 -->
<g id="node11" class="node">
<title>Node11</title>
<g id="a_node11"><a xlink:href="Player_8cpp.html" target="_top" xlink:title=" ">
<polygon fill="white" stroke="black" points="176,-112.5 176,-131.5 260,-131.5 260,-112.5 176,-112.5"/>
<text text-anchor="middle" x="218" y="-119.5" font-family="Helvetica,sans-Serif" font-size="10.00">src/Player.cpp</text>
</a>
</g>
</g>
<!-- Node5&#45;&gt;Node11 -->
<g id="edge11" class="edge">
<title>Node5&#45;&gt;Node11</title>
<path fill="none" stroke="midnightblue" d="M223.2,-158.1C221.87,-149.14 220.35,-138.86 219.3,-131.75"/>
<polygon fill="midnightblue" stroke="midnightblue" points="219.75,-158.7 224.68,-168.08 226.68,-157.68 219.75,-158.7"/>
</g>
<!-- Node6&#45;&gt;Node7 -->
<g id="edge6" class="edge">
<title>Node6&#45;&gt;Node7</title>
<path fill="none" stroke="midnightblue" d="M347.16,-108.77C373.83,-98.63 411.07,-84.47 434.6,-75.52"/>
<polygon fill="midnightblue" stroke="midnightblue" points="345.6,-105.62 337.5,-112.44 348.09,-112.16 345.6,-105.62"/>
</g>
<!-- Node6&#45;&gt;Node8 -->
<g id="edge7" class="edge">
<title>Node6&#45;&gt;Node8</title>
<path fill="none" stroke="midnightblue" d="M315,-101.8C315,-92.91 315,-82.78 315,-75.75"/>
<polygon fill="midnightblue" stroke="midnightblue" points="311.5,-102.08 315,-112.08 318.5,-102.08 311.5,-102.08"/>
</g>
<!-- Node9 -->
<g id="node9" class="node">
<title>Node9</title>
<g id="a_node9"><a xlink:href="Game_8cpp.html" target="_top" xlink:title=" ">
<polygon fill="white" stroke="black" points="273.5,-0.5 273.5,-19.5 356.5,-19.5 356.5,-0.5 273.5,-0.5"/>
<text text-anchor="middle" x="315" y="-7.5" font-family="Helvetica,sans-Serif" font-size="10.00">src/Game.cpp</text>
</a>
</g>
</g>
<!-- Node8&#45;&gt;Node9 -->
<g id="edge8" class="edge">
<title>Node8&#45;&gt;Node9</title>
<path fill="none" stroke="midnightblue" d="M315,-45.8C315,-36.91 315,-26.78 315,-19.75"/>
<polygon fill="midnightblue" stroke="midnightblue" points="311.5,-46.08 315,-56.08 318.5,-46.08 311.5,-46.08"/>
</g>
<!-- Node8&#45;&gt;Node10 -->
<g id="edge9" class="edge">
<title>Node8&#45;&gt;Node10</title>
<path fill="none" stroke="midnightblue" d="M349.17,-53.17C378.54,-43 420.2,-28.59 446.4,-19.52"/>
<polygon fill="midnightblue" stroke="midnightblue" points="348.02,-49.86 339.72,-56.44 350.31,-56.48 348.02,-49.86"/>
</g>
<!-- Node12&#45;&gt;Node6 -->
<g id="edge13" class="edge">
<title>Node12&#45;&gt;Node6</title>
<path fill="none" stroke="midnightblue" d="M91.73,-167.82C144.05,-157.32 228.75,-140.31 277.4,-130.55"/>
<polygon fill="midnightblue" stroke="midnightblue" points="90.84,-164.43 81.72,-169.83 92.21,-171.29 90.84,-164.43"/>
</g>
<!-- Node13 -->
<g id="node13" class="node">
<title>Node13</title>
<g id="a_node13"><a xlink:href="Tower_8cpp.html" target="_top" xlink:title=" ">
<polygon fill="white" stroke="black" points="0,-112.5 0,-131.5 82,-131.5 82,-112.5 0,-112.5"/>
<text text-anchor="middle" x="41" y="-119.5" font-family="Helvetica,sans-Serif" font-size="10.00">src/Tower.cpp</text>
</a>
</g>
</g>
<!-- Node12&#45;&gt;Node13 -->
<g id="edge14" class="edge">
<title>Node12&#45;&gt;Node13</title>
<path fill="none" stroke="midnightblue" d="M44.25,-158.1C43.42,-149.14 42.47,-138.86 41.81,-131.75"/>
<polygon fill="midnightblue" stroke="midnightblue" points="40.77,-158.45 45.17,-168.08 47.74,-157.8 40.77,-158.45"/>
</g>
<!-- Node14&#45;&gt;Node2 -->
<g id="edge18" class="edge">
<title>Node14&#45;&gt;Node2</title>
<path fill="none" stroke="midnightblue" d="M438.35,-307.94C444.72,-317.26 450.97,-328.46 453.88,-336.08"/>
<polygon fill="midnightblue" stroke="midnightblue" points="441.07,-305.72 432.32,-299.75 435.43,-309.88 441.07,-305.72"/>
</g>
<!-- Node14&#45;&gt;Node3 -->
<g id="edge19" class="edge">
<title>Node14&#45;&gt;Node3</title>
<path fill="none" stroke="midnightblue" d="M382.41,-277.57C347.13,-267.38 296.31,-252.7 264.49,-243.52"/>
<polygon fill="midnightblue" stroke="midnightblue" points="381.79,-281.03 392.37,-280.44 383.73,-274.31 381.79,-281.03"/>
</g>
<!-- Node14&#45;&gt;Node4 -->
<g id="edge20" class="edge">
<title>Node14&#45;&gt;Node4</title>
<path fill="none" stroke="midnightblue" d="M442.02,-274.12C473.44,-250.77 533.31,-206.27 558.44,-187.59"/>
<polygon fill="midnightblue" stroke="midnightblue" points="439.55,-271.59 433.61,-280.37 443.73,-277.21 439.55,-271.59"/>
</g>
<!-- Node14&#45;&gt;Node5 -->
<g id="edge21" class="edge">
<title>Node14&#45;&gt;Node5</title>
<path fill="none" stroke="midnightblue" d="M393.66,-276.3C375.02,-267.69 350.23,-255.79 329,-244 295.54,-225.42 257.9,-200.62 238.73,-187.68"/>
<polygon fill="midnightblue" stroke="midnightblue" points="392.25,-279.5 402.8,-280.48 395.16,-273.13 392.25,-279.5"/>
</g>
<!-- Node14&#45;&gt;Node6 -->
<g id="edge22" class="edge">
<title>Node14&#45;&gt;Node6</title>
<path fill="none" stroke="midnightblue" d="M399.88,-274.71C388.87,-266.72 376.02,-255.98 367,-244 339.08,-206.92 322.74,-152.56 317.17,-131.64"/>
<polygon fill="midnightblue" stroke="midnightblue" points="398,-277.66 408.21,-280.49 401.99,-271.91 398,-277.66"/>
</g>
<!-- Node14&#45;&gt;Node7 -->
<g id="edge23" class="edge">
<title>Node14&#45;&gt;Node7</title>
<path fill="none" stroke="midnightblue" d="M424.95,-270.3C432.15,-224.64 450.4,-108.85 455.6,-75.88"/>
<polygon fill="midnightblue" stroke="midnightblue" points="421.47,-269.87 423.37,-280.3 428.39,-270.96 421.47,-269.87"/>
</g>
<!-- Node14&#45;&gt;Node8 -->
<g id="edge24" class="edge">
<title>Node14&#45;&gt;Node8</title>
<path fill="none" stroke="midnightblue" d="M418.56,-270.43C411.71,-236.76 394.1,-164.32 361,-112 351.8,-97.46 337.02,-84.13 326.71,-75.81"/>
<polygon fill="midnightblue" stroke="midnightblue" points="415.13,-271.12 420.48,-280.27 422,-269.79 415.13,-271.12"/>
</g>
<!-- Node14&#45;&gt;Node10 -->
<g id="edge25" class="edge">
<title>Node14&#45;&gt;Node10</title>
<path fill="none" stroke="midnightblue" d="M432.06,-271.39C451.71,-235.86 494.52,-152.44 509,-76 510.65,-67.27 512.05,-64.35 509,-56 503.59,-41.21 490.94,-27.93 481.71,-19.7"/>
<polygon fill="midnightblue" stroke="midnightblue" points="428.82,-270.03 426.97,-280.46 434.92,-273.46 428.82,-270.03"/>
</g>
<!-- Node14&#45;&gt;Node15 -->
<g id="edge26" class="edge">
<title>Node14&#45;&gt;Node15</title>
<path fill="none" stroke="midnightblue" d="M453.48,-276.77C479.59,-266.63 516.04,-252.47 539.08,-243.52"/>
<polygon fill="midnightblue" stroke="midnightblue" points="452.08,-273.56 444.02,-280.44 454.61,-280.08 452.08,-273.56"/>
</g>
</g>
</svg>
