<?xml version="1.0" encoding="UTF-8" standalone="no"?>
<!DOCTYPE svg PUBLIC "-//W3C//DTD SVG 1.1//EN"
 "http://www.w3.org/Graphics/SVG/1.1/DTD/svg11.dtd">
<!-- Generated by graphviz version 2.43.0 (0)
 -->
<!-- Title: src/constants.h Pages: 1 -->
<svg width="606pt" height="420pt"
 viewBox="0.00 0.00 606.00 420.00" xmlns="http://www.w3.org/2000/svg" xmlns:xlink="http://www.w3.org/1999/xlink">
<g id="graph0" class="graph" transform="scale(1 1) rotate(0) translate(4 416)">
<title>src/constants.h</title>
<polygon fill="white" stroke="transparent" points="-4,4 -4,-416 602,-416 602,4 -4,4"/>
<!-- Node1 -->
<g id="node1" class="node">
<title>Node1</title>
<g id="a_node1"><a xlink:title=" ">
<polygon fill="#bfbfbf" stroke="black" points="253,-392.5 253,-411.5 343,-411.5 343,-392.5 253,-392.5"/>
<text text-anchor="middle" x="298" y="-399.5" font-family="Helvetica,sans-Serif" font-size="10.00">src/constants.h</text>
</a>
</g>
</g>
<!-- Node2 -->
<g id="node2" class="node">
<title>Node2</title>
<g id="a_node2"><a xlink:href="Entity_8h.html" target="_top" xlink:title=" ">
<polygon fill="white" stroke="black" points="165,-336.5 165,-355.5 235,-355.5 235,-336.5 165,-336.5"/>
<text text-anchor="middle" x="200" y="-343.5" font-family="Helvetica,sans-Serif" font-size="10.00">src/Entity.h</text>
</a>
</g>
</g>
<!-- Node1&#45;&gt;Node2 -->
<g id="edge1" class="edge">
<title>Node1&#45;&gt;Node2</title>
<path fill="none" stroke="midnightblue" d="M273.41,-387.45C255.32,-377.48 231.27,-364.23 215.71,-355.65"/>
<polygon fill="midnightblue" stroke="midnightblue" points="271.81,-390.56 282.25,-392.32 275.19,-384.43 271.81,-390.56"/>
</g>
<!-- Node3 -->
<g id="node3" class="node">
<title>Node3</title>
<g id="a_node3"><a xlink:href="Attacker_8h.html" target="_top" xlink:title=" ">
<polygon fill="white" stroke="black" points="50.5,-224.5 50.5,-243.5 133.5,-243.5 133.5,-224.5 50.5,-224.5"/>
<text text-anchor="middle" x="92" y="-231.5" font-family="Helvetica,sans-Serif" font-size="10.00">src/Attacker.h</text>
</a>
</g>
</g>
<!-- Node1&#45;&gt;Node3 -->
<g id="edge34" class="edge">
<title>Node1&#45;&gt;Node3</title>
<path fill="none" stroke="midnightblue" d="M242.78,-398.05C179.69,-391.32 79.47,-369.59 35,-300 20.77,-277.74 53.05,-255.37 74.61,-243.55"/>
<polygon fill="midnightblue" stroke="midnightblue" points="242.66,-401.55 252.95,-399.04 243.34,-394.59 242.66,-401.55"/>
</g>
<!-- Node6 -->
<g id="node6" class="node">
<title>Node6</title>
<g id="a_node6"><a xlink:href="Enemy_8h.html" target="_top" xlink:title=" ">
<polygon fill="white" stroke="black" points="424.5,-112.5 424.5,-131.5 499.5,-131.5 499.5,-112.5 424.5,-112.5"/>
<text text-anchor="middle" x="462" y="-119.5" font-family="Helvetica,sans-Serif" font-size="10.00">src/Enemy.h</text>
</a>
</g>
</g>
<!-- Node1&#45;&gt;Node6 -->
<g id="edge35" class="edge">
<title>Node1&#45;&gt;Node6</title>
<path fill="none" stroke="midnightblue" d="M353.18,-392.37C439.82,-377.24 598,-342.56 598,-291 598,-291 598,-291 598,-233 598,-177.88 529.64,-145.63 489.85,-131.52"/>
<polygon fill="midnightblue" stroke="midnightblue" points="352.5,-388.93 343.24,-394.07 353.69,-395.83 352.5,-388.93"/>
</g>
<!-- Node17 -->
<g id="node17" class="node">
<title>Node17</title>
<g id="a_node17"><a xlink:href="Definitions_8h.html" target="_top" xlink:title=" ">
<polygon fill="white" stroke="black" points="310.5,-336.5 310.5,-355.5 405.5,-355.5 405.5,-336.5 310.5,-336.5"/>
<text text-anchor="middle" x="358" y="-343.5" font-family="Helvetica,sans-Serif" font-size="10.00">src/Definitions.h</text>
</a>
</g>
</g>
<!-- Node1&#45;&gt;Node17 -->
<g id="edge27" class="edge">
<title>Node1&#45;&gt;Node17</title>
<path fill="none" stroke="midnightblue" d="M315.18,-385.54C325.88,-375.91 339.26,-363.87 348.18,-355.83"/>
<polygon fill="midnightblue" stroke="midnightblue" points="312.73,-383.03 307.64,-392.32 317.41,-388.24 312.73,-383.03"/>
</g>
<!-- Node2&#45;&gt;Node3 -->
<g id="edge2" class="edge">
<title>Node2&#45;&gt;Node3</title>
<path fill="none" stroke="midnightblue" d="M154.88,-338.1C113.75,-330.78 57.4,-317.81 44,-300 28.9,-279.93 58.39,-256.15 77.49,-243.66"/>
<polygon fill="midnightblue" stroke="midnightblue" points="154.53,-341.59 164.98,-339.84 155.72,-334.69 154.53,-341.59"/>
</g>
<!-- Node5 -->
<g id="node5" class="node">
<title>Node5</title>
<g id="a_node5"><a xlink:href="Player_8h.html" target="_top" xlink:title=" ">
<polygon fill="white" stroke="black" points="267.5,-168.5 267.5,-187.5 340.5,-187.5 340.5,-168.5 267.5,-168.5"/>
<text text-anchor="middle" x="304" y="-175.5" font-family="Helvetica,sans-Serif" font-size="10.00">src/Player.h</text>
</a>
</g>
</g>
<!-- Node2&#45;&gt;Node5 -->
<g id="edge23" class="edge">
<title>Node2&#45;&gt;Node5</title>
<path fill="none" stroke="midnightblue" d="M192.46,-327.01C183.15,-301.68 170.96,-255.13 192,-224 208.72,-199.26 241.53,-188.12 267.34,-183.1"/>
<polygon fill="midnightblue" stroke="midnightblue" points="189.26,-328.43 196.17,-336.46 195.77,-325.87 189.26,-328.43"/>
</g>
<!-- Node12 -->
<g id="node12" class="node">
<title>Node12</title>
<g id="a_node12"><a xlink:href="Tower_8h.html" target="_top" xlink:title=" ">
<polygon fill="white" stroke="black" points="8.5,-168.5 8.5,-187.5 79.5,-187.5 79.5,-168.5 8.5,-168.5"/>
<text text-anchor="middle" x="44" y="-175.5" font-family="Helvetica,sans-Serif" font-size="10.00">src/Tower.h</text>
</a>
</g>
</g>
<!-- Node2&#45;&gt;Node12 -->
<g id="edge24" class="edge">
<title>Node2&#45;&gt;Node12</title>
<path fill="none" stroke="midnightblue" d="M154.76,-338.87C111.09,-331.91 49.52,-319.01 35,-300 8.92,-265.85 30.12,-209.29 39.81,-187.72"/>
<polygon fill="midnightblue" stroke="midnightblue" points="154.47,-342.36 164.88,-340.43 155.53,-335.44 154.47,-342.36"/>
</g>
<!-- Node14 -->
<g id="node14" class="node">
<title>Node14</title>
<g id="a_node14"><a xlink:href="Map_8h.html" target="_top" xlink:title=" ">
<polygon fill="white" stroke="black" points="266,-280.5 266,-299.5 330,-299.5 330,-280.5 266,-280.5"/>
<text text-anchor="middle" x="298" y="-287.5" font-family="Helvetica,sans-Serif" font-size="10.00">src/Map.h</text>
</a>
</g>
</g>
<!-- Node2&#45;&gt;Node14 -->
<g id="edge16" class="edge">
<title>Node2&#45;&gt;Node14</title>
<path fill="none" stroke="midnightblue" d="M219.58,-330.9C236.32,-321 260.08,-308.07 277.18,-299.65"/>
<polygon fill="midnightblue" stroke="midnightblue" points="217.37,-328.15 210.63,-336.32 221,-334.13 217.37,-328.15"/>
</g>
<!-- Node15 -->
<g id="node15" class="node">
<title>Node15</title>
<g id="a_node15"><a xlink:href="Map_8cpp.html" target="_top" xlink:title=" ">
<polygon fill="white" stroke="black" points="200.5,-224.5 200.5,-243.5 275.5,-243.5 275.5,-224.5 200.5,-224.5"/>
<text text-anchor="middle" x="238" y="-231.5" font-family="Helvetica,sans-Serif" font-size="10.00">src/Map.cpp</text>
</a>
</g>
</g>
<!-- Node2&#45;&gt;Node15 -->
<g id="edge26" class="edge">
<title>Node2&#45;&gt;Node15</title>
<path fill="none" stroke="midnightblue" d="M206.33,-326.67C214.64,-302.62 228.88,-261.39 235.03,-243.59"/>
<polygon fill="midnightblue" stroke="midnightblue" points="202.94,-325.77 202.98,-336.37 209.56,-328.06 202.94,-325.77"/>
</g>
<!-- Node16 -->
<g id="node16" class="node">
<title>Node16</title>
<g id="a_node16"><a xlink:href="Entity_8cpp.html" target="_top" xlink:title=" ">
<polygon fill="white" stroke="black" points="52.5,-280.5 52.5,-299.5 133.5,-299.5 133.5,-280.5 52.5,-280.5"/>
<text text-anchor="middle" x="93" y="-287.5" font-family="Helvetica,sans-Serif" font-size="10.00">src/Entity.cpp</text>
</a>
</g>
</g>
<!-- Node2&#45;&gt;Node16 -->
<g id="edge25" class="edge">
<title>Node2&#45;&gt;Node16</title>
<path fill="none" stroke="midnightblue" d="M173.7,-331.73C153.89,-321.73 127.29,-308.31 110.15,-299.65"/>
<polygon fill="midnightblue" stroke="midnightblue" points="172.3,-334.94 182.81,-336.32 175.46,-328.69 172.3,-334.94"/>
</g>
<!-- Node4 -->
<g id="node4" class="node">
<title>Node4</title>
<g id="a_node4"><a xlink:href="Attacker_8cpp.html" target="_top" xlink:title=" ">
<polygon fill="white" stroke="black" points="138,-168.5 138,-187.5 232,-187.5 232,-168.5 138,-168.5"/>
<text text-anchor="middle" x="185" y="-175.5" font-family="Helvetica,sans-Serif" font-size="10.00">src/Attacker.cpp</text>
</a>
</g>
</g>
<!-- Node3&#45;&gt;Node4 -->
<g id="edge3" class="edge">
<title>Node3&#45;&gt;Node4</title>
<path fill="none" stroke="midnightblue" d="M115.81,-219.18C132.92,-209.24 155.47,-196.15 170.1,-187.65"/>
<polygon fill="midnightblue" stroke="midnightblue" points="113.83,-216.28 106.94,-224.32 117.35,-222.33 113.83,-216.28"/>
</g>
<!-- Node3&#45;&gt;Node5 -->
<g id="edge4" class="edge">
<title>Node3&#45;&gt;Node5</title>
<path fill="none" stroke="midnightblue" d="M135.35,-221.96C175.39,-211.76 234.03,-196.82 270.57,-187.52"/>
<polygon fill="midnightblue" stroke="midnightblue" points="134.42,-218.58 125.59,-224.44 136.15,-225.37 134.42,-218.58"/>
</g>
<!-- Node8 -->
<g id="node8" class="node">
<title>Node8</title>
<g id="a_node8"><a xlink:href="Game_8h.html" target="_top" xlink:title=" ">
<polygon fill="white" stroke="black" points="344,-56.5 344,-75.5 416,-75.5 416,-56.5 344,-56.5"/>
<text text-anchor="middle" x="380" y="-63.5" font-family="Helvetica,sans-Serif" font-size="10.00">src/Game.h</text>
</a>
</g>
</g>
<!-- Node3&#45;&gt;Node8 -->
<g id="edge15" class="edge">
<title>Node3&#45;&gt;Node8</title>
<path fill="none" stroke="midnightblue" d="M98.98,-214.77C105.14,-200.6 115.28,-181.2 129,-168 190.28,-109.07 290.38,-82.98 343.77,-72.75"/>
<polygon fill="midnightblue" stroke="midnightblue" points="95.58,-213.82 95.05,-224.4 102.07,-216.46 95.58,-213.82"/>
</g>
<!-- Node3&#45;&gt;Node12 -->
<g id="edge12" class="edge">
<title>Node3&#45;&gt;Node12</title>
<path fill="none" stroke="midnightblue" d="M77.27,-216.43C68.86,-206.97 58.65,-195.48 51.78,-187.75"/>
<polygon fill="midnightblue" stroke="midnightblue" points="74.81,-218.93 84.07,-224.08 80.05,-214.28 74.81,-218.93"/>
</g>
<!-- Node5&#45;&gt;Node6 -->
<g id="edge5" class="edge">
<title>Node5&#45;&gt;Node6</title>
<path fill="none" stroke="midnightblue" d="M338.61,-165.17C368.36,-155 410.55,-140.59 437.08,-131.52"/>
<polygon fill="midnightblue" stroke="midnightblue" points="337.37,-161.9 329.04,-168.44 339.63,-168.52 337.37,-161.9"/>
</g>
<!-- Node5&#45;&gt;Node8 -->
<g id="edge10" class="edge">
<title>Node5&#45;&gt;Node8</title>
<path fill="none" stroke="midnightblue" d="M317.57,-160.36C324.23,-152 332.25,-141.62 339,-132 352.8,-112.34 367.46,-88.19 374.95,-75.59"/>
<polygon fill="midnightblue" stroke="midnightblue" points="314.78,-158.25 311.24,-168.23 320.23,-162.64 314.78,-158.25"/>
</g>
<!-- Node11 -->
<g id="node11" class="node">
<title>Node11</title>
<g id="a_node11"><a xlink:href="Player_8cpp.html" target="_top" xlink:title=" ">
<polygon fill="white" stroke="black" points="246,-112.5 246,-131.5 330,-131.5 330,-112.5 246,-112.5"/>
<text text-anchor="middle" x="288" y="-119.5" font-family="Helvetica,sans-Serif" font-size="10.00">src/Player.cpp</text>
</a>
</g>
</g>
<!-- Node5&#45;&gt;Node11 -->
<g id="edge11" class="edge">
<title>Node5&#45;&gt;Node11</title>
<path fill="none" stroke="midnightblue" d="M298.49,-158.4C295.81,-149.36 292.72,-138.94 290.59,-131.75"/>
<polygon fill="midnightblue" stroke="midnightblue" points="295.16,-159.49 301.36,-168.08 301.87,-157.5 295.16,-159.49"/>
</g>
<!-- Node7 -->
<g id="node7" class="node">
<title>Node7</title>
<g id="a_node7"><a xlink:href="Enemy_8cpp.html" target="_top" xlink:title=" ">
<polygon fill="white" stroke="black" points="434,-56.5 434,-75.5 520,-75.5 520,-56.5 434,-56.5"/>
<text text-anchor="middle" x="477" y="-63.5" font-family="Helvetica,sans-Serif" font-size="10.00">src/Enemy.cpp</text>
</a>
</g>
</g>
<!-- Node6&#45;&gt;Node7 -->
<g id="edge6" class="edge">
<title>Node6&#45;&gt;Node7</title>
<path fill="none" stroke="midnightblue" d="M467.17,-102.4C469.68,-93.36 472.57,-82.94 474.57,-75.75"/>
<polygon fill="midnightblue" stroke="midnightblue" points="463.78,-101.51 464.48,-112.08 470.53,-103.38 463.78,-101.51"/>
</g>
<!-- Node6&#45;&gt;Node8 -->
<g id="edge7" class="edge">
<title>Node6&#45;&gt;Node8</title>
<path fill="none" stroke="midnightblue" d="M440.17,-106.62C425.19,-96.76 405.8,-83.99 393.14,-75.65"/>
<polygon fill="midnightblue" stroke="midnightblue" points="438.55,-109.75 448.83,-112.32 442.4,-103.9 438.55,-109.75"/>
</g>
<!-- Node9 -->
<g id="node9" class="node">
<title>Node9</title>
<g id="a_node9"><a xlink:href="Game_8cpp.html" target="_top" xlink:title=" ">
<polygon fill="white" stroke="black" points="289.5,-0.5 289.5,-19.5 372.5,-19.5 372.5,-0.5 289.5,-0.5"/>
<text text-anchor="middle" x="331" y="-7.5" font-family="Helvetica,sans-Serif" font-size="10.00">src/Game.cpp</text>
</a>
</g>
</g>
<!-- Node8&#45;&gt;Node9 -->
<g id="edge8" class="edge">
<title>Node8&#45;&gt;Node9</title>
<path fill="none" stroke="midnightblue" d="M364.97,-48.43C356.38,-38.97 345.96,-27.48 338.94,-19.75"/>
<polygon fill="midnightblue" stroke="midnightblue" points="362.6,-51.03 371.91,-56.08 367.78,-46.33 362.6,-51.03"/>
</g>
<!-- Node10 -->
<g id="node10" class="node">
<title>Node10</title>
<g id="a_node10"><a xlink:href="main_8cpp.html" target="_top" xlink:title=" ">
<polygon fill="white" stroke="black" points="390.5,-0.5 390.5,-19.5 469.5,-19.5 469.5,-0.5 390.5,-0.5"/>
<text text-anchor="middle" x="430" y="-7.5" font-family="Helvetica,sans-Serif" font-size="10.00">src/main.cpp</text>
</a>
</g>
</g>
<!-- Node8&#45;&gt;Node10 -->
<g id="edge9" class="edge">
<title>Node8&#45;&gt;Node10</title>
<path fill="none" stroke="midnightblue" d="M395.08,-48.72C403.89,-39.2 414.67,-27.56 421.9,-19.75"/>
<polygon fill="midnightblue" stroke="midnightblue" points="392.48,-46.37 388.26,-56.08 397.62,-51.12 392.48,-46.37"/>
</g>
<!-- Node12&#45;&gt;Node6 -->
<g id="edge13" class="edge">
<title>Node12&#45;&gt;Node6</title>
<path fill="none" stroke="midnightblue" d="M89.8,-171.08C173.03,-160.33 347.55,-137.79 424.36,-127.86"/>
<polygon fill="midnightblue" stroke="midnightblue" points="89.11,-167.64 79.64,-172.4 90,-174.59 89.11,-167.64"/>
</g>
<!-- Node13 -->
<g id="node13" class="node">
<title>Node13</title>
<g id="a_node13"><a xlink:href="Tower_8cpp.html" target="_top" xlink:title=" ">
<polygon fill="white" stroke="black" points="0,-112.5 0,-131.5 82,-131.5 82,-112.5 0,-112.5"/>
<text text-anchor="middle" x="41" y="-119.5" font-family="Helvetica,sans-Serif" font-size="10.00">src/Tower.cpp</text>
</a>
</g>
</g>
<!-- Node12&#45;&gt;Node13 -->
<g id="edge14" class="edge">
<title>Node12&#45;&gt;Node13</title>
<path fill="none" stroke="midnightblue" d="M42.93,-157.8C42.44,-148.91 41.88,-138.78 41.49,-131.75"/>
<polygon fill="midnightblue" stroke="midnightblue" points="39.46,-158.29 43.5,-168.08 46.44,-157.9 39.46,-158.29"/>
</g>
<!-- Node14&#45;&gt;Node2 -->
<g id="edge17" class="edge">
<title>Node14&#45;&gt;Node2</title>
<path fill="none" stroke="midnightblue" d="M278.47,-305.07C261.73,-314.97 237.97,-327.9 220.86,-336.32"/>
<polygon fill="midnightblue" stroke="midnightblue" points="280.67,-307.83 287.4,-299.65 277.04,-301.85 280.67,-307.83"/>
</g>
<!-- Node14&#45;&gt;Node3 -->
<g id="edge18" class="edge">
<title>Node14&#45;&gt;Node3</title>
<path fill="none" stroke="midnightblue" d="M255.86,-277.95C217.01,-267.77 160.14,-252.86 124.64,-243.56"/>
<polygon fill="midnightblue" stroke="midnightblue" points="255.25,-281.41 265.81,-280.56 257.03,-274.64 255.25,-281.41"/>
</g>
<!-- Node14&#45;&gt;Node5 -->
<g id="edge19" class="edge">
<title>Node14&#45;&gt;Node5</title>
<path fill="none" stroke="midnightblue" d="M299.02,-270.35C300.33,-246.25 302.57,-205.31 303.53,-187.59"/>
<polygon fill="midnightblue" stroke="midnightblue" points="295.52,-270.19 298.47,-280.37 302.51,-270.57 295.52,-270.19"/>
</g>
<!-- Node14&#45;&gt;Node6 -->
<g id="edge20" class="edge">
<title>Node14&#45;&gt;Node6</title>
<path fill="none" stroke="midnightblue" d="M340.05,-280.43C363.17,-273.84 390.93,-262.62 410,-244 443.54,-211.25 456.71,-153.36 460.62,-131.59"/>
<polygon fill="midnightblue" stroke="midnightblue" points="338.91,-277.11 330.14,-283.05 340.7,-283.88 338.91,-277.11"/>
</g>
<!-- Node14&#45;&gt;Node8 -->
<g id="edge21" class="edge">
<title>Node14&#45;&gt;Node8</title>
<path fill="none" stroke="midnightblue" d="M308.5,-271.68C320.05,-252 338.49,-218.64 350,-188 365.29,-147.27 375.07,-95.91 378.56,-75.72"/>
<polygon fill="midnightblue" stroke="midnightblue" points="305.42,-270.02 303.31,-280.4 311.43,-273.6 305.42,-270.02"/>
</g>
<!-- Node14&#45;&gt;Node15 -->
<g id="edge22" class="edge">
<title>Node14&#45;&gt;Node15</title>
<path fill="none" stroke="midnightblue" d="M280.82,-273.54C270.12,-263.91 256.74,-251.87 247.82,-243.83"/>
<polygon fill="midnightblue" stroke="midnightblue" points="278.59,-276.24 288.36,-280.32 283.27,-271.03 278.59,-276.24"/>
</g>
<!-- Node17&#45;&gt;Node3 -->
<g id="edge29" class="edge">
<title>Node17&#45;&gt;Node3</title>
<path fill="none" stroke="midnightblue" d="M327.64,-332.45C273.01,-309.86 159.49,-262.91 112.78,-243.59"/>
<polygon fill="midnightblue" stroke="midnightblue" points="326.55,-335.78 337.13,-336.37 329.22,-329.31 326.55,-335.78"/>
</g>
<!-- Node17&#45;&gt;Node5 -->
<g id="edge31" class="edge">
<title>Node17&#45;&gt;Node5</title>
<path fill="none" stroke="midnightblue" d="M352.84,-326.45C349.15,-313.41 343.97,-295.58 339,-280 328,-245.53 313.45,-204.97 307.14,-187.6"/>
<polygon fill="midnightblue" stroke="midnightblue" points="349.48,-327.44 355.56,-336.13 356.22,-325.55 349.48,-327.44"/>
</g>
<!-- Node17&#45;&gt;Node6 -->
<g id="edge32" class="edge">
<title>Node17&#45;&gt;Node6</title>
<path fill="none" stroke="midnightblue" d="M415.43,-338.59C463.12,-331.94 525.55,-319.71 541,-300 585.22,-243.59 501.17,-158.52 471.68,-131.53"/>
<polygon fill="midnightblue" stroke="midnightblue" points="414.95,-335.12 405.5,-339.92 415.88,-342.06 414.95,-335.12"/>
</g>
<!-- Node17&#45;&gt;Node8 -->
<g id="edge33" class="edge">
<title>Node17&#45;&gt;Node8</title>
<path fill="none" stroke="midnightblue" d="M371.75,-328.53C406.34,-286.68 495.19,-176.46 509,-132 511.64,-123.51 514.15,-119.25 509,-112 498.01,-96.53 450.37,-82.82 416.18,-74.71"/>
<polygon fill="midnightblue" stroke="midnightblue" points="368.94,-326.44 365.24,-336.37 374.32,-330.91 368.94,-326.44"/>
</g>
<!-- Node17&#45;&gt;Node14 -->
<g id="edge28" class="edge">
<title>Node17&#45;&gt;Node14</title>
<path fill="none" stroke="midnightblue" d="M340.82,-329.54C330.12,-319.91 316.74,-307.87 307.82,-299.83"/>
<polygon fill="midnightblue" stroke="midnightblue" points="338.59,-332.24 348.36,-336.32 343.27,-327.03 338.59,-332.24"/>
</g>
<!-- Node18 -->
<g id="node18" class="node">
<title>Node18</title>
<g id="a_node18"><a xlink:href="Definitions_8cpp.html" target="_top" xlink:title=" ">
<polygon fill="white" stroke="black" points="424.5,-280.5 424.5,-299.5 531.5,-299.5 531.5,-280.5 424.5,-280.5"/>
<text text-anchor="middle" x="478" y="-287.5" font-family="Helvetica,sans-Serif" font-size="10.00">src/Definitions.cpp</text>
</a>
</g>
</g>
<!-- Node17&#45;&gt;Node18 -->
<g id="edge30" class="edge">
<title>Node17&#45;&gt;Node18</title>
<path fill="none" stroke="midnightblue" d="M386.37,-332.23C408.82,-322.13 439.54,-308.31 459.07,-299.52"/>
<polygon fill="midnightblue" stroke="midnightblue" points="384.7,-329.15 377.01,-336.44 387.57,-335.53 384.7,-329.15"/>
</g>
</g>
</svg>
