<?xml version="1.0" encoding="UTF-8" standalone="no"?>
<!DOCTYPE svg PUBLIC "-//W3C//DTD SVG 1.1//EN"
 "http://www.w3.org/Graphics/SVG/1.1/DTD/svg11.dtd">
<!-- Generated by graphviz version 2.43.0 (0)
 -->
<!-- Title: src/constants.h Pages: 1 -->
<svg width="680pt" height="420pt"
 viewBox="0.00 0.00 679.50 420.00" xmlns="http://www.w3.org/2000/svg" xmlns:xlink="http://www.w3.org/1999/xlink">
<g id="graph0" class="graph" transform="scale(1 1) rotate(0) translate(4 416)">
<title>src/constants.h</title>
<polygon fill="white" stroke="transparent" points="-4,4 -4,-416 675.5,-416 675.5,4 -4,4"/>
<!-- Node1 -->
<g id="node1" class="node">
<title>Node1</title>
<g id="a_node1"><a xlink:title=" ">
<polygon fill="#bfbfbf" stroke="black" points="128,-392.5 128,-411.5 218,-411.5 218,-392.5 128,-392.5"/>
<text text-anchor="middle" x="173" y="-399.5" font-family="Helvetica,sans-Serif" font-size="10.00">src/constants.h</text>
</a>
</g>
</g>
<!-- Node2 -->
<g id="node2" class="node">
<title>Node2</title>
<g id="a_node2"><a xlink:href="Entity_8h.html" target="_top" xlink:title=" ">
<polygon fill="white" stroke="black" points="251,-336.5 251,-355.5 321,-355.5 321,-336.5 251,-336.5"/>
<text text-anchor="middle" x="286" y="-343.5" font-family="Helvetica,sans-Serif" font-size="10.00">src/Entity.h</text>
</a>
</g>
</g>
<!-- Node1&#45;&gt;Node2 -->
<g id="edge1" class="edge">
<title>Node1&#45;&gt;Node2</title>
<path fill="none" stroke="midnightblue" d="M200,-388.1C221.11,-378.01 249.86,-364.27 268.18,-355.52"/>
<polygon fill="midnightblue" stroke="midnightblue" points="198.42,-384.97 190.91,-392.44 201.44,-391.29 198.42,-384.97"/>
</g>
<!-- Node3 -->
<g id="node3" class="node">
<title>Node3</title>
<g id="a_node3"><a xlink:href="Attacker_8h.html" target="_top" xlink:title=" ">
<polygon fill="white" stroke="black" points="204.5,-224.5 204.5,-243.5 287.5,-243.5 287.5,-224.5 204.5,-224.5"/>
<text text-anchor="middle" x="246" y="-231.5" font-family="Helvetica,sans-Serif" font-size="10.00">src/Attacker.h</text>
</a>
</g>
</g>
<!-- Node1&#45;&gt;Node3 -->
<g id="edge32" class="edge">
<title>Node1&#45;&gt;Node3</title>
<path fill="none" stroke="midnightblue" d="M180.98,-382.86C196.64,-347.25 230.85,-269.45 242.23,-243.57"/>
<polygon fill="midnightblue" stroke="midnightblue" points="177.75,-381.51 176.92,-392.08 184.15,-384.33 177.75,-381.51"/>
</g>
<!-- Node4 -->
<g id="node4" class="node">
<title>Node4</title>
<g id="a_node4"><a xlink:href="Attacker_8cpp.html" target="_top" xlink:title=" ">
<polygon fill="white" stroke="black" points="28,-168.5 28,-187.5 122,-187.5 122,-168.5 28,-168.5"/>
<text text-anchor="middle" x="75" y="-175.5" font-family="Helvetica,sans-Serif" font-size="10.00">src/Attacker.cpp</text>
</a>
</g>
</g>
<!-- Node1&#45;&gt;Node4 -->
<g id="edge33" class="edge">
<title>Node1&#45;&gt;Node4</title>
<path fill="none" stroke="midnightblue" d="M165,-382.87C145.02,-337.63 93.54,-220.99 78.92,-187.88"/>
<polygon fill="midnightblue" stroke="midnightblue" points="161.92,-384.56 169.16,-392.3 168.32,-381.74 161.92,-384.56"/>
</g>
<!-- Node16 -->
<g id="node16" class="node">
<title>Node16</title>
<g id="a_node16"><a xlink:href="Entity_8cpp.html" target="_top" xlink:title=" ">
<polygon fill="white" stroke="black" points="590.5,-280.5 590.5,-299.5 671.5,-299.5 671.5,-280.5 590.5,-280.5"/>
<text text-anchor="middle" x="631" y="-287.5" font-family="Helvetica,sans-Serif" font-size="10.00">src/Entity.cpp</text>
</a>
</g>
</g>
<!-- Node1&#45;&gt;Node16 -->
<g id="edge34" class="edge">
<title>Node1&#45;&gt;Node16</title>
<path fill="none" stroke="midnightblue" d="M218.32,-390.12C309.44,-368.23 513.14,-319.31 595.47,-299.53"/>
<polygon fill="midnightblue" stroke="midnightblue" points="217.46,-386.72 208.56,-392.46 219.1,-393.53 217.46,-386.72"/>
</g>
<!-- Node2&#45;&gt;Node3 -->
<g id="edge2" class="edge">
<title>Node2&#45;&gt;Node3</title>
<path fill="none" stroke="midnightblue" d="M279.34,-326.67C270.59,-302.62 255.6,-261.39 249.12,-243.59"/>
<polygon fill="midnightblue" stroke="midnightblue" points="276.15,-328.17 282.86,-336.37 282.73,-325.77 276.15,-328.17"/>
</g>
<!-- Node2&#45;&gt;Node4 -->
<g id="edge26" class="edge">
<title>Node2&#45;&gt;Node4</title>
<path fill="none" stroke="midnightblue" d="M262.88,-330.94C249.25,-322.4 231.81,-311.04 217,-300 164.55,-260.89 106.46,-208.16 84.29,-187.66"/>
<polygon fill="midnightblue" stroke="midnightblue" points="261.3,-334.08 271.64,-336.37 264.98,-328.13 261.3,-334.08"/>
</g>
<!-- Node5 -->
<g id="node5" class="node">
<title>Node5</title>
<g id="a_node5"><a xlink:href="Player_8h.html" target="_top" xlink:title=" ">
<polygon fill="white" stroke="black" points="479.5,-168.5 479.5,-187.5 552.5,-187.5 552.5,-168.5 479.5,-168.5"/>
<text text-anchor="middle" x="516" y="-175.5" font-family="Helvetica,sans-Serif" font-size="10.00">src/Player.h</text>
</a>
</g>
</g>
<!-- Node2&#45;&gt;Node5 -->
<g id="edge27" class="edge">
<title>Node2&#45;&gt;Node5</title>
<path fill="none" stroke="midnightblue" d="M331.21,-333.81C398.19,-316.21 518.55,-280.31 543,-244 555.42,-225.55 536.53,-200.48 524.58,-187.53"/>
<polygon fill="midnightblue" stroke="midnightblue" points="330.14,-330.48 321.34,-336.38 331.89,-337.25 330.14,-330.48"/>
</g>
<!-- Node10 -->
<g id="node10" class="node">
<title>Node10</title>
<g id="a_node10"><a xlink:href="main_8cpp.html" target="_top" xlink:title=" ">
<polygon fill="white" stroke="black" points="236.5,-0.5 236.5,-19.5 315.5,-19.5 315.5,-0.5 236.5,-0.5"/>
<text text-anchor="middle" x="276" y="-7.5" font-family="Helvetica,sans-Serif" font-size="10.00">src/main.cpp</text>
</a>
</g>
</g>
<!-- Node2&#45;&gt;Node10 -->
<g id="edge30" class="edge">
<title>Node2&#45;&gt;Node10</title>
<path fill="none" stroke="midnightblue" d="M240.56,-339.62C159.88,-327.25 0,-288.89 0,-179 0,-179 0,-179 0,-121 0,-70.71 160.14,-33.21 236.46,-18.19"/>
<polygon fill="midnightblue" stroke="midnightblue" points="240.53,-343.15 250.93,-341.13 241.54,-336.22 240.53,-343.15"/>
</g>
<!-- Node12 -->
<g id="node12" class="node">
<title>Node12</title>
<g id="a_node12"><a xlink:href="Tower_8h.html" target="_top" xlink:title=" ">
<polygon fill="white" stroke="black" points="140.5,-168.5 140.5,-187.5 211.5,-187.5 211.5,-168.5 140.5,-168.5"/>
<text text-anchor="middle" x="176" y="-175.5" font-family="Helvetica,sans-Serif" font-size="10.00">src/Tower.h</text>
</a>
</g>
</g>
<!-- Node2&#45;&gt;Node12 -->
<g id="edge28" class="edge">
<title>Node2&#45;&gt;Node12</title>
<path fill="none" stroke="midnightblue" d="M267.93,-329.63C247.42,-311.25 214.3,-278.6 195,-244 184.69,-225.52 179.48,-200.89 177.3,-187.9"/>
<polygon fill="midnightblue" stroke="midnightblue" points="265.8,-332.42 275.63,-336.39 270.42,-327.16 265.8,-332.42"/>
</g>
<!-- Node14 -->
<g id="node14" class="node">
<title>Node14</title>
<g id="a_node14"><a xlink:href="Map_8h.html" target="_top" xlink:title=" ">
<polygon fill="white" stroke="black" points="284,-280.5 284,-299.5 348,-299.5 348,-280.5 284,-280.5"/>
<text text-anchor="middle" x="316" y="-287.5" font-family="Helvetica,sans-Serif" font-size="10.00">src/Map.h</text>
</a>
</g>
</g>
<!-- Node2&#45;&gt;Node14 -->
<g id="edge17" class="edge">
<title>Node2&#45;&gt;Node14</title>
<path fill="none" stroke="midnightblue" d="M289.74,-326.69C294.1,-317.59 300.41,-307.01 306.01,-299.75"/>
<polygon fill="midnightblue" stroke="midnightblue" points="286.44,-325.51 285.79,-336.08 292.89,-328.23 286.44,-325.51"/>
</g>
<!-- Node15 -->
<g id="node15" class="node">
<title>Node15</title>
<g id="a_node15"><a xlink:href="Map_8cpp.html" target="_top" xlink:title=" ">
<polygon fill="white" stroke="black" points="458.5,-224.5 458.5,-243.5 533.5,-243.5 533.5,-224.5 458.5,-224.5"/>
<text text-anchor="middle" x="496" y="-231.5" font-family="Helvetica,sans-Serif" font-size="10.00">src/Map.cpp</text>
</a>
</g>
</g>
<!-- Node2&#45;&gt;Node15 -->
<g id="edge31" class="edge">
<title>Node2&#45;&gt;Node15</title>
<path fill="none" stroke="midnightblue" d="M311.6,-331.59C355.32,-308.69 443.17,-262.67 479.6,-243.59"/>
<polygon fill="midnightblue" stroke="midnightblue" points="309.71,-328.63 302.48,-336.37 312.96,-334.83 309.71,-328.63"/>
</g>
<!-- Node2&#45;&gt;Node16 -->
<g id="edge29" class="edge">
<title>Node2&#45;&gt;Node16</title>
<path fill="none" stroke="midnightblue" d="M331.42,-338.07C388.52,-329.33 489.56,-313.78 576,-300 580.68,-299.25 585.59,-298.46 590.46,-297.67"/>
<polygon fill="midnightblue" stroke="midnightblue" points="330.64,-334.65 321.28,-339.62 331.7,-341.57 330.64,-334.65"/>
</g>
<!-- Node3&#45;&gt;Node4 -->
<g id="edge3" class="edge">
<title>Node3&#45;&gt;Node4</title>
<path fill="none" stroke="midnightblue" d="M208.96,-221.3C176.74,-211.13 130.81,-196.62 101.97,-187.52"/>
<polygon fill="midnightblue" stroke="midnightblue" points="208.31,-224.77 218.9,-224.44 210.42,-218.09 208.31,-224.77"/>
</g>
<!-- Node3&#45;&gt;Node5 -->
<g id="edge4" class="edge">
<title>Node3&#45;&gt;Node5</title>
<path fill="none" stroke="midnightblue" d="M297.5,-222.7C350.61,-212.08 432.13,-195.77 479.13,-186.37"/>
<polygon fill="midnightblue" stroke="midnightblue" points="296.72,-219.29 287.6,-224.68 298.09,-226.15 296.72,-219.29"/>
</g>
<!-- Node8 -->
<g id="node8" class="node">
<title>Node8</title>
<g id="a_node8"><a xlink:href="Game_8h.html" target="_top" xlink:title=" ">
<polygon fill="white" stroke="black" points="443,-56.5 443,-75.5 515,-75.5 515,-56.5 443,-56.5"/>
<text text-anchor="middle" x="479" y="-63.5" font-family="Helvetica,sans-Serif" font-size="10.00">src/Game.h</text>
</a>
</g>
</g>
<!-- Node3&#45;&gt;Node8 -->
<g id="edge15" class="edge">
<title>Node3&#45;&gt;Node8</title>
<path fill="none" stroke="midnightblue" d="M254.71,-214.99C268.39,-188.56 297.38,-139.46 336,-112 353.34,-99.67 406.86,-84.73 443.27,-75.55"/>
<polygon fill="midnightblue" stroke="midnightblue" points="251.44,-213.7 250.08,-224.21 257.7,-216.84 251.44,-213.7"/>
</g>
<!-- Node3&#45;&gt;Node10 -->
<g id="edge16" class="edge">
<title>Node3&#45;&gt;Node10</title>
<path fill="none" stroke="midnightblue" d="M248.53,-214.3C254.7,-168.64 270.34,-52.85 274.8,-19.88"/>
<polygon fill="midnightblue" stroke="midnightblue" points="245.05,-213.92 247.18,-224.3 251.98,-214.86 245.05,-213.92"/>
</g>
<!-- Node3&#45;&gt;Node12 -->
<g id="edge12" class="edge">
<title>Node3&#45;&gt;Node12</title>
<path fill="none" stroke="midnightblue" d="M226.69,-218.1C214.09,-208.38 198.07,-196.03 187.45,-187.83"/>
<polygon fill="midnightblue" stroke="midnightblue" points="224.7,-220.99 234.75,-224.32 228.97,-215.44 224.7,-220.99"/>
</g>
<!-- Node6 -->
<g id="node6" class="node">
<title>Node6</title>
<g id="a_node6"><a xlink:href="Enemy_8h.html" target="_top" xlink:title=" ">
<polygon fill="white" stroke="black" points="344.5,-112.5 344.5,-131.5 419.5,-131.5 419.5,-112.5 344.5,-112.5"/>
<text text-anchor="middle" x="382" y="-119.5" font-family="Helvetica,sans-Serif" font-size="10.00">src/Enemy.h</text>
</a>
</g>
</g>
<!-- Node5&#45;&gt;Node6 -->
<g id="edge5" class="edge">
<title>Node5&#45;&gt;Node6</title>
<path fill="none" stroke="midnightblue" d="M485.32,-164.64C460.18,-154.5 425.25,-140.43 403.13,-131.52"/>
<polygon fill="midnightblue" stroke="midnightblue" points="484.18,-167.95 494.77,-168.44 486.8,-161.46 484.18,-167.95"/>
</g>
<!-- Node5&#45;&gt;Node8 -->
<g id="edge10" class="edge">
<title>Node5&#45;&gt;Node8</title>
<path fill="none" stroke="midnightblue" d="M540.92,-162.84C559.79,-150.2 580.63,-130.82 569,-112 557.24,-92.98 534.74,-81.73 515.18,-75.23"/>
<polygon fill="midnightblue" stroke="midnightblue" points="538.83,-160.02 532.24,-168.31 542.57,-165.94 538.83,-160.02"/>
</g>
<!-- Node11 -->
<g id="node11" class="node">
<title>Node11</title>
<g id="a_node11"><a xlink:href="Player_8cpp.html" target="_top" xlink:title=" ">
<polygon fill="white" stroke="black" points="476,-112.5 476,-131.5 560,-131.5 560,-112.5 476,-112.5"/>
<text text-anchor="middle" x="518" y="-119.5" font-family="Helvetica,sans-Serif" font-size="10.00">src/Player.cpp</text>
</a>
</g>
</g>
<!-- Node5&#45;&gt;Node11 -->
<g id="edge11" class="edge">
<title>Node5&#45;&gt;Node11</title>
<path fill="none" stroke="midnightblue" d="M516.71,-157.8C517.04,-148.91 517.42,-138.78 517.68,-131.75"/>
<polygon fill="midnightblue" stroke="midnightblue" points="513.2,-157.96 516.33,-168.08 520.2,-158.22 513.2,-157.96"/>
</g>
<!-- Node7 -->
<g id="node7" class="node">
<title>Node7</title>
<g id="a_node7"><a xlink:href="Enemy_8cpp.html" target="_top" xlink:title=" ">
<polygon fill="white" stroke="black" points="339,-56.5 339,-75.5 425,-75.5 425,-56.5 339,-56.5"/>
<text text-anchor="middle" x="382" y="-63.5" font-family="Helvetica,sans-Serif" font-size="10.00">src/Enemy.cpp</text>
</a>
</g>
</g>
<!-- Node6&#45;&gt;Node7 -->
<g id="edge6" class="edge">
<title>Node6&#45;&gt;Node7</title>
<path fill="none" stroke="midnightblue" d="M382,-101.8C382,-92.91 382,-82.78 382,-75.75"/>
<polygon fill="midnightblue" stroke="midnightblue" points="378.5,-102.08 382,-112.08 385.5,-102.08 378.5,-102.08"/>
</g>
<!-- Node6&#45;&gt;Node8 -->
<g id="edge7" class="edge">
<title>Node6&#45;&gt;Node8</title>
<path fill="none" stroke="midnightblue" d="M406.34,-107.45C424.24,-97.48 448.05,-84.23 463.45,-75.65"/>
<polygon fill="midnightblue" stroke="midnightblue" points="404.62,-104.4 397.58,-112.32 408.02,-110.52 404.62,-104.4"/>
</g>
<!-- Node9 -->
<g id="node9" class="node">
<title>Node9</title>
<g id="a_node9"><a xlink:href="Game_8cpp.html" target="_top" xlink:title=" ">
<polygon fill="white" stroke="black" points="437.5,-0.5 437.5,-19.5 520.5,-19.5 520.5,-0.5 437.5,-0.5"/>
<text text-anchor="middle" x="479" y="-7.5" font-family="Helvetica,sans-Serif" font-size="10.00">src/Game.cpp</text>
</a>
</g>
</g>
<!-- Node8&#45;&gt;Node9 -->
<g id="edge8" class="edge">
<title>Node8&#45;&gt;Node9</title>
<path fill="none" stroke="midnightblue" d="M479,-45.8C479,-36.91 479,-26.78 479,-19.75"/>
<polygon fill="midnightblue" stroke="midnightblue" points="475.5,-46.08 479,-56.08 482.5,-46.08 475.5,-46.08"/>
</g>
<!-- Node8&#45;&gt;Node10 -->
<g id="edge9" class="edge">
<title>Node8&#45;&gt;Node10</title>
<path fill="none" stroke="midnightblue" d="M437.01,-53.83C398.68,-43.63 342.85,-28.78 308.02,-19.52"/>
<polygon fill="midnightblue" stroke="midnightblue" points="436.27,-57.26 446.83,-56.44 438.07,-50.49 436.27,-57.26"/>
</g>
<!-- Node12&#45;&gt;Node6 -->
<g id="edge13" class="edge">
<title>Node12&#45;&gt;Node6</title>
<path fill="none" stroke="midnightblue" d="M218.62,-165.83C257.51,-155.63 314.16,-140.78 349.51,-131.52"/>
<polygon fill="midnightblue" stroke="midnightblue" points="217.43,-162.52 208.64,-168.44 219.2,-169.29 217.43,-162.52"/>
</g>
<!-- Node13 -->
<g id="node13" class="node">
<title>Node13</title>
<g id="a_node13"><a xlink:href="Tower_8cpp.html" target="_top" xlink:title=" ">
<polygon fill="white" stroke="black" points="130,-112.5 130,-131.5 212,-131.5 212,-112.5 130,-112.5"/>
<text text-anchor="middle" x="171" y="-119.5" font-family="Helvetica,sans-Serif" font-size="10.00">src/Tower.cpp</text>
</a>
</g>
</g>
<!-- Node12&#45;&gt;Node13 -->
<g id="edge14" class="edge">
<title>Node12&#45;&gt;Node13</title>
<path fill="none" stroke="midnightblue" d="M174.25,-158.1C173.42,-149.14 172.47,-138.86 171.81,-131.75"/>
<polygon fill="midnightblue" stroke="midnightblue" points="170.77,-158.45 175.17,-168.08 177.74,-157.8 170.77,-158.45"/>
</g>
<!-- Node14&#45;&gt;Node2 -->
<g id="edge18" class="edge">
<title>Node14&#45;&gt;Node2</title>
<path fill="none" stroke="midnightblue" d="M312.36,-309.1C308.02,-318.18 301.73,-328.77 296.12,-336.08"/>
<polygon fill="midnightblue" stroke="midnightblue" points="315.64,-310.33 316.27,-299.75 309.18,-307.62 315.64,-310.33"/>
</g>
<!-- Node14&#45;&gt;Node3 -->
<g id="edge19" class="edge">
<title>Node14&#45;&gt;Node3</title>
<path fill="none" stroke="midnightblue" d="M296.69,-274.1C284.09,-264.38 268.07,-252.03 257.45,-243.83"/>
<polygon fill="midnightblue" stroke="midnightblue" points="294.7,-276.99 304.75,-280.32 298.97,-271.44 294.7,-276.99"/>
</g>
<!-- Node14&#45;&gt;Node4 -->
<g id="edge20" class="edge">
<title>Node14&#45;&gt;Node4</title>
<path fill="none" stroke="midnightblue" d="M280.05,-277.12C255.7,-268.71 222.98,-256.71 195,-244 155.74,-226.17 111.65,-200.84 89.44,-187.68"/>
<polygon fill="midnightblue" stroke="midnightblue" points="279.01,-280.46 289.61,-280.38 281.28,-273.84 279.01,-280.46"/>
</g>
<!-- Node14&#45;&gt;Node5 -->
<g id="edge21" class="edge">
<title>Node14&#45;&gt;Node5</title>
<path fill="none" stroke="midnightblue" d="M343.43,-275.9C361.39,-267.18 385.29,-255.28 406,-244 441.26,-224.8 481.65,-200.26 502.29,-187.52"/>
<polygon fill="midnightblue" stroke="midnightblue" points="341.6,-272.9 334.12,-280.4 344.65,-279.2 341.6,-272.9"/>
</g>
<!-- Node14&#45;&gt;Node6 -->
<g id="edge22" class="edge">
<title>Node14&#45;&gt;Node6</title>
<path fill="none" stroke="midnightblue" d="M323.4,-270.39C337.63,-234.59 368.35,-157.34 378.59,-131.57"/>
<polygon fill="midnightblue" stroke="midnightblue" points="319.99,-269.49 319.55,-280.08 326.5,-272.08 319.99,-269.49"/>
</g>
<!-- Node14&#45;&gt;Node8 -->
<g id="edge23" class="edge">
<title>Node14&#45;&gt;Node8</title>
<path fill="none" stroke="midnightblue" d="M329.51,-272.54C336.35,-264.09 344.73,-253.59 352,-244 400.2,-180.4 455.22,-101.4 473.08,-75.59"/>
<polygon fill="midnightblue" stroke="midnightblue" points="326.64,-270.52 323.04,-280.48 332.07,-274.94 326.64,-270.52"/>
</g>
<!-- Node14&#45;&gt;Node10 -->
<g id="edge24" class="edge">
<title>Node14&#45;&gt;Node10</title>
<path fill="none" stroke="midnightblue" d="M313.4,-270.02C307.94,-230.28 294.8,-135.45 283,-56 281.12,-43.33 278.81,-28.68 277.38,-19.62"/>
<polygon fill="midnightblue" stroke="midnightblue" points="309.96,-270.67 314.78,-280.11 316.89,-269.72 309.96,-270.67"/>
</g>
<!-- Node14&#45;&gt;Node15 -->
<g id="edge25" class="edge">
<title>Node14&#45;&gt;Node15</title>
<path fill="none" stroke="midnightblue" d="M354.11,-277.57C388.06,-267.38 436.99,-252.7 467.61,-243.52"/>
<polygon fill="midnightblue" stroke="midnightblue" points="353.09,-274.22 344.52,-280.44 355.11,-280.92 353.09,-274.22"/>
</g>
</g>
</svg>
