<?xml version="1.0" encoding="UTF-8" standalone="no"?>
<!DOCTYPE svg PUBLIC "-//W3C//DTD SVG 1.1//EN"
 "http://www.w3.org/Graphics/SVG/1.1/DTD/svg11.dtd">
<!-- Generated by graphviz version 2.43.0 (0)
 -->
<!-- Title: src/Enemy.cpp Pages: 1 -->
<svg width="726pt" height="364pt"
 viewBox="0.00 0.00 725.50 364.00" xmlns="http://www.w3.org/2000/svg" xmlns:xlink="http://www.w3.org/1999/xlink">
<g id="graph0" class="graph" transform="scale(1 1) rotate(0) translate(4 360)">
<title>src/Enemy.cpp</title>
<polygon fill="white" stroke="transparent" points="-4,4 -4,-360 721.5,-360 721.5,4 -4,4"/>
<!-- Node1 -->
<g id="node1" class="node">
<title>Node1</title>
<g id="a_node1"><a xlink:title=" ">
<polygon fill="#bfbfbf" stroke="black" points="412.5,-336.5 412.5,-355.5 498.5,-355.5 498.5,-336.5 412.5,-336.5"/>
<text text-anchor="middle" x="455.5" y="-343.5" font-family="Helvetica,sans-Serif" font-size="10.00">src/Enemy.cpp</text>
</a>
</g>
</g>
<!-- Node2 -->
<g id="node2" class="node">
<title>Node2</title>
<g id="a_node2"><a xlink:href="Enemy_8h.html" target="_top" xlink:title=" ">
<polygon fill="white" stroke="black" points="246.5,-280.5 246.5,-299.5 304.5,-299.5 304.5,-280.5 246.5,-280.5"/>
<text text-anchor="middle" x="275.5" y="-287.5" font-family="Helvetica,sans-Serif" font-size="10.00">Enemy.h</text>
</a>
</g>
</g>
<!-- Node1&#45;&gt;Node2 -->
<g id="edge1" class="edge">
<title>Node1&#45;&gt;Node2</title>
<path fill="none" stroke="midnightblue" d="M426.98,-336.44C396.43,-327.28 347.79,-312.69 313.9,-302.52"/>
<polygon fill="midnightblue" stroke="midnightblue" points="314.47,-299.04 303.89,-299.52 312.46,-305.74 314.47,-299.04"/>
</g>
<!-- Node5 -->
<g id="node5" class="node">
<title>Node5</title>
<g id="a_node5"><a xlink:href="constants_8h.html" target="_top" xlink:title=" ">
<polygon fill="white" stroke="black" points="458,-56.5 458,-75.5 531,-75.5 531,-56.5 458,-56.5"/>
<text text-anchor="middle" x="494.5" y="-63.5" font-family="Helvetica,sans-Serif" font-size="10.00">constants.h</text>
</a>
</g>
</g>
<!-- Node1&#45;&gt;Node5 -->
<g id="edge32" class="edge">
<title>Node1&#45;&gt;Node5</title>
<path fill="none" stroke="midnightblue" d="M498.61,-338.08C551.87,-326.8 635.5,-298.91 635.5,-235 635.5,-235 635.5,-235 635.5,-177 635.5,-125.26 575.76,-94.27 534.05,-78.94"/>
<polygon fill="midnightblue" stroke="midnightblue" points="535,-75.56 524.4,-75.55 532.68,-82.17 535,-75.56"/>
</g>
<!-- Node6 -->
<g id="node6" class="node">
<title>Node6</title>
<g id="a_node6"><a xlink:href="Map_8h.html" target="_top" xlink:title=" ">
<polygon fill="white" stroke="black" points="200,-56.5 200,-75.5 247,-75.5 247,-56.5 200,-56.5"/>
<text text-anchor="middle" x="223.5" y="-63.5" font-family="Helvetica,sans-Serif" font-size="10.00">Map.h</text>
</a>
</g>
</g>
<!-- Node1&#45;&gt;Node6 -->
<g id="edge31" class="edge">
<title>Node1&#45;&gt;Node6</title>
<path fill="none" stroke="midnightblue" d="M412.37,-341.75C355.9,-336.57 261.29,-324.44 237.5,-300 180.17,-241.11 204.89,-129.29 217.64,-85.37"/>
<polygon fill="midnightblue" stroke="midnightblue" points="221.01,-86.32 220.56,-75.74 214.31,-84.29 221.01,-86.32"/>
</g>
<!-- Node15 -->
<g id="node15" class="node">
<title>Node15</title>
<g id="a_node15"><a xlink:title=" ">
<polygon fill="white" stroke="#bfbfbf" points="663.5,-280.5 663.5,-299.5 717.5,-299.5 717.5,-280.5 663.5,-280.5"/>
<text text-anchor="middle" x="690.5" y="-287.5" font-family="Helvetica,sans-Serif" font-size="10.00">random</text>
</a>
</g>
</g>
<!-- Node1&#45;&gt;Node15 -->
<g id="edge33" class="edge">
<title>Node1&#45;&gt;Node15</title>
<path fill="none" stroke="midnightblue" d="M492.74,-336.44C536.71,-326.34 609.41,-309.63 653.35,-299.54"/>
<polygon fill="midnightblue" stroke="midnightblue" points="654.37,-302.89 663.33,-297.24 652.8,-296.07 654.37,-302.89"/>
</g>
<!-- Node3 -->
<g id="node3" class="node">
<title>Node3</title>
<g id="a_node3"><a xlink:href="Player_8h.html" target="_top" xlink:title=" ">
<polygon fill="white" stroke="black" points="247.5,-224.5 247.5,-243.5 303.5,-243.5 303.5,-224.5 247.5,-224.5"/>
<text text-anchor="middle" x="275.5" y="-231.5" font-family="Helvetica,sans-Serif" font-size="10.00">Player.h</text>
</a>
</g>
</g>
<!-- Node2&#45;&gt;Node3 -->
<g id="edge2" class="edge">
<title>Node2&#45;&gt;Node3</title>
<path fill="none" stroke="midnightblue" d="M275.5,-280.08C275.5,-273.01 275.5,-262.86 275.5,-253.99"/>
<polygon fill="midnightblue" stroke="midnightblue" points="279,-253.75 275.5,-243.75 272,-253.75 279,-253.75"/>
</g>
<!-- Node2&#45;&gt;Node6 -->
<g id="edge27" class="edge">
<title>Node2&#45;&gt;Node6</title>
<path fill="none" stroke="midnightblue" d="M265.7,-280.46C256.88,-272.13 244.45,-258.62 238.5,-244 216.46,-189.83 218.84,-118.78 221.56,-85.59"/>
<polygon fill="midnightblue" stroke="midnightblue" points="225.05,-85.8 222.49,-75.52 218.08,-85.16 225.05,-85.8"/>
</g>
<!-- Node7 -->
<g id="node7" class="node">
<title>Node7</title>
<g id="a_node7"><a xlink:title=" ">
<polygon fill="white" stroke="#bfbfbf" points="82,-0.5 82,-19.5 129,-19.5 129,-0.5 82,-0.5"/>
<text text-anchor="middle" x="105.5" y="-7.5" font-family="Helvetica,sans-Serif" font-size="10.00">vector</text>
</a>
</g>
</g>
<!-- Node2&#45;&gt;Node7 -->
<g id="edge29" class="edge">
<title>Node2&#45;&gt;Node7</title>
<path fill="none" stroke="midnightblue" d="M264.2,-280.25C253.78,-271.77 238.32,-258.16 227.5,-244 172.03,-171.39 128.73,-69.92 112.47,-29.08"/>
<polygon fill="midnightblue" stroke="midnightblue" points="115.68,-27.68 108.77,-19.65 109.17,-30.24 115.68,-27.68"/>
</g>
<!-- Node9 -->
<g id="node9" class="node">
<title>Node9</title>
<g id="a_node9"><a xlink:title=" ">
<polygon fill="white" stroke="#bfbfbf" points="318.5,-0.5 318.5,-19.5 376.5,-19.5 376.5,-0.5 318.5,-0.5"/>
<text text-anchor="middle" x="347.5" y="-7.5" font-family="Helvetica,sans-Serif" font-size="10.00">memory</text>
</a>
</g>
</g>
<!-- Node2&#45;&gt;Node9 -->
<g id="edge28" class="edge">
<title>Node2&#45;&gt;Node9</title>
<path fill="none" stroke="midnightblue" d="M304.64,-285.4C383.91,-274.82 597.5,-240.59 597.5,-179 597.5,-179 597.5,-179 597.5,-121 597.5,-30.12 457.37,-13.66 386.94,-11.13"/>
<polygon fill="midnightblue" stroke="midnightblue" points="386.76,-7.62 376.67,-10.84 386.57,-14.62 386.76,-7.62"/>
</g>
<!-- Node10 -->
<g id="node10" class="node">
<title>Node10</title>
<g id="a_node10"><a xlink:title=" ">
<polygon fill="white" stroke="#bfbfbf" points="0,-0.5 0,-19.5 63,-19.5 63,-0.5 0,-0.5"/>
<text text-anchor="middle" x="31.5" y="-7.5" font-family="Helvetica,sans-Serif" font-size="10.00">ncurses.h</text>
</a>
</g>
</g>
<!-- Node2&#45;&gt;Node10 -->
<g id="edge30" class="edge">
<title>Node2&#45;&gt;Node10</title>
<path fill="none" stroke="midnightblue" d="M246.27,-289.85C177.17,-290.2 9.5,-280.57 9.5,-179 9.5,-179 9.5,-179 9.5,-121 9.5,-88.33 18.95,-51.24 25.46,-29.55"/>
<polygon fill="midnightblue" stroke="midnightblue" points="28.89,-30.31 28.53,-19.72 22.21,-28.22 28.89,-30.31"/>
</g>
<!-- Node14 -->
<g id="node14" class="node">
<title>Node14</title>
<g id="a_node14"><a xlink:href="Tower_8h.html" target="_top" xlink:title=" ">
<polygon fill="white" stroke="black" points="365,-224.5 365,-243.5 418,-243.5 418,-224.5 365,-224.5"/>
<text text-anchor="middle" x="391.5" y="-231.5" font-family="Helvetica,sans-Serif" font-size="10.00">Tower.h</text>
</a>
</g>
</g>
<!-- Node2&#45;&gt;Node14 -->
<g id="edge23" class="edge">
<title>Node2&#45;&gt;Node14</title>
<path fill="none" stroke="midnightblue" d="M293.88,-280.44C312.72,-271.68 342.23,-257.94 363.88,-247.86"/>
<polygon fill="midnightblue" stroke="midnightblue" points="365.62,-250.91 373.21,-243.52 362.66,-244.56 365.62,-250.91"/>
</g>
<!-- Node4 -->
<g id="node4" class="node">
<title>Node4</title>
<g id="a_node4"><a xlink:href="Entity_8h.html" target="_top" xlink:title=" ">
<polygon fill="white" stroke="black" points="380,-112.5 380,-131.5 433,-131.5 433,-112.5 380,-112.5"/>
<text text-anchor="middle" x="406.5" y="-119.5" font-family="Helvetica,sans-Serif" font-size="10.00">Entity.h</text>
</a>
</g>
</g>
<!-- Node3&#45;&gt;Node4 -->
<g id="edge3" class="edge">
<title>Node3&#45;&gt;Node4</title>
<path fill="none" stroke="midnightblue" d="M303.69,-226.79C326.47,-220.48 357.99,-208.61 378.5,-188 391.21,-175.23 398.54,-155.76 402.49,-141.46"/>
<polygon fill="midnightblue" stroke="midnightblue" points="405.9,-142.28 404.89,-131.73 399.1,-140.6 405.9,-142.28"/>
</g>
<!-- Node3&#45;&gt;Node6 -->
<g id="edge22" class="edge">
<title>Node3&#45;&gt;Node6</title>
<path fill="none" stroke="midnightblue" d="M272.7,-224.08C264.48,-197.83 240.27,-120.55 229.18,-85.12"/>
<polygon fill="midnightblue" stroke="midnightblue" points="232.51,-84.06 226.18,-75.57 225.83,-86.16 232.51,-84.06"/>
</g>
<!-- Node3&#45;&gt;Node7 -->
<g id="edge21" class="edge">
<title>Node3&#45;&gt;Node7</title>
<path fill="none" stroke="midnightblue" d="M268.84,-224.3C243.45,-191.15 152.53,-72.41 118.49,-27.96"/>
<polygon fill="midnightblue" stroke="midnightblue" points="121.16,-25.7 112.3,-19.88 115.6,-29.95 121.16,-25.7"/>
</g>
<!-- Node3&#45;&gt;Node9 -->
<g id="edge20" class="edge">
<title>Node3&#45;&gt;Node9</title>
<path fill="none" stroke="midnightblue" d="M277.36,-224.35C283.08,-198.37 301.45,-118.94 325.5,-56 329.03,-46.76 333.77,-36.85 337.94,-28.68"/>
<polygon fill="midnightblue" stroke="midnightblue" points="341.08,-30.24 342.63,-19.76 334.88,-26.98 341.08,-30.24"/>
</g>
<!-- Node13 -->
<g id="node13" class="node">
<title>Node13</title>
<g id="a_node13"><a xlink:href="Attacker_8h.html" target="_top" xlink:title=" ">
<polygon fill="white" stroke="black" points="304,-168.5 304,-187.5 369,-187.5 369,-168.5 304,-168.5"/>
<text text-anchor="middle" x="336.5" y="-175.5" font-family="Helvetica,sans-Serif" font-size="10.00">Attacker.h</text>
</a>
</g>
</g>
<!-- Node3&#45;&gt;Node13 -->
<g id="edge14" class="edge">
<title>Node3&#45;&gt;Node13</title>
<path fill="none" stroke="midnightblue" d="M285.3,-224.32C294.32,-216.34 307.91,-204.31 318.82,-194.65"/>
<polygon fill="midnightblue" stroke="midnightblue" points="321.35,-197.08 326.52,-187.83 316.71,-191.84 321.35,-197.08"/>
</g>
<!-- Node4&#45;&gt;Node5 -->
<g id="edge4" class="edge">
<title>Node4&#45;&gt;Node5</title>
<path fill="none" stroke="midnightblue" d="M420.64,-112.32C434.37,-103.9 455.44,-90.97 471.56,-81.07"/>
<polygon fill="midnightblue" stroke="midnightblue" points="473.7,-83.87 480.4,-75.65 470.04,-77.9 473.7,-83.87"/>
</g>
<!-- Node4&#45;&gt;Node6 -->
<g id="edge5" class="edge">
<title>Node4&#45;&gt;Node6</title>
<path fill="none" stroke="midnightblue" d="M379.84,-114.49C347.26,-105.6 292.46,-89.54 257.07,-78.58"/>
<polygon fill="midnightblue" stroke="midnightblue" points="257.79,-75.13 247.2,-75.49 255.7,-81.81 257.79,-75.13"/>
</g>
<!-- Node4&#45;&gt;Node9 -->
<g id="edge13" class="edge">
<title>Node4&#45;&gt;Node9</title>
<path fill="none" stroke="midnightblue" d="M409.67,-112.43C413.92,-99.43 419.92,-74.3 410.5,-56 403.42,-42.25 389.98,-31.77 377.32,-24.39"/>
<polygon fill="midnightblue" stroke="midnightblue" points="378.81,-21.22 368.35,-19.57 375.5,-27.39 378.81,-21.22"/>
</g>
<!-- Node12 -->
<g id="node12" class="node">
<title>Node12</title>
<g id="a_node12"><a xlink:title=" ">
<polygon fill="white" stroke="#bfbfbf" points="341.5,-56.5 341.5,-75.5 401.5,-75.5 401.5,-56.5 341.5,-56.5"/>
<text text-anchor="middle" x="371.5" y="-63.5" font-family="Helvetica,sans-Serif" font-size="10.00">iostream</text>
</a>
</g>
</g>
<!-- Node4&#45;&gt;Node12 -->
<g id="edge12" class="edge">
<title>Node4&#45;&gt;Node12</title>
<path fill="none" stroke="midnightblue" d="M400.72,-112.08C395.83,-104.53 388.67,-93.49 382.67,-84.23"/>
<polygon fill="midnightblue" stroke="midnightblue" points="385.55,-82.24 377.17,-75.75 379.67,-86.05 385.55,-82.24"/>
</g>
<!-- Node6&#45;&gt;Node4 -->
<g id="edge11" class="edge">
<title>Node6&#45;&gt;Node4</title>
<path fill="none" stroke="midnightblue" d="M247.16,-72.7C279.27,-81.38 336.38,-98.11 372.88,-109.41"/>
<polygon fill="midnightblue" stroke="midnightblue" points="372,-112.8 382.59,-112.44 374.09,-106.12 372,-112.8"/>
</g>
<!-- Node6&#45;&gt;Node7 -->
<g id="edge6" class="edge">
<title>Node6&#45;&gt;Node7</title>
<path fill="none" stroke="midnightblue" d="M204.8,-56.44C185.56,-47.64 155.35,-33.81 133.3,-23.72"/>
<polygon fill="midnightblue" stroke="midnightblue" points="134.66,-20.5 124.11,-19.52 131.75,-26.86 134.66,-20.5"/>
</g>
<!-- Node8 -->
<g id="node8" class="node">
<title>Node8</title>
<g id="a_node8"><a xlink:title=" ">
<polygon fill="white" stroke="#bfbfbf" points="167.5,-0.5 167.5,-19.5 211.5,-19.5 211.5,-0.5 167.5,-0.5"/>
<text text-anchor="middle" x="189.5" y="-7.5" font-family="Helvetica,sans-Serif" font-size="10.00">string</text>
</a>
</g>
</g>
<!-- Node6&#45;&gt;Node8 -->
<g id="edge7" class="edge">
<title>Node6&#45;&gt;Node8</title>
<path fill="none" stroke="midnightblue" d="M217.89,-56.08C213.13,-48.53 206.18,-37.49 200.35,-28.23"/>
<polygon fill="midnightblue" stroke="midnightblue" points="203.3,-26.35 195.01,-19.75 197.38,-30.08 203.3,-26.35"/>
</g>
<!-- Node6&#45;&gt;Node9 -->
<g id="edge8" class="edge">
<title>Node6&#45;&gt;Node9</title>
<path fill="none" stroke="midnightblue" d="M243.15,-56.44C263.46,-47.6 295.4,-33.69 318.6,-23.59"/>
<polygon fill="midnightblue" stroke="midnightblue" points="320.17,-26.72 327.94,-19.52 317.38,-20.3 320.17,-26.72"/>
</g>
<!-- Node6&#45;&gt;Node10 -->
<g id="edge9" class="edge">
<title>Node6&#45;&gt;Node10</title>
<path fill="none" stroke="midnightblue" d="M199.96,-58.38C168.06,-49.41 110.65,-33.26 71.82,-22.34"/>
<polygon fill="midnightblue" stroke="midnightblue" points="72.46,-18.88 61.88,-19.55 70.56,-25.62 72.46,-18.88"/>
</g>
<!-- Node11 -->
<g id="node11" class="node">
<title>Node11</title>
<g id="a_node11"><a xlink:title=" ">
<polygon fill="white" stroke="#bfbfbf" points="230,-0.5 230,-19.5 295,-19.5 295,-0.5 230,-0.5"/>
<text text-anchor="middle" x="262.5" y="-7.5" font-family="Helvetica,sans-Serif" font-size="10.00">functional</text>
</a>
</g>
</g>
<!-- Node6&#45;&gt;Node11 -->
<g id="edge10" class="edge">
<title>Node6&#45;&gt;Node11</title>
<path fill="none" stroke="midnightblue" d="M229.94,-56.08C235.45,-48.46 243.53,-37.26 250.26,-27.94"/>
<polygon fill="midnightblue" stroke="midnightblue" points="253.16,-29.91 256.18,-19.75 247.49,-25.81 253.16,-29.91"/>
</g>
<!-- Node13&#45;&gt;Node4 -->
<g id="edge15" class="edge">
<title>Node13&#45;&gt;Node4</title>
<path fill="none" stroke="midnightblue" d="M347.75,-168.32C358.3,-160.18 374.3,-147.84 386.94,-138.09"/>
<polygon fill="midnightblue" stroke="midnightblue" points="389.27,-140.71 395.05,-131.83 384.99,-135.17 389.27,-140.71"/>
</g>
<!-- Node13&#45;&gt;Node5 -->
<g id="edge16" class="edge">
<title>Node13&#45;&gt;Node5</title>
<path fill="none" stroke="midnightblue" d="M367.38,-168.38C389.74,-161.12 419.88,-149.15 442.5,-132 459.88,-118.82 474.84,-98.59 484.2,-84.2"/>
<polygon fill="midnightblue" stroke="midnightblue" points="487.16,-86.05 489.5,-75.72 481.23,-82.34 487.16,-86.05"/>
</g>
<!-- Node13&#45;&gt;Node6 -->
<g id="edge19" class="edge">
<title>Node13&#45;&gt;Node6</title>
<path fill="none" stroke="midnightblue" d="M327.63,-168.37C308.65,-149.89 263.86,-106.29 239.67,-82.74"/>
<polygon fill="midnightblue" stroke="midnightblue" points="241.93,-80.06 232.33,-75.59 237.05,-85.07 241.93,-80.06"/>
</g>
<!-- Node13&#45;&gt;Node7 -->
<g id="edge17" class="edge">
<title>Node13&#45;&gt;Node7</title>
<path fill="none" stroke="midnightblue" d="M322.13,-168.37C307.63,-159.56 284.69,-145.3 265.5,-132 213.11,-95.68 153.83,-49.43 124.3,-26.02"/>
<polygon fill="midnightblue" stroke="midnightblue" points="126.14,-23.01 116.14,-19.53 121.79,-28.49 126.14,-23.01"/>
</g>
<!-- Node13&#45;&gt;Node9 -->
<g id="edge18" class="edge">
<title>Node13&#45;&gt;Node9</title>
<path fill="none" stroke="midnightblue" d="M335.09,-168.42C332.06,-148.51 325.73,-97.7 332.5,-56 333.97,-46.96 336.99,-37.28 339.94,-29.22"/>
<polygon fill="midnightblue" stroke="midnightblue" points="343.26,-30.34 343.64,-19.75 336.74,-27.79 343.26,-30.34"/>
</g>
<!-- Node14&#45;&gt;Node4 -->
<g id="edge24" class="edge">
<title>Node14&#45;&gt;Node4</title>
<path fill="none" stroke="midnightblue" d="M396.63,-224.41C401.56,-215.61 408.66,-201.38 411.5,-188 414.77,-172.59 413.01,-154.71 410.71,-141.62"/>
<polygon fill="midnightblue" stroke="midnightblue" points="414.09,-140.63 408.68,-131.52 407.22,-142.01 414.09,-140.63"/>
</g>
<!-- Node14&#45;&gt;Node9 -->
<g id="edge26" class="edge">
<title>Node14&#45;&gt;Node9</title>
<path fill="none" stroke="midnightblue" d="M408.93,-224.49C458.44,-199.22 593.06,-122.23 540.5,-56 521.69,-32.3 437.63,-19.92 386.85,-14.5"/>
<polygon fill="midnightblue" stroke="midnightblue" points="387.17,-11.01 376.86,-13.48 386.45,-17.98 387.17,-11.01"/>
</g>
<!-- Node14&#45;&gt;Node13 -->
<g id="edge25" class="edge">
<title>Node14&#45;&gt;Node13</title>
<path fill="none" stroke="midnightblue" d="M382.42,-224.08C374.33,-216.14 362.3,-204.34 352.59,-194.8"/>
<polygon fill="midnightblue" stroke="midnightblue" points="355,-192.26 345.41,-187.75 350.1,-197.25 355,-192.26"/>
</g>
</g>
</svg>
