<?xml version="1.0" encoding="UTF-8" standalone="no"?>
<!DOCTYPE svg PUBLIC "-//W3C//DTD SVG 1.1//EN"
 "http://www.w3.org/Graphics/SVG/1.1/DTD/svg11.dtd">
<!-- Generated by graphviz version 2.43.0 (0)
 -->
<!-- Title: src/Enemy.h Pages: 1 -->
<svg width="451pt" height="308pt"
 viewBox="0.00 0.00 451.00 308.00" xmlns="http://www.w3.org/2000/svg" xmlns:xlink="http://www.w3.org/1999/xlink">
<g id="graph0" class="graph" transform="scale(1 1) rotate(0) translate(4 304)">
<title>src/Enemy.h</title>
<polygon fill="white" stroke="transparent" points="-4,4 -4,-304 447,-304 447,4 -4,4"/>
<!-- Node1 -->
<g id="node1" class="node">
<title>Node1</title>
<g id="a_node1"><a xlink:title=" ">
<polygon fill="#bfbfbf" stroke="black" points="162.5,-280.5 162.5,-299.5 237.5,-299.5 237.5,-280.5 162.5,-280.5"/>
<text text-anchor="middle" x="200" y="-287.5" font-family="Helvetica,sans-Serif" font-size="10.00">src/Enemy.h</text>
</a>
</g>
</g>
<!-- Node2 -->
<g id="node2" class="node">
<title>Node2</title>
<g id="a_node2"><a xlink:href="Player_8h.html" target="_top" target="_top" target="_top" xlink:title=" ">
<polygon fill="white" stroke="black" points="172,-224.5 172,-243.5 228,-243.5 228,-224.5 172,-224.5"/>
<text text-anchor="middle" x="200" y="-231.5" font-family="Helvetica,sans-Serif" font-size="10.00">Player.h</text>
</a>
</g>
</g>
<!-- Node1&#45;&gt;Node2 -->
<g id="edge1" class="edge">
<title>Node1&#45;&gt;Node2</title>
<path fill="none" stroke="midnightblue" d="M200,-280.08C200,-273.01 200,-262.86 200,-253.99"/>
<polygon fill="midnightblue" stroke="midnightblue" points="203.5,-253.75 200,-243.75 196.5,-253.75 203.5,-253.75"/>
</g>
<!-- Node5 -->
<g id="node5" class="node">
<title>Node5</title>
<g id="a_node5"><a xlink:href="Map_8h.html" target="_top" target="_top" target="_top" xlink:title=" ">
<polygon fill="white" stroke="black" points="149.5,-56.5 149.5,-75.5 196.5,-75.5 196.5,-56.5 149.5,-56.5"/>
<text text-anchor="middle" x="173" y="-63.5" font-family="Helvetica,sans-Serif" font-size="10.00">Map.h</text>
</a>
</g>
</g>
<!-- Node1&#45;&gt;Node5 -->
<g id="edge23" class="edge">
<title>Node1&#45;&gt;Node5</title>
<path fill="none" stroke="midnightblue" d="M189.56,-280.24C180.58,-271.97 168.25,-258.66 163,-244 143.32,-189.07 158.27,-118.44 167.35,-85.47"/>
<polygon fill="midnightblue" stroke="midnightblue" points="170.73,-86.4 170.15,-75.82 164.01,-84.45 170.73,-86.4"/>
</g>
<!-- Node6 -->
<g id="node6" class="node">
<title>Node6</title>
<g id="a_node6"><a xlink:title=" ">
<polygon fill="white" stroke="#bfbfbf" points="50.5,-0.5 50.5,-19.5 97.5,-19.5 97.5,-0.5 50.5,-0.5"/>
<text text-anchor="middle" x="74" y="-7.5" font-family="Helvetica,sans-Serif" font-size="10.00">vector</text>
</a>
</g>
</g>
<!-- Node1&#45;&gt;Node6 -->
<g id="edge25" class="edge">
<title>Node1&#45;&gt;Node6</title>
<path fill="none" stroke="midnightblue" d="M162.38,-285.23C104.45,-277.11 0,-252.31 0,-179 0,-179 0,-179 0,-121 0,-81.61 33.07,-45.73 55,-26.26"/>
<polygon fill="midnightblue" stroke="midnightblue" points="57.43,-28.79 62.76,-19.64 52.88,-23.47 57.43,-28.79"/>
</g>
<!-- Node9 -->
<g id="node9" class="node">
<title>Node9</title>
<g id="a_node9"><a xlink:title=" ">
<polygon fill="white" stroke="#bfbfbf" points="385,-56.5 385,-75.5 443,-75.5 443,-56.5 385,-56.5"/>
<text text-anchor="middle" x="414" y="-63.5" font-family="Helvetica,sans-Serif" font-size="10.00">memory</text>
</a>
</g>
</g>
<!-- Node1&#45;&gt;Node9 -->
<g id="edge24" class="edge">
<title>Node1&#45;&gt;Node9</title>
<path fill="none" stroke="midnightblue" d="M237.66,-287.45C273.15,-284.09 325.83,-273.97 360,-244 406.86,-202.9 413.71,-122.44 414.28,-85.88"/>
<polygon fill="midnightblue" stroke="midnightblue" points="417.78,-85.66 414.28,-75.66 410.78,-85.66 417.78,-85.66"/>
</g>
<!-- Node11 -->
<g id="node11" class="node">
<title>Node11</title>
<g id="a_node11"><a xlink:href="Tower_8h.html" target="_top" target="_top" target="_top" xlink:title=" ">
<polygon fill="white" stroke="black" points="297.5,-224.5 297.5,-243.5 350.5,-243.5 350.5,-224.5 297.5,-224.5"/>
<text text-anchor="middle" x="324" y="-231.5" font-family="Helvetica,sans-Serif" font-size="10.00">Tower.h</text>
</a>
</g>
</g>
<!-- Node1&#45;&gt;Node11 -->
<g id="edge19" class="edge">
<title>Node1&#45;&gt;Node11</title>
<path fill="none" stroke="midnightblue" d="M219.65,-280.44C239.96,-271.6 271.9,-257.69 295.1,-247.59"/>
<polygon fill="midnightblue" stroke="midnightblue" points="296.67,-250.72 304.44,-243.52 293.88,-244.3 296.67,-250.72"/>
</g>
<!-- Node3 -->
<g id="node3" class="node">
<title>Node3</title>
<g id="a_node3"><a xlink:href="Entity_8h.html" target="_top" target="_top" target="_top" xlink:title=" ">
<polygon fill="white" stroke="black" points="218.5,-112.5 218.5,-131.5 271.5,-131.5 271.5,-112.5 218.5,-112.5"/>
<text text-anchor="middle" x="245" y="-119.5" font-family="Helvetica,sans-Serif" font-size="10.00">Entity.h</text>
</a>
</g>
</g>
<!-- Node2&#45;&gt;Node3 -->
<g id="edge2" class="edge">
<title>Node2&#45;&gt;Node3</title>
<path fill="none" stroke="midnightblue" d="M202.04,-224.38C205.17,-211.74 211.67,-187.55 220,-168 224.03,-158.54 229.48,-148.5 234.27,-140.31"/>
<polygon fill="midnightblue" stroke="midnightblue" points="237.3,-142.06 239.45,-131.69 231.3,-138.45 237.3,-142.06"/>
</g>
<!-- Node2&#45;&gt;Node5 -->
<g id="edge18" class="edge">
<title>Node2&#45;&gt;Node5</title>
<path fill="none" stroke="midnightblue" d="M198.55,-224.08C194.3,-197.95 181.82,-121.21 176.02,-85.58"/>
<polygon fill="midnightblue" stroke="midnightblue" points="179.45,-84.88 174.39,-75.57 172.54,-86 179.45,-84.88"/>
</g>
<!-- Node2&#45;&gt;Node6 -->
<g id="edge17" class="edge">
<title>Node2&#45;&gt;Node6</title>
<path fill="none" stroke="midnightblue" d="M195.06,-224.3C176.36,-191.36 109.7,-73.9 84.11,-28.81"/>
<polygon fill="midnightblue" stroke="midnightblue" points="87.02,-26.85 79.04,-19.88 80.93,-30.31 87.02,-26.85"/>
</g>
<!-- Node2&#45;&gt;Node9 -->
<g id="edge16" class="edge">
<title>Node2&#45;&gt;Node9</title>
<path fill="none" stroke="midnightblue" d="M227.87,-224.39C249.57,-216.87 279.82,-204.56 303,-188 345.15,-157.9 383.38,-109.58 402.03,-84.06"/>
<polygon fill="midnightblue" stroke="midnightblue" points="404.99,-85.93 407.98,-75.77 399.3,-81.85 404.99,-85.93"/>
</g>
<!-- Node10 -->
<g id="node10" class="node">
<title>Node10</title>
<g id="a_node10"><a xlink:href="Attacker_8h.html" target="_top" target="_top" target="_top" xlink:title=" ">
<polygon fill="white" stroke="black" points="228.5,-168.5 228.5,-187.5 293.5,-187.5 293.5,-168.5 228.5,-168.5"/>
<text text-anchor="middle" x="261" y="-175.5" font-family="Helvetica,sans-Serif" font-size="10.00">Attacker.h</text>
</a>
</g>
</g>
<!-- Node2&#45;&gt;Node10 -->
<g id="edge10" class="edge">
<title>Node2&#45;&gt;Node10</title>
<path fill="none" stroke="midnightblue" d="M209.8,-224.32C218.82,-216.34 232.41,-204.31 243.32,-194.65"/>
<polygon fill="midnightblue" stroke="midnightblue" points="245.85,-197.08 251.02,-187.83 241.21,-191.84 245.85,-197.08"/>
</g>
<!-- Node4 -->
<g id="node4" class="node">
<title>Node4</title>
<g id="a_node4"><a xlink:href="constants_8h.html" target="_top" target="_top" target="_top" xlink:title=" ">
<polygon fill="white" stroke="black" points="293.5,-56.5 293.5,-75.5 366.5,-75.5 366.5,-56.5 293.5,-56.5"/>
<text text-anchor="middle" x="330" y="-63.5" font-family="Helvetica,sans-Serif" font-size="10.00">constants.h</text>
</a>
</g>
</g>
<!-- Node3&#45;&gt;Node4 -->
<g id="edge3" class="edge">
<title>Node3&#45;&gt;Node4</title>
<path fill="none" stroke="midnightblue" d="M258.66,-112.32C271.92,-103.9 292.27,-90.97 307.85,-81.07"/>
<polygon fill="midnightblue" stroke="midnightblue" points="309.81,-83.97 316.38,-75.65 306.06,-78.06 309.81,-83.97"/>
</g>
<!-- Node3&#45;&gt;Node5 -->
<g id="edge4" class="edge">
<title>Node3&#45;&gt;Node5</title>
<path fill="none" stroke="midnightblue" d="M228.32,-112.32C215.82,-104.26 199.23,-92.08 187.33,-82.37"/>
<polygon fill="midnightblue" stroke="midnightblue" points="189.52,-79.63 179.63,-75.83 184.99,-84.97 189.52,-79.63"/>
</g>
<!-- Node8 -->
<g id="node8" class="node">
<title>Node8</title>
<g id="a_node8"><a xlink:title=" ">
<polygon fill="white" stroke="#bfbfbf" points="215,-56.5 215,-75.5 275,-75.5 275,-56.5 215,-56.5"/>
<text text-anchor="middle" x="245" y="-63.5" font-family="Helvetica,sans-Serif" font-size="10.00">iostream</text>
</a>
</g>
</g>
<!-- Node3&#45;&gt;Node8 -->
<g id="edge8" class="edge">
<title>Node3&#45;&gt;Node8</title>
<path fill="none" stroke="midnightblue" d="M245,-112.08C245,-105.01 245,-94.86 245,-85.99"/>
<polygon fill="midnightblue" stroke="midnightblue" points="248.5,-85.75 245,-75.75 241.5,-85.75 248.5,-85.75"/>
</g>
<!-- Node3&#45;&gt;Node9 -->
<g id="edge9" class="edge">
<title>Node3&#45;&gt;Node9</title>
<path fill="none" stroke="midnightblue" d="M271.78,-112.44C300.33,-103.32 345.73,-88.81 377.54,-78.65"/>
<polygon fill="midnightblue" stroke="midnightblue" points="378.89,-81.89 387.35,-75.52 376.76,-75.23 378.89,-81.89"/>
</g>
<!-- Node5&#45;&gt;Node3 -->
<g id="edge7" class="edge">
<title>Node5&#45;&gt;Node3</title>
<path fill="none" stroke="midnightblue" d="M189.65,-75.65C202.21,-83.76 218.93,-96.04 230.85,-105.78"/>
<polygon fill="midnightblue" stroke="midnightblue" points="228.66,-108.51 238.55,-112.32 233.2,-103.18 228.66,-108.51"/>
</g>
<!-- Node5&#45;&gt;Node6 -->
<g id="edge5" class="edge">
<title>Node5&#45;&gt;Node6</title>
<path fill="none" stroke="midnightblue" d="M157.09,-56.32C141.36,-47.74 117.06,-34.49 98.79,-24.52"/>
<polygon fill="midnightblue" stroke="midnightblue" points="100.32,-21.37 89.87,-19.65 96.97,-27.52 100.32,-21.37"/>
</g>
<!-- Node7 -->
<g id="node7" class="node">
<title>Node7</title>
<g id="a_node7"><a xlink:title=" ">
<polygon fill="white" stroke="#bfbfbf" points="151,-0.5 151,-19.5 195,-19.5 195,-0.5 151,-0.5"/>
<text text-anchor="middle" x="173" y="-7.5" font-family="Helvetica,sans-Serif" font-size="10.00">string</text>
</a>
</g>
</g>
<!-- Node5&#45;&gt;Node7 -->
<g id="edge6" class="edge">
<title>Node5&#45;&gt;Node7</title>
<path fill="none" stroke="midnightblue" d="M173,-56.08C173,-49.01 173,-38.86 173,-29.99"/>
<polygon fill="midnightblue" stroke="midnightblue" points="176.5,-29.75 173,-19.75 169.5,-29.75 176.5,-29.75"/>
</g>
<!-- Node10&#45;&gt;Node3 -->
<g id="edge11" class="edge">
<title>Node10&#45;&gt;Node3</title>
<path fill="none" stroke="midnightblue" d="M258.36,-168.08C256.21,-160.85 253.12,-150.41 250.45,-141.4"/>
<polygon fill="midnightblue" stroke="midnightblue" points="253.79,-140.34 247.59,-131.75 247.08,-142.33 253.79,-140.34"/>
</g>
<!-- Node10&#45;&gt;Node4 -->
<g id="edge12" class="edge">
<title>Node10&#45;&gt;Node4</title>
<path fill="none" stroke="midnightblue" d="M266.41,-168.37C277.75,-150.3 304.17,-108.18 319.14,-84.31"/>
<polygon fill="midnightblue" stroke="midnightblue" points="322.26,-85.92 324.61,-75.59 316.33,-82.2 322.26,-85.92"/>
</g>
<!-- Node10&#45;&gt;Node5 -->
<g id="edge15" class="edge">
<title>Node10&#45;&gt;Node5</title>
<path fill="none" stroke="midnightblue" d="M249.05,-168.31C238.02,-159.88 221.62,-146.29 210,-132 198.12,-117.39 187.83,-98.47 181.13,-84.82"/>
<polygon fill="midnightblue" stroke="midnightblue" points="184.19,-83.1 176.75,-75.56 177.87,-86.09 184.19,-83.1"/>
</g>
<!-- Node10&#45;&gt;Node6 -->
<g id="edge13" class="edge">
<title>Node10&#45;&gt;Node6</title>
<path fill="none" stroke="midnightblue" d="M245.81,-168.41C231.37,-159.95 209.35,-146.26 192,-132 150.84,-98.17 108.7,-51.45 87.68,-27.15"/>
<polygon fill="midnightblue" stroke="midnightblue" points="90.33,-24.86 81.16,-19.55 85.01,-29.42 90.33,-24.86"/>
</g>
<!-- Node10&#45;&gt;Node9 -->
<g id="edge14" class="edge">
<title>Node10&#45;&gt;Node9</title>
<path fill="none" stroke="midnightblue" d="M273.01,-168.37C299.15,-149.57 361.47,-104.77 393.79,-81.53"/>
<polygon fill="midnightblue" stroke="midnightblue" points="395.97,-84.27 402.05,-75.59 391.89,-78.59 395.97,-84.27"/>
</g>
<!-- Node11&#45;&gt;Node3 -->
<g id="edge20" class="edge">
<title>Node11&#45;&gt;Node3</title>
<path fill="none" stroke="midnightblue" d="M322.86,-224.28C320.78,-211.07 315.39,-185.67 303,-168 294.19,-155.45 280.85,-144.75 269.18,-136.94"/>
<polygon fill="midnightblue" stroke="midnightblue" points="271.01,-133.95 260.69,-131.55 267.26,-139.86 271.01,-133.95"/>
</g>
<!-- Node11&#45;&gt;Node9 -->
<g id="edge22" class="edge">
<title>Node11&#45;&gt;Node9</title>
<path fill="none" stroke="midnightblue" d="M330.52,-224.48C343.25,-207.58 371.73,-168.3 390,-132 397.6,-116.89 404.1,-98.77 408.4,-85.5"/>
<polygon fill="midnightblue" stroke="midnightblue" points="411.83,-86.26 411.48,-75.67 405.15,-84.17 411.83,-86.26"/>
</g>
<!-- Node11&#45;&gt;Node10 -->
<g id="edge21" class="edge">
<title>Node11&#45;&gt;Node10</title>
<path fill="none" stroke="midnightblue" d="M313.88,-224.32C304.47,-216.26 290.26,-204.08 278.93,-194.37"/>
<polygon fill="midnightblue" stroke="midnightblue" points="281.18,-191.68 271.31,-187.83 276.62,-197 281.18,-191.68"/>
</g>
</g>
</svg>
