<?xml version="1.0" encoding="UTF-8" standalone="no"?>
<!DOCTYPE svg PUBLIC "-//W3C//DTD SVG 1.1//EN"
 "http://www.w3.org/Graphics/SVG/1.1/DTD/svg11.dtd">
<!-- Generated by graphviz version 2.43.0 (0)
 -->
<!-- Title: src/Enemy.h Pages: 1 -->
<svg width="1236pt" height="364pt"
 viewBox="0.00 0.00 1236.00 364.00" xmlns="http://www.w3.org/2000/svg" xmlns:xlink="http://www.w3.org/1999/xlink">
<g id="graph0" class="graph" transform="scale(1 1) rotate(0) translate(4 360)">
<title>src/Enemy.h</title>
<polygon fill="white" stroke="transparent" points="-4,4 -4,-360 1232,-360 1232,4 -4,4"/>
<!-- Node1 -->
<g id="node1" class="node">
<title>Node1</title>
<g id="a_node1"><a xlink:title=" ">
<polygon fill="#bfbfbf" stroke="black" points="889.5,-336.5 889.5,-355.5 964.5,-355.5 964.5,-336.5 889.5,-336.5"/>
<text text-anchor="middle" x="927" y="-343.5" font-family="Helvetica,sans-Serif" font-size="10.00">src/Enemy.h</text>
</a>
</g>
</g>
<!-- Node2 -->
<g id="node2" class="node">
<title>Node2</title>
<g id="a_node2"><a xlink:href="Player_8h.html" target="_top" xlink:title=" ">
<polygon fill="white" stroke="black" points="282,-280.5 282,-299.5 338,-299.5 338,-280.5 282,-280.5"/>
<text text-anchor="middle" x="310" y="-287.5" font-family="Helvetica,sans-Serif" font-size="10.00">Player.h</text>
</a>
</g>
</g>
<!-- Node1&#45;&gt;Node2 -->
<g id="edge1" class="edge">
<title>Node1&#45;&gt;Node2</title>
<path fill="none" stroke="midnightblue" d="M889.33,-341.7C779.33,-332.08 459.34,-304.07 348.4,-294.36"/>
<polygon fill="midnightblue" stroke="midnightblue" points="348.6,-290.87 338.33,-293.48 347.99,-297.84 348.6,-290.87"/>
</g>
<!-- Node4 -->
<g id="node4" class="node">
<title>Node4</title>
<g id="a_node4"><a xlink:href="constants_8h.html" target="_top" xlink:title=" ">
<polygon fill="white" stroke="black" points="623.5,-0.5 623.5,-19.5 696.5,-19.5 696.5,-0.5 623.5,-0.5"/>
<text text-anchor="middle" x="660" y="-7.5" font-family="Helvetica,sans-Serif" font-size="10.00">constants.h</text>
</a>
</g>
</g>
<!-- Node1&#45;&gt;Node4 -->
<g id="edge58" class="edge">
<title>Node1&#45;&gt;Node4</title>
<path fill="none" stroke="midnightblue" d="M964.65,-342.82C1027.26,-336.93 1146,-315.2 1146,-235 1146,-235 1146,-235 1146,-121 1146,-31.48 828.34,-14.81 706.66,-11.71"/>
<polygon fill="midnightblue" stroke="midnightblue" points="706.61,-8.21 696.53,-11.47 706.44,-15.2 706.61,-8.21"/>
</g>
<!-- Node5 -->
<g id="node5" class="node">
<title>Node5</title>
<g id="a_node5"><a xlink:href="Map_8h.html" target="_top" xlink:title=" ">
<polygon fill="white" stroke="black" points="349.5,-112.5 349.5,-131.5 396.5,-131.5 396.5,-112.5 349.5,-112.5"/>
<text text-anchor="middle" x="373" y="-119.5" font-family="Helvetica,sans-Serif" font-size="10.00">Map.h</text>
</a>
</g>
</g>
<!-- Node1&#45;&gt;Node5 -->
<g id="edge49" class="edge">
<title>Node1&#45;&gt;Node5</title>
<path fill="none" stroke="midnightblue" d="M889.13,-343.94C768.08,-340.31 391.58,-327.09 273,-300 207.67,-285.07 170.57,-299.49 133,-244 80.03,-165.76 260.99,-135.59 338.97,-126.4"/>
<polygon fill="midnightblue" stroke="midnightblue" points="339.71,-129.83 349.25,-125.23 338.92,-122.88 339.71,-129.83"/>
</g>
<!-- Node6 -->
<g id="node6" class="node">
<title>Node6</title>
<g id="a_node6"><a xlink:title=" ">
<polygon fill="white" stroke="#bfbfbf" points="205.5,-56.5 205.5,-75.5 252.5,-75.5 252.5,-56.5 205.5,-56.5"/>
<text text-anchor="middle" x="229" y="-63.5" font-family="Helvetica,sans-Serif" font-size="10.00">vector</text>
</a>
</g>
</g>
<!-- Node1&#45;&gt;Node6 -->
<g id="edge56" class="edge">
<title>Node1&#45;&gt;Node6</title>
<path fill="none" stroke="midnightblue" d="M889.07,-344.48C744.5,-342.27 232.88,-332.2 168,-300 113.73,-273.07 104.96,-221.17 134,-168 153.35,-132.56 188.13,-100.2 209.81,-82.1"/>
<polygon fill="midnightblue" stroke="midnightblue" points="212.15,-84.71 217.68,-75.67 207.72,-79.29 212.15,-84.71"/>
</g>
<!-- Node8 -->
<g id="node8" class="node">
<title>Node8</title>
<g id="a_node8"><a xlink:title=" ">
<polygon fill="white" stroke="#bfbfbf" points="677,-56.5 677,-75.5 735,-75.5 735,-56.5 677,-56.5"/>
<text text-anchor="middle" x="706" y="-63.5" font-family="Helvetica,sans-Serif" font-size="10.00">memory</text>
</a>
</g>
</g>
<!-- Node1&#45;&gt;Node8 -->
<g id="edge55" class="edge">
<title>Node1&#45;&gt;Node8</title>
<path fill="none" stroke="midnightblue" d="M964.5,-339.35C1017.52,-328.99 1108,-301.56 1108,-235 1108,-235 1108,-235 1108,-177 1108,-137.08 1081.59,-130.09 1046,-112 994.17,-85.65 823.52,-73.31 745.52,-68.95"/>
<polygon fill="midnightblue" stroke="midnightblue" points="745.33,-65.43 735.15,-68.38 744.95,-72.42 745.33,-65.43"/>
</g>
<!-- Node9 -->
<g id="node9" class="node">
<title>Node9</title>
<g id="a_node9"><a xlink:title=" ">
<polygon fill="white" stroke="#bfbfbf" points="495.5,-56.5 495.5,-75.5 558.5,-75.5 558.5,-56.5 495.5,-56.5"/>
<text text-anchor="middle" x="527" y="-63.5" font-family="Helvetica,sans-Serif" font-size="10.00">ncurses.h</text>
</a>
</g>
</g>
<!-- Node1&#45;&gt;Node9 -->
<g id="edge57" class="edge">
<title>Node1&#45;&gt;Node9</title>
<path fill="none" stroke="midnightblue" d="M945.29,-336.35C975.37,-320.69 1032,-284.63 1032,-235 1032,-235 1032,-235 1032,-177 1032,-125.1 983.75,-129.8 935,-112 901.13,-99.63 665.84,-78.7 568.75,-70.47"/>
<polygon fill="midnightblue" stroke="midnightblue" points="568.96,-66.97 558.7,-69.62 568.37,-73.95 568.96,-66.97"/>
</g>
<!-- Node12 -->
<g id="node12" class="node">
<title>Node12</title>
<g id="a_node12"><a xlink:href="Definitions_8h.html" target="_top" xlink:title=" ">
<polygon fill="white" stroke="black" points="109,-56.5 109,-75.5 187,-75.5 187,-56.5 109,-56.5"/>
<text text-anchor="middle" x="148" y="-63.5" font-family="Helvetica,sans-Serif" font-size="10.00">Definitions.h</text>
</a>
</g>
</g>
<!-- Node1&#45;&gt;Node12 -->
<g id="edge50" class="edge">
<title>Node1&#45;&gt;Node12</title>
<path fill="none" stroke="midnightblue" d="M889.44,-344.8C752.48,-343.78 280.35,-337.54 135,-300 70.52,-283.35 0,-301.59 0,-235 0,-235 0,-235 0,-177 0,-124.02 61.84,-93.57 105.58,-78.66"/>
<polygon fill="midnightblue" stroke="midnightblue" points="106.73,-81.97 115.15,-75.54 104.56,-75.31 106.73,-81.97"/>
</g>
<!-- Node26 -->
<g id="node26" class="node">
<title>Node26</title>
<g id="a_node26"><a xlink:href="Tower_8h.html" target="_top" xlink:title=" ">
<polygon fill="white" stroke="black" points="853.5,-280.5 853.5,-299.5 906.5,-299.5 906.5,-280.5 853.5,-280.5"/>
<text text-anchor="middle" x="880" y="-287.5" font-family="Helvetica,sans-Serif" font-size="10.00">Tower.h</text>
</a>
</g>
</g>
<!-- Node1&#45;&gt;Node26 -->
<g id="edge44" class="edge">
<title>Node1&#45;&gt;Node26</title>
<path fill="none" stroke="midnightblue" d="M919.24,-336.08C912.46,-328.3 902.46,-316.8 894.24,-307.37"/>
<polygon fill="midnightblue" stroke="midnightblue" points="896.82,-305 887.62,-299.75 891.54,-309.59 896.82,-305"/>
</g>
<!-- Node27 -->
<g id="node27" class="node">
<title>Node27</title>
<g id="a_node27"><a xlink:href="logFile_8h.html" target="_top" xlink:title=" ">
<polygon fill="white" stroke="black" points="946,-224.5 946,-243.5 1004,-243.5 1004,-224.5 946,-224.5"/>
<text text-anchor="middle" x="975" y="-231.5" font-family="Helvetica,sans-Serif" font-size="10.00">logFile.h</text>
</a>
</g>
</g>
<!-- Node1&#45;&gt;Node27 -->
<g id="edge51" class="edge">
<title>Node1&#45;&gt;Node27</title>
<path fill="none" stroke="midnightblue" d="M930.77,-336.37C938.58,-318.46 956.71,-276.92 967.17,-252.95"/>
<polygon fill="midnightblue" stroke="midnightblue" points="970.46,-254.16 971.25,-243.59 964.04,-251.36 970.46,-254.16"/>
</g>
<!-- Node28 -->
<g id="node28" class="node">
<title>Node28</title>
<g id="a_node28"><a xlink:title=" ">
<polygon fill="white" stroke="#bfbfbf" points="1174,-280.5 1174,-299.5 1228,-299.5 1228,-280.5 1174,-280.5"/>
<text text-anchor="middle" x="1201" y="-287.5" font-family="Helvetica,sans-Serif" font-size="10.00">random</text>
</a>
</g>
</g>
<!-- Node1&#45;&gt;Node28 -->
<g id="edge59" class="edge">
<title>Node1&#45;&gt;Node28</title>
<path fill="none" stroke="midnightblue" d="M964.59,-338.04C1010.69,-329.44 1091.2,-314.19 1160,-300 1161.24,-299.74 1162.51,-299.48 1163.79,-299.21"/>
<polygon fill="midnightblue" stroke="midnightblue" points="1164.63,-302.61 1173.67,-297.1 1163.16,-295.77 1164.63,-302.61"/>
</g>
<!-- Node3 -->
<g id="node3" class="node">
<title>Node3</title>
<g id="a_node3"><a xlink:href="Entity_8h.html" target="_top" xlink:title=" ">
<polygon fill="white" stroke="black" points="470.5,-168.5 470.5,-187.5 523.5,-187.5 523.5,-168.5 470.5,-168.5"/>
<text text-anchor="middle" x="497" y="-175.5" font-family="Helvetica,sans-Serif" font-size="10.00">Entity.h</text>
</a>
</g>
</g>
<!-- Node2&#45;&gt;Node3 -->
<g id="edge2" class="edge">
<title>Node2&#45;&gt;Node3</title>
<path fill="none" stroke="midnightblue" d="M324.67,-280.37C356.9,-261.41 434.1,-216 473.3,-192.94"/>
<polygon fill="midnightblue" stroke="midnightblue" points="475.55,-195.68 482.39,-187.59 472,-189.64 475.55,-195.68"/>
</g>
<!-- Node2&#45;&gt;Node5 -->
<g id="edge41" class="edge">
<title>Node2&#45;&gt;Node5</title>
<path fill="none" stroke="midnightblue" d="M299.23,-280.33C275.04,-259.79 220.58,-207.01 248,-168 268.43,-138.92 309.55,-128.55 339.05,-124.89"/>
<polygon fill="midnightblue" stroke="midnightblue" points="339.75,-128.34 349.34,-123.83 339.03,-121.38 339.75,-128.34"/>
</g>
<!-- Node2&#45;&gt;Node6 -->
<g id="edge40" class="edge">
<title>Node2&#45;&gt;Node6</title>
<path fill="none" stroke="midnightblue" d="M291.65,-280.38C277.53,-272.79 258.67,-260.39 248,-244 215.74,-194.43 221.09,-120.06 225.85,-85.67"/>
<polygon fill="midnightblue" stroke="midnightblue" points="229.33,-86.05 227.39,-75.63 222.42,-84.99 229.33,-86.05"/>
</g>
<!-- Node2&#45;&gt;Node8 -->
<g id="edge39" class="edge">
<title>Node2&#45;&gt;Node8</title>
<path fill="none" stroke="midnightblue" d="M303.63,-280.32C288.7,-258.86 254.74,-202.52 282,-168 288.08,-160.3 563.1,-98.67 666.9,-75.64"/>
<polygon fill="midnightblue" stroke="midnightblue" points="667.68,-79.06 676.68,-73.47 666.16,-72.22 667.68,-79.06"/>
</g>
<!-- Node2&#45;&gt;Node12 -->
<g id="edge38" class="edge">
<title>Node2&#45;&gt;Node12</title>
<path fill="none" stroke="midnightblue" d="M281.96,-286.01C236.79,-280.56 151.15,-267.34 133,-244 96.29,-196.78 123.81,-119.53 139.31,-84.84"/>
<polygon fill="midnightblue" stroke="midnightblue" points="142.6,-86.07 143.65,-75.52 136.25,-83.11 142.6,-86.07"/>
</g>
<!-- Node18 -->
<g id="node18" class="node">
<title>Node18</title>
<g id="a_node18"><a xlink:href="Attacker_8h.html" target="_top" xlink:title=" ">
<polygon fill="white" stroke="black" points="548.5,-224.5 548.5,-243.5 613.5,-243.5 613.5,-224.5 548.5,-224.5"/>
<text text-anchor="middle" x="581" y="-231.5" font-family="Helvetica,sans-Serif" font-size="10.00">Attacker.h</text>
</a>
</g>
</g>
<!-- Node2&#45;&gt;Node18 -->
<g id="edge23" class="edge">
<title>Node2&#45;&gt;Node18</title>
<path fill="none" stroke="midnightblue" d="M338.23,-283.37C385.84,-273.89 482.33,-254.66 538.27,-243.52"/>
<polygon fill="midnightblue" stroke="midnightblue" points="539.09,-246.92 548.22,-241.53 537.73,-240.05 539.09,-246.92"/>
</g>
<!-- Node19 -->
<g id="node19" class="node">
<title>Node19</title>
<g id="a_node19"><a xlink:title=" ">
<polygon fill="white" stroke="#bfbfbf" points="290.5,-168.5 290.5,-187.5 337.5,-187.5 337.5,-168.5 290.5,-168.5"/>
<text text-anchor="middle" x="314" y="-175.5" font-family="Helvetica,sans-Serif" font-size="10.00">queue</text>
</a>
</g>
</g>
<!-- Node2&#45;&gt;Node19 -->
<g id="edge43" class="edge">
<title>Node2&#45;&gt;Node19</title>
<path fill="none" stroke="midnightblue" d="M313.6,-280.22C317.06,-271.28 322.03,-256.94 324,-244 326.39,-228.3 323.23,-210.48 319.85,-197.47"/>
<polygon fill="midnightblue" stroke="midnightblue" points="323.2,-196.47 317.07,-187.83 316.47,-198.41 323.2,-196.47"/>
</g>
<!-- Node25 -->
<g id="node25" class="node">
<title>Node25</title>
<g id="a_node25"><a xlink:title=" ">
<polygon fill="white" stroke="#bfbfbf" points="142,-224.5 142,-243.5 206,-243.5 206,-224.5 142,-224.5"/>
<text text-anchor="middle" x="174" y="-231.5" font-family="Helvetica,sans-Serif" font-size="10.00">algorithm</text>
</a>
</g>
</g>
<!-- Node2&#45;&gt;Node25 -->
<g id="edge42" class="edge">
<title>Node2&#45;&gt;Node25</title>
<path fill="none" stroke="midnightblue" d="M288.45,-280.44C265.97,-271.52 230.51,-257.44 205.02,-247.32"/>
<polygon fill="midnightblue" stroke="midnightblue" points="206.03,-243.95 195.45,-243.52 203.45,-250.46 206.03,-243.95"/>
</g>
<!-- Node3&#45;&gt;Node4 -->
<g id="edge3" class="edge">
<title>Node3&#45;&gt;Node4</title>
<path fill="none" stroke="midnightblue" d="M505.76,-168.08C532.09,-141.27 610.72,-61.19 644.4,-26.89"/>
<polygon fill="midnightblue" stroke="midnightblue" points="647.08,-29.16 651.59,-19.57 642.08,-24.25 647.08,-29.16"/>
</g>
<!-- Node3&#45;&gt;Node5 -->
<g id="edge4" class="edge">
<title>Node3&#45;&gt;Node5</title>
<path fill="none" stroke="midnightblue" d="M472.26,-168.44C450.2,-159.68 418.4,-145.94 396.68,-135.86"/>
<polygon fill="midnightblue" stroke="midnightblue" points="398.01,-132.62 387.48,-131.52 395.03,-138.95 398.01,-132.62"/>
</g>
<!-- Node3&#45;&gt;Node8 -->
<g id="edge20" class="edge">
<title>Node3&#45;&gt;Node8</title>
<path fill="none" stroke="midnightblue" d="M519.35,-168.43C540.71,-159.99 573.62,-146.3 601,-132 631.13,-116.26 664.21,-95.09 685.03,-81.25"/>
<polygon fill="midnightblue" stroke="midnightblue" points="687.06,-84.1 693.42,-75.63 683.17,-78.28 687.06,-84.1"/>
</g>
<!-- Node3&#45;&gt;Node9 -->
<g id="edge22" class="edge">
<title>Node3&#45;&gt;Node9</title>
<path fill="none" stroke="midnightblue" d="M499.35,-168.37C504.22,-150.54 515.46,-109.3 522.02,-85.27"/>
<polygon fill="midnightblue" stroke="midnightblue" points="525.4,-86.16 524.66,-75.59 518.65,-84.32 525.4,-86.16"/>
</g>
<!-- Node16 -->
<g id="node16" class="node">
<title>Node16</title>
<g id="a_node16"><a xlink:title=" ">
<polygon fill="white" stroke="#bfbfbf" points="363,-0.5 363,-19.5 423,-19.5 423,-0.5 363,-0.5"/>
<text text-anchor="middle" x="393" y="-7.5" font-family="Helvetica,sans-Serif" font-size="10.00">iostream</text>
</a>
</g>
</g>
<!-- Node3&#45;&gt;Node16 -->
<g id="edge19" class="edge">
<title>Node3&#45;&gt;Node16</title>
<path fill="none" stroke="midnightblue" d="M491.41,-168.08C474.83,-141.61 425.71,-63.21 403.78,-28.21"/>
<polygon fill="midnightblue" stroke="midnightblue" points="406.64,-26.18 398.37,-19.57 400.71,-29.9 406.64,-26.18"/>
</g>
<!-- Node17 -->
<g id="node17" class="node">
<title>Node17</title>
<g id="a_node17"><a xlink:title=" ">
<polygon fill="white" stroke="#bfbfbf" points="653,-112.5 653,-131.5 685,-131.5 685,-112.5 653,-112.5"/>
<text text-anchor="middle" x="669" y="-119.5" font-family="Helvetica,sans-Serif" font-size="10.00">set</text>
</a>
</g>
</g>
<!-- Node3&#45;&gt;Node17 -->
<g id="edge21" class="edge">
<title>Node3&#45;&gt;Node17</title>
<path fill="none" stroke="midnightblue" d="M523.88,-168.56C556.44,-158.34 610.94,-141.23 643.07,-131.14"/>
<polygon fill="midnightblue" stroke="midnightblue" points="644.17,-134.46 652.66,-128.13 642.07,-127.79 644.17,-134.46"/>
</g>
<!-- Node5&#45;&gt;Node3 -->
<g id="edge11" class="edge">
<title>Node5&#45;&gt;Node3</title>
<path fill="none" stroke="midnightblue" d="M396.75,-131.16C418.76,-139.88 451.06,-153.82 473.11,-164.04"/>
<polygon fill="midnightblue" stroke="midnightblue" points="471.9,-167.34 482.44,-168.44 474.89,-161.01 471.9,-167.34"/>
</g>
<!-- Node5&#45;&gt;Node6 -->
<g id="edge5" class="edge">
<title>Node5&#45;&gt;Node6</title>
<path fill="none" stroke="midnightblue" d="M350.18,-112.44C326.17,-103.44 288.17,-89.19 261.13,-79.05"/>
<polygon fill="midnightblue" stroke="midnightblue" points="262.3,-75.75 251.71,-75.52 259.84,-82.3 262.3,-75.75"/>
</g>
<!-- Node7 -->
<g id="node7" class="node">
<title>Node7</title>
<g id="a_node7"><a xlink:title=" ">
<polygon fill="white" stroke="#bfbfbf" points="521,-0.5 521,-19.5 565,-19.5 565,-0.5 521,-0.5"/>
<text text-anchor="middle" x="543" y="-7.5" font-family="Helvetica,sans-Serif" font-size="10.00">string</text>
</a>
</g>
</g>
<!-- Node5&#45;&gt;Node7 -->
<g id="edge6" class="edge">
<title>Node5&#45;&gt;Node7</title>
<path fill="none" stroke="midnightblue" d="M386.34,-112.37C415.51,-93.49 485.22,-48.38 521,-25.24"/>
<polygon fill="midnightblue" stroke="midnightblue" points="523.23,-27.96 529.72,-19.59 519.43,-22.09 523.23,-27.96"/>
</g>
<!-- Node5&#45;&gt;Node8 -->
<g id="edge7" class="edge">
<title>Node5&#45;&gt;Node8</title>
<path fill="none" stroke="midnightblue" d="M396.65,-115.08C401.39,-113.99 406.34,-112.91 411,-112 502.2,-94.27 610.4,-79.3 667.02,-71.92"/>
<polygon fill="midnightblue" stroke="midnightblue" points="667.51,-75.39 676.97,-70.63 666.61,-68.44 667.51,-75.39"/>
</g>
<!-- Node5&#45;&gt;Node9 -->
<g id="edge8" class="edge">
<title>Node5&#45;&gt;Node9</title>
<path fill="none" stroke="midnightblue" d="M396.73,-112.68C422.46,-103.66 463.77,-89.17 492.96,-78.93"/>
<polygon fill="midnightblue" stroke="midnightblue" points="494.46,-82.12 502.74,-75.51 492.14,-75.51 494.46,-82.12"/>
</g>
<!-- Node10 -->
<g id="node10" class="node">
<title>Node10</title>
<g id="a_node10"><a xlink:title=" ">
<polygon fill="white" stroke="#bfbfbf" points="335.5,-56.5 335.5,-75.5 400.5,-75.5 400.5,-56.5 335.5,-56.5"/>
<text text-anchor="middle" x="368" y="-63.5" font-family="Helvetica,sans-Serif" font-size="10.00">functional</text>
</a>
</g>
</g>
<!-- Node5&#45;&gt;Node10 -->
<g id="edge9" class="edge">
<title>Node5&#45;&gt;Node10</title>
<path fill="none" stroke="midnightblue" d="M372.17,-112.08C371.52,-105.01 370.58,-94.86 369.76,-85.99"/>
<polygon fill="midnightblue" stroke="midnightblue" points="373.22,-85.39 368.81,-75.75 366.25,-86.03 373.22,-85.39"/>
</g>
<!-- Node11 -->
<g id="node11" class="node">
<title>Node11</title>
<g id="a_node11"><a xlink:title=" ">
<polygon fill="white" stroke="#bfbfbf" points="270.5,-56.5 270.5,-75.5 317.5,-75.5 317.5,-56.5 270.5,-56.5"/>
<text text-anchor="middle" x="294" y="-63.5" font-family="Helvetica,sans-Serif" font-size="10.00">cmath</text>
</a>
</g>
</g>
<!-- Node5&#45;&gt;Node11 -->
<g id="edge10" class="edge">
<title>Node5&#45;&gt;Node11</title>
<path fill="none" stroke="midnightblue" d="M360.31,-112.32C348.1,-103.98 329.42,-91.21 315,-81.35"/>
<polygon fill="midnightblue" stroke="midnightblue" points="316.89,-78.41 306.66,-75.65 312.94,-84.19 316.89,-78.41"/>
</g>
<!-- Node5&#45;&gt;Node12 -->
<g id="edge12" class="edge">
<title>Node5&#45;&gt;Node12</title>
<path fill="none" stroke="midnightblue" d="M349.35,-115.32C312.45,-106.47 240.55,-89.21 193.41,-77.9"/>
<polygon fill="midnightblue" stroke="midnightblue" points="194,-74.44 183.46,-75.51 192.37,-81.25 194,-74.44"/>
</g>
<!-- Node12&#45;&gt;Node4 -->
<g id="edge18" class="edge">
<title>Node12&#45;&gt;Node4</title>
<path fill="none" stroke="midnightblue" d="M187.27,-57.48C190.55,-56.94 193.83,-56.44 197,-56 363.71,-32.77 406.52,-36.76 574,-20 586.6,-18.74 600.24,-17.33 612.86,-16.01"/>
<polygon fill="midnightblue" stroke="midnightblue" points="613.6,-19.45 623.18,-14.93 612.87,-12.49 613.6,-19.45"/>
</g>
<!-- Node12&#45;&gt;Node7 -->
<g id="edge15" class="edge">
<title>Node12&#45;&gt;Node7</title>
<path fill="none" stroke="midnightblue" d="M187.02,-57.64C190.39,-57.07 193.75,-56.51 197,-56 311.89,-37.99 449.04,-21.69 510.46,-14.66"/>
<polygon fill="midnightblue" stroke="midnightblue" points="511.14,-18.1 520.68,-13.49 510.35,-11.15 511.14,-18.1"/>
</g>
<!-- Node13 -->
<g id="node13" class="node">
<title>Node13</title>
<g id="a_node13"><a xlink:title=" ">
<polygon fill="white" stroke="#bfbfbf" points="120.5,-0.5 120.5,-19.5 175.5,-19.5 175.5,-0.5 120.5,-0.5"/>
<text text-anchor="middle" x="148" y="-7.5" font-family="Helvetica,sans-Serif" font-size="10.00">fstream</text>
</a>
</g>
</g>
<!-- Node12&#45;&gt;Node13 -->
<g id="edge13" class="edge">
<title>Node12&#45;&gt;Node13</title>
<path fill="none" stroke="midnightblue" d="M148,-56.08C148,-49.01 148,-38.86 148,-29.99"/>
<polygon fill="midnightblue" stroke="midnightblue" points="151.5,-29.75 148,-19.75 144.5,-29.75 151.5,-29.75"/>
</g>
<!-- Node14 -->
<g id="node14" class="node">
<title>Node14</title>
<g id="a_node14"><a xlink:title=" ">
<polygon fill="white" stroke="#bfbfbf" points="194,-0.5 194,-19.5 232,-19.5 232,-0.5 194,-0.5"/>
<text text-anchor="middle" x="213" y="-7.5" font-family="Helvetica,sans-Serif" font-size="10.00">map</text>
</a>
</g>
</g>
<!-- Node12&#45;&gt;Node14 -->
<g id="edge14" class="edge">
<title>Node12&#45;&gt;Node14</title>
<path fill="none" stroke="midnightblue" d="M158.44,-56.32C168.15,-48.26 182.82,-36.08 194.5,-26.37"/>
<polygon fill="midnightblue" stroke="midnightblue" points="196.91,-28.92 202.37,-19.83 192.44,-23.53 196.91,-28.92"/>
</g>
<!-- Node15 -->
<g id="node15" class="node">
<title>Node15</title>
<g id="a_node15"><a xlink:title=" ">
<polygon fill="white" stroke="#bfbfbf" points="46,-0.5 46,-19.5 102,-19.5 102,-0.5 46,-0.5"/>
<text text-anchor="middle" x="74" y="-7.5" font-family="Helvetica,sans-Serif" font-size="10.00">sstream</text>
</a>
</g>
</g>
<!-- Node12&#45;&gt;Node15 -->
<g id="edge16" class="edge">
<title>Node12&#45;&gt;Node15</title>
<path fill="none" stroke="midnightblue" d="M136.11,-56.32C124.85,-48.11 107.71,-35.6 94.29,-25.81"/>
<polygon fill="midnightblue" stroke="midnightblue" points="96.25,-22.9 86.11,-19.83 92.12,-28.56 96.25,-22.9"/>
</g>
<!-- Node12&#45;&gt;Node16 -->
<g id="edge17" class="edge">
<title>Node12&#45;&gt;Node16</title>
<path fill="none" stroke="midnightblue" d="M186.82,-56.44C232.23,-46.43 307.03,-29.95 352.96,-19.83"/>
<polygon fill="midnightblue" stroke="midnightblue" points="353.84,-23.21 362.86,-17.64 352.34,-16.38 353.84,-23.21"/>
</g>
<!-- Node18&#45;&gt;Node3 -->
<g id="edge24" class="edge">
<title>Node18&#45;&gt;Node3</title>
<path fill="none" stroke="midnightblue" d="M567.5,-224.32C554.4,-215.9 534.29,-202.97 518.89,-193.07"/>
<polygon fill="midnightblue" stroke="midnightblue" points="520.77,-190.12 510.46,-187.65 516.98,-196.01 520.77,-190.12"/>
</g>
<!-- Node18&#45;&gt;Node4 -->
<g id="edge25" class="edge">
<title>Node18&#45;&gt;Node4</title>
<path fill="none" stroke="midnightblue" d="M613.73,-229.28C659.21,-223.36 737.86,-210.14 755,-188 791.04,-141.45 777.75,-104.24 744,-56 733.38,-40.81 715.97,-30.3 699.74,-23.28"/>
<polygon fill="midnightblue" stroke="midnightblue" points="700.98,-20 690.39,-19.54 698.38,-26.5 700.98,-20"/>
</g>
<!-- Node18&#45;&gt;Node5 -->
<g id="edge31" class="edge">
<title>Node18&#45;&gt;Node5</title>
<path fill="none" stroke="midnightblue" d="M551.67,-224.36C526.98,-216.51 491.14,-203.77 462,-188 435.64,-173.73 408.2,-152.58 390.89,-138.31"/>
<polygon fill="midnightblue" stroke="midnightblue" points="392.73,-135.29 382.81,-131.56 388.23,-140.66 392.73,-135.29"/>
</g>
<!-- Node18&#45;&gt;Node6 -->
<g id="edge26" class="edge">
<title>Node18&#45;&gt;Node6</title>
<path fill="none" stroke="midnightblue" d="M548.27,-226.09C516.48,-218.77 467.25,-205.8 427,-188 357.67,-157.34 283.28,-106.37 248.73,-81.52"/>
<polygon fill="midnightblue" stroke="midnightblue" points="250.6,-78.55 240.45,-75.52 246.49,-84.22 250.6,-78.55"/>
</g>
<!-- Node18&#45;&gt;Node8 -->
<g id="edge28" class="edge">
<title>Node18&#45;&gt;Node8</title>
<path fill="none" stroke="midnightblue" d="M613.52,-228.26C654.72,-221.5 722.17,-207.71 737,-188 760.58,-156.65 735.36,-109.19 718.53,-84.04"/>
<polygon fill="midnightblue" stroke="midnightblue" points="721.21,-81.76 712.61,-75.57 715.47,-85.77 721.21,-81.76"/>
</g>
<!-- Node18&#45;&gt;Node12 -->
<g id="edge36" class="edge">
<title>Node18&#45;&gt;Node12</title>
<path fill="none" stroke="midnightblue" d="M548.42,-228.67C508.28,-222.65 438.45,-209.95 382,-188 365.3,-181.51 362.77,-176.5 347,-168 286.01,-135.12 213.11,-98.89 174.71,-80.03"/>
<polygon fill="midnightblue" stroke="midnightblue" points="176.24,-76.89 165.72,-75.63 173.16,-83.17 176.24,-76.89"/>
</g>
<!-- Node18&#45;&gt;Node17 -->
<g id="edge27" class="edge">
<title>Node18&#45;&gt;Node17</title>
<path fill="none" stroke="midnightblue" d="M576.38,-224.23C570.1,-210.96 560.84,-185.48 572,-168 580.16,-155.22 617.39,-140.43 643.27,-131.4"/>
<polygon fill="midnightblue" stroke="midnightblue" points="644.55,-134.66 652.89,-128.12 642.29,-128.04 644.55,-134.66"/>
</g>
<!-- Node18&#45;&gt;Node19 -->
<g id="edge29" class="edge">
<title>Node18&#45;&gt;Node19</title>
<path fill="none" stroke="midnightblue" d="M548.31,-226.99C503.8,-218.7 421.69,-203.1 352,-188 350.55,-187.69 349.07,-187.36 347.58,-187.03"/>
<polygon fill="midnightblue" stroke="midnightblue" points="348.21,-183.58 337.68,-184.76 346.65,-190.4 348.21,-183.58"/>
</g>
<!-- Node20 -->
<g id="node20" class="node">
<title>Node20</title>
<g id="a_node20"><a xlink:title=" ">
<polygon fill="white" stroke="#bfbfbf" points="580.5,-168.5 580.5,-187.5 627.5,-187.5 627.5,-168.5 580.5,-168.5"/>
<text text-anchor="middle" x="604" y="-175.5" font-family="Helvetica,sans-Serif" font-size="10.00">deque</text>
</a>
</g>
</g>
<!-- Node18&#45;&gt;Node20 -->
<g id="edge30" class="edge">
<title>Node18&#45;&gt;Node20</title>
<path fill="none" stroke="midnightblue" d="M584.8,-224.08C587.91,-216.77 592.42,-206.18 596.29,-197.1"/>
<polygon fill="midnightblue" stroke="midnightblue" points="599.57,-198.32 600.27,-187.75 593.13,-195.58 599.57,-198.32"/>
</g>
<!-- Node21 -->
<g id="node21" class="node">
<title>Node21</title>
<g id="a_node21"><a xlink:href="exceptions_8h.html" target="_top" xlink:title=" ">
<polygon fill="white" stroke="black" points="924.5,-168.5 924.5,-187.5 1003.5,-187.5 1003.5,-168.5 924.5,-168.5"/>
<text text-anchor="middle" x="964" y="-175.5" font-family="Helvetica,sans-Serif" font-size="10.00">exceptions.h</text>
</a>
</g>
</g>
<!-- Node18&#45;&gt;Node21 -->
<g id="edge32" class="edge">
<title>Node18&#45;&gt;Node21</title>
<path fill="none" stroke="midnightblue" d="M613.65,-228.4C680.74,-218.94 834.45,-197.27 914.1,-186.04"/>
<polygon fill="midnightblue" stroke="midnightblue" points="914.95,-189.45 924.36,-184.59 913.97,-182.52 914.95,-189.45"/>
</g>
<!-- Node23 -->
<g id="node23" class="node">
<title>Node23</title>
<g id="a_node23"><a xlink:href="HelpStructs_8h.html" target="_top" xlink:title=" ">
<polygon fill="white" stroke="black" points="646,-168.5 646,-187.5 728,-187.5 728,-168.5 646,-168.5"/>
<text text-anchor="middle" x="687" y="-175.5" font-family="Helvetica,sans-Serif" font-size="10.00">HelpStructs.h</text>
</a>
</g>
</g>
<!-- Node18&#45;&gt;Node23 -->
<g id="edge35" class="edge">
<title>Node18&#45;&gt;Node23</title>
<path fill="none" stroke="midnightblue" d="M598.03,-224.32C615.03,-215.66 641.38,-202.24 660.99,-192.25"/>
<polygon fill="midnightblue" stroke="midnightblue" points="662.69,-195.31 670.01,-187.65 659.51,-189.08 662.69,-195.31"/>
</g>
<!-- Node24 -->
<g id="node24" class="node">
<title>Node24</title>
<g id="a_node24"><a xlink:title=" ">
<polygon fill="white" stroke="#bfbfbf" points="822.5,-168.5 822.5,-187.5 867.5,-187.5 867.5,-168.5 822.5,-168.5"/>
<text text-anchor="middle" x="845" y="-175.5" font-family="Helvetica,sans-Serif" font-size="10.00">utility</text>
</a>
</g>
</g>
<!-- Node18&#45;&gt;Node24 -->
<g id="edge37" class="edge">
<title>Node18&#45;&gt;Node24</title>
<path fill="none" stroke="midnightblue" d="M613.8,-226.96C658.01,-218.7 739.15,-203.19 808,-188 809.45,-187.68 810.94,-187.35 812.43,-187"/>
<polygon fill="midnightblue" stroke="midnightblue" points="813.4,-190.37 822.34,-184.68 811.8,-183.56 813.4,-190.37"/>
</g>
<!-- Node21&#45;&gt;Node7 -->
<g id="edge33" class="edge">
<title>Node21&#45;&gt;Node7</title>
<path fill="none" stroke="midnightblue" d="M962.56,-168.47C959.77,-154.58 952.31,-127.12 935,-112 880.32,-64.22 658.46,-27.76 574.98,-15.48"/>
<polygon fill="midnightblue" stroke="midnightblue" points="575.45,-12.02 565.05,-14.04 574.44,-18.94 575.45,-12.02"/>
</g>
<!-- Node22 -->
<g id="node22" class="node">
<title>Node22</title>
<g id="a_node22"><a xlink:title=" ">
<polygon fill="white" stroke="#bfbfbf" points="860.5,-112.5 860.5,-131.5 925.5,-131.5 925.5,-112.5 860.5,-112.5"/>
<text text-anchor="middle" x="893" y="-119.5" font-family="Helvetica,sans-Serif" font-size="10.00">exception</text>
</a>
</g>
</g>
<!-- Node21&#45;&gt;Node22 -->
<g id="edge34" class="edge">
<title>Node21&#45;&gt;Node22</title>
<path fill="none" stroke="midnightblue" d="M952.59,-168.32C941.89,-160.18 925.66,-147.84 912.84,-138.09"/>
<polygon fill="midnightblue" stroke="midnightblue" points="914.69,-135.1 904.61,-131.83 910.46,-140.67 914.69,-135.1"/>
</g>
<!-- Node26&#45;&gt;Node3 -->
<g id="edge45" class="edge">
<title>Node26&#45;&gt;Node3</title>
<path fill="none" stroke="midnightblue" d="M853.4,-288.29C782.76,-285.96 592.31,-276.72 540,-244 522.66,-233.16 510.81,-212.46 504.01,-197.33"/>
<polygon fill="midnightblue" stroke="midnightblue" points="507.17,-195.82 500.1,-187.93 500.71,-198.51 507.17,-195.82"/>
</g>
<!-- Node26&#45;&gt;Node8 -->
<g id="edge47" class="edge">
<title>Node26&#45;&gt;Node8</title>
<path fill="none" stroke="midnightblue" d="M882.45,-280.32C887.83,-259.32 898.6,-204.78 877,-168 848.29,-119.11 785.9,-91.36 744.96,-77.76"/>
<polygon fill="midnightblue" stroke="midnightblue" points="745.88,-74.38 735.29,-74.68 743.76,-81.05 745.88,-74.38"/>
</g>
<!-- Node26&#45;&gt;Node18 -->
<g id="edge46" class="edge">
<title>Node26&#45;&gt;Node18</title>
<path fill="none" stroke="midnightblue" d="M853.47,-284.21C801.61,-274.84 686.44,-254.04 623.72,-242.71"/>
<polygon fill="midnightblue" stroke="midnightblue" points="624.21,-239.25 613.75,-240.91 622.97,-246.14 624.21,-239.25"/>
</g>
<!-- Node26&#45;&gt;Node21 -->
<g id="edge48" class="edge">
<title>Node26&#45;&gt;Node21</title>
<path fill="none" stroke="midnightblue" d="M886.59,-280.37C900.52,-262.14 933.13,-219.43 951.27,-195.68"/>
<polygon fill="midnightblue" stroke="midnightblue" points="954.15,-197.66 957.44,-187.59 948.59,-193.41 954.15,-197.66"/>
</g>
<!-- Node27&#45;&gt;Node7 -->
<g id="edge52" class="edge">
<title>Node27&#45;&gt;Node7</title>
<path fill="none" stroke="midnightblue" d="M986.42,-224.14C1000.6,-211.98 1021.9,-189.22 1013,-168 977.14,-82.5 925.69,-83.03 837,-56 812.28,-48.46 646.38,-25.19 575.27,-15.4"/>
<polygon fill="midnightblue" stroke="midnightblue" points="575.48,-11.9 565.1,-14.01 574.53,-18.84 575.48,-11.9"/>
</g>
<!-- Node27&#45;&gt;Node21 -->
<g id="edge54" class="edge">
<title>Node27&#45;&gt;Node21</title>
<path fill="none" stroke="midnightblue" d="M973.18,-224.08C971.73,-216.93 969.63,-206.64 967.81,-197.69"/>
<polygon fill="midnightblue" stroke="midnightblue" points="971.21,-196.85 965.78,-187.75 964.35,-198.25 971.21,-196.85"/>
</g>
<!-- Node27&#45;&gt;Node24 -->
<g id="edge53" class="edge">
<title>Node27&#45;&gt;Node24</title>
<path fill="none" stroke="midnightblue" d="M954.4,-224.44C933.01,-215.56 899.32,-201.56 874.98,-191.45"/>
<polygon fill="midnightblue" stroke="midnightblue" points="876.08,-188.12 865.5,-187.52 873.39,-194.58 876.08,-188.12"/>
</g>
</g>
</svg>
