<?xml version="1.0" encoding="UTF-8" standalone="no"?>
<!DOCTYPE svg PUBLIC "-//W3C//DTD SVG 1.1//EN"
 "http://www.w3.org/Graphics/SVG/1.1/DTD/svg11.dtd">
<!-- Generated by graphviz version 2.43.0 (0)
 -->
<!-- Title: src/Enemy.h Pages: 1 -->
<svg width="558pt" height="308pt"
 viewBox="0.00 0.00 558.00 308.00" xmlns="http://www.w3.org/2000/svg" xmlns:xlink="http://www.w3.org/1999/xlink">
<g id="graph0" class="graph" transform="scale(1 1) rotate(0) translate(4 304)">
<title>src/Enemy.h</title>
<polygon fill="white" stroke="transparent" points="-4,4 -4,-304 554,-304 554,4 -4,4"/>
<!-- Node1 -->
<g id="node1" class="node">
<title>Node1</title>
<g id="a_node1"><a xlink:title=" ">
<polygon fill="#bfbfbf" stroke="black" points="210.5,-280.5 210.5,-299.5 285.5,-299.5 285.5,-280.5 210.5,-280.5"/>
<text text-anchor="middle" x="248" y="-287.5" font-family="Helvetica,sans-Serif" font-size="10.00">src/Enemy.h</text>
</a>
</g>
</g>
<!-- Node2 -->
<g id="node2" class="node">
<title>Node2</title>
<g id="a_node2"><a xlink:href="Player_8h.html" target="_top" xlink:title=" ">
<polygon fill="white" stroke="black" points="184,-224.5 184,-243.5 240,-243.5 240,-224.5 184,-224.5"/>
<text text-anchor="middle" x="212" y="-231.5" font-family="Helvetica,sans-Serif" font-size="10.00">Player.h</text>
</a>
</g>
</g>
<!-- Node1&#45;&gt;Node2 -->
<g id="edge1" class="edge">
<title>Node1&#45;&gt;Node2</title>
<path fill="none" stroke="midnightblue" d="M242.06,-280.08C237.02,-272.53 229.66,-261.49 223.49,-252.23"/>
<polygon fill="midnightblue" stroke="midnightblue" points="226.29,-250.13 217.83,-243.75 220.47,-254.01 226.29,-250.13"/>
</g>
<!-- Node5 -->
<g id="node5" class="node">
<title>Node5</title>
<g id="a_node5"><a xlink:href="Map_8h.html" target="_top" xlink:title=" ">
<polygon fill="white" stroke="black" points="114.5,-56.5 114.5,-75.5 161.5,-75.5 161.5,-56.5 114.5,-56.5"/>
<text text-anchor="middle" x="138" y="-63.5" font-family="Helvetica,sans-Serif" font-size="10.00">Map.h</text>
</a>
</g>
</g>
<!-- Node1&#45;&gt;Node5 -->
<g id="edge26" class="edge">
<title>Node1&#45;&gt;Node5</title>
<path fill="none" stroke="midnightblue" d="M225.36,-280.39C209.07,-273.07 187.79,-261.02 175,-244 138.92,-195.96 136.11,-120.84 136.99,-85.96"/>
<polygon fill="midnightblue" stroke="midnightblue" points="140.49,-85.91 137.38,-75.78 133.5,-85.63 140.49,-85.91"/>
</g>
<!-- Node6 -->
<g id="node6" class="node">
<title>Node6</title>
<g id="a_node6"><a xlink:title=" ">
<polygon fill="white" stroke="#bfbfbf" points="32.5,-0.5 32.5,-19.5 79.5,-19.5 79.5,-0.5 32.5,-0.5"/>
<text text-anchor="middle" x="56" y="-7.5" font-family="Helvetica,sans-Serif" font-size="10.00">vector</text>
</a>
</g>
</g>
<!-- Node1&#45;&gt;Node6 -->
<g id="edge28" class="edge">
<title>Node1&#45;&gt;Node6</title>
<path fill="none" stroke="midnightblue" d="M210.33,-288.81C140.96,-286.26 0,-269.9 0,-179 0,-179 0,-179 0,-121 0,-84.44 24.88,-47.75 41.47,-27.34"/>
<polygon fill="midnightblue" stroke="midnightblue" points="44.2,-29.54 47.98,-19.64 38.85,-25.02 44.2,-29.54"/>
</g>
<!-- Node8 -->
<g id="node8" class="node">
<title>Node8</title>
<g id="a_node8"><a xlink:title=" ">
<polygon fill="white" stroke="#bfbfbf" points="284,-0.5 284,-19.5 342,-19.5 342,-0.5 284,-0.5"/>
<text text-anchor="middle" x="313" y="-7.5" font-family="Helvetica,sans-Serif" font-size="10.00">memory</text>
</a>
</g>
</g>
<!-- Node1&#45;&gt;Node8 -->
<g id="edge27" class="edge">
<title>Node1&#45;&gt;Node8</title>
<path fill="none" stroke="midnightblue" d="M285.54,-289.73C358.43,-289 512,-275.95 512,-179 512,-179 512,-179 512,-121 512,-48.76 410.3,-23.59 352.3,-15.11"/>
<polygon fill="midnightblue" stroke="midnightblue" points="352.74,-11.64 342.36,-13.76 351.8,-18.57 352.74,-11.64"/>
</g>
<!-- Node9 -->
<g id="node9" class="node">
<title>Node9</title>
<g id="a_node9"><a xlink:title=" ">
<polygon fill="white" stroke="#bfbfbf" points="439.5,-0.5 439.5,-19.5 502.5,-19.5 502.5,-0.5 439.5,-0.5"/>
<text text-anchor="middle" x="471" y="-7.5" font-family="Helvetica,sans-Serif" font-size="10.00">ncurses.h</text>
</a>
</g>
</g>
<!-- Node1&#45;&gt;Node9 -->
<g id="edge29" class="edge">
<title>Node1&#45;&gt;Node9</title>
<path fill="none" stroke="midnightblue" d="M285.65,-285.76C347.29,-279.91 466.41,-266.07 502,-244 532.52,-225.08 550,-214.91 550,-179 550,-179 550,-179 550,-121 550,-80.79 514.75,-45.22 491.34,-26.03"/>
<polygon fill="midnightblue" stroke="midnightblue" points="493.36,-23.17 483.34,-19.72 489.03,-28.66 493.36,-23.17"/>
</g>
<!-- Node13 -->
<g id="node13" class="node">
<title>Node13</title>
<g id="a_node13"><a xlink:href="Tower_8h.html" target="_top" xlink:title=" ">
<polygon fill="white" stroke="black" points="301.5,-224.5 301.5,-243.5 354.5,-243.5 354.5,-224.5 301.5,-224.5"/>
<text text-anchor="middle" x="328" y="-231.5" font-family="Helvetica,sans-Serif" font-size="10.00">Tower.h</text>
</a>
</g>
</g>
<!-- Node1&#45;&gt;Node13 -->
<g id="edge22" class="edge">
<title>Node1&#45;&gt;Node13</title>
<path fill="none" stroke="midnightblue" d="M260.85,-280.32C273.22,-271.98 292.13,-259.21 306.74,-249.35"/>
<polygon fill="midnightblue" stroke="midnightblue" points="308.85,-252.15 315.18,-243.65 304.93,-246.35 308.85,-252.15"/>
</g>
<!-- Node3 -->
<g id="node3" class="node">
<title>Node3</title>
<g id="a_node3"><a xlink:href="Entity_8h.html" target="_top" xlink:title=" ">
<polygon fill="white" stroke="black" points="294.5,-112.5 294.5,-131.5 347.5,-131.5 347.5,-112.5 294.5,-112.5"/>
<text text-anchor="middle" x="321" y="-119.5" font-family="Helvetica,sans-Serif" font-size="10.00">Entity.h</text>
</a>
</g>
</g>
<!-- Node2&#45;&gt;Node3 -->
<g id="edge2" class="edge">
<title>Node2&#45;&gt;Node3</title>
<path fill="none" stroke="midnightblue" d="M236.39,-224.41C254.1,-217.1 277.57,-205.06 293,-188 304.97,-174.77 312.37,-155.64 316.53,-141.56"/>
<polygon fill="midnightblue" stroke="midnightblue" points="320,-142.12 319.2,-131.55 313.24,-140.31 320,-142.12"/>
</g>
<!-- Node2&#45;&gt;Node5 -->
<g id="edge21" class="edge">
<title>Node2&#45;&gt;Node5</title>
<path fill="none" stroke="midnightblue" d="M203.48,-224.4C195.4,-215.82 183.43,-201.95 176,-188 157.95,-154.11 146.86,-110.25 141.62,-85.72"/>
<polygon fill="midnightblue" stroke="midnightblue" points="144.99,-84.74 139.57,-75.64 138.13,-86.14 144.99,-84.74"/>
</g>
<!-- Node2&#45;&gt;Node6 -->
<g id="edge20" class="edge">
<title>Node2&#45;&gt;Node6</title>
<path fill="none" stroke="midnightblue" d="M201.23,-224.31C190.86,-215.66 175.01,-201.74 163,-188 123.09,-142.32 114.82,-128.82 85,-76 76.37,-60.72 68.39,-42.38 62.99,-29.09"/>
<polygon fill="midnightblue" stroke="midnightblue" points="66.2,-27.67 59.26,-19.66 59.69,-30.25 66.2,-27.67"/>
</g>
<!-- Node2&#45;&gt;Node8 -->
<g id="edge19" class="edge">
<title>Node2&#45;&gt;Node8</title>
<path fill="none" stroke="midnightblue" d="M210.42,-224.2C205.95,-196.4 195.92,-109.19 235,-56 245.65,-41.5 262.5,-30.94 277.81,-23.71"/>
<polygon fill="midnightblue" stroke="midnightblue" points="279.33,-26.86 287.08,-19.63 276.51,-20.46 279.33,-26.86"/>
</g>
<!-- Node12 -->
<g id="node12" class="node">
<title>Node12</title>
<g id="a_node12"><a xlink:href="Attacker_8h.html" target="_top" xlink:title=" ">
<polygon fill="white" stroke="black" points="218.5,-168.5 218.5,-187.5 283.5,-187.5 283.5,-168.5 218.5,-168.5"/>
<text text-anchor="middle" x="251" y="-175.5" font-family="Helvetica,sans-Serif" font-size="10.00">Attacker.h</text>
</a>
</g>
</g>
<!-- Node2&#45;&gt;Node12 -->
<g id="edge13" class="edge">
<title>Node2&#45;&gt;Node12</title>
<path fill="none" stroke="midnightblue" d="M218.44,-224.08C223.95,-216.46 232.03,-205.26 238.76,-195.94"/>
<polygon fill="midnightblue" stroke="midnightblue" points="241.66,-197.91 244.68,-187.75 235.99,-193.81 241.66,-197.91"/>
</g>
<!-- Node4 -->
<g id="node4" class="node">
<title>Node4</title>
<g id="a_node4"><a xlink:href="constants_8h.html" target="_top" xlink:title=" ">
<polygon fill="white" stroke="black" points="372.5,-56.5 372.5,-75.5 445.5,-75.5 445.5,-56.5 372.5,-56.5"/>
<text text-anchor="middle" x="409" y="-63.5" font-family="Helvetica,sans-Serif" font-size="10.00">constants.h</text>
</a>
</g>
</g>
<!-- Node3&#45;&gt;Node4 -->
<g id="edge3" class="edge">
<title>Node3&#45;&gt;Node4</title>
<path fill="none" stroke="midnightblue" d="M335.14,-112.32C348.87,-103.9 369.94,-90.97 386.06,-81.07"/>
<polygon fill="midnightblue" stroke="midnightblue" points="388.2,-83.87 394.9,-75.65 384.54,-77.9 388.2,-83.87"/>
</g>
<!-- Node3&#45;&gt;Node5 -->
<g id="edge4" class="edge">
<title>Node3&#45;&gt;Node5</title>
<path fill="none" stroke="midnightblue" d="M294.34,-114.49C261.76,-105.6 206.96,-89.54 171.57,-78.58"/>
<polygon fill="midnightblue" stroke="midnightblue" points="172.29,-75.13 161.7,-75.49 170.2,-81.81 172.29,-75.13"/>
</g>
<!-- Node3&#45;&gt;Node8 -->
<g id="edge12" class="edge">
<title>Node3&#45;&gt;Node8</title>
<path fill="none" stroke="midnightblue" d="M322.62,-112.13C324.66,-99.58 327.61,-75.95 325,-56 323.84,-47.18 321.47,-37.63 319.13,-29.61"/>
<polygon fill="midnightblue" stroke="midnightblue" points="322.4,-28.34 316.09,-19.83 315.71,-30.42 322.4,-28.34"/>
</g>
<!-- Node11 -->
<g id="node11" class="node">
<title>Node11</title>
<g id="a_node11"><a xlink:title=" ">
<polygon fill="white" stroke="#bfbfbf" points="256,-56.5 256,-75.5 316,-75.5 316,-56.5 256,-56.5"/>
<text text-anchor="middle" x="286" y="-63.5" font-family="Helvetica,sans-Serif" font-size="10.00">iostream</text>
</a>
</g>
</g>
<!-- Node3&#45;&gt;Node11 -->
<g id="edge11" class="edge">
<title>Node3&#45;&gt;Node11</title>
<path fill="none" stroke="midnightblue" d="M315.22,-112.08C310.33,-104.53 303.17,-93.49 297.17,-84.23"/>
<polygon fill="midnightblue" stroke="midnightblue" points="300.05,-82.24 291.67,-75.75 294.17,-86.05 300.05,-82.24"/>
</g>
<!-- Node5&#45;&gt;Node3 -->
<g id="edge10" class="edge">
<title>Node5&#45;&gt;Node3</title>
<path fill="none" stroke="midnightblue" d="M161.66,-72.7C193.77,-81.38 250.88,-98.11 287.38,-109.41"/>
<polygon fill="midnightblue" stroke="midnightblue" points="286.5,-112.8 297.09,-112.44 288.59,-106.12 286.5,-112.8"/>
</g>
<!-- Node5&#45;&gt;Node6 -->
<g id="edge5" class="edge">
<title>Node5&#45;&gt;Node6</title>
<path fill="none" stroke="midnightblue" d="M124.83,-56.32C112.15,-47.98 92.77,-35.21 77.79,-25.35"/>
<polygon fill="midnightblue" stroke="midnightblue" points="79.42,-22.23 69.14,-19.65 75.57,-28.08 79.42,-22.23"/>
</g>
<!-- Node7 -->
<g id="node7" class="node">
<title>Node7</title>
<g id="a_node7"><a xlink:title=" ">
<polygon fill="white" stroke="#bfbfbf" points="107,-0.5 107,-19.5 151,-19.5 151,-0.5 107,-0.5"/>
<text text-anchor="middle" x="129" y="-7.5" font-family="Helvetica,sans-Serif" font-size="10.00">string</text>
</a>
</g>
</g>
<!-- Node5&#45;&gt;Node7 -->
<g id="edge6" class="edge">
<title>Node5&#45;&gt;Node7</title>
<path fill="none" stroke="midnightblue" d="M136.51,-56.08C135.32,-48.93 133.61,-38.64 132.12,-29.69"/>
<polygon fill="midnightblue" stroke="midnightblue" points="135.55,-29.04 130.46,-19.75 128.65,-30.19 135.55,-29.04"/>
</g>
<!-- Node5&#45;&gt;Node8 -->
<g id="edge7" class="edge">
<title>Node5&#45;&gt;Node8</title>
<path fill="none" stroke="midnightblue" d="M161.6,-57.72C190.81,-48.7 240.91,-33.24 275.43,-22.59"/>
<polygon fill="midnightblue" stroke="midnightblue" points="276.64,-25.88 285.16,-19.59 274.57,-19.19 276.64,-25.88"/>
</g>
<!-- Node5&#45;&gt;Node9 -->
<g id="edge8" class="edge">
<title>Node5&#45;&gt;Node9</title>
<path fill="none" stroke="midnightblue" d="M161.68,-61.16C217.69,-52.08 358.9,-29.18 429.49,-17.73"/>
<polygon fill="midnightblue" stroke="midnightblue" points="430.06,-21.18 439.37,-16.13 428.94,-14.27 430.06,-21.18"/>
</g>
<!-- Node10 -->
<g id="node10" class="node">
<title>Node10</title>
<g id="a_node10"><a xlink:title=" ">
<polygon fill="white" stroke="#bfbfbf" points="169.5,-0.5 169.5,-19.5 234.5,-19.5 234.5,-0.5 169.5,-0.5"/>
<text text-anchor="middle" x="202" y="-7.5" font-family="Helvetica,sans-Serif" font-size="10.00">functional</text>
</a>
</g>
</g>
<!-- Node5&#45;&gt;Node10 -->
<g id="edge9" class="edge">
<title>Node5&#45;&gt;Node10</title>
<path fill="none" stroke="midnightblue" d="M148.28,-56.32C157.84,-48.26 172.28,-36.08 183.78,-26.37"/>
<polygon fill="midnightblue" stroke="midnightblue" points="186.14,-28.96 191.53,-19.83 181.63,-23.61 186.14,-28.96"/>
</g>
<!-- Node12&#45;&gt;Node3 -->
<g id="edge14" class="edge">
<title>Node12&#45;&gt;Node3</title>
<path fill="none" stroke="midnightblue" d="M262.25,-168.32C272.8,-160.18 288.8,-147.84 301.44,-138.09"/>
<polygon fill="midnightblue" stroke="midnightblue" points="303.77,-140.71 309.55,-131.83 299.49,-135.17 303.77,-140.71"/>
</g>
<!-- Node12&#45;&gt;Node4 -->
<g id="edge15" class="edge">
<title>Node12&#45;&gt;Node4</title>
<path fill="none" stroke="midnightblue" d="M281.88,-168.38C304.24,-161.12 334.38,-149.15 357,-132 374.38,-118.82 389.34,-98.59 398.7,-84.2"/>
<polygon fill="midnightblue" stroke="midnightblue" points="401.66,-86.05 404,-75.72 395.73,-82.34 401.66,-86.05"/>
</g>
<!-- Node12&#45;&gt;Node5 -->
<g id="edge18" class="edge">
<title>Node12&#45;&gt;Node5</title>
<path fill="none" stroke="midnightblue" d="M242.13,-168.37C223.15,-149.89 178.36,-106.29 154.17,-82.74"/>
<polygon fill="midnightblue" stroke="midnightblue" points="156.43,-80.06 146.83,-75.59 151.55,-85.07 156.43,-80.06"/>
</g>
<!-- Node12&#45;&gt;Node6 -->
<g id="edge16" class="edge">
<title>Node12&#45;&gt;Node6</title>
<path fill="none" stroke="midnightblue" d="M234.72,-168.31C206.19,-152.56 146.28,-117.1 105,-76 90.19,-61.26 76.14,-41.86 66.91,-28.1"/>
<polygon fill="midnightblue" stroke="midnightblue" points="69.75,-26.05 61.35,-19.61 63.9,-29.89 69.75,-26.05"/>
</g>
<!-- Node12&#45;&gt;Node8 -->
<g id="edge17" class="edge">
<title>Node12&#45;&gt;Node8</title>
<path fill="none" stroke="midnightblue" d="M247.99,-168.44C241.26,-147.7 227.06,-93.72 247,-56 254.42,-41.95 268.42,-31.47 281.62,-24.17"/>
<polygon fill="midnightblue" stroke="midnightblue" points="283.22,-27.28 290.54,-19.62 280.04,-21.04 283.22,-27.28"/>
</g>
<!-- Node13&#45;&gt;Node3 -->
<g id="edge23" class="edge">
<title>Node13&#45;&gt;Node3</title>
<path fill="none" stroke="midnightblue" d="M327.95,-224.16C327.83,-211.64 327.42,-188.05 326,-168 325.39,-159.37 324.38,-149.83 323.42,-141.77"/>
<polygon fill="midnightblue" stroke="midnightblue" points="326.87,-141.1 322.16,-131.61 319.92,-141.96 326.87,-141.1"/>
</g>
<!-- Node13&#45;&gt;Node8 -->
<g id="edge25" class="edge">
<title>Node13&#45;&gt;Node8</title>
<path fill="none" stroke="midnightblue" d="M342.76,-224.48C385.3,-198.88 502.14,-120.39 455,-56 431.7,-24.18 385.77,-14.3 352.44,-11.51"/>
<polygon fill="midnightblue" stroke="midnightblue" points="352.31,-8 342.11,-10.84 351.86,-14.98 352.31,-8"/>
</g>
<!-- Node13&#45;&gt;Node12 -->
<g id="edge24" class="edge">
<title>Node13&#45;&gt;Node12</title>
<path fill="none" stroke="midnightblue" d="M315.63,-224.32C303.84,-216.06 285.87,-203.45 271.86,-193.63"/>
<polygon fill="midnightblue" stroke="midnightblue" points="273.54,-190.53 263.34,-187.65 269.52,-196.26 273.54,-190.53"/>
</g>
</g>
</svg>
