<?xml version="1.0" encoding="UTF-8" standalone="no"?>
<!DOCTYPE svg PUBLIC "-//W3C//DTD SVG 1.1//EN"
 "http://www.w3.org/Graphics/SVG/1.1/DTD/svg11.dtd">
<!-- Generated by graphviz version 2.43.0 (0)
 -->
<!-- Title: src/Enemy.cpp Pages: 1 -->
<svg width="1255pt" height="420pt"
 viewBox="0.00 0.00 1255.00 420.00" xmlns="http://www.w3.org/2000/svg" xmlns:xlink="http://www.w3.org/1999/xlink">
<g id="graph0" class="graph" transform="scale(1 1) rotate(0) translate(4 416)">
<title>src/Enemy.cpp</title>
<polygon fill="white" stroke="transparent" points="-4,4 -4,-416 1251,-416 1251,4 -4,4"/>
<!-- Node1 -->
<g id="node1" class="node">
<title>Node1</title>
<g id="a_node1"><a xlink:title=" ">
<polygon fill="#bfbfbf" stroke="black" points="765,-392.5 765,-411.5 851,-411.5 851,-392.5 765,-392.5"/>
<text text-anchor="middle" x="808" y="-399.5" font-family="Helvetica,sans-Serif" font-size="10.00">src/Enemy.cpp</text>
</a>
</g>
</g>
<!-- Node2 -->
<g id="node2" class="node">
<title>Node2</title>
<g id="a_node2"><a xlink:href="Enemy_8h.html" target="_top" xlink:title=" ">
<polygon fill="white" stroke="black" points="779,-336.5 779,-355.5 837,-355.5 837,-336.5 779,-336.5"/>
<text text-anchor="middle" x="808" y="-343.5" font-family="Helvetica,sans-Serif" font-size="10.00">Enemy.h</text>
</a>
</g>
</g>
<!-- Node1&#45;&gt;Node2 -->
<g id="edge1" class="edge">
<title>Node1&#45;&gt;Node2</title>
<path fill="none" stroke="midnightblue" d="M808,-392.08C808,-385.01 808,-374.86 808,-365.99"/>
<polygon fill="midnightblue" stroke="midnightblue" points="811.5,-365.75 808,-355.75 804.5,-365.75 811.5,-365.75"/>
</g>
<!-- Node3 -->
<g id="node3" class="node">
<title>Node3</title>
<g id="a_node3"><a xlink:href="Player_8h.html" target="_top" xlink:title=" ">
<polygon fill="white" stroke="black" points="313,-280.5 313,-299.5 369,-299.5 369,-280.5 313,-280.5"/>
<text text-anchor="middle" x="341" y="-287.5" font-family="Helvetica,sans-Serif" font-size="10.00">Player.h</text>
</a>
</g>
</g>
<!-- Node2&#45;&gt;Node3 -->
<g id="edge2" class="edge">
<title>Node2&#45;&gt;Node3</title>
<path fill="none" stroke="midnightblue" d="M778.75,-342.97C709.61,-337.95 530.82,-323.6 383,-300 381.76,-299.8 380.5,-299.59 379.22,-299.37"/>
<polygon fill="midnightblue" stroke="midnightblue" points="379.87,-295.93 369.39,-297.51 378.57,-302.81 379.87,-295.93"/>
</g>
<!-- Node5 -->
<g id="node5" class="node">
<title>Node5</title>
<g id="a_node5"><a xlink:href="constants_8h.html" target="_top" xlink:title=" ">
<polygon fill="white" stroke="black" points="247.5,-0.5 247.5,-19.5 320.5,-19.5 320.5,-0.5 247.5,-0.5"/>
<text text-anchor="middle" x="284" y="-7.5" font-family="Helvetica,sans-Serif" font-size="10.00">constants.h</text>
</a>
</g>
</g>
<!-- Node2&#45;&gt;Node5 -->
<g id="edge58" class="edge">
<title>Node2&#45;&gt;Node5</title>
<path fill="none" stroke="midnightblue" d="M778.97,-343.98C671.93,-340.05 303.18,-324.82 257,-300 158.99,-247.33 144.08,-151.6 201,-56 210.1,-40.72 226.39,-30.31 242.14,-23.39"/>
<polygon fill="midnightblue" stroke="midnightblue" points="243.83,-26.48 251.82,-19.51 241.23,-19.98 243.83,-26.48"/>
</g>
<!-- Node6 -->
<g id="node6" class="node">
<title>Node6</title>
<g id="a_node6"><a xlink:href="Map_8h.html" target="_top" xlink:title=" ">
<polygon fill="white" stroke="black" points="395.5,-112.5 395.5,-131.5 442.5,-131.5 442.5,-112.5 395.5,-112.5"/>
<text text-anchor="middle" x="419" y="-119.5" font-family="Helvetica,sans-Serif" font-size="10.00">Map.h</text>
</a>
</g>
</g>
<!-- Node2&#45;&gt;Node6 -->
<g id="edge52" class="edge">
<title>Node2&#45;&gt;Node6</title>
<path fill="none" stroke="midnightblue" d="M780.51,-336.4C721.56,-317.01 580.54,-265.44 484,-188 465.24,-172.95 446.04,-153.09 433.42,-139.3"/>
<polygon fill="midnightblue" stroke="midnightblue" points="435.77,-136.68 426.47,-131.6 430.57,-141.37 435.77,-136.68"/>
</g>
<!-- Node7 -->
<g id="node7" class="node">
<title>Node7</title>
<g id="a_node7"><a xlink:title=" ">
<polygon fill="white" stroke="#bfbfbf" points="209.5,-56.5 209.5,-75.5 256.5,-75.5 256.5,-56.5 209.5,-56.5"/>
<text text-anchor="middle" x="233" y="-63.5" font-family="Helvetica,sans-Serif" font-size="10.00">vector</text>
</a>
</g>
</g>
<!-- Node2&#45;&gt;Node7 -->
<g id="edge60" class="edge">
<title>Node2&#45;&gt;Node7</title>
<path fill="none" stroke="midnightblue" d="M778.85,-344.45C685.03,-342.37 391.9,-333.29 304,-300 264.76,-285.14 251.65,-278.66 228,-244 213.48,-222.72 216.36,-213.55 213,-188 210.83,-171.49 211.9,-126.69 215,-112 216.96,-102.74 220.67,-92.93 224.22,-84.84"/>
<polygon fill="midnightblue" stroke="midnightblue" points="227.43,-86.22 228.48,-75.68 221.09,-83.27 227.43,-86.22"/>
</g>
<!-- Node9 -->
<g id="node9" class="node">
<title>Node9</title>
<g id="a_node9"><a xlink:title=" ">
<polygon fill="white" stroke="#bfbfbf" points="578,-56.5 578,-75.5 636,-75.5 636,-56.5 578,-56.5"/>
<text text-anchor="middle" x="607" y="-63.5" font-family="Helvetica,sans-Serif" font-size="10.00">memory</text>
</a>
</g>
</g>
<!-- Node2&#45;&gt;Node9 -->
<g id="edge59" class="edge">
<title>Node2&#45;&gt;Node9</title>
<path fill="none" stroke="midnightblue" d="M816.47,-336.09C847.62,-302.3 950.78,-180.43 887,-112 854.99,-77.66 715.28,-69.51 646.1,-67.59"/>
<polygon fill="midnightblue" stroke="midnightblue" points="646.11,-64.09 636.03,-67.34 645.94,-71.08 646.11,-64.09"/>
</g>
<!-- Node10 -->
<g id="node10" class="node">
<title>Node10</title>
<g id="a_node10"><a xlink:title=" ">
<polygon fill="white" stroke="#bfbfbf" points="789.5,-56.5 789.5,-75.5 852.5,-75.5 852.5,-56.5 789.5,-56.5"/>
<text text-anchor="middle" x="821" y="-63.5" font-family="Helvetica,sans-Serif" font-size="10.00">ncurses.h</text>
</a>
</g>
</g>
<!-- Node2&#45;&gt;Node10 -->
<g id="edge61" class="edge">
<title>Node2&#45;&gt;Node10</title>
<path fill="none" stroke="midnightblue" d="M837.21,-343.08C890.23,-337.79 1000.67,-317.97 1042,-244 1070.72,-192.61 1072.27,-153.98 1031,-112 1007.98,-88.58 917.21,-76.08 862.83,-70.57"/>
<polygon fill="midnightblue" stroke="midnightblue" points="863.09,-67.08 852.8,-69.59 862.41,-74.04 863.09,-67.08"/>
</g>
<!-- Node13 -->
<g id="node13" class="node">
<title>Node13</title>
<g id="a_node13"><a xlink:href="Definitions_8h.html" target="_top" xlink:title=" ">
<polygon fill="white" stroke="black" points="63,-56.5 63,-75.5 141,-75.5 141,-56.5 63,-56.5"/>
<text text-anchor="middle" x="102" y="-63.5" font-family="Helvetica,sans-Serif" font-size="10.00">Definitions.h</text>
</a>
</g>
</g>
<!-- Node2&#45;&gt;Node13 -->
<g id="edge53" class="edge">
<title>Node2&#45;&gt;Node13</title>
<path fill="none" stroke="midnightblue" d="M778.91,-344.29C654.76,-341.12 172.83,-327.14 111,-300 72.72,-283.19 43,-276.81 43,-235 43,-235 43,-235 43,-177 43,-140.02 69.21,-103.47 86.69,-83.21"/>
<polygon fill="midnightblue" stroke="midnightblue" points="89.47,-85.34 93.55,-75.56 84.26,-80.67 89.47,-85.34"/>
</g>
<!-- Node27 -->
<g id="node27" class="node">
<title>Node27</title>
<g id="a_node27"><a xlink:href="Tower_8h.html" target="_top" xlink:title=" ">
<polygon fill="white" stroke="black" points="781.5,-280.5 781.5,-299.5 834.5,-299.5 834.5,-280.5 781.5,-280.5"/>
<text text-anchor="middle" x="808" y="-287.5" font-family="Helvetica,sans-Serif" font-size="10.00">Tower.h</text>
</a>
</g>
</g>
<!-- Node2&#45;&gt;Node27 -->
<g id="edge47" class="edge">
<title>Node2&#45;&gt;Node27</title>
<path fill="none" stroke="midnightblue" d="M808,-336.08C808,-329.01 808,-318.86 808,-309.99"/>
<polygon fill="midnightblue" stroke="midnightblue" points="811.5,-309.75 808,-299.75 804.5,-309.75 811.5,-309.75"/>
</g>
<!-- Node28 -->
<g id="node28" class="node">
<title>Node28</title>
<g id="a_node28"><a xlink:href="logFile_8h.html" target="_top" xlink:title=" ">
<polygon fill="white" stroke="black" points="975,-224.5 975,-243.5 1033,-243.5 1033,-224.5 975,-224.5"/>
<text text-anchor="middle" x="1004" y="-231.5" font-family="Helvetica,sans-Serif" font-size="10.00">logFile.h</text>
</a>
</g>
</g>
<!-- Node2&#45;&gt;Node28 -->
<g id="edge54" class="edge">
<title>Node2&#45;&gt;Node28</title>
<path fill="none" stroke="midnightblue" d="M836.99,-336.37C860.93,-328.62 895.35,-316 923,-300 947.23,-285.98 971.86,-265.06 987.5,-250.76"/>
<polygon fill="midnightblue" stroke="midnightblue" points="990.27,-252.97 995.2,-243.59 985.49,-247.84 990.27,-252.97"/>
</g>
<!-- Node29 -->
<g id="node29" class="node">
<title>Node29</title>
<g id="a_node29"><a xlink:title=" ">
<polygon fill="white" stroke="#bfbfbf" points="1089,-280.5 1089,-299.5 1143,-299.5 1143,-280.5 1089,-280.5"/>
<text text-anchor="middle" x="1116" y="-287.5" font-family="Helvetica,sans-Serif" font-size="10.00">random</text>
</a>
</g>
</g>
<!-- Node2&#45;&gt;Node29 -->
<g id="edge62" class="edge">
<title>Node2&#45;&gt;Node29</title>
<path fill="none" stroke="midnightblue" d="M837.32,-340.54C886.56,-332.94 988.93,-316.69 1075,-300 1076.25,-299.76 1077.52,-299.51 1078.79,-299.25"/>
<polygon fill="midnightblue" stroke="midnightblue" points="1079.61,-302.65 1088.69,-297.19 1078.19,-295.8 1079.61,-302.65"/>
</g>
<!-- Node30 -->
<g id="node30" class="node">
<title>Node30</title>
<g id="a_node30"><a xlink:title=" ">
<polygon fill="white" stroke="#bfbfbf" points="1161,-280.5 1161,-299.5 1247,-299.5 1247,-280.5 1161,-280.5"/>
<text text-anchor="middle" x="1204" y="-287.5" font-family="Helvetica,sans-Serif" font-size="10.00">unordered_set</text>
</a>
</g>
</g>
<!-- Node2&#45;&gt;Node30 -->
<g id="edge63" class="edge">
<title>Node2&#45;&gt;Node30</title>
<path fill="none" stroke="midnightblue" d="M837.05,-341.61C894.79,-334.79 1028.3,-318.57 1150.95,-300.11"/>
<polygon fill="midnightblue" stroke="midnightblue" points="1151.53,-303.56 1160.89,-298.6 1150.48,-296.64 1151.53,-303.56"/>
</g>
<!-- Node4 -->
<g id="node4" class="node">
<title>Node4</title>
<g id="a_node4"><a xlink:href="Entity_8h.html" target="_top" xlink:title=" ">
<polygon fill="white" stroke="black" points="703.5,-168.5 703.5,-187.5 756.5,-187.5 756.5,-168.5 703.5,-168.5"/>
<text text-anchor="middle" x="730" y="-175.5" font-family="Helvetica,sans-Serif" font-size="10.00">Entity.h</text>
</a>
</g>
</g>
<!-- Node3&#45;&gt;Node4 -->
<g id="edge3" class="edge">
<title>Node3&#45;&gt;Node4</title>
<path fill="none" stroke="midnightblue" d="M369.26,-287C436.5,-281.91 604.15,-267.21 655,-244 679.6,-232.77 702.22,-210.88 716.05,-195.62"/>
<polygon fill="midnightblue" stroke="midnightblue" points="718.83,-197.77 722.78,-187.94 713.56,-193.15 718.83,-197.77"/>
</g>
<!-- Node3&#45;&gt;Node6 -->
<g id="edge41" class="edge">
<title>Node3&#45;&gt;Node6</title>
<path fill="none" stroke="midnightblue" d="M341.02,-280.41C341.45,-259.63 344.78,-205.53 367,-168 374.22,-155.8 385.93,-145.24 396.41,-137.41"/>
<polygon fill="midnightblue" stroke="midnightblue" points="398.64,-140.13 404.8,-131.51 394.61,-134.4 398.64,-140.13"/>
</g>
<!-- Node3&#45;&gt;Node7 -->
<g id="edge43" class="edge">
<title>Node3&#45;&gt;Node7</title>
<path fill="none" stroke="midnightblue" d="M312.91,-281.49C292.13,-274.68 264.37,-262.79 246,-244 204.21,-201.26 218.29,-121.65 227.57,-85.59"/>
<polygon fill="midnightblue" stroke="midnightblue" points="231.06,-86.09 230.33,-75.52 224.31,-84.24 231.06,-86.09"/>
</g>
<!-- Node3&#45;&gt;Node9 -->
<g id="edge42" class="edge">
<title>Node3&#45;&gt;Node9</title>
<path fill="none" stroke="midnightblue" d="M351.43,-280.3C391.65,-246.73 537.05,-125.38 588.67,-82.3"/>
<polygon fill="midnightblue" stroke="midnightblue" points="591.21,-84.74 596.64,-75.64 586.72,-79.36 591.21,-84.74"/>
</g>
<!-- Node3&#45;&gt;Node13 -->
<g id="edge40" class="edge">
<title>Node3&#45;&gt;Node13</title>
<path fill="none" stroke="midnightblue" d="M312.7,-282.57C288.35,-275.97 253.25,-263.82 228,-244 170.21,-198.63 127.42,-119.84 110.26,-84.75"/>
<polygon fill="midnightblue" stroke="midnightblue" points="113.41,-83.22 105.93,-75.7 107.09,-86.24 113.41,-83.22"/>
</g>
<!-- Node20 -->
<g id="node20" class="node">
<title>Node20</title>
<g id="a_node20"><a xlink:href="Attacker_8h.html" target="_top" xlink:title=" ">
<polygon fill="white" stroke="black" points="580.5,-224.5 580.5,-243.5 645.5,-243.5 645.5,-224.5 580.5,-224.5"/>
<text text-anchor="middle" x="613" y="-231.5" font-family="Helvetica,sans-Serif" font-size="10.00">Attacker.h</text>
</a>
</g>
</g>
<!-- Node3&#45;&gt;Node20 -->
<g id="edge25" class="edge">
<title>Node3&#45;&gt;Node20</title>
<path fill="none" stroke="midnightblue" d="M369.08,-283.42C416.87,-273.94 514.28,-254.6 570.47,-243.44"/>
<polygon fill="midnightblue" stroke="midnightblue" points="571.33,-246.84 580.46,-241.46 569.97,-239.98 571.33,-246.84"/>
</g>
<!-- Node23 -->
<g id="node23" class="node">
<title>Node23</title>
<g id="a_node23"><a xlink:title=" ">
<polygon fill="white" stroke="#bfbfbf" points="229.5,-168.5 229.5,-187.5 276.5,-187.5 276.5,-168.5 229.5,-168.5"/>
<text text-anchor="middle" x="253" y="-175.5" font-family="Helvetica,sans-Serif" font-size="10.00">queue</text>
</a>
</g>
</g>
<!-- Node3&#45;&gt;Node23 -->
<g id="edge46" class="edge">
<title>Node3&#45;&gt;Node23</title>
<path fill="none" stroke="midnightblue" d="M312.61,-281.37C293.8,-274.74 270.4,-263.12 258,-244 249.24,-230.5 248.67,-211.94 249.89,-198.11"/>
<polygon fill="midnightblue" stroke="midnightblue" points="253.41,-198.18 251.2,-187.82 246.47,-197.3 253.41,-198.18"/>
</g>
<!-- Node25 -->
<g id="node25" class="node">
<title>Node25</title>
<g id="a_node25"><a xlink:title=" ">
<polygon fill="white" stroke="#bfbfbf" points="813.5,-168.5 813.5,-187.5 858.5,-187.5 858.5,-168.5 813.5,-168.5"/>
<text text-anchor="middle" x="836" y="-175.5" font-family="Helvetica,sans-Serif" font-size="10.00">utility</text>
</a>
</g>
</g>
<!-- Node3&#45;&gt;Node25 -->
<g id="edge45" class="edge">
<title>Node3&#45;&gt;Node25</title>
<path fill="none" stroke="midnightblue" d="M369.44,-287.86C428.73,-284.91 569.47,-274.97 683,-244 729.78,-231.24 781.06,-207.23 810.78,-192.24"/>
<polygon fill="midnightblue" stroke="midnightblue" points="812.68,-195.19 819.99,-187.53 809.5,-188.96 812.68,-195.19"/>
</g>
<!-- Node26 -->
<g id="node26" class="node">
<title>Node26</title>
<g id="a_node26"><a xlink:title=" ">
<polygon fill="white" stroke="#bfbfbf" points="267,-224.5 267,-243.5 331,-243.5 331,-224.5 267,-224.5"/>
<text text-anchor="middle" x="299" y="-231.5" font-family="Helvetica,sans-Serif" font-size="10.00">algorithm</text>
</a>
</g>
</g>
<!-- Node3&#45;&gt;Node26 -->
<g id="edge44" class="edge">
<title>Node3&#45;&gt;Node26</title>
<path fill="none" stroke="midnightblue" d="M334.06,-280.08C328.07,-272.38 319.25,-261.03 311.95,-251.65"/>
<polygon fill="midnightblue" stroke="midnightblue" points="314.71,-249.5 305.81,-243.75 309.18,-253.79 314.71,-249.5"/>
</g>
<!-- Node4&#45;&gt;Node5 -->
<g id="edge4" class="edge">
<title>Node4&#45;&gt;Node5</title>
<path fill="none" stroke="midnightblue" d="M726.95,-168.24C718.34,-145.03 691.41,-81.89 645,-56 618.08,-40.98 422.28,-22.7 330.82,-14.86"/>
<polygon fill="midnightblue" stroke="midnightblue" points="330.99,-11.37 320.73,-14.01 330.4,-18.34 330.99,-11.37"/>
</g>
<!-- Node4&#45;&gt;Node6 -->
<g id="edge5" class="edge">
<title>Node4&#45;&gt;Node6</title>
<path fill="none" stroke="midnightblue" d="M703.39,-173.03C646.79,-163.84 515.17,-141.04 452.78,-129.67"/>
<polygon fill="midnightblue" stroke="midnightblue" points="453.14,-126.18 442.68,-127.81 451.88,-133.06 453.14,-126.18"/>
</g>
<!-- Node4&#45;&gt;Node9 -->
<g id="edge23" class="edge">
<title>Node4&#45;&gt;Node9</title>
<path fill="none" stroke="midnightblue" d="M722.08,-168.2C710.34,-155.33 687.39,-130.85 666,-112 653.83,-101.28 639.36,-90.22 627.8,-81.74"/>
<polygon fill="midnightblue" stroke="midnightblue" points="629.76,-78.84 619.61,-75.82 625.66,-84.52 629.76,-78.84"/>
</g>
<!-- Node4&#45;&gt;Node10 -->
<g id="edge20" class="edge">
<title>Node4&#45;&gt;Node10</title>
<path fill="none" stroke="midnightblue" d="M739.43,-168.46C748.87,-159.71 763.6,-145.51 775,-132 787.91,-116.69 800.94,-97.9 809.82,-84.46"/>
<polygon fill="midnightblue" stroke="midnightblue" points="812.96,-86.05 815.49,-75.76 807.1,-82.23 812.96,-86.05"/>
</g>
<!-- Node17 -->
<g id="node17" class="node">
<title>Node17</title>
<g id="a_node17"><a xlink:title=" ">
<polygon fill="white" stroke="#bfbfbf" points="399,-0.5 399,-19.5 459,-19.5 459,-0.5 399,-0.5"/>
<text text-anchor="middle" x="429" y="-7.5" font-family="Helvetica,sans-Serif" font-size="10.00">iostream</text>
</a>
</g>
</g>
<!-- Node4&#45;&gt;Node17 -->
<g id="edge22" class="edge">
<title>Node4&#45;&gt;Node17</title>
<path fill="none" stroke="midnightblue" d="M734.08,-168.39C743.75,-146.59 765.21,-88.63 737,-56 734.82,-53.47 552.15,-27.99 469.19,-16.53"/>
<polygon fill="midnightblue" stroke="midnightblue" points="469.5,-13.04 459.12,-15.14 468.54,-19.97 469.5,-13.04"/>
</g>
<!-- Node18 -->
<g id="node18" class="node">
<title>Node18</title>
<g id="a_node18"><a xlink:href="HelpStructs_8h.html" target="_top" xlink:title=" ">
<polygon fill="white" stroke="black" points="575,-112.5 575,-131.5 657,-131.5 657,-112.5 575,-112.5"/>
<text text-anchor="middle" x="616" y="-119.5" font-family="Helvetica,sans-Serif" font-size="10.00">HelpStructs.h</text>
</a>
</g>
</g>
<!-- Node4&#45;&gt;Node18 -->
<g id="edge21" class="edge">
<title>Node4&#45;&gt;Node18</title>
<path fill="none" stroke="midnightblue" d="M711.94,-168.44C693.43,-159.68 664.42,-145.94 643.14,-135.86"/>
<polygon fill="midnightblue" stroke="midnightblue" points="644.51,-132.63 633.98,-131.52 641.52,-138.96 644.51,-132.63"/>
</g>
<!-- Node19 -->
<g id="node19" class="node">
<title>Node19</title>
<g id="a_node19"><a xlink:title=" ">
<polygon fill="white" stroke="#bfbfbf" points="827,-112.5 827,-131.5 859,-131.5 859,-112.5 827,-112.5"/>
<text text-anchor="middle" x="843" y="-119.5" font-family="Helvetica,sans-Serif" font-size="10.00">set</text>
</a>
</g>
</g>
<!-- Node4&#45;&gt;Node19 -->
<g id="edge24" class="edge">
<title>Node4&#45;&gt;Node19</title>
<path fill="none" stroke="midnightblue" d="M747.91,-168.44C766.69,-159.47 796.36,-145.29 817.57,-135.15"/>
<polygon fill="midnightblue" stroke="midnightblue" points="819.13,-138.28 826.65,-130.82 816.11,-131.97 819.13,-138.28"/>
</g>
<!-- Node6&#45;&gt;Node4 -->
<g id="edge12" class="edge">
<title>Node6&#45;&gt;Node4</title>
<path fill="none" stroke="midnightblue" d="M442.79,-126.52C496.85,-135.24 628.5,-158.03 693.14,-169.77"/>
<polygon fill="midnightblue" stroke="midnightblue" points="692.82,-173.27 703.29,-171.62 694.08,-166.38 692.82,-173.27"/>
</g>
<!-- Node6&#45;&gt;Node7 -->
<g id="edge6" class="edge">
<title>Node6&#45;&gt;Node7</title>
<path fill="none" stroke="midnightblue" d="M395.44,-114.16C362.83,-104.69 303.74,-87.54 266.53,-76.74"/>
<polygon fill="midnightblue" stroke="midnightblue" points="267.24,-73.3 256.66,-73.87 265.29,-80.02 267.24,-73.3"/>
</g>
<!-- Node8 -->
<g id="node8" class="node">
<title>Node8</title>
<g id="a_node8"><a xlink:title=" ">
<polygon fill="white" stroke="#bfbfbf" points="507,-0.5 507,-19.5 551,-19.5 551,-0.5 507,-0.5"/>
<text text-anchor="middle" x="529" y="-7.5" font-family="Helvetica,sans-Serif" font-size="10.00">string</text>
</a>
</g>
</g>
<!-- Node6&#45;&gt;Node8 -->
<g id="edge7" class="edge">
<title>Node6&#45;&gt;Node8</title>
<path fill="none" stroke="midnightblue" d="M427.63,-112.37C446.11,-93.89 489.71,-50.29 513.26,-26.74"/>
<polygon fill="midnightblue" stroke="midnightblue" points="515.81,-29.14 520.41,-19.59 510.86,-24.19 515.81,-29.14"/>
</g>
<!-- Node6&#45;&gt;Node9 -->
<g id="edge8" class="edge">
<title>Node6&#45;&gt;Node9</title>
<path fill="none" stroke="midnightblue" d="M442.81,-114.16C474.37,-105.09 530.47,-88.98 568.19,-78.15"/>
<polygon fill="midnightblue" stroke="midnightblue" points="569.19,-81.5 577.84,-75.38 567.26,-74.77 569.19,-81.5"/>
</g>
<!-- Node6&#45;&gt;Node10 -->
<g id="edge9" class="edge">
<title>Node6&#45;&gt;Node10</title>
<path fill="none" stroke="midnightblue" d="M442.65,-117.82C508.65,-108.96 695.49,-83.86 779.36,-72.59"/>
<polygon fill="midnightblue" stroke="midnightblue" points="779.85,-76.06 789.3,-71.26 778.92,-69.12 779.85,-76.06"/>
</g>
<!-- Node11 -->
<g id="node11" class="node">
<title>Node11</title>
<g id="a_node11"><a xlink:title=" ">
<polygon fill="white" stroke="#bfbfbf" points="339.5,-56.5 339.5,-75.5 404.5,-75.5 404.5,-56.5 339.5,-56.5"/>
<text text-anchor="middle" x="372" y="-63.5" font-family="Helvetica,sans-Serif" font-size="10.00">functional</text>
</a>
</g>
</g>
<!-- Node6&#45;&gt;Node11 -->
<g id="edge10" class="edge">
<title>Node6&#45;&gt;Node11</title>
<path fill="none" stroke="midnightblue" d="M411.24,-112.08C404.46,-104.3 394.46,-92.8 386.24,-83.37"/>
<polygon fill="midnightblue" stroke="midnightblue" points="388.82,-81 379.62,-75.75 383.54,-85.59 388.82,-81"/>
</g>
<!-- Node12 -->
<g id="node12" class="node">
<title>Node12</title>
<g id="a_node12"><a xlink:title=" ">
<polygon fill="white" stroke="#bfbfbf" points="274.5,-56.5 274.5,-75.5 321.5,-75.5 321.5,-56.5 274.5,-56.5"/>
<text text-anchor="middle" x="298" y="-63.5" font-family="Helvetica,sans-Serif" font-size="10.00">cmath</text>
</a>
</g>
</g>
<!-- Node6&#45;&gt;Node12 -->
<g id="edge11" class="edge">
<title>Node6&#45;&gt;Node12</title>
<path fill="none" stroke="midnightblue" d="M399.83,-112.44C380.09,-103.64 349.11,-89.81 326.51,-79.72"/>
<polygon fill="midnightblue" stroke="midnightblue" points="327.64,-76.4 317.08,-75.52 324.79,-82.79 327.64,-76.4"/>
</g>
<!-- Node6&#45;&gt;Node13 -->
<g id="edge13" class="edge">
<title>Node6&#45;&gt;Node13</title>
<path fill="none" stroke="midnightblue" d="M395.43,-116.99C343.98,-108.22 220.66,-87.21 151.39,-75.41"/>
<polygon fill="midnightblue" stroke="midnightblue" points="151.61,-71.9 141.16,-73.67 150.43,-78.8 151.61,-71.9"/>
</g>
<!-- Node13&#45;&gt;Node5 -->
<g id="edge19" class="edge">
<title>Node13&#45;&gt;Node5</title>
<path fill="none" stroke="midnightblue" d="M130.84,-56.44C161.86,-47.24 211.33,-32.56 245.62,-22.39"/>
<polygon fill="midnightblue" stroke="midnightblue" points="246.71,-25.72 255.3,-19.52 244.71,-19.01 246.71,-25.72"/>
</g>
<!-- Node13&#45;&gt;Node8 -->
<g id="edge16" class="edge">
<title>Node13&#45;&gt;Node8</title>
<path fill="none" stroke="midnightblue" d="M141.04,-60.51C208,-52.75 349.04,-36.09 468,-20 477.4,-18.73 487.61,-17.26 496.93,-15.88"/>
<polygon fill="midnightblue" stroke="midnightblue" points="497.62,-19.32 507,-14.38 496.59,-12.39 497.62,-19.32"/>
</g>
<!-- Node14 -->
<g id="node14" class="node">
<title>Node14</title>
<g id="a_node14"><a xlink:title=" ">
<polygon fill="white" stroke="#bfbfbf" points="74.5,-0.5 74.5,-19.5 129.5,-19.5 129.5,-0.5 74.5,-0.5"/>
<text text-anchor="middle" x="102" y="-7.5" font-family="Helvetica,sans-Serif" font-size="10.00">fstream</text>
</a>
</g>
</g>
<!-- Node13&#45;&gt;Node14 -->
<g id="edge14" class="edge">
<title>Node13&#45;&gt;Node14</title>
<path fill="none" stroke="midnightblue" d="M102,-56.08C102,-49.01 102,-38.86 102,-29.99"/>
<polygon fill="midnightblue" stroke="midnightblue" points="105.5,-29.75 102,-19.75 98.5,-29.75 105.5,-29.75"/>
</g>
<!-- Node15 -->
<g id="node15" class="node">
<title>Node15</title>
<g id="a_node15"><a xlink:title=" ">
<polygon fill="white" stroke="#bfbfbf" points="148,-0.5 148,-19.5 186,-19.5 186,-0.5 148,-0.5"/>
<text text-anchor="middle" x="167" y="-7.5" font-family="Helvetica,sans-Serif" font-size="10.00">map</text>
</a>
</g>
</g>
<!-- Node13&#45;&gt;Node15 -->
<g id="edge15" class="edge">
<title>Node13&#45;&gt;Node15</title>
<path fill="none" stroke="midnightblue" d="M112.44,-56.32C122.15,-48.26 136.82,-36.08 148.5,-26.37"/>
<polygon fill="midnightblue" stroke="midnightblue" points="150.91,-28.92 156.37,-19.83 146.44,-23.53 150.91,-28.92"/>
</g>
<!-- Node16 -->
<g id="node16" class="node">
<title>Node16</title>
<g id="a_node16"><a xlink:title=" ">
<polygon fill="white" stroke="#bfbfbf" points="0,-0.5 0,-19.5 56,-19.5 56,-0.5 0,-0.5"/>
<text text-anchor="middle" x="28" y="-7.5" font-family="Helvetica,sans-Serif" font-size="10.00">sstream</text>
</a>
</g>
</g>
<!-- Node13&#45;&gt;Node16 -->
<g id="edge17" class="edge">
<title>Node13&#45;&gt;Node16</title>
<path fill="none" stroke="midnightblue" d="M90.11,-56.32C78.85,-48.11 61.71,-35.6 48.29,-25.81"/>
<polygon fill="midnightblue" stroke="midnightblue" points="50.25,-22.9 40.11,-19.83 46.12,-28.56 50.25,-22.9"/>
</g>
<!-- Node13&#45;&gt;Node17 -->
<g id="edge18" class="edge">
<title>Node13&#45;&gt;Node17</title>
<path fill="none" stroke="midnightblue" d="M141.12,-58.54C203.59,-48.22 325.25,-28.13 388.55,-17.68"/>
<polygon fill="midnightblue" stroke="midnightblue" points="389.26,-21.11 398.56,-16.03 388.12,-14.2 389.26,-21.11"/>
</g>
<!-- Node20&#45;&gt;Node4 -->
<g id="edge26" class="edge">
<title>Node20&#45;&gt;Node4</title>
<path fill="none" stroke="midnightblue" d="M631.54,-224.44C650.62,-215.64 680.57,-201.81 702.44,-191.72"/>
<polygon fill="midnightblue" stroke="midnightblue" points="703.93,-194.88 711.55,-187.52 701,-188.53 703.93,-194.88"/>
</g>
<!-- Node20&#45;&gt;Node5 -->
<g id="edge27" class="edge">
<title>Node20&#45;&gt;Node5</title>
<path fill="none" stroke="midnightblue" d="M600.73,-224.43C588.37,-215.66 568.91,-201.45 553,-188 487.92,-133.02 486.79,-100.27 414,-56 388.24,-40.33 356.27,-29.17 330.48,-21.89"/>
<polygon fill="midnightblue" stroke="midnightblue" points="331.14,-18.44 320.57,-19.19 329.3,-25.19 331.14,-18.44"/>
</g>
<!-- Node20&#45;&gt;Node6 -->
<g id="edge28" class="edge">
<title>Node20&#45;&gt;Node6</title>
<path fill="none" stroke="midnightblue" d="M593.18,-224.42C573.89,-215.85 543.93,-201.99 519,-188 490.5,-172.01 459.13,-151.03 439.27,-137.29"/>
<polygon fill="midnightblue" stroke="midnightblue" points="441.2,-134.37 431,-131.53 437.2,-140.12 441.2,-134.37"/>
</g>
<!-- Node20&#45;&gt;Node7 -->
<g id="edge34" class="edge">
<title>Node20&#45;&gt;Node7</title>
<path fill="none" stroke="midnightblue" d="M585.73,-224.49C559.39,-216.03 518.52,-202.29 484,-188 399.47,-153.01 302.84,-103.68 258.13,-80.3"/>
<polygon fill="midnightblue" stroke="midnightblue" points="259.63,-77.13 249.15,-75.58 256.38,-83.33 259.63,-77.13"/>
</g>
<!-- Node20&#45;&gt;Node9 -->
<g id="edge36" class="edge">
<title>Node20&#45;&gt;Node9</title>
<path fill="none" stroke="midnightblue" d="M616.41,-224.42C621,-211.4 627.56,-186.25 618,-168 604.95,-143.1 579.05,-156.9 566,-132 556.7,-114.25 572.42,-94.96 587.01,-82.04"/>
<polygon fill="midnightblue" stroke="midnightblue" points="589.36,-84.64 594.83,-75.57 584.9,-79.24 589.36,-84.64"/>
</g>
<!-- Node20&#45;&gt;Node13 -->
<g id="edge33" class="edge">
<title>Node20&#45;&gt;Node13</title>
<path fill="none" stroke="midnightblue" d="M580.25,-225.76C544.33,-217.59 485.12,-203.4 435,-188 321.89,-153.25 190.74,-102.4 132.53,-79.27"/>
<polygon fill="midnightblue" stroke="midnightblue" points="133.76,-75.99 123.17,-75.54 131.17,-82.5 133.76,-75.99"/>
</g>
<!-- Node20&#45;&gt;Node18 -->
<g id="edge32" class="edge">
<title>Node20&#45;&gt;Node18</title>
<path fill="none" stroke="midnightblue" d="M623.71,-224.3C632.94,-216.07 645.59,-202.79 651,-188 657.42,-170.46 645.18,-151.82 633.45,-139.02"/>
<polygon fill="midnightblue" stroke="midnightblue" points="635.91,-136.52 626.39,-131.87 630.93,-141.44 635.91,-136.52"/>
</g>
<!-- Node20&#45;&gt;Node19 -->
<g id="edge35" class="edge">
<title>Node20&#45;&gt;Node19</title>
<path fill="none" stroke="midnightblue" d="M645.55,-227.5C677.6,-221.16 727.23,-208.86 766,-188 789.92,-175.13 813.15,-153.97 827.72,-139.3"/>
<polygon fill="midnightblue" stroke="midnightblue" points="830.43,-141.53 834.88,-131.91 825.41,-136.66 830.43,-141.53"/>
</g>
<!-- Node21 -->
<g id="node21" class="node">
<title>Node21</title>
<g id="a_node21"><a xlink:href="exceptions_8h.html" target="_top" xlink:title=" ">
<polygon fill="white" stroke="black" points="953.5,-168.5 953.5,-187.5 1032.5,-187.5 1032.5,-168.5 953.5,-168.5"/>
<text text-anchor="middle" x="993" y="-175.5" font-family="Helvetica,sans-Serif" font-size="10.00">exceptions.h</text>
</a>
</g>
</g>
<!-- Node20&#45;&gt;Node21 -->
<g id="edge29" class="edge">
<title>Node20&#45;&gt;Node21</title>
<path fill="none" stroke="midnightblue" d="M645.73,-228.35C712.4,-218.87 864.34,-197.28 943.29,-186.06"/>
<polygon fill="midnightblue" stroke="midnightblue" points="944.06,-189.49 953.47,-184.62 943.07,-182.56 944.06,-189.49"/>
</g>
<!-- Node20&#45;&gt;Node23 -->
<g id="edge37" class="edge">
<title>Node20&#45;&gt;Node23</title>
<path fill="none" stroke="midnightblue" d="M580.42,-228.11C512.4,-217.91 355.91,-194.44 286.83,-184.07"/>
<polygon fill="midnightblue" stroke="midnightblue" points="286.93,-180.55 276.52,-182.53 285.89,-187.47 286.93,-180.55"/>
</g>
<!-- Node24 -->
<g id="node24" class="node">
<title>Node24</title>
<g id="a_node24"><a xlink:title=" ">
<polygon fill="white" stroke="#bfbfbf" points="561.5,-168.5 561.5,-187.5 608.5,-187.5 608.5,-168.5 561.5,-168.5"/>
<text text-anchor="middle" x="585" y="-175.5" font-family="Helvetica,sans-Serif" font-size="10.00">deque</text>
</a>
</g>
</g>
<!-- Node20&#45;&gt;Node24 -->
<g id="edge38" class="edge">
<title>Node20&#45;&gt;Node24</title>
<path fill="none" stroke="midnightblue" d="M608.38,-224.08C604.54,-216.69 598.98,-205.95 594.24,-196.81"/>
<polygon fill="midnightblue" stroke="midnightblue" points="597.25,-195.02 589.54,-187.75 591.03,-198.24 597.25,-195.02"/>
</g>
<!-- Node20&#45;&gt;Node25 -->
<g id="edge39" class="edge">
<title>Node20&#45;&gt;Node25</title>
<path fill="none" stroke="midnightblue" d="M645.59,-225.13C682.73,-216.15 745.24,-201.04 799,-188 800.45,-187.65 801.92,-187.29 803.42,-186.93"/>
<polygon fill="midnightblue" stroke="midnightblue" points="804.41,-190.29 813.3,-184.53 802.76,-183.49 804.41,-190.29"/>
</g>
<!-- Node21&#45;&gt;Node8 -->
<g id="edge30" class="edge">
<title>Node21&#45;&gt;Node8</title>
<path fill="none" stroke="midnightblue" d="M1004.44,-168.47C1020.12,-155.73 1044.85,-131.18 1031,-112 975.39,-34.99 662.85,-16.17 561.05,-12.05"/>
<polygon fill="midnightblue" stroke="midnightblue" points="561.18,-8.56 551.06,-11.67 560.91,-15.55 561.18,-8.56"/>
</g>
<!-- Node22 -->
<g id="node22" class="node">
<title>Node22</title>
<g id="a_node22"><a xlink:title=" ">
<polygon fill="white" stroke="#bfbfbf" points="956.5,-112.5 956.5,-131.5 1021.5,-131.5 1021.5,-112.5 956.5,-112.5"/>
<text text-anchor="middle" x="989" y="-119.5" font-family="Helvetica,sans-Serif" font-size="10.00">exception</text>
</a>
</g>
</g>
<!-- Node21&#45;&gt;Node22 -->
<g id="edge31" class="edge">
<title>Node21&#45;&gt;Node22</title>
<path fill="none" stroke="midnightblue" d="M992.34,-168.08C991.82,-161.01 991.06,-150.86 990.41,-141.99"/>
<polygon fill="midnightblue" stroke="midnightblue" points="993.88,-141.47 989.65,-131.75 986.9,-141.98 993.88,-141.47"/>
</g>
<!-- Node27&#45;&gt;Node4 -->
<g id="edge48" class="edge">
<title>Node27&#45;&gt;Node4</title>
<path fill="none" stroke="midnightblue" d="M801.88,-280.37C789.01,-262.22 758.93,-219.8 742.05,-195.99"/>
<polygon fill="midnightblue" stroke="midnightblue" points="744.73,-193.72 736.09,-187.59 739.02,-197.77 744.73,-193.72"/>
</g>
<!-- Node27&#45;&gt;Node9 -->
<g id="edge51" class="edge">
<title>Node27&#45;&gt;Node9</title>
<path fill="none" stroke="midnightblue" d="M816.28,-280.17C841.42,-252.29 912.52,-164.86 868,-112 840.15,-78.94 712.4,-70.17 646.53,-67.84"/>
<polygon fill="midnightblue" stroke="midnightblue" points="646.24,-64.33 636.14,-67.51 646.02,-71.33 646.24,-64.33"/>
</g>
<!-- Node27&#45;&gt;Node20 -->
<g id="edge49" class="edge">
<title>Node27&#45;&gt;Node20</title>
<path fill="none" stroke="midnightblue" d="M781.29,-281.6C748.36,-272.48 692.03,-256.89 653.69,-246.27"/>
<polygon fill="midnightblue" stroke="midnightblue" points="654.45,-242.85 643.88,-243.55 652.58,-249.59 654.45,-242.85"/>
</g>
<!-- Node27&#45;&gt;Node21 -->
<g id="edge50" class="edge">
<title>Node27&#45;&gt;Node21</title>
<path fill="none" stroke="midnightblue" d="M822.79,-280.43C838.32,-271.42 863.43,-256.8 885,-244 914.48,-226.52 948.31,-206.09 970.14,-192.88"/>
<polygon fill="midnightblue" stroke="midnightblue" points="971.97,-195.86 978.71,-187.68 968.34,-189.87 971.97,-195.86"/>
</g>
<!-- Node28&#45;&gt;Node8 -->
<g id="edge55" class="edge">
<title>Node28&#45;&gt;Node8</title>
<path fill="none" stroke="midnightblue" d="M1014.4,-224.18C1023.42,-215.87 1035.94,-202.53 1042,-188 1055.03,-156.76 1063.13,-141.76 1047,-112 1025.26,-71.9 1003.99,-71.23 961,-56 887.14,-29.83 648.48,-16.49 561.28,-12.4"/>
<polygon fill="midnightblue" stroke="midnightblue" points="561.34,-8.9 551.19,-11.94 561.01,-15.89 561.34,-8.9"/>
</g>
<!-- Node28&#45;&gt;Node21 -->
<g id="edge57" class="edge">
<title>Node28&#45;&gt;Node21</title>
<path fill="none" stroke="midnightblue" d="M1002.18,-224.08C1000.73,-216.93 998.63,-206.64 996.81,-197.69"/>
<polygon fill="midnightblue" stroke="midnightblue" points="1000.21,-196.85 994.78,-187.75 993.35,-198.25 1000.21,-196.85"/>
</g>
<!-- Node28&#45;&gt;Node25 -->
<g id="edge56" class="edge">
<title>Node28&#45;&gt;Node25</title>
<path fill="none" stroke="midnightblue" d="M977.38,-224.44C947.83,-214.94 900.12,-199.61 868.41,-189.42"/>
<polygon fill="midnightblue" stroke="midnightblue" points="869.32,-186.03 858.72,-186.3 867.17,-192.7 869.32,-186.03"/>
</g>
</g>
</svg>
