<?xml version="1.0" encoding="UTF-8" standalone="no"?>
<!DOCTYPE svg PUBLIC "-//W3C//DTD SVG 1.1//EN"
 "http://www.w3.org/Graphics/SVG/1.1/DTD/svg11.dtd">
<!-- Generated by graphviz version 2.43.0 (0)
 -->
<!-- Title: src/Entity.h Pages: 1 -->
<svg width="687pt" height="364pt"
 viewBox="0.00 0.00 686.50 364.00" xmlns="http://www.w3.org/2000/svg" xmlns:xlink="http://www.w3.org/1999/xlink">
<g id="graph0" class="graph" transform="scale(1 1) rotate(0) translate(4 360)">
<title>src/Entity.h</title>
<polygon fill="white" stroke="transparent" points="-4,4 -4,-360 682.5,-360 682.5,4 -4,4"/>
<!-- Node1 -->
<g id="node1" class="node">
<title>Node1</title>
<g id="a_node1"><a xlink:title=" ">
<polygon fill="#bfbfbf" stroke="black" points="307,-336.5 307,-355.5 377,-355.5 377,-336.5 307,-336.5"/>
<text text-anchor="middle" x="342" y="-343.5" font-family="Helvetica,sans-Serif" font-size="10.00">src/Entity.h</text>
</a>
</g>
</g>
<!-- Node2 -->
<g id="node2" class="node">
<title>Node2</title>
<g id="a_node2"><a xlink:href="Attacker_8h.html" target="_top" xlink:title=" ">
<polygon fill="white" stroke="black" points="135.5,-224.5 135.5,-243.5 218.5,-243.5 218.5,-224.5 135.5,-224.5"/>
<text text-anchor="middle" x="177" y="-231.5" font-family="Helvetica,sans-Serif" font-size="10.00">src/Attacker.h</text>
</a>
</g>
</g>
<!-- Node1&#45;&gt;Node2 -->
<g id="edge1" class="edge">
<title>Node1&#45;&gt;Node2</title>
<path fill="none" stroke="midnightblue" d="M301.36,-333.3C279.8,-325.89 253.58,-314.87 233,-300 210.78,-283.95 191.57,-257.39 182.53,-243.72"/>
<polygon fill="midnightblue" stroke="midnightblue" points="300.31,-336.64 310.91,-336.46 302.51,-330 300.31,-336.64"/>
</g>
<!-- Node3 -->
<g id="node3" class="node">
<title>Node3</title>
<g id="a_node3"><a xlink:href="Attacker_8cpp.html" target="_top" xlink:title=" ">
<polygon fill="white" stroke="black" points="201,-168.5 201,-187.5 295,-187.5 295,-168.5 201,-168.5"/>
<text text-anchor="middle" x="248" y="-175.5" font-family="Helvetica,sans-Serif" font-size="10.00">src/Attacker.cpp</text>
</a>
</g>
</g>
<!-- Node1&#45;&gt;Node3 -->
<g id="edge25" class="edge">
<title>Node1&#45;&gt;Node3</title>
<path fill="none" stroke="midnightblue" d="M325.37,-329.35C317.31,-321.14 307.89,-310.61 301,-300 275.77,-261.15 257.36,-208.27 250.71,-187.69"/>
<polygon fill="midnightblue" stroke="midnightblue" points="322.99,-331.91 332.57,-336.42 327.9,-326.92 322.99,-331.91"/>
</g>
<!-- Node4 -->
<g id="node4" class="node">
<title>Node4</title>
<g id="a_node4"><a xlink:href="Player_8h.html" target="_top" xlink:title=" ">
<polygon fill="white" stroke="black" points="389.5,-168.5 389.5,-187.5 462.5,-187.5 462.5,-168.5 389.5,-168.5"/>
<text text-anchor="middle" x="426" y="-175.5" font-family="Helvetica,sans-Serif" font-size="10.00">src/Player.h</text>
</a>
</g>
</g>
<!-- Node1&#45;&gt;Node4 -->
<g id="edge26" class="edge">
<title>Node1&#45;&gt;Node4</title>
<path fill="none" stroke="midnightblue" d="M387.13,-337.52C436.91,-326.59 514.66,-300.96 550,-244 572.36,-207.96 506.62,-190.85 462.5,-183.61"/>
<polygon fill="midnightblue" stroke="midnightblue" points="386.34,-334.11 377.26,-339.58 387.76,-340.96 386.34,-334.11"/>
</g>
<!-- Node9 -->
<g id="node9" class="node">
<title>Node9</title>
<g id="a_node9"><a xlink:href="main_8cpp.html" target="_top" xlink:title=" ">
<polygon fill="white" stroke="black" points="121.5,-0.5 121.5,-19.5 200.5,-19.5 200.5,-0.5 121.5,-0.5"/>
<text text-anchor="middle" x="161" y="-7.5" font-family="Helvetica,sans-Serif" font-size="10.00">src/main.cpp</text>
</a>
</g>
</g>
<!-- Node1&#45;&gt;Node9 -->
<g id="edge29" class="edge">
<title>Node1&#45;&gt;Node9</title>
<path fill="none" stroke="midnightblue" d="M296.72,-340.06C203.75,-328.65 0,-296.62 0,-235 0,-235 0,-235 0,-121 0,-62.27 73.95,-32.62 121.61,-19.61"/>
<polygon fill="midnightblue" stroke="midnightblue" points="296.34,-343.54 306.69,-341.25 297.18,-336.59 296.34,-343.54"/>
</g>
<!-- Node11 -->
<g id="node11" class="node">
<title>Node11</title>
<g id="a_node11"><a xlink:href="Tower_8h.html" target="_top" xlink:title=" ">
<polygon fill="white" stroke="black" points="35.5,-168.5 35.5,-187.5 106.5,-187.5 106.5,-168.5 35.5,-168.5"/>
<text text-anchor="middle" x="71" y="-175.5" font-family="Helvetica,sans-Serif" font-size="10.00">src/Tower.h</text>
</a>
</g>
</g>
<!-- Node1&#45;&gt;Node11 -->
<g id="edge27" class="edge">
<title>Node1&#45;&gt;Node11</title>
<path fill="none" stroke="midnightblue" d="M298.98,-333.63C272.36,-325.82 237.86,-314.29 209,-300 169.12,-280.25 159.13,-273.71 126,-244 105.97,-226.04 86.62,-200.76 77.11,-187.65"/>
<polygon fill="midnightblue" stroke="midnightblue" points="298.2,-337.04 308.78,-336.44 300.13,-330.32 298.2,-337.04"/>
</g>
<!-- Node13 -->
<g id="node13" class="node">
<title>Node13</title>
<g id="a_node13"><a xlink:href="Map_8h.html" target="_top" xlink:title=" ">
<polygon fill="white" stroke="black" points="310,-280.5 310,-299.5 374,-299.5 374,-280.5 310,-280.5"/>
<text text-anchor="middle" x="342" y="-287.5" font-family="Helvetica,sans-Serif" font-size="10.00">src/Map.h</text>
</a>
</g>
</g>
<!-- Node1&#45;&gt;Node13 -->
<g id="edge16" class="edge">
<title>Node1&#45;&gt;Node13</title>
<path fill="none" stroke="midnightblue" d="M335.53,-326.1C334.9,-317.14 335.34,-306.86 336.87,-299.75"/>
<polygon fill="midnightblue" stroke="midnightblue" points="332.07,-326.62 336.83,-336.08 339.01,-325.71 332.07,-326.62"/>
</g>
<!-- Node14 -->
<g id="node14" class="node">
<title>Node14</title>
<g id="a_node14"><a xlink:href="Map_8cpp.html" target="_top" xlink:title=" ">
<polygon fill="white" stroke="black" points="465.5,-224.5 465.5,-243.5 540.5,-243.5 540.5,-224.5 465.5,-224.5"/>
<text text-anchor="middle" x="503" y="-231.5" font-family="Helvetica,sans-Serif" font-size="10.00">src/Map.cpp</text>
</a>
</g>
</g>
<!-- Node1&#45;&gt;Node14 -->
<g id="edge30" class="edge">
<title>Node1&#45;&gt;Node14</title>
<path fill="none" stroke="midnightblue" d="M362.91,-330.71C396.84,-307.53 462.85,-262.43 490.43,-243.59"/>
<polygon fill="midnightblue" stroke="midnightblue" points="360.92,-327.84 354.63,-336.37 364.86,-333.62 360.92,-327.84"/>
</g>
<!-- Node15 -->
<g id="node15" class="node">
<title>Node15</title>
<g id="a_node15"><a xlink:href="Entity_8cpp.html" target="_top" xlink:title=" ">
<polygon fill="white" stroke="black" points="597.5,-280.5 597.5,-299.5 678.5,-299.5 678.5,-280.5 597.5,-280.5"/>
<text text-anchor="middle" x="638" y="-287.5" font-family="Helvetica,sans-Serif" font-size="10.00">src/Entity.cpp</text>
</a>
</g>
</g>
<!-- Node1&#45;&gt;Node15 -->
<g id="edge28" class="edge">
<title>Node1&#45;&gt;Node15</title>
<path fill="none" stroke="midnightblue" d="M386.96,-336.8C444.17,-326.36 542.14,-308.49 597.25,-298.43"/>
<polygon fill="midnightblue" stroke="midnightblue" points="386.33,-333.36 377.12,-338.59 387.58,-340.24 386.33,-333.36"/>
</g>
<!-- Node2&#45;&gt;Node3 -->
<g id="edge2" class="edge">
<title>Node2&#45;&gt;Node3</title>
<path fill="none" stroke="midnightblue" d="M196.59,-218.1C209.37,-208.38 225.61,-196.03 236.39,-187.83"/>
<polygon fill="midnightblue" stroke="midnightblue" points="194.25,-215.48 188.41,-224.32 198.49,-221.06 194.25,-215.48"/>
</g>
<!-- Node2&#45;&gt;Node4 -->
<g id="edge3" class="edge">
<title>Node2&#45;&gt;Node4</title>
<path fill="none" stroke="midnightblue" d="M226.31,-222.31C274.25,-211.91 345.99,-196.35 389.17,-186.99"/>
<polygon fill="midnightblue" stroke="midnightblue" points="225.49,-218.9 216.45,-224.44 226.97,-225.74 225.49,-218.9"/>
</g>
<!-- Node7 -->
<g id="node7" class="node">
<title>Node7</title>
<g id="a_node7"><a xlink:href="Game_8h.html" target="_top" xlink:title=" ">
<polygon fill="white" stroke="black" points="313,-56.5 313,-75.5 385,-75.5 385,-56.5 313,-56.5"/>
<text text-anchor="middle" x="349" y="-63.5" font-family="Helvetica,sans-Serif" font-size="10.00">src/Game.h</text>
</a>
</g>
</g>
<!-- Node2&#45;&gt;Node7 -->
<g id="edge14" class="edge">
<title>Node2&#45;&gt;Node7</title>
<path fill="none" stroke="midnightblue" d="M176.71,-214.06C177.49,-199.78 180.82,-180.56 192,-168 223.69,-132.41 253.7,-158.95 293,-132 315.6,-116.5 334.64,-89.7 343.57,-75.85"/>
<polygon fill="midnightblue" stroke="midnightblue" points="173.21,-214.18 176.53,-224.24 180.21,-214.31 173.21,-214.18"/>
</g>
<!-- Node2&#45;&gt;Node9 -->
<g id="edge15" class="edge">
<title>Node2&#45;&gt;Node9</title>
<path fill="none" stroke="midnightblue" d="M174.87,-214.32C172.63,-194.07 169.14,-160.78 167,-132 163.87,-89.84 161.96,-39.29 161.28,-19.52"/>
<polygon fill="midnightblue" stroke="midnightblue" points="171.41,-214.82 176,-224.37 178.36,-214.04 171.41,-214.82"/>
</g>
<!-- Node2&#45;&gt;Node11 -->
<g id="edge11" class="edge">
<title>Node2&#45;&gt;Node11</title>
<path fill="none" stroke="midnightblue" d="M150.94,-219.73C131.32,-209.73 104.97,-196.31 87.99,-187.65"/>
<polygon fill="midnightblue" stroke="midnightblue" points="149.47,-222.9 159.97,-224.32 152.65,-216.67 149.47,-222.9"/>
</g>
<!-- Node5 -->
<g id="node5" class="node">
<title>Node5</title>
<g id="a_node5"><a xlink:href="Enemy_8h.html" target="_top" xlink:title=" ">
<polygon fill="white" stroke="black" points="209.5,-112.5 209.5,-131.5 284.5,-131.5 284.5,-112.5 209.5,-112.5"/>
<text text-anchor="middle" x="247" y="-119.5" font-family="Helvetica,sans-Serif" font-size="10.00">src/Enemy.h</text>
</a>
</g>
</g>
<!-- Node4&#45;&gt;Node5 -->
<g id="edge4" class="edge">
<title>Node4&#45;&gt;Node5</title>
<path fill="none" stroke="midnightblue" d="M387.67,-165.44C353.92,-155.26 305.55,-140.66 275.23,-131.52"/>
<polygon fill="midnightblue" stroke="midnightblue" points="387.05,-168.91 397.64,-168.44 389.07,-162.2 387.05,-168.91"/>
</g>
<!-- Node4&#45;&gt;Node7 -->
<g id="edge9" class="edge">
<title>Node4&#45;&gt;Node7</title>
<path fill="none" stroke="midnightblue" d="M402.55,-162.82C391.31,-154.97 378.49,-144.32 370,-132 357.76,-114.23 352.31,-88.87 350.18,-75.7"/>
<polygon fill="midnightblue" stroke="midnightblue" points="400.84,-165.88 411.11,-168.48 404.7,-160.04 400.84,-165.88"/>
</g>
<!-- Node10 -->
<g id="node10" class="node">
<title>Node10</title>
<g id="a_node10"><a xlink:href="Player_8cpp.html" target="_top" xlink:title=" ">
<polygon fill="white" stroke="black" points="379,-112.5 379,-131.5 463,-131.5 463,-112.5 379,-112.5"/>
<text text-anchor="middle" x="421" y="-119.5" font-family="Helvetica,sans-Serif" font-size="10.00">src/Player.cpp</text>
</a>
</g>
</g>
<!-- Node4&#45;&gt;Node10 -->
<g id="edge10" class="edge">
<title>Node4&#45;&gt;Node10</title>
<path fill="none" stroke="midnightblue" d="M424.25,-158.1C423.42,-149.14 422.47,-138.86 421.81,-131.75"/>
<polygon fill="midnightblue" stroke="midnightblue" points="420.77,-158.45 425.17,-168.08 427.74,-157.8 420.77,-158.45"/>
</g>
<!-- Node6 -->
<g id="node6" class="node">
<title>Node6</title>
<g id="a_node6"><a xlink:href="Enemy_8cpp.html" target="_top" xlink:title=" ">
<polygon fill="white" stroke="black" points="209,-56.5 209,-75.5 295,-75.5 295,-56.5 209,-56.5"/>
<text text-anchor="middle" x="252" y="-63.5" font-family="Helvetica,sans-Serif" font-size="10.00">src/Enemy.cpp</text>
</a>
</g>
</g>
<!-- Node5&#45;&gt;Node6 -->
<g id="edge5" class="edge">
<title>Node5&#45;&gt;Node6</title>
<path fill="none" stroke="midnightblue" d="M248.75,-102.1C249.58,-93.14 250.53,-82.86 251.19,-75.75"/>
<polygon fill="midnightblue" stroke="midnightblue" points="245.26,-101.8 247.83,-112.08 252.23,-102.45 245.26,-101.8"/>
</g>
<!-- Node5&#45;&gt;Node7 -->
<g id="edge6" class="edge">
<title>Node5&#45;&gt;Node7</title>
<path fill="none" stroke="midnightblue" d="M272.33,-107.59C291.19,-97.61 316.38,-84.27 332.65,-75.65"/>
<polygon fill="midnightblue" stroke="midnightblue" points="270.59,-104.55 263.39,-112.32 273.86,-110.74 270.59,-104.55"/>
</g>
<!-- Node8 -->
<g id="node8" class="node">
<title>Node8</title>
<g id="a_node8"><a xlink:href="Game_8cpp.html" target="_top" xlink:title=" ">
<polygon fill="white" stroke="black" points="307.5,-0.5 307.5,-19.5 390.5,-19.5 390.5,-0.5 307.5,-0.5"/>
<text text-anchor="middle" x="349" y="-7.5" font-family="Helvetica,sans-Serif" font-size="10.00">src/Game.cpp</text>
</a>
</g>
</g>
<!-- Node7&#45;&gt;Node8 -->
<g id="edge7" class="edge">
<title>Node7&#45;&gt;Node8</title>
<path fill="none" stroke="midnightblue" d="M349,-45.8C349,-36.91 349,-26.78 349,-19.75"/>
<polygon fill="midnightblue" stroke="midnightblue" points="345.5,-46.08 349,-56.08 352.5,-46.08 345.5,-46.08"/>
</g>
<!-- Node7&#45;&gt;Node9 -->
<g id="edge8" class="edge">
<title>Node7&#45;&gt;Node9</title>
<path fill="none" stroke="midnightblue" d="M309.2,-53.57C273.73,-43.38 222.63,-28.7 190.65,-19.52"/>
<polygon fill="midnightblue" stroke="midnightblue" points="308.63,-57.05 319.21,-56.44 310.57,-50.32 308.63,-57.05"/>
</g>
<!-- Node11&#45;&gt;Node5 -->
<g id="edge12" class="edge">
<title>Node11&#45;&gt;Node5</title>
<path fill="none" stroke="midnightblue" d="M108.69,-165.44C141.87,-155.26 189.43,-140.66 219.24,-131.52"/>
<polygon fill="midnightblue" stroke="midnightblue" points="107.42,-162.16 98.89,-168.44 109.47,-168.86 107.42,-162.16"/>
</g>
<!-- Node12 -->
<g id="node12" class="node">
<title>Node12</title>
<g id="a_node12"><a xlink:href="Tower_8cpp.html" target="_top" xlink:title=" ">
<polygon fill="white" stroke="black" points="28,-112.5 28,-131.5 110,-131.5 110,-112.5 28,-112.5"/>
<text text-anchor="middle" x="69" y="-119.5" font-family="Helvetica,sans-Serif" font-size="10.00">src/Tower.cpp</text>
</a>
</g>
</g>
<!-- Node11&#45;&gt;Node12 -->
<g id="edge13" class="edge">
<title>Node11&#45;&gt;Node12</title>
<path fill="none" stroke="midnightblue" d="M70.29,-157.8C69.96,-148.91 69.58,-138.78 69.32,-131.75"/>
<polygon fill="midnightblue" stroke="midnightblue" points="66.8,-158.22 70.67,-168.08 73.8,-157.96 66.8,-158.22"/>
</g>
<!-- Node13&#45;&gt;Node1 -->
<g id="edge17" class="edge">
<title>Node13&#45;&gt;Node1</title>
<path fill="none" stroke="midnightblue" d="M348.46,-309.69C349.11,-318.64 348.68,-328.93 347.17,-336.08"/>
<polygon fill="midnightblue" stroke="midnightblue" points="351.92,-309.2 347.13,-299.75 344.98,-310.13 351.92,-309.2"/>
</g>
<!-- Node13&#45;&gt;Node2 -->
<g id="edge18" class="edge">
<title>Node13&#45;&gt;Node2</title>
<path fill="none" stroke="midnightblue" d="M306.26,-277.3C275.17,-267.13 230.85,-252.62 203.02,-243.52"/>
<polygon fill="midnightblue" stroke="midnightblue" points="305.26,-280.66 315.86,-280.44 307.44,-274.01 305.26,-280.66"/>
</g>
<!-- Node13&#45;&gt;Node3 -->
<g id="edge19" class="edge">
<title>Node13&#45;&gt;Node3</title>
<path fill="none" stroke="midnightblue" d="M327.97,-272.59C307.71,-248.87 270.96,-205.87 255.34,-187.59"/>
<polygon fill="midnightblue" stroke="midnightblue" points="325.47,-275.04 334.62,-280.37 330.79,-270.49 325.47,-275.04"/>
</g>
<!-- Node13&#45;&gt;Node4 -->
<g id="edge20" class="edge">
<title>Node13&#45;&gt;Node4</title>
<path fill="none" stroke="midnightblue" d="M354.77,-272.27C372.93,-248.49 405.54,-205.79 419.44,-187.59"/>
<polygon fill="midnightblue" stroke="midnightblue" points="351.88,-270.3 348.59,-280.37 357.44,-274.54 351.88,-270.3"/>
</g>
<!-- Node13&#45;&gt;Node5 -->
<g id="edge21" class="edge">
<title>Node13&#45;&gt;Node5</title>
<path fill="none" stroke="midnightblue" d="M346.66,-270.4C351.88,-245.04 357.19,-199.22 337,-168 324.95,-149.37 302.7,-138.15 283.35,-131.57"/>
<polygon fill="midnightblue" stroke="midnightblue" points="343.23,-269.67 344.43,-280.2 350.06,-271.22 343.23,-269.67"/>
</g>
<!-- Node13&#45;&gt;Node7 -->
<g id="edge22" class="edge">
<title>Node13&#45;&gt;Node7</title>
<path fill="none" stroke="midnightblue" d="M370.9,-275.95C402.05,-260.13 449.97,-230.22 471,-188 482.1,-165.72 471.78,-156.89 472,-132 472.08,-123.11 477.09,-119.29 472,-112 452.53,-84.14 413.85,-73.47 385.04,-69.42"/>
<polygon fill="midnightblue" stroke="midnightblue" points="369.26,-272.86 361.82,-280.41 372.34,-279.14 369.26,-272.86"/>
</g>
<!-- Node13&#45;&gt;Node9 -->
<g id="edge23" class="edge">
<title>Node13&#45;&gt;Node9</title>
<path fill="none" stroke="midnightblue" d="M341.19,-270.23C339.06,-243.94 331.4,-196.2 304,-168 269.92,-132.92 234.21,-166.96 200,-132 183.79,-115.44 167.93,-44.63 162.75,-19.71"/>
<polygon fill="midnightblue" stroke="midnightblue" points="337.71,-270.6 341.82,-280.36 344.7,-270.16 337.71,-270.6"/>
</g>
<!-- Node13&#45;&gt;Node14 -->
<g id="edge24" class="edge">
<title>Node13&#45;&gt;Node14</title>
<path fill="none" stroke="midnightblue" d="M377.26,-277.17C407.58,-267 450.57,-252.59 477.61,-243.52"/>
<polygon fill="midnightblue" stroke="midnightblue" points="375.88,-273.95 367.51,-280.44 378.1,-280.58 375.88,-273.95"/>
</g>
</g>
</svg>
