<?xml version="1.0" encoding="UTF-8" standalone="no"?>
<!DOCTYPE svg PUBLIC "-//W3C//DTD SVG 1.1//EN"
 "http://www.w3.org/Graphics/SVG/1.1/DTD/svg11.dtd">
<!-- Generated by graphviz version 2.43.0 (0)
 -->
<!-- Title: src/Entity.h Pages: 1 -->
<svg width="359pt" height="140pt"
 viewBox="0.00 0.00 358.50 140.00" xmlns="http://www.w3.org/2000/svg" xmlns:xlink="http://www.w3.org/1999/xlink">
<g id="graph0" class="graph" transform="scale(1 1) rotate(0) translate(4 136)">
<title>src/Entity.h</title>
<polygon fill="white" stroke="transparent" points="-4,4 -4,-136 354.5,-136 354.5,4 -4,4"/>
<!-- Node1 -->
<g id="node1" class="node">
<title>Node1</title>
<g id="a_node1"><a xlink:title=" ">
<polygon fill="#bfbfbf" stroke="black" points="165.5,-112.5 165.5,-131.5 235.5,-131.5 235.5,-112.5 165.5,-112.5"/>
<text text-anchor="middle" x="200.5" y="-119.5" font-family="Helvetica,sans-Serif" font-size="10.00">src/Entity.h</text>
</a>
</g>
</g>
<!-- Node2 -->
<g id="node2" class="node">
<title>Node2</title>
<g id="a_node2"><a xlink:href="constants_8h.html" target="_top" xlink:title=" ">
<polygon fill="white" stroke="black" points="86,-56.5 86,-75.5 159,-75.5 159,-56.5 86,-56.5"/>
<text text-anchor="middle" x="122.5" y="-63.5" font-family="Helvetica,sans-Serif" font-size="10.00">constants.h</text>
</a>
</g>
</g>
<!-- Node1&#45;&gt;Node2 -->
<g id="edge1" class="edge">
<title>Node1&#45;&gt;Node2</title>
<path fill="none" stroke="midnightblue" d="M187.97,-112.32C175.91,-103.98 157.47,-91.21 143.23,-81.35"/>
<polygon fill="midnightblue" stroke="midnightblue" points="145.22,-78.47 135,-75.65 141.23,-84.22 145.22,-78.47"/>
</g>
<!-- Node3 -->
<g id="node3" class="node">
<title>Node3</title>
<g id="a_node3"><a xlink:href="Map_8h.html" target="_top" xlink:title=" ">
<polygon fill="white" stroke="black" points="177,-56.5 177,-75.5 224,-75.5 224,-56.5 177,-56.5"/>
<text text-anchor="middle" x="200.5" y="-63.5" font-family="Helvetica,sans-Serif" font-size="10.00">Map.h</text>
</a>
</g>
</g>
<!-- Node1&#45;&gt;Node3 -->
<g id="edge2" class="edge">
<title>Node1&#45;&gt;Node3</title>
<path fill="none" stroke="midnightblue" d="M195.33,-112.08C193.82,-104.93 193.39,-94.64 194.04,-85.69"/>
<polygon fill="midnightblue" stroke="midnightblue" points="197.52,-86.13 195.37,-75.75 190.58,-85.2 197.52,-86.13"/>
</g>
<!-- Node6 -->
<g id="node6" class="node">
<title>Node6</title>
<g id="a_node6"><a xlink:title=" ">
<polygon fill="white" stroke="#bfbfbf" points="292.5,-0.5 292.5,-19.5 350.5,-19.5 350.5,-0.5 292.5,-0.5"/>
<text text-anchor="middle" x="321.5" y="-7.5" font-family="Helvetica,sans-Serif" font-size="10.00">memory</text>
</a>
</g>
</g>
<!-- Node1&#45;&gt;Node6 -->
<g id="edge10" class="edge">
<title>Node1&#45;&gt;Node6</title>
<path fill="none" stroke="midnightblue" d="M210.12,-112.14C223.75,-99.61 249.47,-75.99 271.5,-56 282.33,-46.17 294.54,-35.18 304.18,-26.52"/>
<polygon fill="midnightblue" stroke="midnightblue" points="306.79,-28.89 311.89,-19.6 302.11,-23.68 306.79,-28.89"/>
</g>
<!-- Node9 -->
<g id="node9" class="node">
<title>Node9</title>
<g id="a_node9"><a xlink:title=" ">
<polygon fill="white" stroke="#bfbfbf" points="280.5,-56.5 280.5,-75.5 340.5,-75.5 340.5,-56.5 280.5,-56.5"/>
<text text-anchor="middle" x="310.5" y="-63.5" font-family="Helvetica,sans-Serif" font-size="10.00">iostream</text>
</a>
</g>
</g>
<!-- Node1&#45;&gt;Node9 -->
<g id="edge9" class="edge">
<title>Node1&#45;&gt;Node9</title>
<path fill="none" stroke="midnightblue" d="M218.17,-112.32C235.89,-103.62 263.4,-90.12 283.79,-80.11"/>
<polygon fill="midnightblue" stroke="midnightblue" points="285.44,-83.2 292.87,-75.65 282.35,-76.92 285.44,-83.2"/>
</g>
<!-- Node3&#45;&gt;Node1 -->
<g id="edge8" class="edge">
<title>Node3&#45;&gt;Node1</title>
<path fill="none" stroke="midnightblue" d="M205.63,-75.75C207.16,-82.86 207.6,-93.14 206.97,-102.1"/>
<polygon fill="midnightblue" stroke="midnightblue" points="203.49,-101.71 205.67,-112.08 210.43,-102.62 203.49,-101.71"/>
</g>
<!-- Node4 -->
<g id="node4" class="node">
<title>Node4</title>
<g id="a_node4"><a xlink:title=" ">
<polygon fill="white" stroke="#bfbfbf" points="0,-0.5 0,-19.5 47,-19.5 47,-0.5 0,-0.5"/>
<text text-anchor="middle" x="23.5" y="-7.5" font-family="Helvetica,sans-Serif" font-size="10.00">vector</text>
</a>
</g>
</g>
<!-- Node3&#45;&gt;Node4 -->
<g id="edge3" class="edge">
<title>Node3&#45;&gt;Node4</title>
<path fill="none" stroke="midnightblue" d="M177,-57.83C146.18,-48.43 91.95,-31.88 56.88,-21.18"/>
<polygon fill="midnightblue" stroke="midnightblue" points="57.69,-17.77 47.1,-18.2 55.64,-24.47 57.69,-17.77"/>
</g>
<!-- Node5 -->
<g id="node5" class="node">
<title>Node5</title>
<g id="a_node5"><a xlink:title=" ">
<polygon fill="white" stroke="#bfbfbf" points="65.5,-0.5 65.5,-19.5 109.5,-19.5 109.5,-0.5 65.5,-0.5"/>
<text text-anchor="middle" x="87.5" y="-7.5" font-family="Helvetica,sans-Serif" font-size="10.00">string</text>
</a>
</g>
</g>
<!-- Node3&#45;&gt;Node5 -->
<g id="edge4" class="edge">
<title>Node3&#45;&gt;Node5</title>
<path fill="none" stroke="midnightblue" d="M182.59,-56.44C164.25,-47.68 135.49,-33.94 114.41,-23.86"/>
<polygon fill="midnightblue" stroke="midnightblue" points="115.85,-20.67 105.32,-19.52 112.83,-26.99 115.85,-20.67"/>
</g>
<!-- Node3&#45;&gt;Node6 -->
<g id="edge5" class="edge">
<title>Node3&#45;&gt;Node6</title>
<path fill="none" stroke="midnightblue" d="M219.67,-56.44C239.41,-47.64 270.39,-33.81 292.99,-23.72"/>
<polygon fill="midnightblue" stroke="midnightblue" points="294.71,-26.79 302.42,-19.52 291.86,-20.4 294.71,-26.79"/>
</g>
<!-- Node7 -->
<g id="node7" class="node">
<title>Node7</title>
<g id="a_node7"><a xlink:title=" ">
<polygon fill="white" stroke="#bfbfbf" points="128,-0.5 128,-19.5 191,-19.5 191,-0.5 128,-0.5"/>
<text text-anchor="middle" x="159.5" y="-7.5" font-family="Helvetica,sans-Serif" font-size="10.00">ncurses.h</text>
</a>
</g>
</g>
<!-- Node3&#45;&gt;Node7 -->
<g id="edge6" class="edge">
<title>Node3&#45;&gt;Node7</title>
<path fill="none" stroke="midnightblue" d="M193.73,-56.08C187.94,-48.46 179.44,-37.26 172.36,-27.94"/>
<polygon fill="midnightblue" stroke="midnightblue" points="174.98,-25.6 166.14,-19.75 169.4,-29.83 174.98,-25.6"/>
</g>
<!-- Node8 -->
<g id="node8" class="node">
<title>Node8</title>
<g id="a_node8"><a xlink:title=" ">
<polygon fill="white" stroke="#bfbfbf" points="209,-0.5 209,-19.5 274,-19.5 274,-0.5 209,-0.5"/>
<text text-anchor="middle" x="241.5" y="-7.5" font-family="Helvetica,sans-Serif" font-size="10.00">functional</text>
</a>
</g>
</g>
<!-- Node3&#45;&gt;Node8 -->
<g id="edge7" class="edge">
<title>Node3&#45;&gt;Node8</title>
<path fill="none" stroke="midnightblue" d="M207.27,-56.08C213.06,-48.46 221.56,-37.26 228.64,-27.94"/>
<polygon fill="midnightblue" stroke="midnightblue" points="231.6,-29.83 234.86,-19.75 226.02,-25.6 231.6,-29.83"/>
</g>
</g>
</svg>
