<?xml version="1.0" encoding="UTF-8" standalone="no"?>
<!DOCTYPE svg PUBLIC "-//W3C//DTD SVG 1.1//EN"
 "http://www.w3.org/Graphics/SVG/1.1/DTD/svg11.dtd">
<!-- Generated by graphviz version 2.43.0 (0)
 -->
<!-- Title: src/Entity.h Pages: 1 -->
<svg width="626pt" height="364pt"
 viewBox="0.00 0.00 625.50 364.00" xmlns="http://www.w3.org/2000/svg" xmlns:xlink="http://www.w3.org/1999/xlink">
<g id="graph0" class="graph" transform="scale(1 1) rotate(0) translate(4 360)">
<title>src/Entity.h</title>
<polygon fill="white" stroke="transparent" points="-4,4 -4,-360 621.5,-360 621.5,4 -4,4"/>
<!-- Node1 -->
<g id="node1" class="node">
<title>Node1</title>
<g id="a_node1"><a xlink:title=" ">
<polygon fill="#bfbfbf" stroke="black" points="314,-336.5 314,-355.5 384,-355.5 384,-336.5 314,-336.5"/>
<text text-anchor="middle" x="349" y="-343.5" font-family="Helvetica,sans-Serif" font-size="10.00">src/Entity.h</text>
</a>
</g>
</g>
<!-- Node2 -->
<g id="node2" class="node">
<title>Node2</title>
<g id="a_node2"><a xlink:href="Attacker_8h.html" target="_top" xlink:title=" ">
<polygon fill="white" stroke="black" points="175.5,-224.5 175.5,-243.5 258.5,-243.5 258.5,-224.5 175.5,-224.5"/>
<text text-anchor="middle" x="217" y="-231.5" font-family="Helvetica,sans-Serif" font-size="10.00">src/Attacker.h</text>
</a>
</g>
</g>
<!-- Node1&#45;&gt;Node2 -->
<g id="edge1" class="edge">
<title>Node1&#45;&gt;Node2</title>
<path fill="none" stroke="midnightblue" d="M330.78,-329.82C302.66,-306.39 249.63,-262.19 227.31,-243.59"/>
<polygon fill="midnightblue" stroke="midnightblue" points="328.72,-332.66 338.64,-336.37 333.2,-327.28 328.72,-332.66"/>
</g>
<!-- Node4 -->
<g id="node4" class="node">
<title>Node4</title>
<g id="a_node4"><a xlink:href="Player_8h.html" target="_top" xlink:title=" ">
<polygon fill="white" stroke="black" points="315.5,-168.5 315.5,-187.5 388.5,-187.5 388.5,-168.5 315.5,-168.5"/>
<text text-anchor="middle" x="352" y="-175.5" font-family="Helvetica,sans-Serif" font-size="10.00">src/Player.h</text>
</a>
</g>
</g>
<!-- Node1&#45;&gt;Node4 -->
<g id="edge22" class="edge">
<title>Node1&#45;&gt;Node4</title>
<path fill="none" stroke="midnightblue" d="M384.27,-332.89C435.9,-313.2 522.41,-271.63 488,-224 465.5,-192.85 420.62,-182.91 388.57,-179.92"/>
<polygon fill="midnightblue" stroke="midnightblue" points="382.91,-329.65 374.76,-336.42 385.35,-336.22 382.91,-329.65"/>
</g>
<!-- Node11 -->
<g id="node11" class="node">
<title>Node11</title>
<g id="a_node11"><a xlink:href="Tower_8h.html" target="_top" xlink:title=" ">
<polygon fill="white" stroke="black" points="5.5,-168.5 5.5,-187.5 76.5,-187.5 76.5,-168.5 5.5,-168.5"/>
<text text-anchor="middle" x="41" y="-175.5" font-family="Helvetica,sans-Serif" font-size="10.00">src/Tower.h</text>
</a>
</g>
</g>
<!-- Node1&#45;&gt;Node11 -->
<g id="edge23" class="edge">
<title>Node1&#45;&gt;Node11</title>
<path fill="none" stroke="midnightblue" d="M323.9,-331.47C262.72,-298.5 107.27,-214.71 56.97,-187.61"/>
<polygon fill="midnightblue" stroke="midnightblue" points="322.41,-334.65 332.87,-336.31 325.73,-328.48 322.41,-334.65"/>
</g>
<!-- Node13 -->
<g id="node13" class="node">
<title>Node13</title>
<g id="a_node13"><a xlink:href="Map_8h.html" target="_top" xlink:title=" ">
<polygon fill="white" stroke="black" points="317,-280.5 317,-299.5 381,-299.5 381,-280.5 317,-280.5"/>
<text text-anchor="middle" x="349" y="-287.5" font-family="Helvetica,sans-Serif" font-size="10.00">src/Map.h</text>
</a>
</g>
</g>
<!-- Node1&#45;&gt;Node13 -->
<g id="edge15" class="edge">
<title>Node1&#45;&gt;Node13</title>
<path fill="none" stroke="midnightblue" d="M342.53,-326.1C341.9,-317.14 342.34,-306.86 343.87,-299.75"/>
<polygon fill="midnightblue" stroke="midnightblue" points="339.07,-326.62 343.83,-336.08 346.01,-325.71 339.07,-326.62"/>
</g>
<!-- Node14 -->
<g id="node14" class="node">
<title>Node14</title>
<g id="a_node14"><a xlink:href="Map_8cpp.html" target="_top" xlink:title=" ">
<polygon fill="white" stroke="black" points="404.5,-224.5 404.5,-243.5 479.5,-243.5 479.5,-224.5 404.5,-224.5"/>
<text text-anchor="middle" x="442" y="-231.5" font-family="Helvetica,sans-Serif" font-size="10.00">src/Map.cpp</text>
</a>
</g>
</g>
<!-- Node1&#45;&gt;Node14 -->
<g id="edge25" class="edge">
<title>Node1&#45;&gt;Node14</title>
<path fill="none" stroke="midnightblue" d="M364.2,-328.82C372.04,-320.35 381.68,-309.74 390,-300 406.89,-280.22 425.74,-256.12 435.44,-243.55"/>
<polygon fill="midnightblue" stroke="midnightblue" points="361.6,-326.48 357.34,-336.19 366.72,-331.26 361.6,-326.48"/>
</g>
<!-- Node15 -->
<g id="node15" class="node">
<title>Node15</title>
<g id="a_node15"><a xlink:href="Entity_8cpp.html" target="_top" xlink:title=" ">
<polygon fill="white" stroke="black" points="536.5,-280.5 536.5,-299.5 617.5,-299.5 617.5,-280.5 536.5,-280.5"/>
<text text-anchor="middle" x="577" y="-287.5" font-family="Helvetica,sans-Serif" font-size="10.00">src/Entity.cpp</text>
</a>
</g>
</g>
<!-- Node1&#45;&gt;Node15 -->
<g id="edge24" class="edge">
<title>Node1&#45;&gt;Node15</title>
<path fill="none" stroke="midnightblue" d="M394.06,-334.33C437.16,-324.12 501.32,-308.92 541.08,-299.51"/>
<polygon fill="midnightblue" stroke="midnightblue" points="393.05,-330.97 384.13,-336.68 394.66,-337.78 393.05,-330.97"/>
</g>
<!-- Node3 -->
<g id="node3" class="node">
<title>Node3</title>
<g id="a_node3"><a xlink:href="Attacker_8cpp.html" target="_top" xlink:title=" ">
<polygon fill="white" stroke="black" points="95,-168.5 95,-187.5 189,-187.5 189,-168.5 95,-168.5"/>
<text text-anchor="middle" x="142" y="-175.5" font-family="Helvetica,sans-Serif" font-size="10.00">src/Attacker.cpp</text>
</a>
</g>
</g>
<!-- Node2&#45;&gt;Node3 -->
<g id="edge2" class="edge">
<title>Node2&#45;&gt;Node3</title>
<path fill="none" stroke="midnightblue" d="M196.69,-218.38C183.14,-208.62 165.76,-196.11 154.27,-187.83"/>
<polygon fill="midnightblue" stroke="midnightblue" points="194.79,-221.32 204.95,-224.32 198.88,-215.64 194.79,-221.32"/>
</g>
<!-- Node2&#45;&gt;Node4 -->
<g id="edge3" class="edge">
<title>Node2&#45;&gt;Node4</title>
<path fill="none" stroke="midnightblue" d="M247.91,-220.64C273.24,-210.5 308.43,-196.43 330.71,-187.52"/>
<polygon fill="midnightblue" stroke="midnightblue" points="246.38,-217.48 238.39,-224.44 248.98,-223.98 246.38,-217.48"/>
</g>
<!-- Node7 -->
<g id="node7" class="node">
<title>Node7</title>
<g id="a_node7"><a xlink:href="Game_8h.html" target="_top" xlink:title=" ">
<polygon fill="white" stroke="black" points="351,-56.5 351,-75.5 423,-75.5 423,-56.5 351,-56.5"/>
<text text-anchor="middle" x="387" y="-63.5" font-family="Helvetica,sans-Serif" font-size="10.00">src/Game.h</text>
</a>
</g>
</g>
<!-- Node2&#45;&gt;Node7 -->
<g id="edge14" class="edge">
<title>Node2&#45;&gt;Node7</title>
<path fill="none" stroke="midnightblue" d="M212.67,-214.37C206.19,-184.45 195.94,-127.47 208,-112 225.39,-89.7 303.89,-76.76 350.96,-70.87"/>
<polygon fill="midnightblue" stroke="midnightblue" points="209.31,-215.38 214.92,-224.37 216.14,-213.85 209.31,-215.38"/>
</g>
<!-- Node2&#45;&gt;Node11 -->
<g id="edge11" class="edge">
<title>Node2&#45;&gt;Node11</title>
<path fill="none" stroke="midnightblue" d="M179.31,-221.44C146.13,-211.26 98.57,-196.66 68.76,-187.52"/>
<polygon fill="midnightblue" stroke="midnightblue" points="178.53,-224.86 189.11,-224.44 180.58,-218.16 178.53,-224.86"/>
</g>
<!-- Node5 -->
<g id="node5" class="node">
<title>Node5</title>
<g id="a_node5"><a xlink:href="Enemy_8h.html" target="_top" xlink:title=" ">
<polygon fill="white" stroke="black" points="217.5,-112.5 217.5,-131.5 292.5,-131.5 292.5,-112.5 217.5,-112.5"/>
<text text-anchor="middle" x="255" y="-119.5" font-family="Helvetica,sans-Serif" font-size="10.00">src/Enemy.h</text>
</a>
</g>
</g>
<!-- Node4&#45;&gt;Node5 -->
<g id="edge4" class="edge">
<title>Node4&#45;&gt;Node5</title>
<path fill="none" stroke="midnightblue" d="M327.66,-163.45C309.76,-153.48 285.95,-140.23 270.55,-131.65"/>
<polygon fill="midnightblue" stroke="midnightblue" points="325.98,-166.52 336.42,-168.32 329.38,-160.4 325.98,-166.52"/>
</g>
<!-- Node4&#45;&gt;Node7 -->
<g id="edge9" class="edge">
<title>Node4&#45;&gt;Node7</title>
<path fill="none" stroke="midnightblue" d="M376.12,-162.47C386.44,-154.83 397.38,-144.44 403,-132 411.6,-112.93 400.2,-88.54 392.67,-75.74"/>
<polygon fill="midnightblue" stroke="midnightblue" points="373.99,-159.69 367.73,-168.24 377.96,-165.46 373.99,-159.69"/>
</g>
<!-- Node10 -->
<g id="node10" class="node">
<title>Node10</title>
<g id="a_node10"><a xlink:href="Player_8cpp.html" target="_top" xlink:title=" ">
<polygon fill="white" stroke="black" points="310,-112.5 310,-131.5 394,-131.5 394,-112.5 310,-112.5"/>
<text text-anchor="middle" x="352" y="-119.5" font-family="Helvetica,sans-Serif" font-size="10.00">src/Player.cpp</text>
</a>
</g>
</g>
<!-- Node4&#45;&gt;Node10 -->
<g id="edge10" class="edge">
<title>Node4&#45;&gt;Node10</title>
<path fill="none" stroke="midnightblue" d="M352,-157.8C352,-148.91 352,-138.78 352,-131.75"/>
<polygon fill="midnightblue" stroke="midnightblue" points="348.5,-158.08 352,-168.08 355.5,-158.08 348.5,-158.08"/>
</g>
<!-- Node6 -->
<g id="node6" class="node">
<title>Node6</title>
<g id="a_node6"><a xlink:href="Enemy_8cpp.html" target="_top" xlink:title=" ">
<polygon fill="white" stroke="black" points="212,-56.5 212,-75.5 298,-75.5 298,-56.5 212,-56.5"/>
<text text-anchor="middle" x="255" y="-63.5" font-family="Helvetica,sans-Serif" font-size="10.00">src/Enemy.cpp</text>
</a>
</g>
</g>
<!-- Node5&#45;&gt;Node6 -->
<g id="edge5" class="edge">
<title>Node5&#45;&gt;Node6</title>
<path fill="none" stroke="midnightblue" d="M255,-101.8C255,-92.91 255,-82.78 255,-75.75"/>
<polygon fill="midnightblue" stroke="midnightblue" points="251.5,-102.08 255,-112.08 258.5,-102.08 251.5,-102.08"/>
</g>
<!-- Node5&#45;&gt;Node7 -->
<g id="edge6" class="edge">
<title>Node5&#45;&gt;Node7</title>
<path fill="none" stroke="midnightblue" d="M285.22,-108.64C309.99,-98.5 344.4,-84.43 366.18,-75.52"/>
<polygon fill="midnightblue" stroke="midnightblue" points="283.85,-105.42 275.92,-112.44 286.5,-111.9 283.85,-105.42"/>
</g>
<!-- Node8 -->
<g id="node8" class="node">
<title>Node8</title>
<g id="a_node8"><a xlink:href="Game_8cpp.html" target="_top" xlink:title=" ">
<polygon fill="white" stroke="black" points="296.5,-0.5 296.5,-19.5 379.5,-19.5 379.5,-0.5 296.5,-0.5"/>
<text text-anchor="middle" x="338" y="-7.5" font-family="Helvetica,sans-Serif" font-size="10.00">src/Game.cpp</text>
</a>
</g>
</g>
<!-- Node7&#45;&gt;Node8 -->
<g id="edge7" class="edge">
<title>Node7&#45;&gt;Node8</title>
<path fill="none" stroke="midnightblue" d="M371.97,-48.43C363.38,-38.97 352.96,-27.48 345.94,-19.75"/>
<polygon fill="midnightblue" stroke="midnightblue" points="369.6,-51.03 378.91,-56.08 374.78,-46.33 369.6,-51.03"/>
</g>
<!-- Node9 -->
<g id="node9" class="node">
<title>Node9</title>
<g id="a_node9"><a xlink:href="main_8cpp.html" target="_top" xlink:title=" ">
<polygon fill="white" stroke="black" points="397.5,-0.5 397.5,-19.5 476.5,-19.5 476.5,-0.5 397.5,-0.5"/>
<text text-anchor="middle" x="437" y="-7.5" font-family="Helvetica,sans-Serif" font-size="10.00">src/main.cpp</text>
</a>
</g>
</g>
<!-- Node7&#45;&gt;Node9 -->
<g id="edge8" class="edge">
<title>Node7&#45;&gt;Node9</title>
<path fill="none" stroke="midnightblue" d="M402.08,-48.72C410.89,-39.2 421.67,-27.56 428.9,-19.75"/>
<polygon fill="midnightblue" stroke="midnightblue" points="399.48,-46.37 395.26,-56.08 404.62,-51.12 399.48,-46.37"/>
</g>
<!-- Node11&#45;&gt;Node5 -->
<g id="edge12" class="edge">
<title>Node11&#45;&gt;Node5</title>
<path fill="none" stroke="midnightblue" d="M84.76,-165.96C125.17,-155.76 184.37,-140.82 221.25,-131.52"/>
<polygon fill="midnightblue" stroke="midnightblue" points="83.75,-162.6 74.91,-168.44 85.46,-169.39 83.75,-162.6"/>
</g>
<!-- Node12 -->
<g id="node12" class="node">
<title>Node12</title>
<g id="a_node12"><a xlink:href="Tower_8cpp.html" target="_top" xlink:title=" ">
<polygon fill="white" stroke="black" points="0,-112.5 0,-131.5 82,-131.5 82,-112.5 0,-112.5"/>
<text text-anchor="middle" x="41" y="-119.5" font-family="Helvetica,sans-Serif" font-size="10.00">src/Tower.cpp</text>
</a>
</g>
</g>
<!-- Node11&#45;&gt;Node12 -->
<g id="edge13" class="edge">
<title>Node11&#45;&gt;Node12</title>
<path fill="none" stroke="midnightblue" d="M41,-157.8C41,-148.91 41,-138.78 41,-131.75"/>
<polygon fill="midnightblue" stroke="midnightblue" points="37.5,-158.08 41,-168.08 44.5,-158.08 37.5,-158.08"/>
</g>
<!-- Node13&#45;&gt;Node1 -->
<g id="edge16" class="edge">
<title>Node13&#45;&gt;Node1</title>
<path fill="none" stroke="midnightblue" d="M355.46,-309.69C356.11,-318.64 355.68,-328.93 354.17,-336.08"/>
<polygon fill="midnightblue" stroke="midnightblue" points="358.92,-309.2 354.13,-299.75 351.98,-310.13 358.92,-309.2"/>
</g>
<!-- Node13&#45;&gt;Node2 -->
<g id="edge17" class="edge">
<title>Node13&#45;&gt;Node2</title>
<path fill="none" stroke="midnightblue" d="M318.78,-276.64C294.01,-266.5 259.6,-252.43 237.82,-243.52"/>
<polygon fill="midnightblue" stroke="midnightblue" points="317.5,-279.9 328.08,-280.44 320.15,-273.42 317.5,-279.9"/>
</g>
<!-- Node13&#45;&gt;Node4 -->
<g id="edge18" class="edge">
<title>Node13&#45;&gt;Node4</title>
<path fill="none" stroke="midnightblue" d="M349.51,-270.35C350.17,-246.25 351.28,-205.31 351.77,-187.59"/>
<polygon fill="midnightblue" stroke="midnightblue" points="346.01,-270.28 349.24,-280.37 353.01,-270.47 346.01,-270.28"/>
</g>
<!-- Node13&#45;&gt;Node5 -->
<g id="edge19" class="edge">
<title>Node13&#45;&gt;Node5</title>
<path fill="none" stroke="midnightblue" d="M338.98,-271.31C318.94,-235.92 274.57,-157.56 259.85,-131.57"/>
<polygon fill="midnightblue" stroke="midnightblue" points="335.97,-273.1 343.95,-280.08 342.06,-269.65 335.97,-273.1"/>
</g>
<!-- Node13&#45;&gt;Node7 -->
<g id="edge20" class="edge">
<title>Node13&#45;&gt;Node7</title>
<path fill="none" stroke="midnightblue" d="M360,-271.66C377,-243.63 408.77,-186.03 419,-132 420.65,-123.27 421.7,-120.47 419,-112 414.45,-97.75 403.56,-84.16 395.75,-75.71"/>
<polygon fill="midnightblue" stroke="midnightblue" points="356.94,-269.94 354.66,-280.28 362.9,-273.62 356.94,-269.94"/>
</g>
<!-- Node13&#45;&gt;Node14 -->
<g id="edge21" class="edge">
<title>Node13&#45;&gt;Node14</title>
<path fill="none" stroke="midnightblue" d="M372.81,-275.18C389.92,-265.24 412.47,-252.15 427.1,-243.65"/>
<polygon fill="midnightblue" stroke="midnightblue" points="370.83,-272.28 363.94,-280.32 374.35,-278.33 370.83,-272.28"/>
</g>
</g>
</svg>
