<?xml version="1.0" encoding="UTF-8" standalone="no"?>
<!DOCTYPE svg PUBLIC "-//W3C//DTD SVG 1.1//EN"
 "http://www.w3.org/Graphics/SVG/1.1/DTD/svg11.dtd">
<!-- Generated by graphviz version 2.43.0 (0)
 -->
<!-- Title: src/Entity.cpp Pages: 1 -->
<svg width="698pt" height="252pt"
 viewBox="0.00 0.00 698.41 252.00" xmlns="http://www.w3.org/2000/svg" xmlns:xlink="http://www.w3.org/1999/xlink">
<g id="graph0" class="graph" transform="scale(1 1) rotate(0) translate(4 248)">
<title>src/Entity.cpp</title>
<polygon fill="white" stroke="transparent" points="-4,4 -4,-248 694.41,-248 694.41,4 -4,4"/>
<!-- Node1 -->
<g id="node1" class="node">
<title>Node1</title>
<g id="a_node1"><a xlink:title=" ">
<polygon fill="#bfbfbf" stroke="black" points="373.91,-224.5 373.91,-243.5 454.91,-243.5 454.91,-224.5 373.91,-224.5"/>
<text text-anchor="middle" x="414.41" y="-231.5" font-family="Helvetica,sans-Serif" font-size="10.00">src/Entity.cpp</text>
</a>
</g>
</g>
<!-- Node2 -->
<g id="node2" class="node">
<title>Node2</title>
<g id="a_node2"><a xlink:href="Entity_8h.html" target="_top" xlink:title=" ">
<polygon fill="white" stroke="black" points="387.91,-168.5 387.91,-187.5 440.91,-187.5 440.91,-168.5 387.91,-168.5"/>
<text text-anchor="middle" x="414.41" y="-175.5" font-family="Helvetica,sans-Serif" font-size="10.00">Entity.h</text>
</a>
</g>
</g>
<!-- Node1&#45;&gt;Node2 -->
<g id="edge1" class="edge">
<title>Node1&#45;&gt;Node2</title>
<path fill="none" stroke="midnightblue" d="M414.41,-224.08C414.41,-217.01 414.41,-206.86 414.41,-197.99"/>
<polygon fill="midnightblue" stroke="midnightblue" points="417.91,-197.75 414.41,-187.75 410.91,-197.75 417.91,-197.75"/>
</g>
<!-- Node3 -->
<g id="node3" class="node">
<title>Node3</title>
<g id="a_node3"><a xlink:href="constants_8h.html" target="_top" xlink:title=" ">
<polygon fill="white" stroke="black" points="16.91,-0.5 16.91,-19.5 89.91,-19.5 89.91,-0.5 16.91,-0.5"/>
<text text-anchor="middle" x="53.41" y="-7.5" font-family="Helvetica,sans-Serif" font-size="10.00">constants.h</text>
</a>
</g>
</g>
<!-- Node2&#45;&gt;Node3 -->
<g id="edge2" class="edge">
<title>Node2&#45;&gt;Node3</title>
<path fill="none" stroke="midnightblue" d="M387.83,-174.74C304.5,-167.02 51.08,-138.7 4.41,-76 -8.57,-58.56 11.74,-38.61 30.02,-25.46"/>
<polygon fill="midnightblue" stroke="midnightblue" points="32.36,-28.1 38.68,-19.6 28.44,-22.31 32.36,-28.1"/>
</g>
<!-- Node4 -->
<g id="node4" class="node">
<title>Node4</title>
<g id="a_node4"><a xlink:href="Map_8h.html" target="_top" xlink:title=" ">
<polygon fill="white" stroke="black" points="334.91,-112.5 334.91,-131.5 381.91,-131.5 381.91,-112.5 334.91,-112.5"/>
<text text-anchor="middle" x="358.41" y="-119.5" font-family="Helvetica,sans-Serif" font-size="10.00">Map.h</text>
</a>
</g>
</g>
<!-- Node2&#45;&gt;Node4 -->
<g id="edge3" class="edge">
<title>Node2&#45;&gt;Node4</title>
<path fill="none" stroke="midnightblue" d="M400.3,-168.32C390.59,-160.58 378.21,-149.02 369.26,-139.51"/>
<polygon fill="midnightblue" stroke="midnightblue" points="371.69,-136.98 362.42,-131.83 366.46,-141.63 371.69,-136.98"/>
</g>
<!-- Node7 -->
<g id="node7" class="node">
<title>Node7</title>
<g id="a_node7"><a xlink:title=" ">
<polygon fill="white" stroke="#bfbfbf" points="13.41,-56.5 13.41,-75.5 71.41,-75.5 71.41,-56.5 13.41,-56.5"/>
<text text-anchor="middle" x="42.41" y="-63.5" font-family="Helvetica,sans-Serif" font-size="10.00">memory</text>
</a>
</g>
</g>
<!-- Node2&#45;&gt;Node7 -->
<g id="edge21" class="edge">
<title>Node2&#45;&gt;Node7</title>
<path fill="none" stroke="midnightblue" d="M387.66,-169.09C322.69,-149.88 156.38,-100.7 80.81,-78.36"/>
<polygon fill="midnightblue" stroke="midnightblue" points="81.78,-74.99 71.2,-75.51 79.8,-81.71 81.78,-74.99"/>
</g>
<!-- Node8 -->
<g id="node8" class="node">
<title>Node8</title>
<g id="a_node8"><a xlink:title=" ">
<polygon fill="white" stroke="#bfbfbf" points="438.91,-56.5 438.91,-75.5 501.91,-75.5 501.91,-56.5 438.91,-56.5"/>
<text text-anchor="middle" x="470.41" y="-63.5" font-family="Helvetica,sans-Serif" font-size="10.00">ncurses.h</text>
</a>
</g>
</g>
<!-- Node2&#45;&gt;Node8 -->
<g id="edge18" class="edge">
<title>Node2&#45;&gt;Node8</title>
<path fill="none" stroke="midnightblue" d="M418.8,-168.37C427.96,-150.38 449.26,-108.55 461.44,-84.63"/>
<polygon fill="midnightblue" stroke="midnightblue" points="464.62,-86.09 466.04,-75.59 458.38,-82.92 464.62,-86.09"/>
</g>
<!-- Node15 -->
<g id="node15" class="node">
<title>Node15</title>
<g id="a_node15"><a xlink:title=" ">
<polygon fill="white" stroke="#bfbfbf" points="472.41,-0.5 472.41,-19.5 532.41,-19.5 532.41,-0.5 472.41,-0.5"/>
<text text-anchor="middle" x="502.41" y="-7.5" font-family="Helvetica,sans-Serif" font-size="10.00">iostream</text>
</a>
</g>
</g>
<!-- Node2&#45;&gt;Node15 -->
<g id="edge20" class="edge">
<title>Node2&#45;&gt;Node15</title>
<path fill="none" stroke="midnightblue" d="M427.56,-168.35C449.67,-152.91 493.54,-118.24 510.41,-76 516.4,-61 513.28,-42.64 509.32,-29.26"/>
<polygon fill="midnightblue" stroke="midnightblue" points="512.62,-28.12 506.11,-19.76 505.99,-30.35 512.62,-28.12"/>
</g>
<!-- Node16 -->
<g id="node16" class="node">
<title>Node16</title>
<g id="a_node16"><a xlink:href="HelpStructs_8h.html" target="_top" xlink:title=" ">
<polygon fill="white" stroke="black" points="558.41,-112.5 558.41,-131.5 640.41,-131.5 640.41,-112.5 558.41,-112.5"/>
<text text-anchor="middle" x="599.41" y="-119.5" font-family="Helvetica,sans-Serif" font-size="10.00">HelpStructs.h</text>
</a>
</g>
</g>
<!-- Node2&#45;&gt;Node16 -->
<g id="edge19" class="edge">
<title>Node2&#45;&gt;Node16</title>
<path fill="none" stroke="midnightblue" d="M440.92,-169.26C472.24,-160.12 524.63,-144.83 560.54,-134.34"/>
<polygon fill="midnightblue" stroke="midnightblue" points="561.59,-137.69 570.21,-131.52 559.63,-130.97 561.59,-137.69"/>
</g>
<!-- Node17 -->
<g id="node17" class="node">
<title>Node17</title>
<g id="a_node17"><a xlink:title=" ">
<polygon fill="white" stroke="#bfbfbf" points="658.41,-112.5 658.41,-131.5 690.41,-131.5 690.41,-112.5 658.41,-112.5"/>
<text text-anchor="middle" x="674.41" y="-119.5" font-family="Helvetica,sans-Serif" font-size="10.00">set</text>
</a>
</g>
</g>
<!-- Node2&#45;&gt;Node17 -->
<g id="edge22" class="edge">
<title>Node2&#45;&gt;Node17</title>
<path fill="none" stroke="midnightblue" d="M441.15,-173.27C483.37,-167.09 568.13,-153.48 648.6,-131.86"/>
<polygon fill="midnightblue" stroke="midnightblue" points="649.67,-135.2 658.39,-129.18 647.82,-128.45 649.67,-135.2"/>
</g>
<!-- Node4&#45;&gt;Node2 -->
<g id="edge10" class="edge">
<title>Node4&#45;&gt;Node2</title>
<path fill="none" stroke="midnightblue" d="M372.62,-131.75C382.29,-139.48 394.59,-150.97 403.51,-160.43"/>
<polygon fill="midnightblue" stroke="midnightblue" points="401.06,-162.95 410.33,-168.08 406.29,-158.29 401.06,-162.95"/>
</g>
<!-- Node5 -->
<g id="node5" class="node">
<title>Node5</title>
<g id="a_node5"><a xlink:title=" ">
<polygon fill="white" stroke="#bfbfbf" points="334.91,-56.5 334.91,-75.5 381.91,-75.5 381.91,-56.5 334.91,-56.5"/>
<text text-anchor="middle" x="358.41" y="-63.5" font-family="Helvetica,sans-Serif" font-size="10.00">vector</text>
</a>
</g>
</g>
<!-- Node4&#45;&gt;Node5 -->
<g id="edge4" class="edge">
<title>Node4&#45;&gt;Node5</title>
<path fill="none" stroke="midnightblue" d="M358.41,-112.08C358.41,-105.01 358.41,-94.86 358.41,-85.99"/>
<polygon fill="midnightblue" stroke="midnightblue" points="361.91,-85.75 358.41,-75.75 354.91,-85.75 361.91,-85.75"/>
</g>
<!-- Node6 -->
<g id="node6" class="node">
<title>Node6</title>
<g id="a_node6"><a xlink:title=" ">
<polygon fill="white" stroke="#bfbfbf" points="383.41,-0.5 383.41,-19.5 427.41,-19.5 427.41,-0.5 383.41,-0.5"/>
<text text-anchor="middle" x="405.41" y="-7.5" font-family="Helvetica,sans-Serif" font-size="10.00">string</text>
</a>
</g>
</g>
<!-- Node4&#45;&gt;Node6 -->
<g id="edge5" class="edge">
<title>Node4&#45;&gt;Node6</title>
<path fill="none" stroke="midnightblue" d="M366.16,-112.34C373.47,-103.72 384.2,-89.81 390.41,-76 397.02,-61.29 400.88,-43.36 403.02,-30.06"/>
<polygon fill="midnightblue" stroke="midnightblue" points="406.54,-30.15 404.49,-19.76 399.61,-29.16 406.54,-30.15"/>
</g>
<!-- Node4&#45;&gt;Node7 -->
<g id="edge6" class="edge">
<title>Node4&#45;&gt;Node7</title>
<path fill="none" stroke="midnightblue" d="M334.88,-117.78C288.39,-111.28 181.35,-95.71 81.75,-76.15"/>
<polygon fill="midnightblue" stroke="midnightblue" points="82.31,-72.7 71.82,-74.19 80.95,-79.56 82.31,-72.7"/>
</g>
<!-- Node4&#45;&gt;Node8 -->
<g id="edge7" class="edge">
<title>Node4&#45;&gt;Node8</title>
<path fill="none" stroke="midnightblue" d="M376.4,-112.32C394.45,-103.62 422.46,-90.12 443.21,-80.11"/>
<polygon fill="midnightblue" stroke="midnightblue" points="444.97,-83.15 452.46,-75.65 441.93,-76.84 444.97,-83.15"/>
</g>
<!-- Node9 -->
<g id="node9" class="node">
<title>Node9</title>
<g id="a_node9"><a xlink:title=" ">
<polygon fill="white" stroke="#bfbfbf" points="89.91,-56.5 89.91,-75.5 154.91,-75.5 154.91,-56.5 89.91,-56.5"/>
<text text-anchor="middle" x="122.41" y="-63.5" font-family="Helvetica,sans-Serif" font-size="10.00">functional</text>
</a>
</g>
</g>
<!-- Node4&#45;&gt;Node9 -->
<g id="edge8" class="edge">
<title>Node4&#45;&gt;Node9</title>
<path fill="none" stroke="midnightblue" d="M334.48,-115.53C294.69,-106.42 214.38,-88.04 164.81,-76.7"/>
<polygon fill="midnightblue" stroke="midnightblue" points="165.56,-73.28 155.03,-74.46 164,-80.11 165.56,-73.28"/>
</g>
<!-- Node10 -->
<g id="node10" class="node">
<title>Node10</title>
<g id="a_node10"><a xlink:title=" ">
<polygon fill="white" stroke="#bfbfbf" points="172.91,-56.5 172.91,-75.5 219.91,-75.5 219.91,-56.5 172.91,-56.5"/>
<text text-anchor="middle" x="196.41" y="-63.5" font-family="Helvetica,sans-Serif" font-size="10.00">cmath</text>
</a>
</g>
</g>
<!-- Node4&#45;&gt;Node10 -->
<g id="edge9" class="edge">
<title>Node4&#45;&gt;Node10</title>
<path fill="none" stroke="midnightblue" d="M334.85,-113.15C307.14,-103.91 260.94,-88.51 229.6,-78.06"/>
<polygon fill="midnightblue" stroke="midnightblue" points="230.59,-74.7 219.99,-74.86 228.37,-81.34 230.59,-74.7"/>
</g>
<!-- Node11 -->
<g id="node11" class="node">
<title>Node11</title>
<g id="a_node11"><a xlink:href="Definitions_8h.html" target="_top" xlink:title=" ">
<polygon fill="white" stroke="black" points="238.41,-56.5 238.41,-75.5 316.41,-75.5 316.41,-56.5 238.41,-56.5"/>
<text text-anchor="middle" x="277.41" y="-63.5" font-family="Helvetica,sans-Serif" font-size="10.00">Definitions.h</text>
</a>
</g>
</g>
<!-- Node4&#45;&gt;Node11 -->
<g id="edge11" class="edge">
<title>Node4&#45;&gt;Node11</title>
<path fill="none" stroke="midnightblue" d="M345.4,-112.32C332.88,-103.98 313.73,-91.21 298.94,-81.35"/>
<polygon fill="midnightblue" stroke="midnightblue" points="300.65,-78.29 290.39,-75.65 296.77,-84.11 300.65,-78.29"/>
</g>
<!-- Node11&#45;&gt;Node3 -->
<g id="edge17" class="edge">
<title>Node11&#45;&gt;Node3</title>
<path fill="none" stroke="midnightblue" d="M241.92,-56.44C203.09,-47.08 140.75,-32.06 98.49,-21.87"/>
<polygon fill="midnightblue" stroke="midnightblue" points="99.28,-18.46 88.74,-19.52 97.64,-25.26 99.28,-18.46"/>
</g>
<!-- Node11&#45;&gt;Node6 -->
<g id="edge14" class="edge">
<title>Node11&#45;&gt;Node6</title>
<path fill="none" stroke="midnightblue" d="M297.69,-56.44C318.76,-47.56 351.93,-33.56 375.9,-23.45"/>
<polygon fill="midnightblue" stroke="midnightblue" points="377.37,-26.63 385.22,-19.52 374.65,-20.18 377.37,-26.63"/>
</g>
<!-- Node12 -->
<g id="node12" class="node">
<title>Node12</title>
<g id="a_node12"><a xlink:title=" ">
<polygon fill="white" stroke="#bfbfbf" points="249.91,-0.5 249.91,-19.5 304.91,-19.5 304.91,-0.5 249.91,-0.5"/>
<text text-anchor="middle" x="277.41" y="-7.5" font-family="Helvetica,sans-Serif" font-size="10.00">fstream</text>
</a>
</g>
</g>
<!-- Node11&#45;&gt;Node12 -->
<g id="edge12" class="edge">
<title>Node11&#45;&gt;Node12</title>
<path fill="none" stroke="midnightblue" d="M277.41,-56.08C277.41,-49.01 277.41,-38.86 277.41,-29.99"/>
<polygon fill="midnightblue" stroke="midnightblue" points="280.91,-29.75 277.41,-19.75 273.91,-29.75 280.91,-29.75"/>
</g>
<!-- Node13 -->
<g id="node13" class="node">
<title>Node13</title>
<g id="a_node13"><a xlink:title=" ">
<polygon fill="white" stroke="#bfbfbf" points="323.41,-0.5 323.41,-19.5 361.41,-19.5 361.41,-0.5 323.41,-0.5"/>
<text text-anchor="middle" x="342.41" y="-7.5" font-family="Helvetica,sans-Serif" font-size="10.00">map</text>
</a>
</g>
</g>
<!-- Node11&#45;&gt;Node13 -->
<g id="edge13" class="edge">
<title>Node11&#45;&gt;Node13</title>
<path fill="none" stroke="midnightblue" d="M287.85,-56.32C297.56,-48.26 312.22,-36.08 323.91,-26.37"/>
<polygon fill="midnightblue" stroke="midnightblue" points="326.32,-28.92 331.78,-19.83 321.85,-23.53 326.32,-28.92"/>
</g>
<!-- Node14 -->
<g id="node14" class="node">
<title>Node14</title>
<g id="a_node14"><a xlink:title=" ">
<polygon fill="white" stroke="#bfbfbf" points="175.41,-0.5 175.41,-19.5 231.41,-19.5 231.41,-0.5 175.41,-0.5"/>
<text text-anchor="middle" x="203.41" y="-7.5" font-family="Helvetica,sans-Serif" font-size="10.00">sstream</text>
</a>
</g>
</g>
<!-- Node11&#45;&gt;Node14 -->
<g id="edge15" class="edge">
<title>Node11&#45;&gt;Node14</title>
<path fill="none" stroke="midnightblue" d="M265.52,-56.32C254.26,-48.11 237.12,-35.6 223.7,-25.81"/>
<polygon fill="midnightblue" stroke="midnightblue" points="225.66,-22.9 215.52,-19.83 221.53,-28.56 225.66,-22.9"/>
</g>
<!-- Node11&#45;&gt;Node15 -->
<g id="edge16" class="edge">
<title>Node11&#45;&gt;Node15</title>
<path fill="none" stroke="midnightblue" d="M313.06,-56.44C353.7,-46.69 419.97,-30.79 462.35,-20.61"/>
<polygon fill="midnightblue" stroke="midnightblue" points="463.42,-23.96 472.33,-18.22 461.78,-17.15 463.42,-23.96"/>
</g>
</g>
</svg>
