<?xml version="1.0" encoding="UTF-8" standalone="no"?>
<!DOCTYPE svg PUBLIC "-//W3C//DTD SVG 1.1//EN"
 "http://www.w3.org/Graphics/SVG/1.1/DTD/svg11.dtd">
<!-- Generated by graphviz version 2.43.0 (0)
 -->
<!-- Title: src/Entity.cpp Pages: 1 -->
<svg width="598pt" height="252pt"
 viewBox="0.00 0.00 598.11 252.00" xmlns="http://www.w3.org/2000/svg" xmlns:xlink="http://www.w3.org/1999/xlink">
<g id="graph0" class="graph" transform="scale(1 1) rotate(0) translate(4 248)">
<title>src/Entity.cpp</title>
<polygon fill="white" stroke="transparent" points="-4,4 -4,-248 594.11,-248 594.11,4 -4,4"/>
<!-- Node1 -->
<g id="node1" class="node">
<title>Node1</title>
<g id="a_node1"><a xlink:title=" ">
<polygon fill="#bfbfbf" stroke="black" points="271.61,-224.5 271.61,-243.5 352.61,-243.5 352.61,-224.5 271.61,-224.5"/>
<text text-anchor="middle" x="312.11" y="-231.5" font-family="Helvetica,sans-Serif" font-size="10.00">src/Entity.cpp</text>
</a>
</g>
</g>
<!-- Node2 -->
<g id="node2" class="node">
<title>Node2</title>
<g id="a_node2"><a xlink:href="Entity_8h.html" target="_top" xlink:title=" ">
<polygon fill="white" stroke="black" points="285.61,-168.5 285.61,-187.5 338.61,-187.5 338.61,-168.5 285.61,-168.5"/>
<text text-anchor="middle" x="312.11" y="-175.5" font-family="Helvetica,sans-Serif" font-size="10.00">Entity.h</text>
</a>
</g>
</g>
<!-- Node1&#45;&gt;Node2 -->
<g id="edge1" class="edge">
<title>Node1&#45;&gt;Node2</title>
<path fill="none" stroke="midnightblue" d="M312.11,-224.08C312.11,-217.01 312.11,-206.86 312.11,-197.99"/>
<polygon fill="midnightblue" stroke="midnightblue" points="315.61,-197.75 312.11,-187.75 308.61,-197.75 315.61,-197.75"/>
</g>
<!-- Node3 -->
<g id="node3" class="node">
<title>Node3</title>
<g id="a_node3"><a xlink:href="constants_8h.html" target="_top" xlink:title=" ">
<polygon fill="white" stroke="black" points="16.61,-0.5 16.61,-19.5 89.61,-19.5 89.61,-0.5 16.61,-0.5"/>
<text text-anchor="middle" x="53.11" y="-7.5" font-family="Helvetica,sans-Serif" font-size="10.00">constants.h</text>
</a>
</g>
</g>
<!-- Node2&#45;&gt;Node3 -->
<g id="edge2" class="edge">
<title>Node2&#45;&gt;Node3</title>
<path fill="none" stroke="midnightblue" d="M285.36,-177.93C223,-178.43 68.4,-169.75 4.11,-76 -8.12,-58.17 11.76,-38.44 29.74,-25.45"/>
<polygon fill="midnightblue" stroke="midnightblue" points="31.97,-28.17 38.27,-19.65 28.03,-22.38 31.97,-28.17"/>
</g>
<!-- Node4 -->
<g id="node4" class="node">
<title>Node4</title>
<g id="a_node4"><a xlink:href="Map_8h.html" target="_top" xlink:title=" ">
<polygon fill="white" stroke="black" points="288.61,-112.5 288.61,-131.5 335.61,-131.5 335.61,-112.5 288.61,-112.5"/>
<text text-anchor="middle" x="312.11" y="-119.5" font-family="Helvetica,sans-Serif" font-size="10.00">Map.h</text>
</a>
</g>
</g>
<!-- Node2&#45;&gt;Node4 -->
<g id="edge3" class="edge">
<title>Node2&#45;&gt;Node4</title>
<path fill="none" stroke="midnightblue" d="M306.94,-168.08C305.43,-160.93 305,-150.64 305.65,-141.69"/>
<polygon fill="midnightblue" stroke="midnightblue" points="309.12,-142.13 306.98,-131.75 302.18,-141.2 309.12,-142.13"/>
</g>
<!-- Node7 -->
<g id="node7" class="node">
<title>Node7</title>
<g id="a_node7"><a xlink:title=" ">
<polygon fill="white" stroke="#bfbfbf" points="13.11,-56.5 13.11,-75.5 71.11,-75.5 71.11,-56.5 13.11,-56.5"/>
<text text-anchor="middle" x="42.11" y="-63.5" font-family="Helvetica,sans-Serif" font-size="10.00">memory</text>
</a>
</g>
</g>
<!-- Node2&#45;&gt;Node7 -->
<g id="edge19" class="edge">
<title>Node2&#45;&gt;Node7</title>
<path fill="none" stroke="midnightblue" d="M290.92,-168.37C243.31,-148.97 127.7,-101.87 72.46,-79.37"/>
<polygon fill="midnightblue" stroke="midnightblue" points="73.78,-76.12 63.19,-75.59 71.13,-82.61 73.78,-76.12"/>
</g>
<!-- Node8 -->
<g id="node8" class="node">
<title>Node8</title>
<g id="a_node8"><a xlink:title=" ">
<polygon fill="white" stroke="#bfbfbf" points="438.61,-56.5 438.61,-75.5 501.61,-75.5 501.61,-56.5 438.61,-56.5"/>
<text text-anchor="middle" x="470.11" y="-63.5" font-family="Helvetica,sans-Serif" font-size="10.00">ncurses.h</text>
</a>
</g>
</g>
<!-- Node2&#45;&gt;Node8 -->
<g id="edge21" class="edge">
<title>Node2&#45;&gt;Node8</title>
<path fill="none" stroke="midnightblue" d="M324.5,-168.37C351.5,-149.57 415.86,-104.77 449.23,-81.53"/>
<polygon fill="midnightblue" stroke="midnightblue" points="451.56,-84.18 457.77,-75.59 447.56,-78.43 451.56,-84.18"/>
</g>
<!-- Node15 -->
<g id="node15" class="node">
<title>Node15</title>
<g id="a_node15"><a xlink:title=" ">
<polygon fill="white" stroke="#bfbfbf" points="472.11,-0.5 472.11,-19.5 532.11,-19.5 532.11,-0.5 472.11,-0.5"/>
<text text-anchor="middle" x="502.11" y="-7.5" font-family="Helvetica,sans-Serif" font-size="10.00">iostream</text>
</a>
</g>
</g>
<!-- Node2&#45;&gt;Node15 -->
<g id="edge18" class="edge">
<title>Node2&#45;&gt;Node15</title>
<path fill="none" stroke="midnightblue" d="M338.69,-172.57C383.49,-163.52 472.78,-138.21 510.11,-76 518.59,-61.86 514.89,-42.88 510.1,-29.08"/>
<polygon fill="midnightblue" stroke="midnightblue" points="513.32,-27.72 506.39,-19.71 506.81,-30.29 513.32,-27.72"/>
</g>
<!-- Node16 -->
<g id="node16" class="node">
<title>Node16</title>
<g id="a_node16"><a xlink:title=" ">
<polygon fill="white" stroke="#bfbfbf" points="558.11,-112.5 558.11,-131.5 590.11,-131.5 590.11,-112.5 558.11,-112.5"/>
<text text-anchor="middle" x="574.11" y="-119.5" font-family="Helvetica,sans-Serif" font-size="10.00">set</text>
</a>
</g>
</g>
<!-- Node2&#45;&gt;Node16 -->
<g id="edge20" class="edge">
<title>Node2&#45;&gt;Node16</title>
<path fill="none" stroke="midnightblue" d="M338.74,-172.73C382.07,-165.57 470.41,-150.15 544.11,-132 545.38,-131.69 546.69,-131.35 548,-131"/>
<polygon fill="midnightblue" stroke="midnightblue" points="549.34,-134.26 558,-128.16 547.42,-127.53 549.34,-134.26"/>
</g>
<!-- Node4&#45;&gt;Node2 -->
<g id="edge10" class="edge">
<title>Node4&#45;&gt;Node2</title>
<path fill="none" stroke="midnightblue" d="M317.24,-131.75C318.76,-138.86 319.21,-149.14 318.58,-158.1"/>
<polygon fill="midnightblue" stroke="midnightblue" points="315.1,-157.71 317.27,-168.08 322.04,-158.62 315.1,-157.71"/>
</g>
<!-- Node5 -->
<g id="node5" class="node">
<title>Node5</title>
<g id="a_node5"><a xlink:title=" ">
<polygon fill="white" stroke="#bfbfbf" points="334.61,-56.5 334.61,-75.5 381.61,-75.5 381.61,-56.5 334.61,-56.5"/>
<text text-anchor="middle" x="358.11" y="-63.5" font-family="Helvetica,sans-Serif" font-size="10.00">vector</text>
</a>
</g>
</g>
<!-- Node4&#45;&gt;Node5 -->
<g id="edge4" class="edge">
<title>Node4&#45;&gt;Node5</title>
<path fill="none" stroke="midnightblue" d="M319.7,-112.08C326.33,-104.3 336.13,-92.8 344.16,-83.37"/>
<polygon fill="midnightblue" stroke="midnightblue" points="346.83,-85.63 350.65,-75.75 341.5,-81.09 346.83,-85.63"/>
</g>
<!-- Node6 -->
<g id="node6" class="node">
<title>Node6</title>
<g id="a_node6"><a xlink:title=" ">
<polygon fill="white" stroke="#bfbfbf" points="383.11,-0.5 383.11,-19.5 427.11,-19.5 427.11,-0.5 383.11,-0.5"/>
<text text-anchor="middle" x="405.11" y="-7.5" font-family="Helvetica,sans-Serif" font-size="10.00">string</text>
</a>
</g>
</g>
<!-- Node4&#45;&gt;Node6 -->
<g id="edge5" class="edge">
<title>Node4&#45;&gt;Node6</title>
<path fill="none" stroke="midnightblue" d="M335.78,-113.23C353.39,-106.24 376.62,-94.22 390.11,-76 399.9,-62.76 403.44,-44.18 404.66,-30.27"/>
<polygon fill="midnightblue" stroke="midnightblue" points="408.17,-30.08 405.21,-19.91 401.18,-29.7 408.17,-30.08"/>
</g>
<!-- Node4&#45;&gt;Node7 -->
<g id="edge6" class="edge">
<title>Node4&#45;&gt;Node7</title>
<path fill="none" stroke="midnightblue" d="M288.33,-116.72C247.88,-109.37 162.9,-93.62 81.08,-76.14"/>
<polygon fill="midnightblue" stroke="midnightblue" points="81.64,-72.68 71.12,-74 80.17,-79.52 81.64,-72.68"/>
</g>
<!-- Node4&#45;&gt;Node8 -->
<g id="edge7" class="edge">
<title>Node4&#45;&gt;Node8</title>
<path fill="none" stroke="midnightblue" d="M335.76,-112.92C362.13,-103.9 405.05,-89.23 435.26,-78.91"/>
<polygon fill="midnightblue" stroke="midnightblue" points="436.65,-82.13 444.98,-75.59 434.39,-75.51 436.65,-82.13"/>
</g>
<!-- Node9 -->
<g id="node9" class="node">
<title>Node9</title>
<g id="a_node9"><a xlink:title=" ">
<polygon fill="white" stroke="#bfbfbf" points="89.61,-56.5 89.61,-75.5 154.61,-75.5 154.61,-56.5 89.61,-56.5"/>
<text text-anchor="middle" x="122.11" y="-63.5" font-family="Helvetica,sans-Serif" font-size="10.00">functional</text>
</a>
</g>
</g>
<!-- Node4&#45;&gt;Node9 -->
<g id="edge8" class="edge">
<title>Node4&#45;&gt;Node9</title>
<path fill="none" stroke="midnightblue" d="M288.43,-114.27C256.74,-105.26 200.1,-89.17 161.83,-78.29"/>
<polygon fill="midnightblue" stroke="midnightblue" points="162.61,-74.87 152.04,-75.51 160.7,-81.61 162.61,-74.87"/>
</g>
<!-- Node10 -->
<g id="node10" class="node">
<title>Node10</title>
<g id="a_node10"><a xlink:title=" ">
<polygon fill="white" stroke="#bfbfbf" points="172.61,-56.5 172.61,-75.5 219.61,-75.5 219.61,-56.5 172.61,-56.5"/>
<text text-anchor="middle" x="196.11" y="-63.5" font-family="Helvetica,sans-Serif" font-size="10.00">cmath</text>
</a>
</g>
</g>
<!-- Node4&#45;&gt;Node10 -->
<g id="edge9" class="edge">
<title>Node4&#45;&gt;Node10</title>
<path fill="none" stroke="midnightblue" d="M293.73,-112.44C274.89,-103.68 245.38,-89.94 223.73,-79.86"/>
<polygon fill="midnightblue" stroke="midnightblue" points="224.94,-76.56 214.4,-75.52 221.99,-82.91 224.94,-76.56"/>
</g>
<!-- Node11 -->
<g id="node11" class="node">
<title>Node11</title>
<g id="a_node11"><a xlink:href="Definitions_8h.html" target="_top" xlink:title=" ">
<polygon fill="white" stroke="black" points="238.11,-56.5 238.11,-75.5 316.11,-75.5 316.11,-56.5 238.11,-56.5"/>
<text text-anchor="middle" x="277.11" y="-63.5" font-family="Helvetica,sans-Serif" font-size="10.00">Definitions.h</text>
</a>
</g>
</g>
<!-- Node4&#45;&gt;Node11 -->
<g id="edge11" class="edge">
<title>Node4&#45;&gt;Node11</title>
<path fill="none" stroke="midnightblue" d="M306.33,-112.08C301.43,-104.53 294.28,-93.49 288.27,-84.23"/>
<polygon fill="midnightblue" stroke="midnightblue" points="291.15,-82.24 282.78,-75.75 285.28,-86.05 291.15,-82.24"/>
</g>
<!-- Node11&#45;&gt;Node3 -->
<g id="edge17" class="edge">
<title>Node11&#45;&gt;Node3</title>
<path fill="none" stroke="midnightblue" d="M241.61,-56.44C202.78,-47.08 140.45,-32.06 98.19,-21.87"/>
<polygon fill="midnightblue" stroke="midnightblue" points="98.98,-18.46 88.43,-19.52 97.34,-25.26 98.98,-18.46"/>
</g>
<!-- Node11&#45;&gt;Node6 -->
<g id="edge14" class="edge">
<title>Node11&#45;&gt;Node6</title>
<path fill="none" stroke="midnightblue" d="M297.39,-56.44C318.45,-47.56 351.62,-33.56 375.59,-23.45"/>
<polygon fill="midnightblue" stroke="midnightblue" points="377.07,-26.63 384.92,-19.52 374.35,-20.18 377.07,-26.63"/>
</g>
<!-- Node12 -->
<g id="node12" class="node">
<title>Node12</title>
<g id="a_node12"><a xlink:title=" ">
<polygon fill="white" stroke="#bfbfbf" points="249.61,-0.5 249.61,-19.5 304.61,-19.5 304.61,-0.5 249.61,-0.5"/>
<text text-anchor="middle" x="277.11" y="-7.5" font-family="Helvetica,sans-Serif" font-size="10.00">fstream</text>
</a>
</g>
</g>
<!-- Node11&#45;&gt;Node12 -->
<g id="edge12" class="edge">
<title>Node11&#45;&gt;Node12</title>
<path fill="none" stroke="midnightblue" d="M277.11,-56.08C277.11,-49.01 277.11,-38.86 277.11,-29.99"/>
<polygon fill="midnightblue" stroke="midnightblue" points="280.61,-29.75 277.11,-19.75 273.61,-29.75 280.61,-29.75"/>
</g>
<!-- Node13 -->
<g id="node13" class="node">
<title>Node13</title>
<g id="a_node13"><a xlink:title=" ">
<polygon fill="white" stroke="#bfbfbf" points="323.11,-0.5 323.11,-19.5 361.11,-19.5 361.11,-0.5 323.11,-0.5"/>
<text text-anchor="middle" x="342.11" y="-7.5" font-family="Helvetica,sans-Serif" font-size="10.00">map</text>
</a>
</g>
</g>
<!-- Node11&#45;&gt;Node13 -->
<g id="edge13" class="edge">
<title>Node11&#45;&gt;Node13</title>
<path fill="none" stroke="midnightblue" d="M287.55,-56.32C297.25,-48.26 311.92,-36.08 323.61,-26.37"/>
<polygon fill="midnightblue" stroke="midnightblue" points="326.02,-28.92 331.47,-19.83 321.54,-23.53 326.02,-28.92"/>
</g>
<!-- Node14 -->
<g id="node14" class="node">
<title>Node14</title>
<g id="a_node14"><a xlink:title=" ">
<polygon fill="white" stroke="#bfbfbf" points="175.11,-0.5 175.11,-19.5 231.11,-19.5 231.11,-0.5 175.11,-0.5"/>
<text text-anchor="middle" x="203.11" y="-7.5" font-family="Helvetica,sans-Serif" font-size="10.00">sstream</text>
</a>
</g>
</g>
<!-- Node11&#45;&gt;Node14 -->
<g id="edge15" class="edge">
<title>Node11&#45;&gt;Node14</title>
<path fill="none" stroke="midnightblue" d="M265.22,-56.32C253.96,-48.11 236.82,-35.6 223.4,-25.81"/>
<polygon fill="midnightblue" stroke="midnightblue" points="225.35,-22.9 215.21,-19.83 221.23,-28.56 225.35,-22.9"/>
</g>
<!-- Node11&#45;&gt;Node15 -->
<g id="edge16" class="edge">
<title>Node11&#45;&gt;Node15</title>
<path fill="none" stroke="midnightblue" d="M312.76,-56.44C353.4,-46.69 419.66,-30.79 462.05,-20.61"/>
<polygon fill="midnightblue" stroke="midnightblue" points="463.11,-23.96 472.02,-18.22 461.48,-17.15 463.11,-23.96"/>
</g>
</g>
</svg>
