<?xml version="1.0" encoding="UTF-8" standalone="no"?>
<!DOCTYPE svg PUBLIC "-//W3C//DTD SVG 1.1//EN"
 "http://www.w3.org/Graphics/SVG/1.1/DTD/svg11.dtd">
<!-- Generated by graphviz version 2.43.0 (0)
 -->
<!-- Title: src/Entity.h Pages: 1 -->
<svg width="764pt" height="364pt"
 viewBox="0.00 0.00 763.50 364.00" xmlns="http://www.w3.org/2000/svg" xmlns:xlink="http://www.w3.org/1999/xlink">
<g id="graph0" class="graph" transform="scale(1 1) rotate(0) translate(4 360)">
<title>src/Entity.h</title>
<polygon fill="white" stroke="transparent" points="-4,4 -4,-360 759.5,-360 759.5,4 -4,4"/>
<!-- Node1 -->
<g id="node1" class="node">
<title>Node1</title>
<g id="a_node1"><a xlink:title=" ">
<polygon fill="#bfbfbf" stroke="black" points="365,-336.5 365,-355.5 435,-355.5 435,-336.5 365,-336.5"/>
<text text-anchor="middle" x="400" y="-343.5" font-family="Helvetica,sans-Serif" font-size="10.00">src/Entity.h</text>
</a>
</g>
</g>
<!-- Node2 -->
<g id="node2" class="node">
<title>Node2</title>
<g id="a_node2"><a xlink:href="Attacker_8h.html" target="_top" xlink:title=" ">
<polygon fill="white" stroke="black" points="200.5,-224.5 200.5,-243.5 283.5,-243.5 283.5,-224.5 200.5,-224.5"/>
<text text-anchor="middle" x="242" y="-231.5" font-family="Helvetica,sans-Serif" font-size="10.00">src/Attacker.h</text>
</a>
</g>
</g>
<!-- Node1&#45;&gt;Node2 -->
<g id="edge1" class="edge">
<title>Node1&#45;&gt;Node2</title>
<path fill="none" stroke="midnightblue" d="M379.05,-330.42C345.64,-307.15 281.28,-262.35 254.34,-243.59"/>
<polygon fill="midnightblue" stroke="midnightblue" points="377.4,-333.53 387.6,-336.37 381.39,-327.78 377.4,-333.53"/>
</g>
<!-- Node3 -->
<g id="node3" class="node">
<title>Node3</title>
<g id="a_node3"><a xlink:href="Attacker_8cpp.html" target="_top" xlink:title=" ">
<polygon fill="white" stroke="black" points="0,-168.5 0,-187.5 94,-187.5 94,-168.5 0,-168.5"/>
<text text-anchor="middle" x="47" y="-175.5" font-family="Helvetica,sans-Serif" font-size="10.00">src/Attacker.cpp</text>
</a>
</g>
</g>
<!-- Node1&#45;&gt;Node3 -->
<g id="edge26" class="edge">
<title>Node1&#45;&gt;Node3</title>
<path fill="none" stroke="midnightblue" d="M364.24,-333.1C314.52,-316.01 222.25,-282.33 148,-244 114.09,-226.5 77.05,-200.8 58.68,-187.57"/>
<polygon fill="midnightblue" stroke="midnightblue" points="363.29,-336.47 373.89,-336.39 365.55,-329.85 363.29,-336.47"/>
</g>
<!-- Node4 -->
<g id="node4" class="node">
<title>Node4</title>
<g id="a_node4"><a xlink:href="Player_8h.html" target="_top" xlink:title=" ">
<polygon fill="white" stroke="black" points="218.5,-168.5 218.5,-187.5 291.5,-187.5 291.5,-168.5 218.5,-168.5"/>
<text text-anchor="middle" x="255" y="-175.5" font-family="Helvetica,sans-Serif" font-size="10.00">src/Player.h</text>
</a>
</g>
</g>
<!-- Node1&#45;&gt;Node4 -->
<g id="edge27" class="edge">
<title>Node1&#45;&gt;Node4</title>
<path fill="none" stroke="midnightblue" d="M354.99,-337.74C304.9,-326.97 226.38,-301.47 191,-244 176.56,-220.53 211.31,-198.94 235.06,-187.51"/>
<polygon fill="midnightblue" stroke="midnightblue" points="354.42,-341.19 364.91,-339.76 355.81,-334.33 354.42,-341.19"/>
</g>
<!-- Node9 -->
<g id="node9" class="node">
<title>Node9</title>
<g id="a_node9"><a xlink:href="main_8cpp.html" target="_top" xlink:title=" ">
<polygon fill="white" stroke="black" points="482.5,-0.5 482.5,-19.5 561.5,-19.5 561.5,-0.5 482.5,-0.5"/>
<text text-anchor="middle" x="522" y="-7.5" font-family="Helvetica,sans-Serif" font-size="10.00">src/main.cpp</text>
</a>
</g>
</g>
<!-- Node1&#45;&gt;Node9 -->
<g id="edge30" class="edge">
<title>Node1&#45;&gt;Node9</title>
<path fill="none" stroke="midnightblue" d="M445.28,-344.33C516.33,-340.63 646,-321.95 646,-235 646,-235 646,-235 646,-121 646,-67.91 581.59,-34.21 545.62,-19.52"/>
<polygon fill="midnightblue" stroke="midnightblue" points="445.08,-340.84 435.25,-344.78 445.39,-347.83 445.08,-340.84"/>
</g>
<!-- Node11 -->
<g id="node11" class="node">
<title>Node11</title>
<g id="a_node11"><a xlink:href="Tower_8h.html" target="_top" xlink:title=" ">
<polygon fill="white" stroke="black" points="447.5,-168.5 447.5,-187.5 518.5,-187.5 518.5,-168.5 447.5,-168.5"/>
<text text-anchor="middle" x="483" y="-175.5" font-family="Helvetica,sans-Serif" font-size="10.00">src/Tower.h</text>
</a>
</g>
</g>
<!-- Node1&#45;&gt;Node11 -->
<g id="edge28" class="edge">
<title>Node1&#45;&gt;Node11</title>
<path fill="none" stroke="midnightblue" d="M445.04,-335.13C490.43,-322.52 558.05,-295.82 589,-244 607.6,-212.86 556.14,-194.6 518.56,-185.72"/>
<polygon fill="midnightblue" stroke="midnightblue" points="443.92,-331.81 435.15,-337.75 445.71,-338.57 443.92,-331.81"/>
</g>
<!-- Node13 -->
<g id="node13" class="node">
<title>Node13</title>
<g id="a_node13"><a xlink:href="Map_8h.html" target="_top" xlink:title=" ">
<polygon fill="white" stroke="black" points="368,-280.5 368,-299.5 432,-299.5 432,-280.5 368,-280.5"/>
<text text-anchor="middle" x="400" y="-287.5" font-family="Helvetica,sans-Serif" font-size="10.00">src/Map.h</text>
</a>
</g>
</g>
<!-- Node1&#45;&gt;Node13 -->
<g id="edge16" class="edge">
<title>Node1&#45;&gt;Node13</title>
<path fill="none" stroke="midnightblue" d="M393.53,-326.1C392.9,-317.14 393.34,-306.86 394.87,-299.75"/>
<polygon fill="midnightblue" stroke="midnightblue" points="390.07,-326.62 394.83,-336.08 397.01,-325.71 390.07,-326.62"/>
</g>
<!-- Node14 -->
<g id="node14" class="node">
<title>Node14</title>
<g id="a_node14"><a xlink:href="Map_8cpp.html" target="_top" xlink:title=" ">
<polygon fill="white" stroke="black" points="504.5,-224.5 504.5,-243.5 579.5,-243.5 579.5,-224.5 504.5,-224.5"/>
<text text-anchor="middle" x="542" y="-231.5" font-family="Helvetica,sans-Serif" font-size="10.00">src/Map.cpp</text>
</a>
</g>
</g>
<!-- Node1&#45;&gt;Node14 -->
<g id="edge31" class="edge">
<title>Node1&#45;&gt;Node14</title>
<path fill="none" stroke="midnightblue" d="M419.21,-330.12C449.35,-306.77 506.8,-262.27 530.91,-243.59"/>
<polygon fill="midnightblue" stroke="midnightblue" points="416.9,-327.48 411.14,-336.37 421.19,-333.01 416.9,-327.48"/>
</g>
<!-- Node15 -->
<g id="node15" class="node">
<title>Node15</title>
<g id="a_node15"><a xlink:href="Entity_8cpp.html" target="_top" xlink:title=" ">
<polygon fill="white" stroke="black" points="674.5,-280.5 674.5,-299.5 755.5,-299.5 755.5,-280.5 674.5,-280.5"/>
<text text-anchor="middle" x="715" y="-287.5" font-family="Helvetica,sans-Serif" font-size="10.00">src/Entity.cpp</text>
</a>
</g>
</g>
<!-- Node1&#45;&gt;Node15 -->
<g id="edge29" class="edge">
<title>Node1&#45;&gt;Node15</title>
<path fill="none" stroke="midnightblue" d="M445.38,-337.22C506.79,-326.69 615.43,-308.07 674.31,-297.97"/>
<polygon fill="midnightblue" stroke="midnightblue" points="444.48,-333.82 435.22,-338.96 445.67,-340.72 444.48,-333.82"/>
</g>
<!-- Node2&#45;&gt;Node3 -->
<g id="edge2" class="edge">
<title>Node2&#45;&gt;Node3</title>
<path fill="none" stroke="midnightblue" d="M201.19,-221.7C164.39,-211.51 111.07,-196.74 77.75,-187.52"/>
<polygon fill="midnightblue" stroke="midnightblue" points="200.53,-225.15 211.1,-224.44 202.4,-218.4 200.53,-225.15"/>
</g>
<!-- Node2&#45;&gt;Node4 -->
<g id="edge3" class="edge">
<title>Node2&#45;&gt;Node4</title>
<path fill="none" stroke="midnightblue" d="M246.55,-214.1C248.71,-205.14 251.18,-194.86 252.89,-187.75"/>
<polygon fill="midnightblue" stroke="midnightblue" points="243.08,-213.54 244.15,-224.08 249.89,-215.18 243.08,-213.54"/>
</g>
<!-- Node7 -->
<g id="node7" class="node">
<title>Node7</title>
<g id="a_node7"><a xlink:href="Game_8h.html" target="_top" xlink:title=" ">
<polygon fill="white" stroke="black" points="302,-56.5 302,-75.5 374,-75.5 374,-56.5 302,-56.5"/>
<text text-anchor="middle" x="338" y="-63.5" font-family="Helvetica,sans-Serif" font-size="10.00">src/Game.h</text>
</a>
</g>
</g>
<!-- Node2&#45;&gt;Node7 -->
<g id="edge14" class="edge">
<title>Node2&#45;&gt;Node7</title>
<path fill="none" stroke="midnightblue" d="M226.29,-216.88C219.57,-208.88 212.49,-198.66 209,-188 203.94,-172.55 197.32,-129.56 210,-112 230.89,-83.07 271.88,-72.62 301.87,-68.91"/>
<polygon fill="midnightblue" stroke="midnightblue" points="223.7,-219.24 232.98,-224.34 228.9,-214.56 223.7,-219.24"/>
</g>
<!-- Node2&#45;&gt;Node9 -->
<g id="edge15" class="edge">
<title>Node2&#45;&gt;Node9</title>
<path fill="none" stroke="midnightblue" d="M222.84,-217.71C214.48,-209.83 205.56,-199.46 201,-188 188.52,-156.61 183.38,-141.41 200,-112 223.74,-70 247.98,-73.36 293,-56 356.7,-31.44 435.76,-19.71 482.35,-14.57"/>
<polygon fill="midnightblue" stroke="midnightblue" points="220.7,-220.49 230.52,-224.46 225.32,-215.23 220.7,-220.49"/>
</g>
<!-- Node2&#45;&gt;Node11 -->
<g id="edge11" class="edge">
<title>Node2&#45;&gt;Node11</title>
<path fill="none" stroke="midnightblue" d="M290.01,-222.24C336.42,-211.84 405.65,-196.33 447.35,-186.99"/>
<polygon fill="midnightblue" stroke="midnightblue" points="289.18,-218.84 280.19,-224.44 290.71,-225.67 289.18,-218.84"/>
</g>
<!-- Node5 -->
<g id="node5" class="node">
<title>Node5</title>
<g id="a_node5"><a xlink:href="Enemy_8h.html" target="_top" xlink:title=" ">
<polygon fill="white" stroke="black" points="366.5,-112.5 366.5,-131.5 441.5,-131.5 441.5,-112.5 366.5,-112.5"/>
<text text-anchor="middle" x="404" y="-119.5" font-family="Helvetica,sans-Serif" font-size="10.00">src/Enemy.h</text>
</a>
</g>
</g>
<!-- Node4&#45;&gt;Node5 -->
<g id="edge4" class="edge">
<title>Node4&#45;&gt;Node5</title>
<path fill="none" stroke="midnightblue" d="M288.37,-164.91C316.38,-154.75 355.7,-140.51 380.5,-131.52"/>
<polygon fill="midnightblue" stroke="midnightblue" points="286.82,-161.75 278.61,-168.44 289.2,-168.33 286.82,-161.75"/>
</g>
<!-- Node4&#45;&gt;Node7 -->
<g id="edge9" class="edge">
<title>Node4&#45;&gt;Node7</title>
<path fill="none" stroke="midnightblue" d="M235.63,-161.58C221.16,-148.14 205.67,-128.3 217,-112 235.99,-84.67 273.67,-73.9 301.96,-69.68"/>
<polygon fill="midnightblue" stroke="midnightblue" points="233.55,-164.4 243.39,-168.32 238.14,-159.12 233.55,-164.4"/>
</g>
<!-- Node10 -->
<g id="node10" class="node">
<title>Node10</title>
<g id="a_node10"><a xlink:href="Player_8cpp.html" target="_top" xlink:title=" ">
<polygon fill="white" stroke="black" points="226,-112.5 226,-131.5 310,-131.5 310,-112.5 226,-112.5"/>
<text text-anchor="middle" x="268" y="-119.5" font-family="Helvetica,sans-Serif" font-size="10.00">src/Player.cpp</text>
</a>
</g>
</g>
<!-- Node4&#45;&gt;Node10 -->
<g id="edge10" class="edge">
<title>Node4&#45;&gt;Node10</title>
<path fill="none" stroke="midnightblue" d="M259.55,-158.1C261.71,-149.14 264.18,-138.86 265.89,-131.75"/>
<polygon fill="midnightblue" stroke="midnightblue" points="256.08,-157.54 257.15,-168.08 262.89,-159.18 256.08,-157.54"/>
</g>
<!-- Node6 -->
<g id="node6" class="node">
<title>Node6</title>
<g id="a_node6"><a xlink:href="Enemy_8cpp.html" target="_top" xlink:title=" ">
<polygon fill="white" stroke="black" points="443,-56.5 443,-75.5 529,-75.5 529,-56.5 443,-56.5"/>
<text text-anchor="middle" x="486" y="-63.5" font-family="Helvetica,sans-Serif" font-size="10.00">src/Enemy.cpp</text>
</a>
</g>
</g>
<!-- Node5&#45;&gt;Node6 -->
<g id="edge5" class="edge">
<title>Node5&#45;&gt;Node6</title>
<path fill="none" stroke="midnightblue" d="M425.83,-106.62C440.81,-96.76 460.2,-83.99 472.86,-75.65"/>
<polygon fill="midnightblue" stroke="midnightblue" points="423.6,-103.9 417.17,-112.32 427.45,-109.75 423.6,-103.9"/>
</g>
<!-- Node5&#45;&gt;Node7 -->
<g id="edge6" class="edge">
<title>Node5&#45;&gt;Node7</title>
<path fill="none" stroke="midnightblue" d="M385.45,-105.82C373.62,-96.15 358.71,-83.95 348.8,-75.83"/>
<polygon fill="midnightblue" stroke="midnightblue" points="383.44,-108.7 393.4,-112.32 387.87,-103.28 383.44,-108.7"/>
</g>
<!-- Node8 -->
<g id="node8" class="node">
<title>Node8</title>
<g id="a_node8"><a xlink:href="Game_8cpp.html" target="_top" xlink:title=" ">
<polygon fill="white" stroke="black" points="296.5,-0.5 296.5,-19.5 379.5,-19.5 379.5,-0.5 296.5,-0.5"/>
<text text-anchor="middle" x="338" y="-7.5" font-family="Helvetica,sans-Serif" font-size="10.00">src/Game.cpp</text>
</a>
</g>
</g>
<!-- Node7&#45;&gt;Node8 -->
<g id="edge7" class="edge">
<title>Node7&#45;&gt;Node8</title>
<path fill="none" stroke="midnightblue" d="M338,-45.8C338,-36.91 338,-26.78 338,-19.75"/>
<polygon fill="midnightblue" stroke="midnightblue" points="334.5,-46.08 338,-56.08 341.5,-46.08 334.5,-46.08"/>
</g>
<!-- Node7&#45;&gt;Node9 -->
<g id="edge8" class="edge">
<title>Node7&#45;&gt;Node9</title>
<path fill="none" stroke="midnightblue" d="M376.95,-53.57C411.66,-43.38 461.68,-28.7 492.98,-19.52"/>
<polygon fill="midnightblue" stroke="midnightblue" points="375.77,-50.27 367.16,-56.44 377.74,-56.99 375.77,-50.27"/>
</g>
<!-- Node11&#45;&gt;Node5 -->
<g id="edge12" class="edge">
<title>Node11&#45;&gt;Node5</title>
<path fill="none" stroke="midnightblue" d="M461.97,-162.62C447.53,-152.76 428.86,-139.99 416.66,-131.65"/>
<polygon fill="midnightblue" stroke="midnightblue" points="460.08,-165.57 470.31,-168.32 464.03,-159.79 460.08,-165.57"/>
</g>
<!-- Node12 -->
<g id="node12" class="node">
<title>Node12</title>
<g id="a_node12"><a xlink:href="Tower_8cpp.html" target="_top" xlink:title=" ">
<polygon fill="white" stroke="black" points="460,-112.5 460,-131.5 542,-131.5 542,-112.5 460,-112.5"/>
<text text-anchor="middle" x="501" y="-119.5" font-family="Helvetica,sans-Serif" font-size="10.00">src/Tower.cpp</text>
</a>
</g>
</g>
<!-- Node11&#45;&gt;Node12 -->
<g id="edge13" class="edge">
<title>Node11&#45;&gt;Node12</title>
<path fill="none" stroke="midnightblue" d="M489.2,-158.4C492.21,-149.36 495.69,-138.94 498.08,-131.75"/>
<polygon fill="midnightblue" stroke="midnightblue" points="485.81,-157.49 485.97,-168.08 492.46,-159.7 485.81,-157.49"/>
</g>
<!-- Node13&#45;&gt;Node1 -->
<g id="edge17" class="edge">
<title>Node13&#45;&gt;Node1</title>
<path fill="none" stroke="midnightblue" d="M406.46,-309.69C407.11,-318.64 406.68,-328.93 405.17,-336.08"/>
<polygon fill="midnightblue" stroke="midnightblue" points="409.92,-309.2 405.13,-299.75 402.98,-310.13 409.92,-309.2"/>
</g>
<!-- Node13&#45;&gt;Node2 -->
<g id="edge18" class="edge">
<title>Node13&#45;&gt;Node2</title>
<path fill="none" stroke="midnightblue" d="M365.39,-277.17C335.64,-267 293.45,-252.59 266.92,-243.52"/>
<polygon fill="midnightblue" stroke="midnightblue" points="364.37,-280.52 374.96,-280.44 366.63,-273.9 364.37,-280.52"/>
</g>
<!-- Node13&#45;&gt;Node3 -->
<g id="edge19" class="edge">
<title>Node13&#45;&gt;Node3</title>
<path fill="none" stroke="midnightblue" d="M357.85,-282.77C315.11,-275.79 247.4,-262.92 191,-244 171.02,-237.3 167.18,-232.73 148,-224 119.7,-211.11 86.77,-196.52 66.4,-187.53"/>
<polygon fill="midnightblue" stroke="midnightblue" points="357.47,-286.25 367.89,-284.37 358.57,-279.34 357.47,-286.25"/>
</g>
<!-- Node13&#45;&gt;Node4 -->
<g id="edge20" class="edge">
<title>Node13&#45;&gt;Node4</title>
<path fill="none" stroke="midnightblue" d="M378.64,-274.49C366.09,-265.83 349.98,-254.51 336,-244 310.06,-224.5 280.55,-200.29 265.32,-187.63"/>
<polygon fill="midnightblue" stroke="midnightblue" points="376.85,-277.5 387.08,-280.27 380.81,-271.73 376.85,-277.5"/>
</g>
<!-- Node13&#45;&gt;Node5 -->
<g id="edge21" class="edge">
<title>Node13&#45;&gt;Node5</title>
<path fill="none" stroke="midnightblue" d="M400.46,-269.93C401.33,-233.92 403.18,-157.23 403.79,-131.57"/>
<polygon fill="midnightblue" stroke="midnightblue" points="396.96,-269.99 400.22,-280.08 403.96,-270.16 396.96,-269.99"/>
</g>
<!-- Node13&#45;&gt;Node6 -->
<g id="edge22" class="edge">
<title>Node13&#45;&gt;Node6</title>
<path fill="none" stroke="midnightblue" d="M413.37,-272.32C425.17,-258.29 443.35,-238.3 462,-224 488.51,-203.67 505.7,-212.89 528,-188 545.95,-167.96 545.79,-158.4 551,-132 552.72,-123.28 555.13,-119.87 551,-112 541.95,-94.74 522.94,-82.78 507.81,-75.55"/>
<polygon fill="midnightblue" stroke="midnightblue" points="410.55,-270.23 406.9,-280.18 415.96,-274.68 410.55,-270.23"/>
</g>
<!-- Node13&#45;&gt;Node7 -->
<g id="edge23" class="edge">
<title>Node13&#45;&gt;Node7</title>
<path fill="none" stroke="midnightblue" d="M394.86,-270.58C382.16,-225.14 349.71,-108.92 340.48,-75.88"/>
<polygon fill="midnightblue" stroke="midnightblue" points="391.51,-271.61 397.57,-280.3 398.25,-269.72 391.51,-271.61"/>
</g>
<!-- Node13&#45;&gt;Node9 -->
<g id="edge24" class="edge">
<title>Node13&#45;&gt;Node9</title>
<path fill="none" stroke="midnightblue" d="M421.16,-274.69C461.79,-247.19 546.87,-189.52 548,-188 568.77,-160.19 573.08,-145.98 566,-112 558.43,-75.67 537.07,-36.4 527.16,-19.51"/>
<polygon fill="midnightblue" stroke="midnightblue" points="419.08,-271.87 412.75,-280.38 423,-277.67 419.08,-271.87"/>
</g>
<!-- Node13&#45;&gt;Node14 -->
<g id="edge25" class="edge">
<title>Node13&#45;&gt;Node14</title>
<path fill="none" stroke="midnightblue" d="M432.16,-276.77C458.83,-266.63 496.07,-252.47 519.6,-243.52"/>
<polygon fill="midnightblue" stroke="midnightblue" points="430.6,-273.62 422.5,-280.44 433.09,-280.16 430.6,-273.62"/>
</g>
</g>
</svg>
