<?xml version="1.0" encoding="UTF-8" standalone="no"?>
<!DOCTYPE svg PUBLIC "-//W3C//DTD SVG 1.1//EN"
 "http://www.w3.org/Graphics/SVG/1.1/DTD/svg11.dtd">
<!-- Generated by graphviz version 2.43.0 (0)
 -->
<!-- Title: src/Entity.cpp Pages: 1 -->
<svg width="418pt" height="196pt"
 viewBox="0.00 0.00 418.00 196.00" xmlns="http://www.w3.org/2000/svg" xmlns:xlink="http://www.w3.org/1999/xlink">
<g id="graph0" class="graph" transform="scale(1 1) rotate(0) translate(4 192)">
<title>src/Entity.cpp</title>
<polygon fill="white" stroke="transparent" points="-4,4 -4,-192 414,-192 414,4 -4,4"/>
<!-- Node1 -->
<g id="node1" class="node">
<title>Node1</title>
<g id="a_node1"><a xlink:title=" ">
<polygon fill="#bfbfbf" stroke="black" points="119,-168.5 119,-187.5 200,-187.5 200,-168.5 119,-168.5"/>
<text text-anchor="middle" x="159.5" y="-175.5" font-family="Helvetica,sans-Serif" font-size="10.00">src/Entity.cpp</text>
</a>
</g>
</g>
<!-- Node2 -->
<g id="node2" class="node">
<title>Node2</title>
<g id="a_node2"><a xlink:href="Entity_8h.html" target="_top" xlink:title=" ">
<polygon fill="white" stroke="black" points="133,-112.5 133,-131.5 186,-131.5 186,-112.5 133,-112.5"/>
<text text-anchor="middle" x="159.5" y="-119.5" font-family="Helvetica,sans-Serif" font-size="10.00">Entity.h</text>
</a>
</g>
</g>
<!-- Node1&#45;&gt;Node2 -->
<g id="edge1" class="edge">
<title>Node1&#45;&gt;Node2</title>
<path fill="none" stroke="midnightblue" d="M159.5,-168.08C159.5,-161.01 159.5,-150.86 159.5,-141.99"/>
<polygon fill="midnightblue" stroke="midnightblue" points="163,-141.75 159.5,-131.75 156,-141.75 163,-141.75"/>
</g>
<!-- Node3 -->
<g id="node3" class="node">
<title>Node3</title>
<g id="a_node3"><a xlink:href="constants_8h.html" target="_top" xlink:title=" ">
<polygon fill="white" stroke="black" points="0,-56.5 0,-75.5 73,-75.5 73,-56.5 0,-56.5"/>
<text text-anchor="middle" x="36.5" y="-63.5" font-family="Helvetica,sans-Serif" font-size="10.00">constants.h</text>
</a>
</g>
</g>
<!-- Node1&#45;&gt;Node3 -->
<g id="edge12" class="edge">
<title>Node1&#45;&gt;Node3</title>
<path fill="none" stroke="midnightblue" d="M149.85,-168.37C129.1,-149.81 80.01,-105.91 53.76,-82.44"/>
<polygon fill="midnightblue" stroke="midnightblue" points="55.89,-79.65 46.11,-75.59 51.23,-84.87 55.89,-79.65"/>
</g>
<!-- Node8 -->
<g id="node8" class="node">
<title>Node8</title>
<g id="a_node8"><a xlink:title=" ">
<polygon fill="white" stroke="#bfbfbf" points="347,-0.5 347,-19.5 410,-19.5 410,-0.5 347,-0.5"/>
<text text-anchor="middle" x="378.5" y="-7.5" font-family="Helvetica,sans-Serif" font-size="10.00">ncurses.h</text>
</a>
</g>
</g>
<!-- Node1&#45;&gt;Node8 -->
<g id="edge13" class="edge">
<title>Node1&#45;&gt;Node8</title>
<path fill="none" stroke="midnightblue" d="M170.97,-168.31C206.44,-141.42 314.71,-59.35 359.15,-25.67"/>
<polygon fill="midnightblue" stroke="midnightblue" points="361.29,-28.44 367.15,-19.61 357.06,-22.86 361.29,-28.44"/>
</g>
<!-- Node2&#45;&gt;Node3 -->
<g id="edge2" class="edge">
<title>Node2&#45;&gt;Node3</title>
<path fill="none" stroke="midnightblue" d="M140.01,-112.44C119.86,-103.6 88.18,-89.69 65.17,-79.59"/>
<polygon fill="midnightblue" stroke="midnightblue" points="66.46,-76.33 55.9,-75.52 63.65,-82.74 66.46,-76.33"/>
</g>
<!-- Node4 -->
<g id="node4" class="node">
<title>Node4</title>
<g id="a_node4"><a xlink:href="Map_8h.html" target="_top" xlink:title=" ">
<polygon fill="white" stroke="black" points="208,-56.5 208,-75.5 255,-75.5 255,-56.5 208,-56.5"/>
<text text-anchor="middle" x="231.5" y="-63.5" font-family="Helvetica,sans-Serif" font-size="10.00">Map.h</text>
</a>
</g>
</g>
<!-- Node2&#45;&gt;Node4 -->
<g id="edge3" class="edge">
<title>Node2&#45;&gt;Node4</title>
<path fill="none" stroke="midnightblue" d="M165.95,-112.32C175.27,-103.98 191.99,-91.21 206.32,-81.35"/>
<polygon fill="midnightblue" stroke="midnightblue" points="208.48,-84.12 214.85,-75.65 204.59,-78.3 208.48,-84.12"/>
</g>
<!-- Node7 -->
<g id="node7" class="node">
<title>Node7</title>
<g id="a_node7"><a xlink:title=" ">
<polygon fill="white" stroke="#bfbfbf" points="60.5,-0.5 60.5,-19.5 118.5,-19.5 118.5,-0.5 60.5,-0.5"/>
<text text-anchor="middle" x="89.5" y="-7.5" font-family="Helvetica,sans-Serif" font-size="10.00">memory</text>
</a>
</g>
</g>
<!-- Node2&#45;&gt;Node7 -->
<g id="edge11" class="edge">
<title>Node2&#45;&gt;Node7</title>
<path fill="none" stroke="midnightblue" d="M150.66,-112.27C142.2,-103.61 129.45,-89.67 120.5,-76 110.78,-61.14 102.3,-42.76 96.68,-29.34"/>
<polygon fill="midnightblue" stroke="midnightblue" points="99.81,-27.76 92.82,-19.81 93.33,-30.39 99.81,-27.76"/>
</g>
<!-- Node10 -->
<g id="node10" class="node">
<title>Node10</title>
<g id="a_node10"><a xlink:title=" ">
<polygon fill="white" stroke="#bfbfbf" points="129.5,-56.5 129.5,-75.5 189.5,-75.5 189.5,-56.5 129.5,-56.5"/>
<text text-anchor="middle" x="159.5" y="-63.5" font-family="Helvetica,sans-Serif" font-size="10.00">iostream</text>
</a>
</g>
</g>
<!-- Node2&#45;&gt;Node10 -->
<g id="edge10" class="edge">
<title>Node2&#45;&gt;Node10</title>
<path fill="none" stroke="midnightblue" d="M159.5,-112.08C159.5,-105.01 159.5,-94.86 159.5,-85.99"/>
<polygon fill="midnightblue" stroke="midnightblue" points="163,-85.75 159.5,-75.75 156,-85.75 163,-85.75"/>
</g>
<!-- Node4&#45;&gt;Node2 -->
<g id="edge9" class="edge">
<title>Node4&#45;&gt;Node2</title>
<path fill="none" stroke="midnightblue" d="M224.87,-75.83C215.51,-84.18 198.91,-96.86 184.66,-106.66"/>
<polygon fill="midnightblue" stroke="midnightblue" points="182.55,-103.86 176.18,-112.32 186.44,-109.68 182.55,-103.86"/>
</g>
<!-- Node5 -->
<g id="node5" class="node">
<title>Node5</title>
<g id="a_node5"><a xlink:title=" ">
<polygon fill="white" stroke="#bfbfbf" points="282,-0.5 282,-19.5 329,-19.5 329,-0.5 282,-0.5"/>
<text text-anchor="middle" x="305.5" y="-7.5" font-family="Helvetica,sans-Serif" font-size="10.00">vector</text>
</a>
</g>
</g>
<!-- Node4&#45;&gt;Node5 -->
<g id="edge4" class="edge">
<title>Node4&#45;&gt;Node5</title>
<path fill="none" stroke="midnightblue" d="M243.39,-56.32C254.65,-48.11 271.79,-35.6 285.21,-25.81"/>
<polygon fill="midnightblue" stroke="midnightblue" points="287.38,-28.56 293.39,-19.83 283.25,-22.9 287.38,-28.56"/>
</g>
<!-- Node6 -->
<g id="node6" class="node">
<title>Node6</title>
<g id="a_node6"><a xlink:title=" ">
<polygon fill="white" stroke="#bfbfbf" points="136.5,-0.5 136.5,-19.5 180.5,-19.5 180.5,-0.5 136.5,-0.5"/>
<text text-anchor="middle" x="158.5" y="-7.5" font-family="Helvetica,sans-Serif" font-size="10.00">string</text>
</a>
</g>
</g>
<!-- Node4&#45;&gt;Node6 -->
<g id="edge5" class="edge">
<title>Node4&#45;&gt;Node6</title>
<path fill="none" stroke="midnightblue" d="M219.77,-56.32C208.66,-48.11 191.76,-35.6 178.52,-25.81"/>
<polygon fill="midnightblue" stroke="midnightblue" points="180.56,-22.97 170.44,-19.83 176.4,-28.59 180.56,-22.97"/>
</g>
<!-- Node4&#45;&gt;Node7 -->
<g id="edge6" class="edge">
<title>Node4&#45;&gt;Node7</title>
<path fill="none" stroke="midnightblue" d="M209,-56.44C185.42,-47.48 148.18,-33.31 121.54,-23.18"/>
<polygon fill="midnightblue" stroke="midnightblue" points="122.49,-19.8 111.9,-19.52 120,-26.34 122.49,-19.8"/>
</g>
<!-- Node4&#45;&gt;Node8 -->
<g id="edge7" class="edge">
<title>Node4&#45;&gt;Node8</title>
<path fill="none" stroke="midnightblue" d="M254.79,-56.44C279.31,-47.44 318.1,-33.19 345.7,-23.05"/>
<polygon fill="midnightblue" stroke="midnightblue" points="347.14,-26.25 355.32,-19.52 344.72,-19.68 347.14,-26.25"/>
</g>
<!-- Node9 -->
<g id="node9" class="node">
<title>Node9</title>
<g id="a_node9"><a xlink:title=" ">
<polygon fill="white" stroke="#bfbfbf" points="199,-0.5 199,-19.5 264,-19.5 264,-0.5 199,-0.5"/>
<text text-anchor="middle" x="231.5" y="-7.5" font-family="Helvetica,sans-Serif" font-size="10.00">functional</text>
</a>
</g>
</g>
<!-- Node4&#45;&gt;Node9 -->
<g id="edge8" class="edge">
<title>Node4&#45;&gt;Node9</title>
<path fill="none" stroke="midnightblue" d="M231.5,-56.08C231.5,-49.01 231.5,-38.86 231.5,-29.99"/>
<polygon fill="midnightblue" stroke="midnightblue" points="235,-29.75 231.5,-19.75 228,-29.75 235,-29.75"/>
</g>
</g>
</svg>
