<?xml version="1.0" encoding="UTF-8" standalone="no"?>
<!DOCTYPE svg PUBLIC "-//W3C//DTD SVG 1.1//EN"
 "http://www.w3.org/Graphics/SVG/1.1/DTD/svg11.dtd">
<!-- Generated by graphviz version 2.43.0 (0)
 -->
<!-- Title: src/exceptions.h Pages: 1 -->
<svg width="677pt" height="308pt"
 viewBox="0.00 0.00 676.83 308.00" xmlns="http://www.w3.org/2000/svg" xmlns:xlink="http://www.w3.org/1999/xlink">
<g id="graph0" class="graph" transform="scale(1 1) rotate(0) translate(4 304)">
<title>src/exceptions.h</title>
<polygon fill="white" stroke="transparent" points="-4,4 -4,-304 672.83,-304 672.83,4 -4,4"/>
<!-- Node1 -->
<g id="node1" class="node">
<title>Node1</title>
<g id="a_node1"><a xlink:title=" ">
<polygon fill="#bfbfbf" stroke="black" points="248.49,-280.5 248.49,-299.5 344.49,-299.5 344.49,-280.5 248.49,-280.5"/>
<text text-anchor="middle" x="296.49" y="-287.5" font-family="Helvetica,sans-Serif" font-size="10.00">src/exceptions.h</text>
</a>
</g>
</g>
<!-- Node2 -->
<g id="node2" class="node">
<title>Node2</title>
<g id="a_node2"><a xlink:href="Attacker_8h.html" target="_top" xlink:title=" ">
<polygon fill="white" stroke="black" points="164.99,-224.5 164.99,-243.5 247.99,-243.5 247.99,-224.5 164.99,-224.5"/>
<text text-anchor="middle" x="206.49" y="-231.5" font-family="Helvetica,sans-Serif" font-size="10.00">src/Attacker.h</text>
</a>
</g>
</g>
<!-- Node1&#45;&gt;Node2 -->
<g id="edge1" class="edge">
<title>Node1&#45;&gt;Node2</title>
<path fill="none" stroke="midnightblue" d="M273.45,-275.18C256.89,-265.24 235.07,-252.15 220.91,-243.65"/>
<polygon fill="midnightblue" stroke="midnightblue" points="271.65,-278.18 282.03,-280.32 275.25,-272.18 271.65,-278.18"/>
</g>
<!-- Node7 -->
<g id="node7" class="node">
<title>Node7</title>
<g id="a_node7"><a xlink:href="Game_8h.html" target="_top" xlink:title=" ">
<polygon fill="white" stroke="black" points="155.49,-56.5 155.49,-75.5 227.49,-75.5 227.49,-56.5 155.49,-56.5"/>
<text text-anchor="middle" x="191.49" y="-63.5" font-family="Helvetica,sans-Serif" font-size="10.00">src/Game.h</text>
</a>
</g>
</g>
<!-- Node1&#45;&gt;Node7 -->
<g id="edge22" class="edge">
<title>Node1&#45;&gt;Node7</title>
<path fill="none" stroke="midnightblue" d="M238.15,-287.58C169.86,-282.38 59.61,-262.18 8.49,-188 -33.01,-127.79 90.68,-89.83 155.11,-74.62"/>
<polygon fill="midnightblue" stroke="midnightblue" points="238.11,-291.08 248.32,-288.26 238.58,-284.1 238.11,-291.08"/>
</g>
<!-- Node11 -->
<g id="node11" class="node">
<title>Node11</title>
<g id="a_node11"><a xlink:href="Tower_8h.html" target="_top" xlink:title=" ">
<polygon fill="white" stroke="black" points="260.99,-168.5 260.99,-187.5 331.99,-187.5 331.99,-168.5 260.99,-168.5"/>
<text text-anchor="middle" x="296.49" y="-175.5" font-family="Helvetica,sans-Serif" font-size="10.00">src/Tower.h</text>
</a>
</g>
</g>
<!-- Node1&#45;&gt;Node11 -->
<g id="edge20" class="edge">
<title>Node1&#45;&gt;Node11</title>
<path fill="none" stroke="midnightblue" d="M296.49,-270.35C296.49,-246.25 296.49,-205.31 296.49,-187.59"/>
<polygon fill="midnightblue" stroke="midnightblue" points="292.99,-270.37 296.49,-280.37 299.99,-270.37 292.99,-270.37"/>
</g>
<!-- Node13 -->
<g id="node13" class="node">
<title>Node13</title>
<g id="a_node13"><a xlink:href="logFile_8h.html" target="_top" xlink:title=" ">
<polygon fill="white" stroke="black" points="404.99,-224.5 404.99,-243.5 479.99,-243.5 479.99,-224.5 404.99,-224.5"/>
<text text-anchor="middle" x="442.49" y="-231.5" font-family="Helvetica,sans-Serif" font-size="10.00">src/logFile.h</text>
</a>
</g>
</g>
<!-- Node1&#45;&gt;Node13 -->
<g id="edge15" class="edge">
<title>Node1&#45;&gt;Node13</title>
<path fill="none" stroke="midnightblue" d="M329.19,-276.91C356.64,-266.75 395.16,-252.51 419.46,-243.52"/>
<polygon fill="midnightblue" stroke="midnightblue" points="327.79,-273.69 319.62,-280.44 330.22,-280.26 327.79,-273.69"/>
</g>
<!-- Node17 -->
<g id="node17" class="node">
<title>Node17</title>
<g id="a_node17"><a xlink:href="exceptions_8cpp.html" target="_top" xlink:title=" ">
<polygon fill="white" stroke="black" points="497.99,-224.5 497.99,-243.5 604.99,-243.5 604.99,-224.5 497.99,-224.5"/>
<text text-anchor="middle" x="551.49" y="-231.5" font-family="Helvetica,sans-Serif" font-size="10.00">src/exceptions.cpp</text>
</a>
</g>
</g>
<!-- Node1&#45;&gt;Node17 -->
<g id="edge21" class="edge">
<title>Node1&#45;&gt;Node17</title>
<path fill="none" stroke="midnightblue" d="M346.8,-278.35C394.99,-268.14 466.77,-252.94 511.27,-243.52"/>
<polygon fill="midnightblue" stroke="midnightblue" points="345.95,-274.95 336.89,-280.44 347.4,-281.8 345.95,-274.95"/>
</g>
<!-- Node3 -->
<g id="node3" class="node">
<title>Node3</title>
<g id="a_node3"><a xlink:href="Attacker_8cpp.html" target="_top" xlink:title=" ">
<polygon fill="white" stroke="black" points="17.49,-168.5 17.49,-187.5 111.49,-187.5 111.49,-168.5 17.49,-168.5"/>
<text text-anchor="middle" x="64.49" y="-175.5" font-family="Helvetica,sans-Serif" font-size="10.00">src/Attacker.cpp</text>
</a>
</g>
</g>
<!-- Node2&#45;&gt;Node3 -->
<g id="edge2" class="edge">
<title>Node2&#45;&gt;Node3</title>
<path fill="none" stroke="midnightblue" d="M174.33,-220.77C147.66,-210.63 110.42,-196.47 86.88,-187.52"/>
<polygon fill="midnightblue" stroke="midnightblue" points="173.4,-224.16 183.99,-224.44 175.89,-217.62 173.4,-224.16"/>
</g>
<!-- Node4 -->
<g id="node4" class="node">
<title>Node4</title>
<g id="a_node4"><a xlink:href="Player_8h.html" target="_top" xlink:title=" ">
<polygon fill="white" stroke="black" points="169.99,-168.5 169.99,-187.5 242.99,-187.5 242.99,-168.5 169.99,-168.5"/>
<text text-anchor="middle" x="206.49" y="-175.5" font-family="Helvetica,sans-Serif" font-size="10.00">src/Player.h</text>
</a>
</g>
</g>
<!-- Node2&#45;&gt;Node4 -->
<g id="edge3" class="edge">
<title>Node2&#45;&gt;Node4</title>
<path fill="none" stroke="midnightblue" d="M206.49,-213.8C206.49,-204.91 206.49,-194.78 206.49,-187.75"/>
<polygon fill="midnightblue" stroke="midnightblue" points="202.99,-214.08 206.49,-224.08 209.99,-214.08 202.99,-214.08"/>
</g>
<!-- Node2&#45;&gt;Node7 -->
<g id="edge14" class="edge">
<title>Node2&#45;&gt;Node7</title>
<path fill="none" stroke="midnightblue" d="M185.62,-218.17C176.27,-210.33 166.12,-199.87 160.49,-188 145.99,-157.41 144.28,-143.94 155.49,-112 160.59,-97.46 172.58,-84.13 181.33,-75.81"/>
<polygon fill="midnightblue" stroke="midnightblue" points="183.46,-220.92 193.48,-224.35 187.79,-215.42 183.46,-220.92"/>
</g>
<!-- Node2&#45;&gt;Node11 -->
<g id="edge11" class="edge">
<title>Node2&#45;&gt;Node11</title>
<path fill="none" stroke="midnightblue" d="M229.53,-219.18C246.09,-209.24 267.91,-196.15 282.06,-187.65"/>
<polygon fill="midnightblue" stroke="midnightblue" points="227.72,-216.18 220.95,-224.32 231.32,-222.18 227.72,-216.18"/>
</g>
<!-- Node5 -->
<g id="node5" class="node">
<title>Node5</title>
<g id="a_node5"><a xlink:href="Enemy_8h.html" target="_top" xlink:title=" ">
<polygon fill="white" stroke="black" points="304.99,-112.5 304.99,-131.5 379.99,-131.5 379.99,-112.5 304.99,-112.5"/>
<text text-anchor="middle" x="342.49" y="-119.5" font-family="Helvetica,sans-Serif" font-size="10.00">src/Enemy.h</text>
</a>
</g>
</g>
<!-- Node4&#45;&gt;Node5 -->
<g id="edge4" class="edge">
<title>Node4&#45;&gt;Node5</title>
<path fill="none" stroke="midnightblue" d="M237.62,-164.64C263.15,-154.5 298.6,-140.43 321.04,-131.52"/>
<polygon fill="midnightblue" stroke="midnightblue" points="236.04,-161.5 228.04,-168.44 238.62,-168.01 236.04,-161.5"/>
</g>
<!-- Node4&#45;&gt;Node7 -->
<g id="edge9" class="edge">
<title>Node4&#45;&gt;Node7</title>
<path fill="none" stroke="midnightblue" d="M230.21,-162.89C247.98,-150.39 267.63,-131.18 257.49,-112 248.35,-94.71 229.26,-82.82 213.95,-75.62"/>
<polygon fill="midnightblue" stroke="midnightblue" points="228.19,-160.03 221.77,-168.46 232.05,-165.87 228.19,-160.03"/>
</g>
<!-- Node10 -->
<g id="node10" class="node">
<title>Node10</title>
<g id="a_node10"><a xlink:href="Player_8cpp.html" target="_top" xlink:title=" ">
<polygon fill="white" stroke="black" points="164.49,-112.5 164.49,-131.5 248.49,-131.5 248.49,-112.5 164.49,-112.5"/>
<text text-anchor="middle" x="206.49" y="-119.5" font-family="Helvetica,sans-Serif" font-size="10.00">src/Player.cpp</text>
</a>
</g>
</g>
<!-- Node4&#45;&gt;Node10 -->
<g id="edge10" class="edge">
<title>Node4&#45;&gt;Node10</title>
<path fill="none" stroke="midnightblue" d="M206.49,-157.8C206.49,-148.91 206.49,-138.78 206.49,-131.75"/>
<polygon fill="midnightblue" stroke="midnightblue" points="202.99,-158.08 206.49,-168.08 209.99,-158.08 202.99,-158.08"/>
</g>
<!-- Node6 -->
<g id="node6" class="node">
<title>Node6</title>
<g id="a_node6"><a xlink:href="Enemy_8cpp.html" target="_top" xlink:title=" ">
<polygon fill="white" stroke="black" points="299.49,-56.5 299.49,-75.5 385.49,-75.5 385.49,-56.5 299.49,-56.5"/>
<text text-anchor="middle" x="342.49" y="-63.5" font-family="Helvetica,sans-Serif" font-size="10.00">src/Enemy.cpp</text>
</a>
</g>
</g>
<!-- Node5&#45;&gt;Node6 -->
<g id="edge5" class="edge">
<title>Node5&#45;&gt;Node6</title>
<path fill="none" stroke="midnightblue" d="M342.49,-101.8C342.49,-92.91 342.49,-82.78 342.49,-75.75"/>
<polygon fill="midnightblue" stroke="midnightblue" points="338.99,-102.08 342.49,-112.08 345.99,-102.08 338.99,-102.08"/>
</g>
<!-- Node5&#45;&gt;Node7 -->
<g id="edge6" class="edge">
<title>Node5&#45;&gt;Node7</title>
<path fill="none" stroke="midnightblue" d="M309.04,-109.04C280.63,-98.88 240.55,-84.55 215.3,-75.52"/>
<polygon fill="midnightblue" stroke="midnightblue" points="307.97,-112.37 318.56,-112.44 310.32,-105.78 307.97,-112.37"/>
</g>
<!-- Node8 -->
<g id="node8" class="node">
<title>Node8</title>
<g id="a_node8"><a xlink:href="Game_8cpp.html" target="_top" xlink:title=" ">
<polygon fill="white" stroke="black" points="100.99,-0.5 100.99,-19.5 183.99,-19.5 183.99,-0.5 100.99,-0.5"/>
<text text-anchor="middle" x="142.49" y="-7.5" font-family="Helvetica,sans-Serif" font-size="10.00">src/Game.cpp</text>
</a>
</g>
</g>
<!-- Node7&#45;&gt;Node8 -->
<g id="edge7" class="edge">
<title>Node7&#45;&gt;Node8</title>
<path fill="none" stroke="midnightblue" d="M176.45,-48.43C167.87,-38.97 157.45,-27.48 150.43,-19.75"/>
<polygon fill="midnightblue" stroke="midnightblue" points="174.09,-51.03 183.4,-56.08 179.27,-46.33 174.09,-51.03"/>
</g>
<!-- Node9 -->
<g id="node9" class="node">
<title>Node9</title>
<g id="a_node9"><a xlink:href="main_8cpp.html" target="_top" xlink:title=" ">
<polygon fill="white" stroke="black" points="201.99,-0.5 201.99,-19.5 280.99,-19.5 280.99,-0.5 201.99,-0.5"/>
<text text-anchor="middle" x="241.49" y="-7.5" font-family="Helvetica,sans-Serif" font-size="10.00">src/main.cpp</text>
</a>
</g>
</g>
<!-- Node7&#45;&gt;Node9 -->
<g id="edge8" class="edge">
<title>Node7&#45;&gt;Node9</title>
<path fill="none" stroke="midnightblue" d="M206.56,-48.72C215.38,-39.2 226.15,-27.56 233.39,-19.75"/>
<polygon fill="midnightblue" stroke="midnightblue" points="203.97,-46.37 199.74,-56.08 209.11,-51.12 203.97,-46.37"/>
</g>
<!-- Node11&#45;&gt;Node5 -->
<g id="edge12" class="edge">
<title>Node11&#45;&gt;Node5</title>
<path fill="none" stroke="midnightblue" d="M310.6,-160.43C318.66,-150.97 328.45,-139.48 335.03,-131.75"/>
<polygon fill="midnightblue" stroke="midnightblue" points="307.9,-158.2 304.08,-168.08 313.23,-162.74 307.9,-158.2"/>
</g>
<!-- Node12 -->
<g id="node12" class="node">
<title>Node12</title>
<g id="a_node12"><a xlink:href="Tower_8cpp.html" target="_top" xlink:title=" ">
<polygon fill="white" stroke="black" points="398.49,-112.5 398.49,-131.5 480.49,-131.5 480.49,-112.5 398.49,-112.5"/>
<text text-anchor="middle" x="439.49" y="-119.5" font-family="Helvetica,sans-Serif" font-size="10.00">src/Tower.cpp</text>
</a>
</g>
</g>
<!-- Node11&#45;&gt;Node12 -->
<g id="edge13" class="edge">
<title>Node11&#45;&gt;Node12</title>
<path fill="none" stroke="midnightblue" d="M328.52,-164.91C355.4,-154.75 393.13,-140.51 416.94,-131.52"/>
<polygon fill="midnightblue" stroke="midnightblue" points="327.27,-161.64 319.15,-168.44 329.74,-168.19 327.27,-161.64"/>
</g>
<!-- Node13&#45;&gt;Node5 -->
<g id="edge17" class="edge">
<title>Node13&#45;&gt;Node5</title>
<path fill="none" stroke="midnightblue" d="M490.1,-223.73C554.91,-211.06 663.09,-189.7 664.49,-188 670.12,-181.12 670.35,-174.68 664.49,-168 623.83,-121.68 450.34,-141.8 389.49,-132 386.45,-131.51 383.31,-130.98 380.16,-130.42"/>
<polygon fill="midnightblue" stroke="midnightblue" points="489.24,-220.34 480.1,-225.69 490.58,-227.21 489.24,-220.34"/>
</g>
<!-- Node14 -->
<g id="node14" class="node">
<title>Node14</title>
<g id="a_node14"><a xlink:href="Definitions_8cpp.html" target="_top" xlink:title=" ">
<polygon fill="white" stroke="black" points="547.99,-168.5 547.99,-187.5 654.99,-187.5 654.99,-168.5 547.99,-168.5"/>
<text text-anchor="middle" x="601.49" y="-175.5" font-family="Helvetica,sans-Serif" font-size="10.00">src/Definitions.cpp</text>
</a>
</g>
</g>
<!-- Node13&#45;&gt;Node14 -->
<g id="edge16" class="edge">
<title>Node13&#45;&gt;Node14</title>
<path fill="none" stroke="midnightblue" d="M477.32,-221.17C507.25,-211 549.71,-196.59 576.41,-187.52"/>
<polygon fill="midnightblue" stroke="midnightblue" points="476.03,-217.91 467.68,-224.44 478.28,-224.54 476.03,-217.91"/>
</g>
<!-- Node15 -->
<g id="node15" class="node">
<title>Node15</title>
<g id="a_node15"><a xlink:href="logFile_8cpp.html" target="_top" xlink:title=" ">
<polygon fill="white" stroke="black" points="350.49,-168.5 350.49,-187.5 436.49,-187.5 436.49,-168.5 350.49,-168.5"/>
<text text-anchor="middle" x="393.49" y="-175.5" font-family="Helvetica,sans-Serif" font-size="10.00">src/logFile.cpp</text>
</a>
</g>
</g>
<!-- Node13&#45;&gt;Node15 -->
<g id="edge18" class="edge">
<title>Node13&#45;&gt;Node15</title>
<path fill="none" stroke="midnightblue" d="M427.45,-216.43C418.87,-206.97 408.45,-195.48 401.43,-187.75"/>
<polygon fill="midnightblue" stroke="midnightblue" points="425.09,-219.03 434.4,-224.08 430.27,-214.33 425.09,-219.03"/>
</g>
<!-- Node16 -->
<g id="node16" class="node">
<title>Node16</title>
<g id="a_node16"><a xlink:href="Map_8cpp.html" target="_top" xlink:title=" ">
<polygon fill="white" stroke="black" points="454.99,-168.5 454.99,-187.5 529.99,-187.5 529.99,-168.5 454.99,-168.5"/>
<text text-anchor="middle" x="492.49" y="-175.5" font-family="Helvetica,sans-Serif" font-size="10.00">src/Map.cpp</text>
</a>
</g>
</g>
<!-- Node13&#45;&gt;Node16 -->
<g id="edge19" class="edge">
<title>Node13&#45;&gt;Node16</title>
<path fill="none" stroke="midnightblue" d="M457.56,-216.72C466.38,-207.2 477.15,-195.56 484.39,-187.75"/>
<polygon fill="midnightblue" stroke="midnightblue" points="454.97,-214.37 450.74,-224.08 460.11,-219.12 454.97,-214.37"/>
</g>
</g>
</svg>
