<?xml version="1.0" encoding="UTF-8" standalone="no"?>
<!DOCTYPE svg PUBLIC "-//W3C//DTD SVG 1.1//EN"
 "http://www.w3.org/Graphics/SVG/1.1/DTD/svg11.dtd">
<!-- Generated by graphviz version 2.43.0 (0)
 -->
<!-- Title: src/Game.h Pages: 1 -->
<svg width="928pt" height="364pt"
 viewBox="0.00 0.00 927.50 364.00" xmlns="http://www.w3.org/2000/svg" xmlns:xlink="http://www.w3.org/1999/xlink">
<g id="graph0" class="graph" transform="scale(1 1) rotate(0) translate(4 360)">
<title>src/Game.h</title>
<polygon fill="white" stroke="transparent" points="-4,4 -4,-360 923.5,-360 923.5,4 -4,4"/>
<!-- Node1 -->
<g id="node1" class="node">
<title>Node1</title>
<g id="a_node1"><a xlink:title=" ">
<polygon fill="#bfbfbf" stroke="black" points="302,-336.5 302,-355.5 374,-355.5 374,-336.5 302,-336.5"/>
<text text-anchor="middle" x="338" y="-343.5" font-family="Helvetica,sans-Serif" font-size="10.00">src/Game.h</text>
</a>
</g>
</g>
<!-- Node2 -->
<g id="node2" class="node">
<title>Node2</title>
<g id="a_node2"><a xlink:href="HelpStructs_8h.html" target="_top" xlink:title=" ">
<polygon fill="white" stroke="black" points="0,-280.5 0,-299.5 82,-299.5 82,-280.5 0,-280.5"/>
<text text-anchor="middle" x="41" y="-287.5" font-family="Helvetica,sans-Serif" font-size="10.00">HelpStructs.h</text>
</a>
</g>
</g>
<!-- Node1&#45;&gt;Node2 -->
<g id="edge1" class="edge">
<title>Node1&#45;&gt;Node2</title>
<path fill="none" stroke="midnightblue" d="M301.88,-338.43C249.42,-328.89 151.89,-311.16 92.08,-300.29"/>
<polygon fill="midnightblue" stroke="midnightblue" points="92.56,-296.82 82.1,-298.47 91.31,-303.7 92.56,-296.82"/>
</g>
<!-- Node3 -->
<g id="node3" class="node">
<title>Node3</title>
<g id="a_node3"><a xlink:title=" ">
<polygon fill="white" stroke="#bfbfbf" points="116.5,-0.5 116.5,-19.5 179.5,-19.5 179.5,-0.5 116.5,-0.5"/>
<text text-anchor="middle" x="148" y="-7.5" font-family="Helvetica,sans-Serif" font-size="10.00">ncurses.h</text>
</a>
</g>
</g>
<!-- Node1&#45;&gt;Node3 -->
<g id="edge2" class="edge">
<title>Node1&#45;&gt;Node3</title>
<path fill="none" stroke="midnightblue" d="M301.87,-343.6C237.58,-338.96 110,-319.16 110,-235 110,-235 110,-235 110,-121 110,-86.81 126.6,-49.76 137.86,-28.57"/>
<polygon fill="midnightblue" stroke="midnightblue" points="140.95,-30.22 142.72,-19.77 134.82,-26.83 140.95,-30.22"/>
</g>
<!-- Node4 -->
<g id="node4" class="node">
<title>Node4</title>
<g id="a_node4"><a xlink:href="Attacker_8h.html" target="_top" xlink:title=" ">
<polygon fill="white" stroke="black" points="442.5,-168.5 442.5,-187.5 507.5,-187.5 507.5,-168.5 442.5,-168.5"/>
<text text-anchor="middle" x="475" y="-175.5" font-family="Helvetica,sans-Serif" font-size="10.00">Attacker.h</text>
</a>
</g>
</g>
<!-- Node1&#45;&gt;Node4 -->
<g id="edge3" class="edge">
<title>Node1&#45;&gt;Node4</title>
<path fill="none" stroke="midnightblue" d="M350.92,-336.31C362.9,-327.88 380.81,-314.3 394,-300 424.58,-266.85 451.88,-221.13 465.62,-196.47"/>
<polygon fill="midnightblue" stroke="midnightblue" points="468.76,-198.01 470.5,-187.56 462.62,-194.65 468.76,-198.01"/>
</g>
<!-- Node7 -->
<g id="node7" class="node">
<title>Node7</title>
<g id="a_node7"><a xlink:href="Map_8h.html" target="_top" xlink:title=" ">
<polygon fill="white" stroke="black" points="352.5,-56.5 352.5,-75.5 399.5,-75.5 399.5,-56.5 352.5,-56.5"/>
<text text-anchor="middle" x="376" y="-63.5" font-family="Helvetica,sans-Serif" font-size="10.00">Map.h</text>
</a>
</g>
</g>
<!-- Node1&#45;&gt;Node7 -->
<g id="edge19" class="edge">
<title>Node1&#45;&gt;Node7</title>
<path fill="none" stroke="midnightblue" d="M327.29,-336.3C318.06,-328.07 305.41,-314.79 300,-300 296.95,-291.65 298.48,-288.76 300,-280 313.04,-204.65 350.23,-120.66 367.28,-84.79"/>
<polygon fill="midnightblue" stroke="midnightblue" points="370.5,-86.16 371.69,-75.63 364.2,-83.12 370.5,-86.16"/>
</g>
<!-- Node8 -->
<g id="node8" class="node">
<title>Node8</title>
<g id="a_node8"><a xlink:title=" ">
<polygon fill="white" stroke="#bfbfbf" points="262.5,-0.5 262.5,-19.5 309.5,-19.5 309.5,-0.5 262.5,-0.5"/>
<text text-anchor="middle" x="286" y="-7.5" font-family="Helvetica,sans-Serif" font-size="10.00">vector</text>
</a>
</g>
</g>
<!-- Node1&#45;&gt;Node8 -->
<g id="edge39" class="edge">
<title>Node1&#45;&gt;Node8</title>
<path fill="none" stroke="midnightblue" d="M303.13,-336.4C258.25,-323 186,-292.49 186,-235 186,-235 186,-235 186,-121 186,-76.98 230.38,-42.8 260.01,-24.87"/>
<polygon fill="midnightblue" stroke="midnightblue" points="262.14,-27.68 269.04,-19.64 258.63,-21.63 262.14,-27.68"/>
</g>
<!-- Node9 -->
<g id="node9" class="node">
<title>Node9</title>
<g id="a_node9"><a xlink:title=" ">
<polygon fill="white" stroke="#bfbfbf" points="766,-0.5 766,-19.5 810,-19.5 810,-0.5 766,-0.5"/>
<text text-anchor="middle" x="788" y="-7.5" font-family="Helvetica,sans-Serif" font-size="10.00">string</text>
</a>
</g>
</g>
<!-- Node1&#45;&gt;Node9 -->
<g id="edge40" class="edge">
<title>Node1&#45;&gt;Node9</title>
<path fill="none" stroke="midnightblue" d="M374.06,-343.89C480.85,-339.65 788,-320.05 788,-235 788,-235 788,-235 788,-121 788,-88.95 788,-51.64 788,-29.75"/>
<polygon fill="midnightblue" stroke="midnightblue" points="791.5,-29.56 788,-19.56 784.5,-29.56 791.5,-29.56"/>
</g>
<!-- Node13 -->
<g id="node13" class="node">
<title>Node13</title>
<g id="a_node13"><a xlink:href="exceptions_8h.html" target="_top" xlink:title=" ">
<polygon fill="white" stroke="black" points="816.5,-280.5 816.5,-299.5 895.5,-299.5 895.5,-280.5 816.5,-280.5"/>
<text text-anchor="middle" x="856" y="-287.5" font-family="Helvetica,sans-Serif" font-size="10.00">exceptions.h</text>
</a>
</g>
</g>
<!-- Node1&#45;&gt;Node13 -->
<g id="edge20" class="edge">
<title>Node1&#45;&gt;Node13</title>
<path fill="none" stroke="midnightblue" d="M374.19,-342.34C452.44,-336.4 643.12,-320.92 802,-300 803.3,-299.83 804.61,-299.65 805.94,-299.47"/>
<polygon fill="midnightblue" stroke="midnightblue" points="806.85,-302.87 816.23,-297.94 805.83,-295.94 806.85,-302.87"/>
</g>
<!-- Node15 -->
<g id="node15" class="node">
<title>Node15</title>
<g id="a_node15"><a xlink:href="Player_8h.html" target="_top" xlink:title=" ">
<polygon fill="white" stroke="black" points="367,-224.5 367,-243.5 423,-243.5 423,-224.5 367,-224.5"/>
<text text-anchor="middle" x="395" y="-231.5" font-family="Helvetica,sans-Serif" font-size="10.00">Player.h</text>
</a>
</g>
</g>
<!-- Node1&#45;&gt;Node15 -->
<g id="edge23" class="edge">
<title>Node1&#45;&gt;Node15</title>
<path fill="none" stroke="midnightblue" d="M347.41,-336.2C355.99,-327.69 368.45,-314.05 376,-300 383.82,-285.43 388.78,-267.26 391.67,-253.83"/>
<polygon fill="midnightblue" stroke="midnightblue" points="395.13,-254.34 393.62,-243.86 388.26,-253 395.13,-254.34"/>
</g>
<!-- Node16 -->
<g id="node16" class="node">
<title>Node16</title>
<g id="a_node16"><a xlink:href="Enemy_8h.html" target="_top" xlink:title=" ">
<polygon fill="white" stroke="black" points="309,-280.5 309,-299.5 367,-299.5 367,-280.5 309,-280.5"/>
<text text-anchor="middle" x="338" y="-287.5" font-family="Helvetica,sans-Serif" font-size="10.00">Enemy.h</text>
</a>
</g>
</g>
<!-- Node1&#45;&gt;Node16 -->
<g id="edge29" class="edge">
<title>Node1&#45;&gt;Node16</title>
<path fill="none" stroke="midnightblue" d="M338,-336.08C338,-329.01 338,-318.86 338,-309.99"/>
<polygon fill="midnightblue" stroke="midnightblue" points="341.5,-309.75 338,-299.75 334.5,-309.75 341.5,-309.75"/>
</g>
<!-- Node5 -->
<g id="node5" class="node">
<title>Node5</title>
<g id="a_node5"><a xlink:href="Entity_8h.html" target="_top" xlink:title=" ">
<polygon fill="white" stroke="black" points="480.5,-112.5 480.5,-131.5 533.5,-131.5 533.5,-112.5 480.5,-112.5"/>
<text text-anchor="middle" x="507" y="-119.5" font-family="Helvetica,sans-Serif" font-size="10.00">Entity.h</text>
</a>
</g>
</g>
<!-- Node4&#45;&gt;Node5 -->
<g id="edge4" class="edge">
<title>Node4&#45;&gt;Node5</title>
<path fill="none" stroke="midnightblue" d="M480.28,-168.08C484.71,-160.61 491.16,-149.72 496.62,-140.52"/>
<polygon fill="midnightblue" stroke="midnightblue" points="499.73,-142.14 501.81,-131.75 493.71,-138.57 499.73,-142.14"/>
</g>
<!-- Node6 -->
<g id="node6" class="node">
<title>Node6</title>
<g id="a_node6"><a xlink:href="constants_8h.html" target="_top" xlink:title=" ">
<polygon fill="white" stroke="black" points="534.5,-56.5 534.5,-75.5 607.5,-75.5 607.5,-56.5 534.5,-56.5"/>
<text text-anchor="middle" x="571" y="-63.5" font-family="Helvetica,sans-Serif" font-size="10.00">constants.h</text>
</a>
</g>
</g>
<!-- Node4&#45;&gt;Node6 -->
<g id="edge15" class="edge">
<title>Node4&#45;&gt;Node6</title>
<path fill="none" stroke="midnightblue" d="M493.62,-168.47C508.65,-160.77 529.47,-148.18 543,-132 554.32,-118.46 561.75,-99.66 566.09,-85.76"/>
<polygon fill="midnightblue" stroke="midnightblue" points="569.54,-86.43 568.93,-75.85 562.81,-84.5 569.54,-86.43"/>
</g>
<!-- Node4&#45;&gt;Node7 -->
<g id="edge18" class="edge">
<title>Node4&#45;&gt;Node7</title>
<path fill="none" stroke="midnightblue" d="M469.51,-168.1C461.29,-155.11 444.93,-130.48 428,-112 418.04,-101.13 405.6,-90.28 395.38,-81.96"/>
<polygon fill="midnightblue" stroke="midnightblue" points="397.43,-79.12 387.42,-75.62 393.06,-84.59 397.43,-79.12"/>
</g>
<!-- Node4&#45;&gt;Node8 -->
<g id="edge16" class="edge">
<title>Node4&#45;&gt;Node8</title>
<path fill="none" stroke="midnightblue" d="M462.1,-168.26C437.87,-151.6 384.36,-113.57 344,-76 327.65,-60.79 310.87,-41.5 299.59,-27.9"/>
<polygon fill="midnightblue" stroke="midnightblue" points="302.07,-25.41 293.03,-19.88 296.65,-29.84 302.07,-25.41"/>
</g>
<!-- Node10 -->
<g id="node10" class="node">
<title>Node10</title>
<g id="a_node10"><a xlink:title=" ">
<polygon fill="white" stroke="#bfbfbf" points="626,-0.5 626,-19.5 684,-19.5 684,-0.5 626,-0.5"/>
<text text-anchor="middle" x="655" y="-7.5" font-family="Helvetica,sans-Serif" font-size="10.00">memory</text>
</a>
</g>
</g>
<!-- Node4&#45;&gt;Node10 -->
<g id="edge17" class="edge">
<title>Node4&#45;&gt;Node10</title>
<path fill="none" stroke="midnightblue" d="M496.4,-168.45C514.96,-160.49 542.05,-147.54 563,-132 590.77,-111.4 596.13,-103.56 617,-76 628.32,-61.05 638.88,-42.45 645.99,-28.98"/>
<polygon fill="midnightblue" stroke="midnightblue" points="649.23,-30.32 650.7,-19.83 643.01,-27.12 649.23,-30.32"/>
</g>
<!-- Node5&#45;&gt;Node6 -->
<g id="edge5" class="edge">
<title>Node5&#45;&gt;Node6</title>
<path fill="none" stroke="midnightblue" d="M517.28,-112.32C526.84,-104.26 541.28,-92.08 552.78,-82.37"/>
<polygon fill="midnightblue" stroke="midnightblue" points="555.14,-84.96 560.53,-75.83 550.63,-79.61 555.14,-84.96"/>
</g>
<!-- Node5&#45;&gt;Node7 -->
<g id="edge6" class="edge">
<title>Node5&#45;&gt;Node7</title>
<path fill="none" stroke="midnightblue" d="M481.15,-112.44C457.75,-103.6 423.77,-89.69 400.72,-79.59"/>
<polygon fill="midnightblue" stroke="midnightblue" points="402.14,-76.39 391.58,-75.52 399.29,-82.78 402.14,-76.39"/>
</g>
<!-- Node5&#45;&gt;Node10 -->
<g id="edge14" class="edge">
<title>Node5&#45;&gt;Node10</title>
<path fill="none" stroke="midnightblue" d="M507.13,-112.19C507.8,-98.4 511.1,-71.68 526,-56 549.43,-31.34 587.08,-20.19 615.68,-15.15"/>
<polygon fill="midnightblue" stroke="midnightblue" points="616.43,-18.57 625.76,-13.55 615.33,-11.66 616.43,-18.57"/>
</g>
<!-- Node12 -->
<g id="node12" class="node">
<title>Node12</title>
<g id="a_node12"><a xlink:title=" ">
<polygon fill="white" stroke="#bfbfbf" points="418,-56.5 418,-75.5 478,-75.5 478,-56.5 418,-56.5"/>
<text text-anchor="middle" x="448" y="-63.5" font-family="Helvetica,sans-Serif" font-size="10.00">iostream</text>
</a>
</g>
</g>
<!-- Node5&#45;&gt;Node12 -->
<g id="edge13" class="edge">
<title>Node5&#45;&gt;Node12</title>
<path fill="none" stroke="midnightblue" d="M497.52,-112.32C488.8,-104.34 475.66,-92.31 465.1,-82.65"/>
<polygon fill="midnightblue" stroke="midnightblue" points="467.39,-80 457.65,-75.83 462.67,-85.17 467.39,-80"/>
</g>
<!-- Node7&#45;&gt;Node3 -->
<g id="edge10" class="edge">
<title>Node7&#45;&gt;Node3</title>
<path fill="none" stroke="midnightblue" d="M352.46,-59.42C314.09,-50.34 237.55,-32.21 189.78,-20.9"/>
<polygon fill="midnightblue" stroke="midnightblue" points="190.3,-17.42 179.76,-18.52 188.68,-24.23 190.3,-17.42"/>
</g>
<!-- Node7&#45;&gt;Node5 -->
<g id="edge12" class="edge">
<title>Node7&#45;&gt;Node5</title>
<path fill="none" stroke="midnightblue" d="M399.88,-74.82C423.2,-83.57 458.24,-97.89 481.94,-108.27"/>
<polygon fill="midnightblue" stroke="midnightblue" points="480.77,-111.58 491.33,-112.44 483.62,-105.18 480.77,-111.58"/>
</g>
<!-- Node7&#45;&gt;Node8 -->
<g id="edge7" class="edge">
<title>Node7&#45;&gt;Node8</title>
<path fill="none" stroke="midnightblue" d="M361.54,-56.32C347.5,-47.9 325.95,-34.97 309.46,-25.07"/>
<polygon fill="midnightblue" stroke="midnightblue" points="310.8,-21.8 300.42,-19.65 307.2,-27.8 310.8,-21.8"/>
</g>
<!-- Node7&#45;&gt;Node9 -->
<g id="edge8" class="edge">
<title>Node7&#45;&gt;Node9</title>
<path fill="none" stroke="midnightblue" d="M399.69,-58.09C402.81,-57.31 405.97,-56.59 409,-56 475.31,-43.09 676.44,-22.2 755.55,-14.23"/>
<polygon fill="midnightblue" stroke="midnightblue" points="756.27,-17.67 765.87,-13.19 755.57,-10.71 756.27,-17.67"/>
</g>
<!-- Node7&#45;&gt;Node10 -->
<g id="edge9" class="edge">
<title>Node7&#45;&gt;Node10</title>
<path fill="none" stroke="midnightblue" d="M399.73,-58.27C402.84,-57.46 405.99,-56.68 409,-56 481.38,-39.54 566.79,-25 615.55,-17.15"/>
<polygon fill="midnightblue" stroke="midnightblue" points="616.35,-20.57 625.68,-15.53 615.25,-13.65 616.35,-20.57"/>
</g>
<!-- Node11 -->
<g id="node11" class="node">
<title>Node11</title>
<g id="a_node11"><a xlink:title=" ">
<polygon fill="white" stroke="#bfbfbf" points="343.5,-0.5 343.5,-19.5 408.5,-19.5 408.5,-0.5 343.5,-0.5"/>
<text text-anchor="middle" x="376" y="-7.5" font-family="Helvetica,sans-Serif" font-size="10.00">functional</text>
</a>
</g>
</g>
<!-- Node7&#45;&gt;Node11 -->
<g id="edge11" class="edge">
<title>Node7&#45;&gt;Node11</title>
<path fill="none" stroke="midnightblue" d="M376,-56.08C376,-49.01 376,-38.86 376,-29.99"/>
<polygon fill="midnightblue" stroke="midnightblue" points="379.5,-29.75 376,-19.75 372.5,-29.75 379.5,-29.75"/>
</g>
<!-- Node13&#45;&gt;Node9 -->
<g id="edge21" class="edge">
<title>Node13&#45;&gt;Node9</title>
<path fill="none" stroke="midnightblue" d="M851.95,-280.38C843.77,-262.11 826,-218 826,-179 826,-179 826,-179 826,-121 826,-86.81 809.4,-49.76 798.14,-28.57"/>
<polygon fill="midnightblue" stroke="midnightblue" points="801.18,-26.83 793.28,-19.77 795.05,-30.22 801.18,-26.83"/>
</g>
<!-- Node14 -->
<g id="node14" class="node">
<title>Node14</title>
<g id="a_node14"><a xlink:title=" ">
<polygon fill="white" stroke="#bfbfbf" points="854.5,-224.5 854.5,-243.5 919.5,-243.5 919.5,-224.5 854.5,-224.5"/>
<text text-anchor="middle" x="887" y="-231.5" font-family="Helvetica,sans-Serif" font-size="10.00">exception</text>
</a>
</g>
</g>
<!-- Node13&#45;&gt;Node14 -->
<g id="edge22" class="edge">
<title>Node13&#45;&gt;Node14</title>
<path fill="none" stroke="midnightblue" d="M861.12,-280.08C865.41,-272.61 871.66,-261.72 876.94,-252.52"/>
<polygon fill="midnightblue" stroke="midnightblue" points="880.03,-254.17 881.98,-243.75 873.96,-250.68 880.03,-254.17"/>
</g>
<!-- Node15&#45;&gt;Node4 -->
<g id="edge25" class="edge">
<title>Node15&#45;&gt;Node4</title>
<path fill="none" stroke="midnightblue" d="M407.85,-224.32C420.22,-215.98 439.13,-203.21 453.74,-193.35"/>
<polygon fill="midnightblue" stroke="midnightblue" points="455.85,-196.15 462.18,-187.65 451.93,-190.35 455.85,-196.15"/>
</g>
<!-- Node15&#45;&gt;Node5 -->
<g id="edge24" class="edge">
<title>Node15&#45;&gt;Node5</title>
<path fill="none" stroke="midnightblue" d="M398.67,-224.12C404.56,-210.7 417.17,-185.04 434,-168 446.88,-154.97 464.24,-144.07 478.8,-136.26"/>
<polygon fill="midnightblue" stroke="midnightblue" points="480.6,-139.27 487.89,-131.59 477.4,-133.05 480.6,-139.27"/>
</g>
<!-- Node15&#45;&gt;Node7 -->
<g id="edge28" class="edge">
<title>Node15&#45;&gt;Node7</title>
<path fill="none" stroke="midnightblue" d="M393.98,-224.08C390.99,-197.95 382.2,-121.21 378.13,-85.58"/>
<polygon fill="midnightblue" stroke="midnightblue" points="381.6,-85.11 376.98,-75.57 374.64,-85.9 381.6,-85.11"/>
</g>
<!-- Node15&#45;&gt;Node8 -->
<g id="edge27" class="edge">
<title>Node15&#45;&gt;Node8</title>
<path fill="none" stroke="midnightblue" d="M390.73,-224.3C374.59,-191.42 317.12,-74.39 294.88,-29.09"/>
<polygon fill="midnightblue" stroke="midnightblue" points="297.91,-27.32 290.36,-19.88 291.63,-30.4 297.91,-27.32"/>
</g>
<!-- Node15&#45;&gt;Node10 -->
<g id="edge26" class="edge">
<title>Node15&#45;&gt;Node10</title>
<path fill="none" stroke="midnightblue" d="M423.22,-225.35C448.68,-217.82 486.67,-204.99 517,-188 552.06,-168.36 558.87,-159.68 588,-132 611.97,-109.22 621.3,-105.11 637,-76 644.81,-61.51 649.48,-43.32 652.09,-29.88"/>
<polygon fill="midnightblue" stroke="midnightblue" points="655.56,-30.33 653.83,-19.88 648.67,-29.13 655.56,-30.33"/>
</g>
<!-- Node16&#45;&gt;Node3 -->
<g id="edge38" class="edge">
<title>Node16&#45;&gt;Node3</title>
<path fill="none" stroke="midnightblue" d="M329.63,-280.38C303.23,-252.77 220.56,-163.26 172,-76 163.77,-61.22 157.34,-43.06 153.22,-29.7"/>
<polygon fill="midnightblue" stroke="midnightblue" points="156.48,-28.39 150.31,-19.78 149.76,-30.36 156.48,-28.39"/>
</g>
<!-- Node16&#45;&gt;Node7 -->
<g id="edge35" class="edge">
<title>Node16&#45;&gt;Node7</title>
<path fill="none" stroke="midnightblue" d="M339.49,-280.3C345.08,-247.63 364.9,-131.87 372.76,-85.96"/>
<polygon fill="midnightblue" stroke="midnightblue" points="376.24,-86.33 374.48,-75.88 369.34,-85.15 376.24,-86.33"/>
</g>
<!-- Node16&#45;&gt;Node8 -->
<g id="edge37" class="edge">
<title>Node16&#45;&gt;Node8</title>
<path fill="none" stroke="midnightblue" d="M336.39,-280.38C329.15,-241.7 299.62,-83.79 289.45,-29.47"/>
<polygon fill="midnightblue" stroke="midnightblue" points="292.87,-28.71 287.59,-19.52 285.99,-30 292.87,-28.71"/>
</g>
<!-- Node16&#45;&gt;Node10 -->
<g id="edge36" class="edge">
<title>Node16&#45;&gt;Node10</title>
<path fill="none" stroke="midnightblue" d="M367.3,-287.51C461.42,-281.91 750,-258.31 750,-179 750,-179 750,-179 750,-121 750,-77.74 707.39,-43.09 679.25,-24.91"/>
<polygon fill="midnightblue" stroke="midnightblue" points="681.03,-21.9 670.69,-19.6 677.34,-27.85 681.03,-21.9"/>
</g>
<!-- Node16&#45;&gt;Node15 -->
<g id="edge30" class="edge">
<title>Node16&#45;&gt;Node15</title>
<path fill="none" stroke="midnightblue" d="M347.16,-280.32C355.5,-272.42 368.03,-260.55 378.18,-250.94"/>
<polygon fill="midnightblue" stroke="midnightblue" points="380.82,-253.25 385.68,-243.83 376.01,-248.17 380.82,-253.25"/>
</g>
<!-- Node17 -->
<g id="node17" class="node">
<title>Node17</title>
<g id="a_node17"><a xlink:href="Tower_8h.html" target="_top" xlink:title=" ">
<polygon fill="white" stroke="black" points="500.5,-224.5 500.5,-243.5 553.5,-243.5 553.5,-224.5 500.5,-224.5"/>
<text text-anchor="middle" x="527" y="-231.5" font-family="Helvetica,sans-Serif" font-size="10.00">Tower.h</text>
</a>
</g>
</g>
<!-- Node16&#45;&gt;Node17 -->
<g id="edge31" class="edge">
<title>Node16&#45;&gt;Node17</title>
<path fill="none" stroke="midnightblue" d="M367.12,-280.68C400.34,-271.19 454.71,-255.66 490.67,-245.38"/>
<polygon fill="midnightblue" stroke="midnightblue" points="491.64,-248.74 500.3,-242.63 489.72,-242.01 491.64,-248.74"/>
</g>
<!-- Node17&#45;&gt;Node4 -->
<g id="edge33" class="edge">
<title>Node17&#45;&gt;Node4</title>
<path fill="none" stroke="midnightblue" d="M518.41,-224.08C510.84,-216.22 499.62,-204.57 490.49,-195.08"/>
<polygon fill="midnightblue" stroke="midnightblue" points="492.88,-192.53 483.43,-187.75 487.84,-197.38 492.88,-192.53"/>
</g>
<!-- Node17&#45;&gt;Node5 -->
<g id="edge32" class="edge">
<title>Node17&#45;&gt;Node5</title>
<path fill="none" stroke="midnightblue" d="M525.83,-224.14C524.12,-211.6 520.75,-187.97 517,-168 515.35,-159.24 513.25,-149.58 511.39,-141.47"/>
<polygon fill="midnightblue" stroke="midnightblue" points="514.77,-140.53 509.09,-131.59 507.95,-142.13 514.77,-140.53"/>
</g>
<!-- Node17&#45;&gt;Node10 -->
<g id="edge34" class="edge">
<title>Node17&#45;&gt;Node10</title>
<path fill="none" stroke="midnightblue" d="M553.54,-229.47C594.92,-223.36 671.77,-209.39 688,-188 723.46,-141.27 706.25,-111.76 688,-56 684.51,-45.34 677.43,-35.12 670.71,-27.12"/>
<polygon fill="midnightblue" stroke="midnightblue" points="673.3,-24.76 664.02,-19.66 668.1,-29.44 673.3,-24.76"/>
</g>
</g>
</svg>
