<?xml version="1.0" encoding="UTF-8" standalone="no"?>
<!DOCTYPE svg PUBLIC "-//W3C//DTD SVG 1.1//EN"
 "http://www.w3.org/Graphics/SVG/1.1/DTD/svg11.dtd">
<!-- Generated by graphviz version 2.43.0 (0)
 -->
<!-- Title: src/Game.cpp Pages: 1 -->
<svg width="1404pt" height="420pt"
 viewBox="0.00 0.00 1404.00 420.00" xmlns="http://www.w3.org/2000/svg" xmlns:xlink="http://www.w3.org/1999/xlink">
<g id="graph0" class="graph" transform="scale(1 1) rotate(0) translate(4 416)">
<title>src/Game.cpp</title>
<polygon fill="white" stroke="transparent" points="-4,4 -4,-416 1400,-416 1400,4 -4,4"/>
<!-- Node1 -->
<g id="node1" class="node">
<title>Node1</title>
<g id="a_node1"><a xlink:title=" ">
<polygon fill="#bfbfbf" stroke="black" points="1024.5,-392.5 1024.5,-411.5 1107.5,-411.5 1107.5,-392.5 1024.5,-392.5"/>
<text text-anchor="middle" x="1066" y="-399.5" font-family="Helvetica,sans-Serif" font-size="10.00">src/Game.cpp</text>
</a>
</g>
</g>
<!-- Node2 -->
<g id="node2" class="node">
<title>Node2</title>
<g id="a_node2"><a xlink:href="Game_8h.html" target="_top" xlink:title=" ">
<polygon fill="white" stroke="black" points="318.5,-336.5 318.5,-355.5 373.5,-355.5 373.5,-336.5 318.5,-336.5"/>
<text text-anchor="middle" x="346" y="-343.5" font-family="Helvetica,sans-Serif" font-size="10.00">Game.h</text>
</a>
</g>
</g>
<!-- Node1&#45;&gt;Node2 -->
<g id="edge1" class="edge">
<title>Node1&#45;&gt;Node2</title>
<path fill="none" stroke="midnightblue" d="M1024.44,-397.88C895.97,-388.25 506.49,-359.04 383.58,-349.82"/>
<polygon fill="midnightblue" stroke="midnightblue" points="383.76,-346.32 373.53,-349.06 383.24,-353.3 383.76,-346.32"/>
</g>
<!-- Node4 -->
<g id="node4" class="node">
<title>Node4</title>
<g id="a_node4"><a xlink:title=" ">
<polygon fill="white" stroke="#bfbfbf" points="920.5,-0.5 920.5,-19.5 983.5,-19.5 983.5,-0.5 920.5,-0.5"/>
<text text-anchor="middle" x="952" y="-7.5" font-family="Helvetica,sans-Serif" font-size="10.00">ncurses.h</text>
</a>
</g>
</g>
<!-- Node1&#45;&gt;Node4 -->
<g id="edge42" class="edge">
<title>Node1&#45;&gt;Node4</title>
<path fill="none" stroke="midnightblue" d="M1066,-392.44C1066,-373.94 1066,-328.81 1066,-291 1066,-291 1066,-291 1066,-121 1066,-74.11 1015.45,-40.89 981.67,-23.93"/>
<polygon fill="midnightblue" stroke="midnightblue" points="983.17,-20.77 972.64,-19.58 980.13,-27.07 983.17,-20.77"/>
</g>
<!-- Node11 -->
<g id="node11" class="node">
<title>Node11</title>
<g id="a_node11"><a xlink:title=" ">
<polygon fill="white" stroke="#bfbfbf" points="693,-0.5 693,-19.5 751,-19.5 751,-0.5 693,-0.5"/>
<text text-anchor="middle" x="722" y="-7.5" font-family="Helvetica,sans-Serif" font-size="10.00">memory</text>
</a>
</g>
</g>
<!-- Node1&#45;&gt;Node11 -->
<g id="edge44" class="edge">
<title>Node1&#45;&gt;Node11</title>
<path fill="none" stroke="midnightblue" d="M1051.22,-392.27C1038.6,-384.19 1020.7,-371.18 1009,-356 918.21,-238.27 977.01,-148.99 861,-56 832.23,-32.94 791.32,-21.56 761.33,-16.03"/>
<polygon fill="midnightblue" stroke="midnightblue" points="761.66,-12.53 751.21,-14.31 760.48,-19.44 761.66,-12.53"/>
</g>
<!-- Node13 -->
<g id="node13" class="node">
<title>Node13</title>
<g id="a_node13"><a xlink:title=" ">
<polygon fill="white" stroke="#bfbfbf" points="750,-56.5 750,-75.5 810,-75.5 810,-56.5 750,-56.5"/>
<text text-anchor="middle" x="780" y="-63.5" font-family="Helvetica,sans-Serif" font-size="10.00">iostream</text>
</a>
</g>
</g>
<!-- Node1&#45;&gt;Node13 -->
<g id="edge43" class="edge">
<title>Node1&#45;&gt;Node13</title>
<path fill="none" stroke="midnightblue" d="M1059.05,-392.43C1042.89,-372.53 1001.47,-321.75 966,-280 903.03,-205.88 826.12,-118.91 794.57,-83.38"/>
<polygon fill="midnightblue" stroke="midnightblue" points="797.14,-81 787.88,-75.85 791.91,-85.65 797.14,-81"/>
</g>
<!-- Node19 -->
<g id="node19" class="node">
<title>Node19</title>
<g id="a_node19"><a xlink:title=" ">
<polygon fill="white" stroke="#bfbfbf" points="1094.5,-336.5 1094.5,-355.5 1157.5,-355.5 1157.5,-336.5 1094.5,-336.5"/>
<text text-anchor="middle" x="1126" y="-343.5" font-family="Helvetica,sans-Serif" font-size="10.00">termios.h</text>
</a>
</g>
</g>
<!-- Node1&#45;&gt;Node19 -->
<g id="edge45" class="edge">
<title>Node1&#45;&gt;Node19</title>
<path fill="none" stroke="midnightblue" d="M1075.64,-392.32C1084.51,-384.34 1097.87,-372.31 1108.61,-362.65"/>
<polygon fill="midnightblue" stroke="midnightblue" points="1111.09,-365.13 1116.18,-355.83 1106.41,-359.92 1111.09,-365.13"/>
</g>
<!-- Node20 -->
<g id="node20" class="node">
<title>Node20</title>
<g id="a_node20"><a xlink:title=" ">
<polygon fill="white" stroke="#bfbfbf" points="1176,-336.5 1176,-355.5 1242,-355.5 1242,-336.5 1176,-336.5"/>
<text text-anchor="middle" x="1209" y="-343.5" font-family="Helvetica,sans-Serif" font-size="10.00">sys/ioctl.h</text>
</a>
</g>
</g>
<!-- Node1&#45;&gt;Node20 -->
<g id="edge46" class="edge">
<title>Node1&#45;&gt;Node20</title>
<path fill="none" stroke="midnightblue" d="M1088.66,-392.44C1112.4,-383.48 1149.91,-369.31 1176.74,-359.18"/>
<polygon fill="midnightblue" stroke="midnightblue" points="1178.33,-362.32 1186.45,-355.52 1175.86,-355.77 1178.33,-362.32"/>
</g>
<!-- Node21 -->
<g id="node21" class="node">
<title>Node21</title>
<g id="a_node21"><a xlink:title=" ">
<polygon fill="white" stroke="#bfbfbf" points="1260,-336.5 1260,-355.5 1396,-355.5 1396,-336.5 1260,-336.5"/>
<text text-anchor="middle" x="1328" y="-343.5" font-family="Helvetica,sans-Serif" font-size="10.00">experimental/filesystem</text>
</a>
</g>
</g>
<!-- Node1&#45;&gt;Node21 -->
<g id="edge47" class="edge">
<title>Node1&#45;&gt;Node21</title>
<path fill="none" stroke="midnightblue" d="M1107.51,-392.44C1153.41,-382.98 1227.38,-367.74 1276.83,-357.55"/>
<polygon fill="midnightblue" stroke="midnightblue" points="1277.59,-360.96 1286.68,-355.52 1276.18,-354.11 1277.59,-360.96"/>
</g>
<!-- Node3 -->
<g id="node3" class="node">
<title>Node3</title>
<g id="a_node3"><a xlink:href="HelpStructs_8h.html" target="_top" xlink:title=" ">
<polygon fill="white" stroke="black" points="0,-280.5 0,-299.5 82,-299.5 82,-280.5 0,-280.5"/>
<text text-anchor="middle" x="41" y="-287.5" font-family="Helvetica,sans-Serif" font-size="10.00">HelpStructs.h</text>
</a>
</g>
</g>
<!-- Node2&#45;&gt;Node3 -->
<g id="edge2" class="edge">
<title>Node2&#45;&gt;Node3</title>
<path fill="none" stroke="midnightblue" d="M318.4,-340.11C267.31,-331.07 157.33,-311.6 92.24,-300.07"/>
<polygon fill="midnightblue" stroke="midnightblue" points="92.65,-296.59 82.19,-298.29 91.43,-303.48 92.65,-296.59"/>
</g>
<!-- Node2&#45;&gt;Node4 -->
<g id="edge3" class="edge">
<title>Node2&#45;&gt;Node4</title>
<path fill="none" stroke="midnightblue" d="M373.7,-345.15C454.91,-344.49 697.54,-334.55 870,-244 901.44,-227.49 911,-219.71 927,-188 953.51,-135.46 954.46,-63.63 953.18,-29.92"/>
<polygon fill="midnightblue" stroke="midnightblue" points="956.66,-29.5 952.66,-19.68 949.67,-29.85 956.66,-29.5"/>
</g>
<!-- Node5 -->
<g id="node5" class="node">
<title>Node5</title>
<g id="a_node5"><a xlink:href="Attacker_8h.html" target="_top" xlink:title=" ">
<polygon fill="white" stroke="black" points="535.5,-168.5 535.5,-187.5 600.5,-187.5 600.5,-168.5 535.5,-168.5"/>
<text text-anchor="middle" x="568" y="-175.5" font-family="Helvetica,sans-Serif" font-size="10.00">Attacker.h</text>
</a>
</g>
</g>
<!-- Node2&#45;&gt;Node5 -->
<g id="edge4" class="edge">
<title>Node2&#45;&gt;Node5</title>
<path fill="none" stroke="midnightblue" d="M351.9,-336.4C367.25,-314.62 410.69,-256.7 460,-224 481.58,-209.69 508.45,-198.47 529.99,-190.82"/>
<polygon fill="midnightblue" stroke="midnightblue" points="531.15,-194.12 539.47,-187.55 528.87,-187.5 531.15,-194.12"/>
</g>
<!-- Node8 -->
<g id="node8" class="node">
<title>Node8</title>
<g id="a_node8"><a xlink:href="Map_8h.html" target="_top" xlink:title=" ">
<polygon fill="white" stroke="black" points="478.5,-56.5 478.5,-75.5 525.5,-75.5 525.5,-56.5 478.5,-56.5"/>
<text text-anchor="middle" x="502" y="-63.5" font-family="Helvetica,sans-Serif" font-size="10.00">Map.h</text>
</a>
</g>
</g>
<!-- Node2&#45;&gt;Node8 -->
<g id="edge20" class="edge">
<title>Node2&#45;&gt;Node8</title>
<path fill="none" stroke="midnightblue" d="M340.72,-336.23C330.27,-318.04 308,-274.6 308,-235 308,-235 308,-235 308,-177 308,-104.25 412.5,-79.04 468.11,-70.77"/>
<polygon fill="midnightblue" stroke="midnightblue" points="468.78,-74.21 478.21,-69.37 467.83,-67.27 468.78,-74.21"/>
</g>
<!-- Node9 -->
<g id="node9" class="node">
<title>Node9</title>
<g id="a_node9"><a xlink:title=" ">
<polygon fill="white" stroke="#bfbfbf" points="388.5,-0.5 388.5,-19.5 435.5,-19.5 435.5,-0.5 388.5,-0.5"/>
<text text-anchor="middle" x="412" y="-7.5" font-family="Helvetica,sans-Serif" font-size="10.00">vector</text>
</a>
</g>
</g>
<!-- Node2&#45;&gt;Node9 -->
<g id="edge40" class="edge">
<title>Node2&#45;&gt;Node9</title>
<path fill="none" stroke="midnightblue" d="M334.46,-336.43C313.2,-319.57 270,-279.8 270,-235 270,-235 270,-235 270,-121 270,-66.29 336.69,-34.91 378.66,-20.57"/>
<polygon fill="midnightblue" stroke="midnightblue" points="379.81,-23.88 388.23,-17.45 377.64,-17.22 379.81,-23.88"/>
</g>
<!-- Node10 -->
<g id="node10" class="node">
<title>Node10</title>
<g id="a_node10"><a xlink:title=" ">
<polygon fill="white" stroke="#bfbfbf" points="126,-0.5 126,-19.5 170,-19.5 170,-0.5 126,-0.5"/>
<text text-anchor="middle" x="148" y="-7.5" font-family="Helvetica,sans-Serif" font-size="10.00">string</text>
</a>
</g>
</g>
<!-- Node2&#45;&gt;Node10 -->
<g id="edge41" class="edge">
<title>Node2&#45;&gt;Node10</title>
<path fill="none" stroke="midnightblue" d="M318.47,-344.55C256.21,-341.93 110,-326.09 110,-235 110,-235 110,-235 110,-121 110,-86.81 126.6,-49.76 137.86,-28.57"/>
<polygon fill="midnightblue" stroke="midnightblue" points="140.95,-30.22 142.72,-19.77 134.82,-26.83 140.95,-30.22"/>
</g>
<!-- Node14 -->
<g id="node14" class="node">
<title>Node14</title>
<g id="a_node14"><a xlink:href="exceptions_8h.html" target="_top" xlink:title=" ">
<polygon fill="white" stroke="black" points="162.5,-280.5 162.5,-299.5 241.5,-299.5 241.5,-280.5 162.5,-280.5"/>
<text text-anchor="middle" x="202" y="-287.5" font-family="Helvetica,sans-Serif" font-size="10.00">exceptions.h</text>
</a>
</g>
</g>
<!-- Node2&#45;&gt;Node14 -->
<g id="edge21" class="edge">
<title>Node2&#45;&gt;Node14</title>
<path fill="none" stroke="midnightblue" d="M323.18,-336.44C299.17,-327.44 261.17,-313.19 234.13,-303.05"/>
<polygon fill="midnightblue" stroke="midnightblue" points="235.3,-299.75 224.71,-299.52 232.84,-306.3 235.3,-299.75"/>
</g>
<!-- Node16 -->
<g id="node16" class="node">
<title>Node16</title>
<g id="a_node16"><a xlink:href="Player_8h.html" target="_top" xlink:title=" ">
<polygon fill="white" stroke="black" points="469,-224.5 469,-243.5 525,-243.5 525,-224.5 469,-224.5"/>
<text text-anchor="middle" x="497" y="-231.5" font-family="Helvetica,sans-Serif" font-size="10.00">Player.h</text>
</a>
</g>
</g>
<!-- Node2&#45;&gt;Node16 -->
<g id="edge24" class="edge">
<title>Node2&#45;&gt;Node16</title>
<path fill="none" stroke="midnightblue" d="M357.85,-336.37C383.65,-317.57 445.15,-272.77 477.05,-249.53"/>
<polygon fill="midnightblue" stroke="midnightblue" points="479.18,-252.31 485.21,-243.59 475.06,-246.65 479.18,-252.31"/>
</g>
<!-- Node17 -->
<g id="node17" class="node">
<title>Node17</title>
<g id="a_node17"><a xlink:href="Enemy_8h.html" target="_top" xlink:title=" ">
<polygon fill="white" stroke="black" points="468,-280.5 468,-299.5 526,-299.5 526,-280.5 468,-280.5"/>
<text text-anchor="middle" x="497" y="-287.5" font-family="Helvetica,sans-Serif" font-size="10.00">Enemy.h</text>
</a>
</g>
</g>
<!-- Node2&#45;&gt;Node17 -->
<g id="edge30" class="edge">
<title>Node2&#45;&gt;Node17</title>
<path fill="none" stroke="midnightblue" d="M369.93,-336.44C395.22,-327.4 435.3,-313.06 463.68,-302.92"/>
<polygon fill="midnightblue" stroke="midnightblue" points="464.95,-306.18 473.19,-299.52 462.59,-299.59 464.95,-306.18"/>
</g>
<!-- Node6 -->
<g id="node6" class="node">
<title>Node6</title>
<g id="a_node6"><a xlink:href="Entity_8h.html" target="_top" xlink:title=" ">
<polygon fill="white" stroke="black" points="640.5,-112.5 640.5,-131.5 693.5,-131.5 693.5,-112.5 640.5,-112.5"/>
<text text-anchor="middle" x="667" y="-119.5" font-family="Helvetica,sans-Serif" font-size="10.00">Entity.h</text>
</a>
</g>
</g>
<!-- Node5&#45;&gt;Node6 -->
<g id="edge5" class="edge">
<title>Node5&#45;&gt;Node6</title>
<path fill="none" stroke="midnightblue" d="M583.91,-168.32C599.64,-159.74 623.94,-146.49 642.21,-136.52"/>
<polygon fill="midnightblue" stroke="midnightblue" points="644.03,-139.52 651.13,-131.65 640.68,-133.37 644.03,-139.52"/>
</g>
<!-- Node7 -->
<g id="node7" class="node">
<title>Node7</title>
<g id="a_node7"><a xlink:href="constants_8h.html" target="_top" xlink:title=" ">
<polygon fill="white" stroke="black" points="582.5,-56.5 582.5,-75.5 655.5,-75.5 655.5,-56.5 582.5,-56.5"/>
<text text-anchor="middle" x="619" y="-63.5" font-family="Helvetica,sans-Serif" font-size="10.00">constants.h</text>
</a>
</g>
</g>
<!-- Node5&#45;&gt;Node7 -->
<g id="edge16" class="edge">
<title>Node5&#45;&gt;Node7</title>
<path fill="none" stroke="midnightblue" d="M572,-168.37C580.31,-150.46 599.56,-108.92 610.68,-84.95"/>
<polygon fill="midnightblue" stroke="midnightblue" points="613.99,-86.14 615.02,-75.59 607.64,-83.19 613.99,-86.14"/>
</g>
<!-- Node5&#45;&gt;Node8 -->
<g id="edge19" class="edge">
<title>Node5&#45;&gt;Node8</title>
<path fill="none" stroke="midnightblue" d="M562.82,-168.37C551.98,-150.3 526.71,-108.18 512.38,-84.31"/>
<polygon fill="midnightblue" stroke="midnightblue" points="515.3,-82.37 507.15,-75.59 509.3,-85.97 515.3,-82.37"/>
</g>
<!-- Node5&#45;&gt;Node9 -->
<g id="edge17" class="edge">
<title>Node5&#45;&gt;Node9</title>
<path fill="none" stroke="midnightblue" d="M559.49,-168.47C542.33,-151.22 502.46,-110.88 470,-76 454.79,-59.65 437.83,-40.54 426.2,-27.29"/>
<polygon fill="midnightblue" stroke="midnightblue" points="428.62,-24.74 419.4,-19.52 423.35,-29.35 428.62,-24.74"/>
</g>
<!-- Node5&#45;&gt;Node11 -->
<g id="edge18" class="edge">
<title>Node5&#45;&gt;Node11</title>
<path fill="none" stroke="midnightblue" d="M565.38,-168.24C559.47,-146.58 547.61,-89.83 574,-56 599.53,-23.28 648.16,-13.67 682.7,-11.18"/>
<polygon fill="midnightblue" stroke="midnightblue" points="683.13,-14.67 692.93,-10.63 682.75,-7.68 683.13,-14.67"/>
</g>
<!-- Node6&#45;&gt;Node7 -->
<g id="edge6" class="edge">
<title>Node6&#45;&gt;Node7</title>
<path fill="none" stroke="midnightblue" d="M659.07,-112.08C652.15,-104.3 641.93,-92.8 633.55,-83.37"/>
<polygon fill="midnightblue" stroke="midnightblue" points="636.04,-80.9 626.78,-75.75 630.81,-85.55 636.04,-80.9"/>
</g>
<!-- Node6&#45;&gt;Node8 -->
<g id="edge7" class="edge">
<title>Node6&#45;&gt;Node8</title>
<path fill="none" stroke="midnightblue" d="M640.33,-113.83C610.75,-104.9 563.43,-89.52 532.44,-78.83"/>
<polygon fill="midnightblue" stroke="midnightblue" points="533.6,-75.52 523,-75.54 531.29,-82.13 533.6,-75.52"/>
</g>
<!-- Node6&#45;&gt;Node11 -->
<g id="edge15" class="edge">
<title>Node6&#45;&gt;Node11</title>
<path fill="none" stroke="midnightblue" d="M671.32,-112.37C680.31,-94.38 701.22,-52.55 713.19,-28.63"/>
<polygon fill="midnightblue" stroke="midnightblue" points="716.36,-30.1 717.7,-19.59 710.1,-26.97 716.36,-30.1"/>
</g>
<!-- Node6&#45;&gt;Node13 -->
<g id="edge14" class="edge">
<title>Node6&#45;&gt;Node13</title>
<path fill="none" stroke="midnightblue" d="M684.91,-112.44C703.25,-103.68 732.01,-89.94 753.09,-79.86"/>
<polygon fill="midnightblue" stroke="midnightblue" points="754.67,-82.99 762.18,-75.52 751.65,-76.67 754.67,-82.99"/>
</g>
<!-- Node8&#45;&gt;Node4 -->
<g id="edge11" class="edge">
<title>Node8&#45;&gt;Node4</title>
<path fill="none" stroke="midnightblue" d="M525.67,-62.01C539.71,-60.24 557.87,-57.97 574,-56 696.15,-41.1 840.57,-24.07 910.25,-15.89"/>
<polygon fill="midnightblue" stroke="midnightblue" points="910.86,-19.34 920.38,-14.7 910.04,-12.39 910.86,-19.34"/>
</g>
<!-- Node8&#45;&gt;Node6 -->
<g id="edge13" class="edge">
<title>Node8&#45;&gt;Node6</title>
<path fill="none" stroke="midnightblue" d="M525.59,-73.24C554.75,-81.97 604.08,-97.98 636.18,-109.04"/>
<polygon fill="midnightblue" stroke="midnightblue" points="635.35,-112.46 645.94,-112.44 637.65,-105.85 635.35,-112.46"/>
</g>
<!-- Node8&#45;&gt;Node9 -->
<g id="edge8" class="edge">
<title>Node8&#45;&gt;Node9</title>
<path fill="none" stroke="midnightblue" d="M487.54,-56.32C473.5,-47.9 451.95,-34.97 435.46,-25.07"/>
<polygon fill="midnightblue" stroke="midnightblue" points="436.8,-21.8 426.42,-19.65 433.2,-27.8 436.8,-21.8"/>
</g>
<!-- Node8&#45;&gt;Node10 -->
<g id="edge9" class="edge">
<title>Node8&#45;&gt;Node10</title>
<path fill="none" stroke="midnightblue" d="M478.5,-61.42C416.96,-52.03 250.97,-26.71 180.43,-15.95"/>
<polygon fill="midnightblue" stroke="midnightblue" points="180.76,-12.46 170.35,-14.41 179.7,-19.38 180.76,-12.46"/>
</g>
<!-- Node8&#45;&gt;Node11 -->
<g id="edge10" class="edge">
<title>Node8&#45;&gt;Node11</title>
<path fill="none" stroke="midnightblue" d="M525.54,-59.22C563.16,-49.99 637.21,-31.81 682.88,-20.6"/>
<polygon fill="midnightblue" stroke="midnightblue" points="683.84,-23.97 692.72,-18.19 682.18,-17.17 683.84,-23.97"/>
</g>
<!-- Node12 -->
<g id="node12" class="node">
<title>Node12</title>
<g id="a_node12"><a xlink:title=" ">
<polygon fill="white" stroke="#bfbfbf" points="469.5,-0.5 469.5,-19.5 534.5,-19.5 534.5,-0.5 469.5,-0.5"/>
<text text-anchor="middle" x="502" y="-7.5" font-family="Helvetica,sans-Serif" font-size="10.00">functional</text>
</a>
</g>
</g>
<!-- Node8&#45;&gt;Node12 -->
<g id="edge12" class="edge">
<title>Node8&#45;&gt;Node12</title>
<path fill="none" stroke="midnightblue" d="M502,-56.08C502,-49.01 502,-38.86 502,-29.99"/>
<polygon fill="midnightblue" stroke="midnightblue" points="505.5,-29.75 502,-19.75 498.5,-29.75 505.5,-29.75"/>
</g>
<!-- Node14&#45;&gt;Node10 -->
<g id="edge22" class="edge">
<title>Node14&#45;&gt;Node10</title>
<path fill="none" stroke="midnightblue" d="M193.67,-280.39C185.78,-271.8 174.12,-257.92 167,-244 153.3,-217.2 148,-209.1 148,-179 148,-179 148,-179 148,-121 148,-88.95 148,-51.64 148,-29.75"/>
<polygon fill="midnightblue" stroke="midnightblue" points="151.5,-29.56 148,-19.56 144.5,-29.56 151.5,-29.56"/>
</g>
<!-- Node15 -->
<g id="node15" class="node">
<title>Node15</title>
<g id="a_node15"><a xlink:title=" ">
<polygon fill="white" stroke="#bfbfbf" points="176.5,-224.5 176.5,-243.5 241.5,-243.5 241.5,-224.5 176.5,-224.5"/>
<text text-anchor="middle" x="209" y="-231.5" font-family="Helvetica,sans-Serif" font-size="10.00">exception</text>
</a>
</g>
</g>
<!-- Node14&#45;&gt;Node15 -->
<g id="edge23" class="edge">
<title>Node14&#45;&gt;Node15</title>
<path fill="none" stroke="midnightblue" d="M203.16,-280.08C204.08,-272.93 205.42,-262.64 206.58,-253.69"/>
<polygon fill="midnightblue" stroke="midnightblue" points="210.05,-254.12 207.87,-243.75 203.11,-253.22 210.05,-254.12"/>
</g>
<!-- Node16&#45;&gt;Node5 -->
<g id="edge26" class="edge">
<title>Node16&#45;&gt;Node5</title>
<path fill="none" stroke="midnightblue" d="M508.41,-224.32C519.11,-216.18 535.34,-203.84 548.16,-194.09"/>
<polygon fill="midnightblue" stroke="midnightblue" points="550.54,-196.67 556.39,-187.83 546.31,-191.1 550.54,-196.67"/>
</g>
<!-- Node16&#45;&gt;Node6 -->
<g id="edge25" class="edge">
<title>Node16&#45;&gt;Node6</title>
<path fill="none" stroke="midnightblue" d="M525.29,-225.78C549.32,-218.75 583.96,-206.39 610,-188 628.5,-174.93 645,-154.68 655.43,-140.25"/>
<polygon fill="midnightblue" stroke="midnightblue" points="658.51,-141.96 661.36,-131.75 652.77,-137.95 658.51,-141.96"/>
</g>
<!-- Node16&#45;&gt;Node8 -->
<g id="edge29" class="edge">
<title>Node16&#45;&gt;Node8</title>
<path fill="none" stroke="midnightblue" d="M497.27,-224.08C498.06,-197.95 500.37,-121.21 501.44,-85.58"/>
<polygon fill="midnightblue" stroke="midnightblue" points="504.94,-85.67 501.74,-75.57 497.94,-85.46 504.94,-85.67"/>
</g>
<!-- Node16&#45;&gt;Node9 -->
<g id="edge28" class="edge">
<title>Node16&#45;&gt;Node9</title>
<path fill="none" stroke="midnightblue" d="M493.67,-224.3C481.11,-191.49 436.46,-74.88 419.04,-29.38"/>
<polygon fill="midnightblue" stroke="midnightblue" points="422.25,-27.97 415.4,-19.88 415.71,-30.47 422.25,-27.97"/>
</g>
<!-- Node16&#45;&gt;Node11 -->
<g id="edge27" class="edge">
<title>Node16&#45;&gt;Node11</title>
<path fill="none" stroke="midnightblue" d="M525.25,-226.92C553.83,-220.05 598.73,-207.25 634,-188 668.67,-169.08 683.29,-166.23 703,-132 721.59,-99.71 723.63,-54.92 723.07,-29.88"/>
<polygon fill="midnightblue" stroke="midnightblue" points="726.56,-29.45 722.66,-19.6 719.56,-29.73 726.56,-29.45"/>
</g>
<!-- Node17&#45;&gt;Node4 -->
<g id="edge39" class="edge">
<title>Node17&#45;&gt;Node4</title>
<path fill="none" stroke="midnightblue" d="M526.01,-286.98C596.36,-281.79 774.28,-266.74 829,-244 872.92,-225.75 914,-226.56 914,-179 914,-179 914,-179 914,-121 914,-86.81 930.6,-49.76 941.86,-28.57"/>
<polygon fill="midnightblue" stroke="midnightblue" points="944.95,-30.22 946.72,-19.77 938.82,-26.83 944.95,-30.22"/>
</g>
<!-- Node17&#45;&gt;Node8 -->
<g id="edge36" class="edge">
<title>Node17&#45;&gt;Node8</title>
<path fill="none" stroke="midnightblue" d="M486.56,-280.24C477.58,-271.97 465.25,-258.66 460,-244 439.63,-187.15 473.12,-116.47 491.38,-84.34"/>
<polygon fill="midnightblue" stroke="midnightblue" points="494.43,-86.06 496.48,-75.67 488.39,-82.52 494.43,-86.06"/>
</g>
<!-- Node17&#45;&gt;Node9 -->
<g id="edge38" class="edge">
<title>Node17&#45;&gt;Node9</title>
<path fill="none" stroke="midnightblue" d="M467.89,-281.95C424.01,-269.4 346,-238.68 346,-179 346,-179 346,-179 346,-121 346,-82.86 375.54,-46.52 395.09,-26.64"/>
<polygon fill="midnightblue" stroke="midnightblue" points="397.56,-29.12 402.26,-19.63 392.67,-24.12 397.56,-29.12"/>
</g>
<!-- Node17&#45;&gt;Node11 -->
<g id="edge37" class="edge">
<title>Node17&#45;&gt;Node11</title>
<path fill="none" stroke="midnightblue" d="M526.11,-286.86C614.86,-279.53 876,-251.8 876,-179 876,-179 876,-179 876,-121 876,-64.52 806.57,-34.3 760.95,-20.53"/>
<polygon fill="midnightblue" stroke="midnightblue" points="761.91,-17.16 751.33,-17.76 759.97,-23.89 761.91,-17.16"/>
</g>
<!-- Node17&#45;&gt;Node16 -->
<g id="edge31" class="edge">
<title>Node17&#45;&gt;Node16</title>
<path fill="none" stroke="midnightblue" d="M497,-280.08C497,-273.01 497,-262.86 497,-253.99"/>
<polygon fill="midnightblue" stroke="midnightblue" points="500.5,-253.75 497,-243.75 493.5,-253.75 500.5,-253.75"/>
</g>
<!-- Node18 -->
<g id="node18" class="node">
<title>Node18</title>
<g id="a_node18"><a xlink:href="Tower_8h.html" target="_top" xlink:title=" ">
<polygon fill="white" stroke="black" points="554.5,-224.5 554.5,-243.5 607.5,-243.5 607.5,-224.5 554.5,-224.5"/>
<text text-anchor="middle" x="581" y="-231.5" font-family="Helvetica,sans-Serif" font-size="10.00">Tower.h</text>
</a>
</g>
</g>
<!-- Node17&#45;&gt;Node18 -->
<g id="edge32" class="edge">
<title>Node17&#45;&gt;Node18</title>
<path fill="none" stroke="midnightblue" d="M510.5,-280.32C523.6,-271.9 543.71,-258.97 559.11,-249.07"/>
<polygon fill="midnightblue" stroke="midnightblue" points="561.02,-252.01 567.54,-243.65 557.23,-246.12 561.02,-252.01"/>
</g>
<!-- Node18&#45;&gt;Node5 -->
<g id="edge34" class="edge">
<title>Node18&#45;&gt;Node5</title>
<path fill="none" stroke="midnightblue" d="M578.85,-224.08C577.13,-216.93 574.65,-206.64 572.5,-197.69"/>
<polygon fill="midnightblue" stroke="midnightblue" points="575.85,-196.65 570.11,-187.75 569.04,-198.29 575.85,-196.65"/>
</g>
<!-- Node18&#45;&gt;Node6 -->
<g id="edge33" class="edge">
<title>Node18&#45;&gt;Node6</title>
<path fill="none" stroke="midnightblue" d="M603.96,-224.37C620.13,-217.1 640.97,-205.13 653,-188 662.43,-174.57 665.71,-156 666.75,-142.15"/>
<polygon fill="midnightblue" stroke="midnightblue" points="670.26,-141.98 667.19,-131.84 663.27,-141.68 670.26,-141.98"/>
</g>
<!-- Node18&#45;&gt;Node11 -->
<g id="edge35" class="edge">
<title>Node18&#45;&gt;Node11</title>
<path fill="none" stroke="midnightblue" d="M607.78,-225.23C660.43,-208.28 776.02,-162.43 819,-76 833.11,-47.62 793.82,-29.67 761.08,-19.98"/>
<polygon fill="midnightblue" stroke="midnightblue" points="761.77,-16.54 751.2,-17.24 759.9,-23.29 761.77,-16.54"/>
</g>
</g>
</svg>
