<?xml version="1.0" encoding="UTF-8" standalone="no"?>
<!DOCTYPE svg PUBLIC "-//W3C//DTD SVG 1.1//EN"
 "http://www.w3.org/Graphics/SVG/1.1/DTD/svg11.dtd">
<!-- Generated by graphviz version 2.43.0 (0)
 -->
<!-- Title: src/Game.cpp Pages: 1 -->
<svg width="1838pt" height="476pt"
 viewBox="0.00 0.00 1838.00 476.00" xmlns="http://www.w3.org/2000/svg" xmlns:xlink="http://www.w3.org/1999/xlink">
<g id="graph0" class="graph" transform="scale(1 1) rotate(0) translate(4 472)">
<title>src/Game.cpp</title>
<polygon fill="white" stroke="transparent" points="-4,4 -4,-472 1834,-472 1834,4 -4,4"/>
<!-- Node1 -->
<g id="node1" class="node">
<title>Node1</title>
<g id="a_node1"><a xlink:title=" ">
<polygon fill="#bfbfbf" stroke="black" points="864.5,-448.5 864.5,-467.5 947.5,-467.5 947.5,-448.5 864.5,-448.5"/>
<text text-anchor="middle" x="906" y="-455.5" font-family="Helvetica,sans-Serif" font-size="10.00">src/Game.cpp</text>
</a>
</g>
</g>
<!-- Node2 -->
<g id="node2" class="node">
<title>Node2</title>
<g id="a_node2"><a xlink:href="Game_8h.html" target="_top" xlink:title=" ">
<polygon fill="white" stroke="black" points="878.5,-392.5 878.5,-411.5 933.5,-411.5 933.5,-392.5 878.5,-392.5"/>
<text text-anchor="middle" x="906" y="-399.5" font-family="Helvetica,sans-Serif" font-size="10.00">Game.h</text>
</a>
</g>
</g>
<!-- Node1&#45;&gt;Node2 -->
<g id="edge1" class="edge">
<title>Node1&#45;&gt;Node2</title>
<path fill="none" stroke="midnightblue" d="M906,-448.08C906,-441.01 906,-430.86 906,-421.99"/>
<polygon fill="midnightblue" stroke="midnightblue" points="909.5,-421.75 906,-411.75 902.5,-421.75 909.5,-421.75"/>
</g>
<!-- Node3 -->
<g id="node3" class="node">
<title>Node3</title>
<g id="a_node3"><a xlink:href="HelpStructs_8h.html" target="_top" xlink:title=" ">
<polygon fill="white" stroke="black" points="570,-112.5 570,-131.5 652,-131.5 652,-112.5 570,-112.5"/>
<text text-anchor="middle" x="611" y="-119.5" font-family="Helvetica,sans-Serif" font-size="10.00">HelpStructs.h</text>
</a>
</g>
</g>
<!-- Node2&#45;&gt;Node3 -->
<g id="edge2" class="edge">
<title>Node2&#45;&gt;Node3</title>
<path fill="none" stroke="midnightblue" d="M878.4,-401.83C816.81,-402.77 664.32,-400.04 547,-356 505.34,-340.36 492.87,-333.86 464,-300 424.15,-253.25 384.95,-216.23 423,-168 439.77,-146.74 510.11,-134.4 559.81,-128.18"/>
<polygon fill="midnightblue" stroke="midnightblue" points="560.26,-131.66 569.77,-126.99 559.42,-124.71 560.26,-131.66"/>
</g>
<!-- Node4 -->
<g id="node4" class="node">
<title>Node4</title>
<g id="a_node4"><a xlink:href="Attacker_8h.html" target="_top" xlink:title=" ">
<polygon fill="white" stroke="black" points="898.5,-224.5 898.5,-243.5 963.5,-243.5 963.5,-224.5 898.5,-224.5"/>
<text text-anchor="middle" x="931" y="-231.5" font-family="Helvetica,sans-Serif" font-size="10.00">Attacker.h</text>
</a>
</g>
</g>
<!-- Node2&#45;&gt;Node4 -->
<g id="edge3" class="edge">
<title>Node2&#45;&gt;Node4</title>
<path fill="none" stroke="midnightblue" d="M878.29,-395.75C813.19,-382.22 659.73,-342.81 711,-280 732.93,-253.13 830.65,-241.87 888.21,-237.51"/>
<polygon fill="midnightblue" stroke="midnightblue" points="888.74,-240.98 898.47,-236.77 888.24,-234 888.74,-240.98"/>
</g>
<!-- Node7 -->
<g id="node7" class="node">
<title>Node7</title>
<g id="a_node7"><a xlink:href="Map_8h.html" target="_top" xlink:title=" ">
<polygon fill="white" stroke="black" points="1006.5,-112.5 1006.5,-131.5 1053.5,-131.5 1053.5,-112.5 1006.5,-112.5"/>
<text text-anchor="middle" x="1030" y="-119.5" font-family="Helvetica,sans-Serif" font-size="10.00">Map.h</text>
</a>
</g>
</g>
<!-- Node2&#45;&gt;Node7 -->
<g id="edge39" class="edge">
<title>Node2&#45;&gt;Node7</title>
<path fill="none" stroke="midnightblue" d="M933.78,-400.99C1040.21,-400.24 1416,-390.52 1416,-291 1416,-291 1416,-291 1416,-233 1416,-160.03 1157.67,-132.83 1063.68,-125.35"/>
<polygon fill="midnightblue" stroke="midnightblue" points="1063.8,-121.85 1053.56,-124.57 1063.27,-128.83 1063.8,-121.85"/>
</g>
<!-- Node8 -->
<g id="node8" class="node">
<title>Node8</title>
<g id="a_node8"><a xlink:title=" ">
<polygon fill="white" stroke="#bfbfbf" points="306.5,-56.5 306.5,-75.5 353.5,-75.5 353.5,-56.5 306.5,-56.5"/>
<text text-anchor="middle" x="330" y="-63.5" font-family="Helvetica,sans-Serif" font-size="10.00">vector</text>
</a>
</g>
</g>
<!-- Node2&#45;&gt;Node8 -->
<g id="edge78" class="edge">
<title>Node2&#45;&gt;Node8</title>
<path fill="none" stroke="midnightblue" d="M878.21,-400.88C763.29,-400.11 324.97,-394.67 193,-356 135.91,-339.27 76,-350.49 76,-291 76,-291 76,-291 76,-177 76,-146.9 72.73,-132.25 95,-112 124.08,-85.56 238.56,-73.62 296.31,-69.19"/>
<polygon fill="midnightblue" stroke="midnightblue" points="296.68,-72.67 306.4,-68.45 296.17,-65.69 296.68,-72.67"/>
</g>
<!-- Node9 -->
<g id="node9" class="node">
<title>Node9</title>
<g id="a_node9"><a xlink:title=" ">
<polygon fill="white" stroke="#bfbfbf" points="303,-0.5 303,-19.5 347,-19.5 347,-0.5 303,-0.5"/>
<text text-anchor="middle" x="325" y="-7.5" font-family="Helvetica,sans-Serif" font-size="10.00">string</text>
</a>
</g>
</g>
<!-- Node2&#45;&gt;Node9 -->
<g id="edge79" class="edge">
<title>Node2&#45;&gt;Node9</title>
<path fill="none" stroke="midnightblue" d="M878.44,-401.32C754.82,-402.46 251.04,-404.01 102,-356 50.83,-339.52 0,-344.76 0,-291 0,-291 0,-291 0,-121 0,-59.58 210.88,-25.74 292.9,-14.89"/>
<polygon fill="midnightblue" stroke="midnightblue" points="293.45,-18.35 302.92,-13.6 292.55,-11.41 293.45,-18.35"/>
</g>
<!-- Node10 -->
<g id="node10" class="node">
<title>Node10</title>
<g id="a_node10"><a xlink:title=" ">
<polygon fill="white" stroke="#bfbfbf" points="1349,-56.5 1349,-75.5 1407,-75.5 1407,-56.5 1349,-56.5"/>
<text text-anchor="middle" x="1378" y="-63.5" font-family="Helvetica,sans-Serif" font-size="10.00">memory</text>
</a>
</g>
</g>
<!-- Node2&#45;&gt;Node10 -->
<g id="edge83" class="edge">
<title>Node2&#45;&gt;Node10</title>
<path fill="none" stroke="midnightblue" d="M933.52,-399.95C1027.68,-396.16 1336.49,-381.98 1432,-356 1496.64,-338.42 1568,-357.99 1568,-291 1568,-291 1568,-291 1568,-177 1568,-107.93 1472.79,-81.52 1417.16,-71.99"/>
<polygon fill="midnightblue" stroke="midnightblue" points="1417.7,-68.53 1407.27,-70.4 1416.59,-75.45 1417.7,-68.53"/>
</g>
<!-- Node11 -->
<g id="node11" class="node">
<title>Node11</title>
<g id="a_node11"><a xlink:title=" ">
<polygon fill="white" stroke="#bfbfbf" points="724.5,-56.5 724.5,-75.5 787.5,-75.5 787.5,-56.5 724.5,-56.5"/>
<text text-anchor="middle" x="756" y="-63.5" font-family="Helvetica,sans-Serif" font-size="10.00">ncurses.h</text>
</a>
</g>
</g>
<!-- Node2&#45;&gt;Node11 -->
<g id="edge81" class="edge">
<title>Node2&#45;&gt;Node11</title>
<path fill="none" stroke="midnightblue" d="M878.46,-396.62C806.07,-384.35 616,-346.8 616,-291 616,-291 616,-291 616,-233 616,-213.9 703.75,-121 740.31,-83.12"/>
<polygon fill="midnightblue" stroke="midnightblue" points="743.22,-85.15 747.66,-75.53 738.19,-80.28 743.22,-85.15"/>
</g>
<!-- Node14 -->
<g id="node14" class="node">
<title>Node14</title>
<g id="a_node14"><a xlink:href="Definitions_8h.html" target="_top" xlink:title=" ">
<polygon fill="white" stroke="black" points="1156,-56.5 1156,-75.5 1234,-75.5 1234,-56.5 1156,-56.5"/>
<text text-anchor="middle" x="1195" y="-63.5" font-family="Helvetica,sans-Serif" font-size="10.00">Definitions.h</text>
</a>
</g>
</g>
<!-- Node2&#45;&gt;Node14 -->
<g id="edge70" class="edge">
<title>Node2&#45;&gt;Node14</title>
<path fill="none" stroke="midnightblue" d="M933.59,-399.83C1021.11,-395.9 1291.62,-381.92 1375,-356 1431.8,-338.34 1492,-350.49 1492,-291 1492,-291 1492,-291 1492,-177 1492,-124.76 1328.36,-89.46 1244.01,-74.74"/>
<polygon fill="midnightblue" stroke="midnightblue" points="1244.58,-71.29 1234.13,-73.05 1243.4,-78.19 1244.58,-71.29"/>
</g>
<!-- Node18 -->
<g id="node18" class="node">
<title>Node18</title>
<g id="a_node18"><a xlink:title=" ">
<polygon fill="white" stroke="#bfbfbf" points="1264,-0.5 1264,-19.5 1324,-19.5 1324,-0.5 1264,-0.5"/>
<text text-anchor="middle" x="1294" y="-7.5" font-family="Helvetica,sans-Serif" font-size="10.00">iostream</text>
</a>
</g>
</g>
<!-- Node2&#45;&gt;Node18 -->
<g id="edge82" class="edge">
<title>Node2&#45;&gt;Node18</title>
<path fill="none" stroke="midnightblue" d="M933.58,-400.62C1035.78,-398.97 1392.5,-390.77 1500,-356 1552.58,-338.99 1606,-346.26 1606,-291 1606,-291 1606,-291 1606,-121 1606,-64 1418.47,-29.27 1334.19,-16.53"/>
<polygon fill="midnightblue" stroke="midnightblue" points="1334.6,-13.06 1324.2,-15.05 1333.58,-19.98 1334.6,-13.06"/>
</g>
<!-- Node20 -->
<g id="node20" class="node">
<title>Node20</title>
<g id="a_node20"><a xlink:href="exceptions_8h.html" target="_top" xlink:title=" ">
<polygon fill="white" stroke="black" points="432.5,-168.5 432.5,-187.5 511.5,-187.5 511.5,-168.5 432.5,-168.5"/>
<text text-anchor="middle" x="472" y="-175.5" font-family="Helvetica,sans-Serif" font-size="10.00">exceptions.h</text>
</a>
</g>
</g>
<!-- Node2&#45;&gt;Node20 -->
<g id="edge40" class="edge">
<title>Node2&#45;&gt;Node20</title>
<path fill="none" stroke="midnightblue" d="M878.46,-401.18C823.72,-400.62 698.24,-394.81 602,-356 522.51,-323.94 484.24,-320.2 445,-244 436.74,-227.96 446.99,-208.8 457.15,-195.45"/>
<polygon fill="midnightblue" stroke="midnightblue" points="459.95,-197.56 463.61,-187.61 454.55,-193.1 459.95,-197.56"/>
</g>
<!-- Node25 -->
<g id="node25" class="node">
<title>Node25</title>
<g id="a_node25"><a xlink:href="Player_8h.html" target="_top" xlink:title=" ">
<polygon fill="white" stroke="black" points="1058,-280.5 1058,-299.5 1114,-299.5 1114,-280.5 1058,-280.5"/>
<text text-anchor="middle" x="1086" y="-287.5" font-family="Helvetica,sans-Serif" font-size="10.00">Player.h</text>
</a>
</g>
</g>
<!-- Node2&#45;&gt;Node25 -->
<g id="edge41" class="edge">
<title>Node2&#45;&gt;Node25</title>
<path fill="none" stroke="midnightblue" d="M920.12,-392.37C951.14,-373.41 1025.45,-328 1063.19,-304.94"/>
<polygon fill="midnightblue" stroke="midnightblue" points="1065.23,-307.79 1071.94,-299.59 1061.58,-301.82 1065.23,-307.79"/>
</g>
<!-- Node27 -->
<g id="node27" class="node">
<title>Node27</title>
<g id="a_node27"><a xlink:href="Enemy_8h.html" target="_top" xlink:title=" ">
<polygon fill="white" stroke="black" points="877,-336.5 877,-355.5 935,-355.5 935,-336.5 877,-336.5"/>
<text text-anchor="middle" x="906" y="-343.5" font-family="Helvetica,sans-Serif" font-size="10.00">Enemy.h</text>
</a>
</g>
</g>
<!-- Node2&#45;&gt;Node27 -->
<g id="edge51" class="edge">
<title>Node2&#45;&gt;Node27</title>
<path fill="none" stroke="midnightblue" d="M906,-392.08C906,-385.01 906,-374.86 906,-365.99"/>
<polygon fill="midnightblue" stroke="midnightblue" points="909.5,-365.75 906,-355.75 902.5,-365.75 909.5,-365.75"/>
</g>
<!-- Node32 -->
<g id="node32" class="node">
<title>Node32</title>
<g id="a_node32"><a xlink:href="Menu_8h.html" target="_top" xlink:title=" ">
<polygon fill="white" stroke="black" points="322.5,-168.5 322.5,-187.5 375.5,-187.5 375.5,-168.5 322.5,-168.5"/>
<text text-anchor="middle" x="349" y="-175.5" font-family="Helvetica,sans-Serif" font-size="10.00">Menu.h</text>
</a>
</g>
</g>
<!-- Node2&#45;&gt;Node32 -->
<g id="edge71" class="edge">
<title>Node2&#45;&gt;Node32</title>
<path fill="none" stroke="midnightblue" d="M878.18,-400.64C773.99,-399.01 410.87,-390.87 374,-356 330.25,-314.63 338.45,-234.31 344.99,-197.84"/>
<polygon fill="midnightblue" stroke="midnightblue" points="348.5,-198.12 346.99,-187.64 341.63,-196.78 348.5,-198.12"/>
</g>
<!-- Node33 -->
<g id="node33" class="node">
<title>Node33</title>
<g id="a_node33"><a xlink:title=" ">
<polygon fill="white" stroke="#bfbfbf" points="104,-112.5 104,-131.5 240,-131.5 240,-112.5 104,-112.5"/>
<text text-anchor="middle" x="172" y="-119.5" font-family="Helvetica,sans-Serif" font-size="10.00">experimental/filesystem</text>
</a>
</g>
</g>
<!-- Node2&#45;&gt;Node33 -->
<g id="edge85" class="edge">
<title>Node2&#45;&gt;Node33</title>
<path fill="none" stroke="midnightblue" d="M878.28,-400.13C738.1,-395.39 114,-369.87 114,-291 114,-291 114,-291 114,-233 114,-196.16 139.77,-159.57 156.95,-139.25"/>
<polygon fill="midnightblue" stroke="midnightblue" points="159.71,-141.41 163.69,-131.59 154.46,-136.79 159.71,-141.41"/>
</g>
<!-- Node34 -->
<g id="node34" class="node">
<title>Node34</title>
<g id="a_node34"><a xlink:title=" ">
<polygon fill="white" stroke="#bfbfbf" points="1634,-336.5 1634,-355.5 1684,-355.5 1684,-336.5 1634,-336.5"/>
<text text-anchor="middle" x="1659" y="-343.5" font-family="Helvetica,sans-Serif" font-size="10.00">cstring</text>
</a>
</g>
</g>
<!-- Node2&#45;&gt;Node34 -->
<g id="edge80" class="edge">
<title>Node2&#45;&gt;Node34</title>
<path fill="none" stroke="midnightblue" d="M933.74,-400.88C1029.49,-400.13 1354.84,-394.69 1620,-356 1621.28,-355.81 1622.57,-355.61 1623.88,-355.38"/>
<polygon fill="midnightblue" stroke="midnightblue" points="1624.8,-358.77 1633.94,-353.42 1623.45,-351.9 1624.8,-358.77"/>
</g>
<!-- Node35 -->
<g id="node35" class="node">
<title>Node35</title>
<g id="a_node35"><a xlink:title=" ">
<polygon fill="white" stroke="#bfbfbf" points="1702,-336.5 1702,-355.5 1768,-355.5 1768,-336.5 1702,-336.5"/>
<text text-anchor="middle" x="1735" y="-343.5" font-family="Helvetica,sans-Serif" font-size="10.00">sys/ioctl.h</text>
</a>
</g>
</g>
<!-- Node2&#45;&gt;Node35 -->
<g id="edge84" class="edge">
<title>Node2&#45;&gt;Node35</title>
<path fill="none" stroke="midnightblue" d="M933.68,-400.95C1034.21,-400.47 1389.57,-395.95 1691.35,-356.01"/>
<polygon fill="midnightblue" stroke="midnightblue" points="1692.16,-359.44 1701.61,-354.64 1691.23,-352.5 1692.16,-359.44"/>
</g>
<!-- Node36 -->
<g id="node36" class="node">
<title>Node36</title>
<g id="a_node36"><a xlink:title=" ">
<polygon fill="white" stroke="#bfbfbf" points="1786,-336.5 1786,-355.5 1830,-355.5 1830,-336.5 1786,-336.5"/>
<text text-anchor="middle" x="1808" y="-343.5" font-family="Helvetica,sans-Serif" font-size="10.00">ctime</text>
</a>
</g>
</g>
<!-- Node2&#45;&gt;Node36 -->
<g id="edge86" class="edge">
<title>Node2&#45;&gt;Node36</title>
<path fill="none" stroke="midnightblue" d="M933.83,-400.43C1061.15,-397.67 1589.45,-384.81 1775.85,-355.73"/>
<polygon fill="midnightblue" stroke="midnightblue" points="1776.49,-359.18 1785.79,-354.11 1775.36,-352.27 1776.49,-359.18"/>
</g>
<!-- Node4&#45;&gt;Node3 -->
<g id="edge31" class="edge">
<title>Node4&#45;&gt;Node3</title>
<path fill="none" stroke="midnightblue" d="M898.47,-224.69C867.6,-216.48 820.09,-203.01 780,-188 759.88,-180.47 755.9,-176.09 736,-168 706.01,-155.81 671.33,-143.46 646.11,-134.79"/>
<polygon fill="midnightblue" stroke="midnightblue" points="647.2,-131.46 636.61,-131.54 644.94,-138.08 647.2,-131.46"/>
</g>
<!-- Node5 -->
<g id="node5" class="node">
<title>Node5</title>
<g id="a_node5"><a xlink:href="Entity_8h.html" target="_top" xlink:title=" ">
<polygon fill="white" stroke="black" points="1002.5,-168.5 1002.5,-187.5 1055.5,-187.5 1055.5,-168.5 1002.5,-168.5"/>
<text text-anchor="middle" x="1029" y="-175.5" font-family="Helvetica,sans-Serif" font-size="10.00">Entity.h</text>
</a>
</g>
</g>
<!-- Node4&#45;&gt;Node5 -->
<g id="edge4" class="edge">
<title>Node4&#45;&gt;Node5</title>
<path fill="none" stroke="midnightblue" d="M946.75,-224.32C962.32,-215.74 986.38,-202.49 1004.46,-192.52"/>
<polygon fill="midnightblue" stroke="midnightblue" points="1006.22,-195.55 1013.29,-187.65 1002.85,-189.42 1006.22,-195.55"/>
</g>
<!-- Node6 -->
<g id="node6" class="node">
<title>Node6</title>
<g id="a_node6"><a xlink:href="constants_8h.html" target="_top" xlink:title=" ">
<polygon fill="white" stroke="black" points="885.5,-0.5 885.5,-19.5 958.5,-19.5 958.5,-0.5 885.5,-0.5"/>
<text text-anchor="middle" x="922" y="-7.5" font-family="Helvetica,sans-Serif" font-size="10.00">constants.h</text>
</a>
</g>
</g>
<!-- Node4&#45;&gt;Node6 -->
<g id="edge26" class="edge">
<title>Node4&#45;&gt;Node6</title>
<path fill="none" stroke="midnightblue" d="M930.65,-224.3C929.32,-191.63 924.63,-75.87 922.77,-29.96"/>
<polygon fill="midnightblue" stroke="midnightblue" points="926.26,-29.73 922.36,-19.88 919.27,-30.02 926.26,-29.73"/>
</g>
<!-- Node4&#45;&gt;Node7 -->
<g id="edge27" class="edge">
<title>Node4&#45;&gt;Node7</title>
<path fill="none" stroke="midnightblue" d="M938.77,-224.37C955.32,-205.97 994.3,-162.67 1015.55,-139.05"/>
<polygon fill="midnightblue" stroke="midnightblue" points="1018.18,-141.37 1022.27,-131.59 1012.98,-136.68 1018.18,-141.37"/>
</g>
<!-- Node4&#45;&gt;Node8 -->
<g id="edge33" class="edge">
<title>Node4&#45;&gt;Node8</title>
<path fill="none" stroke="midnightblue" d="M912.53,-224.36C855.96,-197.92 687.24,-119.49 661,-112 555.26,-81.8 424.57,-71.65 363.9,-68.42"/>
<polygon fill="midnightblue" stroke="midnightblue" points="363.91,-64.91 353.75,-67.91 363.56,-71.9 363.91,-64.91"/>
</g>
<!-- Node4&#45;&gt;Node10 -->
<g id="edge35" class="edge">
<title>Node4&#45;&gt;Node10</title>
<path fill="none" stroke="midnightblue" d="M963.66,-225.26C996.65,-217.13 1048.91,-203.41 1093,-188 1105.91,-183.49 1278.37,-109.7 1348.58,-79.61"/>
<polygon fill="midnightblue" stroke="midnightblue" points="1350.35,-82.66 1358.16,-75.51 1347.59,-76.23 1350.35,-82.66"/>
</g>
<!-- Node4&#45;&gt;Node14 -->
<g id="edge32" class="edge">
<title>Node4&#45;&gt;Node14</title>
<path fill="none" stroke="midnightblue" d="M963.51,-226.2C991.71,-219.36 1032.94,-207.07 1065,-188 1113.8,-158.96 1159.67,-109.08 1181.57,-83.37"/>
<polygon fill="midnightblue" stroke="midnightblue" points="1184.3,-85.56 1188.04,-75.64 1178.94,-81.06 1184.3,-85.56"/>
</g>
<!-- Node19 -->
<g id="node19" class="node">
<title>Node19</title>
<g id="a_node19"><a xlink:title=" ">
<polygon fill="white" stroke="#bfbfbf" points="822,-112.5 822,-131.5 854,-131.5 854,-112.5 822,-112.5"/>
<text text-anchor="middle" x="838" y="-119.5" font-family="Helvetica,sans-Serif" font-size="10.00">set</text>
</a>
</g>
</g>
<!-- Node4&#45;&gt;Node19 -->
<g id="edge34" class="edge">
<title>Node4&#45;&gt;Node19</title>
<path fill="none" stroke="midnightblue" d="M904.71,-224.48C887.15,-217.44 864.97,-205.69 852,-188 842.3,-174.76 839.05,-156.18 838.09,-142.27"/>
<polygon fill="midnightblue" stroke="midnightblue" points="841.57,-141.78 837.72,-131.91 834.58,-142.02 841.57,-141.78"/>
</g>
<!-- Node4&#45;&gt;Node20 -->
<g id="edge28" class="edge">
<title>Node4&#45;&gt;Node20</title>
<path fill="none" stroke="midnightblue" d="M898.36,-229.16C819.1,-219.84 616.08,-195.95 521.66,-184.84"/>
<polygon fill="midnightblue" stroke="midnightblue" points="521.86,-181.34 511.51,-183.65 521.04,-188.29 521.86,-181.34"/>
</g>
<!-- Node22 -->
<g id="node22" class="node">
<title>Node22</title>
<g id="a_node22"><a xlink:title=" ">
<polygon fill="white" stroke="#bfbfbf" points="1150.5,-168.5 1150.5,-187.5 1197.5,-187.5 1197.5,-168.5 1150.5,-168.5"/>
<text text-anchor="middle" x="1174" y="-175.5" font-family="Helvetica,sans-Serif" font-size="10.00">queue</text>
</a>
</g>
</g>
<!-- Node4&#45;&gt;Node22 -->
<g id="edge36" class="edge">
<title>Node4&#45;&gt;Node22</title>
<path fill="none" stroke="midnightblue" d="M963.7,-226C1004.19,-217.28 1075.25,-201.86 1136,-188 1137.45,-187.67 1138.92,-187.33 1140.41,-186.99"/>
<polygon fill="midnightblue" stroke="midnightblue" points="1141.36,-190.36 1150.3,-184.68 1139.76,-183.54 1141.36,-190.36"/>
</g>
<!-- Node23 -->
<g id="node23" class="node">
<title>Node23</title>
<g id="a_node23"><a xlink:title=" ">
<polygon fill="white" stroke="#bfbfbf" points="860.5,-168.5 860.5,-187.5 907.5,-187.5 907.5,-168.5 860.5,-168.5"/>
<text text-anchor="middle" x="884" y="-175.5" font-family="Helvetica,sans-Serif" font-size="10.00">deque</text>
</a>
</g>
</g>
<!-- Node4&#45;&gt;Node23 -->
<g id="edge37" class="edge">
<title>Node4&#45;&gt;Node23</title>
<path fill="none" stroke="midnightblue" d="M923.24,-224.08C916.46,-216.3 906.46,-204.8 898.24,-195.37"/>
<polygon fill="midnightblue" stroke="midnightblue" points="900.82,-193 891.62,-187.75 895.54,-197.59 900.82,-193"/>
</g>
<!-- Node24 -->
<g id="node24" class="node">
<title>Node24</title>
<g id="a_node24"><a xlink:title=" ">
<polygon fill="white" stroke="#bfbfbf" points="682.5,-168.5 682.5,-187.5 727.5,-187.5 727.5,-168.5 682.5,-168.5"/>
<text text-anchor="middle" x="705" y="-175.5" font-family="Helvetica,sans-Serif" font-size="10.00">utility</text>
</a>
</g>
</g>
<!-- Node4&#45;&gt;Node24 -->
<g id="edge38" class="edge">
<title>Node4&#45;&gt;Node24</title>
<path fill="none" stroke="midnightblue" d="M898.21,-225.24C860.51,-216.31 796.76,-201.18 742,-188 740.55,-187.65 739.08,-187.3 737.58,-186.93"/>
<polygon fill="midnightblue" stroke="midnightblue" points="738.24,-183.49 727.69,-184.54 736.59,-190.3 738.24,-183.49"/>
</g>
<!-- Node5&#45;&gt;Node3 -->
<g id="edge22" class="edge">
<title>Node5&#45;&gt;Node3</title>
<path fill="none" stroke="midnightblue" d="M1002.22,-173.54C933.77,-164.7 751.55,-141.16 662.05,-129.59"/>
<polygon fill="midnightblue" stroke="midnightblue" points="662.49,-126.12 652.12,-128.31 661.59,-133.07 662.49,-126.12"/>
</g>
<!-- Node5&#45;&gt;Node6 -->
<g id="edge5" class="edge">
<title>Node5&#45;&gt;Node6</title>
<path fill="none" stroke="midnightblue" d="M1022.95,-168.45C1016.62,-159.45 1006.45,-144.84 998,-132 974.02,-95.55 947.12,-52.08 932.63,-28.43"/>
<polygon fill="midnightblue" stroke="midnightblue" points="935.42,-26.29 927.22,-19.59 929.45,-29.95 935.42,-26.29"/>
</g>
<!-- Node5&#45;&gt;Node7 -->
<g id="edge6" class="edge">
<title>Node5&#45;&gt;Node7</title>
<path fill="none" stroke="midnightblue" d="M1024,-168.08C1022.62,-160.93 1022.38,-150.64 1023.2,-141.69"/>
<polygon fill="midnightblue" stroke="midnightblue" points="1026.66,-142.16 1024.71,-131.75 1019.74,-141.11 1026.66,-142.16"/>
</g>
<!-- Node5&#45;&gt;Node10 -->
<g id="edge24" class="edge">
<title>Node5&#45;&gt;Node10</title>
<path fill="none" stroke="midnightblue" d="M1055.52,-168.64C1117.07,-149.24 1269.79,-101.11 1340.71,-78.75"/>
<polygon fill="midnightblue" stroke="midnightblue" points="1342.08,-81.99 1350.56,-75.65 1339.97,-75.32 1342.08,-81.99"/>
</g>
<!-- Node5&#45;&gt;Node11 -->
<g id="edge21" class="edge">
<title>Node5&#45;&gt;Node11</title>
<path fill="none" stroke="midnightblue" d="M1007.58,-168.37C959.44,-148.97 842.54,-101.87 786.69,-79.37"/>
<polygon fill="midnightblue" stroke="midnightblue" points="787.91,-76.08 777.32,-75.59 785.29,-82.58 787.91,-76.08"/>
</g>
<!-- Node5&#45;&gt;Node18 -->
<g id="edge23" class="edge">
<title>Node5&#45;&gt;Node18</title>
<path fill="none" stroke="midnightblue" d="M1055.54,-168.94C1098.28,-155.03 1183.58,-123.39 1243,-76 1259.76,-62.63 1274.34,-42.71 1283.57,-28.45"/>
<polygon fill="midnightblue" stroke="midnightblue" points="1286.75,-29.97 1289.06,-19.63 1280.8,-26.26 1286.75,-29.97"/>
</g>
<!-- Node5&#45;&gt;Node19 -->
<g id="edge25" class="edge">
<title>Node5&#45;&gt;Node19</title>
<path fill="none" stroke="midnightblue" d="M1002.44,-169.49C965.87,-159.15 900.42,-140.65 864.09,-130.38"/>
<polygon fill="midnightblue" stroke="midnightblue" points="864.82,-126.95 854.24,-127.59 862.91,-133.68 864.82,-126.95"/>
</g>
<!-- Node7&#45;&gt;Node5 -->
<g id="edge13" class="edge">
<title>Node7&#45;&gt;Node5</title>
<path fill="none" stroke="midnightblue" d="M1034.97,-131.75C1036.36,-138.86 1036.62,-149.14 1035.82,-158.1"/>
<polygon fill="midnightblue" stroke="midnightblue" points="1032.35,-157.68 1034.33,-168.08 1039.27,-158.71 1032.35,-157.68"/>
</g>
<!-- Node7&#45;&gt;Node8 -->
<g id="edge7" class="edge">
<title>Node7&#45;&gt;Node8</title>
<path fill="none" stroke="midnightblue" d="M1006.31,-119.17C902.34,-111.15 486.19,-79.05 363.93,-69.62"/>
<polygon fill="midnightblue" stroke="midnightblue" points="363.93,-66.11 353.69,-68.83 363.39,-73.09 363.93,-66.11"/>
</g>
<!-- Node7&#45;&gt;Node9 -->
<g id="edge8" class="edge">
<title>Node7&#45;&gt;Node9</title>
<path fill="none" stroke="midnightblue" d="M1006.41,-112.96C964.56,-99.02 874.36,-70.51 796,-56 633.18,-25.85 434.73,-15.28 357.72,-12.15"/>
<polygon fill="midnightblue" stroke="midnightblue" points="357.39,-8.63 347.26,-11.74 357.12,-15.63 357.39,-8.63"/>
</g>
<!-- Node7&#45;&gt;Node10 -->
<g id="edge9" class="edge">
<title>Node7&#45;&gt;Node10</title>
<path fill="none" stroke="midnightblue" d="M1053.65,-115.06C1058.38,-113.96 1063.34,-112.89 1068,-112 1164.76,-93.56 1279.78,-78.68 1338.79,-71.56"/>
<polygon fill="midnightblue" stroke="midnightblue" points="1339.28,-75.03 1348.79,-70.37 1338.45,-68.08 1339.28,-75.03"/>
</g>
<!-- Node7&#45;&gt;Node11 -->
<g id="edge10" class="edge">
<title>Node7&#45;&gt;Node11</title>
<path fill="none" stroke="midnightblue" d="M1006.16,-116.3C959.61,-107.13 856.09,-86.73 797.86,-75.25"/>
<polygon fill="midnightblue" stroke="midnightblue" points="798.37,-71.78 787.88,-73.28 797.02,-78.65 798.37,-71.78"/>
</g>
<!-- Node12 -->
<g id="node12" class="node">
<title>Node12</title>
<g id="a_node12"><a xlink:title=" ">
<polygon fill="white" stroke="#bfbfbf" points="1007.5,-56.5 1007.5,-75.5 1072.5,-75.5 1072.5,-56.5 1007.5,-56.5"/>
<text text-anchor="middle" x="1040" y="-63.5" font-family="Helvetica,sans-Serif" font-size="10.00">functional</text>
</a>
</g>
</g>
<!-- Node7&#45;&gt;Node12 -->
<g id="edge11" class="edge">
<title>Node7&#45;&gt;Node12</title>
<path fill="none" stroke="midnightblue" d="M1031.65,-112.08C1032.98,-104.93 1034.88,-94.64 1036.54,-85.69"/>
<polygon fill="midnightblue" stroke="midnightblue" points="1040,-86.22 1038.38,-75.75 1033.12,-84.95 1040,-86.22"/>
</g>
<!-- Node13 -->
<g id="node13" class="node">
<title>Node13</title>
<g id="a_node13"><a xlink:title=" ">
<polygon fill="white" stroke="#bfbfbf" points="1090.5,-56.5 1090.5,-75.5 1137.5,-75.5 1137.5,-56.5 1090.5,-56.5"/>
<text text-anchor="middle" x="1114" y="-63.5" font-family="Helvetica,sans-Serif" font-size="10.00">cmath</text>
</a>
</g>
</g>
<!-- Node7&#45;&gt;Node13 -->
<g id="edge12" class="edge">
<title>Node7&#45;&gt;Node13</title>
<path fill="none" stroke="midnightblue" d="M1043.5,-112.32C1056.6,-103.9 1076.71,-90.97 1092.11,-81.07"/>
<polygon fill="midnightblue" stroke="midnightblue" points="1094.02,-84.01 1100.54,-75.65 1090.23,-78.12 1094.02,-84.01"/>
</g>
<!-- Node7&#45;&gt;Node14 -->
<g id="edge14" class="edge">
<title>Node7&#45;&gt;Node14</title>
<path fill="none" stroke="midnightblue" d="M1053.64,-113.26C1081.22,-104.24 1127.11,-89.22 1159.1,-78.75"/>
<polygon fill="midnightblue" stroke="midnightblue" points="1160.54,-81.96 1168.95,-75.52 1158.36,-75.31 1160.54,-81.96"/>
</g>
<!-- Node14&#45;&gt;Node6 -->
<g id="edge20" class="edge">
<title>Node14&#45;&gt;Node6</title>
<path fill="none" stroke="midnightblue" d="M1155.89,-57.26C1106.54,-47.5 1021.77,-30.73 968.97,-20.29"/>
<polygon fill="midnightblue" stroke="midnightblue" points="969.34,-16.8 958.86,-18.29 967.99,-23.66 969.34,-16.8"/>
</g>
<!-- Node14&#45;&gt;Node9 -->
<g id="edge17" class="edge">
<title>Node14&#45;&gt;Node9</title>
<path fill="none" stroke="midnightblue" d="M1155.77,-57.21C1152.81,-56.76 1149.86,-56.35 1147,-56 841.12,-19.11 467.51,-12.44 357.14,-11.25"/>
<polygon fill="midnightblue" stroke="midnightblue" points="357.04,-7.75 347,-11.15 356.97,-14.75 357.04,-7.75"/>
</g>
<!-- Node15 -->
<g id="node15" class="node">
<title>Node15</title>
<g id="a_node15"><a xlink:title=" ">
<polygon fill="white" stroke="#bfbfbf" points="1134.5,-0.5 1134.5,-19.5 1189.5,-19.5 1189.5,-0.5 1134.5,-0.5"/>
<text text-anchor="middle" x="1162" y="-7.5" font-family="Helvetica,sans-Serif" font-size="10.00">fstream</text>
</a>
</g>
</g>
<!-- Node14&#45;&gt;Node15 -->
<g id="edge15" class="edge">
<title>Node14&#45;&gt;Node15</title>
<path fill="none" stroke="midnightblue" d="M1189.55,-56.08C1184.99,-48.61 1178.33,-37.72 1172.71,-28.52"/>
<polygon fill="midnightblue" stroke="midnightblue" points="1175.55,-26.46 1167.35,-19.75 1169.58,-30.11 1175.55,-26.46"/>
</g>
<!-- Node16 -->
<g id="node16" class="node">
<title>Node16</title>
<g id="a_node16"><a xlink:title=" ">
<polygon fill="white" stroke="#bfbfbf" points="1208,-0.5 1208,-19.5 1246,-19.5 1246,-0.5 1208,-0.5"/>
<text text-anchor="middle" x="1227" y="-7.5" font-family="Helvetica,sans-Serif" font-size="10.00">map</text>
</a>
</g>
</g>
<!-- Node14&#45;&gt;Node16 -->
<g id="edge16" class="edge">
<title>Node14&#45;&gt;Node16</title>
<path fill="none" stroke="midnightblue" d="M1200.28,-56.08C1204.71,-48.61 1211.16,-37.72 1216.62,-28.52"/>
<polygon fill="midnightblue" stroke="midnightblue" points="1219.73,-30.14 1221.81,-19.75 1213.71,-26.57 1219.73,-30.14"/>
</g>
<!-- Node17 -->
<g id="node17" class="node">
<title>Node17</title>
<g id="a_node17"><a xlink:title=" ">
<polygon fill="white" stroke="#bfbfbf" points="1060,-0.5 1060,-19.5 1116,-19.5 1116,-0.5 1060,-0.5"/>
<text text-anchor="middle" x="1088" y="-7.5" font-family="Helvetica,sans-Serif" font-size="10.00">sstream</text>
</a>
</g>
</g>
<!-- Node14&#45;&gt;Node17 -->
<g id="edge18" class="edge">
<title>Node14&#45;&gt;Node17</title>
<path fill="none" stroke="midnightblue" d="M1177.81,-56.32C1160.65,-47.66 1134.05,-34.24 1114.25,-24.25"/>
<polygon fill="midnightblue" stroke="midnightblue" points="1115.65,-21.04 1105.15,-19.65 1112.5,-27.28 1115.65,-21.04"/>
</g>
<!-- Node14&#45;&gt;Node18 -->
<g id="edge19" class="edge">
<title>Node14&#45;&gt;Node18</title>
<path fill="none" stroke="midnightblue" d="M1210.91,-56.32C1226.64,-47.74 1250.94,-34.49 1269.21,-24.52"/>
<polygon fill="midnightblue" stroke="midnightblue" points="1271.03,-27.52 1278.13,-19.65 1267.68,-21.37 1271.03,-27.52"/>
</g>
<!-- Node20&#45;&gt;Node9 -->
<g id="edge29" class="edge">
<title>Node20&#45;&gt;Node9</title>
<path fill="none" stroke="midnightblue" d="M464.1,-168.08C440.46,-141.38 370.04,-61.87 339.45,-27.32"/>
<polygon fill="midnightblue" stroke="midnightblue" points="341.84,-24.73 332.59,-19.57 336.6,-29.38 341.84,-24.73"/>
</g>
<!-- Node21 -->
<g id="node21" class="node">
<title>Node21</title>
<g id="a_node21"><a xlink:title=" ">
<polygon fill="white" stroke="#bfbfbf" points="448.5,-112.5 448.5,-131.5 513.5,-131.5 513.5,-112.5 448.5,-112.5"/>
<text text-anchor="middle" x="481" y="-119.5" font-family="Helvetica,sans-Serif" font-size="10.00">exception</text>
</a>
</g>
</g>
<!-- Node20&#45;&gt;Node21 -->
<g id="edge30" class="edge">
<title>Node20&#45;&gt;Node21</title>
<path fill="none" stroke="midnightblue" d="M473.49,-168.08C474.68,-160.93 476.39,-150.64 477.88,-141.69"/>
<polygon fill="midnightblue" stroke="midnightblue" points="481.35,-142.19 479.54,-131.75 474.45,-141.04 481.35,-142.19"/>
</g>
<!-- Node25&#45;&gt;Node4 -->
<g id="edge43" class="edge">
<title>Node25&#45;&gt;Node4</title>
<path fill="none" stroke="midnightblue" d="M1061.44,-280.44C1035.48,-271.4 994.33,-257.06 965.2,-246.92"/>
<polygon fill="midnightblue" stroke="midnightblue" points="966.04,-243.5 955.45,-243.52 963.74,-250.11 966.04,-243.5"/>
</g>
<!-- Node25&#45;&gt;Node5 -->
<g id="edge42" class="edge">
<title>Node25&#45;&gt;Node5</title>
<path fill="none" stroke="midnightblue" d="M1081.53,-280.37C1072.2,-262.38 1050.53,-220.55 1038.13,-196.63"/>
<polygon fill="midnightblue" stroke="midnightblue" points="1041.16,-194.86 1033.45,-187.59 1034.95,-198.08 1041.16,-194.86"/>
</g>
<!-- Node25&#45;&gt;Node7 -->
<g id="edge45" class="edge">
<title>Node25&#45;&gt;Node7</title>
<path fill="none" stroke="midnightblue" d="M1094.86,-280.15C1108.58,-266.77 1136.18,-241.16 1163,-224 1198.64,-201.19 1266.6,-200.91 1240,-168 1218.19,-141.02 1117.12,-129.49 1063.55,-125.2"/>
<polygon fill="midnightblue" stroke="midnightblue" points="1063.74,-121.7 1053.5,-124.44 1063.21,-128.68 1063.74,-121.7"/>
</g>
<!-- Node25&#45;&gt;Node8 -->
<g id="edge47" class="edge">
<title>Node25&#45;&gt;Node8</title>
<path fill="none" stroke="midnightblue" d="M1057.71,-285.88C1009.27,-280.16 907.57,-266.47 824,-244 701.31,-211.02 674.34,-189.4 561,-132 543.62,-123.2 540.29,-118.72 522,-112 468.24,-92.25 402.76,-79.1 363.83,-72.35"/>
<polygon fill="midnightblue" stroke="midnightblue" points="364.03,-68.84 353.59,-70.62 362.86,-75.74 364.03,-68.84"/>
</g>
<!-- Node25&#45;&gt;Node10 -->
<g id="edge46" class="edge">
<title>Node25&#45;&gt;Node10</title>
<path fill="none" stroke="midnightblue" d="M1114.25,-284.33C1184.17,-272.09 1361.8,-236.67 1392,-188 1411.8,-156.08 1397.39,-110.2 1386.7,-85.1"/>
<polygon fill="midnightblue" stroke="midnightblue" points="1389.77,-83.39 1382.46,-75.72 1383.39,-86.28 1389.77,-83.39"/>
</g>
<!-- Node25&#45;&gt;Node14 -->
<g id="edge44" class="edge">
<title>Node25&#45;&gt;Node14</title>
<path fill="none" stroke="midnightblue" d="M1114.09,-285.92C1158.84,-280.36 1243.12,-267.06 1261,-244 1300.46,-193.11 1240.56,-116.15 1210.5,-83.06"/>
<polygon fill="midnightblue" stroke="midnightblue" points="1212.96,-80.56 1203.58,-75.63 1207.84,-85.33 1212.96,-80.56"/>
</g>
<!-- Node25&#45;&gt;Node22 -->
<g id="edge50" class="edge">
<title>Node25&#45;&gt;Node22</title>
<path fill="none" stroke="midnightblue" d="M1114.23,-285.11C1155.53,-278.78 1229.25,-264.82 1245,-244 1260.62,-223.34 1231.31,-203.88 1205.75,-191.73"/>
<polygon fill="midnightblue" stroke="midnightblue" points="1207.14,-188.52 1196.59,-187.6 1204.26,-194.9 1207.14,-188.52"/>
</g>
<!-- Node25&#45;&gt;Node24 -->
<g id="edge49" class="edge">
<title>Node25&#45;&gt;Node24</title>
<path fill="none" stroke="midnightblue" d="M1057.83,-283.57C1019.53,-275.95 949.02,-261.09 890,-244 835.15,-228.12 772.76,-205.15 736.25,-191.19"/>
<polygon fill="midnightblue" stroke="midnightblue" points="737.26,-187.83 726.67,-187.51 734.75,-194.36 737.26,-187.83"/>
</g>
<!-- Node26 -->
<g id="node26" class="node">
<title>Node26</title>
<g id="a_node26"><a xlink:title=" ">
<polygon fill="white" stroke="#bfbfbf" points="1172,-224.5 1172,-243.5 1236,-243.5 1236,-224.5 1172,-224.5"/>
<text text-anchor="middle" x="1204" y="-231.5" font-family="Helvetica,sans-Serif" font-size="10.00">algorithm</text>
</a>
</g>
</g>
<!-- Node25&#45;&gt;Node26 -->
<g id="edge48" class="edge">
<title>Node25&#45;&gt;Node26</title>
<path fill="none" stroke="midnightblue" d="M1104.7,-280.44C1123.94,-271.64 1154.15,-257.81 1176.2,-247.72"/>
<polygon fill="midnightblue" stroke="midnightblue" points="1177.75,-250.86 1185.39,-243.52 1174.84,-244.5 1177.75,-250.86"/>
</g>
<!-- Node27&#45;&gt;Node6 -->
<g id="edge64" class="edge">
<title>Node27&#45;&gt;Node6</title>
<path fill="none" stroke="midnightblue" d="M876.94,-341.57C828.94,-335.37 735.91,-320.99 711,-300 663.38,-259.88 650.8,-228.86 664,-168 675.6,-114.55 672.43,-90.34 715,-56 739.22,-36.46 821.87,-23.09 875.12,-16.27"/>
<polygon fill="midnightblue" stroke="midnightblue" points="875.86,-19.71 885.35,-15 874.99,-12.76 875.86,-19.71"/>
</g>
<!-- Node27&#45;&gt;Node7 -->
<g id="edge58" class="edge">
<title>Node27&#45;&gt;Node7</title>
<path fill="none" stroke="midnightblue" d="M924.28,-336.34C942.77,-327.49 972.09,-313.21 997,-300 1057.49,-267.92 1070.24,-255.57 1131,-224 1164.17,-206.77 1187.01,-219.58 1207,-188 1240.61,-134.9 1124.27,-124.88 1063.98,-123.2"/>
<polygon fill="midnightblue" stroke="midnightblue" points="1063.85,-119.69 1053.77,-122.98 1063.7,-126.69 1063.85,-119.69"/>
</g>
<!-- Node27&#45;&gt;Node8 -->
<g id="edge66" class="edge">
<title>Node27&#45;&gt;Node8</title>
<path fill="none" stroke="midnightblue" d="M876.62,-343.51C818.74,-340.01 686.25,-329.26 579,-300 516.73,-283.01 504.49,-269.05 445,-244 386.27,-219.27 348.18,-241.14 313,-188 292.11,-156.44 308.59,-110.1 320.51,-84.91"/>
<polygon fill="midnightblue" stroke="midnightblue" points="323.72,-86.3 325.06,-75.79 317.46,-83.18 323.72,-86.3"/>
</g>
<!-- Node27&#45;&gt;Node10 -->
<g id="edge65" class="edge">
<title>Node27&#45;&gt;Node10</title>
<path fill="none" stroke="midnightblue" d="M935.26,-342.99C1058.63,-334.11 1530,-296.19 1530,-235 1530,-235 1530,-235 1530,-177 1530,-146.2 1527.95,-133.6 1506,-112 1482.08,-88.45 1445.13,-77.18 1417.07,-71.81"/>
<polygon fill="midnightblue" stroke="midnightblue" points="1417.62,-68.35 1407.17,-70.08 1416.42,-75.25 1417.62,-68.35"/>
</g>
<!-- Node27&#45;&gt;Node11 -->
<g id="edge67" class="edge">
<title>Node27&#45;&gt;Node11</title>
<path fill="none" stroke="midnightblue" d="M905.74,-336.31C904.88,-322.69 901.34,-296.2 887,-280 852.69,-241.24 701.47,-231.23 673,-188 646.48,-147.74 726.62,-138.54 732,-132 742.97,-118.66 749.19,-99.83 752.53,-85.87"/>
<polygon fill="midnightblue" stroke="midnightblue" points="755.99,-86.42 754.63,-75.92 749.14,-84.98 755.99,-86.42"/>
</g>
<!-- Node27&#45;&gt;Node14 -->
<g id="edge59" class="edge">
<title>Node27&#45;&gt;Node14</title>
<path fill="none" stroke="midnightblue" d="M935.15,-343.9C1032.46,-339.45 1340,-318.75 1340,-235 1340,-235 1340,-235 1340,-177 1340,-124.53 1278.98,-93.84 1236.11,-78.76"/>
<polygon fill="midnightblue" stroke="midnightblue" points="1237.06,-75.39 1226.46,-75.52 1234.83,-82.02 1237.06,-75.39"/>
</g>
<!-- Node27&#45;&gt;Node25 -->
<g id="edge52" class="edge">
<title>Node27&#45;&gt;Node25</title>
<path fill="none" stroke="midnightblue" d="M934.52,-336.44C965.16,-327.25 1013.99,-312.6 1047.9,-302.43"/>
<polygon fill="midnightblue" stroke="midnightblue" points="1049.34,-305.65 1057.91,-299.43 1047.32,-298.95 1049.34,-305.65"/>
</g>
<!-- Node28 -->
<g id="node28" class="node">
<title>Node28</title>
<g id="a_node28"><a xlink:href="Tower_8h.html" target="_top" xlink:title=" ">
<polygon fill="white" stroke="black" points="934.5,-280.5 934.5,-299.5 987.5,-299.5 987.5,-280.5 934.5,-280.5"/>
<text text-anchor="middle" x="961" y="-287.5" font-family="Helvetica,sans-Serif" font-size="10.00">Tower.h</text>
</a>
</g>
</g>
<!-- Node27&#45;&gt;Node28 -->
<g id="edge53" class="edge">
<title>Node27&#45;&gt;Node28</title>
<path fill="none" stroke="midnightblue" d="M915.08,-336.08C923.17,-328.14 935.2,-316.34 944.91,-306.8"/>
<polygon fill="midnightblue" stroke="midnightblue" points="947.4,-309.25 952.09,-299.75 942.5,-304.26 947.4,-309.25"/>
</g>
<!-- Node29 -->
<g id="node29" class="node">
<title>Node29</title>
<g id="a_node29"><a xlink:href="logFile_8h.html" target="_top" xlink:title=" ">
<polygon fill="white" stroke="black" points="454,-224.5 454,-243.5 512,-243.5 512,-224.5 454,-224.5"/>
<text text-anchor="middle" x="483" y="-231.5" font-family="Helvetica,sans-Serif" font-size="10.00">logFile.h</text>
</a>
</g>
</g>
<!-- Node27&#45;&gt;Node29 -->
<g id="edge60" class="edge">
<title>Node27&#45;&gt;Node29</title>
<path fill="none" stroke="midnightblue" d="M876.79,-342.23C827.31,-337.06 724.17,-324.21 640,-300 592.42,-286.31 539.74,-262.63 509.11,-247.95"/>
<polygon fill="midnightblue" stroke="midnightblue" points="510.49,-244.73 499.97,-243.52 507.44,-251.03 510.49,-244.73"/>
</g>
<!-- Node30 -->
<g id="node30" class="node">
<title>Node30</title>
<g id="a_node30"><a xlink:title=" ">
<polygon fill="white" stroke="#bfbfbf" points="720,-280.5 720,-299.5 774,-299.5 774,-280.5 720,-280.5"/>
<text text-anchor="middle" x="747" y="-287.5" font-family="Helvetica,sans-Serif" font-size="10.00">random</text>
</a>
</g>
</g>
<!-- Node27&#45;&gt;Node30 -->
<g id="edge68" class="edge">
<title>Node27&#45;&gt;Node30</title>
<path fill="none" stroke="midnightblue" d="M880.81,-336.44C854.06,-327.36 811.6,-312.94 781.69,-302.78"/>
<polygon fill="midnightblue" stroke="midnightblue" points="782.67,-299.42 772.08,-299.52 780.42,-306.05 782.67,-299.42"/>
</g>
<!-- Node31 -->
<g id="node31" class="node">
<title>Node31</title>
<g id="a_node31"><a xlink:title=" ">
<polygon fill="white" stroke="#bfbfbf" points="792,-280.5 792,-299.5 878,-299.5 878,-280.5 792,-280.5"/>
<text text-anchor="middle" x="835" y="-287.5" font-family="Helvetica,sans-Serif" font-size="10.00">unordered_set</text>
</a>
</g>
</g>
<!-- Node27&#45;&gt;Node31 -->
<g id="edge69" class="edge">
<title>Node27&#45;&gt;Node31</title>
<path fill="none" stroke="midnightblue" d="M894.59,-336.32C883.89,-328.18 867.66,-315.84 854.84,-306.09"/>
<polygon fill="midnightblue" stroke="midnightblue" points="856.69,-303.1 846.61,-299.83 852.46,-308.67 856.69,-303.1"/>
</g>
<!-- Node28&#45;&gt;Node4 -->
<g id="edge55" class="edge">
<title>Node28&#45;&gt;Node4</title>
<path fill="none" stroke="midnightblue" d="M956.05,-280.08C951.9,-272.61 945.85,-261.72 940.73,-252.52"/>
<polygon fill="midnightblue" stroke="midnightblue" points="943.78,-250.79 935.86,-243.75 937.66,-254.19 943.78,-250.79"/>
</g>
<!-- Node28&#45;&gt;Node5 -->
<g id="edge54" class="edge">
<title>Node28&#45;&gt;Node5</title>
<path fill="none" stroke="midnightblue" d="M966.34,-280.37C977.51,-262.3 1003.55,-220.18 1018.3,-196.31"/>
<polygon fill="midnightblue" stroke="midnightblue" points="1021.41,-197.94 1023.69,-187.59 1015.45,-194.26 1021.41,-197.94"/>
</g>
<!-- Node28&#45;&gt;Node10 -->
<g id="edge57" class="edge">
<title>Node28&#45;&gt;Node10</title>
<path fill="none" stroke="midnightblue" d="M987.38,-280.38C1033.41,-264.87 1130.74,-229.93 1207,-188 1266.17,-155.47 1329.46,-106.48 1359.77,-82.01"/>
<polygon fill="midnightblue" stroke="midnightblue" points="1362.2,-84.55 1367.75,-75.52 1357.78,-79.12 1362.2,-84.55"/>
</g>
<!-- Node28&#45;&gt;Node20 -->
<g id="edge56" class="edge">
<title>Node28&#45;&gt;Node20</title>
<path fill="none" stroke="midnightblue" d="M934.16,-285.25C873.37,-276.67 726.66,-255.48 678,-244 615.75,-229.32 545.01,-205.35 504.73,-190.98"/>
<polygon fill="midnightblue" stroke="midnightblue" points="505.76,-187.64 495.16,-187.55 503.39,-194.22 505.76,-187.64"/>
</g>
<!-- Node29&#45;&gt;Node9 -->
<g id="edge61" class="edge">
<title>Node29&#45;&gt;Node9</title>
<path fill="none" stroke="midnightblue" d="M453.96,-229.96C371.6,-220.67 139.65,-189.76 95,-132 38.86,-59.38 217.19,-25.77 292.79,-15.02"/>
<polygon fill="midnightblue" stroke="midnightblue" points="293.31,-18.49 302.74,-13.66 292.35,-11.55 293.31,-18.49"/>
</g>
<!-- Node29&#45;&gt;Node20 -->
<g id="edge63" class="edge">
<title>Node29&#45;&gt;Node20</title>
<path fill="none" stroke="midnightblue" d="M481.18,-224.08C479.73,-216.93 477.63,-206.64 475.81,-197.69"/>
<polygon fill="midnightblue" stroke="midnightblue" points="479.21,-196.85 473.78,-187.75 472.35,-198.25 479.21,-196.85"/>
</g>
<!-- Node29&#45;&gt;Node24 -->
<g id="edge62" class="edge">
<title>Node29&#45;&gt;Node24</title>
<path fill="none" stroke="midnightblue" d="M512.02,-225.94C553.48,-215.86 629.4,-197.39 672.63,-186.87"/>
<polygon fill="midnightblue" stroke="midnightblue" points="673.47,-190.27 682.36,-184.51 671.82,-183.47 673.47,-190.27"/>
</g>
<!-- Node32&#45;&gt;Node3 -->
<g id="edge77" class="edge">
<title>Node32&#45;&gt;Node3</title>
<path fill="none" stroke="midnightblue" d="M375.89,-171.04C380.59,-170.01 385.44,-168.97 390,-168 448.11,-155.71 514.94,-142.18 559.76,-133.2"/>
<polygon fill="midnightblue" stroke="midnightblue" points="560.7,-136.58 569.82,-131.19 559.33,-129.72 560.7,-136.58"/>
</g>
<!-- Node32&#45;&gt;Node8 -->
<g id="edge72" class="edge">
<title>Node32&#45;&gt;Node8</title>
<path fill="none" stroke="midnightblue" d="M347.51,-168.37C344.44,-150.62 337.37,-109.67 333.21,-85.6"/>
<polygon fill="midnightblue" stroke="midnightblue" points="336.64,-84.85 331.48,-75.59 329.74,-86.04 336.64,-84.85"/>
</g>
<!-- Node32&#45;&gt;Node9 -->
<g id="edge73" class="edge">
<title>Node32&#45;&gt;Node9</title>
<path fill="none" stroke="midnightblue" d="M342.73,-168.38C330.97,-151.61 305.96,-112.99 297,-76 294.91,-67.36 294.56,-64.55 297,-56 299.9,-45.84 305.83,-35.75 311.49,-27.7"/>
<polygon fill="midnightblue" stroke="midnightblue" points="314.38,-29.69 317.59,-19.59 308.78,-25.48 314.38,-29.69"/>
</g>
<!-- Node32&#45;&gt;Node11 -->
<g id="edge75" class="edge">
<title>Node32&#45;&gt;Node11</title>
<path fill="none" stroke="midnightblue" d="M358.05,-168.08C373.31,-153.64 405.75,-125.41 439,-112 532.08,-74.47 651.55,-67.49 713.88,-66.64"/>
<polygon fill="midnightblue" stroke="midnightblue" points="714.14,-70.14 724.11,-66.55 714.08,-63.14 714.14,-70.14"/>
</g>
<!-- Node32&#45;&gt;Node19 -->
<g id="edge74" class="edge">
<title>Node32&#45;&gt;Node19</title>
<path fill="none" stroke="midnightblue" d="M375.71,-173.67C389.77,-171.93 407.31,-169.8 423,-168 569.67,-151.13 745.7,-132.61 811.49,-125.75"/>
<polygon fill="midnightblue" stroke="midnightblue" points="812.19,-129.2 821.78,-124.68 811.47,-122.24 812.19,-129.2"/>
</g>
<!-- Node32&#45;&gt;Node33 -->
<g id="edge76" class="edge">
<title>Node32&#45;&gt;Node33</title>
<path fill="none" stroke="midnightblue" d="M322.12,-168.8C292.23,-159.68 243.73,-144.88 209.98,-134.59"/>
<polygon fill="midnightblue" stroke="midnightblue" points="210.6,-131.12 200.01,-131.55 208.56,-137.81 210.6,-131.12"/>
</g>
</g>
</svg>
