<?xml version="1.0" encoding="UTF-8" standalone="no"?>
<!DOCTYPE svg PUBLIC "-//W3C//DTD SVG 1.1//EN"
 "http://www.w3.org/Graphics/SVG/1.1/DTD/svg11.dtd">
<!-- Generated by graphviz version 2.43.0 (0)
 -->
<!-- Title: newMenu Pages: 1 -->
<svg width="253pt" height="66pt"
 viewBox="0.00 0.00 253.00 66.00" xmlns="http://www.w3.org/2000/svg" xmlns:xlink="http://www.w3.org/1999/xlink">
<g id="graph0" class="graph" transform="scale(1 1) rotate(0) translate(4 62)">
<title>newMenu</title>
<polygon fill="white" stroke="transparent" points="-4,4 -4,-62 249,-62 249,4 -4,4"/>
<!-- Node1 -->
<g id="node1" class="node">
<title>Node1</title>
<g id="a_node1"><a xlink:title=" ">
<polygon fill="#bfbfbf" stroke="black" points="181,-19.5 181,-38.5 245,-38.5 245,-19.5 181,-19.5"/>
<text text-anchor="middle" x="213" y="-26.5" font-family="Helvetica,sans-Serif" font-size="10.00">newMenu</text>
</a>
</g>
</g>
<!-- Node2 -->
<g id="node2" class="node">
<title>Node2</title>
<g id="a_node2"><a xlink:href="Game_8h.html#af66392f74826c89391d33dcbfb45e5b3" target="_top" xlink:title=" ">
<polygon fill="white" stroke="black" points="78.5,-38.5 78.5,-57.5 143.5,-57.5 143.5,-38.5 78.5,-38.5"/>
<text text-anchor="middle" x="111" y="-45.5" font-family="Helvetica,sans-Serif" font-size="10.00">loadMenu</text>
</a>
</g>
</g>
<!-- Node1&#45;&gt;Node2 -->
<g id="edge1" class="edge">
<title>Node1&#45;&gt;Node2</title>
<path fill="none" stroke="midnightblue" d="M170.91,-36.81C161.85,-38.53 152.39,-40.33 143.76,-41.97"/>
<polygon fill="midnightblue" stroke="midnightblue" points="171.74,-40.21 180.91,-34.91 170.43,-33.34 171.74,-40.21"/>
</g>
<!-- Node4 -->
<g id="node4" class="node">
<title>Node4</title>
<g id="a_node4"><a xlink:href="Game_8h.html#a8396c50bf544009fb2fc4907b00cbad3" target="_top" xlink:title=" ">
<polygon fill="white" stroke="black" points="77,-0.5 77,-19.5 145,-19.5 145,-0.5 77,-0.5"/>
<text text-anchor="middle" x="111" y="-7.5" font-family="Helvetica,sans-Serif" font-size="10.00">mainMenu</text>
</a>
</g>
</g>
<!-- Node1&#45;&gt;Node4 -->
<g id="edge3" class="edge">
<title>Node1&#45;&gt;Node4</title>
<path fill="none" stroke="midnightblue" d="M171.03,-21.22C162.42,-19.58 153.44,-17.87 145.15,-16.3"/>
<polygon fill="midnightblue" stroke="midnightblue" points="170.43,-24.66 180.91,-23.09 171.74,-17.79 170.43,-24.66"/>
</g>
<!-- Node3 -->
<g id="node3" class="node">
<title>Node3</title>
<g id="a_node3"><a xlink:href="main_8cpp.html#a3c04138a5bfe5d72780bb7e82a18e627" target="_top" xlink:title=" ">
<polygon fill="white" stroke="black" points="0,-19.5 0,-38.5 41,-38.5 41,-19.5 0,-19.5"/>
<text text-anchor="middle" x="20.5" y="-26.5" font-family="Helvetica,sans-Serif" font-size="10.00">main</text>
</a>
</g>
</g>
<!-- Node2&#45;&gt;Node3 -->
<g id="edge2" class="edge">
<title>Node2&#45;&gt;Node3</title>
<path fill="none" stroke="midnightblue" d="M68.27,-39.04C58.76,-37 49.1,-34.93 41.04,-33.2"/>
<polygon fill="midnightblue" stroke="midnightblue" points="67.54,-42.46 78.05,-41.14 69.01,-35.62 67.54,-42.46"/>
</g>
<!-- Node4&#45;&gt;Node3 -->
<g id="edge4" class="edge">
<title>Node4&#45;&gt;Node3</title>
<path fill="none" stroke="midnightblue" d="M66.8,-19.28C57.85,-21.2 48.85,-23.13 41.25,-24.76"/>
<polygon fill="midnightblue" stroke="midnightblue" points="67.75,-22.65 76.79,-17.13 66.28,-15.81 67.75,-22.65"/>
</g>
</g>
</svg>
