<?xml version="1.0" encoding="UTF-8" standalone="no"?>
<!DOCTYPE svg PUBLIC "-//W3C//DTD SVG 1.1//EN"
 "http://www.w3.org/Graphics/SVG/1.1/DTD/svg11.dtd">
<!-- Generated by graphviz version 2.43.0 (0)
 -->
<!-- Title: src/Game.h Pages: 1 -->
<svg width="766pt" height="364pt"
 viewBox="0.00 0.00 766.00 364.00" xmlns="http://www.w3.org/2000/svg" xmlns:xlink="http://www.w3.org/1999/xlink">
<g id="graph0" class="graph" transform="scale(1 1) rotate(0) translate(4 360)">
<title>src/Game.h</title>
<polygon fill="white" stroke="transparent" points="-4,4 -4,-360 762,-360 762,4 -4,4"/>
<!-- Node1 -->
<g id="node1" class="node">
<title>Node1</title>
<g id="a_node1"><a xlink:title=" ">
<polygon fill="#bfbfbf" stroke="black" points="270,-336.5 270,-355.5 342,-355.5 342,-336.5 270,-336.5"/>
<text text-anchor="middle" x="306" y="-343.5" font-family="Helvetica,sans-Serif" font-size="10.00">src/Game.h</text>
</a>
</g>
</g>
<!-- Node2 -->
<g id="node2" class="node">
<title>Node2</title>
<g id="a_node2"><a xlink:href="HelpStructs_8h.html" target="_top" xlink:title=" ">
<polygon fill="white" stroke="black" points="0,-280.5 0,-299.5 82,-299.5 82,-280.5 0,-280.5"/>
<text text-anchor="middle" x="41" y="-287.5" font-family="Helvetica,sans-Serif" font-size="10.00">HelpStructs.h</text>
</a>
</g>
</g>
<!-- Node1&#45;&gt;Node2 -->
<g id="edge1" class="edge">
<title>Node1&#45;&gt;Node2</title>
<path fill="none" stroke="midnightblue" d="M269.99,-337.66C224.08,-328.31 144.43,-312.08 92.22,-301.44"/>
<polygon fill="midnightblue" stroke="midnightblue" points="92.66,-297.95 82.16,-299.39 91.26,-304.81 92.66,-297.95"/>
</g>
<!-- Node3 -->
<g id="node3" class="node">
<title>Node3</title>
<g id="a_node3"><a xlink:title=" ">
<polygon fill="white" stroke="#bfbfbf" points="100.5,-280.5 100.5,-299.5 163.5,-299.5 163.5,-280.5 100.5,-280.5"/>
<text text-anchor="middle" x="132" y="-287.5" font-family="Helvetica,sans-Serif" font-size="10.00">ncurses.h</text>
</a>
</g>
</g>
<!-- Node1&#45;&gt;Node3 -->
<g id="edge2" class="edge">
<title>Node1&#45;&gt;Node3</title>
<path fill="none" stroke="midnightblue" d="M278.43,-336.44C248.9,-327.28 201.88,-312.69 169.12,-302.52"/>
<polygon fill="midnightblue" stroke="midnightblue" points="170.03,-299.14 159.44,-299.52 167.96,-305.82 170.03,-299.14"/>
</g>
<!-- Node4 -->
<g id="node4" class="node">
<title>Node4</title>
<g id="a_node4"><a xlink:href="Attacker_8h.html" target="_top" xlink:title=" ">
<polygon fill="white" stroke="black" points="387.5,-168.5 387.5,-187.5 452.5,-187.5 452.5,-168.5 387.5,-168.5"/>
<text text-anchor="middle" x="420" y="-175.5" font-family="Helvetica,sans-Serif" font-size="10.00">Attacker.h</text>
</a>
</g>
</g>
<!-- Node1&#45;&gt;Node4 -->
<g id="edge3" class="edge">
<title>Node1&#45;&gt;Node4</title>
<path fill="none" stroke="midnightblue" d="M312.13,-336.08C330.31,-309.61 384.15,-231.21 408.18,-196.21"/>
<polygon fill="midnightblue" stroke="midnightblue" points="411.34,-197.79 414.12,-187.57 405.57,-193.83 411.34,-197.79"/>
</g>
<!-- Node7 -->
<g id="node7" class="node">
<title>Node7</title>
<g id="a_node7"><a xlink:href="Map_8h.html" target="_top" xlink:title=" ">
<polygon fill="white" stroke="black" points="282.5,-56.5 282.5,-75.5 329.5,-75.5 329.5,-56.5 282.5,-56.5"/>
<text text-anchor="middle" x="306" y="-63.5" font-family="Helvetica,sans-Serif" font-size="10.00">Map.h</text>
</a>
</g>
</g>
<!-- Node1&#45;&gt;Node7 -->
<g id="edge16" class="edge">
<title>Node1&#45;&gt;Node7</title>
<path fill="none" stroke="midnightblue" d="M294.46,-336.43C273.2,-319.57 230,-279.8 230,-235 230,-235 230,-235 230,-177 230,-137.28 263.96,-101.5 286.48,-82.15"/>
<polygon fill="midnightblue" stroke="midnightblue" points="288.98,-84.63 294.46,-75.57 284.52,-79.24 288.98,-84.63"/>
</g>
<!-- Node8 -->
<g id="node8" class="node">
<title>Node8</title>
<g id="a_node8"><a xlink:title=" ">
<polygon fill="white" stroke="#bfbfbf" points="542.5,-0.5 542.5,-19.5 589.5,-19.5 589.5,-0.5 542.5,-0.5"/>
<text text-anchor="middle" x="566" y="-7.5" font-family="Helvetica,sans-Serif" font-size="10.00">vector</text>
</a>
</g>
</g>
<!-- Node1&#45;&gt;Node8 -->
<g id="edge32" class="edge">
<title>Node1&#45;&gt;Node8</title>
<path fill="none" stroke="midnightblue" d="M342.22,-343.93C449.48,-339.77 758,-320.41 758,-235 758,-235 758,-235 758,-121 758,-48.82 654.57,-23.34 599.54,-14.89"/>
<polygon fill="midnightblue" stroke="midnightblue" points="599.94,-11.41 589.54,-13.46 598.95,-18.34 599.94,-11.41"/>
</g>
<!-- Node9 -->
<g id="node9" class="node">
<title>Node9</title>
<g id="a_node9"><a xlink:title=" ">
<polygon fill="white" stroke="#bfbfbf" points="227,-0.5 227,-19.5 271,-19.5 271,-0.5 227,-0.5"/>
<text text-anchor="middle" x="249" y="-7.5" font-family="Helvetica,sans-Serif" font-size="10.00">string</text>
</a>
</g>
</g>
<!-- Node1&#45;&gt;Node9 -->
<g id="edge33" class="edge">
<title>Node1&#45;&gt;Node9</title>
<path fill="none" stroke="midnightblue" d="M285.36,-336.42C252.5,-321.23 192,-286.29 192,-235 192,-235 192,-235 192,-121 192,-84.3 217.32,-47.66 234.21,-27.3"/>
<polygon fill="midnightblue" stroke="midnightblue" points="236.95,-29.48 240.83,-19.62 231.65,-24.9 236.95,-29.48"/>
</g>
<!-- Node12 -->
<g id="node12" class="node">
<title>Node12</title>
<g id="a_node12"><a xlink:href="Player_8h.html" target="_top" xlink:title=" ">
<polygon fill="white" stroke="black" points="453,-224.5 453,-243.5 509,-243.5 509,-224.5 453,-224.5"/>
<text text-anchor="middle" x="481" y="-231.5" font-family="Helvetica,sans-Serif" font-size="10.00">Player.h</text>
</a>
</g>
</g>
<!-- Node1&#45;&gt;Node12 -->
<g id="edge17" class="edge">
<title>Node1&#45;&gt;Node12</title>
<path fill="none" stroke="midnightblue" d="M325.89,-336.37C344.52,-327.99 372.89,-314.44 396,-300 420.42,-284.75 446.43,-264.14 463.15,-250.25"/>
<polygon fill="midnightblue" stroke="midnightblue" points="465.58,-252.78 470.99,-243.66 461.08,-247.42 465.58,-252.78"/>
</g>
<!-- Node13 -->
<g id="node13" class="node">
<title>Node13</title>
<g id="a_node13"><a xlink:href="Enemy_8h.html" target="_top" xlink:title=" ">
<polygon fill="white" stroke="black" points="502,-280.5 502,-299.5 560,-299.5 560,-280.5 502,-280.5"/>
<text text-anchor="middle" x="531" y="-287.5" font-family="Helvetica,sans-Serif" font-size="10.00">Enemy.h</text>
</a>
</g>
</g>
<!-- Node1&#45;&gt;Node13 -->
<g id="edge23" class="edge">
<title>Node1&#45;&gt;Node13</title>
<path fill="none" stroke="midnightblue" d="M341.65,-336.44C382.63,-326.61 449.68,-310.52 492.01,-300.36"/>
<polygon fill="midnightblue" stroke="midnightblue" points="493.05,-303.71 501.95,-297.97 491.41,-296.9 493.05,-303.71"/>
</g>
<!-- Node5 -->
<g id="node5" class="node">
<title>Node5</title>
<g id="a_node5"><a xlink:href="Entity_8h.html" target="_top" xlink:title=" ">
<polygon fill="white" stroke="black" points="448.5,-112.5 448.5,-131.5 501.5,-131.5 501.5,-112.5 448.5,-112.5"/>
<text text-anchor="middle" x="475" y="-119.5" font-family="Helvetica,sans-Serif" font-size="10.00">Entity.h</text>
</a>
</g>
</g>
<!-- Node4&#45;&gt;Node5 -->
<g id="edge4" class="edge">
<title>Node4&#45;&gt;Node5</title>
<path fill="none" stroke="midnightblue" d="M429.08,-168.08C437.17,-160.14 449.2,-148.34 458.91,-138.8"/>
<polygon fill="midnightblue" stroke="midnightblue" points="461.4,-141.25 466.09,-131.75 456.5,-136.26 461.4,-141.25"/>
</g>
<!-- Node6 -->
<g id="node6" class="node">
<title>Node6</title>
<g id="a_node6"><a xlink:href="constants_8h.html" target="_top" xlink:title=" ">
<polygon fill="white" stroke="black" points="386.5,-56.5 386.5,-75.5 459.5,-75.5 459.5,-56.5 386.5,-56.5"/>
<text text-anchor="middle" x="423" y="-63.5" font-family="Helvetica,sans-Serif" font-size="10.00">constants.h</text>
</a>
</g>
</g>
<!-- Node4&#45;&gt;Node6 -->
<g id="edge12" class="edge">
<title>Node4&#45;&gt;Node6</title>
<path fill="none" stroke="midnightblue" d="M420.24,-168.37C420.72,-150.62 421.84,-109.67 422.49,-85.6"/>
<polygon fill="midnightblue" stroke="midnightblue" points="425.99,-85.68 422.77,-75.59 418.99,-85.49 425.99,-85.68"/>
</g>
<!-- Node4&#45;&gt;Node7 -->
<g id="edge15" class="edge">
<title>Node4&#45;&gt;Node7</title>
<path fill="none" stroke="midnightblue" d="M409.38,-168.32C398.69,-159.46 381.83,-145.18 368,-132 351.17,-115.97 332.92,-96.57 320.61,-83.16"/>
<polygon fill="midnightblue" stroke="midnightblue" points="323.1,-80.7 313.77,-75.67 317.93,-85.41 323.1,-80.7"/>
</g>
<!-- Node4&#45;&gt;Node8 -->
<g id="edge13" class="edge">
<title>Node4&#45;&gt;Node8</title>
<path fill="none" stroke="midnightblue" d="M412.03,-168.46C393.26,-147.3 349.9,-91.61 378,-56 396.83,-32.13 483.2,-19.5 532.06,-14.17"/>
<polygon fill="midnightblue" stroke="midnightblue" points="532.58,-17.63 542.16,-13.11 531.85,-10.67 532.58,-17.63"/>
</g>
<!-- Node11 -->
<g id="node11" class="node">
<title>Node11</title>
<g id="a_node11"><a xlink:title=" ">
<polygon fill="white" stroke="#bfbfbf" points="594,-56.5 594,-75.5 652,-75.5 652,-56.5 594,-56.5"/>
<text text-anchor="middle" x="623" y="-63.5" font-family="Helvetica,sans-Serif" font-size="10.00">memory</text>
</a>
</g>
</g>
<!-- Node4&#45;&gt;Node11 -->
<g id="edge14" class="edge">
<title>Node4&#45;&gt;Node11</title>
<path fill="none" stroke="midnightblue" d="M438.31,-168.39C456.82,-159.58 486.15,-145.33 511,-132 542.37,-115.16 577.79,-94.28 600.25,-80.8"/>
<polygon fill="midnightblue" stroke="midnightblue" points="602.27,-83.67 609.03,-75.51 598.65,-77.68 602.27,-83.67"/>
</g>
<!-- Node5&#45;&gt;Node6 -->
<g id="edge5" class="edge">
<title>Node5&#45;&gt;Node6</title>
<path fill="none" stroke="midnightblue" d="M466.41,-112.08C458.84,-104.22 447.62,-92.57 438.49,-83.08"/>
<polygon fill="midnightblue" stroke="midnightblue" points="440.88,-80.53 431.43,-75.75 435.84,-85.38 440.88,-80.53"/>
</g>
<!-- Node5&#45;&gt;Node7 -->
<g id="edge6" class="edge">
<title>Node5&#45;&gt;Node7</title>
<path fill="none" stroke="midnightblue" d="M448.17,-113.94C418.01,-105.04 369.39,-89.61 337.48,-78.88"/>
<polygon fill="midnightblue" stroke="midnightblue" points="338.34,-75.48 327.75,-75.58 336.09,-82.11 338.34,-75.48"/>
</g>
<!-- Node10 -->
<g id="node10" class="node">
<title>Node10</title>
<g id="a_node10"><a xlink:title=" ">
<polygon fill="white" stroke="#bfbfbf" points="478,-56.5 478,-75.5 538,-75.5 538,-56.5 478,-56.5"/>
<text text-anchor="middle" x="508" y="-63.5" font-family="Helvetica,sans-Serif" font-size="10.00">iostream</text>
</a>
</g>
</g>
<!-- Node5&#45;&gt;Node10 -->
<g id="edge10" class="edge">
<title>Node5&#45;&gt;Node10</title>
<path fill="none" stroke="midnightblue" d="M480.45,-112.08C485.01,-104.61 491.67,-93.72 497.29,-84.52"/>
<polygon fill="midnightblue" stroke="midnightblue" points="500.42,-86.11 502.65,-75.75 494.45,-82.46 500.42,-86.11"/>
</g>
<!-- Node5&#45;&gt;Node11 -->
<g id="edge11" class="edge">
<title>Node5&#45;&gt;Node11</title>
<path fill="none" stroke="midnightblue" d="M498.45,-112.44C523.13,-103.44 562.19,-89.19 589.98,-79.05"/>
<polygon fill="midnightblue" stroke="midnightblue" points="591.46,-82.23 599.66,-75.52 589.06,-75.66 591.46,-82.23"/>
</g>
<!-- Node7&#45;&gt;Node5 -->
<g id="edge9" class="edge">
<title>Node7&#45;&gt;Node5</title>
<path fill="none" stroke="midnightblue" d="M329.51,-73.09C359.36,-81.81 410.55,-98.03 443.66,-109.17"/>
<polygon fill="midnightblue" stroke="midnightblue" points="442.72,-112.54 453.31,-112.44 444.97,-105.91 442.72,-112.54"/>
</g>
<!-- Node7&#45;&gt;Node8 -->
<g id="edge7" class="edge">
<title>Node7&#45;&gt;Node8</title>
<path fill="none" stroke="midnightblue" d="M329.69,-59.26C334.42,-58.15 339.36,-57.02 344,-56 410.53,-41.38 488.67,-25.94 532.24,-17.49"/>
<polygon fill="midnightblue" stroke="midnightblue" points="533.14,-20.88 542.29,-15.54 531.81,-14.01 533.14,-20.88"/>
</g>
<!-- Node7&#45;&gt;Node9 -->
<g id="edge8" class="edge">
<title>Node7&#45;&gt;Node9</title>
<path fill="none" stroke="midnightblue" d="M296.84,-56.32C288.5,-48.42 275.97,-36.55 265.82,-26.94"/>
<polygon fill="midnightblue" stroke="midnightblue" points="267.99,-24.17 258.32,-19.83 263.18,-29.25 267.99,-24.17"/>
</g>
<!-- Node12&#45;&gt;Node4 -->
<g id="edge19" class="edge">
<title>Node12&#45;&gt;Node4</title>
<path fill="none" stroke="midnightblue" d="M471.2,-224.32C462.18,-216.34 448.59,-204.31 437.68,-194.65"/>
<polygon fill="midnightblue" stroke="midnightblue" points="439.79,-191.84 429.98,-187.83 435.15,-197.08 439.79,-191.84"/>
</g>
<!-- Node12&#45;&gt;Node5 -->
<g id="edge18" class="edge">
<title>Node12&#45;&gt;Node5</title>
<path fill="none" stroke="midnightblue" d="M480.53,-224.37C479.56,-206.62 477.33,-165.67 476.01,-141.6"/>
<polygon fill="midnightblue" stroke="midnightblue" points="479.51,-141.39 475.47,-131.59 472.52,-141.77 479.51,-141.39"/>
</g>
<!-- Node12&#45;&gt;Node7 -->
<g id="edge22" class="edge">
<title>Node12&#45;&gt;Node7</title>
<path fill="none" stroke="midnightblue" d="M452.97,-225.6C430.95,-218.7 400.51,-206.63 379,-188 345.59,-159.06 323.05,-110.92 312.63,-84.94"/>
<polygon fill="midnightblue" stroke="midnightblue" points="315.88,-83.64 309.01,-75.57 309.35,-86.16 315.88,-83.64"/>
</g>
<!-- Node12&#45;&gt;Node8 -->
<g id="edge21" class="edge">
<title>Node12&#45;&gt;Node8</title>
<path fill="none" stroke="midnightblue" d="M485.08,-224.29C496.01,-200.73 526.52,-133.68 547,-76 552.53,-60.42 557.72,-42.34 561.27,-29.21"/>
<polygon fill="midnightblue" stroke="midnightblue" points="564.66,-30.07 563.84,-19.51 557.9,-28.28 564.66,-30.07"/>
</g>
<!-- Node12&#45;&gt;Node11 -->
<g id="edge20" class="edge">
<title>Node12&#45;&gt;Node11</title>
<path fill="none" stroke="midnightblue" d="M496.21,-224.38C509.78,-216.19 529.67,-202.94 544,-188 574.98,-155.69 601.15,-109.65 614.17,-84.7"/>
<polygon fill="midnightblue" stroke="midnightblue" points="617.34,-86.18 618.78,-75.68 611.11,-83 617.34,-86.18"/>
</g>
<!-- Node13&#45;&gt;Node7 -->
<g id="edge29" class="edge">
<title>Node13&#45;&gt;Node7</title>
<path fill="none" stroke="midnightblue" d="M511.26,-280.4C493.13,-272.14 465.84,-258.76 444,-244 412.41,-222.65 403.83,-216.94 379,-188 359.89,-165.73 359.19,-157.12 344,-132 334.41,-116.13 323.78,-97.89 316.21,-84.78"/>
<polygon fill="midnightblue" stroke="midnightblue" points="319.1,-82.8 311.08,-75.88 313.04,-86.29 319.1,-82.8"/>
</g>
<!-- Node13&#45;&gt;Node8 -->
<g id="edge31" class="edge">
<title>Node13&#45;&gt;Node8</title>
<path fill="none" stroke="midnightblue" d="M560.12,-285.54C613.13,-277.45 720,-252.08 720,-179 720,-179 720,-179 720,-121 720,-62.2 644.74,-31.85 599.44,-18.91"/>
<polygon fill="midnightblue" stroke="midnightblue" points="600.29,-15.52 589.73,-16.27 598.46,-22.27 600.29,-15.52"/>
</g>
<!-- Node13&#45;&gt;Node11 -->
<g id="edge30" class="edge">
<title>Node13&#45;&gt;Node11</title>
<path fill="none" stroke="midnightblue" d="M546.81,-280.37C560.95,-272.19 581.73,-258.94 597,-244 618.86,-222.61 625.62,-216.39 637,-188 649.63,-156.47 652.66,-145.09 645,-112 642.77,-102.36 638.18,-92.41 633.76,-84.31"/>
<polygon fill="midnightblue" stroke="midnightblue" points="636.7,-82.4 628.64,-75.52 630.65,-85.92 636.7,-82.4"/>
</g>
<!-- Node13&#45;&gt;Node12 -->
<g id="edge24" class="edge">
<title>Node13&#45;&gt;Node12</title>
<path fill="none" stroke="midnightblue" d="M522.74,-280.08C515.54,-272.3 504.89,-260.8 496.15,-251.37"/>
<polygon fill="midnightblue" stroke="midnightblue" points="498.47,-248.71 489.1,-243.75 493.33,-253.47 498.47,-248.71"/>
</g>
<!-- Node14 -->
<g id="node14" class="node">
<title>Node14</title>
<g id="a_node14"><a xlink:href="Tower_8h.html" target="_top" xlink:title=" ">
<polygon fill="white" stroke="black" points="534.5,-224.5 534.5,-243.5 587.5,-243.5 587.5,-224.5 534.5,-224.5"/>
<text text-anchor="middle" x="561" y="-231.5" font-family="Helvetica,sans-Serif" font-size="10.00">Tower.h</text>
</a>
</g>
</g>
<!-- Node13&#45;&gt;Node14 -->
<g id="edge25" class="edge">
<title>Node13&#45;&gt;Node14</title>
<path fill="none" stroke="midnightblue" d="M535.95,-280.08C540.1,-272.61 546.15,-261.72 551.27,-252.52"/>
<polygon fill="midnightblue" stroke="midnightblue" points="554.34,-254.19 556.14,-243.75 548.22,-250.79 554.34,-254.19"/>
</g>
<!-- Node14&#45;&gt;Node4 -->
<g id="edge27" class="edge">
<title>Node14&#45;&gt;Node4</title>
<path fill="none" stroke="midnightblue" d="M538.66,-224.44C515.25,-215.48 478.26,-201.31 451.81,-191.18"/>
<polygon fill="midnightblue" stroke="midnightblue" points="452.83,-187.82 442.24,-187.52 450.32,-194.36 452.83,-187.82"/>
</g>
<!-- Node14&#45;&gt;Node5 -->
<g id="edge26" class="edge">
<title>Node14&#45;&gt;Node5</title>
<path fill="none" stroke="midnightblue" d="M554.25,-224.37C540,-206.14 506.61,-163.43 488.04,-139.68"/>
<polygon fill="midnightblue" stroke="midnightblue" points="490.63,-137.31 481.72,-131.59 485.12,-141.63 490.63,-137.31"/>
</g>
<!-- Node14&#45;&gt;Node11 -->
<g id="edge28" class="edge">
<title>Node14&#45;&gt;Node11</title>
<path fill="none" stroke="midnightblue" d="M579.58,-224.49C593.46,-217.03 611.45,-204.75 620,-188 636.82,-155.05 631.93,-110.2 627.23,-85.4"/>
<polygon fill="midnightblue" stroke="midnightblue" points="630.64,-84.6 625.16,-75.53 623.78,-86.03 630.64,-84.6"/>
</g>
</g>
</svg>
