<?xml version="1.0" encoding="UTF-8" standalone="no"?>
<!DOCTYPE svg PUBLIC "-//W3C//DTD SVG 1.1//EN"
 "http://www.w3.org/Graphics/SVG/1.1/DTD/svg11.dtd">
<!-- Generated by graphviz version 2.43.0 (0)
 -->
<!-- Title: src/Game.cpp Pages: 1 -->
<svg width="906pt" height="420pt"
 viewBox="0.00 0.00 905.50 420.00" xmlns="http://www.w3.org/2000/svg" xmlns:xlink="http://www.w3.org/1999/xlink">
<g id="graph0" class="graph" transform="scale(1 1) rotate(0) translate(4 416)">
<title>src/Game.cpp</title>
<polygon fill="white" stroke="transparent" points="-4,4 -4,-416 901.5,-416 901.5,4 -4,4"/>
<!-- Node1 -->
<g id="node1" class="node">
<title>Node1</title>
<g id="a_node1"><a xlink:title=" ">
<polygon fill="#bfbfbf" stroke="black" points="309,-392.5 309,-411.5 392,-411.5 392,-392.5 309,-392.5"/>
<text text-anchor="middle" x="350.5" y="-399.5" font-family="Helvetica,sans-Serif" font-size="10.00">src/Game.cpp</text>
</a>
</g>
</g>
<!-- Node2 -->
<g id="node2" class="node">
<title>Node2</title>
<g id="a_node2"><a xlink:href="Game_8h.html" target="_top" xlink:title=" ">
<polygon fill="white" stroke="black" points="323,-336.5 323,-355.5 378,-355.5 378,-336.5 323,-336.5"/>
<text text-anchor="middle" x="350.5" y="-343.5" font-family="Helvetica,sans-Serif" font-size="10.00">Game.h</text>
</a>
</g>
</g>
<!-- Node1&#45;&gt;Node2 -->
<g id="edge1" class="edge">
<title>Node1&#45;&gt;Node2</title>
<path fill="none" stroke="midnightblue" d="M350.5,-392.08C350.5,-385.01 350.5,-374.86 350.5,-365.99"/>
<polygon fill="midnightblue" stroke="midnightblue" points="354,-365.75 350.5,-355.75 347,-365.75 354,-365.75"/>
</g>
<!-- Node4 -->
<g id="node4" class="node">
<title>Node4</title>
<g id="a_node4"><a xlink:title=" ">
<polygon fill="white" stroke="#bfbfbf" points="0,-280.5 0,-299.5 63,-299.5 63,-280.5 0,-280.5"/>
<text text-anchor="middle" x="31.5" y="-287.5" font-family="Helvetica,sans-Serif" font-size="10.00">ncurses.h</text>
</a>
</g>
</g>
<!-- Node1&#45;&gt;Node4 -->
<g id="edge35" class="edge">
<title>Node1&#45;&gt;Node4</title>
<path fill="none" stroke="midnightblue" d="M308.92,-398.06C242.32,-392.71 115.37,-379.7 77.5,-356 59.79,-344.92 46.96,-324.27 39.42,-309.21"/>
<polygon fill="midnightblue" stroke="midnightblue" points="42.45,-307.44 35.05,-299.86 36.11,-310.4 42.45,-307.44"/>
</g>
<!-- Node11 -->
<g id="node11" class="node">
<title>Node11</title>
<g id="a_node11"><a xlink:title=" ">
<polygon fill="white" stroke="#bfbfbf" points="615.5,-56.5 615.5,-75.5 675.5,-75.5 675.5,-56.5 615.5,-56.5"/>
<text text-anchor="middle" x="645.5" y="-63.5" font-family="Helvetica,sans-Serif" font-size="10.00">iostream</text>
</a>
</g>
</g>
<!-- Node1&#45;&gt;Node11 -->
<g id="edge36" class="edge">
<title>Node1&#45;&gt;Node11</title>
<path fill="none" stroke="midnightblue" d="M392.22,-397.9C491.48,-389.38 733.5,-361.39 733.5,-291 733.5,-291 733.5,-291 733.5,-233 733.5,-172.11 686.7,-111.75 661.36,-83.53"/>
<polygon fill="midnightblue" stroke="midnightblue" points="663.61,-80.81 654.26,-75.83 658.47,-85.56 663.61,-80.81"/>
</g>
<!-- Node12 -->
<g id="node12" class="node">
<title>Node12</title>
<g id="a_node12"><a xlink:title=" ">
<polygon fill="white" stroke="#bfbfbf" points="233.5,-56.5 233.5,-75.5 291.5,-75.5 291.5,-56.5 233.5,-56.5"/>
<text text-anchor="middle" x="262.5" y="-63.5" font-family="Helvetica,sans-Serif" font-size="10.00">memory</text>
</a>
</g>
</g>
<!-- Node1&#45;&gt;Node12 -->
<g id="edge37" class="edge">
<title>Node1&#45;&gt;Node12</title>
<path fill="none" stroke="midnightblue" d="M308.89,-401.37C235.67,-399.62 91.5,-384.31 91.5,-291 91.5,-291 91.5,-291 91.5,-177 91.5,-114.58 173.08,-85.91 223.54,-74.15"/>
<polygon fill="midnightblue" stroke="midnightblue" points="224.48,-77.52 233.49,-71.95 222.97,-70.69 224.48,-77.52"/>
</g>
<!-- Node16 -->
<g id="node16" class="node">
<title>Node16</title>
<g id="a_node16"><a xlink:title=" ">
<polygon fill="white" stroke="#bfbfbf" points="761.5,-336.5 761.5,-355.5 897.5,-355.5 897.5,-336.5 761.5,-336.5"/>
<text text-anchor="middle" x="829.5" y="-343.5" font-family="Helvetica,sans-Serif" font-size="10.00">experimental/filesystem</text>
</a>
</g>
</g>
<!-- Node1&#45;&gt;Node16 -->
<g id="edge38" class="edge">
<title>Node1&#45;&gt;Node16</title>
<path fill="none" stroke="midnightblue" d="M392.17,-396.3C472.24,-387.28 648.74,-367.38 751.35,-355.81"/>
<polygon fill="midnightblue" stroke="midnightblue" points="751.81,-359.28 761.35,-354.68 751.02,-352.32 751.81,-359.28"/>
</g>
<!-- Node3 -->
<g id="node3" class="node">
<title>Node3</title>
<g id="a_node3"><a xlink:href="HelpStructs_8h.html" target="_top" xlink:title=" ">
<polygon fill="white" stroke="black" points="193.5,-280.5 193.5,-299.5 275.5,-299.5 275.5,-280.5 193.5,-280.5"/>
<text text-anchor="middle" x="234.5" y="-287.5" font-family="Helvetica,sans-Serif" font-size="10.00">HelpStructs.h</text>
</a>
</g>
</g>
<!-- Node2&#45;&gt;Node3 -->
<g id="edge2" class="edge">
<title>Node2&#45;&gt;Node3</title>
<path fill="none" stroke="midnightblue" d="M332.12,-336.44C313.28,-327.68 283.77,-313.94 262.12,-303.86"/>
<polygon fill="midnightblue" stroke="midnightblue" points="263.34,-300.56 252.79,-299.52 260.38,-306.91 263.34,-300.56"/>
</g>
<!-- Node2&#45;&gt;Node4 -->
<g id="edge3" class="edge">
<title>Node2&#45;&gt;Node4</title>
<path fill="none" stroke="midnightblue" d="M322.75,-340.3C266.63,-330.8 139.41,-309.27 73.23,-298.06"/>
<polygon fill="midnightblue" stroke="midnightblue" points="73.6,-294.58 63.16,-296.36 72.43,-301.48 73.6,-294.58"/>
</g>
<!-- Node5 -->
<g id="node5" class="node">
<title>Node5</title>
<g id="a_node5"><a xlink:href="Attacker_8h.html" target="_top" xlink:title=" ">
<polygon fill="white" stroke="black" points="389,-168.5 389,-187.5 454,-187.5 454,-168.5 389,-168.5"/>
<text text-anchor="middle" x="421.5" y="-175.5" font-family="Helvetica,sans-Serif" font-size="10.00">Attacker.h</text>
</a>
</g>
</g>
<!-- Node2&#45;&gt;Node5 -->
<g id="edge4" class="edge">
<title>Node2&#45;&gt;Node5</title>
<path fill="none" stroke="midnightblue" d="M358.38,-336.36C372.9,-319.85 403.55,-282.08 416.5,-244 421.57,-229.08 422.61,-211.17 422.49,-197.93"/>
<polygon fill="midnightblue" stroke="midnightblue" points="425.99,-197.57 422.17,-187.69 418.99,-197.79 425.99,-197.57"/>
</g>
<!-- Node8 -->
<g id="node8" class="node">
<title>Node8</title>
<g id="a_node8"><a xlink:href="Map_8h.html" target="_top" xlink:title=" ">
<polygon fill="white" stroke="black" points="532,-56.5 532,-75.5 579,-75.5 579,-56.5 532,-56.5"/>
<text text-anchor="middle" x="555.5" y="-63.5" font-family="Helvetica,sans-Serif" font-size="10.00">Map.h</text>
</a>
</g>
</g>
<!-- Node2&#45;&gt;Node8 -->
<g id="edge17" class="edge">
<title>Node2&#45;&gt;Node8</title>
<path fill="none" stroke="midnightblue" d="M378.01,-341.18C453.37,-329.96 657.5,-294.09 657.5,-235 657.5,-235 657.5,-235 657.5,-177 657.5,-132.39 611.84,-98.23 581.62,-80.51"/>
<polygon fill="midnightblue" stroke="midnightblue" points="583.23,-77.4 572.8,-75.55 579.8,-83.5 583.23,-77.4"/>
</g>
<!-- Node9 -->
<g id="node9" class="node">
<title>Node9</title>
<g id="a_node9"><a xlink:title=" ">
<polygon fill="white" stroke="#bfbfbf" points="334,-0.5 334,-19.5 381,-19.5 381,-0.5 334,-0.5"/>
<text text-anchor="middle" x="357.5" y="-7.5" font-family="Helvetica,sans-Serif" font-size="10.00">vector</text>
</a>
</g>
</g>
<!-- Node2&#45;&gt;Node9 -->
<g id="edge33" class="edge">
<title>Node2&#45;&gt;Node9</title>
<path fill="none" stroke="midnightblue" d="M322.96,-343.79C263.71,-339.54 129.5,-320.5 129.5,-235 129.5,-235 129.5,-235 129.5,-121 129.5,-35.83 260.15,-16.57 323.65,-12.24"/>
<polygon fill="midnightblue" stroke="midnightblue" points="324.18,-15.72 333.96,-11.63 323.77,-8.73 324.18,-15.72"/>
</g>
<!-- Node10 -->
<g id="node10" class="node">
<title>Node10</title>
<g id="a_node10"><a xlink:title=" ">
<polygon fill="white" stroke="#bfbfbf" points="628.5,-0.5 628.5,-19.5 672.5,-19.5 672.5,-0.5 628.5,-0.5"/>
<text text-anchor="middle" x="650.5" y="-7.5" font-family="Helvetica,sans-Serif" font-size="10.00">string</text>
</a>
</g>
</g>
<!-- Node2&#45;&gt;Node10 -->
<g id="edge34" class="edge">
<title>Node2&#45;&gt;Node10</title>
<path fill="none" stroke="midnightblue" d="M378.2,-344.7C426.43,-343.19 527.97,-335.63 604.5,-300 639.68,-283.62 653.72,-278.5 671.5,-244 709.87,-169.55 711.13,-135.41 684.5,-56 680.9,-45.25 673.6,-35.02 666.68,-27.04"/>
<polygon fill="midnightblue" stroke="midnightblue" points="669.15,-24.56 659.79,-19.61 664.02,-29.32 669.15,-24.56"/>
</g>
<!-- Node13 -->
<g id="node13" class="node">
<title>Node13</title>
<g id="a_node13"><a xlink:href="Player_8h.html" target="_top" xlink:title=" ">
<polygon fill="white" stroke="black" points="351.5,-224.5 351.5,-243.5 407.5,-243.5 407.5,-224.5 351.5,-224.5"/>
<text text-anchor="middle" x="379.5" y="-231.5" font-family="Helvetica,sans-Serif" font-size="10.00">Player.h</text>
</a>
</g>
</g>
<!-- Node2&#45;&gt;Node13 -->
<g id="edge18" class="edge">
<title>Node2&#45;&gt;Node13</title>
<path fill="none" stroke="midnightblue" d="M352.78,-336.37C357.48,-318.54 368.35,-277.3 374.68,-253.27"/>
<polygon fill="midnightblue" stroke="midnightblue" points="378.07,-254.15 377.23,-243.59 371.3,-252.37 378.07,-254.15"/>
</g>
<!-- Node14 -->
<g id="node14" class="node">
<title>Node14</title>
<g id="a_node14"><a xlink:href="Enemy_8h.html" target="_top" xlink:title=" ">
<polygon fill="white" stroke="black" points="293.5,-280.5 293.5,-299.5 351.5,-299.5 351.5,-280.5 293.5,-280.5"/>
<text text-anchor="middle" x="322.5" y="-287.5" font-family="Helvetica,sans-Serif" font-size="10.00">Enemy.h</text>
</a>
</g>
</g>
<!-- Node2&#45;&gt;Node14 -->
<g id="edge24" class="edge">
<title>Node2&#45;&gt;Node14</title>
<path fill="none" stroke="midnightblue" d="M345.88,-336.08C342.04,-328.69 336.48,-317.95 331.74,-308.81"/>
<polygon fill="midnightblue" stroke="midnightblue" points="334.75,-307.02 327.04,-299.75 328.53,-310.24 334.75,-307.02"/>
</g>
<!-- Node6 -->
<g id="node6" class="node">
<title>Node6</title>
<g id="a_node6"><a xlink:href="Entity_8h.html" target="_top" xlink:title=" ">
<polygon fill="white" stroke="black" points="462,-112.5 462,-131.5 515,-131.5 515,-112.5 462,-112.5"/>
<text text-anchor="middle" x="488.5" y="-119.5" font-family="Helvetica,sans-Serif" font-size="10.00">Entity.h</text>
</a>
</g>
</g>
<!-- Node5&#45;&gt;Node6 -->
<g id="edge5" class="edge">
<title>Node5&#45;&gt;Node6</title>
<path fill="none" stroke="midnightblue" d="M432.26,-168.32C442.27,-160.26 457.39,-148.08 469.43,-138.37"/>
<polygon fill="midnightblue" stroke="midnightblue" points="471.95,-140.83 477.54,-131.83 467.56,-135.38 471.95,-140.83"/>
</g>
<!-- Node7 -->
<g id="node7" class="node">
<title>Node7</title>
<g id="a_node7"><a xlink:href="constants_8h.html" target="_top" xlink:title=" ">
<polygon fill="white" stroke="black" points="439,-56.5 439,-75.5 512,-75.5 512,-56.5 439,-56.5"/>
<text text-anchor="middle" x="475.5" y="-63.5" font-family="Helvetica,sans-Serif" font-size="10.00">constants.h</text>
</a>
</g>
</g>
<!-- Node5&#45;&gt;Node7 -->
<g id="edge13" class="edge">
<title>Node5&#45;&gt;Node7</title>
<path fill="none" stroke="midnightblue" d="M425.64,-168.13C431.51,-155.58 442.65,-131.95 452.5,-112 456.97,-102.94 462.08,-92.92 466.34,-84.65"/>
<polygon fill="midnightblue" stroke="midnightblue" points="469.54,-86.08 471.02,-75.59 463.32,-82.87 469.54,-86.08"/>
</g>
<!-- Node5&#45;&gt;Node8 -->
<g id="edge16" class="edge">
<title>Node5&#45;&gt;Node8</title>
<path fill="none" stroke="midnightblue" d="M454.25,-168.91C476.09,-162.12 504.22,-150.49 523.5,-132 536.81,-119.24 545.37,-99.77 550.26,-85.47"/>
<polygon fill="midnightblue" stroke="midnightblue" points="553.66,-86.32 553.29,-75.73 546.97,-84.24 553.66,-86.32"/>
</g>
<!-- Node5&#45;&gt;Node9 -->
<g id="edge14" class="edge">
<title>Node5&#45;&gt;Node9</title>
<path fill="none" stroke="midnightblue" d="M418.06,-168.08C407.94,-141.83 378.14,-64.55 364.48,-29.12"/>
<polygon fill="midnightblue" stroke="midnightblue" points="367.67,-27.64 360.8,-19.57 361.14,-30.16 367.67,-27.64"/>
</g>
<!-- Node5&#45;&gt;Node12 -->
<g id="edge15" class="edge">
<title>Node5&#45;&gt;Node12</title>
<path fill="none" stroke="midnightblue" d="M409.02,-168.37C381.86,-149.57 317.09,-104.77 283.51,-81.53"/>
<polygon fill="midnightblue" stroke="midnightblue" points="285.13,-78.4 274.92,-75.59 281.15,-84.16 285.13,-78.4"/>
</g>
<!-- Node6&#45;&gt;Node7 -->
<g id="edge6" class="edge">
<title>Node6&#45;&gt;Node7</title>
<path fill="none" stroke="midnightblue" d="M486.35,-112.08C484.63,-104.93 482.15,-94.64 480,-85.69"/>
<polygon fill="midnightblue" stroke="midnightblue" points="483.35,-84.65 477.61,-75.75 476.54,-86.29 483.35,-84.65"/>
</g>
<!-- Node6&#45;&gt;Node8 -->
<g id="edge7" class="edge">
<title>Node6&#45;&gt;Node8</title>
<path fill="none" stroke="midnightblue" d="M494.15,-112.32C502.62,-104.06 517.94,-91.45 531.27,-81.63"/>
<polygon fill="midnightblue" stroke="midnightblue" points="533.54,-84.31 539.65,-75.65 529.48,-78.61 533.54,-84.31"/>
</g>
<!-- Node6&#45;&gt;Node11 -->
<g id="edge11" class="edge">
<title>Node6&#45;&gt;Node11</title>
<path fill="none" stroke="midnightblue" d="M513.38,-112.44C539.79,-103.36 581.72,-88.94 611.24,-78.78"/>
<polygon fill="midnightblue" stroke="midnightblue" points="612.42,-82.08 620.74,-75.52 610.14,-75.46 612.42,-82.08"/>
</g>
<!-- Node6&#45;&gt;Node12 -->
<g id="edge12" class="edge">
<title>Node6&#45;&gt;Node12</title>
<path fill="none" stroke="midnightblue" d="M461.69,-114.59C422.01,-105.11 347.43,-87.29 301.64,-76.35"/>
<polygon fill="midnightblue" stroke="midnightblue" points="302.32,-72.91 291.78,-74 300.69,-79.72 302.32,-72.91"/>
</g>
<!-- Node8&#45;&gt;Node6 -->
<g id="edge10" class="edge">
<title>Node8&#45;&gt;Node6</title>
<path fill="none" stroke="midnightblue" d="M549.69,-75.83C541.19,-84.11 525.97,-96.62 512.71,-106.38"/>
<polygon fill="midnightblue" stroke="midnightblue" points="510.49,-103.67 504.38,-112.32 514.55,-109.37 510.49,-103.67"/>
</g>
<!-- Node8&#45;&gt;Node9 -->
<g id="edge8" class="edge">
<title>Node8&#45;&gt;Node9</title>
<path fill="none" stroke="midnightblue" d="M531.62,-58.49C496.51,-48.91 430.84,-31 390.95,-20.12"/>
<polygon fill="midnightblue" stroke="midnightblue" points="391.73,-16.71 381.16,-17.45 389.89,-23.46 391.73,-16.71"/>
</g>
<!-- Node8&#45;&gt;Node10 -->
<g id="edge9" class="edge">
<title>Node8&#45;&gt;Node10</title>
<path fill="none" stroke="midnightblue" d="M570.76,-56.32C585.72,-47.82 608.75,-34.73 626.23,-24.8"/>
<polygon fill="midnightblue" stroke="midnightblue" points="628.31,-27.64 635.27,-19.65 624.85,-21.55 628.31,-27.64"/>
</g>
<!-- Node13&#45;&gt;Node5 -->
<g id="edge20" class="edge">
<title>Node13&#45;&gt;Node5</title>
<path fill="none" stroke="midnightblue" d="M386.44,-224.08C392.43,-216.38 401.25,-205.03 408.55,-195.65"/>
<polygon fill="midnightblue" stroke="midnightblue" points="411.32,-197.79 414.69,-187.75 405.79,-193.5 411.32,-197.79"/>
</g>
<!-- Node13&#45;&gt;Node6 -->
<g id="edge19" class="edge">
<title>Node13&#45;&gt;Node6</title>
<path fill="none" stroke="midnightblue" d="M405.4,-224.37C423.52,-217.16 447.13,-205.26 462.5,-188 474.23,-174.82 481.02,-155.68 484.7,-141.58"/>
<polygon fill="midnightblue" stroke="midnightblue" points="488.17,-142.1 487.02,-131.57 481.35,-140.52 488.17,-142.1"/>
</g>
<!-- Node13&#45;&gt;Node8 -->
<g id="edge23" class="edge">
<title>Node13&#45;&gt;Node8</title>
<path fill="none" stroke="midnightblue" d="M407.74,-225.51C447.1,-213.35 516.85,-185.15 545.5,-132 553.2,-117.71 555.43,-99.24 555.9,-85.65"/>
<polygon fill="midnightblue" stroke="midnightblue" points="559.4,-85.59 555.95,-75.57 552.4,-85.55 559.4,-85.59"/>
</g>
<!-- Node13&#45;&gt;Node9 -->
<g id="edge22" class="edge">
<title>Node13&#45;&gt;Node9</title>
<path fill="none" stroke="midnightblue" d="M378.64,-224.3C375.4,-191.63 363.93,-75.87 359.38,-29.96"/>
<polygon fill="midnightblue" stroke="midnightblue" points="362.85,-29.49 358.38,-19.88 355.88,-30.18 362.85,-29.49"/>
</g>
<!-- Node13&#45;&gt;Node12 -->
<g id="edge21" class="edge">
<title>Node13&#45;&gt;Node12</title>
<path fill="none" stroke="midnightblue" d="M372.1,-224.21C364.66,-215.26 352.96,-200.91 343.5,-188 317.11,-151.98 288.57,-108.05 273.41,-84.28"/>
<polygon fill="midnightblue" stroke="midnightblue" points="276.27,-82.25 267.95,-75.68 270.36,-86 276.27,-82.25"/>
</g>
<!-- Node14&#45;&gt;Node8 -->
<g id="edge30" class="edge">
<title>Node14&#45;&gt;Node8</title>
<path fill="none" stroke="midnightblue" d="M346.67,-280.42C385.61,-265.79 463.31,-233.15 517.5,-188 542.24,-167.38 552.64,-162.32 563.5,-132 568.89,-116.95 565.94,-98.82 562.19,-85.53"/>
<polygon fill="midnightblue" stroke="midnightblue" points="565.42,-84.13 559.02,-75.69 558.76,-86.28 565.42,-84.13"/>
</g>
<!-- Node14&#45;&gt;Node9 -->
<g id="edge32" class="edge">
<title>Node14&#45;&gt;Node9</title>
<path fill="none" stroke="midnightblue" d="M293.35,-282.4C248.45,-270.31 167.5,-240.05 167.5,-179 167.5,-179 167.5,-179 167.5,-121 167.5,-49.56 269.34,-23.77 323.9,-15.07"/>
<polygon fill="midnightblue" stroke="midnightblue" points="324.44,-18.53 333.82,-13.6 323.41,-11.61 324.44,-18.53"/>
</g>
<!-- Node14&#45;&gt;Node12 -->
<g id="edge31" class="edge">
<title>Node14&#45;&gt;Node12</title>
<path fill="none" stroke="midnightblue" d="M308.3,-280.49C296.34,-272.55 279.74,-259.62 270.5,-244 240.53,-193.34 250.89,-119.51 258.04,-85.46"/>
<polygon fill="midnightblue" stroke="midnightblue" points="261.49,-86.06 260.28,-75.53 254.67,-84.52 261.49,-86.06"/>
</g>
<!-- Node14&#45;&gt;Node13 -->
<g id="edge25" class="edge">
<title>Node14&#45;&gt;Node13</title>
<path fill="none" stroke="midnightblue" d="M331.66,-280.32C340,-272.42 352.53,-260.55 362.68,-250.94"/>
<polygon fill="midnightblue" stroke="midnightblue" points="365.32,-253.25 370.18,-243.83 360.51,-248.17 365.32,-253.25"/>
</g>
<!-- Node15 -->
<g id="node15" class="node">
<title>Node15</title>
<g id="a_node15"><a xlink:href="Tower_8h.html" target="_top" xlink:title=" ">
<polygon fill="white" stroke="black" points="280,-224.5 280,-243.5 333,-243.5 333,-224.5 280,-224.5"/>
<text text-anchor="middle" x="306.5" y="-231.5" font-family="Helvetica,sans-Serif" font-size="10.00">Tower.h</text>
</a>
</g>
</g>
<!-- Node14&#45;&gt;Node15 -->
<g id="edge26" class="edge">
<title>Node14&#45;&gt;Node15</title>
<path fill="none" stroke="midnightblue" d="M319.86,-280.08C317.71,-272.85 314.62,-262.41 311.95,-253.4"/>
<polygon fill="midnightblue" stroke="midnightblue" points="315.29,-252.34 309.09,-243.75 308.58,-254.33 315.29,-252.34"/>
</g>
<!-- Node15&#45;&gt;Node5 -->
<g id="edge28" class="edge">
<title>Node15&#45;&gt;Node5</title>
<path fill="none" stroke="midnightblue" d="M324.72,-224.44C343.4,-215.68 372.66,-201.94 394.12,-191.86"/>
<polygon fill="midnightblue" stroke="midnightblue" points="395.8,-194.93 403.36,-187.52 392.82,-188.6 395.8,-194.93"/>
</g>
<!-- Node15&#45;&gt;Node6 -->
<g id="edge27" class="edge">
<title>Node15&#45;&gt;Node6</title>
<path fill="none" stroke="midnightblue" d="M314.3,-224.4C326.9,-210.9 353.04,-184.57 379.5,-168 402.22,-153.77 430.22,-142.32 452.15,-134.54"/>
<polygon fill="midnightblue" stroke="midnightblue" points="453.44,-137.79 461.75,-131.22 451.16,-131.18 453.44,-137.79"/>
</g>
<!-- Node15&#45;&gt;Node12 -->
<g id="edge29" class="edge">
<title>Node15&#45;&gt;Node12</title>
<path fill="none" stroke="midnightblue" d="M295.66,-224.31C286.29,-216.08 273.37,-202.8 267.5,-188 253.98,-153.92 256.56,-110.12 259.58,-85.66"/>
<polygon fill="midnightblue" stroke="midnightblue" points="263.06,-86 260.98,-75.61 256.13,-85.03 263.06,-86"/>
</g>
</g>
</svg>
