<?xml version="1.0" encoding="UTF-8" standalone="no"?>
<!DOCTYPE svg PUBLIC "-//W3C//DTD SVG 1.1//EN"
 "http://www.w3.org/Graphics/SVG/1.1/DTD/svg11.dtd">
<!-- Generated by graphviz version 2.43.0 (0)
 -->
<!-- Title: src/HelpStructs.h Pages: 1 -->
<svg width="511pt" height="308pt"
 viewBox="0.00 0.00 511.31 308.00" xmlns="http://www.w3.org/2000/svg" xmlns:xlink="http://www.w3.org/1999/xlink">
<g id="graph0" class="graph" transform="scale(1 1) rotate(0) translate(4 304)">
<title>src/HelpStructs.h</title>
<polygon fill="white" stroke="transparent" points="-4,4 -4,-304 507.31,-304 507.31,4 -4,4"/>
<!-- Node1 -->
<g id="node1" class="node">
<title>Node1</title>
<g id="a_node1"><a xlink:title=" ">
<polygon fill="#bfbfbf" stroke="black" points="331.5,-280.5 331.5,-299.5 430.5,-299.5 430.5,-280.5 331.5,-280.5"/>
<text text-anchor="middle" x="381" y="-287.5" font-family="Helvetica,sans-Serif" font-size="10.00">src/HelpStructs.h</text>
</a>
</g>
</g>
<!-- Node2 -->
<g id="node2" class="node">
<title>Node2</title>
<g id="a_node2"><a xlink:href="Attacker_8h.html" target="_top" xlink:title=" ">
<polygon fill="white" stroke="black" points="236.5,-224.5 236.5,-243.5 319.5,-243.5 319.5,-224.5 236.5,-224.5"/>
<text text-anchor="middle" x="278" y="-231.5" font-family="Helvetica,sans-Serif" font-size="10.00">src/Attacker.h</text>
</a>
</g>
</g>
<!-- Node1&#45;&gt;Node2 -->
<g id="edge1" class="edge">
<title>Node1&#45;&gt;Node2</title>
<path fill="none" stroke="midnightblue" d="M355.42,-275.59C336.38,-265.61 310.94,-252.27 294.51,-243.65"/>
<polygon fill="midnightblue" stroke="midnightblue" points="353.97,-278.78 364.45,-280.32 357.22,-272.58 353.97,-278.78"/>
</g>
<!-- Node7 -->
<g id="node7" class="node">
<title>Node7</title>
<g id="a_node7"><a xlink:href="Game_8h.html" target="_top" xlink:title=" ">
<polygon fill="white" stroke="black" points="307,-56.5 307,-75.5 379,-75.5 379,-56.5 307,-56.5"/>
<text text-anchor="middle" x="343" y="-63.5" font-family="Helvetica,sans-Serif" font-size="10.00">src/Game.h</text>
</a>
</g>
</g>
<!-- Node1&#45;&gt;Node7 -->
<g id="edge15" class="edge">
<title>Node1&#45;&gt;Node7</title>
<path fill="none" stroke="midnightblue" d="M378.96,-270.23C375.28,-237.78 366.78,-169.17 355,-112 352.36,-99.17 348.25,-84.56 345.6,-75.56"/>
<polygon fill="midnightblue" stroke="midnightblue" points="375.51,-270.91 380.1,-280.47 382.47,-270.14 375.51,-270.91"/>
</g>
<!-- Node13 -->
<g id="node13" class="node">
<title>Node13</title>
<g id="a_node13"><a xlink:href="Menu_8h.html" target="_top" xlink:title=" ">
<polygon fill="white" stroke="black" points="415,-224.5 415,-243.5 485,-243.5 485,-224.5 415,-224.5"/>
<text text-anchor="middle" x="450" y="-231.5" font-family="Helvetica,sans-Serif" font-size="10.00">src/Menu.h</text>
</a>
</g>
</g>
<!-- Node1&#45;&gt;Node13 -->
<g id="edge16" class="edge">
<title>Node1&#45;&gt;Node13</title>
<path fill="none" stroke="midnightblue" d="M400.04,-274.1C412.46,-264.38 428.24,-252.03 438.71,-243.83"/>
<polygon fill="midnightblue" stroke="midnightblue" points="397.8,-271.4 392.09,-280.32 402.12,-276.92 397.8,-271.4"/>
</g>
<!-- Node3 -->
<g id="node3" class="node">
<title>Node3</title>
<g id="a_node3"><a xlink:href="Attacker_8cpp.html" target="_top" xlink:title=" ">
<polygon fill="white" stroke="black" points="129,-168.5 129,-187.5 223,-187.5 223,-168.5 129,-168.5"/>
<text text-anchor="middle" x="176" y="-175.5" font-family="Helvetica,sans-Serif" font-size="10.00">src/Attacker.cpp</text>
</a>
</g>
</g>
<!-- Node2&#45;&gt;Node3 -->
<g id="edge2" class="edge">
<title>Node2&#45;&gt;Node3</title>
<path fill="none" stroke="midnightblue" d="M252.67,-219.59C233.81,-209.61 208.62,-196.27 192.35,-187.65"/>
<polygon fill="midnightblue" stroke="midnightblue" points="251.14,-222.74 261.61,-224.32 254.41,-216.55 251.14,-222.74"/>
</g>
<!-- Node4 -->
<g id="node4" class="node">
<title>Node4</title>
<g id="a_node4"><a xlink:href="Player_8h.html" target="_top" xlink:title=" ">
<polygon fill="white" stroke="black" points="241.5,-168.5 241.5,-187.5 314.5,-187.5 314.5,-168.5 241.5,-168.5"/>
<text text-anchor="middle" x="278" y="-175.5" font-family="Helvetica,sans-Serif" font-size="10.00">src/Player.h</text>
</a>
</g>
</g>
<!-- Node2&#45;&gt;Node4 -->
<g id="edge3" class="edge">
<title>Node2&#45;&gt;Node4</title>
<path fill="none" stroke="midnightblue" d="M278,-213.8C278,-204.91 278,-194.78 278,-187.75"/>
<polygon fill="midnightblue" stroke="midnightblue" points="274.5,-214.08 278,-224.08 281.5,-214.08 274.5,-214.08"/>
</g>
<!-- Node2&#45;&gt;Node7 -->
<g id="edge14" class="edge">
<title>Node2&#45;&gt;Node7</title>
<path fill="none" stroke="midnightblue" d="M298.81,-217.76C307.99,-209.9 318.04,-199.56 324,-188 343.69,-149.82 344.13,-96.56 343.45,-75.78"/>
<polygon fill="midnightblue" stroke="midnightblue" points="296.36,-215.23 290.75,-224.23 300.74,-220.69 296.36,-215.23"/>
</g>
<!-- Node11 -->
<g id="node11" class="node">
<title>Node11</title>
<g id="a_node11"><a xlink:href="Tower_8h.html" target="_top" xlink:title=" ">
<polygon fill="white" stroke="black" points="39.5,-168.5 39.5,-187.5 110.5,-187.5 110.5,-168.5 39.5,-168.5"/>
<text text-anchor="middle" x="75" y="-175.5" font-family="Helvetica,sans-Serif" font-size="10.00">src/Tower.h</text>
</a>
</g>
</g>
<!-- Node2&#45;&gt;Node11 -->
<g id="edge11" class="edge">
<title>Node2&#45;&gt;Node11</title>
<path fill="none" stroke="midnightblue" d="M236.01,-221.83C197.68,-211.63 141.85,-196.78 107.02,-187.52"/>
<polygon fill="midnightblue" stroke="midnightblue" points="235.27,-225.26 245.83,-224.44 237.07,-218.49 235.27,-225.26"/>
</g>
<!-- Node5 -->
<g id="node5" class="node">
<title>Node5</title>
<g id="a_node5"><a xlink:href="Enemy_8h.html" target="_top" xlink:title=" ">
<polygon fill="white" stroke="black" points="100.5,-112.5 100.5,-131.5 175.5,-131.5 175.5,-112.5 100.5,-112.5"/>
<text text-anchor="middle" x="138" y="-119.5" font-family="Helvetica,sans-Serif" font-size="10.00">src/Enemy.h</text>
</a>
</g>
</g>
<!-- Node4&#45;&gt;Node5 -->
<g id="edge4" class="edge">
<title>Node4&#45;&gt;Node5</title>
<path fill="none" stroke="midnightblue" d="M246.3,-164.77C220,-154.63 183.28,-140.47 160.08,-131.52"/>
<polygon fill="midnightblue" stroke="midnightblue" points="245.23,-168.11 255.82,-168.44 247.75,-161.58 245.23,-168.11"/>
</g>
<!-- Node4&#45;&gt;Node7 -->
<g id="edge9" class="edge">
<title>Node4&#45;&gt;Node7</title>
<path fill="none" stroke="midnightblue" d="M288.26,-159.64C302.38,-135.74 327.26,-93.63 337.92,-75.59"/>
<polygon fill="midnightblue" stroke="midnightblue" points="285.17,-157.98 283.1,-168.37 291.2,-161.54 285.17,-157.98"/>
</g>
<!-- Node10 -->
<g id="node10" class="node">
<title>Node10</title>
<g id="a_node10"><a xlink:href="Player_8cpp.html" target="_top" xlink:title=" ">
<polygon fill="white" stroke="black" points="193,-112.5 193,-131.5 277,-131.5 277,-112.5 193,-112.5"/>
<text text-anchor="middle" x="235" y="-119.5" font-family="Helvetica,sans-Serif" font-size="10.00">src/Player.cpp</text>
</a>
</g>
</g>
<!-- Node4&#45;&gt;Node10 -->
<g id="edge10" class="edge">
<title>Node4&#45;&gt;Node10</title>
<path fill="none" stroke="midnightblue" d="M264.58,-160.14C257.09,-150.74 248.06,-139.4 241.97,-131.75"/>
<polygon fill="midnightblue" stroke="midnightblue" points="261.93,-162.44 270.9,-168.08 267.41,-158.08 261.93,-162.44"/>
</g>
<!-- Node6 -->
<g id="node6" class="node">
<title>Node6</title>
<g id="a_node6"><a xlink:href="Enemy_8cpp.html" target="_top" xlink:title=" ">
<polygon fill="white" stroke="black" points="95,-56.5 95,-75.5 181,-75.5 181,-56.5 95,-56.5"/>
<text text-anchor="middle" x="138" y="-63.5" font-family="Helvetica,sans-Serif" font-size="10.00">src/Enemy.cpp</text>
</a>
</g>
</g>
<!-- Node5&#45;&gt;Node6 -->
<g id="edge5" class="edge">
<title>Node5&#45;&gt;Node6</title>
<path fill="none" stroke="midnightblue" d="M138,-101.8C138,-92.91 138,-82.78 138,-75.75"/>
<polygon fill="midnightblue" stroke="midnightblue" points="134.5,-102.08 138,-112.08 141.5,-102.08 134.5,-102.08"/>
</g>
<!-- Node5&#45;&gt;Node7 -->
<g id="edge6" class="edge">
<title>Node5&#45;&gt;Node7</title>
<path fill="none" stroke="midnightblue" d="M180.41,-109.83C219.11,-99.63 275.49,-84.78 310.67,-75.52"/>
<polygon fill="midnightblue" stroke="midnightblue" points="179.26,-106.51 170.48,-112.44 181.04,-113.28 179.26,-106.51"/>
</g>
<!-- Node8 -->
<g id="node8" class="node">
<title>Node8</title>
<g id="a_node8"><a xlink:href="Game_8cpp.html" target="_top" xlink:title=" ">
<polygon fill="white" stroke="black" points="251.5,-0.5 251.5,-19.5 334.5,-19.5 334.5,-0.5 251.5,-0.5"/>
<text text-anchor="middle" x="293" y="-7.5" font-family="Helvetica,sans-Serif" font-size="10.00">src/Game.cpp</text>
</a>
</g>
</g>
<!-- Node7&#45;&gt;Node8 -->
<g id="edge7" class="edge">
<title>Node7&#45;&gt;Node8</title>
<path fill="none" stroke="midnightblue" d="M327.92,-48.72C319.11,-39.2 308.33,-27.56 301.1,-19.75"/>
<polygon fill="midnightblue" stroke="midnightblue" points="325.38,-51.12 334.74,-56.08 330.52,-46.37 325.38,-51.12"/>
</g>
<!-- Node9 -->
<g id="node9" class="node">
<title>Node9</title>
<g id="a_node9"><a xlink:href="main_8cpp.html" target="_top" xlink:title=" ">
<polygon fill="white" stroke="black" points="352.5,-0.5 352.5,-19.5 431.5,-19.5 431.5,-0.5 352.5,-0.5"/>
<text text-anchor="middle" x="392" y="-7.5" font-family="Helvetica,sans-Serif" font-size="10.00">src/main.cpp</text>
</a>
</g>
</g>
<!-- Node7&#45;&gt;Node9 -->
<g id="edge8" class="edge">
<title>Node7&#45;&gt;Node9</title>
<path fill="none" stroke="midnightblue" d="M358.03,-48.43C366.62,-38.97 377.04,-27.48 384.06,-19.75"/>
<polygon fill="midnightblue" stroke="midnightblue" points="355.22,-46.33 351.09,-56.08 360.4,-51.03 355.22,-46.33"/>
</g>
<!-- Node11&#45;&gt;Node5 -->
<g id="edge12" class="edge">
<title>Node11&#45;&gt;Node5</title>
<path fill="none" stroke="midnightblue" d="M93.04,-161.54C104.27,-151.91 118.32,-139.87 127.69,-131.83"/>
<polygon fill="midnightblue" stroke="midnightblue" points="90.44,-159.16 85.12,-168.32 94.99,-164.47 90.44,-159.16"/>
</g>
<!-- Node12 -->
<g id="node12" class="node">
<title>Node12</title>
<g id="a_node12"><a xlink:href="Tower_8cpp.html" target="_top" xlink:title=" ">
<polygon fill="white" stroke="black" points="0,-112.5 0,-131.5 82,-131.5 82,-112.5 0,-112.5"/>
<text text-anchor="middle" x="41" y="-119.5" font-family="Helvetica,sans-Serif" font-size="10.00">src/Tower.cpp</text>
</a>
</g>
</g>
<!-- Node11&#45;&gt;Node12 -->
<g id="edge13" class="edge">
<title>Node11&#45;&gt;Node12</title>
<path fill="none" stroke="midnightblue" d="M64.02,-159.57C58.17,-150.27 51.23,-139.25 46.51,-131.75"/>
<polygon fill="midnightblue" stroke="midnightblue" points="61.1,-161.49 69.39,-168.08 67.02,-157.76 61.1,-161.49"/>
</g>
<!-- Node13&#45;&gt;Node7 -->
<g id="edge17" class="edge">
<title>Node13&#45;&gt;Node7</title>
<path fill="none" stroke="midnightblue" d="M473.44,-218.75C490.99,-206.16 510.32,-186.9 500,-168 472.52,-117.65 407.99,-88.64 370.77,-75.53"/>
<polygon fill="midnightblue" stroke="midnightblue" points="471.45,-215.88 465.11,-224.37 475.36,-221.68 471.45,-215.88"/>
</g>
<!-- Node14 -->
<g id="node14" class="node">
<title>Node14</title>
<g id="a_node14"><a xlink:href="Menu_8cpp.html" target="_top" xlink:title=" ">
<polygon fill="white" stroke="black" points="409.5,-168.5 409.5,-187.5 490.5,-187.5 490.5,-168.5 409.5,-168.5"/>
<text text-anchor="middle" x="450" y="-175.5" font-family="Helvetica,sans-Serif" font-size="10.00">src/Menu.cpp</text>
</a>
</g>
</g>
<!-- Node13&#45;&gt;Node14 -->
<g id="edge18" class="edge">
<title>Node13&#45;&gt;Node14</title>
<path fill="none" stroke="midnightblue" d="M450,-213.8C450,-204.91 450,-194.78 450,-187.75"/>
<polygon fill="midnightblue" stroke="midnightblue" points="446.5,-214.08 450,-224.08 453.5,-214.08 446.5,-214.08"/>
</g>
</g>
</svg>
