<?xml version="1.0" encoding="UTF-8" standalone="no"?>
<!DOCTYPE svg PUBLIC "-//W3C//DTD SVG 1.1//EN"
 "http://www.w3.org/Graphics/SVG/1.1/DTD/svg11.dtd">
<!-- Generated by graphviz version 2.43.0 (0)
 -->
<!-- Title: src/HelpStructs.h Pages: 1 -->
<svg width="640pt" height="420pt"
 viewBox="0.00 0.00 639.50 420.00" xmlns="http://www.w3.org/2000/svg" xmlns:xlink="http://www.w3.org/1999/xlink">
<g id="graph0" class="graph" transform="scale(1 1) rotate(0) translate(4 416)">
<title>src/HelpStructs.h</title>
<polygon fill="white" stroke="transparent" points="-4,4 -4,-416 635.5,-416 635.5,4 -4,4"/>
<!-- Node1 -->
<g id="node1" class="node">
<title>Node1</title>
<g id="a_node1"><a xlink:title=" ">
<polygon fill="#bfbfbf" stroke="black" points="418.5,-392.5 418.5,-411.5 517.5,-411.5 517.5,-392.5 418.5,-392.5"/>
<text text-anchor="middle" x="468" y="-399.5" font-family="Helvetica,sans-Serif" font-size="10.00">src/HelpStructs.h</text>
</a>
</g>
</g>
<!-- Node2 -->
<g id="node2" class="node">
<title>Node2</title>
<g id="a_node2"><a xlink:href="Entity_8h.html" target="_top" xlink:title=" ">
<polygon fill="white" stroke="black" points="171,-336.5 171,-355.5 241,-355.5 241,-336.5 171,-336.5"/>
<text text-anchor="middle" x="206" y="-343.5" font-family="Helvetica,sans-Serif" font-size="10.00">src/Entity.h</text>
</a>
</g>
</g>
<!-- Node1&#45;&gt;Node2 -->
<g id="edge1" class="edge">
<title>Node1&#45;&gt;Node2</title>
<path fill="none" stroke="midnightblue" d="M416.49,-390.38C364.64,-379.7 286.07,-363.5 241.03,-354.22"/>
<polygon fill="midnightblue" stroke="midnightblue" points="415.98,-393.85 426.49,-392.44 417.4,-387 415.98,-393.85"/>
</g>
<!-- Node3 -->
<g id="node3" class="node">
<title>Node3</title>
<g id="a_node3"><a xlink:href="Attacker_8h.html" target="_top" xlink:title=" ">
<polygon fill="white" stroke="black" points="342.5,-224.5 342.5,-243.5 425.5,-243.5 425.5,-224.5 342.5,-224.5"/>
<text text-anchor="middle" x="384" y="-231.5" font-family="Helvetica,sans-Serif" font-size="10.00">src/Attacker.h</text>
</a>
</g>
</g>
<!-- Node1&#45;&gt;Node3 -->
<g id="edge27" class="edge">
<title>Node1&#45;&gt;Node3</title>
<path fill="none" stroke="midnightblue" d="M458.82,-382.86C440.8,-347.25 401.43,-269.45 388.34,-243.57"/>
<polygon fill="midnightblue" stroke="midnightblue" points="455.85,-384.73 463.48,-392.08 462.09,-381.57 455.85,-384.73"/>
</g>
<!-- Node8 -->
<g id="node8" class="node">
<title>Node8</title>
<g id="a_node8"><a xlink:href="Game_8h.html" target="_top" xlink:title=" ">
<polygon fill="white" stroke="black" points="375,-56.5 375,-75.5 447,-75.5 447,-56.5 375,-56.5"/>
<text text-anchor="middle" x="411" y="-63.5" font-family="Helvetica,sans-Serif" font-size="10.00">src/Game.h</text>
</a>
</g>
</g>
<!-- Node1&#45;&gt;Node8 -->
<g id="edge28" class="edge">
<title>Node1&#45;&gt;Node8</title>
<path fill="none" stroke="midnightblue" d="M472.39,-382.34C477.13,-360.56 484,-323.37 484,-291 484,-291 484,-291 484,-177 484,-132.76 442.51,-92.71 422.09,-75.67"/>
<polygon fill="midnightblue" stroke="midnightblue" points="468.95,-381.7 470.16,-392.22 475.78,-383.24 468.95,-381.7"/>
</g>
<!-- Node17 -->
<g id="node17" class="node">
<title>Node17</title>
<g id="a_node17"><a xlink:href="Menu_8h.html" target="_top" xlink:title=" ">
<polygon fill="white" stroke="black" points="512,-336.5 512,-355.5 582,-355.5 582,-336.5 512,-336.5"/>
<text text-anchor="middle" x="547" y="-343.5" font-family="Helvetica,sans-Serif" font-size="10.00">src/Menu.h</text>
</a>
</g>
</g>
<!-- Node1&#45;&gt;Node17 -->
<g id="edge29" class="edge">
<title>Node1&#45;&gt;Node17</title>
<path fill="none" stroke="midnightblue" d="M489.03,-386.62C503.47,-376.76 522.14,-363.99 534.34,-355.65"/>
<polygon fill="midnightblue" stroke="midnightblue" points="486.97,-383.79 480.69,-392.32 490.92,-389.57 486.97,-383.79"/>
</g>
<!-- Node2&#45;&gt;Node3 -->
<g id="edge2" class="edge">
<title>Node2&#45;&gt;Node3</title>
<path fill="none" stroke="midnightblue" d="M251.14,-335.9C277.13,-329.09 309.41,-317.8 334,-300 355.22,-284.64 371.77,-257.78 379.4,-243.89"/>
<polygon fill="midnightblue" stroke="midnightblue" points="250.02,-332.57 241.16,-338.38 251.71,-339.37 250.02,-332.57"/>
</g>
<!-- Node5 -->
<g id="node5" class="node">
<title>Node5</title>
<g id="a_node5"><a xlink:href="Player_8h.html" target="_top" xlink:title=" ">
<polygon fill="white" stroke="black" points="232.5,-168.5 232.5,-187.5 305.5,-187.5 305.5,-168.5 232.5,-168.5"/>
<text text-anchor="middle" x="269" y="-175.5" font-family="Helvetica,sans-Serif" font-size="10.00">src/Player.h</text>
</a>
</g>
</g>
<!-- Node2&#45;&gt;Node5 -->
<g id="edge23" class="edge">
<title>Node2&#45;&gt;Node5</title>
<path fill="none" stroke="midnightblue" d="M250.9,-334.8C269.42,-328.14 289.08,-317.34 300,-300 323.46,-262.75 290.22,-208.49 275.45,-187.62"/>
<polygon fill="midnightblue" stroke="midnightblue" points="249.78,-331.48 241.36,-337.92 251.96,-338.14 249.78,-331.48"/>
</g>
<!-- Node12 -->
<g id="node12" class="node">
<title>Node12</title>
<g id="a_node12"><a xlink:href="Tower_8h.html" target="_top" xlink:title=" ">
<polygon fill="white" stroke="black" points="36.5,-168.5 36.5,-187.5 107.5,-187.5 107.5,-168.5 36.5,-168.5"/>
<text text-anchor="middle" x="72" y="-175.5" font-family="Helvetica,sans-Serif" font-size="10.00">src/Tower.h</text>
</a>
</g>
</g>
<!-- Node2&#45;&gt;Node12 -->
<g id="edge24" class="edge">
<title>Node2&#45;&gt;Node12</title>
<path fill="none" stroke="midnightblue" d="M165.74,-333.15C127.01,-319.14 71.66,-291.52 53,-244 45.26,-224.3 57.8,-200.17 65.93,-187.58"/>
<polygon fill="midnightblue" stroke="midnightblue" points="164.6,-336.46 175.19,-336.42 166.89,-329.84 164.6,-336.46"/>
</g>
<!-- Node14 -->
<g id="node14" class="node">
<title>Node14</title>
<g id="a_node14"><a xlink:href="Map_8h.html" target="_top" xlink:title=" ">
<polygon fill="white" stroke="black" points="128,-280.5 128,-299.5 192,-299.5 192,-280.5 128,-280.5"/>
<text text-anchor="middle" x="160" y="-287.5" font-family="Helvetica,sans-Serif" font-size="10.00">src/Map.h</text>
</a>
</g>
</g>
<!-- Node2&#45;&gt;Node14 -->
<g id="edge16" class="edge">
<title>Node2&#45;&gt;Node14</title>
<path fill="none" stroke="midnightblue" d="M186.39,-329.25C177.23,-319.67 167.46,-307.79 162.38,-299.83"/>
<polygon fill="midnightblue" stroke="midnightblue" points="183.94,-331.75 193.49,-336.32 188.87,-326.79 183.94,-331.75"/>
</g>
<!-- Node15 -->
<g id="node15" class="node">
<title>Node15</title>
<g id="a_node15"><a xlink:href="Map_8cpp.html" target="_top" xlink:title=" ">
<polygon fill="white" stroke="black" points="62.5,-224.5 62.5,-243.5 137.5,-243.5 137.5,-224.5 62.5,-224.5"/>
<text text-anchor="middle" x="100" y="-231.5" font-family="Helvetica,sans-Serif" font-size="10.00">src/Map.cpp</text>
</a>
</g>
</g>
<!-- Node2&#45;&gt;Node15 -->
<g id="edge26" class="edge">
<title>Node2&#45;&gt;Node15</title>
<path fill="none" stroke="midnightblue" d="M166.63,-332.58C149.82,-325.47 131.29,-314.92 119,-300 105.25,-283.3 101.45,-257.03 100.4,-243.57"/>
<polygon fill="midnightblue" stroke="midnightblue" points="165.68,-335.96 176.26,-336.37 168.24,-329.45 165.68,-335.96"/>
</g>
<!-- Node16 -->
<g id="node16" class="node">
<title>Node16</title>
<g id="a_node16"><a xlink:href="Entity_8cpp.html" target="_top" xlink:title=" ">
<polygon fill="white" stroke="black" points="210.5,-280.5 210.5,-299.5 291.5,-299.5 291.5,-280.5 210.5,-280.5"/>
<text text-anchor="middle" x="251" y="-287.5" font-family="Helvetica,sans-Serif" font-size="10.00">src/Entity.cpp</text>
</a>
</g>
</g>
<!-- Node2&#45;&gt;Node16 -->
<g id="edge25" class="edge">
<title>Node2&#45;&gt;Node16</title>
<path fill="none" stroke="midnightblue" d="M220.05,-328.14C227.89,-318.74 237.33,-307.4 243.71,-299.75"/>
<polygon fill="midnightblue" stroke="midnightblue" points="217.14,-326.16 213.43,-336.08 222.52,-330.64 217.14,-326.16"/>
</g>
<!-- Node4 -->
<g id="node4" class="node">
<title>Node4</title>
<g id="a_node4"><a xlink:href="Attacker_8cpp.html" target="_top" xlink:title=" ">
<polygon fill="white" stroke="black" points="324,-168.5 324,-187.5 418,-187.5 418,-168.5 324,-168.5"/>
<text text-anchor="middle" x="371" y="-175.5" font-family="Helvetica,sans-Serif" font-size="10.00">src/Attacker.cpp</text>
</a>
</g>
</g>
<!-- Node3&#45;&gt;Node4 -->
<g id="edge3" class="edge">
<title>Node3&#45;&gt;Node4</title>
<path fill="none" stroke="midnightblue" d="M379.45,-214.1C377.29,-205.14 374.82,-194.86 373.11,-187.75"/>
<polygon fill="midnightblue" stroke="midnightblue" points="376.11,-215.18 381.85,-224.08 382.92,-213.54 376.11,-215.18"/>
</g>
<!-- Node3&#45;&gt;Node5 -->
<g id="edge4" class="edge">
<title>Node3&#45;&gt;Node5</title>
<path fill="none" stroke="midnightblue" d="M356.52,-220.1C335.03,-210.01 305.78,-196.27 287.14,-187.52"/>
<polygon fill="midnightblue" stroke="midnightblue" points="355.24,-223.36 365.78,-224.44 358.21,-217.02 355.24,-223.36"/>
</g>
<!-- Node3&#45;&gt;Node8 -->
<g id="edge15" class="edge">
<title>Node3&#45;&gt;Node8</title>
<path fill="none" stroke="midnightblue" d="M404.24,-217.86C413.01,-210.03 422.32,-199.67 427,-188 442.93,-148.27 423.76,-95.9 414.96,-75.58"/>
<polygon fill="midnightblue" stroke="midnightblue" points="401.95,-215.22 396.5,-224.3 406.42,-220.6 401.95,-215.22"/>
</g>
<!-- Node3&#45;&gt;Node12 -->
<g id="edge12" class="edge">
<title>Node3&#45;&gt;Node12</title>
<path fill="none" stroke="midnightblue" d="M332.05,-224.01C268.54,-213.02 162.74,-194.71 107.71,-185.18"/>
<polygon fill="midnightblue" stroke="midnightblue" points="331.8,-227.52 342.25,-225.77 332.99,-220.62 331.8,-227.52"/>
</g>
<!-- Node6 -->
<g id="node6" class="node">
<title>Node6</title>
<g id="a_node6"><a xlink:href="Enemy_8h.html" target="_top" xlink:title=" ">
<polygon fill="white" stroke="black" points="100.5,-112.5 100.5,-131.5 175.5,-131.5 175.5,-112.5 100.5,-112.5"/>
<text text-anchor="middle" x="138" y="-119.5" font-family="Helvetica,sans-Serif" font-size="10.00">src/Enemy.h</text>
</a>
</g>
</g>
<!-- Node5&#45;&gt;Node6 -->
<g id="edge5" class="edge">
<title>Node5&#45;&gt;Node6</title>
<path fill="none" stroke="midnightblue" d="M238.68,-164.5C214.12,-154.38 180.18,-140.39 158.66,-131.52"/>
<polygon fill="midnightblue" stroke="midnightblue" points="237.66,-167.87 248.24,-168.44 240.33,-161.4 237.66,-167.87"/>
</g>
<!-- Node5&#45;&gt;Node8 -->
<g id="edge10" class="edge">
<title>Node5&#45;&gt;Node8</title>
<path fill="none" stroke="midnightblue" d="M288.21,-162.12C318.35,-138.77 375.8,-94.27 399.91,-75.59"/>
<polygon fill="midnightblue" stroke="midnightblue" points="285.9,-159.48 280.14,-168.37 290.19,-165.01 285.9,-159.48"/>
</g>
<!-- Node11 -->
<g id="node11" class="node">
<title>Node11</title>
<g id="a_node11"><a xlink:href="Player_8cpp.html" target="_top" xlink:title=" ">
<polygon fill="white" stroke="black" points="232,-112.5 232,-131.5 316,-131.5 316,-112.5 232,-112.5"/>
<text text-anchor="middle" x="274" y="-119.5" font-family="Helvetica,sans-Serif" font-size="10.00">src/Player.cpp</text>
</a>
</g>
</g>
<!-- Node5&#45;&gt;Node11 -->
<g id="edge11" class="edge">
<title>Node5&#45;&gt;Node11</title>
<path fill="none" stroke="midnightblue" d="M270.75,-158.1C271.58,-149.14 272.53,-138.86 273.19,-131.75"/>
<polygon fill="midnightblue" stroke="midnightblue" points="267.26,-157.8 269.83,-168.08 274.23,-158.45 267.26,-157.8"/>
</g>
<!-- Node7 -->
<g id="node7" class="node">
<title>Node7</title>
<g id="a_node7"><a xlink:href="Enemy_8cpp.html" target="_top" xlink:title=" ">
<polygon fill="white" stroke="black" points="95,-56.5 95,-75.5 181,-75.5 181,-56.5 95,-56.5"/>
<text text-anchor="middle" x="138" y="-63.5" font-family="Helvetica,sans-Serif" font-size="10.00">src/Enemy.cpp</text>
</a>
</g>
</g>
<!-- Node6&#45;&gt;Node7 -->
<g id="edge6" class="edge">
<title>Node6&#45;&gt;Node7</title>
<path fill="none" stroke="midnightblue" d="M138,-101.8C138,-92.91 138,-82.78 138,-75.75"/>
<polygon fill="midnightblue" stroke="midnightblue" points="134.5,-102.08 138,-112.08 141.5,-102.08 134.5,-102.08"/>
</g>
<!-- Node6&#45;&gt;Node8 -->
<g id="edge7" class="edge">
<title>Node6&#45;&gt;Node8</title>
<path fill="none" stroke="midnightblue" d="M185.65,-111.57C239.48,-100.93 325.89,-83.83 374.58,-74.2"/>
<polygon fill="midnightblue" stroke="midnightblue" points="184.8,-108.17 175.67,-113.55 186.16,-115.04 184.8,-108.17"/>
</g>
<!-- Node9 -->
<g id="node9" class="node">
<title>Node9</title>
<g id="a_node9"><a xlink:href="Game_8cpp.html" target="_top" xlink:title=" ">
<polygon fill="white" stroke="black" points="319.5,-0.5 319.5,-19.5 402.5,-19.5 402.5,-0.5 319.5,-0.5"/>
<text text-anchor="middle" x="361" y="-7.5" font-family="Helvetica,sans-Serif" font-size="10.00">src/Game.cpp</text>
</a>
</g>
</g>
<!-- Node8&#45;&gt;Node9 -->
<g id="edge8" class="edge">
<title>Node8&#45;&gt;Node9</title>
<path fill="none" stroke="midnightblue" d="M395.92,-48.72C387.11,-39.2 376.33,-27.56 369.1,-19.75"/>
<polygon fill="midnightblue" stroke="midnightblue" points="393.38,-51.12 402.74,-56.08 398.52,-46.37 393.38,-51.12"/>
</g>
<!-- Node10 -->
<g id="node10" class="node">
<title>Node10</title>
<g id="a_node10"><a xlink:href="main_8cpp.html" target="_top" xlink:title=" ">
<polygon fill="white" stroke="black" points="420.5,-0.5 420.5,-19.5 499.5,-19.5 499.5,-0.5 420.5,-0.5"/>
<text text-anchor="middle" x="460" y="-7.5" font-family="Helvetica,sans-Serif" font-size="10.00">src/main.cpp</text>
</a>
</g>
</g>
<!-- Node8&#45;&gt;Node10 -->
<g id="edge9" class="edge">
<title>Node8&#45;&gt;Node10</title>
<path fill="none" stroke="midnightblue" d="M426.03,-48.43C434.62,-38.97 445.04,-27.48 452.06,-19.75"/>
<polygon fill="midnightblue" stroke="midnightblue" points="423.22,-46.33 419.09,-56.08 428.4,-51.03 423.22,-46.33"/>
</g>
<!-- Node12&#45;&gt;Node6 -->
<g id="edge13" class="edge">
<title>Node12&#45;&gt;Node6</title>
<path fill="none" stroke="midnightblue" d="M90.55,-161.82C102.38,-152.15 117.29,-139.95 127.2,-131.83"/>
<polygon fill="midnightblue" stroke="midnightblue" points="88.13,-159.28 82.6,-168.32 92.56,-164.7 88.13,-159.28"/>
</g>
<!-- Node13 -->
<g id="node13" class="node">
<title>Node13</title>
<g id="a_node13"><a xlink:href="Tower_8cpp.html" target="_top" xlink:title=" ">
<polygon fill="white" stroke="black" points="0,-112.5 0,-131.5 82,-131.5 82,-112.5 0,-112.5"/>
<text text-anchor="middle" x="41" y="-119.5" font-family="Helvetica,sans-Serif" font-size="10.00">src/Tower.cpp</text>
</a>
</g>
</g>
<!-- Node12&#45;&gt;Node13 -->
<g id="edge14" class="edge">
<title>Node12&#45;&gt;Node13</title>
<path fill="none" stroke="midnightblue" d="M61.82,-159.27C56.53,-150.05 50.28,-139.17 46.02,-131.75"/>
<polygon fill="midnightblue" stroke="midnightblue" points="58.87,-161.15 66.88,-168.08 64.94,-157.67 58.87,-161.15"/>
</g>
<!-- Node14&#45;&gt;Node2 -->
<g id="edge17" class="edge">
<title>Node14&#45;&gt;Node2</title>
<path fill="none" stroke="midnightblue" d="M179.93,-307.08C188.96,-316.57 198.53,-328.22 203.57,-336.08"/>
<polygon fill="midnightblue" stroke="midnightblue" points="182.14,-304.34 172.59,-299.75 177.19,-309.29 182.14,-304.34"/>
</g>
<!-- Node14&#45;&gt;Node3 -->
<g id="edge18" class="edge">
<title>Node14&#45;&gt;Node3</title>
<path fill="none" stroke="midnightblue" d="M202.08,-278.86C244.39,-268.66 308.89,-253.11 348.64,-243.52"/>
<polygon fill="midnightblue" stroke="midnightblue" points="200.99,-275.52 192.09,-281.26 202.64,-282.32 200.99,-275.52"/>
</g>
<!-- Node14&#45;&gt;Node5 -->
<g id="edge19" class="edge">
<title>Node14&#45;&gt;Node5</title>
<path fill="none" stroke="midnightblue" d="M181.67,-274.15C193.04,-265.89 206.88,-255.06 218,-244 236.51,-225.59 254.48,-200.5 263.32,-187.54"/>
<polygon fill="midnightblue" stroke="midnightblue" points="179.31,-271.54 173.18,-280.18 183.36,-277.24 179.31,-271.54"/>
</g>
<!-- Node14&#45;&gt;Node6 -->
<g id="edge20" class="edge">
<title>Node14&#45;&gt;Node6</title>
<path fill="none" stroke="midnightblue" d="M157.47,-269.93C152.7,-233.92 142.54,-157.23 139.14,-131.57"/>
<polygon fill="midnightblue" stroke="midnightblue" points="154.03,-270.62 158.82,-280.08 160.97,-269.7 154.03,-270.62"/>
</g>
<!-- Node14&#45;&gt;Node8 -->
<g id="edge21" class="edge">
<title>Node14&#45;&gt;Node8</title>
<path fill="none" stroke="midnightblue" d="M164.22,-270.54C173.89,-229.74 198.71,-133.82 223,-112 245.1,-92.15 326.51,-78.24 374.65,-71.54"/>
<polygon fill="midnightblue" stroke="midnightblue" points="160.76,-269.94 161.9,-280.47 167.58,-271.53 160.76,-269.94"/>
</g>
<!-- Node14&#45;&gt;Node15 -->
<g id="edge22" class="edge">
<title>Node14&#45;&gt;Node15</title>
<path fill="none" stroke="midnightblue" d="M142.82,-273.54C132.12,-263.91 118.74,-251.87 109.82,-243.83"/>
<polygon fill="midnightblue" stroke="midnightblue" points="140.59,-276.24 150.36,-280.32 145.27,-271.03 140.59,-276.24"/>
</g>
<!-- Node17&#45;&gt;Node8 -->
<g id="edge30" class="edge">
<title>Node17&#45;&gt;Node8</title>
<path fill="none" stroke="midnightblue" d="M540.24,-326.81C532.83,-305.23 522,-268 522,-235 522,-235 522,-235 522,-177 522,-146.2 518.39,-135.08 498,-112 482.35,-94.29 458.05,-82.54 439.1,-75.51"/>
<polygon fill="midnightblue" stroke="midnightblue" points="536.97,-328.07 543.63,-336.31 543.57,-325.72 536.97,-328.07"/>
</g>
<!-- Node18 -->
<g id="node18" class="node">
<title>Node18</title>
<g id="a_node18"><a xlink:href="Menu_8cpp.html" target="_top" xlink:title=" ">
<polygon fill="white" stroke="black" points="550.5,-280.5 550.5,-299.5 631.5,-299.5 631.5,-280.5 550.5,-280.5"/>
<text text-anchor="middle" x="591" y="-287.5" font-family="Helvetica,sans-Serif" font-size="10.00">src/Menu.cpp</text>
</a>
</g>
</g>
<!-- Node17&#45;&gt;Node18 -->
<g id="edge31" class="edge">
<title>Node17&#45;&gt;Node18</title>
<path fill="none" stroke="midnightblue" d="M560.73,-328.14C568.4,-318.74 577.63,-307.4 583.87,-299.75"/>
<polygon fill="midnightblue" stroke="midnightblue" points="557.87,-326.12 554.27,-336.08 563.3,-330.54 557.87,-326.12"/>
</g>
</g>
</svg>
