<?xml version="1.0" encoding="UTF-8" standalone="no"?>
<!DOCTYPE svg PUBLIC "-//W3C//DTD SVG 1.1//EN"
 "http://www.w3.org/Graphics/SVG/1.1/DTD/svg11.dtd">
<!-- Generated by graphviz version 2.43.0 (0)
 -->
<!-- Title: Graphical Class Hierarchy Pages: 1 -->
<svg width="289pt" height="218pt"
 viewBox="0.00 0.00 289.00 218.00" xmlns="http://www.w3.org/2000/svg" xmlns:xlink="http://www.w3.org/1999/xlink">
<g id="graph0" class="graph" transform="scale(1 1) rotate(0) translate(4 214)">
<title>Graphical Class Hierarchy</title>
<polygon fill="white" stroke="transparent" points="-4,4 -4,-214 285,-214 285,4 -4,4"/>
<!-- Node0 -->
<g id="node1" class="node">
<title>Node0</title>
<g id="a_node1"><a xlink:href="classEntity.html" target="_top" xlink:title=" ">
<polygon fill="white" stroke="black" points="0,-85.5 0,-104.5 45,-104.5 45,-85.5 0,-85.5"/>
<text text-anchor="middle" x="22.5" y="-92.5" font-family="Helvetica,sans-Serif" font-size="10.00">Entity</text>
</a>
</g>
</g>
<!-- Node1 -->
<g id="node2" class="node">
<title>Node1</title>
<g id="a_node2"><a xlink:href="classAttacker.html" target="_top" xlink:title=" ">
<polygon fill="white" stroke="black" points="81,-123.5 81,-142.5 138,-142.5 138,-123.5 81,-123.5"/>
<text text-anchor="middle" x="109.5" y="-130.5" font-family="Helvetica,sans-Serif" font-size="10.00">Attacker</text>
</a>
</g>
</g>
<!-- Node0&#45;&gt;Node1 -->
<g id="edge1" class="edge">
<title>Node0&#45;&gt;Node1</title>
<path fill="none" stroke="midnightblue" d="M54.16,-108.71C65.06,-113.58 77.09,-118.96 87.06,-123.41"/>
<polygon fill="midnightblue" stroke="midnightblue" points="55.51,-105.48 44.95,-104.59 52.65,-111.87 55.51,-105.48"/>
</g>
<!-- Node5 -->
<g id="node6" class="node">
<title>Node5</title>
<g id="a_node6"><a xlink:href="classTower.html" target="_top" xlink:title=" ">
<polygon fill="white" stroke="black" points="87,-66.5 87,-85.5 132,-85.5 132,-66.5 87,-66.5"/>
<text text-anchor="middle" x="109.5" y="-73.5" font-family="Helvetica,sans-Serif" font-size="10.00">Tower</text>
</a>
</g>
</g>
<!-- Node0&#45;&gt;Node5 -->
<g id="edge5" class="edge">
<title>Node0&#45;&gt;Node5</title>
<path fill="none" stroke="midnightblue" d="M55.17,-87.92C65.77,-85.55 77.34,-82.97 86.98,-80.81"/>
<polygon fill="midnightblue" stroke="midnightblue" points="54.39,-84.51 45.39,-90.11 55.91,-91.34 54.39,-84.51"/>
</g>
<!-- Node2 -->
<g id="node3" class="node">
<title>Node2</title>
<g id="a_node3"><a xlink:href="classbasicAttacker.html" target="_top" xlink:title=" ">
<polygon fill="white" stroke="black" points="186,-190.5 186,-209.5 269,-209.5 269,-190.5 186,-190.5"/>
<text text-anchor="middle" x="227.5" y="-197.5" font-family="Helvetica,sans-Serif" font-size="10.00">basicAttacker</text>
</a>
</g>
</g>
<!-- Node1&#45;&gt;Node2 -->
<g id="edge2" class="edge">
<title>Node1&#45;&gt;Node2</title>
<path fill="none" stroke="midnightblue" d="M128.69,-149.1C140.87,-159.26 157.62,-172.11 174,-181 180.64,-184.61 188.11,-187.78 195.29,-190.45"/>
<polygon fill="midnightblue" stroke="midnightblue" points="130.93,-146.4 121.05,-142.57 126.38,-151.73 130.93,-146.4"/>
</g>
<!-- Node3 -->
<g id="node4" class="node">
<title>Node3</title>
<g id="a_node4"><a xlink:href="classchargerAttacker.html" target="_top" xlink:title=" ">
<polygon fill="white" stroke="black" points="180.5,-152.5 180.5,-171.5 274.5,-171.5 274.5,-152.5 180.5,-152.5"/>
<text text-anchor="middle" x="227.5" y="-159.5" font-family="Helvetica,sans-Serif" font-size="10.00">chargerAttacker</text>
</a>
</g>
</g>
<!-- Node1&#45;&gt;Node3 -->
<g id="edge3" class="edge">
<title>Node1&#45;&gt;Node3</title>
<path fill="none" stroke="midnightblue" d="M148.23,-142.43C161.11,-145.65 175.51,-149.25 188.42,-152.48"/>
<polygon fill="midnightblue" stroke="midnightblue" points="148.84,-138.98 138.28,-139.95 147.14,-145.77 148.84,-138.98"/>
</g>
<!-- Node4 -->
<g id="node5" class="node">
<title>Node4</title>
<g id="a_node5"><a xlink:href="classFastAttacker.html" target="_top" xlink:title=" ">
<polygon fill="white" stroke="black" points="189,-114.5 189,-133.5 266,-133.5 266,-114.5 189,-114.5"/>
<text text-anchor="middle" x="227.5" y="-121.5" font-family="Helvetica,sans-Serif" font-size="10.00">FastAttacker</text>
</a>
</g>
</g>
<!-- Node1&#45;&gt;Node4 -->
<g id="edge4" class="edge">
<title>Node1&#45;&gt;Node4</title>
<path fill="none" stroke="midnightblue" d="M148.32,-130.07C161.32,-129.06 175.87,-127.93 188.85,-126.92"/>
<polygon fill="midnightblue" stroke="midnightblue" points="147.98,-126.58 138.28,-130.84 148.53,-133.56 147.98,-126.58"/>
</g>
<!-- Node6 -->
<g id="node7" class="node">
<title>Node6</title>
<g id="a_node7"><a xlink:href="classfastTower.html" target="_top" xlink:title=" ">
<polygon fill="white" stroke="black" points="195.5,-76.5 195.5,-95.5 259.5,-95.5 259.5,-76.5 195.5,-76.5"/>
<text text-anchor="middle" x="227.5" y="-83.5" font-family="Helvetica,sans-Serif" font-size="10.00">fastTower</text>
</a>
</g>
</g>
<!-- Node5&#45;&gt;Node6 -->
<g id="edge6" class="edge">
<title>Node5&#45;&gt;Node6</title>
<path fill="none" stroke="midnightblue" d="M142.32,-78.74C158.87,-80.17 179.01,-81.91 195.44,-83.32"/>
<polygon fill="midnightblue" stroke="midnightblue" points="142.31,-75.23 132.05,-77.86 141.71,-82.2 142.31,-75.23"/>
</g>
<!-- Node7 -->
<g id="node8" class="node">
<title>Node7</title>
<g id="a_node8"><a xlink:href="classhighDamageTower.html" target="_top" xlink:title=" ">
<polygon fill="white" stroke="black" points="174,-38.5 174,-57.5 281,-57.5 281,-38.5 174,-38.5"/>
<text text-anchor="middle" x="227.5" y="-45.5" font-family="Helvetica,sans-Serif" font-size="10.00">highDamageTower</text>
</a>
</g>
</g>
<!-- Node5&#45;&gt;Node7 -->
<g id="edge7" class="edge">
<title>Node5&#45;&gt;Node7</title>
<path fill="none" stroke="midnightblue" d="M142.03,-68.39C155.82,-65.06 172.15,-61.12 186.76,-57.59"/>
<polygon fill="midnightblue" stroke="midnightblue" points="140.95,-65.05 132.05,-70.8 142.59,-71.85 140.95,-65.05"/>
</g>
<!-- Node8 -->
<g id="node9" class="node">
<title>Node8</title>
<g id="a_node9"><a xlink:href="classslowEffectTower.html" target="_top" xlink:title=" ">
<polygon fill="white" stroke="black" points="180,-0.5 180,-19.5 275,-19.5 275,-0.5 180,-0.5"/>
<text text-anchor="middle" x="227.5" y="-7.5" font-family="Helvetica,sans-Serif" font-size="10.00">slowEffectTower</text>
</a>
</g>
</g>
<!-- Node5&#45;&gt;Node8 -->
<g id="edge8" class="edge">
<title>Node5&#45;&gt;Node8</title>
<path fill="none" stroke="midnightblue" d="M129.54,-59.62C141.67,-49.78 158.05,-37.55 174,-29 180.66,-25.43 188.14,-22.27 195.32,-19.6"/>
<polygon fill="midnightblue" stroke="midnightblue" points="126.98,-57.19 121.53,-66.27 131.46,-62.57 126.98,-57.19"/>
</g>
</g>
</svg>
