<?xml version="1.0" encoding="UTF-8" standalone="no"?>
<!DOCTYPE svg PUBLIC "-//W3C//DTD SVG 1.1//EN"
 "http://www.w3.org/Graphics/SVG/1.1/DTD/svg11.dtd">
<!-- Generated by graphviz version 2.43.0 (0)
 -->
<!-- Title: Graphical Class Hierarchy Pages: 1 -->
<svg width="289pt" height="256pt"
 viewBox="0.00 0.00 289.00 256.00" xmlns="http://www.w3.org/2000/svg" xmlns:xlink="http://www.w3.org/1999/xlink">
<g id="graph0" class="graph" transform="scale(1 1) rotate(0) translate(4 252)">
<title>Graphical Class Hierarchy</title>
<polygon fill="white" stroke="transparent" points="-4,4 -4,-252 285,-252 285,4 -4,4"/>
<!-- Node0 -->
<g id="node1" class="node">
<title>Node0</title>
<g id="a_node1"><a xlink:href="classEntity.html" target="_top" xlink:title=" ">
<polygon fill="white" stroke="black" points="0,-114.5 0,-133.5 45,-133.5 45,-114.5 0,-114.5"/>
<text text-anchor="middle" x="22.5" y="-121.5" font-family="Helvetica,sans-Serif" font-size="10.00">Entity</text>
</a>
</g>
</g>
<!-- Node1 -->
<g id="node2" class="node">
<title>Node1</title>
<g id="a_node2"><a xlink:href="classAttacker.html" target="_top" xlink:title=" ">
<polygon fill="white" stroke="black" points="81,-171.5 81,-190.5 138,-190.5 138,-171.5 81,-171.5"/>
<text text-anchor="middle" x="109.5" y="-178.5" font-family="Helvetica,sans-Serif" font-size="10.00">Attacker</text>
</a>
</g>
</g>
<!-- Node0&#45;&gt;Node1 -->
<g id="edge1" class="edge">
<title>Node0&#45;&gt;Node1</title>
<path fill="none" stroke="midnightblue" d="M46.33,-139.31C61.6,-149.55 81.22,-162.71 94.29,-171.47"/>
<polygon fill="midnightblue" stroke="midnightblue" points="48.17,-136.33 37.92,-133.67 44.28,-142.15 48.17,-136.33"/>
</g>
<!-- Node5 -->
<g id="node6" class="node">
<title>Node5</title>
<g id="a_node6"><a xlink:href="classTower.html" target="_top" xlink:title=" ">
<polygon fill="white" stroke="black" points="87,-76.5 87,-95.5 132,-95.5 132,-76.5 87,-76.5"/>
<text text-anchor="middle" x="109.5" y="-83.5" font-family="Helvetica,sans-Serif" font-size="10.00">Tower</text>
</a>
</g>
</g>
<!-- Node0&#45;&gt;Node5 -->
<g id="edge5" class="edge">
<title>Node0&#45;&gt;Node5</title>
<path fill="none" stroke="midnightblue" d="M54.16,-110.29C65.06,-105.42 77.09,-100.04 87.06,-95.59"/>
<polygon fill="midnightblue" stroke="midnightblue" points="52.65,-107.13 44.95,-114.41 55.51,-113.52 52.65,-107.13"/>
</g>
<!-- Node2 -->
<g id="node3" class="node">
<title>Node2</title>
<g id="a_node3"><a xlink:href="classbasicAttacker.html" target="_top" xlink:title=" ">
<polygon fill="white" stroke="black" points="186,-228.5 186,-247.5 269,-247.5 269,-228.5 186,-228.5"/>
<text text-anchor="middle" x="227.5" y="-235.5" font-family="Helvetica,sans-Serif" font-size="10.00">basicAttacker</text>
</a>
</g>
</g>
<!-- Node1&#45;&gt;Node2 -->
<g id="edge2" class="edge">
<title>Node1&#45;&gt;Node2</title>
<path fill="none" stroke="midnightblue" d="M133.45,-196.19C145.27,-203.63 160.08,-212.39 174,-219 181.27,-222.45 189.34,-225.66 196.93,-228.42"/>
<polygon fill="midnightblue" stroke="midnightblue" points="135,-193.03 124.69,-190.57 131.22,-198.92 135,-193.03"/>
</g>
<!-- Node3 -->
<g id="node4" class="node">
<title>Node3</title>
<g id="a_node4"><a xlink:href="classchargerAttacker.html" target="_top" xlink:title=" ">
<polygon fill="white" stroke="black" points="180.5,-190.5 180.5,-209.5 274.5,-209.5 274.5,-190.5 180.5,-190.5"/>
<text text-anchor="middle" x="227.5" y="-197.5" font-family="Helvetica,sans-Serif" font-size="10.00">chargerAttacker</text>
</a>
</g>
</g>
<!-- Node1&#45;&gt;Node3 -->
<g id="edge3" class="edge">
<title>Node1&#45;&gt;Node3</title>
<path fill="none" stroke="midnightblue" d="M148.17,-187.17C158.44,-188.85 169.69,-190.69 180.37,-192.44"/>
<polygon fill="midnightblue" stroke="midnightblue" points="148.72,-183.71 138.28,-185.55 147.59,-190.62 148.72,-183.71"/>
</g>
<!-- Node4 -->
<g id="node5" class="node">
<title>Node4</title>
<g id="a_node5"><a xlink:href="classfastAttacker.html" target="_top" xlink:title=" ">
<polygon fill="white" stroke="black" points="189.5,-152.5 189.5,-171.5 265.5,-171.5 265.5,-152.5 189.5,-152.5"/>
<text text-anchor="middle" x="227.5" y="-159.5" font-family="Helvetica,sans-Serif" font-size="10.00">fastAttacker</text>
</a>
</g>
</g>
<!-- Node1&#45;&gt;Node4 -->
<g id="edge4" class="edge">
<title>Node1&#45;&gt;Node4</title>
<path fill="none" stroke="midnightblue" d="M148.41,-174.79C161.54,-172.64 176.22,-170.23 189.29,-168.09"/>
<polygon fill="midnightblue" stroke="midnightblue" points="147.59,-171.38 138.28,-176.45 148.72,-178.29 147.59,-171.38"/>
</g>
<!-- Node6 -->
<g id="node7" class="node">
<title>Node6</title>
<g id="a_node7"><a xlink:href="classbasicTower.html" target="_top" xlink:title=" ">
<polygon fill="white" stroke="black" points="192,-114.5 192,-133.5 263,-133.5 263,-114.5 192,-114.5"/>
<text text-anchor="middle" x="227.5" y="-121.5" font-family="Helvetica,sans-Serif" font-size="10.00">basicTower</text>
</a>
</g>
</g>
<!-- Node5&#45;&gt;Node6 -->
<g id="edge6" class="edge">
<title>Node5&#45;&gt;Node6</title>
<path fill="none" stroke="midnightblue" d="M141.67,-96.21C158.93,-101.86 180.25,-108.85 197.2,-114.4"/>
<polygon fill="midnightblue" stroke="midnightblue" points="142.64,-92.85 132.05,-93.06 140.46,-99.5 142.64,-92.85"/>
</g>
<!-- Node7 -->
<g id="node8" class="node">
<title>Node7</title>
<g id="a_node8"><a xlink:href="classfastTower.html" target="_top" xlink:title=" ">
<polygon fill="white" stroke="black" points="195.5,-76.5 195.5,-95.5 259.5,-95.5 259.5,-76.5 195.5,-76.5"/>
<text text-anchor="middle" x="227.5" y="-83.5" font-family="Helvetica,sans-Serif" font-size="10.00">fastTower</text>
</a>
</g>
</g>
<!-- Node5&#45;&gt;Node7 -->
<g id="edge7" class="edge">
<title>Node5&#45;&gt;Node7</title>
<path fill="none" stroke="midnightblue" d="M142.32,-86C158.87,-86 179.01,-86 195.44,-86"/>
<polygon fill="midnightblue" stroke="midnightblue" points="142.05,-82.5 132.05,-86 142.05,-89.5 142.05,-82.5"/>
</g>
<!-- Node8 -->
<g id="node9" class="node">
<title>Node8</title>
<g id="a_node9"><a xlink:href="classhighDamageTower.html" target="_top" xlink:title=" ">
<polygon fill="white" stroke="black" points="174,-38.5 174,-57.5 281,-57.5 281,-38.5 174,-38.5"/>
<text text-anchor="middle" x="227.5" y="-45.5" font-family="Helvetica,sans-Serif" font-size="10.00">highDamageTower</text>
</a>
</g>
</g>
<!-- Node5&#45;&gt;Node8 -->
<g id="edge8" class="edge">
<title>Node5&#45;&gt;Node8</title>
<path fill="none" stroke="midnightblue" d="M141.67,-75.79C158.93,-70.14 180.25,-63.15 197.2,-57.6"/>
<polygon fill="midnightblue" stroke="midnightblue" points="140.46,-72.5 132.05,-78.94 142.64,-79.15 140.46,-72.5"/>
</g>
<!-- Node9 -->
<g id="node10" class="node">
<title>Node9</title>
<g id="a_node10"><a xlink:href="classslowEffectTower.html" target="_top" xlink:title=" ">
<polygon fill="white" stroke="black" points="180,-0.5 180,-19.5 275,-19.5 275,-0.5 180,-0.5"/>
<text text-anchor="middle" x="227.5" y="-7.5" font-family="Helvetica,sans-Serif" font-size="10.00">slowEffectTower</text>
</a>
</g>
</g>
<!-- Node5&#45;&gt;Node9 -->
<g id="edge9" class="edge">
<title>Node5&#45;&gt;Node9</title>
<path fill="none" stroke="midnightblue" d="M126.14,-68.78C138.21,-56.33 155.86,-39.86 174,-29 180.15,-25.32 187.14,-22.17 193.96,-19.57"/>
<polygon fill="midnightblue" stroke="midnightblue" points="123.38,-66.6 119.06,-76.28 128.47,-71.4 123.38,-66.6"/>
</g>
</g>
</svg>
