<?xml version="1.0" encoding="UTF-8" standalone="no"?>
<!DOCTYPE svg PUBLIC "-//W3C//DTD SVG 1.1//EN"
 "http://www.w3.org/Graphics/SVG/1.1/DTD/svg11.dtd">
<!-- Generated by graphviz version 2.43.0 (0)
 -->
<!-- Title: src/logFile.h Pages: 1 -->
<svg width="172pt" height="140pt"
 viewBox="0.00 0.00 171.50 140.00" xmlns="http://www.w3.org/2000/svg" xmlns:xlink="http://www.w3.org/1999/xlink">
<g id="graph0" class="graph" transform="scale(1 1) rotate(0) translate(4 136)">
<title>src/logFile.h</title>
<polygon fill="white" stroke="transparent" points="-4,4 -4,-136 167.5,-136 167.5,4 -4,4"/>
<!-- Node1 -->
<g id="node1" class="node">
<title>Node1</title>
<g id="a_node1"><a xlink:title=" ">
<polygon fill="#bfbfbf" stroke="black" points="6.5,-112.5 6.5,-131.5 81.5,-131.5 81.5,-112.5 6.5,-112.5"/>
<text text-anchor="middle" x="44" y="-119.5" font-family="Helvetica,sans-Serif" font-size="10.00">src/logFile.h</text>
</a>
</g>
</g>
<!-- Node2 -->
<g id="node2" class="node">
<title>Node2</title>
<g id="a_node2"><a xlink:title=" ">
<polygon fill="white" stroke="#bfbfbf" points="0,-0.5 0,-19.5 44,-19.5 44,-0.5 0,-0.5"/>
<text text-anchor="middle" x="22" y="-7.5" font-family="Helvetica,sans-Serif" font-size="10.00">string</text>
</a>
</g>
</g>
<!-- Node1&#45;&gt;Node2 -->
<g id="edge1" class="edge">
<title>Node1&#45;&gt;Node2</title>
<path fill="none" stroke="midnightblue" d="M35.25,-112.29C27.44,-103.84 16.55,-90.25 12,-76 7.12,-60.7 10.62,-42.6 14.76,-29.39"/>
<polygon fill="midnightblue" stroke="midnightblue" points="18.19,-30.2 18.23,-19.61 11.59,-27.87 18.19,-30.2"/>
</g>
<!-- Node3 -->
<g id="node3" class="node">
<title>Node3</title>
<g id="a_node3"><a xlink:title=" ">
<polygon fill="white" stroke="#bfbfbf" points="21.5,-56.5 21.5,-75.5 66.5,-75.5 66.5,-56.5 21.5,-56.5"/>
<text text-anchor="middle" x="44" y="-63.5" font-family="Helvetica,sans-Serif" font-size="10.00">utility</text>
</a>
</g>
</g>
<!-- Node1&#45;&gt;Node3 -->
<g id="edge2" class="edge">
<title>Node1&#45;&gt;Node3</title>
<path fill="none" stroke="midnightblue" d="M44,-112.08C44,-105.01 44,-94.86 44,-85.99"/>
<polygon fill="midnightblue" stroke="midnightblue" points="47.5,-85.75 44,-75.75 40.5,-85.75 47.5,-85.75"/>
</g>
<!-- Node4 -->
<g id="node4" class="node">
<title>Node4</title>
<g id="a_node4"><a xlink:href="exceptions_8h.html" target="_top" xlink:title=" ">
<polygon fill="white" stroke="black" points="84.5,-56.5 84.5,-75.5 163.5,-75.5 163.5,-56.5 84.5,-56.5"/>
<text text-anchor="middle" x="124" y="-63.5" font-family="Helvetica,sans-Serif" font-size="10.00">exceptions.h</text>
</a>
</g>
</g>
<!-- Node1&#45;&gt;Node4 -->
<g id="edge3" class="edge">
<title>Node1&#45;&gt;Node4</title>
<path fill="none" stroke="midnightblue" d="M56.85,-112.32C69.22,-103.98 88.13,-91.21 102.74,-81.35"/>
<polygon fill="midnightblue" stroke="midnightblue" points="104.85,-84.15 111.18,-75.65 100.93,-78.35 104.85,-84.15"/>
</g>
<!-- Node4&#45;&gt;Node2 -->
<g id="edge4" class="edge">
<title>Node4&#45;&gt;Node2</title>
<path fill="none" stroke="midnightblue" d="M107.61,-56.32C91.33,-47.7 66.13,-34.36 47.28,-24.39"/>
<polygon fill="midnightblue" stroke="midnightblue" points="48.82,-21.24 38.35,-19.65 45.55,-27.43 48.82,-21.24"/>
</g>
<!-- Node5 -->
<g id="node5" class="node">
<title>Node5</title>
<g id="a_node5"><a xlink:title=" ">
<polygon fill="white" stroke="#bfbfbf" points="91.5,-0.5 91.5,-19.5 156.5,-19.5 156.5,-0.5 91.5,-0.5"/>
<text text-anchor="middle" x="124" y="-7.5" font-family="Helvetica,sans-Serif" font-size="10.00">exception</text>
</a>
</g>
</g>
<!-- Node4&#45;&gt;Node5 -->
<g id="edge5" class="edge">
<title>Node4&#45;&gt;Node5</title>
<path fill="none" stroke="midnightblue" d="M124,-56.08C124,-49.01 124,-38.86 124,-29.99"/>
<polygon fill="midnightblue" stroke="midnightblue" points="127.5,-29.75 124,-19.75 120.5,-29.75 127.5,-29.75"/>
</g>
</g>
</svg>
