<?xml version="1.0" encoding="UTF-8" standalone="no"?>
<!DOCTYPE svg PUBLIC "-//W3C//DTD SVG 1.1//EN"
 "http://www.w3.org/Graphics/SVG/1.1/DTD/svg11.dtd">
<!-- Generated by graphviz version 2.43.0 (0)
 -->
<!-- Title: sendToLogFile Pages: 1 -->
<svg width="943pt" height="218pt"
 viewBox="0.00 0.00 943.00 218.00" xmlns="http://www.w3.org/2000/svg" xmlns:xlink="http://www.w3.org/1999/xlink">
<g id="graph0" class="graph" transform="scale(1 1) rotate(0) translate(4 214)">
<title>sendToLogFile</title>
<polygon fill="white" stroke="transparent" points="-4,4 -4,-214 939,-214 939,4 -4,4"/>
<!-- Node1 -->
<g id="node1" class="node">
<title>Node1</title>
<g id="a_node1"><a xlink:title=" ">
<polygon fill="#bfbfbf" stroke="black" points="850,-57.5 850,-76.5 935,-76.5 935,-57.5 850,-57.5"/>
<text text-anchor="middle" x="892.5" y="-64.5" font-family="Helvetica,sans-Serif" font-size="10.00">sendToLogFile</text>
</a>
</g>
</g>
<!-- Node2 -->
<g id="node2" class="node">
<title>Node2</title>
<g id="a_node2"><a xlink:href="classCDefinitions.html#aeb13eb4e77295a396ba683bc8ed61fc4" target="_top" xlink:title=" ">
<polygon fill="white" stroke="black" points="681.5,-152.5 681.5,-171.5 812.5,-171.5 812.5,-152.5 681.5,-152.5"/>
<text text-anchor="middle" x="747" y="-159.5" font-family="Helvetica,sans-Serif" font-size="10.00">CDefinitions::loadEntity</text>
</a>
</g>
</g>
<!-- Node1&#45;&gt;Node2 -->
<g id="edge1" class="edge">
<title>Node1&#45;&gt;Node2</title>
<path fill="none" stroke="midnightblue" d="M868.43,-82.27C838.6,-102.02 787.54,-135.82 762.59,-152.34"/>
<polygon fill="midnightblue" stroke="midnightblue" points="870.54,-85.07 876.95,-76.63 866.68,-79.23 870.54,-85.07"/>
</g>
<!-- Node9 -->
<g id="node9" class="node">
<title>Node9</title>
<g id="a_node9"><a xlink:href="classCGame.html#afbbb4f8d05f753b7c2d6a0d91ca96a9b" target="_top" xlink:title=" ">
<polygon fill="white" stroke="black" points="502.5,-38.5 502.5,-57.5 630.5,-57.5 630.5,-38.5 502.5,-38.5"/>
<text text-anchor="middle" x="566.5" y="-45.5" font-family="Helvetica,sans-Serif" font-size="10.00">CGame::loadFromSave</text>
</a>
</g>
</g>
<!-- Node1&#45;&gt;Node9 -->
<g id="edge10" class="edge">
<title>Node1&#45;&gt;Node9</title>
<path fill="none" stroke="midnightblue" d="M839.61,-63.96C782.8,-60.63 691.69,-55.28 630.74,-51.71"/>
<polygon fill="midnightblue" stroke="midnightblue" points="839.62,-67.46 849.81,-64.55 840.03,-60.48 839.62,-67.46"/>
</g>
<!-- Node10 -->
<g id="node10" class="node">
<title>Node10</title>
<g id="a_node10"><a xlink:href="classCGame.html#a746d639da0897949fda403039daf4bf5" target="_top" xlink:title=" ">
<polygon fill="white" stroke="black" points="680,-0.5 680,-19.5 814,-19.5 814,-0.5 680,-0.5"/>
<text text-anchor="middle" x="747" y="-7.5" font-family="Helvetica,sans-Serif" font-size="10.00">CGame::performAttacks</text>
</a>
</g>
</g>
<!-- Node1&#45;&gt;Node10 -->
<g id="edge12" class="edge">
<title>Node1&#45;&gt;Node10</title>
<path fill="none" stroke="midnightblue" d="M860.64,-53.41C846.5,-47.3 829.47,-40.1 814,-34 801.41,-29.03 787.33,-23.86 775.42,-19.6"/>
<polygon fill="midnightblue" stroke="midnightblue" points="859.35,-56.66 869.91,-57.44 862.14,-50.24 859.35,-56.66"/>
</g>
<!-- Node13 -->
<g id="node13" class="node">
<title>Node13</title>
<g id="a_node13"><a xlink:href="classMap.html#acd24cfa7aca34a2839a94490ef563aa2" target="_top" xlink:title=" ">
<polygon fill="white" stroke="black" points="704,-76.5 704,-95.5 790,-95.5 790,-76.5 704,-76.5"/>
<text text-anchor="middle" x="747" y="-83.5" font-family="Helvetica,sans-Serif" font-size="10.00">Map::readMap</text>
</a>
</g>
</g>
<!-- Node1&#45;&gt;Node13 -->
<g id="edge16" class="edge">
<title>Node1&#45;&gt;Node13</title>
<path fill="none" stroke="midnightblue" d="M839.62,-73.87C823.46,-76.01 805.84,-78.34 790.41,-80.38"/>
<polygon fill="midnightblue" stroke="midnightblue" points="840.54,-77.28 849.99,-72.5 839.62,-70.34 840.54,-77.28"/>
</g>
<!-- Node3 -->
<g id="node3" class="node">
<title>Node3</title>
<g id="a_node3"><a xlink:href="classCDefinitions.html#a9f1aafe71cad232d999da224681ad03f" target="_top" xlink:title=" ">
<polygon fill="white" stroke="black" points="489,-190.5 489,-209.5 644,-209.5 644,-190.5 489,-190.5"/>
<text text-anchor="middle" x="566.5" y="-197.5" font-family="Helvetica,sans-Serif" font-size="10.00">CDefinitions::loadDefinitions</text>
</a>
</g>
</g>
<!-- Node2&#45;&gt;Node3 -->
<g id="edge2" class="edge">
<title>Node2&#45;&gt;Node3</title>
<path fill="none" stroke="midnightblue" d="M691.13,-173.68C665.82,-179.07 636.15,-185.39 612.22,-190.48"/>
<polygon fill="midnightblue" stroke="midnightblue" points="691.9,-177.09 700.96,-171.59 690.45,-170.25 691.9,-177.09"/>
</g>
<!-- Node4 -->
<g id="node4" class="node">
<title>Node4</title>
<g id="a_node4"><a xlink:href="classCGame.html#aaae1d58e5125f6ab128afe0ec688a00a" target="_top" xlink:title=" ">
<polygon fill="white" stroke="black" points="375.5,-114.5 375.5,-133.5 449.5,-133.5 449.5,-114.5 375.5,-114.5"/>
<text text-anchor="middle" x="412.5" y="-121.5" font-family="Helvetica,sans-Serif" font-size="10.00">CGame::init</text>
</a>
</g>
</g>
<!-- Node3&#45;&gt;Node4 -->
<g id="edge3" class="edge">
<title>Node3&#45;&gt;Node4</title>
<path fill="none" stroke="midnightblue" d="M536.99,-185.74C506.47,-170.48 458.89,-146.7 432.59,-133.55"/>
<polygon fill="midnightblue" stroke="midnightblue" points="535.74,-189.03 546.25,-190.37 538.87,-182.77 535.74,-189.03"/>
</g>
<!-- Node8 -->
<g id="node8" class="node">
<title>Node8</title>
<g id="a_node8"><a xlink:href="classCGame.html#a5dc70520b14c22acbd728f6599bb150a" target="_top" xlink:title=" ">
<polygon fill="white" stroke="black" points="221,-152.5 221,-171.5 336,-171.5 336,-152.5 221,-152.5"/>
<text text-anchor="middle" x="278.5" y="-159.5" font-family="Helvetica,sans-Serif" font-size="10.00">CGame::testRoutine</text>
</a>
</g>
</g>
<!-- Node3&#45;&gt;Node8 -->
<g id="edge9" class="edge">
<title>Node3&#45;&gt;Node8</title>
<path fill="none" stroke="midnightblue" d="M478.52,-189.71C445.18,-185.64 406.8,-180.79 372,-176 360.42,-174.41 348.03,-172.6 336.21,-170.83"/>
<polygon fill="midnightblue" stroke="midnightblue" points="478.34,-193.22 488.69,-190.95 479.19,-186.27 478.34,-193.22"/>
</g>
<!-- Node5 -->
<g id="node5" class="node">
<title>Node5</title>
<g id="a_node5"><a xlink:href="classCGame.html#aa7c80b7185158a0bde186d83f0e8cbb4" target="_top" xlink:title=" ">
<polygon fill="white" stroke="black" points="238.5,-76.5 238.5,-95.5 318.5,-95.5 318.5,-76.5 238.5,-76.5"/>
<text text-anchor="middle" x="278.5" y="-83.5" font-family="Helvetica,sans-Serif" font-size="10.00">CGame::play</text>
</a>
</g>
</g>
<!-- Node4&#45;&gt;Node5 -->
<g id="edge4" class="edge">
<title>Node4&#45;&gt;Node5</title>
<path fill="none" stroke="midnightblue" d="M368.46,-111.61C350.38,-106.41 329.68,-100.45 312.8,-95.59"/>
<polygon fill="midnightblue" stroke="midnightblue" points="367.61,-115.01 378.19,-114.41 369.55,-108.28 367.61,-115.01"/>
</g>
<!-- Node4&#45;&gt;Node8 -->
<g id="edge8" class="edge">
<title>Node4&#45;&gt;Node8</title>
<path fill="none" stroke="midnightblue" d="M368.46,-136.39C350.38,-141.59 329.68,-147.55 312.8,-152.41"/>
<polygon fill="midnightblue" stroke="midnightblue" points="369.55,-139.72 378.19,-133.59 367.61,-132.99 369.55,-139.72"/>
</g>
<!-- Node6 -->
<g id="node6" class="node">
<title>Node6</title>
<g id="a_node6"><a xlink:href="main_8cpp.html#a3c04138a5bfe5d72780bb7e82a18e627" target="_top" xlink:title=" ">
<polygon fill="white" stroke="black" points="144,-95.5 144,-114.5 185,-114.5 185,-95.5 144,-95.5"/>
<text text-anchor="middle" x="164.5" y="-102.5" font-family="Helvetica,sans-Serif" font-size="10.00">main</text>
</a>
</g>
</g>
<!-- Node5&#45;&gt;Node6 -->
<g id="edge5" class="edge">
<title>Node5&#45;&gt;Node6</title>
<path fill="none" stroke="midnightblue" d="M228.04,-94.39C212.95,-96.95 197.22,-99.62 185.31,-101.64"/>
<polygon fill="midnightblue" stroke="midnightblue" points="229.05,-97.77 238.33,-92.65 227.88,-90.87 229.05,-97.77"/>
</g>
<!-- Node7 -->
<g id="node7" class="node">
<title>Node7</title>
<g id="a_node7"><a xlink:href="structCMenu.html#a07236cc397b0e4e55ec4f916c3893fbd" target="_top" xlink:title=" ">
<polygon fill="white" stroke="black" points="0,-76.5 0,-95.5 108,-95.5 108,-76.5 0,-76.5"/>
<text text-anchor="middle" x="54" y="-83.5" font-family="Helvetica,sans-Serif" font-size="10.00">CMenu::mainMenu</text>
</a>
</g>
</g>
<!-- Node6&#45;&gt;Node7 -->
<g id="edge6" class="edge">
<title>Node6&#45;&gt;Node7</title>
<path fill="none" stroke="midnightblue" d="M133.76,-99.79C125.89,-98.41 117.17,-96.89 108.46,-95.36"/>
<polygon fill="midnightblue" stroke="midnightblue" points="133.4,-103.28 143.85,-101.56 134.61,-96.39 133.4,-103.28"/>
</g>
<!-- Node7&#45;&gt;Node5 -->
<g id="edge7" class="edge">
<title>Node7&#45;&gt;Node5</title>
<path fill="none" stroke="midnightblue" d="M118.32,-86C157.03,-86 205.31,-86 238.49,-86"/>
<polygon fill="midnightblue" stroke="midnightblue" points="118.19,-82.5 108.19,-86 118.19,-89.5 118.19,-82.5"/>
</g>
<!-- Node9&#45;&gt;Node4 -->
<g id="edge11" class="edge">
<title>Node9&#45;&gt;Node4</title>
<path fill="none" stroke="midnightblue" d="M504.82,-60.63C499.37,-62.49 494.02,-64.61 489,-67 462.91,-79.44 437.01,-101.72 423.37,-114.43"/>
<polygon fill="midnightblue" stroke="midnightblue" points="506.2,-63.87 514.7,-57.55 504.11,-57.19 506.2,-63.87"/>
</g>
<!-- Node11 -->
<g id="node11" class="node">
<title>Node11</title>
<g id="a_node11"><a xlink:href="classCGame.html#abca9e7318a19887770d007a56248fa82" target="_top" xlink:title=" ">
<polygon fill="white" stroke="black" points="519,-0.5 519,-19.5 614,-19.5 614,-0.5 519,-0.5"/>
<text text-anchor="middle" x="566.5" y="-7.5" font-family="Helvetica,sans-Serif" font-size="10.00">CGame::resume</text>
</a>
</g>
</g>
<!-- Node10&#45;&gt;Node11 -->
<g id="edge13" class="edge">
<title>Node10&#45;&gt;Node11</title>
<path fill="none" stroke="midnightblue" d="M669.69,-10C650.79,-10 631.1,-10 614.11,-10"/>
<polygon fill="midnightblue" stroke="midnightblue" points="669.79,-13.5 679.79,-10 669.79,-6.5 669.79,-13.5"/>
</g>
<!-- Node12 -->
<g id="node12" class="node">
<title>Node12</title>
<g id="a_node12"><a xlink:href="classCGame.html#aa70fa8586abbd097b8eb7fb8d540841d" target="_top" xlink:title=" ">
<polygon fill="white" stroke="black" points="372,-38.5 372,-57.5 453,-57.5 453,-38.5 372,-38.5"/>
<text text-anchor="middle" x="412.5" y="-45.5" font-family="Helvetica,sans-Serif" font-size="10.00">CGame::start</text>
</a>
</g>
</g>
<!-- Node11&#45;&gt;Node12 -->
<g id="edge14" class="edge">
<title>Node11&#45;&gt;Node12</title>
<path fill="none" stroke="midnightblue" d="M517.05,-22.01C507.74,-24.32 498.07,-26.73 489,-29 476.81,-32.05 463.51,-35.39 451.52,-38.41"/>
<polygon fill="midnightblue" stroke="midnightblue" points="518.11,-25.35 526.97,-19.55 516.42,-18.56 518.11,-25.35"/>
</g>
<!-- Node12&#45;&gt;Node5 -->
<g id="edge15" class="edge">
<title>Node12&#45;&gt;Node5</title>
<path fill="none" stroke="midnightblue" d="M368.46,-60.39C350.38,-65.59 329.68,-71.55 312.8,-76.41"/>
<polygon fill="midnightblue" stroke="midnightblue" points="369.55,-63.72 378.19,-57.59 367.61,-56.99 369.55,-63.72"/>
</g>
<!-- Node13&#45;&gt;Node8 -->
<g id="edge21" class="edge">
<title>Node13&#45;&gt;Node8</title>
<path fill="none" stroke="midnightblue" d="M725.09,-101.49C705.32,-115.17 674.26,-134.27 644,-143 538.52,-173.43 408.87,-171.37 336.07,-166.87"/>
<polygon fill="midnightblue" stroke="midnightblue" points="727.21,-104.28 733.34,-95.64 723.16,-98.57 727.21,-104.28"/>
</g>
<!-- Node13&#45;&gt;Node9 -->
<g id="edge19" class="edge">
<title>Node13&#45;&gt;Node9</title>
<path fill="none" stroke="midnightblue" d="M693.7,-74.87C667.88,-69.37 637.03,-62.8 612.3,-57.54"/>
<polygon fill="midnightblue" stroke="midnightblue" points="693.19,-78.34 703.7,-76.99 694.65,-71.49 693.19,-78.34"/>
</g>
<!-- Node14 -->
<g id="node14" class="node">
<title>Node14</title>
<g id="a_node14"><a xlink:href="classCGame.html#a9945af5487d059db1d7119ae16cd2dd3" target="_top" xlink:title=" ">
<polygon fill="white" stroke="black" points="526.5,-114.5 526.5,-133.5 606.5,-133.5 606.5,-114.5 526.5,-114.5"/>
<text text-anchor="middle" x="566.5" y="-121.5" font-family="Helvetica,sans-Serif" font-size="10.00">CGame::load</text>
</a>
</g>
</g>
<!-- Node13&#45;&gt;Node14 -->
<g id="edge17" class="edge">
<title>Node13&#45;&gt;Node14</title>
<path fill="none" stroke="midnightblue" d="M693.74,-97.12C665.93,-103.04 632.31,-110.2 606.75,-115.64"/>
<polygon fill="midnightblue" stroke="midnightblue" points="694.65,-100.51 703.7,-95.01 693.19,-93.66 694.65,-100.51"/>
</g>
<!-- Node15 -->
<g id="node15" class="node">
<title>Node15</title>
<g id="a_node15"><a xlink:href="classMap.html#a0a1bc119b284fc82e2f3b1c2956b4381" target="_top" xlink:title=" ">
<polygon fill="white" stroke="black" points="512,-76.5 512,-95.5 621,-95.5 621,-76.5 512,-76.5"/>
<text text-anchor="middle" x="566.5" y="-83.5" font-family="Helvetica,sans-Serif" font-size="10.00">Map::loadNextMap</text>
</a>
</g>
</g>
<!-- Node13&#45;&gt;Node15 -->
<g id="edge20" class="edge">
<title>Node13&#45;&gt;Node15</title>
<path fill="none" stroke="midnightblue" d="M693.51,-86C670.68,-86 643.97,-86 621.03,-86"/>
<polygon fill="midnightblue" stroke="midnightblue" points="693.7,-89.5 703.7,-86 693.7,-82.5 693.7,-89.5"/>
</g>
<!-- Node14&#45;&gt;Node4 -->
<g id="edge18" class="edge">
<title>Node14&#45;&gt;Node4</title>
<path fill="none" stroke="midnightblue" d="M516.33,-124C494.63,-124 469.59,-124 449.64,-124"/>
<polygon fill="midnightblue" stroke="midnightblue" points="516.36,-127.5 526.36,-124 516.36,-120.5 516.36,-127.5"/>
</g>
</g>
</svg>
