<?xml version="1.0" encoding="UTF-8" standalone="no"?>
<!DOCTYPE svg PUBLIC "-//W3C//DTD SVG 1.1//EN"
 "http://www.w3.org/Graphics/SVG/1.1/DTD/svg11.dtd">
<!-- Generated by graphviz version 2.43.0 (0)
 -->
<!-- Title: sendToLogFile Pages: 1 -->
<svg width="898pt" height="142pt"
 viewBox="0.00 0.00 898.00 142.00" xmlns="http://www.w3.org/2000/svg" xmlns:xlink="http://www.w3.org/1999/xlink">
<g id="graph0" class="graph" transform="scale(1 1) rotate(0) translate(4 138)">
<title>sendToLogFile</title>
<polygon fill="white" stroke="transparent" points="-4,4 -4,-138 894,-138 894,4 -4,4"/>
<!-- Node1 -->
<g id="node1" class="node">
<title>Node1</title>
<g id="a_node1"><a xlink:title=" ">
<polygon fill="#bfbfbf" stroke="black" points="805,-76.5 805,-95.5 890,-95.5 890,-76.5 805,-76.5"/>
<text text-anchor="middle" x="847.5" y="-83.5" font-family="Helvetica,sans-Serif" font-size="10.00">sendToLogFile</text>
</a>
</g>
</g>
<!-- Node2 -->
<g id="node2" class="node">
<title>Node2</title>
<g id="a_node2"><a xlink:href="classCDefinitions.html#aeb13eb4e77295a396ba683bc8ed61fc4" target="_top" xlink:title=" ">
<polygon fill="white" stroke="black" points="638,-114.5 638,-133.5 769,-133.5 769,-114.5 638,-114.5"/>
<text text-anchor="middle" x="703.5" y="-121.5" font-family="Helvetica,sans-Serif" font-size="10.00">CDefinitions::loadEntity</text>
</a>
</g>
</g>
<!-- Node1&#45;&gt;Node2 -->
<g id="edge1" class="edge">
<title>Node1&#45;&gt;Node2</title>
<path fill="none" stroke="midnightblue" d="M801.01,-98.17C781.37,-103.43 758.73,-109.49 740.32,-114.41"/>
<polygon fill="midnightblue" stroke="midnightblue" points="801.91,-101.56 810.67,-95.59 800.1,-94.79 801.91,-101.56"/>
</g>
<!-- Node8 -->
<g id="node8" class="node">
<title>Node8</title>
<g id="a_node8"><a xlink:href="classCGame.html#afbbb4f8d05f753b7c2d6a0d91ca96a9b" target="_top" xlink:title=" ">
<polygon fill="white" stroke="black" points="460.5,-76.5 460.5,-95.5 588.5,-95.5 588.5,-76.5 460.5,-76.5"/>
<text text-anchor="middle" x="524.5" y="-83.5" font-family="Helvetica,sans-Serif" font-size="10.00">CGame::loadFromSave</text>
</a>
</g>
</g>
<!-- Node1&#45;&gt;Node8 -->
<g id="edge8" class="edge">
<title>Node1&#45;&gt;Node8</title>
<path fill="none" stroke="midnightblue" d="M794.78,-86C738.62,-86 648.88,-86 588.61,-86"/>
<polygon fill="midnightblue" stroke="midnightblue" points="794.86,-89.5 804.86,-86 794.86,-82.5 794.86,-89.5"/>
</g>
<!-- Node9 -->
<g id="node9" class="node">
<title>Node9</title>
<g id="a_node9"><a xlink:href="classMap.html#acd24cfa7aca34a2839a94490ef563aa2" target="_top" xlink:title=" ">
<polygon fill="white" stroke="black" points="660.5,-38.5 660.5,-57.5 746.5,-57.5 746.5,-38.5 660.5,-38.5"/>
<text text-anchor="middle" x="703.5" y="-45.5" font-family="Helvetica,sans-Serif" font-size="10.00">Map::readMap</text>
</a>
</g>
</g>
<!-- Node1&#45;&gt;Node9 -->
<g id="edge10" class="edge">
<title>Node1&#45;&gt;Node9</title>
<path fill="none" stroke="midnightblue" d="M801.01,-73.83C781.37,-68.57 758.73,-62.51 740.32,-57.59"/>
<polygon fill="midnightblue" stroke="midnightblue" points="800.1,-77.21 810.67,-76.41 801.91,-70.44 800.1,-77.21"/>
</g>
<!-- Node3 -->
<g id="node3" class="node">
<title>Node3</title>
<g id="a_node3"><a xlink:href="classCDefinitions.html#a9f1aafe71cad232d999da224681ad03f" target="_top" xlink:title=" ">
<polygon fill="white" stroke="black" points="447,-114.5 447,-133.5 602,-133.5 602,-114.5 447,-114.5"/>
<text text-anchor="middle" x="524.5" y="-121.5" font-family="Helvetica,sans-Serif" font-size="10.00">CDefinitions::loadDefinitions</text>
</a>
</g>
</g>
<!-- Node2&#45;&gt;Node3 -->
<g id="edge2" class="edge">
<title>Node2&#45;&gt;Node3</title>
<path fill="none" stroke="midnightblue" d="M627.7,-124C619.3,-124 610.73,-124 602.3,-124"/>
<polygon fill="midnightblue" stroke="midnightblue" points="627.85,-127.5 637.85,-124 627.85,-120.5 627.85,-127.5"/>
</g>
<!-- Node4 -->
<g id="node4" class="node">
<title>Node4</title>
<g id="a_node4"><a xlink:href="classCGame.html#a4225411d7a9a23bf0dcbaf63d6a41936" target="_top" xlink:title=" ">
<polygon fill="white" stroke="black" points="337,-76.5 337,-95.5 411,-95.5 411,-76.5 337,-76.5"/>
<text text-anchor="middle" x="374" y="-83.5" font-family="Helvetica,sans-Serif" font-size="10.00">CGame::init</text>
</a>
</g>
</g>
<!-- Node3&#45;&gt;Node4 -->
<g id="edge3" class="edge">
<title>Node3&#45;&gt;Node4</title>
<path fill="none" stroke="midnightblue" d="M474.73,-112C465.51,-109.7 455.96,-107.29 447,-105 435.23,-101.98 422.39,-98.62 410.86,-95.57"/>
<polygon fill="midnightblue" stroke="midnightblue" points="474.01,-115.43 484.55,-114.44 475.7,-108.63 474.01,-115.43"/>
</g>
<!-- Node5 -->
<g id="node5" class="node">
<title>Node5</title>
<g id="a_node5"><a xlink:href="classCGame.html#aa7c80b7185158a0bde186d83f0e8cbb4" target="_top" xlink:title=" ">
<polygon fill="white" stroke="black" points="221,-76.5 221,-95.5 301,-95.5 301,-76.5 221,-76.5"/>
<text text-anchor="middle" x="261" y="-83.5" font-family="Helvetica,sans-Serif" font-size="10.00">CGame::play</text>
</a>
</g>
</g>
<!-- Node4&#45;&gt;Node5 -->
<g id="edge4" class="edge">
<title>Node4&#45;&gt;Node5</title>
<path fill="none" stroke="midnightblue" d="M326.82,-86C318.34,-86 309.56,-86 301.31,-86"/>
<polygon fill="midnightblue" stroke="midnightblue" points="326.96,-89.5 336.96,-86 326.96,-82.5 326.96,-89.5"/>
</g>
<!-- Node6 -->
<g id="node6" class="node">
<title>Node6</title>
<g id="a_node6"><a xlink:href="main_8cpp.html#a3c04138a5bfe5d72780bb7e82a18e627" target="_top" xlink:title=" ">
<polygon fill="white" stroke="black" points="144,-95.5 144,-114.5 185,-114.5 185,-95.5 144,-95.5"/>
<text text-anchor="middle" x="164.5" y="-102.5" font-family="Helvetica,sans-Serif" font-size="10.00">main</text>
</a>
</g>
</g>
<!-- Node5&#45;&gt;Node6 -->
<g id="edge5" class="edge">
<title>Node5&#45;&gt;Node6</title>
<path fill="none" stroke="midnightblue" d="M210.87,-95.88C201.75,-97.71 192.72,-99.53 185.15,-101.05"/>
<polygon fill="midnightblue" stroke="midnightblue" points="211.63,-99.3 220.74,-93.89 210.25,-92.43 211.63,-99.3"/>
</g>
<!-- Node7 -->
<g id="node7" class="node">
<title>Node7</title>
<g id="a_node7"><a xlink:href="structCMenu.html#a07236cc397b0e4e55ec4f916c3893fbd" target="_top" xlink:title=" ">
<polygon fill="white" stroke="black" points="0,-76.5 0,-95.5 108,-95.5 108,-76.5 0,-76.5"/>
<text text-anchor="middle" x="54" y="-83.5" font-family="Helvetica,sans-Serif" font-size="10.00">CMenu::mainMenu</text>
</a>
</g>
</g>
<!-- Node6&#45;&gt;Node7 -->
<g id="edge6" class="edge">
<title>Node6&#45;&gt;Node7</title>
<path fill="none" stroke="midnightblue" d="M133.76,-99.79C125.89,-98.41 117.17,-96.89 108.46,-95.36"/>
<polygon fill="midnightblue" stroke="midnightblue" points="133.4,-103.28 143.85,-101.56 134.61,-96.39 133.4,-103.28"/>
</g>
<!-- Node7&#45;&gt;Node5 -->
<g id="edge7" class="edge">
<title>Node7&#45;&gt;Node5</title>
<path fill="none" stroke="midnightblue" d="M118.4,-86C151.92,-86 192.01,-86 220.96,-86"/>
<polygon fill="midnightblue" stroke="midnightblue" points="118.22,-82.5 108.22,-86 118.22,-89.5 118.22,-82.5"/>
</g>
<!-- Node8&#45;&gt;Node4 -->
<g id="edge9" class="edge">
<title>Node8&#45;&gt;Node4</title>
<path fill="none" stroke="midnightblue" d="M449.84,-86C436.4,-86 422.93,-86 411.19,-86"/>
<polygon fill="midnightblue" stroke="midnightblue" points="450.09,-89.5 460.09,-86 450.09,-82.5 450.09,-89.5"/>
</g>
<!-- Node9&#45;&gt;Node8 -->
<g id="edge13" class="edge">
<title>Node9&#45;&gt;Node8</title>
<path fill="none" stroke="midnightblue" d="M650.23,-59.22C624.74,-64.69 594.4,-71.21 570.02,-76.44"/>
<polygon fill="midnightblue" stroke="midnightblue" points="651.06,-62.62 660.1,-57.1 649.59,-55.78 651.06,-62.62"/>
</g>
<!-- Node10 -->
<g id="node10" class="node">
<title>Node10</title>
<g id="a_node10"><a xlink:href="classCGame.html#a9945af5487d059db1d7119ae16cd2dd3" target="_top" xlink:title=" ">
<polygon fill="white" stroke="black" points="484.5,-38.5 484.5,-57.5 564.5,-57.5 564.5,-38.5 484.5,-38.5"/>
<text text-anchor="middle" x="524.5" y="-45.5" font-family="Helvetica,sans-Serif" font-size="10.00">CGame::load</text>
</a>
</g>
</g>
<!-- Node9&#45;&gt;Node10 -->
<g id="edge11" class="edge">
<title>Node9&#45;&gt;Node10</title>
<path fill="none" stroke="midnightblue" d="M649.91,-48C622.52,-48 589.62,-48 564.52,-48"/>
<polygon fill="midnightblue" stroke="midnightblue" points="650.1,-51.5 660.1,-48 650.1,-44.5 650.1,-51.5"/>
</g>
<!-- Node11 -->
<g id="node11" class="node">
<title>Node11</title>
<g id="a_node11"><a xlink:href="classMap.html#a0a1bc119b284fc82e2f3b1c2956b4381" target="_top" xlink:title=" ">
<polygon fill="white" stroke="black" points="470,-0.5 470,-19.5 579,-19.5 579,-0.5 470,-0.5"/>
<text text-anchor="middle" x="524.5" y="-7.5" font-family="Helvetica,sans-Serif" font-size="10.00">Map::loadNextMap</text>
</a>
</g>
</g>
<!-- Node9&#45;&gt;Node11 -->
<g id="edge14" class="edge">
<title>Node9&#45;&gt;Node11</title>
<path fill="none" stroke="midnightblue" d="M650.23,-36.78C624.74,-31.31 594.4,-24.79 570.02,-19.56"/>
<polygon fill="midnightblue" stroke="midnightblue" points="649.59,-40.22 660.1,-38.9 651.06,-33.38 649.59,-40.22"/>
</g>
<!-- Node10&#45;&gt;Node4 -->
<g id="edge12" class="edge">
<title>Node10&#45;&gt;Node4</title>
<path fill="none" stroke="midnightblue" d="M474.73,-60C465.51,-62.3 455.96,-64.71 447,-67 435.23,-70.02 422.39,-73.38 410.86,-76.43"/>
<polygon fill="midnightblue" stroke="midnightblue" points="475.7,-63.37 484.55,-57.56 474.01,-56.57 475.7,-63.37"/>
</g>
</g>
</svg>
