<?xml version="1.0" encoding="UTF-8" standalone="no"?>
<!DOCTYPE svg PUBLIC "-//W3C//DTD SVG 1.1//EN"
 "http://www.w3.org/Graphics/SVG/1.1/DTD/svg11.dtd">
<!-- Generated by graphviz version 2.43.0 (0)
 -->
<!-- Title: src/logFile.cpp Pages: 1 -->
<svg width="378pt" height="196pt"
 viewBox="0.00 0.00 378.00 196.00" xmlns="http://www.w3.org/2000/svg" xmlns:xlink="http://www.w3.org/1999/xlink">
<g id="graph0" class="graph" transform="scale(1 1) rotate(0) translate(4 192)">
<title>src/logFile.cpp</title>
<polygon fill="white" stroke="transparent" points="-4,4 -4,-192 374,-192 374,4 -4,4"/>
<!-- Node1 -->
<g id="node1" class="node">
<title>Node1</title>
<g id="a_node1"><a xlink:title=" ">
<polygon fill="#bfbfbf" stroke="black" points="194.5,-168.5 194.5,-187.5 280.5,-187.5 280.5,-168.5 194.5,-168.5"/>
<text text-anchor="middle" x="237.5" y="-175.5" font-family="Helvetica,sans-Serif" font-size="10.00">src/logFile.cpp</text>
</a>
</g>
</g>
<!-- Node2 -->
<g id="node2" class="node">
<title>Node2</title>
<g id="a_node2"><a xlink:href="logFile_8h.html" target="_top" xlink:title=" ">
<polygon fill="white" stroke="black" points="98.5,-112.5 98.5,-131.5 156.5,-131.5 156.5,-112.5 98.5,-112.5"/>
<text text-anchor="middle" x="127.5" y="-119.5" font-family="Helvetica,sans-Serif" font-size="10.00">logFile.h</text>
</a>
</g>
</g>
<!-- Node1&#45;&gt;Node2 -->
<g id="edge1" class="edge">
<title>Node1&#45;&gt;Node2</title>
<path fill="none" stroke="midnightblue" d="M219.83,-168.32C202.11,-159.62 174.6,-146.12 154.21,-136.11"/>
<polygon fill="midnightblue" stroke="midnightblue" points="155.65,-132.92 145.13,-131.65 152.56,-139.2 155.65,-132.92"/>
</g>
<!-- Node3 -->
<g id="node3" class="node">
<title>Node3</title>
<g id="a_node3"><a xlink:title=" ">
<polygon fill="white" stroke="#bfbfbf" points="150.5,-0.5 150.5,-19.5 194.5,-19.5 194.5,-0.5 150.5,-0.5"/>
<text text-anchor="middle" x="172.5" y="-7.5" font-family="Helvetica,sans-Serif" font-size="10.00">string</text>
</a>
</g>
</g>
<!-- Node1&#45;&gt;Node3 -->
<g id="edge9" class="edge">
<title>Node1&#45;&gt;Node3</title>
<path fill="none" stroke="midnightblue" d="M234.01,-168.08C223.73,-141.83 193.47,-64.55 179.59,-29.12"/>
<polygon fill="midnightblue" stroke="midnightblue" points="182.76,-27.6 175.85,-19.57 176.24,-30.16 182.76,-27.6"/>
</g>
<!-- Node7 -->
<g id="node7" class="node">
<title>Node7</title>
<g id="a_node7"><a xlink:title=" ">
<polygon fill="white" stroke="#bfbfbf" points="236.5,-112.5 236.5,-131.5 296.5,-131.5 296.5,-112.5 236.5,-112.5"/>
<text text-anchor="middle" x="266.5" y="-119.5" font-family="Helvetica,sans-Serif" font-size="10.00">iostream</text>
</a>
</g>
</g>
<!-- Node1&#45;&gt;Node7 -->
<g id="edge7" class="edge">
<title>Node1&#45;&gt;Node7</title>
<path fill="none" stroke="midnightblue" d="M242.29,-168.08C246.26,-160.69 252.03,-149.95 256.93,-140.81"/>
<polygon fill="midnightblue" stroke="midnightblue" points="260.15,-142.22 261.8,-131.75 253.99,-138.91 260.15,-142.22"/>
</g>
<!-- Node8 -->
<g id="node8" class="node">
<title>Node8</title>
<g id="a_node8"><a xlink:title=" ">
<polygon fill="white" stroke="#bfbfbf" points="315,-112.5 315,-131.5 370,-131.5 370,-112.5 315,-112.5"/>
<text text-anchor="middle" x="342.5" y="-119.5" font-family="Helvetica,sans-Serif" font-size="10.00">fstream</text>
</a>
</g>
</g>
<!-- Node1&#45;&gt;Node8 -->
<g id="edge8" class="edge">
<title>Node1&#45;&gt;Node8</title>
<path fill="none" stroke="midnightblue" d="M254.37,-168.32C271.21,-159.66 297.31,-146.24 316.74,-136.25"/>
<polygon fill="midnightblue" stroke="midnightblue" points="318.38,-139.34 325.67,-131.65 315.18,-133.12 318.38,-139.34"/>
</g>
<!-- Node2&#45;&gt;Node3 -->
<g id="edge2" class="edge">
<title>Node2&#45;&gt;Node3</title>
<path fill="none" stroke="midnightblue" d="M132.47,-112.22C137.42,-103.28 145.04,-88.93 150.5,-76 157.02,-60.57 163.01,-42.47 167.09,-29.3"/>
<polygon fill="midnightblue" stroke="midnightblue" points="170.49,-30.15 170.04,-19.56 163.79,-28.12 170.49,-30.15"/>
</g>
<!-- Node4 -->
<g id="node4" class="node">
<title>Node4</title>
<g id="a_node4"><a xlink:title=" ">
<polygon fill="white" stroke="#bfbfbf" points="0,-56.5 0,-75.5 45,-75.5 45,-56.5 0,-56.5"/>
<text text-anchor="middle" x="22.5" y="-63.5" font-family="Helvetica,sans-Serif" font-size="10.00">utility</text>
</a>
</g>
</g>
<!-- Node2&#45;&gt;Node4 -->
<g id="edge3" class="edge">
<title>Node2&#45;&gt;Node4</title>
<path fill="none" stroke="midnightblue" d="M110.63,-112.32C93.79,-103.66 67.69,-90.24 48.26,-80.25"/>
<polygon fill="midnightblue" stroke="midnightblue" points="49.82,-77.12 39.33,-75.65 46.62,-83.34 49.82,-77.12"/>
</g>
<!-- Node5 -->
<g id="node5" class="node">
<title>Node5</title>
<g id="a_node5"><a xlink:href="exceptions_8h.html" target="_top" xlink:title=" ">
<polygon fill="white" stroke="black" points="63,-56.5 63,-75.5 142,-75.5 142,-56.5 63,-56.5"/>
<text text-anchor="middle" x="102.5" y="-63.5" font-family="Helvetica,sans-Serif" font-size="10.00">exceptions.h</text>
</a>
</g>
</g>
<!-- Node2&#45;&gt;Node5 -->
<g id="edge4" class="edge">
<title>Node2&#45;&gt;Node5</title>
<path fill="none" stroke="midnightblue" d="M123.37,-112.08C119.99,-104.77 115.08,-94.18 110.88,-85.1"/>
<polygon fill="midnightblue" stroke="midnightblue" points="113.93,-83.36 106.55,-75.75 107.58,-86.3 113.93,-83.36"/>
</g>
<!-- Node5&#45;&gt;Node3 -->
<g id="edge5" class="edge">
<title>Node5&#45;&gt;Node3</title>
<path fill="none" stroke="midnightblue" d="M113.75,-56.32C124.3,-48.18 140.3,-35.84 152.94,-26.09"/>
<polygon fill="midnightblue" stroke="midnightblue" points="155.27,-28.71 161.05,-19.83 150.99,-23.17 155.27,-28.71"/>
</g>
<!-- Node6 -->
<g id="node6" class="node">
<title>Node6</title>
<g id="a_node6"><a xlink:title=" ">
<polygon fill="white" stroke="#bfbfbf" points="67,-0.5 67,-19.5 132,-19.5 132,-0.5 67,-0.5"/>
<text text-anchor="middle" x="99.5" y="-7.5" font-family="Helvetica,sans-Serif" font-size="10.00">exception</text>
</a>
</g>
</g>
<!-- Node5&#45;&gt;Node6 -->
<g id="edge6" class="edge">
<title>Node5&#45;&gt;Node6</title>
<path fill="none" stroke="midnightblue" d="M102,-56.08C101.61,-49.01 101.05,-38.86 100.55,-29.99"/>
<polygon fill="midnightblue" stroke="midnightblue" points="104.04,-29.54 99.99,-19.75 97.05,-29.93 104.04,-29.54"/>
</g>
</g>
</svg>
