<?xml version="1.0" encoding="UTF-8" standalone="no"?>
<!DOCTYPE svg PUBLIC "-//W3C//DTD SVG 1.1//EN"
 "http://www.w3.org/Graphics/SVG/1.1/DTD/svg11.dtd">
<!-- Generated by graphviz version 2.43.0 (0)
 -->
<!-- Title: main Pages: 1 -->
<svg width="655pt" height="142pt"
 viewBox="0.00 0.00 655.00 142.00" xmlns="http://www.w3.org/2000/svg" xmlns:xlink="http://www.w3.org/1999/xlink">
<g id="graph0" class="graph" transform="scale(1 1) rotate(0) translate(4 138)">
<title>main</title>
<polygon fill="white" stroke="transparent" points="-4,4 -4,-138 651,-138 651,4 -4,4"/>
<!-- Node1 -->
<g id="node1" class="node">
<title>Node1</title>
<g id="a_node1"><a xlink:title=" ">
<polygon fill="#bfbfbf" stroke="black" points="0,-76.5 0,-95.5 41,-95.5 41,-76.5 0,-76.5"/>
<text text-anchor="middle" x="20.5" y="-83.5" font-family="Helvetica,sans-Serif" font-size="10.00">main</text>
</a>
</g>
</g>
<!-- Node2 -->
<g id="node2" class="node">
<title>Node2</title>
<g id="a_node2"><a xlink:href="Game_8cpp.html#af66392f74826c89391d33dcbfb45e5b3" target="_top" xlink:title=" ">
<polygon fill="white" stroke="black" points="85,-114.5 85,-133.5 150,-133.5 150,-114.5 85,-114.5"/>
<text text-anchor="middle" x="117.5" y="-121.5" font-family="Helvetica,sans-Serif" font-size="10.00">loadMenu</text>
</a>
</g>
</g>
<!-- Node1&#45;&gt;Node2 -->
<g id="edge1" class="edge">
<title>Node1&#45;&gt;Node2</title>
<path fill="none" stroke="midnightblue" d="M41.18,-93.87C53.28,-98.71 69.1,-105.04 83.11,-110.65"/>
<polygon fill="midnightblue" stroke="midnightblue" points="81.88,-113.92 92.46,-114.38 84.48,-107.42 81.88,-113.92"/>
</g>
<!-- Node3 -->
<g id="node3" class="node">
<title>Node3</title>
<g id="a_node3"><a xlink:href="Game_8cpp.html#a5f00bd86c2427bc56a5c44240776567d" target="_top" xlink:title=" ">
<polygon fill="white" stroke="black" points="220,-95.5 220,-114.5 284,-114.5 284,-95.5 220,-95.5"/>
<text text-anchor="middle" x="252" y="-102.5" font-family="Helvetica,sans-Serif" font-size="10.00">newMenu</text>
</a>
</g>
</g>
<!-- Node1&#45;&gt;Node3 -->
<g id="edge3" class="edge">
<title>Node1&#45;&gt;Node3</title>
<path fill="none" stroke="midnightblue" d="M41.07,-87.62C78.31,-90.7 160.1,-97.47 209.88,-101.6"/>
<polygon fill="midnightblue" stroke="midnightblue" points="209.73,-105.1 219.99,-102.43 210.31,-98.12 209.73,-105.1"/>
</g>
<!-- Node4 -->
<g id="node4" class="node">
<title>Node4</title>
<g id="a_node4"><a xlink:href="classCGame.html#aa70fa8586abbd097b8eb7fb8d540841d" target="_top" xlink:title=" ">
<polygon fill="white" stroke="black" points="77,-38.5 77,-57.5 158,-57.5 158,-38.5 77,-38.5"/>
<text text-anchor="middle" x="117.5" y="-45.5" font-family="Helvetica,sans-Serif" font-size="10.00">CGame::start</text>
</a>
</g>
</g>
<!-- Node1&#45;&gt;Node4 -->
<g id="edge4" class="edge">
<title>Node1&#45;&gt;Node4</title>
<path fill="none" stroke="midnightblue" d="M41.18,-78.13C53.28,-73.29 69.1,-66.96 83.11,-61.35"/>
<polygon fill="midnightblue" stroke="midnightblue" points="84.48,-64.58 92.46,-57.62 81.88,-58.08 84.48,-64.58"/>
</g>
<!-- Node2&#45;&gt;Node3 -->
<g id="edge2" class="edge">
<title>Node2&#45;&gt;Node3</title>
<path fill="none" stroke="midnightblue" d="M150.24,-119.45C168.15,-116.88 190.73,-113.64 209.97,-110.88"/>
<polygon fill="midnightblue" stroke="midnightblue" points="210.58,-114.33 219.98,-109.45 209.58,-107.4 210.58,-114.33"/>
</g>
<!-- Node5 -->
<g id="node5" class="node">
<title>Node5</title>
<g id="a_node5"><a xlink:href="classCGame.html#ab4b3b154086cd0c34c18522a0716840c" target="_top" xlink:title=" ">
<polygon fill="white" stroke="black" points="194,-38.5 194,-57.5 310,-57.5 310,-38.5 194,-38.5"/>
<text text-anchor="middle" x="252" y="-45.5" font-family="Helvetica,sans-Serif" font-size="10.00">CGame::drawTowers</text>
</a>
</g>
</g>
<!-- Node4&#45;&gt;Node5 -->
<g id="edge5" class="edge">
<title>Node4&#45;&gt;Node5</title>
<path fill="none" stroke="midnightblue" d="M158.25,-48C166.25,-48 174.87,-48 183.51,-48"/>
<polygon fill="midnightblue" stroke="midnightblue" points="183.64,-51.5 193.64,-48 183.64,-44.5 183.64,-51.5"/>
</g>
<!-- Node6 -->
<g id="node6" class="node">
<title>Node6</title>
<g id="a_node6"><a xlink:href="classEnemy.html#ab8dab466556eb7f9a39697c045864289" target="_top" xlink:title=" ">
<polygon fill="white" stroke="black" points="359.5,-76.5 359.5,-95.5 472.5,-95.5 472.5,-76.5 359.5,-76.5"/>
<text text-anchor="middle" x="416" y="-83.5" font-family="Helvetica,sans-Serif" font-size="10.00">Enemy::clearTowers</text>
</a>
</g>
</g>
<!-- Node5&#45;&gt;Node6 -->
<g id="edge6" class="edge">
<title>Node5&#45;&gt;Node6</title>
<path fill="none" stroke="midnightblue" d="M293.88,-57.59C315.35,-62.63 341.86,-68.84 364.6,-74.18"/>
<polygon fill="midnightblue" stroke="midnightblue" points="363.88,-77.6 374.41,-76.48 365.48,-70.79 363.88,-77.6"/>
</g>
<!-- Node7 -->
<g id="node7" class="node">
<title>Node7</title>
<g id="a_node7"><a xlink:href="classEnemy.html#a238798e0d954a7ee3b6fafb592151cde" target="_top" xlink:title=" ">
<polygon fill="white" stroke="black" points="356,-38.5 356,-57.5 476,-57.5 476,-38.5 356,-38.5"/>
<text text-anchor="middle" x="416" y="-45.5" font-family="Helvetica,sans-Serif" font-size="10.00">Enemy::createTowers</text>
</a>
</g>
</g>
<!-- Node5&#45;&gt;Node7 -->
<g id="edge7" class="edge">
<title>Node5&#45;&gt;Node7</title>
<path fill="none" stroke="midnightblue" d="M310.12,-48C321.6,-48 333.79,-48 345.64,-48"/>
<polygon fill="midnightblue" stroke="midnightblue" points="345.94,-51.5 355.94,-48 345.94,-44.5 345.94,-51.5"/>
</g>
<!-- Node8 -->
<g id="node8" class="node">
<title>Node8</title>
<g id="a_node8"><a xlink:href="classEnemy.html#a5d58ae9775a61353ab0203b75edbd7eb" target="_top" xlink:title=" ">
<polygon fill="white" stroke="black" points="346,-0.5 346,-19.5 486,-19.5 486,-0.5 346,-0.5"/>
<text text-anchor="middle" x="416" y="-7.5" font-family="Helvetica,sans-Serif" font-size="10.00">Enemy::findEmptySpaces</text>
</a>
</g>
</g>
<!-- Node5&#45;&gt;Node8 -->
<g id="edge8" class="edge">
<title>Node5&#45;&gt;Node8</title>
<path fill="none" stroke="midnightblue" d="M293.88,-38.41C315.35,-33.37 341.86,-27.16 364.6,-21.82"/>
<polygon fill="midnightblue" stroke="midnightblue" points="365.48,-25.21 374.41,-19.52 363.88,-18.4 365.48,-25.21"/>
</g>
<!-- Node9 -->
<g id="node9" class="node">
<title>Node9</title>
<g id="a_node9"><a xlink:href="classMap.html#a2b42bd45dd0e585fed7a9d71244e3567" target="_top" xlink:title=" ">
<polygon fill="white" stroke="black" points="522,-0.5 522,-19.5 647,-19.5 647,-0.5 522,-0.5"/>
<text text-anchor="middle" x="584.5" y="-7.5" font-family="Helvetica,sans-Serif" font-size="10.00">Map::getEmptySpaces</text>
</a>
</g>
</g>
<!-- Node8&#45;&gt;Node9 -->
<g id="edge9" class="edge">
<title>Node8&#45;&gt;Node9</title>
<path fill="none" stroke="midnightblue" d="M486.16,-10C494.61,-10 503.26,-10 511.75,-10"/>
<polygon fill="midnightblue" stroke="midnightblue" points="511.99,-13.5 521.99,-10 511.99,-6.5 511.99,-13.5"/>
</g>
</g>
</svg>
