<?xml version="1.0" encoding="UTF-8" standalone="no"?>
<!DOCTYPE svg PUBLIC "-//W3C//DTD SVG 1.1//EN"
 "http://www.w3.org/Graphics/SVG/1.1/DTD/svg11.dtd">
<!-- Generated by graphviz version 2.43.0 (0)
 -->
<!-- Title: main Pages: 1 -->
<svg width="838pt" height="1151pt"
 viewBox="0.00 0.00 838.00 1150.88" xmlns="http://www.w3.org/2000/svg" xmlns:xlink="http://www.w3.org/1999/xlink">
<g id="graph0" class="graph" transform="scale(1 1) rotate(0) translate(4 1146.88)">
<title>main</title>
<polygon fill="white" stroke="transparent" points="-4,4 -4,-1146.88 834,-1146.88 834,4 -4,4"/>
<!-- Node1 -->
<g id="node1" class="node">
<title>Node1</title>
<g id="a_node1"><a xlink:title=" ">
<polygon fill="#bfbfbf" stroke="black" points="0,-211.38 0,-230.38 41,-230.38 41,-211.38 0,-211.38"/>
<text text-anchor="middle" x="20.5" y="-218.38" font-family="Helvetica,sans-Serif" font-size="10.00">main</text>
</a>
</g>
</g>
<!-- Node2 -->
<g id="node2" class="node">
<title>Node2</title>
<g id="a_node2"><a xlink:href="classCGame.html#aa7c80b7185158a0bde186d83f0e8cbb4" target="_top" xlink:title=" ">
<polygon fill="white" stroke="black" points="77,-268.38 77,-287.38 157,-287.38 157,-268.38 77,-268.38"/>
<text text-anchor="middle" x="117" y="-275.38" font-family="Helvetica,sans-Serif" font-size="10.00">CGame::play</text>
</a>
</g>
</g>
<!-- Node1&#45;&gt;Node2 -->
<g id="edge1" class="edge">
<title>Node1&#45;&gt;Node2</title>
<path fill="none" stroke="midnightblue" d="M37.53,-230.54C52.28,-239.44 74.38,-252.77 91.37,-263.02"/>
<polygon fill="midnightblue" stroke="midnightblue" points="89.84,-266.18 100.21,-268.35 93.45,-260.19 89.84,-266.18"/>
</g>
<!-- Node3 -->
<g id="node3" class="node">
<title>Node3</title>
<g id="a_node3"><a xlink:href="classCGame.html#a0dfb929b70b99ac2281273eefb2eb652" target="_top" xlink:title=" ">
<polygon fill="white" stroke="black" points="200.5,-173.38 200.5,-192.38 304.5,-192.38 304.5,-173.38 200.5,-173.38"/>
<text text-anchor="middle" x="252.5" y="-180.38" font-family="Helvetica,sans-Serif" font-size="10.00">CGame::gameEnd</text>
</a>
</g>
</g>
<!-- Node2&#45;&gt;Node3 -->
<g id="edge2" class="edge">
<title>Node2&#45;&gt;Node3</title>
<path fill="none" stroke="midnightblue" d="M131.78,-268.07C154.99,-251.55 202.02,-218.08 229.73,-198.37"/>
<polygon fill="midnightblue" stroke="midnightblue" points="231.87,-201.14 237.99,-192.49 227.81,-195.44 231.87,-201.14"/>
</g>
<!-- Node10 -->
<g id="node10" class="node">
<title>Node10</title>
<g id="a_node10"><a xlink:href="classCGame.html#a4225411d7a9a23bf0dcbaf63d6a41936" target="_top" xlink:title=" ">
<polygon fill="white" stroke="black" points="215.5,-724.38 215.5,-743.38 289.5,-743.38 289.5,-724.38 215.5,-724.38"/>
<text text-anchor="middle" x="252.5" y="-731.38" font-family="Helvetica,sans-Serif" font-size="10.00">CGame::init</text>
</a>
</g>
</g>
<!-- Node2&#45;&gt;Node10 -->
<g id="edge9" class="edge">
<title>Node2&#45;&gt;Node10</title>
<path fill="none" stroke="midnightblue" d="M120.79,-287.4C137.35,-343.96 222.8,-635.86 245.8,-714.4"/>
<polygon fill="midnightblue" stroke="midnightblue" points="242.45,-715.4 248.61,-724.02 249.16,-713.44 242.45,-715.4"/>
</g>
<!-- Node35 -->
<g id="node34" class="node">
<title>Node35</title>
<g id="a_node34"><a xlink:href="structCMenu.html#aad659993e77a8a6c41000f67081a3cbd" target="_top" xlink:title=" ">
<polygon fill="white" stroke="black" points="200.5,-330.38 200.5,-349.38 304.5,-349.38 304.5,-330.38 200.5,-330.38"/>
<text text-anchor="middle" x="252.5" y="-337.38" font-family="Helvetica,sans-Serif" font-size="10.00">CMenu::loadMenu</text>
</a>
</g>
</g>
<!-- Node2&#45;&gt;Node35 -->
<g id="edge38" class="edge">
<title>Node2&#45;&gt;Node35</title>
<path fill="none" stroke="midnightblue" d="M132.75,-287.55C147.54,-296.96 171.18,-311.2 193,-320.88 197.82,-323.01 202.95,-325.03 208.1,-326.9"/>
<polygon fill="midnightblue" stroke="midnightblue" points="207.35,-330.34 217.95,-330.29 209.64,-323.72 207.35,-330.34"/>
</g>
<!-- Node36 -->
<g id="node35" class="node">
<title>Node36</title>
<g id="a_node35"><a xlink:href="structCMenu.html#a07236cc397b0e4e55ec4f916c3893fbd" target="_top" xlink:title=" ">
<polygon fill="white" stroke="black" points="198.5,-78.38 198.5,-97.38 306.5,-97.38 306.5,-78.38 198.5,-78.38"/>
<text text-anchor="middle" x="252.5" y="-85.38" font-family="Helvetica,sans-Serif" font-size="10.00">CMenu::mainMenu</text>
</a>
</g>
</g>
<!-- Node2&#45;&gt;Node36 -->
<g id="edge39" class="edge">
<title>Node2&#45;&gt;Node36</title>
<path fill="none" stroke="midnightblue" d="M125.13,-268.21C133.61,-256.36 147.79,-235.43 157,-215.88 178.74,-169.72 156.84,-142.86 193,-106.88 194.48,-105.41 196.07,-104.05 197.75,-102.8"/>
<polygon fill="midnightblue" stroke="midnightblue" points="199.99,-105.53 206.76,-97.38 196.39,-99.54 199.99,-105.53"/>
</g>
<!-- Node37 -->
<g id="node36" class="node">
<title>Node37</title>
<g id="a_node36"><a xlink:href="structCMenu.html#a07ae72b8a8bb24e5444dea2ed971765e" target="_top" xlink:title=" ">
<polygon fill="white" stroke="black" points="193,-392.38 193,-411.38 312,-411.38 312,-392.38 193,-392.38"/>
<text text-anchor="middle" x="252.5" y="-399.38" font-family="Helvetica,sans-Serif" font-size="10.00">CMenu::optionsMenu</text>
</a>
</g>
</g>
<!-- Node2&#45;&gt;Node37 -->
<g id="edge41" class="edge">
<title>Node2&#45;&gt;Node37</title>
<path fill="none" stroke="midnightblue" d="M125.79,-287.41C138.87,-303.13 166.41,-335.13 193,-358.88 204.13,-368.81 217.47,-378.75 228.6,-386.57"/>
<polygon fill="midnightblue" stroke="midnightblue" points="226.75,-389.54 236.97,-392.34 230.73,-383.78 226.75,-389.54"/>
</g>
<!-- Node38 -->
<g id="node37" class="node">
<title>Node38</title>
<g id="a_node37"><a xlink:href="classCGame.html#ad0eafae848690ed00fd50af9d7464bb2" target="_top" xlink:title=" ">
<polygon fill="white" stroke="black" points="211.5,-116.38 211.5,-135.38 293.5,-135.38 293.5,-116.38 211.5,-116.38"/>
<text text-anchor="middle" x="252.5" y="-123.38" font-family="Helvetica,sans-Serif" font-size="10.00">CGame::save</text>
</a>
</g>
</g>
<!-- Node2&#45;&gt;Node38 -->
<g id="edge43" class="edge">
<title>Node2&#45;&gt;Node38</title>
<path fill="none" stroke="midnightblue" d="M124,-268.27C140.21,-242.39 184.26,-172.56 193,-163.88 202.03,-154.89 213.52,-146.88 223.92,-140.55"/>
<polygon fill="midnightblue" stroke="midnightblue" points="225.81,-143.5 232.69,-135.44 222.29,-137.45 225.81,-143.5"/>
</g>
<!-- Node41 -->
<g id="node40" class="node">
<title>Node41</title>
<g id="a_node40"><a xlink:href="classCGame.html#aa70fa8586abbd097b8eb7fb8d540841d" target="_top" xlink:title=" ">
<polygon fill="white" stroke="black" points="212,-292.38 212,-311.38 293,-311.38 293,-292.38 212,-292.38"/>
<text text-anchor="middle" x="252.5" y="-299.38" font-family="Helvetica,sans-Serif" font-size="10.00">CGame::start</text>
</a>
</g>
</g>
<!-- Node2&#45;&gt;Node41 -->
<g id="edge48" class="edge">
<title>Node2&#45;&gt;Node41</title>
<path fill="none" stroke="midnightblue" d="M157.33,-284.95C171.33,-287.46 187.28,-290.33 202.01,-292.98"/>
<polygon fill="midnightblue" stroke="midnightblue" points="201.53,-296.45 211.99,-294.77 202.76,-289.56 201.53,-296.45"/>
</g>
<!-- Node4 -->
<g id="node4" class="node">
<title>Node4</title>
<g id="a_node4"><a xlink:href="classPlayer.html#a35e23c050e86892c31ff783457f8ec24" target="_top" xlink:title=" ">
<polygon fill="white" stroke="black" points="734,-116.38 734,-135.38 830,-135.38 830,-116.38 734,-116.38"/>
<text text-anchor="middle" x="782" y="-123.38" font-family="Helvetica,sans-Serif" font-size="10.00">Player::getCoins</text>
</a>
</g>
</g>
<!-- Node3&#45;&gt;Node4 -->
<g id="edge3" class="edge">
<title>Node3&#45;&gt;Node4</title>
<path fill="none" stroke="midnightblue" d="M304.81,-189.99C357.5,-194.85 440.42,-195.59 503,-163.88 524.93,-152.76 516.66,-132.15 539,-121.88 603.2,-92.35 627.35,-120.17 698,-121.88 706.2,-122.07 714.86,-122.38 723.36,-122.74"/>
<polygon fill="midnightblue" stroke="midnightblue" points="723.46,-126.25 733.61,-123.2 723.78,-119.25 723.46,-126.25"/>
</g>
<!-- Node5 -->
<g id="node5" class="node">
<title>Node5</title>
<g id="a_node5"><a xlink:href="classPlayer.html#a58da876811cd1848aab2809f5758d315" target="_top" xlink:title=" ">
<polygon fill="white" stroke="black" points="370.5,-97.38 370.5,-116.38 480.5,-116.38 480.5,-97.38 370.5,-97.38"/>
<text text-anchor="middle" x="425.5" y="-104.38" font-family="Helvetica,sans-Serif" font-size="10.00">Player::getFinished</text>
</a>
</g>
</g>
<!-- Node3&#45;&gt;Node5 -->
<g id="edge4" class="edge">
<title>Node3&#45;&gt;Node5</title>
<path fill="none" stroke="midnightblue" d="M268.22,-173.25C290.47,-158.83 331.81,-132.59 348,-125.88 353.89,-123.43 360.17,-121.25 366.5,-119.31"/>
<polygon fill="midnightblue" stroke="midnightblue" points="367.8,-122.58 376.45,-116.47 365.87,-115.85 367.8,-122.58"/>
</g>
<!-- Node6 -->
<g id="node6" class="node">
<title>Node6</title>
<g id="a_node6"><a xlink:href="structCMenu.html#acd66b9b60fd4bd6eaa9c991f42c0899a" target="_top" xlink:title=" ">
<polygon fill="white" stroke="black" points="376.5,-135.38 376.5,-154.38 474.5,-154.38 474.5,-135.38 376.5,-135.38"/>
<text text-anchor="middle" x="425.5" y="-142.38" font-family="Helvetica,sans-Serif" font-size="10.00">CMenu::setMenu</text>
</a>
</g>
</g>
<!-- Node3&#45;&gt;Node6 -->
<g id="edge5" class="edge">
<title>Node3&#45;&gt;Node6</title>
<path fill="none" stroke="midnightblue" d="M296.65,-173.29C319.42,-168.23 347.55,-161.98 371.62,-156.63"/>
<polygon fill="midnightblue" stroke="midnightblue" points="372.66,-159.98 381.66,-154.4 371.14,-153.15 372.66,-159.98"/>
</g>
<!-- Node7 -->
<g id="node7" class="node">
<title>Node7</title>
<g id="a_node7"><a xlink:href="structCMenu.html#a5e22e761551f1aec9ab2c6849ae4b9e8" target="_top" xlink:title=" ">
<polygon fill="white" stroke="black" points="384.5,-439.38 384.5,-458.38 466.5,-458.38 466.5,-439.38 384.5,-439.38"/>
<text text-anchor="middle" x="425.5" y="-446.38" font-family="Helvetica,sans-Serif" font-size="10.00">CMenu::show</text>
</a>
</g>
</g>
<!-- Node3&#45;&gt;Node7 -->
<g id="edge6" class="edge">
<title>Node3&#45;&gt;Node7</title>
<path fill="none" stroke="midnightblue" d="M260.37,-192.65C272.33,-210.06 297.14,-247.89 312,-282.88 335.11,-337.27 310.29,-365.37 348,-410.88 356.82,-421.52 369.36,-429.45 381.75,-435.24"/>
<polygon fill="midnightblue" stroke="midnightblue" points="380.55,-438.53 391.12,-439.25 383.31,-432.1 380.55,-438.53"/>
</g>
<!-- Node8 -->
<g id="node8" class="node">
<title>Node8</title>
<g id="a_node8"><a xlink:href="structCMenu.html#a0d260d3408e1b93c95fd000e69186b09" target="_top" xlink:title=" ">
<polygon fill="white" stroke="black" points="564.5,-477.38 564.5,-496.38 672.5,-496.38 672.5,-477.38 564.5,-477.38"/>
<text text-anchor="middle" x="618.5" y="-484.38" font-family="Helvetica,sans-Serif" font-size="10.00">CMenu::clearShrek</text>
</a>
</g>
</g>
<!-- Node7&#45;&gt;Node8 -->
<g id="edge7" class="edge">
<title>Node7&#45;&gt;Node8</title>
<path fill="none" stroke="midnightblue" d="M466.54,-456.84C493.57,-462.22 529.66,-469.4 559.78,-475.39"/>
<polygon fill="midnightblue" stroke="midnightblue" points="559.25,-478.86 569.74,-477.37 560.62,-471.99 559.25,-478.86"/>
</g>
<!-- Node9 -->
<g id="node9" class="node">
<title>Node9</title>
<g id="a_node9"><a xlink:href="structCMenu.html#aa9e4a0b113b5283a66113fc5bc91253c" target="_top" xlink:title=" ">
<polygon fill="white" stroke="black" points="565,-439.38 565,-458.38 672,-458.38 672,-439.38 565,-439.38"/>
<text text-anchor="middle" x="618.5" y="-446.38" font-family="Helvetica,sans-Serif" font-size="10.00">CMenu::printShrek</text>
</a>
</g>
</g>
<!-- Node7&#45;&gt;Node9 -->
<g id="edge8" class="edge">
<title>Node7&#45;&gt;Node9</title>
<path fill="none" stroke="midnightblue" d="M466.54,-448.88C492.08,-448.88 525.72,-448.88 554.76,-448.88"/>
<polygon fill="midnightblue" stroke="midnightblue" points="554.82,-452.38 564.82,-448.88 554.82,-445.38 554.82,-452.38"/>
</g>
<!-- Node11 -->
<g id="node11" class="node">
<title>Node11</title>
<g id="a_node11"><a xlink:href="classPlayer.html#ad67b0b4cb15f53e28866e4c7128ce661" target="_top" xlink:title=" ">
<polygon fill="white" stroke="black" points="557,-705.38 557,-724.38 680,-724.38 680,-705.38 557,-705.38"/>
<text text-anchor="middle" x="618.5" y="-712.38" font-family="Helvetica,sans-Serif" font-size="10.00">Player::clearAttackers</text>
</a>
</g>
</g>
<!-- Node10&#45;&gt;Node11 -->
<g id="edge10" class="edge">
<title>Node10&#45;&gt;Node11</title>
<path fill="none" stroke="midnightblue" d="M272.54,-743.51C315.5,-763.83 422.5,-806.5 503,-771.88 524.37,-762.68 518.87,-745.53 539,-733.88 542.86,-731.64 546.97,-729.67 551.21,-727.93"/>
<polygon fill="midnightblue" stroke="midnightblue" points="552.47,-731.19 560.66,-724.47 550.06,-724.62 552.47,-731.19"/>
</g>
<!-- Node12 -->
<g id="node12" class="node">
<title>Node12</title>
<g id="a_node12"><a xlink:href="classEnemy.html#ab8dab466556eb7f9a39697c045864289" target="_top" xlink:title=" ">
<polygon fill="white" stroke="black" points="562,-629.38 562,-648.38 675,-648.38 675,-629.38 562,-629.38"/>
<text text-anchor="middle" x="618.5" y="-636.38" font-family="Helvetica,sans-Serif" font-size="10.00">Enemy::clearTowers</text>
</a>
</g>
</g>
<!-- Node10&#45;&gt;Node12 -->
<g id="edge11" class="edge">
<title>Node10&#45;&gt;Node12</title>
<path fill="none" stroke="midnightblue" d="M261.68,-724.24C276.74,-707.27 310.76,-672.48 348,-657.88 413.87,-632.03 495.7,-630.05 551.8,-632.78"/>
<polygon fill="midnightblue" stroke="midnightblue" points="551.79,-636.29 561.96,-633.34 552.17,-629.3 551.79,-636.29"/>
</g>
<!-- Node13 -->
<g id="node13" class="node">
<title>Node13</title>
<g id="a_node13"><a xlink:href="classCDefinitions.html#ab8536fabb45ea006662e63bbc414dbef" target="_top" xlink:title=" ">
<polygon fill="white" stroke="black" points="549.5,-515.38 549.5,-534.38 687.5,-534.38 687.5,-515.38 549.5,-515.38"/>
<text text-anchor="middle" x="618.5" y="-522.38" font-family="Helvetica,sans-Serif" font-size="10.00">CDefinitions::getAttacker</text>
</a>
</g>
</g>
<!-- Node10&#45;&gt;Node13 -->
<g id="edge12" class="edge">
<title>Node10&#45;&gt;Node13</title>
<path fill="none" stroke="midnightblue" d="M259.98,-724.13C273.93,-703.81 308.71,-656.43 348,-627.88 413.93,-579.95 504.94,-551.34 562.5,-536.85"/>
<polygon fill="midnightblue" stroke="midnightblue" points="563.62,-540.17 572.5,-534.39 561.95,-533.38 563.62,-540.17"/>
</g>
<!-- Node14 -->
<g id="node14" class="node">
<title>Node14</title>
<g id="a_node14"><a xlink:href="classCDefinitions.html#a63bf212acb75d60793b5f88b62468dcd" target="_top" xlink:title=" ">
<polygon fill="white" stroke="black" points="362.5,-705.38 362.5,-724.38 488.5,-724.38 488.5,-705.38 362.5,-705.38"/>
<text text-anchor="middle" x="425.5" y="-712.38" font-family="Helvetica,sans-Serif" font-size="10.00">CDefinitions::getTower</text>
</a>
</g>
</g>
<!-- Node10&#45;&gt;Node14 -->
<g id="edge13" class="edge">
<title>Node10&#45;&gt;Node14</title>
<path fill="none" stroke="midnightblue" d="M289.76,-729.85C307.96,-727.82 330.67,-725.3 352.23,-722.91"/>
<polygon fill="midnightblue" stroke="midnightblue" points="352.81,-726.36 362.36,-721.78 352.04,-719.41 352.81,-726.36"/>
</g>
<!-- Node15 -->
<g id="node15" class="node">
<title>Node15</title>
<g id="a_node15"><a xlink:href="classCGame.html#ad3a6ae127f534b0f64f0b6404d454ef9" target="_top" xlink:title=" ">
<polygon fill="white" stroke="black" points="355.5,-667.38 355.5,-686.38 495.5,-686.38 495.5,-667.38 355.5,-667.38"/>
<text text-anchor="middle" x="425.5" y="-674.38" font-family="Helvetica,sans-Serif" font-size="10.00">CGame::initializeWindow</text>
</a>
</g>
</g>
<!-- Node10&#45;&gt;Node15 -->
<g id="edge14" class="edge">
<title>Node10&#45;&gt;Node15</title>
<path fill="none" stroke="midnightblue" d="M274.95,-724.25C293.91,-715.99 322.43,-704.15 348,-695.88 355.68,-693.39 363.89,-691.04 371.97,-688.9"/>
<polygon fill="midnightblue" stroke="midnightblue" points="372.9,-692.27 381.72,-686.39 371.16,-685.49 372.9,-692.27"/>
</g>
<!-- Node16 -->
<g id="node16" class="node">
<title>Node16</title>
<g id="a_node16"><a xlink:href="classCGame.html#a9945af5487d059db1d7119ae16cd2dd3" target="_top" xlink:title=" ">
<polygon fill="white" stroke="black" points="385.5,-971.38 385.5,-990.38 465.5,-990.38 465.5,-971.38 385.5,-971.38"/>
<text text-anchor="middle" x="425.5" y="-978.38" font-family="Helvetica,sans-Serif" font-size="10.00">CGame::load</text>
</a>
</g>
</g>
<!-- Node10&#45;&gt;Node16 -->
<g id="edge15" class="edge">
<title>Node10&#45;&gt;Node16</title>
<path fill="none" stroke="midnightblue" d="M260.2,-743.56C285.9,-780.68 378.38,-914.25 412.09,-962.95"/>
<polygon fill="midnightblue" stroke="midnightblue" points="409.27,-965.03 417.84,-971.26 415.03,-961.05 409.27,-965.03"/>
</g>
<!-- Node20 -->
<g id="node19" class="node">
<title>Node20</title>
<g id="a_node19"><a xlink:href="classCDefinitions.html#a9f1aafe71cad232d999da224681ad03f" target="_top" xlink:title=" ">
<polygon fill="white" stroke="black" points="348,-1066.38 348,-1085.38 503,-1085.38 503,-1066.38 348,-1066.38"/>
<text text-anchor="middle" x="425.5" y="-1073.38" font-family="Helvetica,sans-Serif" font-size="10.00">CDefinitions::loadDefinitions</text>
</a>
</g>
</g>
<!-- Node10&#45;&gt;Node20 -->
<g id="edge18" class="edge">
<title>Node10&#45;&gt;Node20</title>
<path fill="none" stroke="midnightblue" d="M255.35,-743.75C262.49,-780.2 290.8,-909.64 348,-999.88 362.94,-1023.44 386.41,-1045.32 403.41,-1059.5"/>
<polygon fill="midnightblue" stroke="midnightblue" points="401.67,-1062.59 411.64,-1066.18 406.08,-1057.15 401.67,-1062.59"/>
</g>
<!-- Node22 -->
<g id="node21" class="node">
<title>Node22</title>
<g id="a_node21"><a xlink:href="classCGame.html#afbbb4f8d05f753b7c2d6a0d91ca96a9b" target="_top" xlink:title=" ">
<polygon fill="white" stroke="black" points="361.5,-819.38 361.5,-838.38 489.5,-838.38 489.5,-819.38 361.5,-819.38"/>
<text text-anchor="middle" x="425.5" y="-826.38" font-family="Helvetica,sans-Serif" font-size="10.00">CGame::loadFromSave</text>
</a>
</g>
</g>
<!-- Node10&#45;&gt;Node22 -->
<g id="edge21" class="edge">
<title>Node10&#45;&gt;Node22</title>
<path fill="none" stroke="midnightblue" d="M263.75,-743.47C280.29,-758.5 314.41,-787.63 348,-804.88 356.55,-809.26 366.05,-813.03 375.36,-816.19"/>
<polygon fill="midnightblue" stroke="midnightblue" points="374.37,-819.55 384.96,-819.27 376.51,-812.88 374.37,-819.55"/>
</g>
<!-- Node34 -->
<g id="node33" class="node">
<title>Node34</title>
<g id="a_node33"><a xlink:href="classMap.html#ac36f80dbbf7dccfdfc7837d300427da7" target="_top" xlink:title=" ">
<polygon fill="white" stroke="black" points="376.5,-743.38 376.5,-762.38 474.5,-762.38 474.5,-743.38 376.5,-743.38"/>
<text text-anchor="middle" x="425.5" y="-750.38" font-family="Helvetica,sans-Serif" font-size="10.00">Map::setWindow</text>
</a>
</g>
</g>
<!-- Node10&#45;&gt;Node34 -->
<g id="edge37" class="edge">
<title>Node10&#45;&gt;Node34</title>
<path fill="none" stroke="midnightblue" d="M289.76,-737.9C311.91,-740.37 340.74,-743.57 366.04,-746.38"/>
<polygon fill="midnightblue" stroke="midnightblue" points="365.95,-749.89 376.28,-747.52 366.72,-742.93 365.95,-749.89"/>
</g>
<!-- Node17 -->
<g id="node17" class="node">
<title>Node17</title>
<g id="a_node17"><a xlink:href="classMap.html#acd24cfa7aca34a2839a94490ef563aa2" target="_top" xlink:title=" ">
<polygon fill="white" stroke="red" points="575.5,-1085.38 575.5,-1104.38 661.5,-1104.38 661.5,-1085.38 575.5,-1085.38"/>
<text text-anchor="middle" x="618.5" y="-1092.38" font-family="Helvetica,sans-Serif" font-size="10.00">Map::readMap</text>
</a>
</g>
</g>
<!-- Node16&#45;&gt;Node17 -->
<g id="edge16" class="edge">
<title>Node16&#45;&gt;Node17</title>
<path fill="none" stroke="midnightblue" d="M435.05,-990.65C452.54,-1010.01 494.54,-1053.33 539,-1075.88 547.27,-1080.07 556.5,-1083.36 565.64,-1085.94"/>
<polygon fill="midnightblue" stroke="midnightblue" points="564.93,-1089.37 575.48,-1088.47 566.67,-1082.59 564.93,-1089.37"/>
</g>
<!-- Node18 -->
<g id="node18" class="node">
<title>Node18</title>
<g id="a_node18"><a xlink:href="logFile_8cpp.html#a4646ee780db7319bd0615817febd557c" target="_top" xlink:title=" ">
<polygon fill="white" stroke="black" points="739.5,-1085.38 739.5,-1104.38 824.5,-1104.38 824.5,-1085.38 739.5,-1085.38"/>
<text text-anchor="middle" x="782" y="-1092.38" font-family="Helvetica,sans-Serif" font-size="10.00">sendToLogFile</text>
</a>
</g>
</g>
<!-- Node17&#45;&gt;Node18 -->
<g id="edge17" class="edge">
<title>Node17&#45;&gt;Node18</title>
<path fill="none" stroke="midnightblue" d="M661.51,-1094.88C682.25,-1094.88 707.45,-1094.88 729.35,-1094.88"/>
<polygon fill="midnightblue" stroke="midnightblue" points="729.48,-1098.38 739.48,-1094.88 729.48,-1091.38 729.48,-1098.38"/>
</g>
<!-- Node21 -->
<g id="node20" class="node">
<title>Node21</title>
<g id="a_node20"><a xlink:href="classCDefinitions.html#aeb13eb4e77295a396ba683bc8ed61fc4" target="_top" xlink:title=" ">
<polygon fill="white" stroke="black" points="553,-1123.38 553,-1142.38 684,-1142.38 684,-1123.38 553,-1123.38"/>
<text text-anchor="middle" x="618.5" y="-1130.38" font-family="Helvetica,sans-Serif" font-size="10.00">CDefinitions::loadEntity</text>
</a>
</g>
</g>
<!-- Node20&#45;&gt;Node21 -->
<g id="edge19" class="edge">
<title>Node20&#45;&gt;Node21</title>
<path fill="none" stroke="midnightblue" d="M452.66,-1085.44C475.33,-1093.56 509.1,-1105.22 539,-1113.88 547.42,-1116.31 556.4,-1118.69 565.17,-1120.89"/>
<polygon fill="midnightblue" stroke="midnightblue" points="564.4,-1124.31 574.95,-1123.3 566.08,-1117.51 564.4,-1124.31"/>
</g>
<!-- Node21&#45;&gt;Node18 -->
<g id="edge20" class="edge">
<title>Node21&#45;&gt;Node18</title>
<path fill="none" stroke="midnightblue" d="M660.25,-1123.29C681.66,-1118.25 708.09,-1112.03 730.75,-1106.7"/>
<polygon fill="midnightblue" stroke="midnightblue" points="731.61,-1110.09 740.54,-1104.4 730,-1103.28 731.61,-1110.09"/>
</g>
<!-- Node22&#45;&gt;Node11 -->
<g id="edge23" class="edge">
<title>Node22&#45;&gt;Node11</title>
<path fill="none" stroke="midnightblue" d="M477.19,-819.25C486.48,-815.82 495.57,-811.17 503,-804.88 530,-782.01 511.26,-755.83 539,-733.88 541.64,-731.79 544.47,-729.92 547.44,-728.26"/>
<polygon fill="midnightblue" stroke="midnightblue" points="549.18,-731.31 556.7,-723.85 546.16,-724.99 549.18,-731.31"/>
</g>
<!-- Node22&#45;&gt;Node12 -->
<g id="edge25" class="edge">
<title>Node22&#45;&gt;Node12</title>
<path fill="none" stroke="midnightblue" d="M445.54,-819.22C462.89,-809.49 488.03,-792.93 503,-771.88 533.79,-728.58 500.17,-694.14 539,-657.88 543.04,-654.11 547.69,-651.05 552.67,-648.57"/>
<polygon fill="midnightblue" stroke="midnightblue" points="554.05,-651.79 561.93,-644.71 551.35,-645.33 554.05,-651.79"/>
</g>
<!-- Node22&#45;&gt;Node17 -->
<g id="edge31" class="edge">
<title>Node22&#45;&gt;Node17</title>
<path fill="none" stroke="midnightblue" d="M433.02,-838.5C447.28,-859.9 481.68,-913.34 503,-961.88 524.37,-1010.52 500.17,-1039.61 539,-1075.88 546.38,-1082.77 555.82,-1087.28 565.57,-1090.22"/>
<polygon fill="midnightblue" stroke="midnightblue" points="564.82,-1093.64 575.37,-1092.65 566.51,-1086.84 564.82,-1093.64"/>
</g>
<!-- Node22&#45;&gt;Node18 -->
<g id="edge32" class="edge">
<title>Node22&#45;&gt;Node18</title>
<path fill="none" stroke="midnightblue" d="M431.58,-838.48C449.09,-871.25 507.58,-977.83 539,-999.88 598.48,-1041.6 631.6,-1008.37 698,-1037.88 721.72,-1048.42 745.85,-1065.91 761.93,-1078.74"/>
<polygon fill="midnightblue" stroke="midnightblue" points="760.03,-1081.7 769.99,-1085.32 764.45,-1076.28 760.03,-1081.7"/>
</g>
<!-- Node23 -->
<g id="node22" class="node">
<title>Node23</title>
<g id="a_node22"><a xlink:href="classPlayer.html#a87e8bbfff4cf193bd570e35622977b72" target="_top" xlink:title=" ">
<polygon fill="white" stroke="black" points="539,-971.38 539,-990.38 698,-990.38 698,-971.38 539,-971.38"/>
<text text-anchor="middle" x="618.5" y="-978.38" font-family="Helvetica,sans-Serif" font-size="10.00">Player::setAttackersQueue</text>
</a>
</g>
</g>
<!-- Node22&#45;&gt;Node23 -->
<g id="edge22" class="edge">
<title>Node22&#45;&gt;Node23</title>
<path fill="none" stroke="midnightblue" d="M431.83,-838.73C445.84,-863.61 486.25,-929.31 539,-961.88 542.56,-964.07 546.35,-966.01 550.28,-967.73"/>
<polygon fill="midnightblue" stroke="midnightblue" points="549.04,-971.01 559.63,-971.35 551.56,-964.48 549.04,-971.01"/>
</g>
<!-- Node24 -->
<g id="node23" class="node">
<title>Node24</title>
<g id="a_node23"><a xlink:href="classMap.html#a7ded655c7db0e9d72816430b4f2c83a5" target="_top" xlink:title=" ">
<polygon fill="white" stroke="black" points="574,-933.38 574,-952.38 663,-952.38 663,-933.38 574,-933.38"/>
<text text-anchor="middle" x="618.5" y="-940.38" font-family="Helvetica,sans-Serif" font-size="10.00">Map::clearMap</text>
</a>
</g>
</g>
<!-- Node22&#45;&gt;Node24 -->
<g id="edge24" class="edge">
<title>Node22&#45;&gt;Node24</title>
<path fill="none" stroke="midnightblue" d="M435.05,-838.65C452.54,-858.01 494.54,-901.33 539,-923.88 546.81,-927.84 555.49,-931 564.14,-933.51"/>
<polygon fill="midnightblue" stroke="midnightblue" points="563.29,-936.91 573.85,-936.08 565.08,-930.14 563.29,-936.91"/>
</g>
<!-- Node25 -->
<g id="node24" class="node">
<title>Node25</title>
<g id="a_node24"><a xlink:href="classPlayer.html#a096faa437f10378af7d8dac43100eb99" target="_top" xlink:title=" ">
<polygon fill="white" stroke="black" points="545.5,-895.38 545.5,-914.38 691.5,-914.38 691.5,-895.38 545.5,-895.38"/>
<text text-anchor="middle" x="618.5" y="-902.38" font-family="Helvetica,sans-Serif" font-size="10.00">Player::createNewAttacker</text>
</a>
</g>
</g>
<!-- Node22&#45;&gt;Node25 -->
<g id="edge26" class="edge">
<title>Node22&#45;&gt;Node25</title>
<path fill="none" stroke="midnightblue" d="M442.36,-838.4C463.68,-850.85 503.05,-872.62 539,-885.88 545.87,-888.41 553.21,-890.7 560.54,-892.74"/>
<polygon fill="midnightblue" stroke="midnightblue" points="559.92,-896.2 570.48,-895.37 561.71,-889.43 559.92,-896.2"/>
</g>
<!-- Node26 -->
<g id="node25" class="node">
<title>Node26</title>
<g id="a_node25"><a xlink:href="classEnemy.html#a9cc1a12934dc9719abd466553a8a0dee" target="_top" xlink:title=" ">
<polygon fill="white" stroke="black" points="550,-857.38 550,-876.38 687,-876.38 687,-857.38 550,-857.38"/>
<text text-anchor="middle" x="618.5" y="-864.38" font-family="Helvetica,sans-Serif" font-size="10.00">Enemy::createNewTower</text>
</a>
</g>
</g>
<!-- Node22&#45;&gt;Node26 -->
<g id="edge27" class="edge">
<title>Node22&#45;&gt;Node26</title>
<path fill="none" stroke="midnightblue" d="M474.7,-838.46C500.47,-843.59 532.39,-849.94 559.51,-855.34"/>
<polygon fill="midnightblue" stroke="midnightblue" points="559.16,-858.84 569.65,-857.36 560.52,-851.97 559.16,-858.84"/>
</g>
<!-- Node27 -->
<g id="node26" class="node">
<title>Node27</title>
<g id="a_node26"><a xlink:href="classPlayer.html#a075aab5214b0d34e50b4c9d3a91bd02c" target="_top" xlink:title=" ">
<polygon fill="white" stroke="black" points="557.5,-819.38 557.5,-838.38 679.5,-838.38 679.5,-819.38 557.5,-819.38"/>
<text text-anchor="middle" x="618.5" y="-826.38" font-family="Helvetica,sans-Serif" font-size="10.00">Player::printAttackers</text>
</a>
</g>
</g>
<!-- Node22&#45;&gt;Node27 -->
<g id="edge28" class="edge">
<title>Node22&#45;&gt;Node27</title>
<path fill="none" stroke="midnightblue" d="M489.57,-828.88C508.08,-828.88 528.44,-828.88 547.37,-828.88"/>
<polygon fill="midnightblue" stroke="midnightblue" points="547.41,-832.38 557.41,-828.88 547.41,-825.38 547.41,-832.38"/>
</g>
<!-- Node28 -->
<g id="node27" class="node">
<title>Node28</title>
<g id="a_node27"><a xlink:href="classMap.html#a1cefc1b8ed6692667e2019f64acc0f5a" target="_top" xlink:title=" ">
<polygon fill="white" stroke="black" points="575,-667.38 575,-686.38 662,-686.38 662,-667.38 575,-667.38"/>
<text text-anchor="middle" x="618.5" y="-674.38" font-family="Helvetica,sans-Serif" font-size="10.00">Map::printMap</text>
</a>
</g>
</g>
<!-- Node22&#45;&gt;Node28 -->
<g id="edge29" class="edge">
<title>Node22&#45;&gt;Node28</title>
<path fill="none" stroke="midnightblue" d="M443.94,-819.3C460.84,-809.3 486.31,-792.25 503,-771.88 526.69,-742.96 510.01,-719.46 539,-695.88 546.51,-689.77 555.67,-685.57 565.06,-682.7"/>
<polygon fill="midnightblue" stroke="midnightblue" points="566.05,-686.06 574.86,-680.17 564.3,-679.28 566.05,-686.06"/>
</g>
<!-- Node29 -->
<g id="node28" class="node">
<title>Node29</title>
<g id="a_node28"><a xlink:href="classEnemy.html#a95c457b3e58d8c931e06877c6bde6d11" target="_top" xlink:title=" ">
<polygon fill="white" stroke="black" points="562.5,-591.38 562.5,-610.38 674.5,-610.38 674.5,-591.38 562.5,-591.38"/>
<text text-anchor="middle" x="618.5" y="-598.38" font-family="Helvetica,sans-Serif" font-size="10.00">Enemy::printTowers</text>
</a>
</g>
</g>
<!-- Node22&#45;&gt;Node29 -->
<g id="edge30" class="edge">
<title>Node22&#45;&gt;Node29</title>
<path fill="none" stroke="midnightblue" d="M446.24,-819.28C463.83,-809.7 488.9,-793.33 503,-771.88 541.13,-713.86 490.03,-669.09 539,-619.88 543.02,-615.84 547.74,-612.6 552.84,-610.02"/>
<polygon fill="midnightblue" stroke="midnightblue" points="554.48,-613.13 562.35,-606.03 551.77,-606.67 554.48,-613.13"/>
</g>
<!-- Node30 -->
<g id="node29" class="node">
<title>Node30</title>
<g id="a_node29"><a xlink:href="classPlayer.html#aea8b3fb5b8a32d97929f59b13b1bedfa" target="_top" xlink:title=" ">
<polygon fill="white" stroke="black" points="571,-553.38 571,-572.38 666,-572.38 666,-553.38 571,-553.38"/>
<text text-anchor="middle" x="618.5" y="-560.38" font-family="Helvetica,sans-Serif" font-size="10.00">Player::setCoins</text>
</a>
</g>
</g>
<!-- Node22&#45;&gt;Node30 -->
<g id="edge33" class="edge">
<title>Node22&#45;&gt;Node30</title>
<path fill="none" stroke="midnightblue" d="M446.82,-819.24C464.54,-809.74 489.48,-793.5 503,-771.88 548.57,-699 479.77,-644.16 539,-581.88 544.97,-575.59 552.64,-571.24 560.83,-568.25"/>
<polygon fill="midnightblue" stroke="midnightblue" points="562.04,-571.54 570.62,-565.32 560.04,-564.83 562.04,-571.54"/>
</g>
<!-- Node31 -->
<g id="node30" class="node">
<title>Node31</title>
<g id="a_node30"><a xlink:href="classCGame.html#a03c8875a8199b246a698be32206aa902" target="_top" xlink:title=" ">
<polygon fill="white" stroke="black" points="559.5,-781.38 559.5,-800.38 677.5,-800.38 677.5,-781.38 559.5,-781.38"/>
<text text-anchor="middle" x="618.5" y="-788.38" font-family="Helvetica,sans-Serif" font-size="10.00">CGame::setDifficulty</text>
</a>
</g>
</g>
<!-- Node22&#45;&gt;Node31 -->
<g id="edge34" class="edge">
<title>Node22&#45;&gt;Node31</title>
<path fill="none" stroke="midnightblue" d="M474.7,-819.29C500.47,-814.16 532.39,-807.81 559.51,-802.41"/>
<polygon fill="midnightblue" stroke="midnightblue" points="560.52,-805.78 569.65,-800.4 559.16,-798.91 560.52,-805.78"/>
</g>
<!-- Node32 -->
<g id="node31" class="node">
<title>Node32</title>
<g id="a_node31"><a xlink:href="classPlayer.html#a00ad7c6c51e7918e6be87e71e09812a7" target="_top" xlink:title=" ">
<polygon fill="white" stroke="black" points="564,-743.38 564,-762.38 673,-762.38 673,-743.38 564,-743.38"/>
<text text-anchor="middle" x="618.5" y="-750.38" font-family="Helvetica,sans-Serif" font-size="10.00">Player::setFinished</text>
</a>
</g>
</g>
<!-- Node22&#45;&gt;Node32 -->
<g id="edge35" class="edge">
<title>Node22&#45;&gt;Node32</title>
<path fill="none" stroke="midnightblue" d="M468.39,-819.34C480.03,-815.74 492.39,-810.99 503,-804.88 521.8,-794.03 519.85,-782.08 539,-771.88 543.79,-769.32 548.94,-767.1 554.21,-765.18"/>
<polygon fill="midnightblue" stroke="midnightblue" points="555.39,-768.48 563.8,-762.03 553.21,-761.83 555.39,-768.48"/>
</g>
<!-- Node33 -->
<g id="node32" class="node">
<title>Node33</title>
<g id="a_node32"><a xlink:href="classCGame.html#a15f2fce6e112bfd4a49616cd25bd8953" target="_top" xlink:title=" ">
<polygon fill="white" stroke="black" points="539.5,-1047.38 539.5,-1066.38 697.5,-1066.38 697.5,-1047.38 539.5,-1047.38"/>
<text text-anchor="middle" x="618.5" y="-1054.38" font-family="Helvetica,sans-Serif" font-size="10.00">CGame::setTowersDestroyed</text>
</a>
</g>
</g>
<!-- Node22&#45;&gt;Node33 -->
<g id="edge36" class="edge">
<title>Node22&#45;&gt;Node33</title>
<path fill="none" stroke="midnightblue" d="M432.24,-838.46C445.22,-860.2 477.66,-915.01 503,-961.88 519.83,-993 511.92,-1010.11 539,-1032.88 543.94,-1037.03 549.59,-1040.46 555.54,-1043.3"/>
<polygon fill="midnightblue" stroke="midnightblue" points="554.51,-1046.67 565.08,-1047.3 557.21,-1040.21 554.51,-1046.67"/>
</g>
<!-- Node36&#45;&gt;Node1 -->
<g id="edge40" class="edge">
<title>Node36&#45;&gt;Node1</title>
<path fill="none" stroke="midnightblue" d="M216.86,-97.4C208.86,-100.07 200.5,-103.25 193,-106.88 134.41,-135.2 72.43,-180.88 41.5,-204.92"/>
<polygon fill="midnightblue" stroke="midnightblue" points="39,-202.44 33.29,-211.36 43.32,-207.95 39,-202.44"/>
</g>
<!-- Node37&#45;&gt;Node7 -->
<g id="edge42" class="edge">
<title>Node37&#45;&gt;Node7</title>
<path fill="none" stroke="midnightblue" d="M288.1,-411.39C314.56,-418.66 351.23,-428.74 379.88,-436.61"/>
<polygon fill="midnightblue" stroke="midnightblue" points="379.08,-440.02 389.65,-439.3 380.94,-433.27 379.08,-440.02"/>
</g>
<!-- Node38&#45;&gt;Node4 -->
<g id="edge44" class="edge">
<title>Node38&#45;&gt;Node4</title>
<path fill="none" stroke="midnightblue" d="M293.75,-116.92C300.25,-114.35 306.6,-111.07 312,-106.88 335.66,-88.49 321.76,-64.34 348,-49.88 484.23,25.21 553.01,6.48 698,-49.88 728.03,-61.55 753.81,-89.71 768.35,-108.28"/>
<polygon fill="midnightblue" stroke="midnightblue" points="765.57,-110.41 774.39,-116.28 771.16,-106.19 765.57,-110.41"/>
</g>
<!-- Node38&#45;&gt;Node5 -->
<g id="edge45" class="edge">
<title>Node38&#45;&gt;Node5</title>
<path fill="none" stroke="midnightblue" d="M293.59,-121.42C313.45,-119.21 337.92,-116.5 360.3,-114.01"/>
<polygon fill="midnightblue" stroke="midnightblue" points="360.86,-117.47 370.42,-112.88 360.09,-110.51 360.86,-117.47"/>
</g>
<!-- Node39 -->
<g id="node38" class="node">
<title>Node39</title>
<g id="a_node38"><a xlink:href="structCMenu.html#ac9ee7892120cb46cd7670bdf99eb9965" target="_top" xlink:title=" ">
<polygon fill="white" stroke="black" points="372,-59.38 372,-78.38 479,-78.38 479,-59.38 372,-59.38"/>
<text text-anchor="middle" x="425.5" y="-66.38" font-family="Helvetica,sans-Serif" font-size="10.00">CMenu::saveMenu</text>
</a>
</g>
</g>
<!-- Node38&#45;&gt;Node39 -->
<g id="edge46" class="edge">
<title>Node38&#45;&gt;Node39</title>
<path fill="none" stroke="midnightblue" d="M286.35,-116.3C294.82,-113.54 303.84,-110.33 312,-106.88 328.66,-99.83 331.1,-94.33 348,-87.88 354.44,-85.42 361.31,-83.19 368.19,-81.2"/>
<polygon fill="midnightblue" stroke="midnightblue" points="369.51,-84.47 378.23,-78.45 367.66,-77.72 369.51,-84.47"/>
</g>
<!-- Node40 -->
<g id="node39" class="node">
<title>Node40</title>
<g id="a_node39"><a xlink:href="Menu_8cpp.html#a991c482871701a7cb19cdbceae408dcb" target="_top" xlink:title=" ">
<polygon fill="white" stroke="black" points="588.5,-59.38 588.5,-78.38 648.5,-78.38 648.5,-59.38 588.5,-59.38"/>
<text text-anchor="middle" x="618.5" y="-66.38" font-family="Helvetica,sans-Serif" font-size="10.00">cleanPos</text>
</a>
</g>
</g>
<!-- Node39&#45;&gt;Node40 -->
<g id="edge47" class="edge">
<title>Node39&#45;&gt;Node40</title>
<path fill="none" stroke="midnightblue" d="M479.2,-68.88C510.57,-68.88 549.71,-68.88 578.34,-68.88"/>
<polygon fill="midnightblue" stroke="midnightblue" points="578.38,-72.38 588.38,-68.88 578.38,-65.38 578.38,-72.38"/>
</g>
<!-- Node41&#45;&gt;Node28 -->
<g id="edge57" class="edge">
<title>Node41&#45;&gt;Node28</title>
<path fill="none" stroke="midnightblue" d="M293.15,-308.39C300.26,-311.19 306.99,-315.19 312,-320.88 368.8,-385.38 303,-437.65 348,-510.88 404.09,-602.14 442.39,-611.6 539,-657.88 547.09,-661.75 556.03,-664.87 564.9,-667.38"/>
<polygon fill="midnightblue" stroke="midnightblue" points="564.27,-670.83 574.83,-669.95 566.03,-664.06 564.27,-670.83"/>
</g>
<!-- Node42 -->
<g id="node41" class="node">
<title>Node42</title>
<g id="a_node41"><a xlink:href="classCGame.html#ac171bc92e70f80457d200d6498548dd0" target="_top" xlink:title=" ">
<polygon fill="white" stroke="black" points="352.5,-482.38 352.5,-501.38 498.5,-501.38 498.5,-482.38 352.5,-482.38"/>
<text text-anchor="middle" x="425.5" y="-489.38" font-family="Helvetica,sans-Serif" font-size="10.00">CGame::drawAttackerDefs</text>
</a>
</g>
</g>
<!-- Node41&#45;&gt;Node42 -->
<g id="edge49" class="edge">
<title>Node41&#45;&gt;Node42</title>
<path fill="none" stroke="midnightblue" d="M293.21,-308.72C300.23,-311.5 306.91,-315.4 312,-320.88 357.77,-370.16 301.98,-418.82 348,-467.88 351.6,-471.71 355.8,-474.94 360.35,-477.65"/>
<polygon fill="midnightblue" stroke="midnightblue" points="358.96,-480.87 369.46,-482.26 362.12,-474.62 358.96,-480.87"/>
</g>
<!-- Node43 -->
<g id="node42" class="node">
<title>Node43</title>
<g id="a_node42"><a xlink:href="classCGame.html#a6890a8e74412ff0ced3959e3093e6d84" target="_top" xlink:title=" ">
<polygon fill="white" stroke="black" points="367.5,-382.38 367.5,-401.38 483.5,-401.38 483.5,-382.38 367.5,-382.38"/>
<text text-anchor="middle" x="425.5" y="-389.38" font-family="Helvetica,sans-Serif" font-size="10.00">CGame::drawTowers</text>
</a>
</g>
</g>
<!-- Node41&#45;&gt;Node43 -->
<g id="edge51" class="edge">
<title>Node41&#45;&gt;Node43</title>
<path fill="none" stroke="midnightblue" d="M287.77,-311.43C295.87,-314.11 304.36,-317.29 312,-320.88 345.63,-336.65 381.41,-360.63 403.36,-376.28"/>
<polygon fill="midnightblue" stroke="midnightblue" points="401.45,-379.21 411.61,-382.23 405.55,-373.54 401.45,-379.21"/>
</g>
<!-- Node54 -->
<g id="node46" class="node">
<title>Node54</title>
<g id="a_node46"><a xlink:href="classCGame.html#abca9e7318a19887770d007a56248fa82" target="_top" xlink:title=" ">
<polygon fill="white" stroke="red" points="378,-268.38 378,-287.38 473,-287.38 473,-268.38 378,-268.38"/>
<text text-anchor="middle" x="425.5" y="-275.38" font-family="Helvetica,sans-Serif" font-size="10.00">CGame::resume</text>
</a>
</g>
</g>
<!-- Node41&#45;&gt;Node54 -->
<g id="edge58" class="edge">
<title>Node41&#45;&gt;Node54</title>
<path fill="none" stroke="midnightblue" d="M293.16,-296.31C315.26,-293.21 343.16,-289.29 367.56,-285.87"/>
<polygon fill="midnightblue" stroke="midnightblue" points="368.36,-289.29 377.77,-284.43 367.38,-282.36 368.36,-289.29"/>
</g>
<!-- Node42&#45;&gt;Node13 -->
<g id="edge50" class="edge">
<title>Node42&#45;&gt;Node13</title>
<path fill="none" stroke="midnightblue" d="M481.49,-501.38C503.57,-505.19 529.2,-509.62 552.21,-513.6"/>
<polygon fill="midnightblue" stroke="midnightblue" points="551.79,-517.07 562.24,-515.33 552.98,-510.18 551.79,-517.07"/>
</g>
<!-- Node43&#45;&gt;Node12 -->
<g id="edge52" class="edge">
<title>Node43&#45;&gt;Node12</title>
<path fill="none" stroke="midnightblue" d="M461.18,-401.39C476.22,-407.24 492.7,-416.28 503,-429.88 554.91,-498.37 479.77,-557.6 539,-619.88 542.87,-623.94 547.44,-627.2 552.41,-629.8"/>
<polygon fill="midnightblue" stroke="midnightblue" points="551.13,-633.07 561.7,-633.82 553.91,-626.64 551.13,-633.07"/>
</g>
<!-- Node43&#45;&gt;Node29 -->
<g id="edge56" class="edge">
<title>Node43&#45;&gt;Node29</title>
<path fill="none" stroke="midnightblue" d="M460.51,-401.45C475.59,-407.34 492.3,-416.4 503,-429.88 546.17,-484.24 490.03,-532.66 539,-581.88 543.02,-585.91 547.74,-589.15 552.84,-591.73"/>
<polygon fill="midnightblue" stroke="midnightblue" points="551.77,-595.08 562.35,-595.72 554.48,-588.63 551.77,-595.08"/>
</g>
<!-- Node44 -->
<g id="node43" class="node">
<title>Node44</title>
<g id="a_node43"><a xlink:href="classEnemy.html#a238798e0d954a7ee3b6fafb592151cde" target="_top" xlink:title=" ">
<polygon fill="white" stroke="red" points="558.5,-401.38 558.5,-420.38 678.5,-420.38 678.5,-401.38 558.5,-401.38"/>
<text text-anchor="middle" x="618.5" y="-408.38" font-family="Helvetica,sans-Serif" font-size="10.00">Enemy::createTowers</text>
</a>
</g>
</g>
<!-- Node43&#45;&gt;Node44 -->
<g id="edge53" class="edge">
<title>Node43&#45;&gt;Node44</title>
<path fill="none" stroke="midnightblue" d="M483.55,-397.55C503.95,-399.58 527.16,-401.89 548.47,-404.01"/>
<polygon fill="midnightblue" stroke="midnightblue" points="548.13,-407.49 558.43,-405 548.82,-400.53 548.13,-407.49"/>
</g>
<!-- Node51 -->
<g id="node44" class="node">
<title>Node51</title>
<g id="a_node44"><a xlink:href="classEnemy.html#ac81638432442d1e4cc2aa0c4ca49f439" target="_top" xlink:title=" ">
<polygon fill="white" stroke="red" points="548.5,-363.38 548.5,-382.38 688.5,-382.38 688.5,-363.38 548.5,-363.38"/>
<text text-anchor="middle" x="618.5" y="-370.38" font-family="Helvetica,sans-Serif" font-size="10.00">Enemy::findEmptySpaces</text>
</a>
</g>
</g>
<!-- Node43&#45;&gt;Node51 -->
<g id="edge54" class="edge">
<title>Node43&#45;&gt;Node51</title>
<path fill="none" stroke="midnightblue" d="M483.55,-386.2C500.71,-384.49 519.85,-382.59 538.18,-380.77"/>
<polygon fill="midnightblue" stroke="midnightblue" points="538.66,-384.24 548.26,-379.76 537.96,-377.27 538.66,-384.24"/>
</g>
<!-- Node53 -->
<g id="node45" class="node">
<title>Node53</title>
<g id="a_node45"><a xlink:href="classEnemy.html#ac7a14593067f5d799c2080fadaf33cbb" target="_top" xlink:title=" ">
<polygon fill="white" stroke="black" points="554.5,-325.38 554.5,-344.38 682.5,-344.38 682.5,-325.38 554.5,-325.38"/>
<text text-anchor="middle" x="618.5" y="-332.38" font-family="Helvetica,sans-Serif" font-size="10.00">Enemy::getTowerCount</text>
</a>
</g>
</g>
<!-- Node43&#45;&gt;Node53 -->
<g id="edge55" class="edge">
<title>Node43&#45;&gt;Node53</title>
<path fill="none" stroke="midnightblue" d="M452.66,-382.31C475.33,-374.19 509.1,-362.53 539,-353.88 547.42,-351.44 556.4,-349.06 565.17,-346.86"/>
<polygon fill="midnightblue" stroke="midnightblue" points="566.08,-350.24 574.95,-344.45 564.4,-343.44 566.08,-350.24"/>
</g>
<!-- Node54&#45;&gt;Node4 -->
<g id="edge64" class="edge">
<title>Node54&#45;&gt;Node4</title>
<path fill="none" stroke="midnightblue" d="M435.83,-268.09C461.64,-241.08 532.54,-167.19 539,-163.88 597.06,-134.1 672.45,-126.36 723.55,-124.95"/>
<polygon fill="midnightblue" stroke="midnightblue" points="723.82,-128.44 733.75,-124.74 723.68,-121.44 723.82,-128.44"/>
</g>
<!-- Node54&#45;&gt;Node30 -->
<g id="edge66" class="edge">
<title>Node54&#45;&gt;Node30</title>
<path fill="none" stroke="midnightblue" d="M437.02,-287.58C453.74,-303.63 486.22,-337.48 503,-372.88 536.27,-443.05 484.91,-488.14 539,-543.88 545.04,-550.1 552.73,-554.42 560.94,-557.4"/>
<polygon fill="midnightblue" stroke="midnightblue" points="560.15,-560.82 570.74,-560.32 562.15,-554.11 560.15,-560.82"/>
</g>
<!-- Node54&#45;&gt;Node53 -->
<g id="edge65" class="edge">
<title>Node54&#45;&gt;Node53</title>
<path fill="none" stroke="midnightblue" d="M452.66,-287.44C475.33,-295.56 509.1,-307.22 539,-315.88 547.42,-318.31 556.4,-320.69 565.17,-322.89"/>
<polygon fill="midnightblue" stroke="midnightblue" points="564.4,-326.31 574.95,-325.3 566.08,-319.51 564.4,-326.31"/>
</g>
<!-- Node55 -->
<g id="node47" class="node">
<title>Node55</title>
<g id="a_node47"><a xlink:href="classPlayer.html#a48ee21b77d6b43d234aaac7470b7bc04" target="_top" xlink:title=" ">
<polygon fill="white" stroke="black" points="541.5,-249.38 541.5,-268.38 695.5,-268.38 695.5,-249.38 541.5,-249.38"/>
<text text-anchor="middle" x="618.5" y="-256.38" font-family="Helvetica,sans-Serif" font-size="10.00">Player::addAttackerToQueue</text>
</a>
</g>
</g>
<!-- Node54&#45;&gt;Node55 -->
<g id="edge59" class="edge">
<title>Node54&#45;&gt;Node55</title>
<path fill="none" stroke="midnightblue" d="M473.22,-273.23C490.8,-271.48 511.38,-269.43 531.41,-267.44"/>
<polygon fill="midnightblue" stroke="midnightblue" points="531.89,-270.91 541.5,-266.44 531.2,-263.94 531.89,-270.91"/>
</g>
<!-- Node56 -->
<g id="node48" class="node">
<title>Node56</title>
<g id="a_node48"><a xlink:href="classCGame.html#aabb1f7e83086241852153c784791fb51" target="_top" xlink:title=" ">
<polygon fill="white" stroke="red" points="542.5,-287.38 542.5,-306.38 694.5,-306.38 694.5,-287.38 542.5,-287.38"/>
<text text-anchor="middle" x="618.5" y="-294.38" font-family="Helvetica,sans-Serif" font-size="10.00">CGame::drawCurrentMoney</text>
</a>
</g>
</g>
<!-- Node54&#45;&gt;Node56 -->
<g id="edge60" class="edge">
<title>Node54&#45;&gt;Node56</title>
<path fill="none" stroke="midnightblue" d="M473.22,-282.52C490.99,-284.29 511.82,-286.36 532.05,-288.38"/>
<polygon fill="midnightblue" stroke="midnightblue" points="531.94,-291.88 542.24,-289.39 532.63,-284.92 531.94,-291.88"/>
</g>
<!-- Node58 -->
<g id="node49" class="node">
<title>Node58</title>
<g id="a_node49"><a xlink:href="classPlayer.html#af8808a3a7405e9dfdcd6a3e89c5c3f23" target="_top" xlink:title=" ">
<polygon fill="white" stroke="black" points="540,-211.38 540,-230.38 697,-230.38 697,-211.38 540,-211.38"/>
<text text-anchor="middle" x="618.5" y="-218.38" font-family="Helvetica,sans-Serif" font-size="10.00">Player::emptyAttackerQueue</text>
</a>
</g>
</g>
<!-- Node54&#45;&gt;Node58 -->
<g id="edge62" class="edge">
<title>Node54&#45;&gt;Node58</title>
<path fill="none" stroke="midnightblue" d="M452.66,-268.31C475.33,-260.19 509.1,-248.53 539,-239.88 547.42,-237.44 556.4,-235.06 565.17,-232.86"/>
<polygon fill="midnightblue" stroke="midnightblue" points="566.08,-236.24 574.95,-230.45 564.4,-229.44 566.08,-236.24"/>
</g>
<!-- Node59 -->
<g id="node50" class="node">
<title>Node59</title>
<g id="a_node50"><a xlink:href="classPlayer.html#a600133320cd307c65c50966d300c4412" target="_top" xlink:title=" ">
<polygon fill="white" stroke="black" points="553,-173.38 553,-192.38 684,-192.38 684,-173.38 553,-173.38"/>
<text text-anchor="middle" x="618.5" y="-180.38" font-family="Helvetica,sans-Serif" font-size="10.00">Player::emptyAttackers</text>
</a>
</g>
</g>
<!-- Node54&#45;&gt;Node59 -->
<g id="edge63" class="edge">
<title>Node54&#45;&gt;Node59</title>
<path fill="none" stroke="midnightblue" d="M437.83,-268.17C457.24,-252.03 498.68,-219.68 539,-201.88 544.64,-199.39 550.66,-197.19 556.76,-195.26"/>
<polygon fill="midnightblue" stroke="midnightblue" points="557.76,-198.62 566.37,-192.45 555.79,-191.9 557.76,-198.62"/>
</g>
<!-- Node56&#45;&gt;Node4 -->
<g id="edge61" class="edge">
<title>Node56&#45;&gt;Node4</title>
<path fill="none" stroke="midnightblue" d="M681.37,-287.26C687.32,-284.79 692.99,-281.72 698,-277.88 742.8,-243.52 766.53,-177.79 776,-145.19"/>
<polygon fill="midnightblue" stroke="midnightblue" points="779.39,-146.07 778.68,-135.5 772.64,-144.21 779.39,-146.07"/>
</g>
</g>
</svg>
