<?xml version="1.0" encoding="UTF-8" standalone="no"?>
<!DOCTYPE svg PUBLIC "-//W3C//DTD SVG 1.1//EN"
 "http://www.w3.org/Graphics/SVG/1.1/DTD/svg11.dtd">
<!-- Generated by graphviz version 2.43.0 (0)
 -->
<!-- Title: main Pages: 1 -->
<svg width="658pt" height="256pt"
 viewBox="0.00 0.00 658.00 256.00" xmlns="http://www.w3.org/2000/svg" xmlns:xlink="http://www.w3.org/1999/xlink">
<g id="graph0" class="graph" transform="scale(1 1) rotate(0) translate(4 252)">
<title>main</title>
<polygon fill="white" stroke="transparent" points="-4,4 -4,-252 654,-252 654,4 -4,4"/>
<!-- Node1 -->
<g id="node1" class="node">
<title>Node1</title>
<g id="a_node1"><a xlink:title=" ">
<polygon fill="#bfbfbf" stroke="black" points="0,-142.5 0,-161.5 41,-161.5 41,-142.5 0,-142.5"/>
<text text-anchor="middle" x="20.5" y="-149.5" font-family="Helvetica,sans-Serif" font-size="10.00">main</text>
</a>
</g>
</g>
<!-- Node2 -->
<g id="node2" class="node">
<title>Node2</title>
<g id="a_node2"><a xlink:href="Game_8cpp.html#af66392f74826c89391d33dcbfb45e5b3" target="_top" xlink:title=" ">
<polygon fill="white" stroke="black" points="85,-180.5 85,-199.5 150,-199.5 150,-180.5 85,-180.5"/>
<text text-anchor="middle" x="117.5" y="-187.5" font-family="Helvetica,sans-Serif" font-size="10.00">loadMenu</text>
</a>
</g>
</g>
<!-- Node1&#45;&gt;Node2 -->
<g id="edge1" class="edge">
<title>Node1&#45;&gt;Node2</title>
<path fill="none" stroke="midnightblue" d="M41.18,-159.87C53.28,-164.71 69.1,-171.04 83.11,-176.65"/>
<polygon fill="midnightblue" stroke="midnightblue" points="81.88,-179.92 92.46,-180.38 84.48,-173.42 81.88,-179.92"/>
</g>
<!-- Node4 -->
<g id="node4" class="node">
<title>Node4</title>
<g id="a_node4"><a xlink:href="Game_8cpp.html#a8396c50bf544009fb2fc4907b00cbad3" target="_top" xlink:title=" ">
<polygon fill="white" stroke="black" points="83.5,-142.5 83.5,-161.5 151.5,-161.5 151.5,-142.5 83.5,-142.5"/>
<text text-anchor="middle" x="117.5" y="-149.5" font-family="Helvetica,sans-Serif" font-size="10.00">mainMenu</text>
</a>
</g>
</g>
<!-- Node1&#45;&gt;Node4 -->
<g id="edge3" class="edge">
<title>Node1&#45;&gt;Node4</title>
<path fill="none" stroke="midnightblue" d="M41.18,-152C50.5,-152 62.03,-152 73.24,-152"/>
<polygon fill="midnightblue" stroke="midnightblue" points="73.37,-155.5 83.37,-152 73.37,-148.5 73.37,-155.5"/>
</g>
<!-- Node5 -->
<g id="node5" class="node">
<title>Node5</title>
<g id="a_node5"><a xlink:href="classCGame.html#aa70fa8586abbd097b8eb7fb8d540841d" target="_top" xlink:title=" ">
<polygon fill="white" stroke="black" points="77,-95.5 77,-114.5 158,-114.5 158,-95.5 77,-95.5"/>
<text text-anchor="middle" x="117.5" y="-102.5" font-family="Helvetica,sans-Serif" font-size="10.00">CGame::start</text>
</a>
</g>
</g>
<!-- Node1&#45;&gt;Node5 -->
<g id="edge5" class="edge">
<title>Node1&#45;&gt;Node5</title>
<path fill="none" stroke="midnightblue" d="M40.72,-142.49C54.28,-135.78 72.68,-126.68 87.95,-119.13"/>
<polygon fill="midnightblue" stroke="midnightblue" points="89.57,-122.23 96.98,-114.66 86.46,-115.96 89.57,-122.23"/>
</g>
<!-- Node3 -->
<g id="node3" class="node">
<title>Node3</title>
<g id="a_node3"><a xlink:href="Game_8cpp.html#a5f00bd86c2427bc56a5c44240776567d" target="_top" xlink:title=" ">
<polygon fill="white" stroke="black" points="220,-180.5 220,-199.5 284,-199.5 284,-180.5 220,-180.5"/>
<text text-anchor="middle" x="252" y="-187.5" font-family="Helvetica,sans-Serif" font-size="10.00">newMenu</text>
</a>
</g>
</g>
<!-- Node2&#45;&gt;Node3 -->
<g id="edge2" class="edge">
<title>Node2&#45;&gt;Node3</title>
<path fill="none" stroke="midnightblue" d="M150.24,-190C168.15,-190 190.73,-190 209.97,-190"/>
<polygon fill="midnightblue" stroke="midnightblue" points="209.98,-193.5 219.98,-190 209.98,-186.5 209.98,-193.5"/>
</g>
<!-- Node4&#45;&gt;Node3 -->
<g id="edge4" class="edge">
<title>Node4&#45;&gt;Node3</title>
<path fill="none" stroke="midnightblue" d="M151.59,-161.49C169.27,-166.56 191.18,-172.84 209.93,-178.22"/>
<polygon fill="midnightblue" stroke="midnightblue" points="209.12,-181.63 219.69,-181.02 211.05,-174.9 209.12,-181.63"/>
</g>
<!-- Node6 -->
<g id="node6" class="node">
<title>Node6</title>
<g id="a_node6"><a xlink:href="classCGame.html#a6890a8e74412ff0ced3959e3093e6d84" target="_top" xlink:title=" ">
<polygon fill="white" stroke="black" points="194,-142.5 194,-161.5 310,-161.5 310,-142.5 194,-142.5"/>
<text text-anchor="middle" x="252" y="-149.5" font-family="Helvetica,sans-Serif" font-size="10.00">CGame::drawTowers</text>
</a>
</g>
</g>
<!-- Node5&#45;&gt;Node6 -->
<g id="edge6" class="edge">
<title>Node5&#45;&gt;Node6</title>
<path fill="none" stroke="midnightblue" d="M145.31,-114.51C165.12,-121.54 192.31,-131.18 214.16,-138.93"/>
<polygon fill="midnightblue" stroke="midnightblue" points="213.18,-142.3 223.77,-142.34 215.52,-135.7 213.18,-142.3"/>
</g>
<!-- Node13 -->
<g id="node13" class="node">
<title>Node13</title>
<g id="a_node13"><a xlink:href="classMap.html#af5b5492b49e9d1aaa54e586d1203030f" target="_top" xlink:title=" ">
<polygon fill="white" stroke="black" points="203,-76.5 203,-95.5 301,-95.5 301,-76.5 203,-76.5"/>
<text text-anchor="middle" x="252" y="-83.5" font-family="Helvetica,sans-Serif" font-size="10.00">Map::redrawMap</text>
</a>
</g>
</g>
<!-- Node5&#45;&gt;Node13 -->
<g id="edge13" class="edge">
<title>Node5&#45;&gt;Node13</title>
<path fill="none" stroke="midnightblue" d="M158.25,-99.3C169.1,-97.74 181.09,-96.03 192.73,-94.36"/>
<polygon fill="midnightblue" stroke="midnightblue" points="193.45,-97.79 202.85,-92.9 192.45,-90.86 193.45,-97.79"/>
</g>
<!-- Node16 -->
<g id="node16" class="node">
<title>Node16</title>
<g id="a_node16"><a xlink:href="classCGame.html#abca9e7318a19887770d007a56248fa82" target="_top" xlink:title=" ">
<polygon fill="white" stroke="black" points="204.5,-19.5 204.5,-38.5 299.5,-38.5 299.5,-19.5 204.5,-19.5"/>
<text text-anchor="middle" x="252" y="-26.5" font-family="Helvetica,sans-Serif" font-size="10.00">CGame::resume</text>
</a>
</g>
</g>
<!-- Node5&#45;&gt;Node16 -->
<g id="edge16" class="edge">
<title>Node5&#45;&gt;Node16</title>
<path fill="none" stroke="midnightblue" d="M135.28,-95.37C158.08,-82.3 199.04,-58.8 225.61,-43.56"/>
<polygon fill="midnightblue" stroke="midnightblue" points="227.42,-46.56 234.36,-38.55 223.94,-40.49 227.42,-46.56"/>
</g>
<!-- Node7 -->
<g id="node7" class="node">
<title>Node7</title>
<g id="a_node7"><a xlink:href="classEnemy.html#ab8dab466556eb7f9a39697c045864289" target="_top" xlink:title=" ">
<polygon fill="white" stroke="black" points="359.5,-228.5 359.5,-247.5 472.5,-247.5 472.5,-228.5 359.5,-228.5"/>
<text text-anchor="middle" x="416" y="-235.5" font-family="Helvetica,sans-Serif" font-size="10.00">Enemy::clearTowers</text>
</a>
</g>
</g>
<!-- Node6&#45;&gt;Node7 -->
<g id="edge7" class="edge">
<title>Node6&#45;&gt;Node7</title>
<path fill="none" stroke="midnightblue" d="M292.25,-161.56C298.51,-164.06 304.67,-167.16 310,-171 331.63,-186.59 323.96,-203.99 346,-219 348.91,-220.98 352.03,-222.76 355.26,-224.35"/>
<polygon fill="midnightblue" stroke="midnightblue" points="354.06,-227.65 364.63,-228.37 356.82,-221.21 354.06,-227.65"/>
</g>
<!-- Node8 -->
<g id="node8" class="node">
<title>Node8</title>
<g id="a_node8"><a xlink:href="classEnemy.html#a238798e0d954a7ee3b6fafb592151cde" target="_top" xlink:title=" ">
<polygon fill="white" stroke="black" points="356,-190.5 356,-209.5 476,-209.5 476,-190.5 356,-190.5"/>
<text text-anchor="middle" x="416" y="-197.5" font-family="Helvetica,sans-Serif" font-size="10.00">Enemy::createTowers</text>
</a>
</g>
</g>
<!-- Node6&#45;&gt;Node8 -->
<g id="edge8" class="edge">
<title>Node6&#45;&gt;Node8</title>
<path fill="none" stroke="midnightblue" d="M282.66,-161.53C300.89,-167.31 324.74,-174.76 346,-181 353.63,-183.24 361.75,-185.55 369.65,-187.75"/>
<polygon fill="midnightblue" stroke="midnightblue" points="368.91,-191.17 379.48,-190.46 370.77,-184.43 368.91,-191.17"/>
</g>
<!-- Node10 -->
<g id="node10" class="node">
<title>Node10</title>
<g id="a_node10"><a xlink:href="classEnemy.html#ac81638432442d1e4cc2aa0c4ca49f439" target="_top" xlink:title=" ">
<polygon fill="white" stroke="black" points="346,-152.5 346,-171.5 486,-171.5 486,-152.5 346,-152.5"/>
<text text-anchor="middle" x="416" y="-159.5" font-family="Helvetica,sans-Serif" font-size="10.00">Enemy::findEmptySpaces</text>
</a>
</g>
</g>
<!-- Node6&#45;&gt;Node10 -->
<g id="edge10" class="edge">
<title>Node6&#45;&gt;Node10</title>
<path fill="none" stroke="midnightblue" d="M310.12,-155.53C318.43,-156.04 327.11,-156.57 335.77,-157.11"/>
<polygon fill="midnightblue" stroke="midnightblue" points="335.7,-160.61 345.9,-157.73 336.13,-153.62 335.7,-160.61"/>
</g>
<!-- Node12 -->
<g id="node12" class="node">
<title>Node12</title>
<g id="a_node12"><a xlink:href="classEnemy.html#a95c457b3e58d8c931e06877c6bde6d11" target="_top" xlink:title=" ">
<polygon fill="white" stroke="black" points="360,-114.5 360,-133.5 472,-133.5 472,-114.5 360,-114.5"/>
<text text-anchor="middle" x="416" y="-121.5" font-family="Helvetica,sans-Serif" font-size="10.00">Enemy::printTowers</text>
</a>
</g>
</g>
<!-- Node6&#45;&gt;Node12 -->
<g id="edge12" class="edge">
<title>Node6&#45;&gt;Node12</title>
<path fill="none" stroke="midnightblue" d="M308.3,-142.44C321.72,-140.12 336.2,-137.62 350.02,-135.23"/>
<polygon fill="midnightblue" stroke="midnightblue" points="350.69,-138.67 359.95,-133.51 349.5,-131.77 350.69,-138.67"/>
</g>
<!-- Node9 -->
<g id="node9" class="node">
<title>Node9</title>
<g id="a_node9"><a xlink:href="classMap.html#a4b669f3ae1f41ad70ae8c28910bfa4e8" target="_top" xlink:title=" ">
<polygon fill="white" stroke="black" points="522,-190.5 522,-209.5 650,-209.5 650,-190.5 522,-190.5"/>
<text text-anchor="middle" x="586" y="-197.5" font-family="Helvetica,sans-Serif" font-size="10.00">Map::checkNeighbours</text>
</a>
</g>
</g>
<!-- Node8&#45;&gt;Node9 -->
<g id="edge9" class="edge">
<title>Node8&#45;&gt;Node9</title>
<path fill="none" stroke="midnightblue" d="M476.23,-200C487.63,-200 499.7,-200 511.48,-200"/>
<polygon fill="midnightblue" stroke="midnightblue" points="511.74,-203.5 521.74,-200 511.74,-196.5 511.74,-203.5"/>
</g>
<!-- Node11 -->
<g id="node11" class="node">
<title>Node11</title>
<g id="a_node11"><a xlink:href="classMap.html#ae4713f8271b2c9fd62184ab0f2342447" target="_top" xlink:title=" ">
<polygon fill="white" stroke="black" points="523.5,-152.5 523.5,-171.5 648.5,-171.5 648.5,-152.5 523.5,-152.5"/>
<text text-anchor="middle" x="586" y="-159.5" font-family="Helvetica,sans-Serif" font-size="10.00">Map::getEmptySpaces</text>
</a>
</g>
</g>
<!-- Node10&#45;&gt;Node11 -->
<g id="edge11" class="edge">
<title>Node10&#45;&gt;Node11</title>
<path fill="none" stroke="midnightblue" d="M486.3,-162C495.23,-162 504.39,-162 513.36,-162"/>
<polygon fill="midnightblue" stroke="midnightblue" points="513.38,-165.5 523.38,-162 513.38,-158.5 513.38,-165.5"/>
</g>
<!-- Node14 -->
<g id="node14" class="node">
<title>Node14</title>
<g id="a_node14"><a xlink:href="classMap.html#a1f7ed5381d68b10d5adfca2a7d26516a" target="_top" xlink:title=" ">
<polygon fill="white" stroke="black" points="365.5,-76.5 365.5,-95.5 466.5,-95.5 466.5,-76.5 365.5,-76.5"/>
<text text-anchor="middle" x="416" y="-83.5" font-family="Helvetica,sans-Serif" font-size="10.00">Map::convertMap</text>
</a>
</g>
</g>
<!-- Node13&#45;&gt;Node14 -->
<g id="edge14" class="edge">
<title>Node13&#45;&gt;Node14</title>
<path fill="none" stroke="midnightblue" d="M301.17,-86C318.09,-86 337.3,-86 355.07,-86"/>
<polygon fill="midnightblue" stroke="midnightblue" points="355.33,-89.5 365.33,-86 355.33,-82.5 355.33,-89.5"/>
</g>
<!-- Node15 -->
<g id="node15" class="node">
<title>Node15</title>
<g id="a_node15"><a xlink:href="classMap.html#a1cefc1b8ed6692667e2019f64acc0f5a" target="_top" xlink:title=" ">
<polygon fill="white" stroke="black" points="372.5,-38.5 372.5,-57.5 459.5,-57.5 459.5,-38.5 372.5,-38.5"/>
<text text-anchor="middle" x="416" y="-45.5" font-family="Helvetica,sans-Serif" font-size="10.00">Map::printMap</text>
</a>
</g>
</g>
<!-- Node13&#45;&gt;Node15 -->
<g id="edge15" class="edge">
<title>Node13&#45;&gt;Node15</title>
<path fill="none" stroke="midnightblue" d="M293.88,-76.41C315.35,-71.37 341.86,-65.16 364.6,-59.82"/>
<polygon fill="midnightblue" stroke="midnightblue" points="365.48,-63.21 374.41,-57.52 363.88,-56.4 365.48,-63.21"/>
</g>
<!-- Node17 -->
<g id="node17" class="node">
<title>Node17</title>
<g id="a_node17"><a xlink:href="Game_8cpp.html#ad5451da499ab9d3907da8dd7060ab677" target="_top" xlink:title=" ">
<polygon fill="white" stroke="black" points="395.5,-0.5 395.5,-19.5 436.5,-19.5 436.5,-0.5 395.5,-0.5"/>
<text text-anchor="middle" x="416" y="-7.5" font-family="Helvetica,sans-Serif" font-size="10.00">kbhit</text>
</a>
</g>
</g>
<!-- Node16&#45;&gt;Node17 -->
<g id="edge17" class="edge">
<title>Node16&#45;&gt;Node17</title>
<path fill="none" stroke="midnightblue" d="M299.86,-23.5C327.25,-20.29 361.01,-16.33 384.88,-13.53"/>
<polygon fill="midnightblue" stroke="midnightblue" points="385.56,-16.98 395.09,-12.34 384.75,-10.02 385.56,-16.98"/>
</g>
</g>
</svg>
