<?xml version="1.0" encoding="UTF-8" standalone="no"?>
<!DOCTYPE svg PUBLIC "-//W3C//DTD SVG 1.1//EN"
 "http://www.w3.org/Graphics/SVG/1.1/DTD/svg11.dtd">
<!-- Generated by graphviz version 2.43.0 (0)
 -->
<!-- Title: src/main.cpp Pages: 1 -->
<svg width="1734pt" height="476pt"
 viewBox="0.00 0.00 1734.00 476.00" xmlns="http://www.w3.org/2000/svg" xmlns:xlink="http://www.w3.org/1999/xlink">
<g id="graph0" class="graph" transform="scale(1 1) rotate(0) translate(4 472)">
<title>src/main.cpp</title>
<polygon fill="white" stroke="transparent" points="-4,4 -4,-472 1730,-472 1730,4 -4,4"/>
<!-- Node1 -->
<g id="node1" class="node">
<title>Node1</title>
<g id="a_node1"><a xlink:title=" ">
<polygon fill="#bfbfbf" stroke="black" points="1197.5,-448.5 1197.5,-467.5 1276.5,-467.5 1276.5,-448.5 1197.5,-448.5"/>
<text text-anchor="middle" x="1237" y="-455.5" font-family="Helvetica,sans-Serif" font-size="10.00">src/main.cpp</text>
</a>
</g>
</g>
<!-- Node2 -->
<g id="node2" class="node">
<title>Node2</title>
<g id="a_node2"><a xlink:href="Game_8h.html" target="_top" xlink:title=" ">
<polygon fill="white" stroke="black" points="1209.5,-392.5 1209.5,-411.5 1264.5,-411.5 1264.5,-392.5 1209.5,-392.5"/>
<text text-anchor="middle" x="1237" y="-399.5" font-family="Helvetica,sans-Serif" font-size="10.00">Game.h</text>
</a>
</g>
</g>
<!-- Node1&#45;&gt;Node2 -->
<g id="edge1" class="edge">
<title>Node1&#45;&gt;Node2</title>
<path fill="none" stroke="midnightblue" d="M1237,-448.08C1237,-441.01 1237,-430.86 1237,-421.99"/>
<polygon fill="midnightblue" stroke="midnightblue" points="1240.5,-421.75 1237,-411.75 1233.5,-421.75 1240.5,-421.75"/>
</g>
<!-- Node3 -->
<g id="node3" class="node">
<title>Node3</title>
<g id="a_node3"><a xlink:href="HelpStructs_8h.html" target="_top" xlink:title=" ">
<polygon fill="white" stroke="black" points="1196,-168.5 1196,-187.5 1278,-187.5 1278,-168.5 1196,-168.5"/>
<text text-anchor="middle" x="1237" y="-175.5" font-family="Helvetica,sans-Serif" font-size="10.00">HelpStructs.h</text>
</a>
</g>
</g>
<!-- Node2&#45;&gt;Node3 -->
<g id="edge2" class="edge">
<title>Node2&#45;&gt;Node3</title>
<path fill="none" stroke="midnightblue" d="M1237,-392.3C1237,-359.63 1237,-243.87 1237,-197.96"/>
<polygon fill="midnightblue" stroke="midnightblue" points="1240.5,-197.88 1237,-187.88 1233.5,-197.88 1240.5,-197.88"/>
</g>
<!-- Node4 -->
<g id="node4" class="node">
<title>Node4</title>
<g id="a_node4"><a xlink:title=" ">
<polygon fill="white" stroke="#bfbfbf" points="1158.5,-56.5 1158.5,-75.5 1221.5,-75.5 1221.5,-56.5 1158.5,-56.5"/>
<text text-anchor="middle" x="1190" y="-63.5" font-family="Helvetica,sans-Serif" font-size="10.00">ncurses.h</text>
</a>
</g>
</g>
<!-- Node2&#45;&gt;Node4 -->
<g id="edge3" class="edge">
<title>Node2&#45;&gt;Node4</title>
<path fill="none" stroke="midnightblue" d="M1264.51,-400.52C1299.42,-398.45 1359.46,-389.8 1396,-356 1418.61,-335.09 1420,-321.8 1420,-291 1420,-291 1420,-291 1420,-177 1420,-94.65 1298.52,-73.9 1232.14,-68.71"/>
<polygon fill="midnightblue" stroke="midnightblue" points="1232.2,-65.2 1221.98,-68 1231.71,-72.18 1232.2,-65.2"/>
</g>
<!-- Node5 -->
<g id="node5" class="node">
<title>Node5</title>
<g id="a_node5"><a xlink:href="Attacker_8h.html" target="_top" xlink:title=" ">
<polygon fill="white" stroke="black" points="678.5,-224.5 678.5,-243.5 743.5,-243.5 743.5,-224.5 678.5,-224.5"/>
<text text-anchor="middle" x="711" y="-231.5" font-family="Helvetica,sans-Serif" font-size="10.00">Attacker.h</text>
</a>
</g>
</g>
<!-- Node2&#45;&gt;Node5 -->
<g id="edge4" class="edge">
<title>Node2&#45;&gt;Node5</title>
<path fill="none" stroke="midnightblue" d="M1209.48,-397.22C1170.28,-391.3 1096.54,-378.16 1037,-356 969.92,-331.03 961.85,-305.59 895,-280 848.12,-262.05 791.72,-249.51 753.83,-242.31"/>
<polygon fill="midnightblue" stroke="midnightblue" points="754.13,-238.8 743.66,-240.42 752.85,-245.68 754.13,-238.8"/>
</g>
<!-- Node8 -->
<g id="node8" class="node">
<title>Node8</title>
<g id="a_node8"><a xlink:href="Map_8h.html" target="_top" xlink:title=" ">
<polygon fill="white" stroke="black" points="637.5,-112.5 637.5,-131.5 684.5,-131.5 684.5,-112.5 637.5,-112.5"/>
<text text-anchor="middle" x="661" y="-119.5" font-family="Helvetica,sans-Serif" font-size="10.00">Map.h</text>
</a>
</g>
</g>
<!-- Node2&#45;&gt;Node8 -->
<g id="edge39" class="edge">
<title>Node2&#45;&gt;Node8</title>
<path fill="none" stroke="midnightblue" d="M1247.18,-392.46C1266.37,-375.35 1306,-334.73 1306,-291 1306,-291 1306,-291 1306,-233 1306,-202.9 1310.49,-186.82 1287,-168 1238.78,-129.36 793.52,-137.89 732,-132 719.76,-130.83 706.36,-129.22 694.54,-127.68"/>
<polygon fill="midnightblue" stroke="midnightblue" points="695,-124.21 684.63,-126.36 694.08,-131.15 695,-124.21"/>
</g>
<!-- Node9 -->
<g id="node9" class="node">
<title>Node9</title>
<g id="a_node9"><a xlink:title=" ">
<polygon fill="white" stroke="#bfbfbf" points="873.5,-56.5 873.5,-75.5 920.5,-75.5 920.5,-56.5 873.5,-56.5"/>
<text text-anchor="middle" x="897" y="-63.5" font-family="Helvetica,sans-Serif" font-size="10.00">vector</text>
</a>
</g>
</g>
<!-- Node2&#45;&gt;Node9 -->
<g id="edge68" class="edge">
<title>Node2&#45;&gt;Node9</title>
<path fill="none" stroke="midnightblue" d="M1264.61,-393.69C1306.69,-380.7 1382,-349.3 1382,-291 1382,-291 1382,-291 1382,-233 1382,-189.23 1346.81,-188.25 1308,-168 1179.12,-100.76 1003.97,-77.13 931.04,-69.86"/>
<polygon fill="midnightblue" stroke="midnightblue" points="930.93,-66.33 920.64,-68.87 930.26,-73.3 930.93,-66.33"/>
</g>
<!-- Node10 -->
<g id="node10" class="node">
<title>Node10</title>
<g id="a_node10"><a xlink:title=" ">
<polygon fill="white" stroke="#bfbfbf" points="1032,-0.5 1032,-19.5 1076,-19.5 1076,-0.5 1032,-0.5"/>
<text text-anchor="middle" x="1054" y="-7.5" font-family="Helvetica,sans-Serif" font-size="10.00">string</text>
</a>
</g>
</g>
<!-- Node2&#45;&gt;Node10 -->
<g id="edge69" class="edge">
<title>Node2&#45;&gt;Node10</title>
<path fill="none" stroke="midnightblue" d="M1264.69,-400.74C1368.14,-399.04 1726,-386.28 1726,-291 1726,-291 1726,-291 1726,-121 1726,-55.39 1220.7,-20.85 1086.43,-12.83"/>
<polygon fill="midnightblue" stroke="midnightblue" points="1086.55,-9.34 1076.36,-12.24 1086.14,-16.32 1086.55,-9.34"/>
</g>
<!-- Node11 -->
<g id="node11" class="node">
<title>Node11</title>
<g id="a_node11"><a xlink:title=" ">
<polygon fill="white" stroke="#bfbfbf" points="281,-56.5 281,-75.5 339,-75.5 339,-56.5 281,-56.5"/>
<text text-anchor="middle" x="310" y="-63.5" font-family="Helvetica,sans-Serif" font-size="10.00">memory</text>
</a>
</g>
</g>
<!-- Node2&#45;&gt;Node11 -->
<g id="edge71" class="edge">
<title>Node2&#45;&gt;Node11</title>
<path fill="none" stroke="midnightblue" d="M1209.28,-400.63C1068.33,-398.35 430.91,-383.54 255,-300 222.34,-284.49 210.27,-277.22 196,-244 191.44,-233.39 188.22,-199.23 198,-168 206.84,-139.76 212.7,-132.53 234,-112 247.71,-98.78 266.01,-87.8 281.22,-79.99"/>
<polygon fill="midnightblue" stroke="midnightblue" points="282.8,-83.11 290.22,-75.55 279.7,-76.83 282.8,-83.11"/>
</g>
<!-- Node14 -->
<g id="node14" class="node">
<title>Node14</title>
<g id="a_node14"><a xlink:href="Definitions_8h.html" target="_top" xlink:title=" ">
<polygon fill="white" stroke="black" points="157,-56.5 157,-75.5 235,-75.5 235,-56.5 157,-56.5"/>
<text text-anchor="middle" x="196" y="-63.5" font-family="Helvetica,sans-Serif" font-size="10.00">Definitions.h</text>
</a>
</g>
</g>
<!-- Node2&#45;&gt;Node14 -->
<g id="edge74" class="edge">
<title>Node2&#45;&gt;Node14</title>
<path fill="none" stroke="midnightblue" d="M1209.14,-400.9C1101.72,-400.25 704.31,-395.15 380,-356 226.39,-337.46 38,-445.72 38,-291 38,-291 38,-291 38,-177 38,-122.39 102.35,-92.68 148.92,-78.33"/>
<polygon fill="midnightblue" stroke="midnightblue" points="149.95,-81.68 158.56,-75.5 147.98,-74.96 149.95,-81.68"/>
</g>
<!-- Node18 -->
<g id="node18" class="node">
<title>Node18</title>
<g id="a_node18"><a xlink:title=" ">
<polygon fill="white" stroke="#bfbfbf" points="53,-0.5 53,-19.5 113,-19.5 113,-0.5 53,-0.5"/>
<text text-anchor="middle" x="83" y="-7.5" font-family="Helvetica,sans-Serif" font-size="10.00">iostream</text>
</a>
</g>
</g>
<!-- Node2&#45;&gt;Node18 -->
<g id="edge70" class="edge">
<title>Node2&#45;&gt;Node18</title>
<path fill="none" stroke="midnightblue" d="M1209.41,-400.68C1035.28,-398.57 94.38,-385.81 42,-356 12.11,-338.99 0,-325.39 0,-291 0,-291 0,-291 0,-121 0,-79.91 37.36,-44.44 61.95,-25.55"/>
<polygon fill="midnightblue" stroke="midnightblue" points="64.07,-28.33 70.03,-19.57 59.91,-22.7 64.07,-28.33"/>
</g>
<!-- Node22 -->
<g id="node22" class="node">
<title>Node22</title>
<g id="a_node22"><a xlink:href="exceptions_8h.html" target="_top" xlink:title=" ">
<polygon fill="white" stroke="black" points="946.5,-168.5 946.5,-187.5 1025.5,-187.5 1025.5,-168.5 946.5,-168.5"/>
<text text-anchor="middle" x="986" y="-175.5" font-family="Helvetica,sans-Serif" font-size="10.00">exceptions.h</text>
</a>
</g>
</g>
<!-- Node2&#45;&gt;Node22 -->
<g id="edge40" class="edge">
<title>Node2&#45;&gt;Node22</title>
<path fill="none" stroke="midnightblue" d="M1227.16,-392.3C1189.2,-358.73 1052,-237.38 1003.3,-194.3"/>
<polygon fill="midnightblue" stroke="midnightblue" points="1005.58,-191.65 995.77,-187.64 1000.94,-196.89 1005.58,-191.65"/>
</g>
<!-- Node25 -->
<g id="node25" class="node">
<title>Node25</title>
<g id="a_node25"><a xlink:href="Player_8h.html" target="_top" xlink:title=" ">
<polygon fill="white" stroke="black" points="415,-280.5 415,-299.5 471,-299.5 471,-280.5 415,-280.5"/>
<text text-anchor="middle" x="443" y="-287.5" font-family="Helvetica,sans-Serif" font-size="10.00">Player.h</text>
</a>
</g>
</g>
<!-- Node2&#45;&gt;Node25 -->
<g id="edge41" class="edge">
<title>Node2&#45;&gt;Node25</title>
<path fill="none" stroke="midnightblue" d="M1209.18,-398.6C1142.18,-392.68 966.68,-376.38 821,-356 696.18,-338.53 549.29,-311.36 481.2,-298.38"/>
<polygon fill="midnightblue" stroke="midnightblue" points="481.84,-294.94 471.36,-296.5 480.52,-301.82 481.84,-294.94"/>
</g>
<!-- Node27 -->
<g id="node27" class="node">
<title>Node27</title>
<g id="a_node27"><a xlink:href="Enemy_8h.html" target="_top" xlink:title=" ">
<polygon fill="white" stroke="black" points="830,-336.5 830,-355.5 888,-355.5 888,-336.5 830,-336.5"/>
<text text-anchor="middle" x="859" y="-343.5" font-family="Helvetica,sans-Serif" font-size="10.00">Enemy.h</text>
</a>
</g>
</g>
<!-- Node2&#45;&gt;Node27 -->
<g id="edge50" class="edge">
<title>Node2&#45;&gt;Node27</title>
<path fill="none" stroke="midnightblue" d="M1209.2,-397.03C1142.85,-387.55 975.02,-363.57 898.32,-352.62"/>
<polygon fill="midnightblue" stroke="midnightblue" points="898.52,-349.11 888.13,-351.16 897.53,-356.04 898.52,-349.11"/>
</g>
<!-- Node31 -->
<g id="node31" class="node">
<title>Node31</title>
<g id="a_node31"><a xlink:title=" ">
<polygon fill="white" stroke="#bfbfbf" points="1486,-336.5 1486,-355.5 1552,-355.5 1552,-336.5 1486,-336.5"/>
<text text-anchor="middle" x="1519" y="-343.5" font-family="Helvetica,sans-Serif" font-size="10.00">sys/ioctl.h</text>
</a>
</g>
</g>
<!-- Node2&#45;&gt;Node31 -->
<g id="edge72" class="edge">
<title>Node2&#45;&gt;Node31</title>
<path fill="none" stroke="midnightblue" d="M1264.55,-395.72C1313.71,-386.31 1416.88,-366.56 1475.63,-355.31"/>
<polygon fill="midnightblue" stroke="midnightblue" points="1476.55,-358.69 1485.71,-353.37 1475.23,-351.82 1476.55,-358.69"/>
</g>
<!-- Node32 -->
<g id="node32" class="node">
<title>Node32</title>
<g id="a_node32"><a xlink:title=" ">
<polygon fill="white" stroke="#bfbfbf" points="1562,-168.5 1562,-187.5 1698,-187.5 1698,-168.5 1562,-168.5"/>
<text text-anchor="middle" x="1630" y="-175.5" font-family="Helvetica,sans-Serif" font-size="10.00">experimental/filesystem</text>
</a>
</g>
</g>
<!-- Node2&#45;&gt;Node32 -->
<g id="edge73" class="edge">
<title>Node2&#45;&gt;Node32</title>
<path fill="none" stroke="midnightblue" d="M1264.5,-400.66C1334.15,-399.27 1515.21,-392.17 1561,-356 1611.21,-316.34 1624.95,-235.14 1628.65,-198.14"/>
<polygon fill="midnightblue" stroke="midnightblue" points="1632.17,-198.05 1629.54,-187.78 1625.2,-197.45 1632.17,-198.05"/>
</g>
<!-- Node33 -->
<g id="node33" class="node">
<title>Node33</title>
<g id="a_node33"><a xlink:href="Menu_8h.html" target="_top" xlink:title=" ">
<polygon fill="white" stroke="black" points="1448.5,-224.5 1448.5,-243.5 1501.5,-243.5 1501.5,-224.5 1448.5,-224.5"/>
<text text-anchor="middle" x="1475" y="-231.5" font-family="Helvetica,sans-Serif" font-size="10.00">Menu.h</text>
</a>
</g>
</g>
<!-- Node2&#45;&gt;Node33 -->
<g id="edge75" class="edge">
<title>Node2&#45;&gt;Node33</title>
<path fill="none" stroke="midnightblue" d="M1264.6,-398.02C1312.73,-392.3 1409.26,-378.33 1434,-356 1463.54,-329.33 1471.81,-280.6 1474.12,-253.83"/>
<polygon fill="midnightblue" stroke="midnightblue" points="1477.63,-253.75 1474.8,-243.54 1470.65,-253.29 1477.63,-253.75"/>
</g>
<!-- Node5&#45;&gt;Node3 -->
<g id="edge36" class="edge">
<title>Node5&#45;&gt;Node3</title>
<path fill="none" stroke="midnightblue" d="M743.51,-229.66C832.06,-220.57 1078.08,-195.31 1185.6,-184.28"/>
<polygon fill="midnightblue" stroke="midnightblue" points="1186.28,-187.73 1195.87,-183.22 1185.57,-180.76 1186.28,-187.73"/>
</g>
<!-- Node6 -->
<g id="node6" class="node">
<title>Node6</title>
<g id="a_node6"><a xlink:href="Entity_8h.html" target="_top" xlink:title=" ">
<polygon fill="white" stroke="black" points="556.5,-168.5 556.5,-187.5 609.5,-187.5 609.5,-168.5 556.5,-168.5"/>
<text text-anchor="middle" x="583" y="-175.5" font-family="Helvetica,sans-Serif" font-size="10.00">Entity.h</text>
</a>
</g>
</g>
<!-- Node5&#45;&gt;Node6 -->
<g id="edge5" class="edge">
<title>Node5&#45;&gt;Node6</title>
<path fill="none" stroke="midnightblue" d="M690.72,-224.44C669.65,-215.56 636.48,-201.56 612.51,-191.45"/>
<polygon fill="midnightblue" stroke="midnightblue" points="613.76,-188.18 603.19,-187.52 611.04,-194.63 613.76,-188.18"/>
</g>
<!-- Node7 -->
<g id="node7" class="node">
<title>Node7</title>
<g id="a_node7"><a xlink:href="constants_8h.html" target="_top" xlink:title=" ">
<polygon fill="white" stroke="black" points="664.5,-0.5 664.5,-19.5 737.5,-19.5 737.5,-0.5 664.5,-0.5"/>
<text text-anchor="middle" x="701" y="-7.5" font-family="Helvetica,sans-Serif" font-size="10.00">constants.h</text>
</a>
</g>
</g>
<!-- Node5&#45;&gt;Node7 -->
<g id="edge26" class="edge">
<title>Node5&#45;&gt;Node7</title>
<path fill="none" stroke="midnightblue" d="M721.88,-224.43C744.24,-205.72 792.4,-159.09 782,-112 776.08,-85.2 772.82,-77.68 756,-56 746.81,-44.16 733.95,-33.42 722.98,-25.4"/>
<polygon fill="midnightblue" stroke="midnightblue" points="724.89,-22.46 714.69,-19.59 720.87,-28.2 724.89,-22.46"/>
</g>
<!-- Node5&#45;&gt;Node8 -->
<g id="edge32" class="edge">
<title>Node5&#45;&gt;Node8</title>
<path fill="none" stroke="midnightblue" d="M707.33,-224.11C702.1,-211.54 692.13,-187.87 683,-168 678.82,-158.9 673.95,-148.88 669.85,-140.61"/>
<polygon fill="midnightblue" stroke="midnightblue" points="672.94,-138.95 665.34,-131.57 666.67,-142.08 672.94,-138.95"/>
</g>
<!-- Node5&#45;&gt;Node9 -->
<g id="edge27" class="edge">
<title>Node5&#45;&gt;Node9</title>
<path fill="none" stroke="midnightblue" d="M743.51,-227.32C769.67,-221.34 806.05,-209.67 831,-188 839.64,-180.5 872.22,-116.64 888.14,-84.84"/>
<polygon fill="midnightblue" stroke="midnightblue" points="891.34,-86.27 892.67,-75.76 885.07,-83.14 891.34,-86.27"/>
</g>
<!-- Node5&#45;&gt;Node11 -->
<g id="edge29" class="edge">
<title>Node5&#45;&gt;Node11</title>
<path fill="none" stroke="midnightblue" d="M678.45,-225.77C644.99,-217.95 591.63,-204.37 547,-188 527.21,-180.74 523.26,-176.56 504,-168 466.51,-151.35 455.59,-150.55 419,-132 387.7,-116.14 353.16,-94.86 331.53,-81.04"/>
<polygon fill="midnightblue" stroke="midnightblue" points="333.4,-78.08 323.09,-75.61 329.61,-83.96 333.4,-78.08"/>
</g>
<!-- Node5&#45;&gt;Node14 -->
<g id="edge37" class="edge">
<title>Node5&#45;&gt;Node14</title>
<path fill="none" stroke="midnightblue" d="M678.16,-229.14C636.53,-223.51 563.08,-211.11 504,-188 487.67,-181.61 485.84,-175.51 470,-168 425.97,-147.14 293.58,-100.66 230.35,-78.8"/>
<polygon fill="midnightblue" stroke="midnightblue" points="231.42,-75.46 220.82,-75.51 229.13,-82.08 231.42,-75.46"/>
</g>
<!-- Node19 -->
<g id="node19" class="node">
<title>Node19</title>
<g id="a_node19"><a xlink:title=" ">
<polygon fill="white" stroke="#bfbfbf" points="741,-112.5 741,-131.5 773,-131.5 773,-112.5 741,-112.5"/>
<text text-anchor="middle" x="757" y="-119.5" font-family="Helvetica,sans-Serif" font-size="10.00">set</text>
</a>
</g>
</g>
<!-- Node5&#45;&gt;Node19 -->
<g id="edge28" class="edge">
<title>Node5&#45;&gt;Node19</title>
<path fill="none" stroke="midnightblue" d="M714.61,-224.37C722.1,-206.46 739.47,-164.92 749.49,-140.95"/>
<polygon fill="midnightblue" stroke="midnightblue" points="752.78,-142.17 753.41,-131.59 746.32,-139.47 752.78,-142.17"/>
</g>
<!-- Node20 -->
<g id="node20" class="node">
<title>Node20</title>
<g id="a_node20"><a xlink:title=" ">
<polygon fill="white" stroke="#bfbfbf" points="414.5,-168.5 414.5,-187.5 461.5,-187.5 461.5,-168.5 414.5,-168.5"/>
<text text-anchor="middle" x="438" y="-175.5" font-family="Helvetica,sans-Serif" font-size="10.00">queue</text>
</a>
</g>
</g>
<!-- Node5&#45;&gt;Node20 -->
<g id="edge30" class="edge">
<title>Node5&#45;&gt;Node20</title>
<path fill="none" stroke="midnightblue" d="M678.22,-227.19C632.71,-219.01 547.9,-203.39 476,-188 474.55,-187.69 473.07,-187.37 471.58,-187.04"/>
<polygon fill="midnightblue" stroke="midnightblue" points="472.21,-183.59 461.68,-184.78 470.65,-190.41 472.21,-183.59"/>
</g>
<!-- Node21 -->
<g id="node21" class="node">
<title>Node21</title>
<g id="a_node21"><a xlink:title=" ">
<polygon fill="white" stroke="#bfbfbf" points="627.5,-168.5 627.5,-187.5 674.5,-187.5 674.5,-168.5 627.5,-168.5"/>
<text text-anchor="middle" x="651" y="-175.5" font-family="Helvetica,sans-Serif" font-size="10.00">deque</text>
</a>
</g>
</g>
<!-- Node5&#45;&gt;Node21 -->
<g id="edge31" class="edge">
<title>Node5&#45;&gt;Node21</title>
<path fill="none" stroke="midnightblue" d="M701.36,-224.32C692.49,-216.34 679.13,-204.31 668.39,-194.65"/>
<polygon fill="midnightblue" stroke="midnightblue" points="670.59,-191.92 660.82,-187.83 665.91,-197.13 670.59,-191.92"/>
</g>
<!-- Node5&#45;&gt;Node22 -->
<g id="edge33" class="edge">
<title>Node5&#45;&gt;Node22</title>
<path fill="none" stroke="midnightblue" d="M743.63,-226.59C791.31,-217.23 880.42,-199.73 936.29,-188.76"/>
<polygon fill="midnightblue" stroke="midnightblue" points="937.18,-192.15 946.32,-186.79 935.83,-185.29 937.18,-192.15"/>
</g>
<!-- Node24 -->
<g id="node24" class="node">
<title>Node24</title>
<g id="a_node24"><a xlink:title=" ">
<polygon fill="white" stroke="#bfbfbf" points="883.5,-168.5 883.5,-187.5 928.5,-187.5 928.5,-168.5 883.5,-168.5"/>
<text text-anchor="middle" x="906" y="-175.5" font-family="Helvetica,sans-Serif" font-size="10.00">utility</text>
</a>
</g>
</g>
<!-- Node5&#45;&gt;Node24 -->
<g id="edge38" class="edge">
<title>Node5&#45;&gt;Node24</title>
<path fill="none" stroke="midnightblue" d="M741.9,-224.44C777.92,-214.47 837.19,-198.06 873.77,-187.92"/>
<polygon fill="midnightblue" stroke="midnightblue" points="874.75,-191.29 883.45,-185.24 872.88,-184.54 874.75,-191.29"/>
</g>
<!-- Node6&#45;&gt;Node4 -->
<g id="edge25" class="edge">
<title>Node6&#45;&gt;Node4</title>
<path fill="none" stroke="midnightblue" d="M605.57,-168.42C627.98,-159.75 663.19,-145.71 693,-132 710.7,-123.86 713.31,-117.49 732,-112 809.56,-89.2 1050.72,-74.33 1148.34,-69.1"/>
<polygon fill="midnightblue" stroke="midnightblue" points="1148.63,-72.59 1158.43,-68.56 1148.26,-65.59 1148.63,-72.59"/>
</g>
<!-- Node6&#45;&gt;Node7 -->
<g id="edge6" class="edge">
<title>Node6&#45;&gt;Node7</title>
<path fill="none" stroke="midnightblue" d="M582.35,-168.32C581.2,-146.86 581.1,-90.52 608,-56 620.09,-40.48 638.9,-30 656.44,-23.09"/>
<polygon fill="midnightblue" stroke="midnightblue" points="657.81,-26.31 666.01,-19.61 655.41,-19.74 657.81,-26.31"/>
</g>
<!-- Node6&#45;&gt;Node8 -->
<g id="edge7" class="edge">
<title>Node6&#45;&gt;Node8</title>
<path fill="none" stroke="midnightblue" d="M590.42,-168.32C600.76,-159.9 619.14,-146.97 634.66,-137.07"/>
<polygon fill="midnightblue" stroke="midnightblue" points="636.74,-139.9 643.39,-131.65 633.05,-133.96 636.74,-139.9"/>
</g>
<!-- Node6&#45;&gt;Node11 -->
<g id="edge23" class="edge">
<title>Node6&#45;&gt;Node11</title>
<path fill="none" stroke="midnightblue" d="M561.58,-168.37C513.44,-148.97 396.54,-101.87 340.69,-79.37"/>
<polygon fill="midnightblue" stroke="midnightblue" points="341.91,-76.08 331.32,-75.59 339.29,-82.58 341.91,-76.08"/>
</g>
<!-- Node6&#45;&gt;Node18 -->
<g id="edge22" class="edge">
<title>Node6&#45;&gt;Node18</title>
<path fill="none" stroke="midnightblue" d="M567.29,-168.44C544.13,-155.86 499.42,-131.75 461,-112 411.15,-86.37 401.4,-73.05 348,-56 254.14,-26.03 223.73,-38.59 123.15,-20.07"/>
<polygon fill="midnightblue" stroke="midnightblue" points="123.67,-16.61 113.19,-18.18 122.36,-23.49 123.67,-16.61"/>
</g>
<!-- Node6&#45;&gt;Node19 -->
<g id="edge24" class="edge">
<title>Node6&#45;&gt;Node19</title>
<path fill="none" stroke="midnightblue" d="M609.81,-168.68C642.84,-158.43 698.58,-141.13 731.16,-131.02"/>
<polygon fill="midnightblue" stroke="midnightblue" points="732.35,-134.31 740.86,-128.01 730.28,-127.63 732.35,-134.31"/>
</g>
<!-- Node8&#45;&gt;Node4 -->
<g id="edge11" class="edge">
<title>Node8&#45;&gt;Node4</title>
<path fill="none" stroke="midnightblue" d="M684.61,-114.86C689.35,-113.79 694.32,-112.77 699,-112 864.24,-85 1063.6,-72.99 1148.49,-68.82"/>
<polygon fill="midnightblue" stroke="midnightblue" points="1148.68,-72.32 1158.5,-68.34 1148.34,-65.33 1148.68,-72.32"/>
</g>
<!-- Node8&#45;&gt;Node6 -->
<g id="edge14" class="edge">
<title>Node8&#45;&gt;Node6</title>
<path fill="none" stroke="midnightblue" d="M653.39,-131.83C643.01,-140.26 624.75,-153.1 609.32,-162.94"/>
<polygon fill="midnightblue" stroke="midnightblue" points="607.3,-160.07 600.65,-168.32 610.99,-166.02 607.3,-160.07"/>
</g>
<!-- Node8&#45;&gt;Node9 -->
<g id="edge8" class="edge">
<title>Node8&#45;&gt;Node9</title>
<path fill="none" stroke="midnightblue" d="M684.71,-115.35C689.44,-114.23 694.38,-113.07 699,-112 756.69,-98.61 823.92,-83.42 863.34,-74.55"/>
<polygon fill="midnightblue" stroke="midnightblue" points="864.22,-77.94 873.21,-72.33 862.69,-71.11 864.22,-77.94"/>
</g>
<!-- Node8&#45;&gt;Node10 -->
<g id="edge9" class="edge">
<title>Node8&#45;&gt;Node10</title>
<path fill="none" stroke="midnightblue" d="M684.57,-112.8C722.23,-99.84 798.4,-74.24 864,-56 919.08,-40.68 984.04,-26.02 1021.97,-17.79"/>
<polygon fill="midnightblue" stroke="midnightblue" points="1022.88,-21.18 1031.92,-15.65 1021.4,-14.33 1022.88,-21.18"/>
</g>
<!-- Node8&#45;&gt;Node11 -->
<g id="edge10" class="edge">
<title>Node8&#45;&gt;Node11</title>
<path fill="none" stroke="midnightblue" d="M637.42,-117.37C578.16,-108.26 422.5,-84.31 349.21,-73.03"/>
<polygon fill="midnightblue" stroke="midnightblue" points="349.43,-69.53 339.02,-71.46 348.37,-76.44 349.43,-69.53"/>
</g>
<!-- Node12 -->
<g id="node12" class="node">
<title>Node12</title>
<g id="a_node12"><a xlink:title=" ">
<polygon fill="white" stroke="#bfbfbf" points="682.5,-56.5 682.5,-75.5 747.5,-75.5 747.5,-56.5 682.5,-56.5"/>
<text text-anchor="middle" x="715" y="-63.5" font-family="Helvetica,sans-Serif" font-size="10.00">functional</text>
</a>
</g>
</g>
<!-- Node8&#45;&gt;Node12 -->
<g id="edge12" class="edge">
<title>Node8&#45;&gt;Node12</title>
<path fill="none" stroke="midnightblue" d="M669.92,-112.08C677.78,-104.22 689.43,-92.57 698.92,-83.08"/>
<polygon fill="midnightblue" stroke="midnightblue" points="701.65,-85.3 706.25,-75.75 696.7,-80.35 701.65,-85.3"/>
</g>
<!-- Node13 -->
<g id="node13" class="node">
<title>Node13</title>
<g id="a_node13"><a xlink:title=" ">
<polygon fill="white" stroke="#bfbfbf" points="617.5,-56.5 617.5,-75.5 664.5,-75.5 664.5,-56.5 617.5,-56.5"/>
<text text-anchor="middle" x="641" y="-63.5" font-family="Helvetica,sans-Serif" font-size="10.00">cmath</text>
</a>
</g>
</g>
<!-- Node8&#45;&gt;Node13 -->
<g id="edge13" class="edge">
<title>Node8&#45;&gt;Node13</title>
<path fill="none" stroke="midnightblue" d="M657.7,-112.08C655.02,-104.85 651.15,-94.41 647.81,-85.4"/>
<polygon fill="midnightblue" stroke="midnightblue" points="651,-83.91 644.24,-75.75 644.43,-86.34 651,-83.91"/>
</g>
<!-- Node8&#45;&gt;Node14 -->
<g id="edge15" class="edge">
<title>Node8&#45;&gt;Node14</title>
<path fill="none" stroke="midnightblue" d="M637.32,-118.28C576.6,-111.31 410.42,-92.2 272,-76 263.27,-74.98 253.99,-73.88 245.01,-72.82"/>
<polygon fill="midnightblue" stroke="midnightblue" points="245.39,-69.34 235.05,-71.65 244.57,-76.3 245.39,-69.34"/>
</g>
<!-- Node14&#45;&gt;Node7 -->
<g id="edge21" class="edge">
<title>Node14&#45;&gt;Node7</title>
<path fill="none" stroke="midnightblue" d="M235.04,-60.28C246.91,-58.87 259.98,-57.34 272,-56 410.89,-40.49 575.26,-23.68 654.16,-15.71"/>
<polygon fill="midnightblue" stroke="midnightblue" points="654.66,-19.17 664.26,-14.69 653.95,-12.21 654.66,-19.17"/>
</g>
<!-- Node14&#45;&gt;Node10 -->
<g id="edge18" class="edge">
<title>Node14&#45;&gt;Node10</title>
<path fill="none" stroke="midnightblue" d="M235.01,-59.92C246.87,-58.5 259.96,-57.06 272,-56 562.42,-30.47 914.85,-16.14 1021.75,-12.16"/>
<polygon fill="midnightblue" stroke="midnightblue" points="1022.02,-15.65 1031.88,-11.78 1021.76,-8.65 1022.02,-15.65"/>
</g>
<!-- Node15 -->
<g id="node15" class="node">
<title>Node15</title>
<g id="a_node15"><a xlink:title=" ">
<polygon fill="white" stroke="#bfbfbf" points="205.5,-0.5 205.5,-19.5 260.5,-19.5 260.5,-0.5 205.5,-0.5"/>
<text text-anchor="middle" x="233" y="-7.5" font-family="Helvetica,sans-Serif" font-size="10.00">fstream</text>
</a>
</g>
</g>
<!-- Node14&#45;&gt;Node15 -->
<g id="edge16" class="edge">
<title>Node14&#45;&gt;Node15</title>
<path fill="none" stroke="midnightblue" d="M202.11,-56.08C207.28,-48.53 214.85,-37.49 221.19,-28.23"/>
<polygon fill="midnightblue" stroke="midnightblue" points="224.24,-29.98 227,-19.75 218.46,-26.02 224.24,-29.98"/>
</g>
<!-- Node16 -->
<g id="node16" class="node">
<title>Node16</title>
<g id="a_node16"><a xlink:title=" ">
<polygon fill="white" stroke="#bfbfbf" points="279,-0.5 279,-19.5 317,-19.5 317,-0.5 279,-0.5"/>
<text text-anchor="middle" x="298" y="-7.5" font-family="Helvetica,sans-Serif" font-size="10.00">map</text>
</a>
</g>
</g>
<!-- Node14&#45;&gt;Node16 -->
<g id="edge17" class="edge">
<title>Node14&#45;&gt;Node16</title>
<path fill="none" stroke="midnightblue" d="M212.39,-56.32C228.67,-47.7 253.87,-34.36 272.72,-24.39"/>
<polygon fill="midnightblue" stroke="midnightblue" points="274.45,-27.43 281.65,-19.65 271.18,-21.24 274.45,-27.43"/>
</g>
<!-- Node17 -->
<g id="node17" class="node">
<title>Node17</title>
<g id="a_node17"><a xlink:title=" ">
<polygon fill="white" stroke="#bfbfbf" points="131,-0.5 131,-19.5 187,-19.5 187,-0.5 131,-0.5"/>
<text text-anchor="middle" x="159" y="-7.5" font-family="Helvetica,sans-Serif" font-size="10.00">sstream</text>
</a>
</g>
</g>
<!-- Node14&#45;&gt;Node17 -->
<g id="edge19" class="edge">
<title>Node14&#45;&gt;Node17</title>
<path fill="none" stroke="midnightblue" d="M189.89,-56.08C184.72,-48.53 177.15,-37.49 170.81,-28.23"/>
<polygon fill="midnightblue" stroke="midnightblue" points="173.54,-26.02 165,-19.75 167.76,-29.98 173.54,-26.02"/>
</g>
<!-- Node14&#45;&gt;Node18 -->
<g id="edge20" class="edge">
<title>Node14&#45;&gt;Node18</title>
<path fill="none" stroke="midnightblue" d="M178.09,-56.44C159.75,-47.68 130.99,-33.94 109.91,-23.86"/>
<polygon fill="midnightblue" stroke="midnightblue" points="111.35,-20.67 100.82,-19.52 108.33,-26.99 111.35,-20.67"/>
</g>
<!-- Node22&#45;&gt;Node10 -->
<g id="edge34" class="edge">
<title>Node22&#45;&gt;Node10</title>
<path fill="none" stroke="midnightblue" d="M989.66,-168.08C1000.41,-141.83 1032.07,-64.55 1046.58,-29.12"/>
<polygon fill="midnightblue" stroke="midnightblue" points="1049.94,-30.15 1050.49,-19.57 1043.46,-27.5 1049.94,-30.15"/>
</g>
<!-- Node23 -->
<g id="node23" class="node">
<title>Node23</title>
<g id="a_node23"><a xlink:title=" ">
<polygon fill="white" stroke="#bfbfbf" points="884.5,-112.5 884.5,-131.5 949.5,-131.5 949.5,-112.5 884.5,-112.5"/>
<text text-anchor="middle" x="917" y="-119.5" font-family="Helvetica,sans-Serif" font-size="10.00">exception</text>
</a>
</g>
</g>
<!-- Node22&#45;&gt;Node23 -->
<g id="edge35" class="edge">
<title>Node22&#45;&gt;Node23</title>
<path fill="none" stroke="midnightblue" d="M974.91,-168.32C964.51,-160.18 948.74,-147.84 936.28,-138.09"/>
<polygon fill="midnightblue" stroke="midnightblue" points="938.32,-135.24 928.29,-131.83 934.01,-140.75 938.32,-135.24"/>
</g>
<!-- Node25&#45;&gt;Node5 -->
<g id="edge43" class="edge">
<title>Node25&#45;&gt;Node5</title>
<path fill="none" stroke="midnightblue" d="M471.17,-283.32C518.24,-273.84 613.12,-254.72 668.39,-243.59"/>
<polygon fill="midnightblue" stroke="midnightblue" points="669.11,-247.01 678.23,-241.6 667.73,-240.15 669.11,-247.01"/>
</g>
<!-- Node25&#45;&gt;Node6 -->
<g id="edge42" class="edge">
<title>Node25&#45;&gt;Node6</title>
<path fill="none" stroke="midnightblue" d="M453.99,-280.37C477.81,-261.65 534.44,-217.15 564.12,-193.83"/>
<polygon fill="midnightblue" stroke="midnightblue" points="566.36,-196.52 572.07,-187.59 562.04,-191.02 566.36,-196.52"/>
</g>
<!-- Node25&#45;&gt;Node8 -->
<g id="edge47" class="edge">
<title>Node25&#45;&gt;Node8</title>
<path fill="none" stroke="midnightblue" d="M435.36,-280.31C417.4,-258.81 376.12,-202.4 405,-168 432.98,-134.68 564.07,-126.02 627.05,-123.78"/>
<polygon fill="midnightblue" stroke="midnightblue" points="627.38,-127.27 637.27,-123.45 627.16,-120.28 627.38,-127.27"/>
</g>
<!-- Node25&#45;&gt;Node9 -->
<g id="edge46" class="edge">
<title>Node25&#45;&gt;Node9</title>
<path fill="none" stroke="midnightblue" d="M429.93,-280.38C419.02,-272.38 404.14,-259.41 397,-244 382.78,-213.31 372.04,-194.55 393,-168 422.61,-130.51 755.27,-85.08 863.32,-71.21"/>
<polygon fill="midnightblue" stroke="midnightblue" points="863.88,-74.67 873.35,-69.94 862.99,-67.73 863.88,-74.67"/>
</g>
<!-- Node25&#45;&gt;Node11 -->
<g id="edge45" class="edge">
<title>Node25&#45;&gt;Node11</title>
<path fill="none" stroke="midnightblue" d="M414.66,-282.21C391.15,-275.5 357.82,-263.38 334,-244 310.67,-225.02 304.83,-216.75 296,-188 286.08,-155.71 290.93,-145.39 296,-112 297.37,-103 300.19,-93.33 302.95,-85.26"/>
<polygon fill="midnightblue" stroke="midnightblue" points="306.27,-86.37 306.4,-75.78 299.69,-83.98 306.27,-86.37"/>
</g>
<!-- Node25&#45;&gt;Node14 -->
<g id="edge44" class="edge">
<title>Node25&#45;&gt;Node14</title>
<path fill="none" stroke="midnightblue" d="M414.9,-287.73C358.8,-284.58 235.95,-274.29 209,-244 169.45,-199.55 182.17,-121.45 190.81,-85.75"/>
<polygon fill="midnightblue" stroke="midnightblue" points="194.28,-86.31 193.4,-75.75 187.5,-84.56 194.28,-86.31"/>
</g>
<!-- Node25&#45;&gt;Node20 -->
<g id="edge49" class="edge">
<title>Node25&#45;&gt;Node20</title>
<path fill="none" stroke="midnightblue" d="M442.61,-280.37C441.8,-262.62 439.94,-221.67 438.85,-197.6"/>
<polygon fill="midnightblue" stroke="midnightblue" points="442.34,-197.42 438.39,-187.59 435.35,-197.74 442.34,-197.42"/>
</g>
<!-- Node26 -->
<g id="node26" class="node">
<title>Node26</title>
<g id="a_node26"><a xlink:title=" ">
<polygon fill="white" stroke="#bfbfbf" points="218,-224.5 218,-243.5 282,-243.5 282,-224.5 218,-224.5"/>
<text text-anchor="middle" x="250" y="-231.5" font-family="Helvetica,sans-Serif" font-size="10.00">algorithm</text>
</a>
</g>
</g>
<!-- Node25&#45;&gt;Node26 -->
<g id="edge48" class="edge">
<title>Node25&#45;&gt;Node26</title>
<path fill="none" stroke="midnightblue" d="M414.94,-281.15C382.25,-272 327.99,-256.82 290.69,-246.38"/>
<polygon fill="midnightblue" stroke="midnightblue" points="291.22,-242.9 280.65,-243.58 289.34,-249.64 291.22,-242.9"/>
</g>
<!-- Node27&#45;&gt;Node4 -->
<g id="edge65" class="edge">
<title>Node27&#45;&gt;Node4</title>
<path fill="none" stroke="midnightblue" d="M888.3,-345.38C936.59,-344.8 1034.64,-338.48 1106,-300 1141.14,-281.05 1168,-274.92 1168,-235 1168,-235 1168,-235 1168,-177 1168,-144.33 1177.45,-107.24 1183.96,-85.55"/>
<polygon fill="midnightblue" stroke="midnightblue" points="1187.39,-86.31 1187.03,-75.72 1180.71,-84.22 1187.39,-86.31"/>
</g>
<!-- Node27&#45;&gt;Node7 -->
<g id="edge66" class="edge">
<title>Node27&#45;&gt;Node7</title>
<path fill="none" stroke="midnightblue" d="M888.04,-344.33C950.5,-341.2 1092,-324.24 1092,-235 1092,-235 1092,-235 1092,-121 1092,-50.27 851.89,-22.84 747.99,-14.29"/>
<polygon fill="midnightblue" stroke="midnightblue" points="748.03,-10.78 737.78,-13.47 747.47,-17.76 748.03,-10.78"/>
</g>
<!-- Node27&#45;&gt;Node8 -->
<g id="edge57" class="edge">
<title>Node27&#45;&gt;Node8</title>
<path fill="none" stroke="midnightblue" d="M851.53,-336.48C829.06,-310.87 760.05,-232.36 702,-168 693.31,-158.37 683.53,-147.62 675.7,-139.05"/>
<polygon fill="midnightblue" stroke="midnightblue" points="678.22,-136.62 668.89,-131.6 673.05,-141.35 678.22,-136.62"/>
</g>
<!-- Node27&#45;&gt;Node9 -->
<g id="edge64" class="edge">
<title>Node27&#45;&gt;Node9</title>
<path fill="none" stroke="midnightblue" d="M876.26,-336.43C913.97,-316.55 1002.84,-263.23 1034,-188 1056.11,-134.63 977.49,-95.97 930.22,-78.1"/>
<polygon fill="midnightblue" stroke="midnightblue" points="931.26,-74.75 920.66,-74.6 928.85,-81.32 931.26,-74.75"/>
</g>
<!-- Node27&#45;&gt;Node11 -->
<g id="edge63" class="edge">
<title>Node27&#45;&gt;Node11</title>
<path fill="none" stroke="midnightblue" d="M829.74,-345.5C713.24,-346.8 284.97,-344.58 209,-244 166.88,-188.24 249.87,-113.16 289.99,-81.77"/>
<polygon fill="midnightblue" stroke="midnightblue" points="292.26,-84.44 298.07,-75.58 288,-78.88 292.26,-84.44"/>
</g>
<!-- Node27&#45;&gt;Node14 -->
<g id="edge58" class="edge">
<title>Node27&#45;&gt;Node14</title>
<path fill="none" stroke="midnightblue" d="M829.95,-345.39C724.11,-346.41 359.8,-346.4 255,-300 213.86,-281.78 102.75,-139.43 100,-132 96.92,-123.66 95.23,-119.5 100,-112 110.58,-95.35 129.12,-84.76 147.11,-78.07"/>
<polygon fill="midnightblue" stroke="midnightblue" points="148.63,-81.25 156.99,-74.74 146.4,-74.61 148.63,-81.25"/>
</g>
<!-- Node27&#45;&gt;Node25 -->
<g id="edge51" class="edge">
<title>Node27&#45;&gt;Node25</title>
<path fill="none" stroke="midnightblue" d="M829.75,-341.2C756.14,-331.65 563.29,-306.61 481.05,-295.94"/>
<polygon fill="midnightblue" stroke="midnightblue" points="481.49,-292.47 471.12,-294.65 480.59,-299.41 481.49,-292.47"/>
</g>
<!-- Node28 -->
<g id="node28" class="node">
<title>Node28</title>
<g id="a_node28"><a xlink:href="Tower_8h.html" target="_top" xlink:title=" ">
<polygon fill="white" stroke="black" points="684.5,-280.5 684.5,-299.5 737.5,-299.5 737.5,-280.5 684.5,-280.5"/>
<text text-anchor="middle" x="711" y="-287.5" font-family="Helvetica,sans-Serif" font-size="10.00">Tower.h</text>
</a>
</g>
</g>
<!-- Node27&#45;&gt;Node28 -->
<g id="edge52" class="edge">
<title>Node27&#45;&gt;Node28</title>
<path fill="none" stroke="midnightblue" d="M835.55,-336.44C810.87,-327.44 771.81,-313.19 744.02,-303.05"/>
<polygon fill="midnightblue" stroke="midnightblue" points="744.94,-299.66 734.34,-299.52 742.54,-306.23 744.94,-299.66"/>
</g>
<!-- Node29 -->
<g id="node29" class="node">
<title>Node29</title>
<g id="a_node29"><a xlink:href="logFile_8h.html" target="_top" xlink:title=" ">
<polygon fill="white" stroke="black" points="911,-224.5 911,-243.5 969,-243.5 969,-224.5 911,-224.5"/>
<text text-anchor="middle" x="940" y="-231.5" font-family="Helvetica,sans-Serif" font-size="10.00">logFile.h</text>
</a>
</g>
</g>
<!-- Node27&#45;&gt;Node29 -->
<g id="edge59" class="edge">
<title>Node27&#45;&gt;Node29</title>
<path fill="none" stroke="midnightblue" d="M866.36,-336.18C873.77,-327.21 885.44,-312.84 895,-300 906.87,-284.06 919.72,-265.35 928.63,-252.1"/>
<polygon fill="midnightblue" stroke="midnightblue" points="931.71,-253.8 934.36,-243.55 925.89,-249.91 931.71,-253.8"/>
</g>
<!-- Node30 -->
<g id="node30" class="node">
<title>Node30</title>
<g id="a_node30"><a xlink:title=" ">
<polygon fill="white" stroke="#bfbfbf" points="832,-280.5 832,-299.5 886,-299.5 886,-280.5 832,-280.5"/>
<text text-anchor="middle" x="859" y="-287.5" font-family="Helvetica,sans-Serif" font-size="10.00">random</text>
</a>
</g>
</g>
<!-- Node27&#45;&gt;Node30 -->
<g id="edge67" class="edge">
<title>Node27&#45;&gt;Node30</title>
<path fill="none" stroke="midnightblue" d="M859,-336.08C859,-329.01 859,-318.86 859,-309.99"/>
<polygon fill="midnightblue" stroke="midnightblue" points="862.5,-309.75 859,-299.75 855.5,-309.75 862.5,-309.75"/>
</g>
<!-- Node28&#45;&gt;Node5 -->
<g id="edge54" class="edge">
<title>Node28&#45;&gt;Node5</title>
<path fill="none" stroke="midnightblue" d="M711,-280.08C711,-273.01 711,-262.86 711,-253.99"/>
<polygon fill="midnightblue" stroke="midnightblue" points="714.5,-253.75 711,-243.75 707.5,-253.75 714.5,-253.75"/>
</g>
<!-- Node28&#45;&gt;Node6 -->
<g id="edge53" class="edge">
<title>Node28&#45;&gt;Node6</title>
<path fill="none" stroke="midnightblue" d="M700.96,-280.37C679.27,-261.73 627.84,-217.53 600.61,-194.13"/>
<polygon fill="midnightblue" stroke="midnightblue" points="602.86,-191.45 593,-187.59 598.3,-196.76 602.86,-191.45"/>
</g>
<!-- Node28&#45;&gt;Node11 -->
<g id="edge55" class="edge">
<title>Node28&#45;&gt;Node11</title>
<path fill="none" stroke="midnightblue" d="M684.11,-285.47C627.79,-276.99 495.21,-251.32 405,-188 365.26,-160.11 334.06,-110.82 319.31,-84.58"/>
<polygon fill="midnightblue" stroke="midnightblue" points="322.34,-82.84 314.47,-75.75 316.2,-86.2 322.34,-82.84"/>
</g>
<!-- Node28&#45;&gt;Node22 -->
<g id="edge56" class="edge">
<title>Node28&#45;&gt;Node22</title>
<path fill="none" stroke="midnightblue" d="M732.58,-280.37C781.07,-260.97 898.83,-213.87 955.08,-191.37"/>
<polygon fill="midnightblue" stroke="midnightblue" points="956.54,-194.56 964.52,-187.59 953.94,-188.06 956.54,-194.56"/>
</g>
<!-- Node29&#45;&gt;Node10 -->
<g id="edge60" class="edge">
<title>Node29&#45;&gt;Node10</title>
<path fill="none" stroke="midnightblue" d="M967.44,-224.44C987.54,-217.15 1014.6,-205.12 1034,-188 1078.37,-148.85 1089.32,-132.78 1106,-76 1108.5,-67.47 1109.7,-64.08 1106,-56 1100.22,-43.36 1088.95,-32.91 1078.37,-25.27"/>
<polygon fill="midnightblue" stroke="midnightblue" points="1080.04,-22.18 1069.78,-19.53 1076.15,-28 1080.04,-22.18"/>
</g>
<!-- Node29&#45;&gt;Node22 -->
<g id="edge62" class="edge">
<title>Node29&#45;&gt;Node22</title>
<path fill="none" stroke="midnightblue" d="M947.6,-224.08C954.23,-216.3 964.02,-204.8 972.06,-195.37"/>
<polygon fill="midnightblue" stroke="midnightblue" points="974.73,-197.63 978.55,-187.75 969.4,-193.09 974.73,-197.63"/>
</g>
<!-- Node29&#45;&gt;Node24 -->
<g id="edge61" class="edge">
<title>Node29&#45;&gt;Node24</title>
<path fill="none" stroke="midnightblue" d="M934.39,-224.08C929.63,-216.53 922.68,-205.49 916.85,-196.23"/>
<polygon fill="midnightblue" stroke="midnightblue" points="919.8,-194.35 911.51,-187.75 913.88,-198.08 919.8,-194.35"/>
</g>
<!-- Node33&#45;&gt;Node3 -->
<g id="edge81" class="edge">
<title>Node33&#45;&gt;Node3</title>
<path fill="none" stroke="midnightblue" d="M1448.16,-226.91C1408.47,-217.9 1333.53,-200.9 1284.44,-189.76"/>
<polygon fill="midnightblue" stroke="midnightblue" points="1285.2,-186.35 1274.68,-187.55 1283.66,-193.17 1285.2,-186.35"/>
</g>
<!-- Node33&#45;&gt;Node4 -->
<g id="edge79" class="edge">
<title>Node33&#45;&gt;Node4</title>
<path fill="none" stroke="midnightblue" d="M1476.06,-224.32C1477.29,-211.59 1478.42,-187.29 1472,-168 1462.51,-139.46 1459.18,-128.45 1434,-112 1401.27,-90.63 1292.3,-76.94 1231.65,-70.78"/>
<polygon fill="midnightblue" stroke="midnightblue" points="1231.93,-67.3 1221.63,-69.79 1231.24,-74.26 1231.93,-67.3"/>
</g>
<!-- Node33&#45;&gt;Node9 -->
<g id="edge76" class="edge">
<title>Node33&#45;&gt;Node9</title>
<path fill="none" stroke="midnightblue" d="M1467.2,-224.26C1454.02,-210.08 1425.83,-182.19 1396,-168 1233.52,-90.69 1013.9,-72.47 930.76,-68.25"/>
<polygon fill="midnightblue" stroke="midnightblue" points="930.79,-64.74 920.64,-67.77 930.46,-71.74 930.79,-64.74"/>
</g>
<!-- Node33&#45;&gt;Node10 -->
<g id="edge77" class="edge">
<title>Node33&#45;&gt;Node10</title>
<path fill="none" stroke="midnightblue" d="M1478.34,-224.2C1481.55,-215.24 1486.18,-200.88 1488,-188 1493.07,-152.2 1487.37,-134.41 1459,-112 1344.65,-21.65 1160.02,-10.92 1086.1,-10.48"/>
<polygon fill="midnightblue" stroke="midnightblue" points="1086.02,-6.98 1076.02,-10.48 1086.02,-13.98 1086.02,-6.98"/>
</g>
<!-- Node33&#45;&gt;Node19 -->
<g id="edge78" class="edge">
<title>Node33&#45;&gt;Node19</title>
<path fill="none" stroke="midnightblue" d="M1459.28,-224.42C1431.91,-209.94 1373.31,-180.96 1320,-168 1313.38,-166.39 893.49,-133.63 783.26,-125.04"/>
<polygon fill="midnightblue" stroke="midnightblue" points="783.27,-121.53 773.03,-124.25 782.73,-128.51 783.27,-121.53"/>
</g>
<!-- Node33&#45;&gt;Node32 -->
<g id="edge80" class="edge">
<title>Node33&#45;&gt;Node32</title>
<path fill="none" stroke="midnightblue" d="M1499.56,-224.44C1525.52,-215.4 1566.67,-201.06 1595.8,-190.92"/>
<polygon fill="midnightblue" stroke="midnightblue" points="1597.26,-194.11 1605.55,-187.52 1594.96,-187.5 1597.26,-194.11"/>
</g>
</g>
</svg>
