<?xml version="1.0" encoding="UTF-8" standalone="no"?>
<!DOCTYPE svg PUBLIC "-//W3C//DTD SVG 1.1//EN"
 "http://www.w3.org/Graphics/SVG/1.1/DTD/svg11.dtd">
<!-- Generated by graphviz version 2.43.0 (0)
 -->
<!-- Title: main Pages: 1 -->
<svg width="322pt" height="85pt"
 viewBox="0.00 0.00 322.00 85.00" xmlns="http://www.w3.org/2000/svg" xmlns:xlink="http://www.w3.org/1999/xlink">
<g id="graph0" class="graph" transform="scale(1 1) rotate(0) translate(4 81)">
<title>main</title>
<polygon fill="white" stroke="transparent" points="-4,4 -4,-81 318,-81 318,4 -4,4"/>
<!-- Node1 -->
<g id="node1" class="node">
<title>Node1</title>
<g id="a_node1"><a xlink:title=" ">
<polygon fill="#bfbfbf" stroke="black" points="0,-38.5 0,-57.5 41,-57.5 41,-38.5 0,-38.5"/>
<text text-anchor="middle" x="20.5" y="-45.5" font-family="Helvetica,sans-Serif" font-size="10.00">main</text>
</a>
</g>
</g>
<!-- Node2 -->
<g id="node2" class="node">
<title>Node2</title>
<g id="a_node2"><a xlink:href="classMap.html#a6ee8da517f307341839fe49731a72c59" target="_top" xlink:title=" ">
<polygon fill="white" stroke="black" points="82.5,-57.5 82.5,-76.5 169.5,-76.5 169.5,-57.5 82.5,-57.5"/>
<text text-anchor="middle" x="126" y="-64.5" font-family="Helvetica,sans-Serif" font-size="10.00">Map::printMap</text>
</a>
</g>
</g>
<!-- Node1&#45;&gt;Node2 -->
<g id="edge1" class="edge">
<title>Node1&#45;&gt;Node2</title>
<path fill="none" stroke="midnightblue" d="M41.46,-51.66C50.36,-53.3 61.32,-55.31 72.33,-57.33"/>
<polygon fill="midnightblue" stroke="midnightblue" points="71.93,-60.82 82.4,-59.18 73.19,-53.93 71.93,-60.82"/>
</g>
<!-- Node3 -->
<g id="node3" class="node">
<title>Node3</title>
<g id="a_node3"><a xlink:href="classMap.html#ae84f294b7e9de1a49954dc2d13698e13" target="_top" xlink:title=" ">
<polygon fill="white" stroke="black" points="77,-19.5 77,-38.5 175,-38.5 175,-19.5 77,-19.5"/>
<text text-anchor="middle" x="126" y="-26.5" font-family="Helvetica,sans-Serif" font-size="10.00">Map::updateMap</text>
</a>
</g>
</g>
<!-- Node1&#45;&gt;Node3 -->
<g id="edge2" class="edge">
<title>Node1&#45;&gt;Node3</title>
<path fill="none" stroke="midnightblue" d="M41.46,-44.34C48.88,-42.97 57.72,-41.35 66.83,-39.68"/>
<polygon fill="midnightblue" stroke="midnightblue" points="67.57,-43.1 76.77,-37.85 66.3,-36.22 67.57,-43.1"/>
</g>
<!-- Node4 -->
<g id="node4" class="node">
<title>Node4</title>
<g id="a_node4"><a xlink:href="classEntity.html#a8d63b0b026cdcd2cd60c51b73dc64988" target="_top" xlink:title=" ">
<polygon fill="white" stroke="black" points="211,-38.5 211,-57.5 314,-57.5 314,-38.5 211,-38.5"/>
<text text-anchor="middle" x="262.5" y="-45.5" font-family="Helvetica,sans-Serif" font-size="10.00">Entity::getSymbol</text>
</a>
</g>
</g>
<!-- Node3&#45;&gt;Node4 -->
<g id="edge3" class="edge">
<title>Node3&#45;&gt;Node4</title>
<path fill="none" stroke="midnightblue" d="M175.18,-35.81C183.52,-36.98 192.29,-38.22 200.91,-39.44"/>
<polygon fill="midnightblue" stroke="midnightblue" points="200.54,-42.92 210.93,-40.86 201.52,-35.99 200.54,-42.92"/>
</g>
<!-- Node5 -->
<g id="node5" class="node">
<title>Node5</title>
<g id="a_node5"><a xlink:href="classEntity.html#a6171cc57bf9ab1a0d0fe18b7a8acc4ea" target="_top" xlink:title=" ">
<polygon fill="white" stroke="black" points="223.5,-0.5 223.5,-19.5 301.5,-19.5 301.5,-0.5 223.5,-0.5"/>
<text text-anchor="middle" x="262.5" y="-7.5" font-family="Helvetica,sans-Serif" font-size="10.00">Entity::move</text>
</a>
</g>
</g>
<!-- Node3&#45;&gt;Node5 -->
<g id="edge4" class="edge">
<title>Node3&#45;&gt;Node5</title>
<path fill="none" stroke="midnightblue" d="M175.18,-22.19C187.54,-20.45 200.85,-18.57 213.22,-16.82"/>
<polygon fill="midnightblue" stroke="midnightblue" points="213.94,-20.25 223.35,-15.39 212.96,-13.32 213.94,-20.25"/>
</g>
</g>
</svg>
