<?xml version="1.0" encoding="UTF-8" standalone="no"?>
<!DOCTYPE svg PUBLIC "-//W3C//DTD SVG 1.1//EN"
 "http://www.w3.org/Graphics/SVG/1.1/DTD/svg11.dtd">
<!-- Generated by graphviz version 2.43.0 (0)
 -->
<!-- Title: main Pages: 1 -->
<svg width="849pt" height="1016pt"
 viewBox="0.00 0.00 849.00 1016.00" xmlns="http://www.w3.org/2000/svg" xmlns:xlink="http://www.w3.org/1999/xlink">
<g id="graph0" class="graph" transform="scale(1 1) rotate(0) translate(4 1012)">
<title>main</title>
<polygon fill="white" stroke="transparent" points="-4,4 -4,-1012 845,-1012 845,4 -4,4"/>
<!-- Node1 -->
<g id="node1" class="node">
<title>Node1</title>
<g id="a_node1"><a xlink:title=" ">
<polygon fill="#bfbfbf" stroke="black" points="0,-513.5 0,-532.5 41,-532.5 41,-513.5 0,-513.5"/>
<text text-anchor="middle" x="20.5" y="-520.5" font-family="Helvetica,sans-Serif" font-size="10.00">main</text>
</a>
</g>
</g>
<!-- Node2 -->
<g id="node2" class="node">
<title>Node2</title>
<g id="a_node2"><a xlink:href="classCGame.html#aa7c80b7185158a0bde186d83f0e8cbb4" target="_top" xlink:title=" ">
<polygon fill="white" stroke="black" points="77,-665.5 77,-684.5 157,-684.5 157,-665.5 77,-665.5"/>
<text text-anchor="middle" x="117" y="-672.5" font-family="Helvetica,sans-Serif" font-size="10.00">CGame::play</text>
</a>
</g>
</g>
<!-- Node1&#45;&gt;Node2 -->
<g id="edge1" class="edge">
<title>Node1&#45;&gt;Node2</title>
<path fill="none" stroke="midnightblue" d="M27.41,-532.51C42.86,-557.35 84.62,-624.53 104.79,-656.98"/>
<polygon fill="midnightblue" stroke="midnightblue" points="101.84,-658.85 110.09,-665.5 107.78,-655.15 101.84,-658.85"/>
</g>
<!-- Node3 -->
<g id="node3" class="node">
<title>Node3</title>
<g id="a_node3"><a xlink:href="classCGame.html#a0dfb929b70b99ac2281273eefb2eb652" target="_top" xlink:title=" ">
<polygon fill="white" stroke="black" points="373.5,-760.5 373.5,-779.5 477.5,-779.5 477.5,-760.5 373.5,-760.5"/>
<text text-anchor="middle" x="425.5" y="-767.5" font-family="Helvetica,sans-Serif" font-size="10.00">CGame::gameEnd</text>
</a>
</g>
</g>
<!-- Node2&#45;&gt;Node3 -->
<g id="edge2" class="edge">
<title>Node2&#45;&gt;Node3</title>
<path fill="none" stroke="midnightblue" d="M134.19,-684.57C149.06,-693.02 171.92,-705.18 193,-713 249.22,-733.85 315.95,-749.36 363.28,-758.89"/>
<polygon fill="midnightblue" stroke="midnightblue" points="362.89,-762.38 373.38,-760.89 364.25,-755.51 362.89,-762.38"/>
</g>
<!-- Node10 -->
<g id="node10" class="node">
<title>Node10</title>
<g id="a_node10"><a xlink:href="classCGame.html#aaae1d58e5125f6ab128afe0ec688a00a" target="_top" xlink:title=" ">
<polygon fill="white" stroke="black" points="215.5,-323.5 215.5,-342.5 289.5,-342.5 289.5,-323.5 215.5,-323.5"/>
<text text-anchor="middle" x="252.5" y="-330.5" font-family="Helvetica,sans-Serif" font-size="10.00">CGame::init</text>
</a>
</g>
</g>
<!-- Node2&#45;&gt;Node10 -->
<g id="edge9" class="edge">
<title>Node2&#45;&gt;Node10</title>
<path fill="none" stroke="midnightblue" d="M121.71,-665.5C139.82,-619.09 219.1,-416 243.99,-352.23"/>
<polygon fill="midnightblue" stroke="midnightblue" points="247.37,-353.21 247.74,-342.62 240.85,-350.66 247.37,-353.21"/>
</g>
<!-- Node54 -->
<g id="node38" class="node">
<title>Node54</title>
<g id="a_node38"><a xlink:href="structCMenu.html#aad659993e77a8a6c41000f67081a3cbd" target="_top" xlink:title=" ">
<polygon fill="white" stroke="black" points="200.5,-760.5 200.5,-779.5 304.5,-779.5 304.5,-760.5 200.5,-760.5"/>
<text text-anchor="middle" x="252.5" y="-767.5" font-family="Helvetica,sans-Serif" font-size="10.00">CMenu::loadMenu</text>
</a>
</g>
</g>
<!-- Node2&#45;&gt;Node54 -->
<g id="edge46" class="edge">
<title>Node2&#45;&gt;Node54</title>
<path fill="none" stroke="midnightblue" d="M126.31,-684.93C139.25,-699.88 165.59,-728.29 193,-746 199.15,-749.97 206.06,-753.5 212.93,-756.56"/>
<polygon fill="midnightblue" stroke="midnightblue" points="211.61,-759.8 222.18,-760.41 214.3,-753.33 211.61,-759.8"/>
</g>
<!-- Node55 -->
<g id="node39" class="node">
<title>Node55</title>
<g id="a_node39"><a xlink:href="structCMenu.html#a07236cc397b0e4e55ec4f916c3893fbd" target="_top" xlink:title=" ">
<polygon fill="white" stroke="black" points="198.5,-285.5 198.5,-304.5 306.5,-304.5 306.5,-285.5 198.5,-285.5"/>
<text text-anchor="middle" x="252.5" y="-292.5" font-family="Helvetica,sans-Serif" font-size="10.00">CMenu::mainMenu</text>
</a>
</g>
</g>
<!-- Node2&#45;&gt;Node55 -->
<g id="edge47" class="edge">
<title>Node2&#45;&gt;Node55</title>
<path fill="none" stroke="midnightblue" d="M120.6,-665.5C127.23,-641.12 145.05,-574.32 157,-518 176.11,-427.94 132.59,-383.48 193,-314 194.16,-312.67 195.41,-311.43 196.73,-310.28"/>
<polygon fill="midnightblue" stroke="midnightblue" points="198.78,-313.12 205.06,-304.59 194.83,-307.34 198.78,-313.12"/>
</g>
<!-- Node56 -->
<g id="node40" class="node">
<title>Node56</title>
<g id="a_node40"><a xlink:href="structCMenu.html#a07ae72b8a8bb24e5444dea2ed971765e" target="_top" xlink:title=" ">
<polygon fill="white" stroke="black" points="193,-684.5 193,-703.5 312,-703.5 312,-684.5 193,-684.5"/>
<text text-anchor="middle" x="252.5" y="-691.5" font-family="Helvetica,sans-Serif" font-size="10.00">CMenu::optionsMenu</text>
</a>
</g>
</g>
<!-- Node2&#45;&gt;Node56 -->
<g id="edge49" class="edge">
<title>Node2&#45;&gt;Node56</title>
<path fill="none" stroke="midnightblue" d="M157.33,-680.6C165.29,-681.73 173.88,-682.95 182.52,-684.18"/>
<polygon fill="midnightblue" stroke="midnightblue" points="182.26,-687.68 192.65,-685.62 183.25,-680.75 182.26,-687.68"/>
</g>
<!-- Node57 -->
<g id="node41" class="node">
<title>Node57</title>
<g id="a_node41"><a xlink:href="classCGame.html#a260a60819a5e6a8991e7f7983c51a509" target="_top" xlink:title=" ">
<polygon fill="white" stroke="black" points="384.5,-874.5 384.5,-893.5 466.5,-893.5 466.5,-874.5 384.5,-874.5"/>
<text text-anchor="middle" x="425.5" y="-881.5" font-family="Helvetica,sans-Serif" font-size="10.00">CGame::save</text>
</a>
</g>
</g>
<!-- Node2&#45;&gt;Node57 -->
<g id="edge51" class="edge">
<title>Node2&#45;&gt;Node57</title>
<path fill="none" stroke="midnightblue" d="M121.95,-684.65C131.22,-706.24 156.43,-758.87 193,-789 246.8,-833.32 324.09,-859.4 374.3,-872.7"/>
<polygon fill="midnightblue" stroke="midnightblue" points="373.72,-876.16 384.28,-875.27 375.47,-869.38 373.72,-876.16"/>
</g>
<!-- Node63 -->
<g id="node47" class="node">
<title>Node63</title>
<g id="a_node47"><a xlink:href="classCGame.html#aa70fa8586abbd097b8eb7fb8d540841d" target="_top" xlink:title=" ">
<polygon fill="white" stroke="black" points="212,-646.5 212,-665.5 293,-665.5 293,-646.5 212,-646.5"/>
<text text-anchor="middle" x="252.5" y="-653.5" font-family="Helvetica,sans-Serif" font-size="10.00">CGame::start</text>
</a>
</g>
</g>
<!-- Node2&#45;&gt;Node63 -->
<g id="edge59" class="edge">
<title>Node2&#45;&gt;Node63</title>
<path fill="none" stroke="midnightblue" d="M157.33,-669.4C171.33,-667.41 187.28,-665.14 202.01,-663.04"/>
<polygon fill="midnightblue" stroke="midnightblue" points="202.58,-666.5 211.99,-661.62 201.59,-659.57 202.58,-666.5"/>
</g>
<!-- Node4 -->
<g id="node4" class="node">
<title>Node4</title>
<g id="a_node4"><a xlink:href="classPlayer.html#a35e23c050e86892c31ff783457f8ec24" target="_top" xlink:title=" ">
<polygon fill="white" stroke="black" points="570,-798.5 570,-817.5 666,-817.5 666,-798.5 570,-798.5"/>
<text text-anchor="middle" x="618" y="-805.5" font-family="Helvetica,sans-Serif" font-size="10.00">Player::getCoins</text>
</a>
</g>
</g>
<!-- Node3&#45;&gt;Node4 -->
<g id="edge3" class="edge">
<title>Node3&#45;&gt;Node4</title>
<path fill="none" stroke="midnightblue" d="M474.57,-779.59C500.47,-784.76 532.6,-791.16 559.78,-796.59"/>
<polygon fill="midnightblue" stroke="midnightblue" points="559.44,-800.09 569.93,-798.61 560.81,-793.22 559.44,-800.09"/>
</g>
<!-- Node5 -->
<g id="node5" class="node">
<title>Node5</title>
<g id="a_node5"><a xlink:href="classPlayer.html#a58da876811cd1848aab2809f5758d315" target="_top" xlink:title=" ">
<polygon fill="white" stroke="black" points="563,-836.5 563,-855.5 673,-855.5 673,-836.5 563,-836.5"/>
<text text-anchor="middle" x="618" y="-843.5" font-family="Helvetica,sans-Serif" font-size="10.00">Player::getFinished</text>
</a>
</g>
</g>
<!-- Node3&#45;&gt;Node5 -->
<g id="edge4" class="edge">
<title>Node3&#45;&gt;Node5</title>
<path fill="none" stroke="midnightblue" d="M442.37,-779.52C463.68,-791.96 503.06,-813.72 539,-827 545.83,-829.52 553.12,-831.81 560.4,-833.85"/>
<polygon fill="midnightblue" stroke="midnightblue" points="559.71,-837.29 570.28,-836.47 561.51,-830.52 559.71,-837.29"/>
</g>
<!-- Node6 -->
<g id="node6" class="node">
<title>Node6</title>
<g id="a_node6"><a xlink:href="structCMenu.html#acd66b9b60fd4bd6eaa9c991f42c0899a" target="_top" xlink:title=" ">
<polygon fill="white" stroke="black" points="569,-760.5 569,-779.5 667,-779.5 667,-760.5 569,-760.5"/>
<text text-anchor="middle" x="618" y="-767.5" font-family="Helvetica,sans-Serif" font-size="10.00">CMenu::setMenu</text>
</a>
</g>
</g>
<!-- Node3&#45;&gt;Node6 -->
<g id="edge5" class="edge">
<title>Node3&#45;&gt;Node6</title>
<path fill="none" stroke="midnightblue" d="M477.55,-770C502.56,-770 532.78,-770 558.69,-770"/>
<polygon fill="midnightblue" stroke="midnightblue" points="558.76,-773.5 568.76,-770 558.76,-766.5 558.76,-773.5"/>
</g>
<!-- Node7 -->
<g id="node7" class="node">
<title>Node7</title>
<g id="a_node7"><a xlink:href="structCMenu.html#a5e22e761551f1aec9ab2c6849ae4b9e8" target="_top" xlink:title=" ">
<polygon fill="white" stroke="black" points="577,-722.5 577,-741.5 659,-741.5 659,-722.5 577,-722.5"/>
<text text-anchor="middle" x="618" y="-729.5" font-family="Helvetica,sans-Serif" font-size="10.00">CMenu::show</text>
</a>
</g>
</g>
<!-- Node3&#45;&gt;Node7 -->
<g id="edge6" class="edge">
<title>Node3&#45;&gt;Node7</title>
<path fill="none" stroke="midnightblue" d="M474.57,-760.41C502.75,-754.79 538.29,-747.7 566.82,-742.01"/>
<polygon fill="midnightblue" stroke="midnightblue" points="567.86,-745.37 576.99,-739.98 566.49,-738.51 567.86,-745.37"/>
</g>
<!-- Node8 -->
<g id="node8" class="node">
<title>Node8</title>
<g id="a_node8"><a xlink:href="structCMenu.html#a0d260d3408e1b93c95fd000e69186b09" target="_top" xlink:title=" ">
<polygon fill="white" stroke="black" points="733,-741.5 733,-760.5 841,-760.5 841,-741.5 733,-741.5"/>
<text text-anchor="middle" x="787" y="-748.5" font-family="Helvetica,sans-Serif" font-size="10.00">CMenu::clearShrek</text>
</a>
</g>
</g>
<!-- Node7&#45;&gt;Node8 -->
<g id="edge7" class="edge">
<title>Node7&#45;&gt;Node8</title>
<path fill="none" stroke="midnightblue" d="M659,-736.55C678.08,-738.72 701.36,-741.37 722.75,-743.8"/>
<polygon fill="midnightblue" stroke="midnightblue" points="722.41,-747.29 732.74,-744.94 723.2,-740.33 722.41,-747.29"/>
</g>
<!-- Node9 -->
<g id="node9" class="node">
<title>Node9</title>
<g id="a_node9"><a xlink:href="structCMenu.html#aa9e4a0b113b5283a66113fc5bc91253c" target="_top" xlink:title=" ">
<polygon fill="white" stroke="black" points="733.5,-703.5 733.5,-722.5 840.5,-722.5 840.5,-703.5 733.5,-703.5"/>
<text text-anchor="middle" x="787" y="-710.5" font-family="Helvetica,sans-Serif" font-size="10.00">CMenu::printShrek</text>
</a>
</g>
</g>
<!-- Node7&#45;&gt;Node9 -->
<g id="edge8" class="edge">
<title>Node7&#45;&gt;Node9</title>
<path fill="none" stroke="midnightblue" d="M659,-727.45C678.24,-725.26 701.76,-722.58 723.31,-720.13"/>
<polygon fill="midnightblue" stroke="midnightblue" points="723.83,-723.6 733.37,-718.99 723.04,-716.64 723.83,-723.6"/>
</g>
<!-- Node11 -->
<g id="node11" class="node">
<title>Node11</title>
<g id="a_node11"><a xlink:href="classPlayer.html#ad67b0b4cb15f53e28866e4c7128ce661" target="_top" xlink:title=" ">
<polygon fill="white" stroke="black" points="556.5,-152.5 556.5,-171.5 679.5,-171.5 679.5,-152.5 556.5,-152.5"/>
<text text-anchor="middle" x="618" y="-159.5" font-family="Helvetica,sans-Serif" font-size="10.00">Player::clearAttackers</text>
</a>
</g>
</g>
<!-- Node10&#45;&gt;Node11 -->
<g id="edge10" class="edge">
<title>Node10&#45;&gt;Node11</title>
<path fill="none" stroke="midnightblue" d="M289.8,-327.31C298.02,-324.49 306.06,-320.28 312,-314 354.97,-268.58 299.61,-217.59 348,-178 377.29,-154.03 477,-153.97 546.43,-157.17"/>
<polygon fill="midnightblue" stroke="midnightblue" points="546.28,-160.67 556.44,-157.66 546.62,-153.67 546.28,-160.67"/>
</g>
<!-- Node12 -->
<g id="node12" class="node">
<title>Node12</title>
<g id="a_node12"><a xlink:href="classEnemy.html#ab8dab466556eb7f9a39697c045864289" target="_top" xlink:title=" ">
<polygon fill="white" stroke="black" points="561.5,-38.5 561.5,-57.5 674.5,-57.5 674.5,-38.5 561.5,-38.5"/>
<text text-anchor="middle" x="618" y="-45.5" font-family="Helvetica,sans-Serif" font-size="10.00">Enemy::clearTowers</text>
</a>
</g>
</g>
<!-- Node10&#45;&gt;Node12 -->
<g id="edge11" class="edge">
<title>Node10&#45;&gt;Node12</title>
<path fill="none" stroke="midnightblue" d="M289.59,-327.88C298.01,-325.05 306.2,-320.7 312,-314 373.7,-242.74 282.64,-172.91 348,-105 400.03,-50.95 489.55,-41.78 550.93,-42.76"/>
<polygon fill="midnightblue" stroke="midnightblue" points="551.2,-46.26 561.29,-43.02 551.38,-39.27 551.2,-46.26"/>
</g>
<!-- Node13 -->
<g id="node13" class="node">
<title>Node13</title>
<g id="a_node13"><a xlink:href="classCGame.html#a6890a8e74412ff0ced3959e3093e6d84" target="_top" xlink:title=" ">
<polygon fill="white" stroke="black" points="367.5,-114.5 367.5,-133.5 483.5,-133.5 483.5,-114.5 367.5,-114.5"/>
<text text-anchor="middle" x="425.5" y="-121.5" font-family="Helvetica,sans-Serif" font-size="10.00">CGame::drawTowers</text>
</a>
</g>
</g>
<!-- Node10&#45;&gt;Node13 -->
<g id="edge12" class="edge">
<title>Node10&#45;&gt;Node13</title>
<path fill="none" stroke="midnightblue" d="M289.7,-327.6C298.01,-324.78 306.13,-320.49 312,-314 362.63,-258.01 297.09,-203.74 348,-148 351.49,-144.18 355.58,-140.96 360.02,-138.25"/>
<polygon fill="midnightblue" stroke="midnightblue" points="361.65,-141.35 368.93,-133.65 358.44,-135.13 361.65,-141.35"/>
</g>
<!-- Node32 -->
<g id="node17" class="node">
<title>Node32</title>
<g id="a_node17"><a xlink:href="classCDefinitions.html#ab8536fabb45ea006662e63bbc414dbef" target="_top" xlink:title=" ">
<polygon fill="white" stroke="black" points="549,-646.5 549,-665.5 687,-665.5 687,-646.5 549,-646.5"/>
<text text-anchor="middle" x="618" y="-653.5" font-family="Helvetica,sans-Serif" font-size="10.00">CDefinitions::getAttacker</text>
</a>
</g>
</g>
<!-- Node10&#45;&gt;Node32 -->
<g id="edge17" class="edge">
<title>Node10&#45;&gt;Node32</title>
<path fill="none" stroke="midnightblue" d="M258.54,-342.76C271.33,-367.01 306.98,-431.25 348,-476 407.43,-540.83 438.15,-539.6 503,-599 520.15,-614.71 518.88,-625.33 539,-637 542.73,-639.16 546.7,-641.08 550.79,-642.78"/>
<polygon fill="midnightblue" stroke="midnightblue" points="549.92,-646.19 560.52,-646.37 552.34,-639.63 549.92,-646.19"/>
</g>
<!-- Node33 -->
<g id="node18" class="node">
<title>Node33</title>
<g id="a_node18"><a xlink:href="classCDefinitions.html#a63bf212acb75d60793b5f88b62468dcd" target="_top" xlink:title=" ">
<polygon fill="white" stroke="black" points="362.5,-342.5 362.5,-361.5 488.5,-361.5 488.5,-342.5 362.5,-342.5"/>
<text text-anchor="middle" x="425.5" y="-349.5" font-family="Helvetica,sans-Serif" font-size="10.00">CDefinitions::getTower</text>
</a>
</g>
</g>
<!-- Node10&#45;&gt;Node33 -->
<g id="edge18" class="edge">
<title>Node10&#45;&gt;Node33</title>
<path fill="none" stroke="midnightblue" d="M289.76,-337.03C307.96,-339.05 330.67,-341.57 352.23,-343.97"/>
<polygon fill="midnightblue" stroke="midnightblue" points="352.04,-347.47 362.36,-345.1 352.81,-340.51 352.04,-347.47"/>
</g>
<!-- Node34 -->
<g id="node19" class="node">
<title>Node34</title>
<g id="a_node19"><a xlink:href="classCGame.html#ad3a6ae127f534b0f64f0b6404d454ef9" target="_top" xlink:title=" ">
<polygon fill="white" stroke="black" points="355.5,-304.5 355.5,-323.5 495.5,-323.5 495.5,-304.5 355.5,-304.5"/>
<text text-anchor="middle" x="425.5" y="-311.5" font-family="Helvetica,sans-Serif" font-size="10.00">CGame::initializeWindow</text>
</a>
</g>
</g>
<!-- Node10&#45;&gt;Node34 -->
<g id="edge19" class="edge">
<title>Node10&#45;&gt;Node34</title>
<path fill="none" stroke="midnightblue" d="M289.76,-328.97C306.04,-327.16 325.94,-324.95 345.39,-322.79"/>
<polygon fill="midnightblue" stroke="midnightblue" points="345.94,-326.25 355.49,-321.67 345.17,-319.29 345.94,-326.25"/>
</g>
<!-- Node35 -->
<g id="node20" class="node">
<title>Node35</title>
<g id="a_node20"><a xlink:href="classCGame.html#a9945af5487d059db1d7119ae16cd2dd3" target="_top" xlink:title=" ">
<polygon fill="white" stroke="black" points="385.5,-447.5 385.5,-466.5 465.5,-466.5 465.5,-447.5 385.5,-447.5"/>
<text text-anchor="middle" x="425.5" y="-454.5" font-family="Helvetica,sans-Serif" font-size="10.00">CGame::load</text>
</a>
</g>
</g>
<!-- Node10&#45;&gt;Node35 -->
<g id="edge20" class="edge">
<title>Node10&#45;&gt;Node35</title>
<path fill="none" stroke="midnightblue" d="M264.51,-342.56C281.81,-357.42 316.62,-386.65 348,-409 364.6,-420.83 384.08,-433.02 399.22,-442.16"/>
<polygon fill="midnightblue" stroke="midnightblue" points="397.64,-445.3 408.02,-447.42 401.24,-439.29 397.64,-445.3"/>
</g>
<!-- Node39 -->
<g id="node23" class="node">
<title>Node39</title>
<g id="a_node23"><a xlink:href="classCDefinitions.html#a9f1aafe71cad232d999da224681ad03f" target="_top" xlink:title=" ">
<polygon fill="white" stroke="black" points="348,-9.5 348,-28.5 503,-28.5 503,-9.5 348,-9.5"/>
<text text-anchor="middle" x="425.5" y="-16.5" font-family="Helvetica,sans-Serif" font-size="10.00">CDefinitions::loadDefinitions</text>
</a>
</g>
</g>
<!-- Node10&#45;&gt;Node39 -->
<g id="edge23" class="edge">
<title>Node10&#45;&gt;Node39</title>
<path fill="none" stroke="midnightblue" d="M289.72,-327.99C298.14,-325.16 306.29,-320.78 312,-314 384.83,-227.42 284.09,-155.36 348,-62 356.88,-49.03 371.03,-39.53 384.76,-32.81"/>
<polygon fill="midnightblue" stroke="midnightblue" points="386.45,-35.89 394.13,-28.59 383.57,-29.5 386.45,-35.89"/>
</g>
<!-- Node41 -->
<g id="node25" class="node">
<title>Node41</title>
<g id="a_node25"><a xlink:href="classCGame.html#afbbb4f8d05f753b7c2d6a0d91ca96a9b" target="_top" xlink:title=" ">
<polygon fill="white" stroke="black" points="361.5,-380.5 361.5,-399.5 489.5,-399.5 489.5,-380.5 361.5,-380.5"/>
<text text-anchor="middle" x="425.5" y="-387.5" font-family="Helvetica,sans-Serif" font-size="10.00">CGame::loadFromSave</text>
</a>
</g>
</g>
<!-- Node10&#45;&gt;Node41 -->
<g id="edge26" class="edge">
<title>Node10&#45;&gt;Node41</title>
<path fill="none" stroke="midnightblue" d="M274.95,-342.62C293.91,-350.88 322.43,-362.73 348,-371 355.68,-373.49 363.89,-375.83 371.97,-377.98"/>
<polygon fill="midnightblue" stroke="midnightblue" points="371.16,-381.38 381.72,-380.49 372.9,-374.61 371.16,-381.38"/>
</g>
<!-- Node47 -->
<g id="node31" class="node">
<title>Node47</title>
<g id="a_node31"><a xlink:href="classPlayer.html#aea8b3fb5b8a32d97929f59b13b1bedfa" target="_top" xlink:title=" ">
<polygon fill="white" stroke="black" points="570.5,-190.5 570.5,-209.5 665.5,-209.5 665.5,-190.5 570.5,-190.5"/>
<text text-anchor="middle" x="618" y="-197.5" font-family="Helvetica,sans-Serif" font-size="10.00">Player::setCoins</text>
</a>
</g>
</g>
<!-- Node10&#45;&gt;Node47 -->
<g id="edge42" class="edge">
<title>Node10&#45;&gt;Node47</title>
<path fill="none" stroke="midnightblue" d="M289.66,-326.76C297.78,-323.96 305.82,-319.89 312,-314 344.69,-282.85 311.77,-245.95 348,-219 411.26,-171.95 507.68,-178.57 566.27,-188.62"/>
<polygon fill="midnightblue" stroke="midnightblue" points="565.94,-192.12 576.4,-190.46 567.19,-185.23 565.94,-192.12"/>
</g>
<!-- Node51 -->
<g id="node35" class="node">
<title>Node51</title>
<g id="a_node35"><a xlink:href="classMap.html#a1cefc1b8ed6692667e2019f64acc0f5a" target="_top" xlink:title=" ">
<polygon fill="white" stroke="black" points="382,-266.5 382,-285.5 469,-285.5 469,-266.5 382,-266.5"/>
<text text-anchor="middle" x="425.5" y="-273.5" font-family="Helvetica,sans-Serif" font-size="10.00">Map::printMap</text>
</a>
</g>
</g>
<!-- Node10&#45;&gt;Node51 -->
<g id="edge41" class="edge">
<title>Node10&#45;&gt;Node51</title>
<path fill="none" stroke="midnightblue" d="M286.35,-323.42C294.82,-320.66 303.84,-317.45 312,-314 328.66,-306.96 331.1,-301.45 348,-295 355.64,-292.09 363.87,-289.5 372.01,-287.24"/>
<polygon fill="midnightblue" stroke="midnightblue" points="373.07,-290.58 381.85,-284.66 371.29,-283.81 373.07,-290.58"/>
</g>
<!-- Node52 -->
<g id="node36" class="node">
<title>Node52</title>
<g id="a_node36"><a xlink:href="classMap.html#ac36f80dbbf7dccfdfc7837d300427da7" target="_top" xlink:title=" ">
<polygon fill="white" stroke="black" points="376.5,-228.5 376.5,-247.5 474.5,-247.5 474.5,-228.5 376.5,-228.5"/>
<text text-anchor="middle" x="425.5" y="-235.5" font-family="Helvetica,sans-Serif" font-size="10.00">Map::setWindow</text>
</a>
</g>
</g>
<!-- Node10&#45;&gt;Node52 -->
<g id="edge43" class="edge">
<title>Node10&#45;&gt;Node52</title>
<path fill="none" stroke="midnightblue" d="M289.78,-325.52C297.63,-322.78 305.51,-319.05 312,-314 335.66,-295.61 323.71,-274.54 348,-257 353.59,-252.96 359.94,-249.78 366.54,-247.27"/>
<polygon fill="midnightblue" stroke="midnightblue" points="367.92,-250.5 376.33,-244.05 365.74,-243.85 367.92,-250.5"/>
</g>
<!-- Node53 -->
<g id="node37" class="node">
<title>Node53</title>
<g id="a_node37"><a xlink:href="classCGame.html#a4da5d04696419e55ca45cf95563bdfd8" target="_top" xlink:title=" ">
<polygon fill="white" stroke="black" points="372,-646.5 372,-665.5 479,-665.5 479,-646.5 372,-646.5"/>
<text text-anchor="middle" x="425.5" y="-653.5" font-family="Helvetica,sans-Serif" font-size="10.00">CGame::showError</text>
</a>
</g>
</g>
<!-- Node10&#45;&gt;Node53 -->
<g id="edge44" class="edge">
<title>Node10&#45;&gt;Node53</title>
<path fill="none" stroke="midnightblue" d="M253.34,-342.64C253.18,-384.52 258.36,-552.41 348,-637 352.17,-640.93 357.02,-644.09 362.22,-646.61"/>
<polygon fill="midnightblue" stroke="midnightblue" points="361.3,-650.02 371.88,-650.51 363.92,-643.52 361.3,-650.02"/>
</g>
<!-- Node13&#45;&gt;Node12 -->
<g id="edge13" class="edge">
<title>Node13&#45;&gt;Node12</title>
<path fill="none" stroke="midnightblue" d="M450.38,-114.48C465.69,-108.11 485.85,-99.22 503,-90 519.72,-81.01 521.54,-74.46 539,-67 544.8,-64.52 550.99,-62.32 557.25,-60.39"/>
<polygon fill="midnightblue" stroke="midnightblue" points="558.46,-63.68 567.1,-57.56 556.52,-56.96 558.46,-63.68"/>
</g>
<!-- Node14 -->
<g id="node14" class="node">
<title>Node14</title>
<g id="a_node14"><a xlink:href="classEnemy.html#a238798e0d954a7ee3b6fafb592151cde" target="_top" xlink:title=" ">
<polygon fill="white" stroke="red" points="558,-76.5 558,-95.5 678,-95.5 678,-76.5 558,-76.5"/>
<text text-anchor="middle" x="618" y="-83.5" font-family="Helvetica,sans-Serif" font-size="10.00">Enemy::createTowers</text>
</a>
</g>
</g>
<!-- Node13&#45;&gt;Node14 -->
<g id="edge14" class="edge">
<title>Node13&#45;&gt;Node14</title>
<path fill="none" stroke="midnightblue" d="M474.57,-114.41C500.28,-109.28 532.11,-102.93 559.16,-97.54"/>
<polygon fill="midnightblue" stroke="midnightblue" points="560.15,-100.91 569.27,-95.52 558.78,-94.04 560.15,-100.91"/>
</g>
<!-- Node30 -->
<g id="node15" class="node">
<title>Node30</title>
<g id="a_node15"><a xlink:href="classEnemy.html#ac7a14593067f5d799c2080fadaf33cbb" target="_top" xlink:title=" ">
<polygon fill="white" stroke="black" points="554,-608.5 554,-627.5 682,-627.5 682,-608.5 554,-608.5"/>
<text text-anchor="middle" x="618" y="-615.5" font-family="Helvetica,sans-Serif" font-size="10.00">Enemy::getTowerCount</text>
</a>
</g>
</g>
<!-- Node13&#45;&gt;Node30 -->
<g id="edge15" class="edge">
<title>Node13&#45;&gt;Node30</title>
<path fill="none" stroke="midnightblue" d="M437.77,-133.75C455.22,-149.62 488.32,-182.91 503,-219 534.95,-297.58 483.51,-534.85 539,-599 540.8,-601.08 542.78,-602.94 544.9,-604.62"/>
<polygon fill="midnightblue" stroke="midnightblue" points="543.42,-607.83 553.75,-610.22 547.17,-601.92 543.42,-607.83"/>
</g>
<!-- Node31 -->
<g id="node16" class="node">
<title>Node31</title>
<g id="a_node16"><a xlink:href="classEnemy.html#a95c457b3e58d8c931e06877c6bde6d11" target="_top" xlink:title=" ">
<polygon fill="white" stroke="black" points="562,-114.5 562,-133.5 674,-133.5 674,-114.5 562,-114.5"/>
<text text-anchor="middle" x="618" y="-121.5" font-family="Helvetica,sans-Serif" font-size="10.00">Enemy::printTowers</text>
</a>
</g>
</g>
<!-- Node13&#45;&gt;Node31 -->
<g id="edge16" class="edge">
<title>Node13&#45;&gt;Node31</title>
<path fill="none" stroke="midnightblue" d="M483.66,-124C505.04,-124 529.49,-124 551.56,-124"/>
<polygon fill="midnightblue" stroke="midnightblue" points="551.85,-127.5 561.85,-124 551.85,-120.5 551.85,-127.5"/>
</g>
<!-- Node36 -->
<g id="node21" class="node">
<title>Node36</title>
<g id="a_node21"><a xlink:href="classMap.html#acd24cfa7aca34a2839a94490ef563aa2" target="_top" xlink:title=" ">
<polygon fill="white" stroke="red" points="575,-570.5 575,-589.5 661,-589.5 661,-570.5 575,-570.5"/>
<text text-anchor="middle" x="618" y="-577.5" font-family="Helvetica,sans-Serif" font-size="10.00">Map::readMap</text>
</a>
</g>
</g>
<!-- Node35&#45;&gt;Node36 -->
<g id="edge21" class="edge">
<title>Node35&#45;&gt;Node36</title>
<path fill="none" stroke="midnightblue" d="M434.06,-466.76C450.67,-487.5 492.6,-536.1 539,-561 546.94,-565.26 555.85,-568.58 564.72,-571.17"/>
<polygon fill="midnightblue" stroke="midnightblue" points="564.12,-574.63 574.68,-573.78 565.9,-567.86 564.12,-574.63"/>
</g>
<!-- Node37 -->
<g id="node22" class="node">
<title>Node37</title>
<g id="a_node22"><a xlink:href="logFile_8cpp.html#a4646ee780db7319bd0615817febd557c" target="_top" xlink:title=" ">
<polygon fill="white" stroke="black" points="744.5,-266.5 744.5,-285.5 829.5,-285.5 829.5,-266.5 744.5,-266.5"/>
<text text-anchor="middle" x="787" y="-273.5" font-family="Helvetica,sans-Serif" font-size="10.00">sendToLogFile</text>
</a>
</g>
</g>
<!-- Node36&#45;&gt;Node37 -->
<g id="edge22" class="edge">
<title>Node36&#45;&gt;Node37</title>
<path fill="none" stroke="midnightblue" d="M661.29,-577.66C674.11,-575.01 687.34,-570.06 697,-561 775.02,-487.8 785.09,-347.39 786.06,-295.71"/>
<polygon fill="midnightblue" stroke="midnightblue" points="789.56,-295.61 786.15,-285.58 782.56,-295.55 789.56,-295.61"/>
</g>
<!-- Node40 -->
<g id="node24" class="node">
<title>Node40</title>
<g id="a_node24"><a xlink:href="classCDefinitions.html#aeb13eb4e77295a396ba683bc8ed61fc4" target="_top" xlink:title=" ">
<polygon fill="white" stroke="black" points="552.5,-0.5 552.5,-19.5 683.5,-19.5 683.5,-0.5 552.5,-0.5"/>
<text text-anchor="middle" x="618" y="-7.5" font-family="Helvetica,sans-Serif" font-size="10.00">CDefinitions::loadEntity</text>
</a>
</g>
</g>
<!-- Node39&#45;&gt;Node40 -->
<g id="edge24" class="edge">
<title>Node39&#45;&gt;Node40</title>
<path fill="none" stroke="midnightblue" d="M503.16,-15.38C516.05,-14.77 529.41,-14.14 542.25,-13.53"/>
<polygon fill="midnightblue" stroke="midnightblue" points="542.6,-17.02 552.42,-13.05 542.27,-10.03 542.6,-17.02"/>
</g>
<!-- Node40&#45;&gt;Node37 -->
<g id="edge25" class="edge">
<title>Node40&#45;&gt;Node37</title>
<path fill="none" stroke="midnightblue" d="M682.64,-19.61C687.86,-22.1 692.75,-25.18 697,-29 765.76,-90.77 781.43,-209.66 784.97,-256.42"/>
<polygon fill="midnightblue" stroke="midnightblue" points="781.48,-256.69 785.63,-266.45 788.47,-256.24 781.48,-256.69"/>
</g>
<!-- Node41&#45;&gt;Node11 -->
<g id="edge27" class="edge">
<title>Node41&#45;&gt;Node11</title>
<path fill="none" stroke="midnightblue" d="M489.59,-380.93C494.56,-378.34 499.15,-375.08 503,-371 562.04,-308.54 479.82,-243.32 539,-181 541.52,-178.34 544.35,-176.03 547.4,-174.02"/>
<polygon fill="midnightblue" stroke="midnightblue" points="549.33,-176.95 556.47,-169.12 546.01,-170.79 549.33,-176.95"/>
</g>
<!-- Node41&#45;&gt;Node12 -->
<g id="edge29" class="edge">
<title>Node41&#45;&gt;Node12</title>
<path fill="none" stroke="midnightblue" d="M489.53,-381.4C494.59,-378.72 499.2,-375.31 503,-371 592.98,-268.95 448.79,-168.85 539,-67 542.7,-62.83 547.14,-59.49 552.01,-56.84"/>
<polygon fill="midnightblue" stroke="midnightblue" points="553.46,-60.03 561.17,-52.76 550.61,-53.63 553.46,-60.03"/>
</g>
<!-- Node41&#45;&gt;Node31 -->
<g id="edge33" class="edge">
<title>Node41&#45;&gt;Node31</title>
<path fill="none" stroke="midnightblue" d="M489.72,-381.06C494.67,-378.43 499.21,-375.14 503,-371 572.32,-295.38 469.51,-218.47 539,-143 542.84,-138.83 547.42,-135.51 552.41,-132.87"/>
<polygon fill="midnightblue" stroke="midnightblue" points="553.99,-136 561.78,-128.82 551.21,-129.58 553.99,-136"/>
</g>
<!-- Node41&#45;&gt;Node36 -->
<g id="edge34" class="edge">
<title>Node41&#45;&gt;Node36</title>
<path fill="none" stroke="midnightblue" d="M450.51,-399.51C467.5,-407.42 489.57,-420.24 503,-438 537.36,-483.43 497.81,-521.66 539,-561 546.11,-567.79 555.21,-572.28 564.68,-575.22"/>
<polygon fill="midnightblue" stroke="midnightblue" points="564.06,-578.67 574.61,-577.76 565.79,-571.89 564.06,-578.67"/>
</g>
<!-- Node41&#45;&gt;Node37 -->
<g id="edge35" class="edge">
<title>Node41&#45;&gt;Node37</title>
<path fill="none" stroke="midnightblue" d="M487.41,-380.34C493.02,-377.88 498.34,-374.81 503,-371 531.92,-347.33 508.21,-316.18 539,-295 596.59,-255.38 680.61,-258.41 734.29,-265.9"/>
<polygon fill="midnightblue" stroke="midnightblue" points="733.87,-269.38 744.27,-267.4 734.9,-262.46 733.87,-269.38"/>
</g>
<!-- Node42 -->
<g id="node26" class="node">
<title>Node42</title>
<g id="a_node26"><a xlink:href="classMap.html#a7ded655c7db0e9d72816430b4f2c83a5" target="_top" xlink:title=" ">
<polygon fill="white" stroke="black" points="573.5,-228.5 573.5,-247.5 662.5,-247.5 662.5,-228.5 573.5,-228.5"/>
<text text-anchor="middle" x="618" y="-235.5" font-family="Helvetica,sans-Serif" font-size="10.00">Map::clearMap</text>
</a>
</g>
</g>
<!-- Node41&#45;&gt;Node42 -->
<g id="edge28" class="edge">
<title>Node41&#45;&gt;Node42</title>
<path fill="none" stroke="midnightblue" d="M489.04,-380.38C494.13,-377.89 498.89,-374.81 503,-371 540.41,-336.31 502.56,-297.7 539,-262 545.91,-255.23 554.68,-250.36 563.83,-246.87"/>
<polygon fill="midnightblue" stroke="midnightblue" points="565.04,-250.15 573.44,-243.7 562.85,-243.51 565.04,-250.15"/>
</g>
<!-- Node43 -->
<g id="node27" class="node">
<title>Node43</title>
<g id="a_node27"><a xlink:href="classPlayer.html#a0041f9d0af73962863dd6eec53155ca7" target="_top" xlink:title=" ">
<polygon fill="white" stroke="black" points="545,-532.5 545,-551.5 691,-551.5 691,-532.5 545,-532.5"/>
<text text-anchor="middle" x="618" y="-539.5" font-family="Helvetica,sans-Serif" font-size="10.00">Player::createNewAttacker</text>
</a>
</g>
</g>
<!-- Node41&#45;&gt;Node43 -->
<g id="edge30" class="edge">
<title>Node41&#45;&gt;Node43</title>
<path fill="none" stroke="midnightblue" d="M449.21,-399.65C465.98,-407.77 488.36,-420.81 503,-438 529.6,-469.23 507.74,-496.43 539,-523 541,-524.7 543.12,-526.25 545.35,-527.67"/>
<polygon fill="midnightblue" stroke="midnightblue" points="543.88,-530.85 554.35,-532.49 547.19,-524.68 543.88,-530.85"/>
</g>
<!-- Node44 -->
<g id="node28" class="node">
<title>Node44</title>
<g id="a_node28"><a xlink:href="classEnemy.html#a99d55547c52bd2a075fe0671f1d3e923" target="_top" xlink:title=" ">
<polygon fill="white" stroke="black" points="549.5,-494.5 549.5,-513.5 686.5,-513.5 686.5,-494.5 549.5,-494.5"/>
<text text-anchor="middle" x="618" y="-501.5" font-family="Helvetica,sans-Serif" font-size="10.00">Enemy::createNewTower</text>
</a>
</g>
</g>
<!-- Node41&#45;&gt;Node44 -->
<g id="edge31" class="edge">
<title>Node41&#45;&gt;Node44</title>
<path fill="none" stroke="midnightblue" d="M445.72,-399.55C462.03,-408.22 485.5,-422.06 503,-438 522.45,-455.72 516.96,-470.62 539,-485 542.16,-487.06 545.53,-488.9 549.02,-490.54"/>
<polygon fill="midnightblue" stroke="midnightblue" points="547.93,-493.88 558.51,-494.43 550.58,-487.4 547.93,-493.88"/>
</g>
<!-- Node45 -->
<g id="node29" class="node">
<title>Node45</title>
<g id="a_node29"><a xlink:href="classPlayer.html#a075aab5214b0d34e50b4c9d3a91bd02c" target="_top" xlink:title=" ">
<polygon fill="white" stroke="black" points="557,-456.5 557,-475.5 679,-475.5 679,-456.5 557,-456.5"/>
<text text-anchor="middle" x="618" y="-463.5" font-family="Helvetica,sans-Serif" font-size="10.00">Player::printAttackers</text>
</a>
</g>
</g>
<!-- Node41&#45;&gt;Node45 -->
<g id="edge32" class="edge">
<title>Node41&#45;&gt;Node45</title>
<path fill="none" stroke="midnightblue" d="M442.37,-399.52C463.68,-411.96 503.06,-433.72 539,-447 545.83,-449.52 553.12,-451.81 560.4,-453.85"/>
<polygon fill="midnightblue" stroke="midnightblue" points="559.71,-457.29 570.28,-456.47 561.51,-450.52 559.71,-457.29"/>
</g>
<!-- Node46 -->
<g id="node30" class="node">
<title>Node46</title>
<g id="a_node30"><a xlink:href="classPlayer.html#ab4c06bb8e2131feed1569e7ec0a05b25" target="_top" xlink:title=" ">
<polygon fill="white" stroke="black" points="545,-418.5 545,-437.5 691,-437.5 691,-418.5 545,-418.5"/>
<text text-anchor="middle" x="618" y="-425.5" font-family="Helvetica,sans-Serif" font-size="10.00">Player::setAttackersQueue</text>
</a>
</g>
</g>
<!-- Node41&#45;&gt;Node46 -->
<g id="edge36" class="edge">
<title>Node41&#45;&gt;Node46</title>
<path fill="none" stroke="midnightblue" d="M474.57,-399.59C500.28,-404.72 532.11,-411.07 559.16,-416.46"/>
<polygon fill="midnightblue" stroke="midnightblue" points="558.78,-419.96 569.27,-418.48 560.15,-413.09 558.78,-419.96"/>
</g>
<!-- Node41&#45;&gt;Node47 -->
<g id="edge37" class="edge">
<title>Node41&#45;&gt;Node47</title>
<path fill="none" stroke="midnightblue" d="M489.76,-380.56C494.64,-378.03 499.15,-374.89 503,-371 551.82,-321.64 490.07,-268.25 539,-219 545,-212.96 552.58,-208.72 560.64,-205.77"/>
<polygon fill="midnightblue" stroke="midnightblue" points="561.7,-209.1 570.26,-202.86 559.68,-202.4 561.7,-209.1"/>
</g>
<!-- Node48 -->
<g id="node32" class="node">
<title>Node48</title>
<g id="a_node32"><a xlink:href="classCGame.html#a03c8875a8199b246a698be32206aa902" target="_top" xlink:title=" ">
<polygon fill="white" stroke="black" points="559,-380.5 559,-399.5 677,-399.5 677,-380.5 559,-380.5"/>
<text text-anchor="middle" x="618" y="-387.5" font-family="Helvetica,sans-Serif" font-size="10.00">CGame::setDifficulty</text>
</a>
</g>
</g>
<!-- Node41&#45;&gt;Node48 -->
<g id="edge38" class="edge">
<title>Node41&#45;&gt;Node48</title>
<path fill="none" stroke="midnightblue" d="M489.67,-390C508.58,-390 529.4,-390 548.63,-390"/>
<polygon fill="midnightblue" stroke="midnightblue" points="548.83,-393.5 558.83,-390 548.83,-386.5 548.83,-393.5"/>
</g>
<!-- Node49 -->
<g id="node33" class="node">
<title>Node49</title>
<g id="a_node33"><a xlink:href="classPlayer.html#a00ad7c6c51e7918e6be87e71e09812a7" target="_top" xlink:title=" ">
<polygon fill="white" stroke="black" points="563.5,-342.5 563.5,-361.5 672.5,-361.5 672.5,-342.5 563.5,-342.5"/>
<text text-anchor="middle" x="618" y="-349.5" font-family="Helvetica,sans-Serif" font-size="10.00">Player::setFinished</text>
</a>
</g>
</g>
<!-- Node41&#45;&gt;Node49 -->
<g id="edge39" class="edge">
<title>Node41&#45;&gt;Node49</title>
<path fill="none" stroke="midnightblue" d="M474.57,-380.41C500.28,-375.28 532.11,-368.93 559.16,-363.54"/>
<polygon fill="midnightblue" stroke="midnightblue" points="560.15,-366.91 569.27,-361.52 558.78,-360.04 560.15,-366.91"/>
</g>
<!-- Node50 -->
<g id="node34" class="node">
<title>Node50</title>
<g id="a_node34"><a xlink:href="classCGame.html#a15f2fce6e112bfd4a49616cd25bd8953" target="_top" xlink:title=" ">
<polygon fill="white" stroke="black" points="539,-304.5 539,-323.5 697,-323.5 697,-304.5 539,-304.5"/>
<text text-anchor="middle" x="618" y="-311.5" font-family="Helvetica,sans-Serif" font-size="10.00">CGame::setTowersDestroyed</text>
</a>
</g>
</g>
<!-- Node41&#45;&gt;Node50 -->
<g id="edge40" class="edge">
<title>Node41&#45;&gt;Node50</title>
<path fill="none" stroke="midnightblue" d="M481.5,-380.4C489,-377.94 496.38,-374.86 503,-371 523.1,-359.28 518.88,-344.67 539,-333 542.73,-330.84 546.7,-328.92 550.79,-327.22"/>
<polygon fill="midnightblue" stroke="midnightblue" points="552.34,-330.37 560.52,-323.63 549.92,-323.81 552.34,-330.37"/>
</g>
<!-- Node53&#45;&gt;Node7 -->
<g id="edge45" class="edge">
<title>Node53&#45;&gt;Node7</title>
<path fill="none" stroke="midnightblue" d="M479.08,-664.83C487.4,-667.41 495.67,-670.73 503,-675 523.1,-686.72 518.88,-701.33 539,-713 547.5,-717.93 557.24,-721.59 566.88,-724.3"/>
<polygon fill="midnightblue" stroke="midnightblue" points="566.29,-727.76 576.84,-726.79 567.99,-720.97 566.29,-727.76"/>
</g>
<!-- Node55&#45;&gt;Node1 -->
<g id="edge48" class="edge">
<title>Node55&#45;&gt;Node1</title>
<path fill="none" stroke="midnightblue" d="M211.67,-304.53C205.12,-307.03 198.65,-310.15 193,-314 115.64,-366.8 54.68,-464.27 31.56,-504.69"/>
<polygon fill="midnightblue" stroke="midnightblue" points="28.47,-503.04 26.62,-513.47 34.57,-506.47 28.47,-503.04"/>
</g>
<!-- Node56&#45;&gt;Node7 -->
<g id="edge50" class="edge">
<title>Node56&#45;&gt;Node7</title>
<path fill="none" stroke="midnightblue" d="M295.17,-703.57C311.56,-707.02 330.59,-710.64 348,-713 423.84,-723.26 512.51,-728.16 566.7,-730.37"/>
<polygon fill="midnightblue" stroke="midnightblue" points="566.6,-733.87 576.73,-730.76 566.88,-726.87 566.6,-733.87"/>
</g>
<!-- Node57&#45;&gt;Node4 -->
<g id="edge54" class="edge">
<title>Node57&#45;&gt;Node4</title>
<path fill="none" stroke="midnightblue" d="M442.37,-874.48C463.68,-862.04 503.06,-840.28 539,-827 545.83,-824.48 553.12,-822.19 560.4,-820.15"/>
<polygon fill="midnightblue" stroke="midnightblue" points="561.51,-823.48 570.28,-817.53 559.71,-816.71 561.51,-823.48"/>
</g>
<!-- Node57&#45;&gt;Node5 -->
<g id="edge55" class="edge">
<title>Node57&#45;&gt;Node5</title>
<path fill="none" stroke="midnightblue" d="M466.9,-875.94C493.79,-870.58 529.52,-863.45 559.37,-857.5"/>
<polygon fill="midnightblue" stroke="midnightblue" points="560.13,-860.91 569.25,-855.52 558.76,-854.05 560.13,-860.91"/>
</g>
<!-- Node58 -->
<g id="node42" class="node">
<title>Node58</title>
<g id="a_node42"><a xlink:href="classPlayer.html#a4290b069dee4760372951ba56983a4cb" target="_top" xlink:title=" ">
<polygon fill="white" stroke="black" points="560.5,-912.5 560.5,-931.5 675.5,-931.5 675.5,-912.5 560.5,-912.5"/>
<text text-anchor="middle" x="618" y="-919.5" font-family="Helvetica,sans-Serif" font-size="10.00">Player::getAttackers</text>
</a>
</g>
</g>
<!-- Node57&#45;&gt;Node58 -->
<g id="edge52" class="edge">
<title>Node57&#45;&gt;Node58</title>
<path fill="none" stroke="midnightblue" d="M466.9,-892.06C493.79,-897.42 529.52,-904.55 559.37,-910.5"/>
<polygon fill="midnightblue" stroke="midnightblue" points="558.76,-913.95 569.25,-912.48 560.13,-907.09 558.76,-913.95"/>
</g>
<!-- Node59 -->
<g id="node43" class="node">
<title>Node59</title>
<g id="a_node43"><a xlink:href="classPlayer.html#a7705c2b518ef16626bd14f44a445bf49" target="_top" xlink:title=" ">
<polygon fill="white" stroke="black" points="545,-874.5 545,-893.5 691,-893.5 691,-874.5 545,-874.5"/>
<text text-anchor="middle" x="618" y="-881.5" font-family="Helvetica,sans-Serif" font-size="10.00">Player::getAttackersQueue</text>
</a>
</g>
</g>
<!-- Node57&#45;&gt;Node59 -->
<g id="edge53" class="edge">
<title>Node57&#45;&gt;Node59</title>
<path fill="none" stroke="midnightblue" d="M466.9,-884C486.59,-884 511.03,-884 534.43,-884"/>
<polygon fill="midnightblue" stroke="midnightblue" points="534.73,-887.5 544.73,-884 534.73,-880.5 534.73,-887.5"/>
</g>
<!-- Node60 -->
<g id="node44" class="node">
<title>Node60</title>
<g id="a_node44"><a xlink:href="classEnemy.html#a8eca7a1be6c0e00dc6f95c60157f0e8c" target="_top" xlink:title=" ">
<polygon fill="white" stroke="black" points="565.5,-988.5 565.5,-1007.5 670.5,-1007.5 670.5,-988.5 565.5,-988.5"/>
<text text-anchor="middle" x="618" y="-995.5" font-family="Helvetica,sans-Serif" font-size="10.00">Enemy::getTowers</text>
</a>
</g>
</g>
<!-- Node57&#45;&gt;Node60 -->
<g id="edge56" class="edge">
<title>Node57&#45;&gt;Node60</title>
<path fill="none" stroke="midnightblue" d="M435.05,-893.77C452.55,-913.12 494.56,-956.42 539,-979 544.25,-981.67 549.9,-983.98 555.67,-985.96"/>
<polygon fill="midnightblue" stroke="midnightblue" points="554.84,-989.38 565.43,-989.02 556.94,-982.69 554.84,-989.38"/>
</g>
<!-- Node61 -->
<g id="node45" class="node">
<title>Node61</title>
<g id="a_node45"><a xlink:href="structCMenu.html#ac9ee7892120cb46cd7670bdf99eb9965" target="_top" xlink:title=" ">
<polygon fill="white" stroke="black" points="564.5,-950.5 564.5,-969.5 671.5,-969.5 671.5,-950.5 564.5,-950.5"/>
<text text-anchor="middle" x="618" y="-957.5" font-family="Helvetica,sans-Serif" font-size="10.00">CMenu::saveMenu</text>
</a>
</g>
</g>
<!-- Node57&#45;&gt;Node61 -->
<g id="edge57" class="edge">
<title>Node57&#45;&gt;Node61</title>
<path fill="none" stroke="midnightblue" d="M442.37,-893.52C463.68,-905.96 503.06,-927.72 539,-941 545.83,-943.52 553.12,-945.81 560.4,-947.85"/>
<polygon fill="midnightblue" stroke="midnightblue" points="559.71,-951.29 570.28,-950.47 561.51,-944.52 559.71,-951.29"/>
</g>
<!-- Node62 -->
<g id="node46" class="node">
<title>Node62</title>
<g id="a_node46"><a xlink:href="Menu_8cpp.html#a991c482871701a7cb19cdbceae408dcb" target="_top" xlink:title=" ">
<polygon fill="white" stroke="black" points="757,-950.5 757,-969.5 817,-969.5 817,-950.5 757,-950.5"/>
<text text-anchor="middle" x="787" y="-957.5" font-family="Helvetica,sans-Serif" font-size="10.00">cleanPos</text>
</a>
</g>
</g>
<!-- Node61&#45;&gt;Node62 -->
<g id="edge58" class="edge">
<title>Node61&#45;&gt;Node62</title>
<path fill="none" stroke="midnightblue" d="M671.84,-960C696.09,-960 724.35,-960 746.69,-960"/>
<polygon fill="midnightblue" stroke="midnightblue" points="746.82,-963.5 756.82,-960 746.82,-956.5 746.82,-963.5"/>
</g>
<!-- Node64 -->
<g id="node48" class="node">
<title>Node64</title>
<g id="a_node48"><a xlink:href="classCGame.html#ac171bc92e70f80457d200d6498548dd0" target="_top" xlink:title=" ">
<polygon fill="white" stroke="black" points="352.5,-608.5 352.5,-627.5 498.5,-627.5 498.5,-608.5 352.5,-608.5"/>
<text text-anchor="middle" x="425.5" y="-615.5" font-family="Helvetica,sans-Serif" font-size="10.00">CGame::drawAttackerDefs</text>
</a>
</g>
</g>
<!-- Node63&#45;&gt;Node64 -->
<g id="edge60" class="edge">
<title>Node63&#45;&gt;Node64</title>
<path fill="none" stroke="midnightblue" d="M293.16,-647.19C316.5,-642 346.32,-635.37 371.64,-629.75"/>
<polygon fill="midnightblue" stroke="midnightblue" points="372.46,-633.15 381.46,-627.56 370.94,-626.32 372.46,-633.15"/>
</g>
<!-- Node65 -->
<g id="node49" class="node">
<title>Node65</title>
<g id="a_node49"><a xlink:href="classCGame.html#abca9e7318a19887770d007a56248fa82" target="_top" xlink:title=" ">
<polygon fill="white" stroke="red" points="378,-684.5 378,-703.5 473,-703.5 473,-684.5 378,-684.5"/>
<text text-anchor="middle" x="425.5" y="-691.5" font-family="Helvetica,sans-Serif" font-size="10.00">CGame::resume</text>
</a>
</g>
</g>
<!-- Node63&#45;&gt;Node65 -->
<g id="edge62" class="edge">
<title>Node63&#45;&gt;Node65</title>
<path fill="none" stroke="midnightblue" d="M293.16,-664.81C316.5,-670 346.32,-676.63 371.64,-682.25"/>
<polygon fill="midnightblue" stroke="midnightblue" points="370.94,-685.68 381.46,-684.44 372.46,-678.85 370.94,-685.68"/>
</g>
<!-- Node64&#45;&gt;Node32 -->
<g id="edge61" class="edge">
<title>Node64&#45;&gt;Node32</title>
<path fill="none" stroke="midnightblue" d="M474.57,-627.59C500.28,-632.72 532.11,-639.07 559.16,-644.46"/>
<polygon fill="midnightblue" stroke="midnightblue" points="558.78,-647.96 569.27,-646.48 560.15,-641.09 558.78,-647.96"/>
</g>
<!-- Node65&#45;&gt;Node4 -->
<g id="edge64" class="edge">
<title>Node65&#45;&gt;Node4</title>
<path fill="none" stroke="midnightblue" d="M440.88,-703.61C456.7,-714.42 482.57,-732.85 503,-751 520.39,-766.45 518.88,-777.33 539,-789 545.46,-792.75 552.64,-795.76 559.95,-798.18"/>
<polygon fill="midnightblue" stroke="midnightblue" points="559.37,-801.66 569.95,-801.13 561.35,-794.94 559.37,-801.66"/>
</g>
<!-- Node65&#45;&gt;Node30 -->
<g id="edge65" class="edge">
<title>Node65&#45;&gt;Node30</title>
<path fill="none" stroke="midnightblue" d="M473.05,-686.91C483.35,-684.14 493.9,-680.31 503,-675 523.1,-663.28 518.88,-648.67 539,-637 542.73,-634.84 546.7,-632.92 550.79,-631.22"/>
<polygon fill="midnightblue" stroke="midnightblue" points="552.34,-634.37 560.52,-627.63 549.92,-627.81 552.34,-634.37"/>
</g>
<!-- Node66 -->
<g id="node50" class="node">
<title>Node66</title>
<g id="a_node50"><a xlink:href="classPlayer.html#a1ea667bf317320dc59bd784251bfccf1" target="_top" xlink:title=" ">
<polygon fill="white" stroke="black" points="541,-684.5 541,-703.5 695,-703.5 695,-684.5 541,-684.5"/>
<text text-anchor="middle" x="618" y="-691.5" font-family="Helvetica,sans-Serif" font-size="10.00">Player::addAttackerToQueue</text>
</a>
</g>
</g>
<!-- Node65&#45;&gt;Node66 -->
<g id="edge63" class="edge">
<title>Node65&#45;&gt;Node66</title>
<path fill="none" stroke="midnightblue" d="M473.1,-694C490.53,-694 510.94,-694 530.81,-694"/>
<polygon fill="midnightblue" stroke="midnightblue" points="530.82,-697.5 540.82,-694 530.82,-690.5 530.82,-697.5"/>
</g>
</g>
</svg>
