<?xml version="1.0" encoding="UTF-8" standalone="no"?>
<!DOCTYPE svg PUBLIC "-//W3C//DTD SVG 1.1//EN"
 "http://www.w3.org/Graphics/SVG/1.1/DTD/svg11.dtd">
<!-- Generated by graphviz version 2.43.0 (0)
 -->
<!-- Title: src/main.cpp Pages: 1 -->
<svg width="860pt" height="420pt"
 viewBox="0.00 0.00 860.00 420.00" xmlns="http://www.w3.org/2000/svg" xmlns:xlink="http://www.w3.org/1999/xlink">
<g id="graph0" class="graph" transform="scale(1 1) rotate(0) translate(4 416)">
<title>src/main.cpp</title>
<polygon fill="white" stroke="transparent" points="-4,4 -4,-416 856,-416 856,4 -4,4"/>
<!-- Node1 -->
<g id="node1" class="node">
<title>Node1</title>
<g id="a_node1"><a xlink:title=" ">
<polygon fill="#bfbfbf" stroke="black" points="510.5,-392.5 510.5,-411.5 589.5,-411.5 589.5,-392.5 510.5,-392.5"/>
<text text-anchor="middle" x="550" y="-399.5" font-family="Helvetica,sans-Serif" font-size="10.00">src/main.cpp</text>
</a>
</g>
</g>
<!-- Node2 -->
<g id="node2" class="node">
<title>Node2</title>
<g id="a_node2"><a xlink:title=" ">
<polygon fill="white" stroke="#bfbfbf" points="761.5,-0.5 761.5,-19.5 824.5,-19.5 824.5,-0.5 761.5,-0.5"/>
<text text-anchor="middle" x="793" y="-7.5" font-family="Helvetica,sans-Serif" font-size="10.00">ncurses.h</text>
</a>
</g>
</g>
<!-- Node1&#45;&gt;Node2 -->
<g id="edge1" class="edge">
<title>Node1&#45;&gt;Node2</title>
<path fill="none" stroke="midnightblue" d="M589.79,-395.08C671.8,-381.74 852,-346.17 852,-291 852,-291 852,-291 852,-121 852,-84.02 825.79,-47.47 808.31,-27.21"/>
<polygon fill="midnightblue" stroke="midnightblue" points="810.74,-24.67 801.45,-19.56 805.53,-29.34 810.74,-24.67"/>
</g>
<!-- Node3 -->
<g id="node3" class="node">
<title>Node3</title>
<g id="a_node3"><a xlink:href="Entity_8h.html" target="_top" xlink:title=" ">
<polygon fill="white" stroke="black" points="313.5,-112.5 313.5,-131.5 366.5,-131.5 366.5,-112.5 313.5,-112.5"/>
<text text-anchor="middle" x="340" y="-119.5" font-family="Helvetica,sans-Serif" font-size="10.00">Entity.h</text>
</a>
</g>
</g>
<!-- Node1&#45;&gt;Node3 -->
<g id="edge2" class="edge">
<title>Node1&#45;&gt;Node3</title>
<path fill="none" stroke="midnightblue" d="M547.03,-392.26C539.77,-371.6 519.73,-318.54 493,-280 452.36,-221.4 389.24,-164.47 358.32,-138.16"/>
<polygon fill="midnightblue" stroke="midnightblue" points="360.41,-135.34 350.5,-131.58 355.9,-140.69 360.41,-135.34"/>
</g>
<!-- Node5 -->
<g id="node5" class="node">
<title>Node5</title>
<g id="a_node5"><a xlink:href="Map_8h.html" target="_top" xlink:title=" ">
<polygon fill="white" stroke="black" points="502.5,-56.5 502.5,-75.5 549.5,-75.5 549.5,-56.5 502.5,-56.5"/>
<text text-anchor="middle" x="526" y="-63.5" font-family="Helvetica,sans-Serif" font-size="10.00">Map.h</text>
</a>
</g>
</g>
<!-- Node1&#45;&gt;Node5 -->
<g id="edge19" class="edge">
<title>Node1&#45;&gt;Node5</title>
<path fill="none" stroke="midnightblue" d="M570.32,-392.39C600.77,-378.23 657.07,-346.85 680,-300 694.85,-269.66 692.78,-255.27 680,-224 653.24,-158.51 584.54,-105.57 548.63,-81.33"/>
<polygon fill="midnightblue" stroke="midnightblue" points="550.52,-78.38 540.25,-75.79 546.66,-84.22 550.52,-78.38"/>
</g>
<!-- Node11 -->
<g id="node11" class="node">
<title>Node11</title>
<g id="a_node11"><a xlink:href="Attacker_8h.html" target="_top" xlink:title=" ">
<polygon fill="white" stroke="black" points="218.5,-168.5 218.5,-187.5 283.5,-187.5 283.5,-168.5 218.5,-168.5"/>
<text text-anchor="middle" x="251" y="-175.5" font-family="Helvetica,sans-Serif" font-size="10.00">Attacker.h</text>
</a>
</g>
</g>
<!-- Node1&#45;&gt;Node11 -->
<g id="edge13" class="edge">
<title>Node1&#45;&gt;Node11</title>
<path fill="none" stroke="midnightblue" d="M510.47,-400.95C441.57,-398.58 299.71,-383.2 225,-300 202.2,-274.61 202.49,-256.13 214,-224 217.94,-213 225.86,-202.77 233.36,-194.85"/>
<polygon fill="midnightblue" stroke="midnightblue" points="235.89,-197.27 240.56,-187.76 230.98,-192.28 235.89,-197.27"/>
</g>
<!-- Node12 -->
<g id="node12" class="node">
<title>Node12</title>
<g id="a_node12"><a xlink:href="Game_8h.html" target="_top" xlink:title=" ">
<polygon fill="white" stroke="black" points="446.5,-336.5 446.5,-355.5 501.5,-355.5 501.5,-336.5 446.5,-336.5"/>
<text text-anchor="middle" x="474" y="-343.5" font-family="Helvetica,sans-Serif" font-size="10.00">Game.h</text>
</a>
</g>
</g>
<!-- Node1&#45;&gt;Node12 -->
<g id="edge20" class="edge">
<title>Node1&#45;&gt;Node12</title>
<path fill="none" stroke="midnightblue" d="M537.79,-392.32C526.22,-384.11 508.62,-371.6 494.84,-361.81"/>
<polygon fill="midnightblue" stroke="midnightblue" points="496.61,-358.77 486.43,-355.83 492.56,-364.48 496.61,-358.77"/>
</g>
<!-- Node4 -->
<g id="node4" class="node">
<title>Node4</title>
<g id="a_node4"><a xlink:href="constants_8h.html" target="_top" xlink:title=" ">
<polygon fill="white" stroke="black" points="218.5,-56.5 218.5,-75.5 291.5,-75.5 291.5,-56.5 218.5,-56.5"/>
<text text-anchor="middle" x="255" y="-63.5" font-family="Helvetica,sans-Serif" font-size="10.00">constants.h</text>
</a>
</g>
</g>
<!-- Node3&#45;&gt;Node4 -->
<g id="edge3" class="edge">
<title>Node3&#45;&gt;Node4</title>
<path fill="none" stroke="midnightblue" d="M326.34,-112.32C313.08,-103.9 292.73,-90.97 277.15,-81.07"/>
<polygon fill="midnightblue" stroke="midnightblue" points="278.94,-78.06 268.62,-75.65 275.19,-83.97 278.94,-78.06"/>
</g>
<!-- Node3&#45;&gt;Node5 -->
<g id="edge4" class="edge">
<title>Node3&#45;&gt;Node5</title>
<path fill="none" stroke="midnightblue" d="M364.38,-112.44C397.26,-102.25 455.54,-85.34 492.49,-75.27"/>
<polygon fill="midnightblue" stroke="midnightblue" points="493.56,-78.61 502.3,-72.62 491.74,-71.85 493.56,-78.61"/>
</g>
<!-- Node8 -->
<g id="node8" class="node">
<title>Node8</title>
<g id="a_node8"><a xlink:title=" ">
<polygon fill="white" stroke="#bfbfbf" points="388,-0.5 388,-19.5 446,-19.5 446,-0.5 388,-0.5"/>
<text text-anchor="middle" x="417" y="-7.5" font-family="Helvetica,sans-Serif" font-size="10.00">memory</text>
</a>
</g>
</g>
<!-- Node3&#45;&gt;Node8 -->
<g id="edge12" class="edge">
<title>Node3&#45;&gt;Node8</title>
<path fill="none" stroke="midnightblue" d="M348.28,-112.43C356.54,-103.66 369.37,-89.45 379,-76 389.92,-60.76 400.53,-42.19 407.75,-28.81"/>
<polygon fill="midnightblue" stroke="midnightblue" points="410.98,-30.2 412.56,-19.73 404.79,-26.93 410.98,-30.2"/>
</g>
<!-- Node10 -->
<g id="node10" class="node">
<title>Node10</title>
<g id="a_node10"><a xlink:title=" ">
<polygon fill="white" stroke="#bfbfbf" points="310,-56.5 310,-75.5 370,-75.5 370,-56.5 310,-56.5"/>
<text text-anchor="middle" x="340" y="-63.5" font-family="Helvetica,sans-Serif" font-size="10.00">iostream</text>
</a>
</g>
</g>
<!-- Node3&#45;&gt;Node10 -->
<g id="edge11" class="edge">
<title>Node3&#45;&gt;Node10</title>
<path fill="none" stroke="midnightblue" d="M340,-112.08C340,-105.01 340,-94.86 340,-85.99"/>
<polygon fill="midnightblue" stroke="midnightblue" points="343.5,-85.75 340,-75.75 336.5,-85.75 343.5,-85.75"/>
</g>
<!-- Node5&#45;&gt;Node2 -->
<g id="edge8" class="edge">
<title>Node5&#45;&gt;Node2</title>
<path fill="none" stroke="midnightblue" d="M549.69,-60.21C594.99,-51.05 694.4,-30.94 751.13,-19.47"/>
<polygon fill="midnightblue" stroke="midnightblue" points="752.1,-22.84 761.21,-17.43 750.71,-15.98 752.1,-22.84"/>
</g>
<!-- Node5&#45;&gt;Node3 -->
<g id="edge10" class="edge">
<title>Node5&#45;&gt;Node3</title>
<path fill="none" stroke="midnightblue" d="M502.31,-75.34C470.45,-85.24 413.91,-101.67 376.6,-111.89"/>
<polygon fill="midnightblue" stroke="midnightblue" points="375.36,-108.6 366.62,-114.59 377.19,-115.35 375.36,-108.6"/>
</g>
<!-- Node6 -->
<g id="node6" class="node">
<title>Node6</title>
<g id="a_node6"><a xlink:title=" ">
<polygon fill="white" stroke="#bfbfbf" points="52.5,-0.5 52.5,-19.5 99.5,-19.5 99.5,-0.5 52.5,-0.5"/>
<text text-anchor="middle" x="76" y="-7.5" font-family="Helvetica,sans-Serif" font-size="10.00">vector</text>
</a>
</g>
</g>
<!-- Node5&#45;&gt;Node6 -->
<g id="edge5" class="edge">
<title>Node5&#45;&gt;Node6</title>
<path fill="none" stroke="midnightblue" d="M502.44,-62.17C427.88,-53.23 196.87,-25.5 109.73,-15.05"/>
<polygon fill="midnightblue" stroke="midnightblue" points="109.94,-11.55 99.6,-13.83 109.11,-18.5 109.94,-11.55"/>
</g>
<!-- Node7 -->
<g id="node7" class="node">
<title>Node7</title>
<g id="a_node7"><a xlink:title=" ">
<polygon fill="white" stroke="#bfbfbf" points="678,-0.5 678,-19.5 722,-19.5 722,-0.5 678,-0.5"/>
<text text-anchor="middle" x="700" y="-7.5" font-family="Helvetica,sans-Serif" font-size="10.00">string</text>
</a>
</g>
</g>
<!-- Node5&#45;&gt;Node7 -->
<g id="edge6" class="edge">
<title>Node5&#45;&gt;Node7</title>
<path fill="none" stroke="midnightblue" d="M549.83,-57.6C580.45,-48.1 633.72,-31.57 667.89,-20.97"/>
<polygon fill="midnightblue" stroke="midnightblue" points="669.32,-24.19 677.83,-17.88 667.24,-17.5 669.32,-24.19"/>
</g>
<!-- Node5&#45;&gt;Node8 -->
<g id="edge7" class="edge">
<title>Node5&#45;&gt;Node8</title>
<path fill="none" stroke="midnightblue" d="M508.49,-56.32C490.93,-47.62 463.67,-34.12 443.47,-24.11"/>
<polygon fill="midnightblue" stroke="midnightblue" points="444.98,-20.96 434.47,-19.65 441.88,-27.23 444.98,-20.96"/>
</g>
<!-- Node9 -->
<g id="node9" class="node">
<title>Node9</title>
<g id="a_node9"><a xlink:title=" ">
<polygon fill="white" stroke="#bfbfbf" points="493.5,-0.5 493.5,-19.5 558.5,-19.5 558.5,-0.5 493.5,-0.5"/>
<text text-anchor="middle" x="526" y="-7.5" font-family="Helvetica,sans-Serif" font-size="10.00">functional</text>
</a>
</g>
</g>
<!-- Node5&#45;&gt;Node9 -->
<g id="edge9" class="edge">
<title>Node5&#45;&gt;Node9</title>
<path fill="none" stroke="midnightblue" d="M526,-56.08C526,-49.01 526,-38.86 526,-29.99"/>
<polygon fill="midnightblue" stroke="midnightblue" points="529.5,-29.75 526,-19.75 522.5,-29.75 529.5,-29.75"/>
</g>
<!-- Node11&#45;&gt;Node3 -->
<g id="edge14" class="edge">
<title>Node11&#45;&gt;Node3</title>
<path fill="none" stroke="midnightblue" d="M265.3,-168.32C279.18,-159.9 300.49,-146.97 316.8,-137.07"/>
<polygon fill="midnightblue" stroke="midnightblue" points="319,-139.83 325.74,-131.65 315.37,-133.85 319,-139.83"/>
</g>
<!-- Node11&#45;&gt;Node4 -->
<g id="edge15" class="edge">
<title>Node11&#45;&gt;Node4</title>
<path fill="none" stroke="midnightblue" d="M251.31,-168.37C251.96,-150.62 253.45,-109.67 254.32,-85.6"/>
<polygon fill="midnightblue" stroke="midnightblue" points="257.82,-85.71 254.69,-75.59 250.83,-85.46 257.82,-85.71"/>
</g>
<!-- Node11&#45;&gt;Node5 -->
<g id="edge18" class="edge">
<title>Node11&#45;&gt;Node5</title>
<path fill="none" stroke="midnightblue" d="M275.86,-168.46C301.01,-159.7 340.93,-145.5 375,-132 418.15,-114.9 467.41,-93.3 497.61,-79.81"/>
<polygon fill="midnightblue" stroke="midnightblue" points="499.38,-82.85 507.08,-75.57 496.52,-76.46 499.38,-82.85"/>
</g>
<!-- Node11&#45;&gt;Node6 -->
<g id="edge16" class="edge">
<title>Node11&#45;&gt;Node6</title>
<path fill="none" stroke="midnightblue" d="M241.78,-168.4C232.1,-159.35 216.45,-144.71 203,-132 163.03,-94.23 116.25,-49.53 92.16,-26.48"/>
<polygon fill="midnightblue" stroke="midnightblue" points="94.55,-23.92 84.91,-19.53 89.71,-28.98 94.55,-23.92"/>
</g>
<!-- Node11&#45;&gt;Node8 -->
<g id="edge17" class="edge">
<title>Node11&#45;&gt;Node8</title>
<path fill="none" stroke="midnightblue" d="M242.98,-168.42C224.1,-147.18 180.52,-91.3 209,-56 229.81,-30.2 323.64,-18.46 377.9,-13.74"/>
<polygon fill="midnightblue" stroke="midnightblue" points="378.19,-17.23 387.87,-12.92 377.61,-10.26 378.19,-17.23"/>
</g>
<!-- Node12&#45;&gt;Node2 -->
<g id="edge22" class="edge">
<title>Node12&#45;&gt;Node2</title>
<path fill="none" stroke="midnightblue" d="M501.54,-342.1C582.48,-332.81 814,-300.53 814,-235 814,-235 814,-235 814,-121 814,-88.38 804.98,-51.28 798.77,-29.57"/>
<polygon fill="midnightblue" stroke="midnightblue" points="802.04,-28.32 795.83,-19.73 795.33,-30.32 802.04,-28.32"/>
</g>
<!-- Node12&#45;&gt;Node5 -->
<g id="edge24" class="edge">
<title>Node12&#45;&gt;Node5</title>
<path fill="none" stroke="midnightblue" d="M484.42,-336.33C502.73,-320.33 540.03,-284.14 554,-244 573.47,-188.06 548.49,-117.42 534.41,-84.89"/>
<polygon fill="midnightblue" stroke="midnightblue" points="537.59,-83.42 530.29,-75.74 531.2,-86.29 537.59,-83.42"/>
</g>
<!-- Node12&#45;&gt;Node6 -->
<g id="edge44" class="edge">
<title>Node12&#45;&gt;Node6</title>
<path fill="none" stroke="midnightblue" d="M446.47,-344.55C345.3,-342.17 0,-327.29 0,-235 0,-235 0,-235 0,-121 0,-81.28 33.96,-45.5 56.48,-26.15"/>
<polygon fill="midnightblue" stroke="midnightblue" points="58.98,-28.63 64.46,-19.57 54.52,-23.24 58.98,-28.63"/>
</g>
<!-- Node12&#45;&gt;Node7 -->
<g id="edge45" class="edge">
<title>Node12&#45;&gt;Node7</title>
<path fill="none" stroke="midnightblue" d="M501.52,-344.73C543.2,-343.13 623.47,-335.25 680,-300 738.25,-263.68 776,-247.65 776,-179 776,-179 776,-179 776,-121 776,-81.28 742.04,-45.5 719.52,-26.15"/>
<polygon fill="midnightblue" stroke="midnightblue" points="721.48,-23.24 711.54,-19.57 717.02,-28.63 721.48,-23.24"/>
</g>
<!-- Node12&#45;&gt;Node11 -->
<g id="edge23" class="edge">
<title>Node12&#45;&gt;Node11</title>
<path fill="none" stroke="midnightblue" d="M462.01,-336.47C437.83,-319.23 381.54,-278.9 335,-244 312.39,-227.04 286.74,-207.09 269.8,-193.81"/>
<polygon fill="midnightblue" stroke="midnightblue" points="271.82,-190.94 261.79,-187.52 267.5,-196.45 271.82,-190.94"/>
</g>
<!-- Node13 -->
<g id="node13" class="node">
<title>Node13</title>
<g id="a_node13"><a xlink:href="HelpStructs_8h.html" target="_top" xlink:title=" ">
<polygon fill="white" stroke="black" points="243,-280.5 243,-299.5 325,-299.5 325,-280.5 243,-280.5"/>
<text text-anchor="middle" x="284" y="-287.5" font-family="Helvetica,sans-Serif" font-size="10.00">HelpStructs.h</text>
</a>
</g>
</g>
<!-- Node12&#45;&gt;Node13 -->
<g id="edge21" class="edge">
<title>Node12&#45;&gt;Node13</title>
<path fill="none" stroke="midnightblue" d="M446.37,-337.15C414.2,-328 360.78,-312.82 324.06,-302.38"/>
<polygon fill="midnightblue" stroke="midnightblue" points="324.75,-298.94 314.17,-299.58 322.84,-305.68 324.75,-298.94"/>
</g>
<!-- Node14 -->
<g id="node14" class="node">
<title>Node14</title>
<g id="a_node14"><a xlink:href="exceptions_8h.html" target="_top" xlink:title=" ">
<polygon fill="white" stroke="black" points="592.5,-280.5 592.5,-299.5 671.5,-299.5 671.5,-280.5 592.5,-280.5"/>
<text text-anchor="middle" x="632" y="-287.5" font-family="Helvetica,sans-Serif" font-size="10.00">exceptions.h</text>
</a>
</g>
</g>
<!-- Node12&#45;&gt;Node14 -->
<g id="edge25" class="edge">
<title>Node12&#45;&gt;Node14</title>
<path fill="none" stroke="midnightblue" d="M499.04,-336.44C525.62,-327.36 567.81,-312.94 597.52,-302.78"/>
<polygon fill="midnightblue" stroke="midnightblue" points="598.75,-306.06 607.08,-299.52 596.49,-299.44 598.75,-306.06"/>
</g>
<!-- Node16 -->
<g id="node16" class="node">
<title>Node16</title>
<g id="a_node16"><a xlink:href="Player_8h.html" target="_top" xlink:title=" ">
<polygon fill="white" stroke="black" points="223,-224.5 223,-243.5 279,-243.5 279,-224.5 223,-224.5"/>
<text text-anchor="middle" x="251" y="-231.5" font-family="Helvetica,sans-Serif" font-size="10.00">Player.h</text>
</a>
</g>
</g>
<!-- Node12&#45;&gt;Node16 -->
<g id="edge28" class="edge">
<title>Node12&#45;&gt;Node16</title>
<path fill="none" stroke="midnightblue" d="M446.32,-344.07C389.06,-341.51 260.74,-332.21 234,-300 222.86,-286.58 230.53,-266.67 238.84,-252.42"/>
<polygon fill="midnightblue" stroke="midnightblue" points="242.03,-253.92 244.47,-243.61 236.13,-250.15 242.03,-253.92"/>
</g>
<!-- Node17 -->
<g id="node17" class="node">
<title>Node17</title>
<g id="a_node17"><a xlink:href="Enemy_8h.html" target="_top" xlink:title=" ">
<polygon fill="white" stroke="black" points="426,-280.5 426,-299.5 484,-299.5 484,-280.5 426,-280.5"/>
<text text-anchor="middle" x="455" y="-287.5" font-family="Helvetica,sans-Serif" font-size="10.00">Enemy.h</text>
</a>
</g>
</g>
<!-- Node12&#45;&gt;Node17 -->
<g id="edge34" class="edge">
<title>Node12&#45;&gt;Node17</title>
<path fill="none" stroke="midnightblue" d="M470.86,-336.08C468.32,-328.85 464.64,-318.41 461.47,-309.4"/>
<polygon fill="midnightblue" stroke="midnightblue" points="464.7,-308.02 458.08,-299.75 458.1,-310.35 464.7,-308.02"/>
</g>
<!-- Node14&#45;&gt;Node7 -->
<g id="edge26" class="edge">
<title>Node14&#45;&gt;Node7</title>
<path fill="none" stroke="midnightblue" d="M644.35,-280.37C655.21,-272.18 670.68,-258.92 680,-244 696.01,-218.36 700,-209.23 700,-179 700,-179 700,-179 700,-121 700,-88.95 700,-51.64 700,-29.75"/>
<polygon fill="midnightblue" stroke="midnightblue" points="703.5,-29.56 700,-19.56 696.5,-29.56 703.5,-29.56"/>
</g>
<!-- Node15 -->
<g id="node15" class="node">
<title>Node15</title>
<g id="a_node15"><a xlink:title=" ">
<polygon fill="white" stroke="#bfbfbf" points="606.5,-224.5 606.5,-243.5 671.5,-243.5 671.5,-224.5 606.5,-224.5"/>
<text text-anchor="middle" x="639" y="-231.5" font-family="Helvetica,sans-Serif" font-size="10.00">exception</text>
</a>
</g>
</g>
<!-- Node14&#45;&gt;Node15 -->
<g id="edge27" class="edge">
<title>Node14&#45;&gt;Node15</title>
<path fill="none" stroke="midnightblue" d="M633.16,-280.08C634.08,-272.93 635.42,-262.64 636.58,-253.69"/>
<polygon fill="midnightblue" stroke="midnightblue" points="640.05,-254.12 637.87,-243.75 633.11,-253.22 640.05,-254.12"/>
</g>
<!-- Node16&#45;&gt;Node3 -->
<g id="edge29" class="edge">
<title>Node16&#45;&gt;Node3</title>
<path fill="none" stroke="midnightblue" d="M259.45,-224.28C267.94,-215.38 281.27,-201.07 292,-188 305.02,-172.14 318.83,-153.19 328.28,-139.85"/>
<polygon fill="midnightblue" stroke="midnightblue" points="331.17,-141.82 334.06,-131.63 325.45,-137.8 331.17,-141.82"/>
</g>
<!-- Node16&#45;&gt;Node5 -->
<g id="edge33" class="edge">
<title>Node16&#45;&gt;Node5</title>
<path fill="none" stroke="midnightblue" d="M265.4,-224.31C310.32,-197.19 448.17,-113.98 503.08,-80.83"/>
<polygon fill="midnightblue" stroke="midnightblue" points="504.99,-83.77 511.74,-75.61 501.37,-77.78 504.99,-83.77"/>
</g>
<!-- Node16&#45;&gt;Node6 -->
<g id="edge32" class="edge">
<title>Node16&#45;&gt;Node6</title>
<path fill="none" stroke="midnightblue" d="M238.58,-224.21C227.06,-215.71 209.81,-202.09 197,-188 148.89,-135.08 104.84,-61.9 85.85,-28.68"/>
<polygon fill="midnightblue" stroke="midnightblue" points="88.76,-26.7 80.79,-19.71 82.66,-30.14 88.76,-26.7"/>
</g>
<!-- Node16&#45;&gt;Node8 -->
<g id="edge31" class="edge">
<title>Node16&#45;&gt;Node8</title>
<path fill="none" stroke="midnightblue" d="M239.57,-224.39C229.65,-216.21 215.84,-202.97 209,-188 184.51,-134.43 159.75,-101.64 197,-56 219.39,-28.56 320.82,-17.4 377.81,-13.24"/>
<polygon fill="midnightblue" stroke="midnightblue" points="378.17,-16.72 387.91,-12.54 377.69,-9.74 378.17,-16.72"/>
</g>
<!-- Node16&#45;&gt;Node11 -->
<g id="edge30" class="edge">
<title>Node16&#45;&gt;Node11</title>
<path fill="none" stroke="midnightblue" d="M251,-224.08C251,-217.01 251,-206.86 251,-197.99"/>
<polygon fill="midnightblue" stroke="midnightblue" points="254.5,-197.75 251,-187.75 247.5,-197.75 254.5,-197.75"/>
</g>
<!-- Node17&#45;&gt;Node2 -->
<g id="edge43" class="edge">
<title>Node17&#45;&gt;Node2</title>
<path fill="none" stroke="midnightblue" d="M465.49,-280.38C513.59,-240.81 713.41,-76.46 774.91,-25.88"/>
<polygon fill="midnightblue" stroke="midnightblue" points="777.14,-28.58 782.64,-19.52 772.69,-23.17 777.14,-28.58"/>
</g>
<!-- Node17&#45;&gt;Node5 -->
<g id="edge40" class="edge">
<title>Node17&#45;&gt;Node5</title>
<path fill="none" stroke="midnightblue" d="M460.14,-280.29C465.22,-271.4 472.94,-257.09 478,-244 499.66,-187.94 515.47,-118.33 522.29,-85.62"/>
<polygon fill="midnightblue" stroke="midnightblue" points="525.75,-86.17 524.32,-75.68 518.89,-84.77 525.75,-86.17"/>
</g>
<!-- Node17&#45;&gt;Node6 -->
<g id="edge42" class="edge">
<title>Node17&#45;&gt;Node6</title>
<path fill="none" stroke="midnightblue" d="M425.99,-286.33C369.85,-280.72 248.84,-266.36 214,-244 133.22,-192.16 93.51,-74.81 80.75,-29.41"/>
<polygon fill="midnightblue" stroke="midnightblue" points="84.12,-28.47 78.13,-19.73 77.36,-30.29 84.12,-28.47"/>
</g>
<!-- Node17&#45;&gt;Node8 -->
<g id="edge41" class="edge">
<title>Node17&#45;&gt;Node8</title>
<path fill="none" stroke="midnightblue" d="M453.82,-280.38C448.53,-241.7 426.95,-83.79 419.52,-29.47"/>
<polygon fill="midnightblue" stroke="midnightblue" points="422.99,-28.96 418.17,-19.52 416.05,-29.91 422.99,-28.96"/>
</g>
<!-- Node17&#45;&gt;Node16 -->
<g id="edge35" class="edge">
<title>Node17&#45;&gt;Node16</title>
<path fill="none" stroke="midnightblue" d="M425.77,-281.26C389.79,-271.74 328.61,-255.54 289.01,-245.06"/>
<polygon fill="midnightblue" stroke="midnightblue" points="289.75,-241.64 279.19,-242.46 287.96,-248.4 289.75,-241.64"/>
</g>
<!-- Node18 -->
<g id="node18" class="node">
<title>Node18</title>
<g id="a_node18"><a xlink:href="Tower_8h.html" target="_top" xlink:title=" ">
<polygon fill="white" stroke="black" points="344.5,-224.5 344.5,-243.5 397.5,-243.5 397.5,-224.5 344.5,-224.5"/>
<text text-anchor="middle" x="371" y="-231.5" font-family="Helvetica,sans-Serif" font-size="10.00">Tower.h</text>
</a>
</g>
</g>
<!-- Node17&#45;&gt;Node18 -->
<g id="edge36" class="edge">
<title>Node17&#45;&gt;Node18</title>
<path fill="none" stroke="midnightblue" d="M441.5,-280.32C428.4,-271.9 408.29,-258.97 392.89,-249.07"/>
<polygon fill="midnightblue" stroke="midnightblue" points="394.77,-246.12 384.46,-243.65 390.98,-252.01 394.77,-246.12"/>
</g>
<!-- Node18&#45;&gt;Node3 -->
<g id="edge37" class="edge">
<title>Node18&#45;&gt;Node3</title>
<path fill="none" stroke="midnightblue" d="M368.57,-224.37C363.54,-206.54 351.92,-165.3 345.15,-141.27"/>
<polygon fill="midnightblue" stroke="midnightblue" points="348.5,-140.27 342.42,-131.59 341.77,-142.17 348.5,-140.27"/>
</g>
<!-- Node18&#45;&gt;Node8 -->
<g id="edge39" class="edge">
<title>Node18&#45;&gt;Node8</title>
<path fill="none" stroke="midnightblue" d="M372.8,-224.3C379.57,-191.63 403.56,-75.87 413.07,-29.96"/>
<polygon fill="midnightblue" stroke="midnightblue" points="416.56,-30.39 415.16,-19.88 409.7,-28.97 416.56,-30.39"/>
</g>
<!-- Node18&#45;&gt;Node11 -->
<g id="edge38" class="edge">
<title>Node18&#45;&gt;Node11</title>
<path fill="none" stroke="midnightblue" d="M351.99,-224.44C332.41,-215.64 301.69,-201.81 279.27,-191.72"/>
<polygon fill="midnightblue" stroke="midnightblue" points="280.48,-188.43 269.93,-187.52 277.61,-194.81 280.48,-188.43"/>
</g>
</g>
</svg>
