<?xml version="1.0" encoding="UTF-8" standalone="no"?>
<!DOCTYPE svg PUBLIC "-//W3C//DTD SVG 1.1//EN"
 "http://www.w3.org/Graphics/SVG/1.1/DTD/svg11.dtd">
<!-- Generated by graphviz version 2.43.0 (0)
 -->
<!-- Title: src/main.cpp Pages: 1 -->
<svg width="704pt" height="420pt"
 viewBox="0.00 0.00 703.50 420.00" xmlns="http://www.w3.org/2000/svg" xmlns:xlink="http://www.w3.org/1999/xlink">
<g id="graph0" class="graph" transform="scale(1 1) rotate(0) translate(4 416)">
<title>src/main.cpp</title>
<polygon fill="white" stroke="transparent" points="-4,4 -4,-416 699.5,-416 699.5,4 -4,4"/>
<!-- Node1 -->
<g id="node1" class="node">
<title>Node1</title>
<g id="a_node1"><a xlink:title=" ">
<polygon fill="#bfbfbf" stroke="black" points="542,-392.5 542,-411.5 621,-411.5 621,-392.5 542,-392.5"/>
<text text-anchor="middle" x="581.5" y="-399.5" font-family="Helvetica,sans-Serif" font-size="10.00">src/main.cpp</text>
</a>
</g>
</g>
<!-- Node2 -->
<g id="node2" class="node">
<title>Node2</title>
<g id="a_node2"><a xlink:title=" ">
<polygon fill="white" stroke="#bfbfbf" points="0,-280.5 0,-299.5 63,-299.5 63,-280.5 0,-280.5"/>
<text text-anchor="middle" x="31.5" y="-287.5" font-family="Helvetica,sans-Serif" font-size="10.00">ncurses.h</text>
</a>
</g>
</g>
<!-- Node1&#45;&gt;Node2 -->
<g id="edge1" class="edge">
<title>Node1&#45;&gt;Node2</title>
<path fill="none" stroke="midnightblue" d="M541.71,-394C493.36,-385.42 409.33,-370.25 337.5,-356 242.77,-337.21 132,-313.16 73.18,-300.23"/>
<polygon fill="midnightblue" stroke="midnightblue" points="73.68,-296.75 63.16,-298.02 72.17,-303.59 73.68,-296.75"/>
</g>
<!-- Node3 -->
<g id="node3" class="node">
<title>Node3</title>
<g id="a_node3"><a xlink:href="Entity_8h.html" target="_top" xlink:title=" ">
<polygon fill="white" stroke="black" points="386,-112.5 386,-131.5 439,-131.5 439,-112.5 386,-112.5"/>
<text text-anchor="middle" x="412.5" y="-119.5" font-family="Helvetica,sans-Serif" font-size="10.00">Entity.h</text>
</a>
</g>
</g>
<!-- Node1&#45;&gt;Node3 -->
<g id="edge2" class="edge">
<title>Node1&#45;&gt;Node3</title>
<path fill="none" stroke="midnightblue" d="M579.68,-392.39C572.41,-359.68 542.67,-241.22 479.5,-168 468.34,-155.07 452.62,-144.25 439.22,-136.47"/>
<polygon fill="midnightblue" stroke="midnightblue" points="440.83,-133.36 430.39,-131.57 437.44,-139.48 440.83,-133.36"/>
</g>
<!-- Node5 -->
<g id="node5" class="node">
<title>Node5</title>
<g id="a_node5"><a xlink:href="Map_8h.html" target="_top" xlink:title=" ">
<polygon fill="white" stroke="black" points="552,-56.5 552,-75.5 599,-75.5 599,-56.5 552,-56.5"/>
<text text-anchor="middle" x="575.5" y="-63.5" font-family="Helvetica,sans-Serif" font-size="10.00">Map.h</text>
</a>
</g>
</g>
<!-- Node1&#45;&gt;Node5 -->
<g id="edge16" class="edge">
<title>Node1&#45;&gt;Node5</title>
<path fill="none" stroke="midnightblue" d="M602.14,-392.42C635,-377.23 695.5,-342.29 695.5,-291 695.5,-291 695.5,-291 695.5,-233 695.5,-166.41 631.29,-108.41 596.81,-82.07"/>
<polygon fill="midnightblue" stroke="midnightblue" points="598.46,-78.94 588.34,-75.79 594.28,-84.56 598.46,-78.94"/>
</g>
<!-- Node10 -->
<g id="node10" class="node">
<title>Node10</title>
<g id="a_node10"><a xlink:href="Attacker_8h.html" target="_top" xlink:title=" ">
<polygon fill="white" stroke="black" points="406,-168.5 406,-187.5 471,-187.5 471,-168.5 406,-168.5"/>
<text text-anchor="middle" x="438.5" y="-175.5" font-family="Helvetica,sans-Serif" font-size="10.00">Attacker.h</text>
</a>
</g>
</g>
<!-- Node1&#45;&gt;Node10 -->
<g id="edge10" class="edge">
<title>Node1&#45;&gt;Node10</title>
<path fill="none" stroke="midnightblue" d="M575.89,-392.3C554.63,-359.29 478.7,-241.4 449.79,-196.52"/>
<polygon fill="midnightblue" stroke="midnightblue" points="452.58,-194.4 444.22,-187.88 446.7,-198.19 452.58,-194.4"/>
</g>
<!-- Node11 -->
<g id="node11" class="node">
<title>Node11</title>
<g id="a_node11"><a xlink:href="Game_8h.html" target="_top" xlink:title=" ">
<polygon fill="white" stroke="black" points="347,-336.5 347,-355.5 402,-355.5 402,-336.5 347,-336.5"/>
<text text-anchor="middle" x="374.5" y="-343.5" font-family="Helvetica,sans-Serif" font-size="10.00">Game.h</text>
</a>
</g>
</g>
<!-- Node1&#45;&gt;Node11 -->
<g id="edge17" class="edge">
<title>Node1&#45;&gt;Node11</title>
<path fill="none" stroke="midnightblue" d="M548.7,-392.44C511.55,-382.75 451.12,-366.99 412.1,-356.81"/>
<polygon fill="midnightblue" stroke="midnightblue" points="412.74,-353.36 402.18,-354.22 410.97,-360.13 412.74,-353.36"/>
</g>
<!-- Node4 -->
<g id="node4" class="node">
<title>Node4</title>
<g id="a_node4"><a xlink:href="constants_8h.html" target="_top" xlink:title=" ">
<polygon fill="white" stroke="black" points="461,-56.5 461,-75.5 534,-75.5 534,-56.5 461,-56.5"/>
<text text-anchor="middle" x="497.5" y="-63.5" font-family="Helvetica,sans-Serif" font-size="10.00">constants.h</text>
</a>
</g>
</g>
<!-- Node3&#45;&gt;Node4 -->
<g id="edge3" class="edge">
<title>Node3&#45;&gt;Node4</title>
<path fill="none" stroke="midnightblue" d="M426.16,-112.32C439.42,-103.9 459.77,-90.97 475.35,-81.07"/>
<polygon fill="midnightblue" stroke="midnightblue" points="477.31,-83.97 483.88,-75.65 473.56,-78.06 477.31,-83.97"/>
</g>
<!-- Node3&#45;&gt;Node5 -->
<g id="edge4" class="edge">
<title>Node3&#45;&gt;Node5</title>
<path fill="none" stroke="midnightblue" d="M433.24,-112.44C460.85,-102.58 509.57,-86.42 542.28,-76.27"/>
<polygon fill="midnightblue" stroke="midnightblue" points="543.35,-79.6 551.88,-73.32 541.3,-72.91 543.35,-79.6"/>
</g>
<!-- Node8 -->
<g id="node8" class="node">
<title>Node8</title>
<g id="a_node8"><a xlink:title=" ">
<polygon fill="white" stroke="#bfbfbf" points="382.5,-56.5 382.5,-75.5 442.5,-75.5 442.5,-56.5 382.5,-56.5"/>
<text text-anchor="middle" x="412.5" y="-63.5" font-family="Helvetica,sans-Serif" font-size="10.00">iostream</text>
</a>
</g>
</g>
<!-- Node3&#45;&gt;Node8 -->
<g id="edge8" class="edge">
<title>Node3&#45;&gt;Node8</title>
<path fill="none" stroke="midnightblue" d="M412.5,-112.08C412.5,-105.01 412.5,-94.86 412.5,-85.99"/>
<polygon fill="midnightblue" stroke="midnightblue" points="416,-85.75 412.5,-75.75 409,-85.75 416,-85.75"/>
</g>
<!-- Node9 -->
<g id="node9" class="node">
<title>Node9</title>
<g id="a_node9"><a xlink:title=" ">
<polygon fill="white" stroke="#bfbfbf" points="252.5,-56.5 252.5,-75.5 310.5,-75.5 310.5,-56.5 252.5,-56.5"/>
<text text-anchor="middle" x="281.5" y="-63.5" font-family="Helvetica,sans-Serif" font-size="10.00">memory</text>
</a>
</g>
</g>
<!-- Node3&#45;&gt;Node9 -->
<g id="edge9" class="edge">
<title>Node3&#45;&gt;Node9</title>
<path fill="none" stroke="midnightblue" d="M391.74,-112.44C370.18,-103.56 336.24,-89.56 311.71,-79.45"/>
<polygon fill="midnightblue" stroke="midnightblue" points="312.74,-76.09 302.16,-75.52 310.07,-82.56 312.74,-76.09"/>
</g>
<!-- Node5&#45;&gt;Node3 -->
<g id="edge7" class="edge">
<title>Node5&#45;&gt;Node3</title>
<path fill="none" stroke="midnightblue" d="M554.67,-75.59C527.92,-85.14 481.49,-100.56 448.9,-110.74"/>
<polygon fill="midnightblue" stroke="midnightblue" points="447.79,-107.42 439.27,-113.72 449.86,-114.11 447.79,-107.42"/>
</g>
<!-- Node6 -->
<g id="node6" class="node">
<title>Node6</title>
<g id="a_node6"><a xlink:title=" ">
<polygon fill="white" stroke="#bfbfbf" points="182,-0.5 182,-19.5 229,-19.5 229,-0.5 182,-0.5"/>
<text text-anchor="middle" x="205.5" y="-7.5" font-family="Helvetica,sans-Serif" font-size="10.00">vector</text>
</a>
</g>
</g>
<!-- Node5&#45;&gt;Node6 -->
<g id="edge5" class="edge">
<title>Node5&#45;&gt;Node6</title>
<path fill="none" stroke="midnightblue" d="M551.8,-58.13C548.69,-57.35 545.53,-56.61 542.5,-56 432.8,-33.82 300.72,-19.81 239.6,-14.03"/>
<polygon fill="midnightblue" stroke="midnightblue" points="239.66,-10.52 229.38,-13.08 239.01,-17.49 239.66,-10.52"/>
</g>
<!-- Node7 -->
<g id="node7" class="node">
<title>Node7</title>
<g id="a_node7"><a xlink:title=" ">
<polygon fill="white" stroke="#bfbfbf" points="613.5,-0.5 613.5,-19.5 657.5,-19.5 657.5,-0.5 613.5,-0.5"/>
<text text-anchor="middle" x="635.5" y="-7.5" font-family="Helvetica,sans-Serif" font-size="10.00">string</text>
</a>
</g>
</g>
<!-- Node5&#45;&gt;Node7 -->
<g id="edge6" class="edge">
<title>Node5&#45;&gt;Node7</title>
<path fill="none" stroke="midnightblue" d="M585.14,-56.32C594.01,-48.34 607.37,-36.31 618.11,-26.65"/>
<polygon fill="midnightblue" stroke="midnightblue" points="620.59,-29.13 625.68,-19.83 615.91,-23.92 620.59,-29.13"/>
</g>
<!-- Node10&#45;&gt;Node3 -->
<g id="edge11" class="edge">
<title>Node10&#45;&gt;Node3</title>
<path fill="none" stroke="midnightblue" d="M434.21,-168.08C430.65,-160.69 425.48,-149.95 421.08,-140.81"/>
<polygon fill="midnightblue" stroke="midnightblue" points="424.21,-139.24 416.71,-131.75 417.9,-142.28 424.21,-139.24"/>
</g>
<!-- Node10&#45;&gt;Node4 -->
<g id="edge12" class="edge">
<title>Node10&#45;&gt;Node4</title>
<path fill="none" stroke="midnightblue" d="M443.13,-168.37C452.78,-150.38 475.21,-108.55 488.05,-84.63"/>
<polygon fill="midnightblue" stroke="midnightblue" points="491.25,-86.06 492.89,-75.59 485.08,-82.75 491.25,-86.06"/>
</g>
<!-- Node10&#45;&gt;Node5 -->
<g id="edge15" class="edge">
<title>Node10&#45;&gt;Node5</title>
<path fill="none" stroke="midnightblue" d="M449.25,-168.37C472.46,-149.73 527.51,-105.53 556.65,-82.13"/>
<polygon fill="midnightblue" stroke="midnightblue" points="559.19,-84.58 564.8,-75.59 554.81,-79.12 559.19,-84.58"/>
</g>
<!-- Node10&#45;&gt;Node6 -->
<g id="edge13" class="edge">
<title>Node10&#45;&gt;Node6</title>
<path fill="none" stroke="midnightblue" d="M424.28,-168.43C411.07,-160.08 391.29,-146.56 376.5,-132 346.41,-102.38 353.07,-81.61 319.5,-56 295.52,-37.71 263.14,-25.88 239.02,-18.96"/>
<polygon fill="midnightblue" stroke="midnightblue" points="239.81,-15.54 229.24,-16.29 237.96,-22.3 239.81,-15.54"/>
</g>
<!-- Node10&#45;&gt;Node9 -->
<g id="edge14" class="edge">
<title>Node10&#45;&gt;Node9</title>
<path fill="none" stroke="midnightblue" d="M414.54,-168.49C394.49,-160.73 365.69,-148.03 343.5,-132 324.24,-118.08 305.94,-97.7 294.28,-83.49"/>
<polygon fill="midnightblue" stroke="midnightblue" points="296.91,-81.17 287.93,-75.54 291.44,-85.54 296.91,-81.17"/>
</g>
<!-- Node11&#45;&gt;Node2 -->
<g id="edge19" class="edge">
<title>Node11&#45;&gt;Node2</title>
<path fill="none" stroke="midnightblue" d="M346.59,-341.18C293.89,-333.87 176.16,-317.12 77.5,-300 76.05,-299.75 74.57,-299.49 73.08,-299.22"/>
<polygon fill="midnightblue" stroke="midnightblue" points="73.61,-295.76 63.14,-297.38 72.34,-302.64 73.61,-295.76"/>
</g>
<!-- Node11&#45;&gt;Node5 -->
<g id="edge21" class="edge">
<title>Node11&#45;&gt;Node5</title>
<path fill="none" stroke="midnightblue" d="M389.2,-336.37C430.15,-311.28 544.6,-233.63 576.5,-132 581.21,-117.01 580.5,-99.1 578.87,-85.88"/>
<polygon fill="midnightblue" stroke="midnightblue" points="582.28,-85.02 577.32,-75.66 575.36,-86.07 582.28,-85.02"/>
</g>
<!-- Node11&#45;&gt;Node6 -->
<g id="edge37" class="edge">
<title>Node11&#45;&gt;Node6</title>
<path fill="none" stroke="midnightblue" d="M346.85,-340.36C275.64,-327.62 91.5,-289.43 91.5,-235 91.5,-235 91.5,-235 91.5,-121 91.5,-74.11 142.05,-40.89 175.83,-23.93"/>
<polygon fill="midnightblue" stroke="midnightblue" points="177.37,-27.07 184.86,-19.58 174.33,-20.77 177.37,-27.07"/>
</g>
<!-- Node11&#45;&gt;Node7 -->
<g id="edge38" class="edge">
<title>Node11&#45;&gt;Node7</title>
<path fill="none" stroke="midnightblue" d="M397.86,-336.36C417.8,-328.44 446.77,-315.58 469.5,-300 499.32,-279.56 504.46,-271 528.5,-244 549.19,-220.76 555.34,-215.17 570.5,-188 600.75,-133.79 621.85,-62.76 630.76,-29.59"/>
<polygon fill="midnightblue" stroke="midnightblue" points="634.25,-30.08 633.4,-19.52 627.48,-28.3 634.25,-30.08"/>
</g>
<!-- Node11&#45;&gt;Node10 -->
<g id="edge20" class="edge">
<title>Node11&#45;&gt;Node10</title>
<path fill="none" stroke="midnightblue" d="M384.15,-336.32C392.9,-327.9 405.47,-314.32 412.5,-300 429.02,-266.37 435.09,-222.41 437.29,-197.8"/>
<polygon fill="midnightblue" stroke="midnightblue" points="440.79,-197.92 438.07,-187.68 433.81,-197.38 440.79,-197.92"/>
</g>
<!-- Node12 -->
<g id="node12" class="node">
<title>Node12</title>
<g id="a_node12"><a xlink:href="HelpStructs_8h.html" target="_top" xlink:title=" ">
<polygon fill="white" stroke="black" points="207.5,-280.5 207.5,-299.5 289.5,-299.5 289.5,-280.5 207.5,-280.5"/>
<text text-anchor="middle" x="248.5" y="-287.5" font-family="Helvetica,sans-Serif" font-size="10.00">HelpStructs.h</text>
</a>
</g>
</g>
<!-- Node11&#45;&gt;Node12 -->
<g id="edge18" class="edge">
<title>Node11&#45;&gt;Node12</title>
<path fill="none" stroke="midnightblue" d="M354.53,-336.44C333.89,-327.6 301.44,-313.69 277.87,-303.59"/>
<polygon fill="midnightblue" stroke="midnightblue" points="278.94,-300.24 268.37,-299.52 276.18,-306.67 278.94,-300.24"/>
</g>
<!-- Node13 -->
<g id="node13" class="node">
<title>Node13</title>
<g id="a_node13"><a xlink:href="Player_8h.html" target="_top" xlink:title=" ">
<polygon fill="white" stroke="black" points="282.5,-224.5 282.5,-243.5 338.5,-243.5 338.5,-224.5 282.5,-224.5"/>
<text text-anchor="middle" x="310.5" y="-231.5" font-family="Helvetica,sans-Serif" font-size="10.00">Player.h</text>
</a>
</g>
</g>
<!-- Node11&#45;&gt;Node13 -->
<g id="edge22" class="edge">
<title>Node11&#45;&gt;Node13</title>
<path fill="none" stroke="midnightblue" d="M365.71,-336.35C357.34,-327.75 344.82,-313.85 336.5,-300 327.61,-285.2 320.58,-266.82 316.09,-253.38"/>
<polygon fill="midnightblue" stroke="midnightblue" points="319.41,-252.29 313.04,-243.83 312.74,-254.42 319.41,-252.29"/>
</g>
<!-- Node14 -->
<g id="node14" class="node">
<title>Node14</title>
<g id="a_node14"><a xlink:href="Enemy_8h.html" target="_top" xlink:title=" ">
<polygon fill="white" stroke="black" points="345.5,-280.5 345.5,-299.5 403.5,-299.5 403.5,-280.5 345.5,-280.5"/>
<text text-anchor="middle" x="374.5" y="-287.5" font-family="Helvetica,sans-Serif" font-size="10.00">Enemy.h</text>
</a>
</g>
</g>
<!-- Node11&#45;&gt;Node14 -->
<g id="edge28" class="edge">
<title>Node11&#45;&gt;Node14</title>
<path fill="none" stroke="midnightblue" d="M374.5,-336.08C374.5,-329.01 374.5,-318.86 374.5,-309.99"/>
<polygon fill="midnightblue" stroke="midnightblue" points="378,-309.75 374.5,-299.75 371,-309.75 378,-309.75"/>
</g>
<!-- Node13&#45;&gt;Node3 -->
<g id="edge23" class="edge">
<title>Node13&#45;&gt;Node3</title>
<path fill="none" stroke="midnightblue" d="M318.5,-224.37C335.56,-205.97 375.71,-162.67 397.62,-139.05"/>
<polygon fill="midnightblue" stroke="midnightblue" points="400.3,-141.3 404.53,-131.59 395.17,-136.54 400.3,-141.3"/>
</g>
<!-- Node13&#45;&gt;Node5 -->
<g id="edge27" class="edge">
<title>Node13&#45;&gt;Node5</title>
<path fill="none" stroke="midnightblue" d="M338.67,-225.99C385.19,-214.35 473.53,-191.91 479.5,-188 520.47,-161.15 551.85,-111.01 566.47,-84.49"/>
<polygon fill="midnightblue" stroke="midnightblue" points="569.6,-86.05 571.23,-75.58 563.43,-82.75 569.6,-86.05"/>
</g>
<!-- Node13&#45;&gt;Node6 -->
<g id="edge26" class="edge">
<title>Node13&#45;&gt;Node6</title>
<path fill="none" stroke="midnightblue" d="M296.9,-224.23C285.37,-216.13 269.22,-203.09 259.5,-188 226.38,-136.55 212.65,-63.68 207.79,-29.74"/>
<polygon fill="midnightblue" stroke="midnightblue" points="211.26,-29.26 206.47,-19.81 204.32,-30.19 211.26,-29.26"/>
</g>
<!-- Node13&#45;&gt;Node9 -->
<g id="edge25" class="edge">
<title>Node13&#45;&gt;Node9</title>
<path fill="none" stroke="midnightblue" d="M298,-224.3C287.63,-216.25 273.61,-203.24 267.5,-188 253.65,-153.46 265.45,-109.24 274.19,-84.96"/>
<polygon fill="midnightblue" stroke="midnightblue" points="277.47,-86.18 277.77,-75.59 270.93,-83.68 277.47,-86.18"/>
</g>
<!-- Node13&#45;&gt;Node10 -->
<g id="edge24" class="edge">
<title>Node13&#45;&gt;Node10</title>
<path fill="none" stroke="midnightblue" d="M330.78,-224.44C351.85,-215.56 385.02,-201.56 408.99,-191.45"/>
<polygon fill="midnightblue" stroke="midnightblue" points="410.46,-194.63 418.31,-187.52 407.74,-188.18 410.46,-194.63"/>
</g>
<!-- Node14&#45;&gt;Node5 -->
<g id="edge34" class="edge">
<title>Node14&#45;&gt;Node5</title>
<path fill="none" stroke="midnightblue" d="M390.8,-280.39C427.5,-260.08 516.58,-205.28 557.5,-132 565.53,-117.62 570.17,-99.43 572.72,-85.95"/>
<polygon fill="midnightblue" stroke="midnightblue" points="576.2,-86.36 574.4,-75.92 569.29,-85.2 576.2,-86.36"/>
</g>
<!-- Node14&#45;&gt;Node6 -->
<g id="edge36" class="edge">
<title>Node14&#45;&gt;Node6</title>
<path fill="none" stroke="midnightblue" d="M345.43,-282.44C280.54,-266.95 129.5,-225.86 129.5,-179 129.5,-179 129.5,-179 129.5,-121 129.5,-81.28 163.46,-45.5 185.98,-26.15"/>
<polygon fill="midnightblue" stroke="midnightblue" points="188.48,-28.63 193.96,-19.57 184.02,-23.24 188.48,-28.63"/>
</g>
<!-- Node14&#45;&gt;Node9 -->
<g id="edge35" class="edge">
<title>Node14&#45;&gt;Node9</title>
<path fill="none" stroke="midnightblue" d="M345.49,-283.35C322.67,-277.4 291.77,-265.76 273.5,-244 235.57,-198.81 246.2,-169.48 259.5,-112 261.73,-102.36 266.32,-92.41 270.74,-84.31"/>
<polygon fill="midnightblue" stroke="midnightblue" points="273.85,-85.92 275.86,-75.52 267.8,-82.4 273.85,-85.92"/>
</g>
<!-- Node14&#45;&gt;Node13 -->
<g id="edge29" class="edge">
<title>Node14&#45;&gt;Node13</title>
<path fill="none" stroke="midnightblue" d="M364.22,-280.32C354.66,-272.26 340.22,-260.08 328.72,-250.37"/>
<polygon fill="midnightblue" stroke="midnightblue" points="330.87,-247.61 320.97,-243.83 326.36,-252.96 330.87,-247.61"/>
</g>
<!-- Node15 -->
<g id="node15" class="node">
<title>Node15</title>
<g id="a_node15"><a xlink:href="Tower_8h.html" target="_top" xlink:title=" ">
<polygon fill="white" stroke="black" points="357,-224.5 357,-243.5 410,-243.5 410,-224.5 357,-224.5"/>
<text text-anchor="middle" x="383.5" y="-231.5" font-family="Helvetica,sans-Serif" font-size="10.00">Tower.h</text>
</a>
</g>
</g>
<!-- Node14&#45;&gt;Node15 -->
<g id="edge30" class="edge">
<title>Node14&#45;&gt;Node15</title>
<path fill="none" stroke="midnightblue" d="M375.99,-280.08C377.18,-272.93 378.89,-262.64 380.38,-253.69"/>
<polygon fill="midnightblue" stroke="midnightblue" points="383.85,-254.19 382.04,-243.75 376.95,-253.04 383.85,-254.19"/>
</g>
<!-- Node15&#45;&gt;Node3 -->
<g id="edge31" class="edge">
<title>Node15&#45;&gt;Node3</title>
<path fill="none" stroke="midnightblue" d="M384.8,-224.49C386.8,-211.99 390.98,-187.97 396.5,-168 398.99,-159 402.38,-149.21 405.41,-141.06"/>
<polygon fill="midnightblue" stroke="midnightblue" points="408.76,-142.1 409.06,-131.51 402.22,-139.6 408.76,-142.1"/>
</g>
<!-- Node15&#45;&gt;Node9 -->
<g id="edge33" class="edge">
<title>Node15&#45;&gt;Node9</title>
<path fill="none" stroke="midnightblue" d="M377.63,-224.49C365.84,-207.27 338.58,-166.99 317.5,-132 307.95,-116.15 297.8,-97.66 290.72,-84.46"/>
<polygon fill="midnightblue" stroke="midnightblue" points="293.75,-82.71 285.97,-75.53 287.58,-86 293.75,-82.71"/>
</g>
<!-- Node15&#45;&gt;Node10 -->
<g id="edge32" class="edge">
<title>Node15&#45;&gt;Node10</title>
<path fill="none" stroke="midnightblue" d="M392.58,-224.08C400.67,-216.14 412.7,-204.34 422.41,-194.8"/>
<polygon fill="midnightblue" stroke="midnightblue" points="424.9,-197.25 429.59,-187.75 420,-192.26 424.9,-197.25"/>
</g>
</g>
</svg>
