<?xml version="1.0" encoding="UTF-8" standalone="no"?>
<!DOCTYPE svg PUBLIC "-//W3C//DTD SVG 1.1//EN"
 "http://www.w3.org/Graphics/SVG/1.1/DTD/svg11.dtd">
<!-- Generated by graphviz version 2.43.0 (0)
 -->
<!-- Title: src/Map.cpp Pages: 1 -->
<svg width="495pt" height="196pt"
 viewBox="0.00 0.00 494.50 196.00" xmlns="http://www.w3.org/2000/svg" xmlns:xlink="http://www.w3.org/1999/xlink">
<g id="graph0" class="graph" transform="scale(1 1) rotate(0) translate(4 192)">
<title>src/Map.cpp</title>
<polygon fill="white" stroke="transparent" points="-4,4 -4,-192 490.5,-192 490.5,4 -4,4"/>
<!-- Node1 -->
<g id="node1" class="node">
<title>Node1</title>
<g id="a_node1"><a xlink:title=" ">
<polygon fill="#bfbfbf" stroke="black" points="208.5,-168.5 208.5,-187.5 283.5,-187.5 283.5,-168.5 208.5,-168.5"/>
<text text-anchor="middle" x="246" y="-175.5" font-family="Helvetica,sans-Serif" font-size="10.00">src/Map.cpp</text>
</a>
</g>
</g>
<!-- Node2 -->
<g id="node2" class="node">
<title>Node2</title>
<g id="a_node2"><a xlink:title=" ">
<polygon fill="white" stroke="#bfbfbf" points="0,-56.5 0,-75.5 60,-75.5 60,-56.5 0,-56.5"/>
<text text-anchor="middle" x="30" y="-63.5" font-family="Helvetica,sans-Serif" font-size="10.00">iostream</text>
</a>
</g>
</g>
<!-- Node1&#45;&gt;Node2 -->
<g id="edge1" class="edge">
<title>Node1&#45;&gt;Node2</title>
<path fill="none" stroke="midnightblue" d="M220.73,-168.45C197.44,-160.22 162.17,-146.85 133,-132 103.1,-116.77 70.69,-95.45 50.37,-81.43"/>
<polygon fill="midnightblue" stroke="midnightblue" points="52.14,-78.4 41.94,-75.56 48.14,-84.15 52.14,-78.4"/>
</g>
<!-- Node3 -->
<g id="node3" class="node">
<title>Node3</title>
<g id="a_node3"><a xlink:title=" ">
<polygon fill="white" stroke="#bfbfbf" points="350.5,-112.5 350.5,-131.5 405.5,-131.5 405.5,-112.5 350.5,-112.5"/>
<text text-anchor="middle" x="378" y="-119.5" font-family="Helvetica,sans-Serif" font-size="10.00">fstream</text>
</a>
</g>
</g>
<!-- Node1&#45;&gt;Node3 -->
<g id="edge2" class="edge">
<title>Node1&#45;&gt;Node3</title>
<path fill="none" stroke="midnightblue" d="M266.92,-168.44C288.74,-159.52 323.15,-145.44 347.89,-135.32"/>
<polygon fill="midnightblue" stroke="midnightblue" points="349.25,-138.54 357.18,-131.52 346.6,-132.06 349.25,-138.54"/>
</g>
<!-- Node4 -->
<g id="node4" class="node">
<title>Node4</title>
<g id="a_node4"><a xlink:title=" ">
<polygon fill="white" stroke="#bfbfbf" points="78,-56.5 78,-75.5 136,-75.5 136,-56.5 78,-56.5"/>
<text text-anchor="middle" x="107" y="-63.5" font-family="Helvetica,sans-Serif" font-size="10.00">memory</text>
</a>
</g>
</g>
<!-- Node1&#45;&gt;Node4 -->
<g id="edge3" class="edge">
<title>Node1&#45;&gt;Node4</title>
<path fill="none" stroke="midnightblue" d="M220.96,-168.36C201.55,-160.83 174.73,-148.52 155,-132 138.92,-118.54 125.25,-98.63 116.66,-84.4"/>
<polygon fill="midnightblue" stroke="midnightblue" points="119.6,-82.5 111.56,-75.6 113.55,-86.01 119.6,-82.5"/>
</g>
<!-- Node5 -->
<g id="node5" class="node">
<title>Node5</title>
<g id="a_node5"><a xlink:href="logFile_8h.html" target="_top" xlink:title=" ">
<polygon fill="white" stroke="black" points="274,-112.5 274,-131.5 332,-131.5 332,-112.5 274,-112.5"/>
<text text-anchor="middle" x="303" y="-119.5" font-family="Helvetica,sans-Serif" font-size="10.00">logFile.h</text>
</a>
</g>
</g>
<!-- Node1&#45;&gt;Node5 -->
<g id="edge4" class="edge">
<title>Node1&#45;&gt;Node5</title>
<path fill="none" stroke="midnightblue" d="M255.16,-168.32C263.5,-160.42 276.03,-148.55 286.18,-138.94"/>
<polygon fill="midnightblue" stroke="midnightblue" points="288.82,-141.25 293.68,-131.83 284.01,-136.17 288.82,-141.25"/>
</g>
<!-- Node7 -->
<g id="node7" class="node">
<title>Node7</title>
<g id="a_node7"><a xlink:href="Entity_8h.html" target="_top" xlink:title=" ">
<polygon fill="white" stroke="black" points="164.5,-112.5 164.5,-131.5 217.5,-131.5 217.5,-112.5 164.5,-112.5"/>
<text text-anchor="middle" x="191" y="-119.5" font-family="Helvetica,sans-Serif" font-size="10.00">Entity.h</text>
</a>
</g>
</g>
<!-- Node1&#45;&gt;Node7 -->
<g id="edge6" class="edge">
<title>Node1&#45;&gt;Node7</title>
<path fill="none" stroke="midnightblue" d="M236.92,-168.08C228.83,-160.14 216.8,-148.34 207.09,-138.8"/>
<polygon fill="midnightblue" stroke="midnightblue" points="209.5,-136.26 199.91,-131.75 204.6,-141.25 209.5,-136.26"/>
</g>
<!-- Node9 -->
<g id="node9" class="node">
<title>Node9</title>
<g id="a_node9"><a xlink:href="Map_8h.html" target="_top" xlink:title=" ">
<polygon fill="white" stroke="black" points="245.5,-56.5 245.5,-75.5 292.5,-75.5 292.5,-56.5 245.5,-56.5"/>
<text text-anchor="middle" x="269" y="-63.5" font-family="Helvetica,sans-Serif" font-size="10.00">Map.h</text>
</a>
</g>
</g>
<!-- Node1&#45;&gt;Node9 -->
<g id="edge14" class="edge">
<title>Node1&#45;&gt;Node9</title>
<path fill="none" stroke="midnightblue" d="M247.8,-168.37C251.52,-150.62 260.08,-109.67 265.11,-85.6"/>
<polygon fill="midnightblue" stroke="midnightblue" points="268.58,-86.1 267.2,-75.59 261.73,-84.66 268.58,-86.1"/>
</g>
<!-- Node11 -->
<g id="node11" class="node">
<title>Node11</title>
<g id="a_node11"><a xlink:title=" ">
<polygon fill="white" stroke="#bfbfbf" points="423.5,-112.5 423.5,-131.5 486.5,-131.5 486.5,-112.5 423.5,-112.5"/>
<text text-anchor="middle" x="455" y="-119.5" font-family="Helvetica,sans-Serif" font-size="10.00">ncurses.h</text>
</a>
</g>
</g>
<!-- Node1&#45;&gt;Node11 -->
<g id="edge15" class="edge">
<title>Node1&#45;&gt;Node11</title>
<path fill="none" stroke="midnightblue" d="M279.12,-168.44C315.54,-159.03 374.13,-143.89 413.57,-133.7"/>
<polygon fill="midnightblue" stroke="midnightblue" points="414.6,-137.05 423.41,-131.16 412.85,-130.28 414.6,-137.05"/>
</g>
<!-- Node6 -->
<g id="node6" class="node">
<title>Node6</title>
<g id="a_node6"><a xlink:title=" ">
<polygon fill="white" stroke="#bfbfbf" points="299,-0.5 299,-19.5 343,-19.5 343,-0.5 299,-0.5"/>
<text text-anchor="middle" x="321" y="-7.5" font-family="Helvetica,sans-Serif" font-size="10.00">string</text>
</a>
</g>
</g>
<!-- Node5&#45;&gt;Node6 -->
<g id="edge5" class="edge">
<title>Node5&#45;&gt;Node6</title>
<path fill="none" stroke="midnightblue" d="M304.41,-112.37C307.32,-94.62 314.02,-53.67 317.96,-29.6"/>
<polygon fill="midnightblue" stroke="midnightblue" points="321.43,-30.03 319.59,-19.59 314.53,-28.89 321.43,-30.03"/>
</g>
<!-- Node7&#45;&gt;Node2 -->
<g id="edge12" class="edge">
<title>Node7&#45;&gt;Node2</title>
<path fill="none" stroke="midnightblue" d="M165.49,-112.44C138.4,-103.36 95.41,-88.94 65.13,-78.78"/>
<polygon fill="midnightblue" stroke="midnightblue" points="65.99,-75.38 55.39,-75.52 63.76,-82.01 65.99,-75.38"/>
</g>
<!-- Node7&#45;&gt;Node4 -->
<g id="edge13" class="edge">
<title>Node7&#45;&gt;Node4</title>
<path fill="none" stroke="midnightblue" d="M177.5,-112.32C164.4,-103.9 144.29,-90.97 128.89,-81.07"/>
<polygon fill="midnightblue" stroke="midnightblue" points="130.77,-78.12 120.46,-75.65 126.98,-84.01 130.77,-78.12"/>
</g>
<!-- Node8 -->
<g id="node8" class="node">
<title>Node8</title>
<g id="a_node8"><a xlink:href="constants_8h.html" target="_top" xlink:title=" ">
<polygon fill="white" stroke="black" points="154.5,-56.5 154.5,-75.5 227.5,-75.5 227.5,-56.5 154.5,-56.5"/>
<text text-anchor="middle" x="191" y="-63.5" font-family="Helvetica,sans-Serif" font-size="10.00">constants.h</text>
</a>
</g>
</g>
<!-- Node7&#45;&gt;Node8 -->
<g id="edge7" class="edge">
<title>Node7&#45;&gt;Node8</title>
<path fill="none" stroke="midnightblue" d="M191,-112.08C191,-105.01 191,-94.86 191,-85.99"/>
<polygon fill="midnightblue" stroke="midnightblue" points="194.5,-85.75 191,-75.75 187.5,-85.75 194.5,-85.75"/>
</g>
<!-- Node7&#45;&gt;Node9 -->
<g id="edge8" class="edge">
<title>Node7&#45;&gt;Node9</title>
<path fill="none" stroke="midnightblue" d="M198.42,-112.32C208.76,-103.9 227.14,-90.97 242.66,-81.07"/>
<polygon fill="midnightblue" stroke="midnightblue" points="244.74,-83.9 251.39,-75.65 241.05,-77.96 244.74,-83.9"/>
</g>
<!-- Node9&#45;&gt;Node6 -->
<g id="edge10" class="edge">
<title>Node9&#45;&gt;Node6</title>
<path fill="none" stroke="midnightblue" d="M277.59,-56.08C285.16,-48.22 296.38,-36.57 305.51,-27.08"/>
<polygon fill="midnightblue" stroke="midnightblue" points="308.16,-29.38 312.57,-19.75 303.12,-24.53 308.16,-29.38"/>
</g>
<!-- Node9&#45;&gt;Node7 -->
<g id="edge11" class="edge">
<title>Node9&#45;&gt;Node7</title>
<path fill="none" stroke="midnightblue" d="M261.39,-75.83C251.01,-84.26 232.75,-97.1 217.32,-106.94"/>
<polygon fill="midnightblue" stroke="midnightblue" points="215.3,-104.07 208.65,-112.32 218.99,-110.02 215.3,-104.07"/>
</g>
<!-- Node10 -->
<g id="node10" class="node">
<title>Node10</title>
<g id="a_node10"><a xlink:title=" ">
<polygon fill="white" stroke="#bfbfbf" points="233.5,-0.5 233.5,-19.5 280.5,-19.5 280.5,-0.5 233.5,-0.5"/>
<text text-anchor="middle" x="257" y="-7.5" font-family="Helvetica,sans-Serif" font-size="10.00">vector</text>
</a>
</g>
</g>
<!-- Node9&#45;&gt;Node10 -->
<g id="edge9" class="edge">
<title>Node9&#45;&gt;Node10</title>
<path fill="none" stroke="midnightblue" d="M267.02,-56.08C265.43,-48.93 263.14,-38.64 261.15,-29.69"/>
<polygon fill="midnightblue" stroke="midnightblue" points="264.53,-28.75 258.94,-19.75 257.7,-30.27 264.53,-28.75"/>
</g>
</g>
</svg>
