<?xml version="1.0" encoding="UTF-8" standalone="no"?>
<!DOCTYPE svg PUBLIC "-//W3C//DTD SVG 1.1//EN"
 "http://www.w3.org/Graphics/SVG/1.1/DTD/svg11.dtd">
<!-- Generated by graphviz version 2.43.0 (0)
 -->
<!-- Title: src/Map.h Pages: 1 -->
<svg width="734pt" height="140pt"
 viewBox="0.00 0.00 734.00 140.00" xmlns="http://www.w3.org/2000/svg" xmlns:xlink="http://www.w3.org/1999/xlink">
<g id="graph0" class="graph" transform="scale(1 1) rotate(0) translate(4 136)">
<title>src/Map.h</title>
<polygon fill="white" stroke="transparent" points="-4,4 -4,-136 730,-136 730,4 -4,4"/>
<!-- Node1 -->
<g id="node1" class="node">
<title>Node1</title>
<g id="a_node1"><a xlink:title=" ">
<polygon fill="#bfbfbf" stroke="black" points="250,-112.5 250,-131.5 314,-131.5 314,-112.5 250,-112.5"/>
<text text-anchor="middle" x="282" y="-119.5" font-family="Helvetica,sans-Serif" font-size="10.00">src/Map.h</text>
</a>
</g>
</g>
<!-- Node2 -->
<g id="node2" class="node">
<title>Node2</title>
<g id="a_node2"><a xlink:title=" ">
<polygon fill="white" stroke="#bfbfbf" points="113.5,-56.5 113.5,-75.5 160.5,-75.5 160.5,-56.5 113.5,-56.5"/>
<text text-anchor="middle" x="137" y="-63.5" font-family="Helvetica,sans-Serif" font-size="10.00">vector</text>
</a>
</g>
</g>
<!-- Node1&#45;&gt;Node2 -->
<g id="edge1" class="edge">
<title>Node1&#45;&gt;Node2</title>
<path fill="none" stroke="midnightblue" d="M259.02,-112.44C234.84,-103.44 196.58,-89.19 169.35,-79.05"/>
<polygon fill="midnightblue" stroke="midnightblue" points="170.46,-75.73 159.87,-75.52 168.02,-82.29 170.46,-75.73"/>
</g>
<!-- Node3 -->
<g id="node3" class="node">
<title>Node3</title>
<g id="a_node3"><a xlink:title=" ">
<polygon fill="white" stroke="#bfbfbf" points="478,-0.5 478,-19.5 522,-19.5 522,-0.5 478,-0.5"/>
<text text-anchor="middle" x="500" y="-7.5" font-family="Helvetica,sans-Serif" font-size="10.00">string</text>
</a>
</g>
</g>
<!-- Node1&#45;&gt;Node3 -->
<g id="edge2" class="edge">
<title>Node1&#45;&gt;Node3</title>
<path fill="none" stroke="midnightblue" d="M293.52,-112.35C311.64,-99.01 348.22,-73.17 382,-56 410.05,-41.74 443.73,-29.33 467.91,-21.17"/>
<polygon fill="midnightblue" stroke="midnightblue" points="469.26,-24.41 477.65,-17.94 467.06,-17.77 469.26,-24.41"/>
</g>
<!-- Node4 -->
<g id="node4" class="node">
<title>Node4</title>
<g id="a_node4"><a xlink:title=" ">
<polygon fill="white" stroke="#bfbfbf" points="0,-0.5 0,-19.5 58,-19.5 58,-0.5 0,-0.5"/>
<text text-anchor="middle" x="29" y="-7.5" font-family="Helvetica,sans-Serif" font-size="10.00">memory</text>
</a>
</g>
</g>
<!-- Node1&#45;&gt;Node4 -->
<g id="edge3" class="edge">
<title>Node1&#45;&gt;Node4</title>
<path fill="none" stroke="midnightblue" d="M266.79,-112.49C250.83,-103.53 225.05,-88.96 203,-76 188.21,-67.31 185.61,-63.1 170,-56 136.63,-40.82 96.66,-28.58 67.81,-20.72"/>
<polygon fill="midnightblue" stroke="midnightblue" points="68.66,-17.33 58.1,-18.13 66.86,-24.09 68.66,-17.33"/>
</g>
<!-- Node5 -->
<g id="node5" class="node">
<title>Node5</title>
<g id="a_node5"><a xlink:title=" ">
<polygon fill="white" stroke="#bfbfbf" points="76.5,-0.5 76.5,-19.5 139.5,-19.5 139.5,-0.5 76.5,-0.5"/>
<text text-anchor="middle" x="108" y="-7.5" font-family="Helvetica,sans-Serif" font-size="10.00">ncurses.h</text>
</a>
</g>
</g>
<!-- Node1&#45;&gt;Node5 -->
<g id="edge4" class="edge">
<title>Node1&#45;&gt;Node5</title>
<path fill="none" stroke="midnightblue" d="M272.85,-112.19C258.71,-98.87 230.29,-73.32 203,-56 182.79,-43.18 158.36,-31.68 139.33,-23.52"/>
<polygon fill="midnightblue" stroke="midnightblue" points="140.5,-20.22 129.92,-19.57 137.79,-26.67 140.5,-20.22"/>
</g>
<!-- Node6 -->
<g id="node6" class="node">
<title>Node6</title>
<g id="a_node6"><a xlink:title=" ">
<polygon fill="white" stroke="#bfbfbf" points="487.5,-56.5 487.5,-75.5 552.5,-75.5 552.5,-56.5 487.5,-56.5"/>
<text text-anchor="middle" x="520" y="-63.5" font-family="Helvetica,sans-Serif" font-size="10.00">functional</text>
</a>
</g>
</g>
<!-- Node1&#45;&gt;Node6 -->
<g id="edge5" class="edge">
<title>Node1&#45;&gt;Node6</title>
<path fill="none" stroke="midnightblue" d="M314.1,-113.72C356.3,-104.14 430.56,-87.29 477.42,-76.66"/>
<polygon fill="midnightblue" stroke="midnightblue" points="478.29,-80.05 487.27,-74.43 476.74,-73.23 478.29,-80.05"/>
</g>
<!-- Node7 -->
<g id="node7" class="node">
<title>Node7</title>
<g id="a_node7"><a xlink:title=" ">
<polygon fill="white" stroke="#bfbfbf" points="570.5,-56.5 570.5,-75.5 617.5,-75.5 617.5,-56.5 570.5,-56.5"/>
<text text-anchor="middle" x="594" y="-63.5" font-family="Helvetica,sans-Serif" font-size="10.00">cmath</text>
</a>
</g>
</g>
<!-- Node1&#45;&gt;Node7 -->
<g id="edge6" class="edge">
<title>Node1&#45;&gt;Node7</title>
<path fill="none" stroke="midnightblue" d="M314.14,-117.06C364.65,-110.59 465.82,-96.59 560.31,-76.18"/>
<polygon fill="midnightblue" stroke="midnightblue" points="561.29,-79.55 570.31,-73.99 559.79,-72.71 561.29,-79.55"/>
</g>
<!-- Node8 -->
<g id="node8" class="node">
<title>Node8</title>
<g id="a_node8"><a xlink:href="Entity_8h.html" target="_top" xlink:title=" ">
<polygon fill="white" stroke="black" points="255.5,-56.5 255.5,-75.5 308.5,-75.5 308.5,-56.5 255.5,-56.5"/>
<text text-anchor="middle" x="282" y="-63.5" font-family="Helvetica,sans-Serif" font-size="10.00">Entity.h</text>
</a>
</g>
</g>
<!-- Node1&#45;&gt;Node8 -->
<g id="edge7" class="edge">
<title>Node1&#45;&gt;Node8</title>
<path fill="none" stroke="midnightblue" d="M276.83,-112.08C275.32,-104.93 274.89,-94.64 275.54,-85.69"/>
<polygon fill="midnightblue" stroke="midnightblue" points="279.02,-86.13 276.87,-75.75 272.08,-85.2 279.02,-86.13"/>
</g>
<!-- Node13 -->
<g id="node13" class="node">
<title>Node13</title>
<g id="a_node13"><a xlink:href="Definitions_8h.html" target="_top" xlink:title=" ">
<polygon fill="white" stroke="black" points="391,-56.5 391,-75.5 469,-75.5 469,-56.5 391,-56.5"/>
<text text-anchor="middle" x="430" y="-63.5" font-family="Helvetica,sans-Serif" font-size="10.00">Definitions.h</text>
</a>
</g>
</g>
<!-- Node1&#45;&gt;Node13 -->
<g id="edge15" class="edge">
<title>Node1&#45;&gt;Node13</title>
<path fill="none" stroke="midnightblue" d="M305.45,-112.44C330.13,-103.44 369.19,-89.19 396.98,-79.05"/>
<polygon fill="midnightblue" stroke="midnightblue" points="398.46,-82.23 406.66,-75.52 396.06,-75.66 398.46,-82.23"/>
</g>
<!-- Node8&#45;&gt;Node1 -->
<g id="edge9" class="edge">
<title>Node8&#45;&gt;Node1</title>
<path fill="none" stroke="midnightblue" d="M287.13,-75.75C288.66,-82.86 289.1,-93.14 288.47,-102.1"/>
<polygon fill="midnightblue" stroke="midnightblue" points="284.99,-101.71 287.17,-112.08 291.93,-102.62 284.99,-101.71"/>
</g>
<!-- Node8&#45;&gt;Node4 -->
<g id="edge13" class="edge">
<title>Node8&#45;&gt;Node4</title>
<path fill="none" stroke="midnightblue" d="M255.27,-59.55C216.48,-51.61 142.05,-36.23 68.3,-20.03"/>
<polygon fill="midnightblue" stroke="midnightblue" points="68.89,-16.58 58.37,-17.84 67.39,-23.41 68.89,-16.58"/>
</g>
<!-- Node8&#45;&gt;Node5 -->
<g id="edge10" class="edge">
<title>Node8&#45;&gt;Node5</title>
<path fill="none" stroke="midnightblue" d="M255.19,-56.68C225.73,-47.54 178.21,-32.79 145.17,-22.53"/>
<polygon fill="midnightblue" stroke="midnightblue" points="146,-19.13 135.41,-19.51 143.92,-25.81 146,-19.13"/>
</g>
<!-- Node9 -->
<g id="node9" class="node">
<title>Node9</title>
<g id="a_node9"><a xlink:href="constants_8h.html" target="_top" xlink:title=" ">
<polygon fill="white" stroke="black" points="308.5,-0.5 308.5,-19.5 381.5,-19.5 381.5,-0.5 308.5,-0.5"/>
<text text-anchor="middle" x="345" y="-7.5" font-family="Helvetica,sans-Serif" font-size="10.00">constants.h</text>
</a>
</g>
</g>
<!-- Node8&#45;&gt;Node9 -->
<g id="edge8" class="edge">
<title>Node8&#45;&gt;Node9</title>
<path fill="none" stroke="midnightblue" d="M292.12,-56.32C301.53,-48.26 315.74,-36.08 327.07,-26.37"/>
<polygon fill="midnightblue" stroke="midnightblue" points="329.38,-29 334.69,-19.83 324.82,-23.68 329.38,-29"/>
</g>
<!-- Node10 -->
<g id="node10" class="node">
<title>Node10</title>
<g id="a_node10"><a xlink:href="HelpStructs_8h.html" target="_top" xlink:title=" ">
<polygon fill="white" stroke="black" points="158,-0.5 158,-19.5 240,-19.5 240,-0.5 158,-0.5"/>
<text text-anchor="middle" x="199" y="-7.5" font-family="Helvetica,sans-Serif" font-size="10.00">HelpStructs.h</text>
</a>
</g>
</g>
<!-- Node8&#45;&gt;Node10 -->
<g id="edge11" class="edge">
<title>Node8&#45;&gt;Node10</title>
<path fill="none" stroke="midnightblue" d="M268.66,-56.32C255.84,-47.98 236.22,-35.21 221.06,-25.35"/>
<polygon fill="midnightblue" stroke="midnightblue" points="222.59,-22.17 212.3,-19.65 218.78,-28.04 222.59,-22.17"/>
</g>
<!-- Node11 -->
<g id="node11" class="node">
<title>Node11</title>
<g id="a_node11"><a xlink:title=" ">
<polygon fill="white" stroke="#bfbfbf" points="400,-0.5 400,-19.5 460,-19.5 460,-0.5 400,-0.5"/>
<text text-anchor="middle" x="430" y="-7.5" font-family="Helvetica,sans-Serif" font-size="10.00">iostream</text>
</a>
</g>
</g>
<!-- Node8&#45;&gt;Node11 -->
<g id="edge12" class="edge">
<title>Node8&#45;&gt;Node11</title>
<path fill="none" stroke="midnightblue" d="M305.45,-56.44C330.13,-47.44 369.19,-33.19 396.98,-23.05"/>
<polygon fill="midnightblue" stroke="midnightblue" points="398.46,-26.23 406.66,-19.52 396.06,-19.66 398.46,-26.23"/>
</g>
<!-- Node12 -->
<g id="node12" class="node">
<title>Node12</title>
<g id="a_node12"><a xlink:title=" ">
<polygon fill="white" stroke="#bfbfbf" points="258,-0.5 258,-19.5 290,-19.5 290,-0.5 258,-0.5"/>
<text text-anchor="middle" x="274" y="-7.5" font-family="Helvetica,sans-Serif" font-size="10.00">set</text>
</a>
</g>
</g>
<!-- Node8&#45;&gt;Node12 -->
<g id="edge14" class="edge">
<title>Node8&#45;&gt;Node12</title>
<path fill="none" stroke="midnightblue" d="M280.68,-56.08C279.62,-48.93 278.09,-38.64 276.77,-29.69"/>
<polygon fill="midnightblue" stroke="midnightblue" points="280.22,-29.13 275.3,-19.75 273.3,-30.16 280.22,-29.13"/>
</g>
<!-- Node13&#45;&gt;Node3 -->
<g id="edge18" class="edge">
<title>Node13&#45;&gt;Node3</title>
<path fill="none" stroke="midnightblue" d="M441.25,-56.32C451.8,-48.18 467.8,-35.84 480.44,-26.09"/>
<polygon fill="midnightblue" stroke="midnightblue" points="482.77,-28.71 488.55,-19.83 478.49,-23.17 482.77,-28.71"/>
</g>
<!-- Node13&#45;&gt;Node9 -->
<g id="edge21" class="edge">
<title>Node13&#45;&gt;Node9</title>
<path fill="none" stroke="midnightblue" d="M416.34,-56.32C403.08,-47.9 382.73,-34.97 367.15,-25.07"/>
<polygon fill="midnightblue" stroke="midnightblue" points="368.94,-22.06 358.62,-19.65 365.19,-27.97 368.94,-22.06"/>
</g>
<!-- Node13&#45;&gt;Node11 -->
<g id="edge20" class="edge">
<title>Node13&#45;&gt;Node11</title>
<path fill="none" stroke="midnightblue" d="M430,-56.08C430,-49.01 430,-38.86 430,-29.99"/>
<polygon fill="midnightblue" stroke="midnightblue" points="433.5,-29.75 430,-19.75 426.5,-29.75 433.5,-29.75"/>
</g>
<!-- Node14 -->
<g id="node14" class="node">
<title>Node14</title>
<g id="a_node14"><a xlink:title=" ">
<polygon fill="white" stroke="#bfbfbf" points="540.5,-0.5 540.5,-19.5 595.5,-19.5 595.5,-0.5 540.5,-0.5"/>
<text text-anchor="middle" x="568" y="-7.5" font-family="Helvetica,sans-Serif" font-size="10.00">fstream</text>
</a>
</g>
</g>
<!-- Node13&#45;&gt;Node14 -->
<g id="edge16" class="edge">
<title>Node13&#45;&gt;Node14</title>
<path fill="none" stroke="midnightblue" d="M451.87,-56.44C474.78,-47.48 510.98,-33.31 536.87,-23.18"/>
<polygon fill="midnightblue" stroke="midnightblue" points="538.2,-26.42 546.24,-19.52 535.65,-19.9 538.2,-26.42"/>
</g>
<!-- Node15 -->
<g id="node15" class="node">
<title>Node15</title>
<g id="a_node15"><a xlink:title=" ">
<polygon fill="white" stroke="#bfbfbf" points="614,-0.5 614,-19.5 652,-19.5 652,-0.5 614,-0.5"/>
<text text-anchor="middle" x="633" y="-7.5" font-family="Helvetica,sans-Serif" font-size="10.00">map</text>
</a>
</g>
</g>
<!-- Node13&#45;&gt;Node15 -->
<g id="edge17" class="edge">
<title>Node13&#45;&gt;Node15</title>
<path fill="none" stroke="midnightblue" d="M465.7,-56.48C499.17,-48.34 550.82,-35.42 604.15,-20.13"/>
<polygon fill="midnightblue" stroke="midnightblue" points="605.13,-23.49 613.77,-17.35 603.19,-16.76 605.13,-23.49"/>
</g>
<!-- Node16 -->
<g id="node16" class="node">
<title>Node16</title>
<g id="a_node16"><a xlink:title=" ">
<polygon fill="white" stroke="#bfbfbf" points="670,-0.5 670,-19.5 726,-19.5 726,-0.5 670,-0.5"/>
<text text-anchor="middle" x="698" y="-7.5" font-family="Helvetica,sans-Serif" font-size="10.00">sstream</text>
</a>
</g>
</g>
<!-- Node13&#45;&gt;Node16 -->
<g id="edge19" class="edge">
<title>Node13&#45;&gt;Node16</title>
<path fill="none" stroke="midnightblue" d="M469.03,-57.62C521.09,-47.75 611.5,-30.46 659.82,-20.16"/>
<polygon fill="midnightblue" stroke="midnightblue" points="660.72,-23.55 669.75,-18.01 659.24,-16.71 660.72,-23.55"/>
</g>
</g>
</svg>
