<?xml version="1.0" encoding="UTF-8" standalone="no"?>
<!DOCTYPE svg PUBLIC "-//W3C//DTD SVG 1.1//EN"
 "http://www.w3.org/Graphics/SVG/1.1/DTD/svg11.dtd">
<!-- Generated by graphviz version 2.43.0 (0)
 -->
<!-- Title: src/Map.cpp Pages: 1 -->
<svg width="448pt" height="140pt"
 viewBox="0.00 0.00 447.97 140.00" xmlns="http://www.w3.org/2000/svg" xmlns:xlink="http://www.w3.org/1999/xlink">
<g id="graph0" class="graph" transform="scale(1 1) rotate(0) translate(4 136)">
<title>src/Map.cpp</title>
<polygon fill="white" stroke="transparent" points="-4,4 -4,-136 443.97,-136 443.97,4 -4,4"/>
<!-- Node1 -->
<g id="node1" class="node">
<title>Node1</title>
<g id="a_node1"><a xlink:title=" ">
<polygon fill="#bfbfbf" stroke="black" points="152.97,-112.5 152.97,-131.5 227.97,-131.5 227.97,-112.5 152.97,-112.5"/>
<text text-anchor="middle" x="190.47" y="-119.5" font-family="Helvetica,sans-Serif" font-size="10.00">src/Map.cpp</text>
</a>
</g>
</g>
<!-- Node2 -->
<g id="node2" class="node">
<title>Node2</title>
<g id="a_node2"><a xlink:title=" ">
<polygon fill="white" stroke="#bfbfbf" points="15.47,-0.5 15.47,-19.5 75.47,-19.5 75.47,-0.5 15.47,-0.5"/>
<text text-anchor="middle" x="45.47" y="-7.5" font-family="Helvetica,sans-Serif" font-size="10.00">iostream</text>
</a>
</g>
</g>
<!-- Node1&#45;&gt;Node2 -->
<g id="edge1" class="edge">
<title>Node1&#45;&gt;Node2</title>
<path fill="none" stroke="midnightblue" d="M152.63,-117.29C103.69,-111.63 22.55,-98.98 4.47,-76 -8.24,-59.84 9.21,-39.58 25.12,-26.01"/>
<polygon fill="midnightblue" stroke="midnightblue" points="27.52,-28.57 33.13,-19.58 23.14,-23.11 27.52,-28.57"/>
</g>
<!-- Node3 -->
<g id="node3" class="node">
<title>Node3</title>
<g id="a_node3"><a xlink:title=" ">
<polygon fill="white" stroke="#bfbfbf" points="13.97,-56.5 13.97,-75.5 68.97,-75.5 68.97,-56.5 13.97,-56.5"/>
<text text-anchor="middle" x="41.47" y="-63.5" font-family="Helvetica,sans-Serif" font-size="10.00">fstream</text>
</a>
</g>
</g>
<!-- Node1&#45;&gt;Node3 -->
<g id="edge2" class="edge">
<title>Node1&#45;&gt;Node3</title>
<path fill="none" stroke="midnightblue" d="M166.86,-112.44C142.01,-103.44 102.7,-89.19 74.72,-79.05"/>
<polygon fill="midnightblue" stroke="midnightblue" points="75.57,-75.63 64.97,-75.52 73.18,-82.21 75.57,-75.63"/>
</g>
<!-- Node4 -->
<g id="node4" class="node">
<title>Node4</title>
<g id="a_node4"><a xlink:title=" ">
<polygon fill="white" stroke="#bfbfbf" points="87.47,-56.5 87.47,-75.5 145.47,-75.5 145.47,-56.5 87.47,-56.5"/>
<text text-anchor="middle" x="116.47" y="-63.5" font-family="Helvetica,sans-Serif" font-size="10.00">memory</text>
</a>
</g>
</g>
<!-- Node1&#45;&gt;Node4 -->
<g id="edge3" class="edge">
<title>Node1&#45;&gt;Node4</title>
<path fill="none" stroke="midnightblue" d="M178.58,-112.32C167.32,-104.11 150.19,-91.6 136.76,-81.81"/>
<polygon fill="midnightblue" stroke="midnightblue" points="138.72,-78.9 128.58,-75.83 134.59,-84.56 138.72,-78.9"/>
</g>
<!-- Node5 -->
<g id="node5" class="node">
<title>Node5</title>
<g id="a_node5"><a xlink:href="logFile_8h.html" target="_top" xlink:title=" ">
<polygon fill="white" stroke="black" points="235.47,-56.5 235.47,-75.5 293.47,-75.5 293.47,-56.5 235.47,-56.5"/>
<text text-anchor="middle" x="264.47" y="-63.5" font-family="Helvetica,sans-Serif" font-size="10.00">logFile.h</text>
</a>
</g>
</g>
<!-- Node1&#45;&gt;Node5 -->
<g id="edge4" class="edge">
<title>Node1&#45;&gt;Node5</title>
<path fill="none" stroke="midnightblue" d="M202.36,-112.32C213.62,-104.11 230.76,-91.6 244.18,-81.81"/>
<polygon fill="midnightblue" stroke="midnightblue" points="246.35,-84.56 252.37,-75.83 242.23,-78.9 246.35,-84.56"/>
</g>
<!-- Node7 -->
<g id="node7" class="node">
<title>Node7</title>
<g id="a_node7"><a xlink:href="Entity_8h.html" target="_top" xlink:title=" ">
<polygon fill="white" stroke="black" points="163.97,-56.5 163.97,-75.5 216.97,-75.5 216.97,-56.5 163.97,-56.5"/>
<text text-anchor="middle" x="190.47" y="-63.5" font-family="Helvetica,sans-Serif" font-size="10.00">Entity.h</text>
</a>
</g>
</g>
<!-- Node1&#45;&gt;Node7 -->
<g id="edge6" class="edge">
<title>Node1&#45;&gt;Node7</title>
<path fill="none" stroke="midnightblue" d="M190.47,-112.08C190.47,-105.01 190.47,-94.86 190.47,-85.99"/>
<polygon fill="midnightblue" stroke="midnightblue" points="193.97,-85.75 190.47,-75.75 186.97,-85.75 193.97,-85.75"/>
</g>
<!-- Node9 -->
<g id="node9" class="node">
<title>Node9</title>
<g id="a_node9"><a xlink:href="Map_8h.html" target="_top" xlink:title=" ">
<polygon fill="white" stroke="black" points="311.97,-56.5 311.97,-75.5 358.97,-75.5 358.97,-56.5 311.97,-56.5"/>
<text text-anchor="middle" x="335.47" y="-63.5" font-family="Helvetica,sans-Serif" font-size="10.00">Map.h</text>
</a>
</g>
</g>
<!-- Node1&#45;&gt;Node9 -->
<g id="edge9" class="edge">
<title>Node1&#45;&gt;Node9</title>
<path fill="none" stroke="midnightblue" d="M213.45,-112.44C237.63,-103.44 275.89,-89.19 303.12,-79.05"/>
<polygon fill="midnightblue" stroke="midnightblue" points="304.45,-82.29 312.6,-75.52 302.01,-75.73 304.45,-82.29"/>
</g>
<!-- Node11 -->
<g id="node11" class="node">
<title>Node11</title>
<g id="a_node11"><a xlink:title=" ">
<polygon fill="white" stroke="#bfbfbf" points="376.97,-56.5 376.97,-75.5 439.97,-75.5 439.97,-56.5 376.97,-56.5"/>
<text text-anchor="middle" x="408.47" y="-63.5" font-family="Helvetica,sans-Serif" font-size="10.00">ncurses.h</text>
</a>
</g>
</g>
<!-- Node1&#45;&gt;Node11 -->
<g id="edge12" class="edge">
<title>Node1&#45;&gt;Node11</title>
<path fill="none" stroke="midnightblue" d="M225.02,-112.44C263.61,-102.88 326.07,-87.41 367.21,-77.22"/>
<polygon fill="midnightblue" stroke="midnightblue" points="368.06,-80.62 376.92,-74.82 366.37,-73.82 368.06,-80.62"/>
</g>
<!-- Node6 -->
<g id="node6" class="node">
<title>Node6</title>
<g id="a_node6"><a xlink:title=" ">
<polygon fill="white" stroke="#bfbfbf" points="247.47,-0.5 247.47,-19.5 291.47,-19.5 291.47,-0.5 247.47,-0.5"/>
<text text-anchor="middle" x="269.47" y="-7.5" font-family="Helvetica,sans-Serif" font-size="10.00">string</text>
</a>
</g>
</g>
<!-- Node5&#45;&gt;Node6 -->
<g id="edge5" class="edge">
<title>Node5&#45;&gt;Node6</title>
<path fill="none" stroke="midnightblue" d="M265.3,-56.08C265.95,-49.01 266.89,-38.86 267.71,-29.99"/>
<polygon fill="midnightblue" stroke="midnightblue" points="271.23,-30.03 268.66,-19.75 264.26,-29.39 271.23,-30.03"/>
</g>
<!-- Node7&#45;&gt;Node2 -->
<g id="edge8" class="edge">
<title>Node7&#45;&gt;Node2</title>
<path fill="none" stroke="midnightblue" d="M167.5,-56.44C143.32,-47.44 105.05,-33.19 77.83,-23.05"/>
<polygon fill="midnightblue" stroke="midnightblue" points="78.93,-19.73 68.34,-19.52 76.49,-26.29 78.93,-19.73"/>
</g>
<!-- Node8 -->
<g id="node8" class="node">
<title>Node8</title>
<g id="a_node8"><a xlink:href="constants_8h.html" target="_top" xlink:title=" ">
<polygon fill="white" stroke="black" points="153.97,-0.5 153.97,-19.5 226.97,-19.5 226.97,-0.5 153.97,-0.5"/>
<text text-anchor="middle" x="190.47" y="-7.5" font-family="Helvetica,sans-Serif" font-size="10.00">constants.h</text>
</a>
</g>
</g>
<!-- Node7&#45;&gt;Node8 -->
<g id="edge7" class="edge">
<title>Node7&#45;&gt;Node8</title>
<path fill="none" stroke="midnightblue" d="M190.47,-56.08C190.47,-49.01 190.47,-38.86 190.47,-29.99"/>
<polygon fill="midnightblue" stroke="midnightblue" points="193.97,-29.75 190.47,-19.75 186.97,-29.75 193.97,-29.75"/>
</g>
<!-- Node9&#45;&gt;Node6 -->
<g id="edge11" class="edge">
<title>Node9&#45;&gt;Node6</title>
<path fill="none" stroke="midnightblue" d="M324.87,-56.32C315.02,-48.26 300.12,-36.08 288.26,-26.37"/>
<polygon fill="midnightblue" stroke="midnightblue" points="290.23,-23.46 280.27,-19.83 285.79,-28.88 290.23,-23.46"/>
</g>
<!-- Node10 -->
<g id="node10" class="node">
<title>Node10</title>
<g id="a_node10"><a xlink:title=" ">
<polygon fill="white" stroke="#bfbfbf" points="311.97,-0.5 311.97,-19.5 358.97,-19.5 358.97,-0.5 311.97,-0.5"/>
<text text-anchor="middle" x="335.47" y="-7.5" font-family="Helvetica,sans-Serif" font-size="10.00">vector</text>
</a>
</g>
</g>
<!-- Node9&#45;&gt;Node10 -->
<g id="edge10" class="edge">
<title>Node9&#45;&gt;Node10</title>
<path fill="none" stroke="midnightblue" d="M335.47,-56.08C335.47,-49.01 335.47,-38.86 335.47,-29.99"/>
<polygon fill="midnightblue" stroke="midnightblue" points="338.97,-29.75 335.47,-19.75 331.97,-29.75 338.97,-29.75"/>
</g>
</g>
</svg>
