<?xml version="1.0" encoding="UTF-8" standalone="no"?>
<!DOCTYPE svg PUBLIC "-//W3C//DTD SVG 1.1//EN"
 "http://www.w3.org/Graphics/SVG/1.1/DTD/svg11.dtd">
<!-- Generated by graphviz version 2.43.0 (0)
 -->
<!-- Title: src/Map.h Pages: 1 -->
<svg width="775pt" height="364pt"
 viewBox="0.00 0.00 775.00 364.00" xmlns="http://www.w3.org/2000/svg" xmlns:xlink="http://www.w3.org/1999/xlink">
<g id="graph0" class="graph" transform="scale(1 1) rotate(0) translate(4 360)">
<title>src/Map.h</title>
<polygon fill="white" stroke="transparent" points="-4,4 -4,-360 771,-360 771,4 -4,4"/>
<!-- Node1 -->
<g id="node1" class="node">
<title>Node1</title>
<g id="a_node1"><a xlink:title=" ">
<polygon fill="#bfbfbf" stroke="black" points="388,-336.5 388,-355.5 452,-355.5 452,-336.5 388,-336.5"/>
<text text-anchor="middle" x="420" y="-343.5" font-family="Helvetica,sans-Serif" font-size="10.00">src/Map.h</text>
</a>
</g>
</g>
<!-- Node2 -->
<g id="node2" class="node">
<title>Node2</title>
<g id="a_node2"><a xlink:href="Entity_8h.html" target="_top" xlink:title=" ">
<polygon fill="white" stroke="black" points="417,-280.5 417,-299.5 487,-299.5 487,-280.5 417,-280.5"/>
<text text-anchor="middle" x="452" y="-287.5" font-family="Helvetica,sans-Serif" font-size="10.00">src/Entity.h</text>
</a>
</g>
</g>
<!-- Node1&#45;&gt;Node2 -->
<g id="edge1" class="edge">
<title>Node1&#45;&gt;Node2</title>
<path fill="none" stroke="midnightblue" d="M424.27,-326.98C428.98,-317.82 435.76,-307.09 441.68,-299.75"/>
<polygon fill="midnightblue" stroke="midnightblue" points="421.09,-325.53 420.12,-336.08 427.45,-328.44 421.09,-325.53"/>
</g>
<!-- Node3 -->
<g id="node3" class="node">
<title>Node3</title>
<g id="a_node3"><a xlink:href="Attacker_8h.html" target="_top" xlink:title=" ">
<polygon fill="white" stroke="black" points="347.5,-224.5 347.5,-243.5 430.5,-243.5 430.5,-224.5 347.5,-224.5"/>
<text text-anchor="middle" x="389" y="-231.5" font-family="Helvetica,sans-Serif" font-size="10.00">src/Attacker.h</text>
</a>
</g>
</g>
<!-- Node1&#45;&gt;Node3 -->
<g id="edge24" class="edge">
<title>Node1&#45;&gt;Node3</title>
<path fill="none" stroke="midnightblue" d="M414.84,-326.67C408.06,-302.62 396.44,-261.39 391.42,-243.59"/>
<polygon fill="midnightblue" stroke="midnightblue" points="411.49,-327.69 417.57,-336.37 418.22,-325.79 411.49,-327.69"/>
</g>
<!-- Node4 -->
<g id="node4" class="node">
<title>Node4</title>
<g id="a_node4"><a xlink:href="Attacker_8cpp.html" target="_top" xlink:title=" ">
<polygon fill="white" stroke="black" points="475,-168.5 475,-187.5 569,-187.5 569,-168.5 475,-168.5"/>
<text text-anchor="middle" x="522" y="-175.5" font-family="Helvetica,sans-Serif" font-size="10.00">src/Attacker.cpp</text>
</a>
</g>
</g>
<!-- Node1&#45;&gt;Node4 -->
<g id="edge25" class="edge">
<title>Node1&#45;&gt;Node4</title>
<path fill="none" stroke="midnightblue" d="M462.38,-344.59C528.28,-341.37 653.59,-324.35 710,-244 746.11,-192.56 635.86,-181.41 569.1,-179.26"/>
<polygon fill="midnightblue" stroke="midnightblue" points="462.18,-341.09 452.33,-344.99 462.47,-348.09 462.18,-341.09"/>
</g>
<!-- Node5 -->
<g id="node5" class="node">
<title>Node5</title>
<g id="a_node5"><a xlink:href="Player_8h.html" target="_top" xlink:title=" ">
<polygon fill="white" stroke="black" points="215.5,-168.5 215.5,-187.5 288.5,-187.5 288.5,-168.5 215.5,-168.5"/>
<text text-anchor="middle" x="252" y="-175.5" font-family="Helvetica,sans-Serif" font-size="10.00">src/Player.h</text>
</a>
</g>
</g>
<!-- Node1&#45;&gt;Node5 -->
<g id="edge26" class="edge">
<title>Node1&#45;&gt;Node5</title>
<path fill="none" stroke="midnightblue" d="M398.85,-330.44C373.06,-312.08 328.99,-278.72 297,-244 280.08,-225.63 264.47,-200.53 256.86,-187.55"/>
<polygon fill="midnightblue" stroke="midnightblue" points="396.96,-333.39 407.15,-336.28 400.99,-327.66 396.96,-333.39"/>
</g>
<!-- Node6 -->
<g id="node6" class="node">
<title>Node6</title>
<g id="a_node6"><a xlink:href="Enemy_8h.html" target="_top" xlink:title=" ">
<polygon fill="white" stroke="black" points="167.5,-112.5 167.5,-131.5 242.5,-131.5 242.5,-112.5 167.5,-112.5"/>
<text text-anchor="middle" x="205" y="-119.5" font-family="Helvetica,sans-Serif" font-size="10.00">src/Enemy.h</text>
</a>
</g>
</g>
<!-- Node1&#45;&gt;Node6 -->
<g id="edge27" class="edge">
<title>Node1&#45;&gt;Node6</title>
<path fill="none" stroke="midnightblue" d="M386.13,-332.62C335.2,-311.85 241.1,-264.58 206,-188 197.54,-169.53 200.48,-144.9 202.97,-131.9"/>
<polygon fill="midnightblue" stroke="midnightblue" points="385.13,-335.98 395.72,-336.42 387.71,-329.48 385.13,-335.98"/>
</g>
<!-- Node7 -->
<g id="node7" class="node">
<title>Node7</title>
<g id="a_node7"><a xlink:href="Enemy_8cpp.html" target="_top" xlink:title=" ">
<polygon fill="white" stroke="black" points="44,-56.5 44,-75.5 130,-75.5 130,-56.5 44,-56.5"/>
<text text-anchor="middle" x="87" y="-63.5" font-family="Helvetica,sans-Serif" font-size="10.00">src/Enemy.cpp</text>
</a>
</g>
</g>
<!-- Node1&#45;&gt;Node7 -->
<g id="edge28" class="edge">
<title>Node1&#45;&gt;Node7</title>
<path fill="none" stroke="midnightblue" d="M377.52,-342.57C297.43,-337.48 127.34,-324.14 74,-300 34.12,-281.95 0,-278.77 0,-235 0,-235 0,-235 0,-177 0,-130.49 48.43,-92.15 73.02,-75.68"/>
<polygon fill="midnightblue" stroke="midnightblue" points="377.55,-346.08 387.75,-343.21 377.99,-339.09 377.55,-346.08"/>
</g>
<!-- Node8 -->
<g id="node8" class="node">
<title>Node8</title>
<g id="a_node8"><a xlink:href="Game_8h.html" target="_top" xlink:title=" ">
<polygon fill="white" stroke="black" points="235,-56.5 235,-75.5 307,-75.5 307,-56.5 235,-56.5"/>
<text text-anchor="middle" x="271" y="-63.5" font-family="Helvetica,sans-Serif" font-size="10.00">src/Game.h</text>
</a>
</g>
</g>
<!-- Node1&#45;&gt;Node8 -->
<g id="edge29" class="edge">
<title>Node1&#45;&gt;Node8</title>
<path fill="none" stroke="midnightblue" d="M377.75,-341.82C278.35,-333.19 38,-305.07 38,-235 38,-235 38,-235 38,-177 38,-146.9 34.91,-132.45 57,-112 82.49,-88.4 180.89,-75.55 234.94,-70.13"/>
<polygon fill="midnightblue" stroke="midnightblue" points="377.5,-345.31 387.76,-342.67 378.09,-338.34 377.5,-345.31"/>
</g>
<!-- Node10 -->
<g id="node10" class="node">
<title>Node10</title>
<g id="a_node10"><a xlink:href="main_8cpp.html" target="_top" xlink:title=" ">
<polygon fill="white" stroke="black" points="482.5,-0.5 482.5,-19.5 561.5,-19.5 561.5,-0.5 482.5,-0.5"/>
<text text-anchor="middle" x="522" y="-7.5" font-family="Helvetica,sans-Serif" font-size="10.00">src/main.cpp</text>
</a>
</g>
</g>
<!-- Node1&#45;&gt;Node10 -->
<g id="edge30" class="edge">
<title>Node1&#45;&gt;Node10</title>
<path fill="none" stroke="midnightblue" d="M462.16,-340.63C554.61,-329.88 767,-298.29 767,-235 767,-235 767,-235 767,-121 767,-32.06 630.98,-14.59 561.64,-11.46"/>
<polygon fill="midnightblue" stroke="midnightblue" points="461.56,-337.17 452.02,-341.78 462.35,-344.13 461.56,-337.17"/>
</g>
<!-- Node15 -->
<g id="node15" class="node">
<title>Node15</title>
<g id="a_node15"><a xlink:href="Map_8cpp.html" target="_top" xlink:title=" ">
<polygon fill="white" stroke="black" points="625.5,-224.5 625.5,-243.5 700.5,-243.5 700.5,-224.5 625.5,-224.5"/>
<text text-anchor="middle" x="663" y="-231.5" font-family="Helvetica,sans-Serif" font-size="10.00">src/Map.cpp</text>
</a>
</g>
</g>
<!-- Node1&#45;&gt;Node15 -->
<g id="edge31" class="edge">
<title>Node1&#45;&gt;Node15</title>
<path fill="none" stroke="midnightblue" d="M448.36,-332.16C498.5,-309.47 601.52,-262.83 644.02,-243.59"/>
<polygon fill="midnightblue" stroke="midnightblue" points="446.73,-329.06 439.07,-336.37 449.62,-335.43 446.73,-329.06"/>
</g>
<!-- Node2&#45;&gt;Node1 -->
<g id="edge17" class="edge">
<title>Node2&#45;&gt;Node1</title>
<path fill="none" stroke="midnightblue" d="M447.69,-309.1C443.02,-318.18 436.33,-328.77 430.45,-336.08"/>
<polygon fill="midnightblue" stroke="midnightblue" points="450.99,-310.3 451.95,-299.75 444.61,-307.4 450.99,-310.3"/>
</g>
<!-- Node2&#45;&gt;Node3 -->
<g id="edge2" class="edge">
<title>Node2&#45;&gt;Node3</title>
<path fill="none" stroke="midnightblue" d="M433.96,-273.54C422.73,-263.91 408.68,-251.87 399.31,-243.83"/>
<polygon fill="midnightblue" stroke="midnightblue" points="432.01,-276.47 441.88,-280.32 436.56,-271.16 432.01,-276.47"/>
</g>
<!-- Node2&#45;&gt;Node4 -->
<g id="edge18" class="edge">
<title>Node2&#45;&gt;Node4</title>
<path fill="none" stroke="midnightblue" d="M457.65,-270.46C462.24,-256.95 469.52,-238.53 479,-224 488.21,-209.88 502.16,-196.26 511.66,-187.77"/>
<polygon fill="midnightblue" stroke="midnightblue" points="454.29,-269.49 454.55,-280.09 460.95,-271.64 454.29,-269.49"/>
</g>
<!-- Node2&#45;&gt;Node5 -->
<g id="edge19" class="edge">
<title>Node2&#45;&gt;Node5</title>
<path fill="none" stroke="midnightblue" d="M408.92,-277.55C384.27,-269.99 353.3,-258.75 328,-244 300.4,-227.91 273.21,-201.37 260.1,-187.71"/>
<polygon fill="midnightblue" stroke="midnightblue" points="408.14,-280.97 418.73,-280.47 410.14,-274.26 408.14,-280.97"/>
</g>
<!-- Node2&#45;&gt;Node10 -->
<g id="edge22" class="edge">
<title>Node2&#45;&gt;Node10</title>
<path fill="none" stroke="midnightblue" d="M497.17,-283.27C524.06,-277.59 556.94,-266.33 578,-244 598.65,-222.1 597,-209.1 597,-179 597,-179 597,-179 597,-121 597,-76.39 554.37,-36.52 533.39,-19.6"/>
<polygon fill="midnightblue" stroke="midnightblue" points="496.35,-279.86 487.19,-285.18 497.67,-286.74 496.35,-279.86"/>
</g>
<!-- Node12 -->
<g id="node12" class="node">
<title>Node12</title>
<g id="a_node12"><a xlink:href="Tower_8h.html" target="_top" xlink:title=" ">
<polygon fill="white" stroke="black" points="306.5,-168.5 306.5,-187.5 377.5,-187.5 377.5,-168.5 306.5,-168.5"/>
<text text-anchor="middle" x="342" y="-175.5" font-family="Helvetica,sans-Serif" font-size="10.00">src/Tower.h</text>
</a>
</g>
</g>
<!-- Node2&#45;&gt;Node12 -->
<g id="edge20" class="edge">
<title>Node2&#45;&gt;Node12</title>
<path fill="none" stroke="midnightblue" d="M406.93,-283.49C382.16,-277.9 353.41,-266.65 338,-244 326.43,-226.99 333.33,-201.31 338.29,-187.89"/>
<polygon fill="midnightblue" stroke="midnightblue" points="406.4,-286.95 416.9,-285.49 407.78,-280.09 406.4,-286.95"/>
</g>
<!-- Node14 -->
<g id="node14" class="node">
<title>Node14</title>
<g id="a_node14"><a xlink:href="Entity_8cpp.html" target="_top" xlink:title=" ">
<polygon fill="white" stroke="black" points="487.5,-224.5 487.5,-243.5 568.5,-243.5 568.5,-224.5 487.5,-224.5"/>
<text text-anchor="middle" x="528" y="-231.5" font-family="Helvetica,sans-Serif" font-size="10.00">src/Entity.cpp</text>
</a>
</g>
</g>
<!-- Node2&#45;&gt;Node14 -->
<g id="edge21" class="edge">
<title>Node2&#45;&gt;Node14</title>
<path fill="none" stroke="midnightblue" d="M472.58,-274.38C486.31,-264.62 503.93,-252.11 515.57,-243.83"/>
<polygon fill="midnightblue" stroke="midnightblue" points="470.34,-271.68 464.21,-280.32 474.39,-277.38 470.34,-271.68"/>
</g>
<!-- Node2&#45;&gt;Node15 -->
<g id="edge23" class="edge">
<title>Node2&#45;&gt;Node15</title>
<path fill="none" stroke="midnightblue" d="M495.14,-277.96C534.99,-267.76 593.36,-252.82 629.72,-243.52"/>
<polygon fill="midnightblue" stroke="midnightblue" points="494.25,-274.57 485.43,-280.44 495.99,-281.35 494.25,-274.57"/>
</g>
<!-- Node3&#45;&gt;Node4 -->
<g id="edge3" class="edge">
<title>Node3&#45;&gt;Node4</title>
<path fill="none" stroke="midnightblue" d="M419.45,-220.64C444.41,-210.5 479.08,-196.43 501.02,-187.52"/>
<polygon fill="midnightblue" stroke="midnightblue" points="418.02,-217.44 410.07,-224.44 420.66,-223.92 418.02,-217.44"/>
</g>
<!-- Node3&#45;&gt;Node5 -->
<g id="edge4" class="edge">
<title>Node3&#45;&gt;Node5</title>
<path fill="none" stroke="midnightblue" d="M357.98,-220.77C332.24,-210.63 296.31,-196.47 273.61,-187.52"/>
<polygon fill="midnightblue" stroke="midnightblue" points="356.71,-224.03 367.29,-224.44 359.27,-217.52 356.71,-224.03"/>
</g>
<!-- Node3&#45;&gt;Node8 -->
<g id="edge15" class="edge">
<title>Node3&#45;&gt;Node8</title>
<path fill="none" stroke="midnightblue" d="M395.18,-214.59C402.5,-189.09 411.22,-142.71 390,-112 371.48,-85.2 334.8,-74.34 307.03,-69.95"/>
<polygon fill="midnightblue" stroke="midnightblue" points="391.75,-213.83 392.12,-224.42 398.43,-215.91 391.75,-213.83"/>
</g>
<!-- Node3&#45;&gt;Node10 -->
<g id="edge16" class="edge">
<title>Node3&#45;&gt;Node10</title>
<path fill="none" stroke="midnightblue" d="M399.76,-215.89C405,-207.51 411.38,-197.26 417,-188 456.15,-123.57 502.09,-45.11 517.04,-19.51"/>
<polygon fill="midnightblue" stroke="midnightblue" points="396.77,-214.08 394.42,-224.41 402.7,-217.8 396.77,-214.08"/>
</g>
<!-- Node3&#45;&gt;Node12 -->
<g id="edge12" class="edge">
<title>Node3&#45;&gt;Node12</title>
<path fill="none" stroke="midnightblue" d="M374.58,-216.43C366.34,-206.97 356.35,-195.48 349.62,-187.75"/>
<polygon fill="midnightblue" stroke="midnightblue" points="372.03,-218.84 381.24,-224.08 377.31,-214.24 372.03,-218.84"/>
</g>
<!-- Node5&#45;&gt;Node6 -->
<g id="edge5" class="edge">
<title>Node5&#45;&gt;Node6</title>
<path fill="none" stroke="midnightblue" d="M237.58,-160.43C229.34,-150.97 219.35,-139.48 212.62,-131.75"/>
<polygon fill="midnightblue" stroke="midnightblue" points="235.03,-162.84 244.24,-168.08 240.31,-158.24 235.03,-162.84"/>
</g>
<!-- Node5&#45;&gt;Node8 -->
<g id="edge10" class="edge">
<title>Node5&#45;&gt;Node8</title>
<path fill="none" stroke="midnightblue" d="M255.22,-158.35C259.38,-134.25 266.46,-93.31 269.52,-75.59"/>
<polygon fill="midnightblue" stroke="midnightblue" points="251.74,-157.92 253.49,-168.37 258.64,-159.11 251.74,-157.92"/>
</g>
<!-- Node11 -->
<g id="node11" class="node">
<title>Node11</title>
<g id="a_node11"><a xlink:href="Player_8cpp.html" target="_top" xlink:title=" ">
<polygon fill="white" stroke="black" points="66,-112.5 66,-131.5 150,-131.5 150,-112.5 66,-112.5"/>
<text text-anchor="middle" x="108" y="-119.5" font-family="Helvetica,sans-Serif" font-size="10.00">src/Player.cpp</text>
</a>
</g>
</g>
<!-- Node5&#45;&gt;Node11 -->
<g id="edge11" class="edge">
<title>Node5&#45;&gt;Node11</title>
<path fill="none" stroke="midnightblue" d="M219.75,-164.91C192.68,-154.75 154.68,-140.51 130.71,-131.52"/>
<polygon fill="midnightblue" stroke="midnightblue" points="218.59,-168.21 229.18,-168.44 221.05,-161.66 218.59,-168.21"/>
</g>
<!-- Node6&#45;&gt;Node7 -->
<g id="edge6" class="edge">
<title>Node6&#45;&gt;Node7</title>
<path fill="none" stroke="midnightblue" d="M177.1,-108.23C155.03,-98.13 124.82,-84.31 105.61,-75.52"/>
<polygon fill="midnightblue" stroke="midnightblue" points="175.75,-111.46 186.3,-112.44 178.67,-105.1 175.75,-111.46"/>
</g>
<!-- Node6&#45;&gt;Node8 -->
<g id="edge7" class="edge">
<title>Node6&#45;&gt;Node8</title>
<path fill="none" stroke="midnightblue" d="M223.55,-105.82C235.38,-96.15 250.29,-83.95 260.2,-75.83"/>
<polygon fill="midnightblue" stroke="midnightblue" points="221.13,-103.28 215.6,-112.32 225.56,-108.7 221.13,-103.28"/>
</g>
<!-- Node9 -->
<g id="node9" class="node">
<title>Node9</title>
<g id="a_node9"><a xlink:href="Game_8cpp.html" target="_top" xlink:title=" ">
<polygon fill="white" stroke="black" points="229.5,-0.5 229.5,-19.5 312.5,-19.5 312.5,-0.5 229.5,-0.5"/>
<text text-anchor="middle" x="271" y="-7.5" font-family="Helvetica,sans-Serif" font-size="10.00">src/Game.cpp</text>
</a>
</g>
</g>
<!-- Node8&#45;&gt;Node9 -->
<g id="edge8" class="edge">
<title>Node8&#45;&gt;Node9</title>
<path fill="none" stroke="midnightblue" d="M271,-45.8C271,-36.91 271,-26.78 271,-19.75"/>
<polygon fill="midnightblue" stroke="midnightblue" points="267.5,-46.08 271,-56.08 274.5,-46.08 267.5,-46.08"/>
</g>
<!-- Node8&#45;&gt;Node10 -->
<g id="edge9" class="edge">
<title>Node8&#45;&gt;Node10</title>
<path fill="none" stroke="midnightblue" d="M317.23,-55.05C364.66,-44.85 437.65,-29.15 482.47,-19.5"/>
<polygon fill="midnightblue" stroke="midnightblue" points="316.27,-51.68 307.23,-57.21 317.74,-58.52 316.27,-51.68"/>
</g>
<!-- Node12&#45;&gt;Node6 -->
<g id="edge13" class="edge">
<title>Node12&#45;&gt;Node6</title>
<path fill="none" stroke="midnightblue" d="M310.98,-164.77C285.24,-154.63 249.31,-140.47 226.61,-131.52"/>
<polygon fill="midnightblue" stroke="midnightblue" points="309.71,-168.03 320.29,-168.44 312.27,-161.52 309.71,-168.03"/>
</g>
<!-- Node13 -->
<g id="node13" class="node">
<title>Node13</title>
<g id="a_node13"><a xlink:href="Tower_8cpp.html" target="_top" xlink:title=" ">
<polygon fill="white" stroke="black" points="299,-112.5 299,-131.5 381,-131.5 381,-112.5 299,-112.5"/>
<text text-anchor="middle" x="340" y="-119.5" font-family="Helvetica,sans-Serif" font-size="10.00">src/Tower.cpp</text>
</a>
</g>
</g>
<!-- Node12&#45;&gt;Node13 -->
<g id="edge14" class="edge">
<title>Node12&#45;&gt;Node13</title>
<path fill="none" stroke="midnightblue" d="M341.29,-157.8C340.96,-148.91 340.58,-138.78 340.32,-131.75"/>
<polygon fill="midnightblue" stroke="midnightblue" points="337.8,-158.22 341.67,-168.08 344.8,-157.96 337.8,-158.22"/>
</g>
</g>
</svg>
