<?xml version="1.0" encoding="UTF-8" standalone="no"?>
<!DOCTYPE svg PUBLIC "-//W3C//DTD SVG 1.1//EN"
 "http://www.w3.org/Graphics/SVG/1.1/DTD/svg11.dtd">
<!-- Generated by graphviz version 2.43.0 (0)
 -->
<!-- Title: src/Map.h Pages: 1 -->
<svg width="643pt" height="364pt"
 viewBox="0.00 0.00 643.00 364.00" xmlns="http://www.w3.org/2000/svg" xmlns:xlink="http://www.w3.org/1999/xlink">
<g id="graph0" class="graph" transform="scale(1 1) rotate(0) translate(4 360)">
<title>src/Map.h</title>
<polygon fill="white" stroke="transparent" points="-4,4 -4,-360 639,-360 639,4 -4,4"/>
<!-- Node1 -->
<g id="node1" class="node">
<title>Node1</title>
<g id="a_node1"><a xlink:title=" ">
<polygon fill="#bfbfbf" stroke="black" points="315,-336.5 315,-355.5 379,-355.5 379,-336.5 315,-336.5"/>
<text text-anchor="middle" x="347" y="-343.5" font-family="Helvetica,sans-Serif" font-size="10.00">src/Map.h</text>
</a>
</g>
</g>
<!-- Node2 -->
<g id="node2" class="node">
<title>Node2</title>
<g id="a_node2"><a xlink:href="Entity_8h.html" target="_top" xlink:title=" ">
<polygon fill="white" stroke="black" points="312,-280.5 312,-299.5 382,-299.5 382,-280.5 312,-280.5"/>
<text text-anchor="middle" x="347" y="-287.5" font-family="Helvetica,sans-Serif" font-size="10.00">src/Entity.h</text>
</a>
</g>
</g>
<!-- Node1&#45;&gt;Node2 -->
<g id="edge1" class="edge">
<title>Node1&#45;&gt;Node2</title>
<path fill="none" stroke="midnightblue" d="M340.53,-326.1C339.9,-317.14 340.34,-306.86 341.87,-299.75"/>
<polygon fill="midnightblue" stroke="midnightblue" points="337.07,-326.62 341.83,-336.08 344.01,-325.71 337.07,-326.62"/>
</g>
<!-- Node3 -->
<g id="node3" class="node">
<title>Node3</title>
<g id="a_node3"><a xlink:href="Attacker_8h.html" target="_top" xlink:title=" ">
<polygon fill="white" stroke="black" points="178.5,-224.5 178.5,-243.5 261.5,-243.5 261.5,-224.5 178.5,-224.5"/>
<text text-anchor="middle" x="220" y="-231.5" font-family="Helvetica,sans-Serif" font-size="10.00">src/Attacker.h</text>
</a>
</g>
</g>
<!-- Node1&#45;&gt;Node3 -->
<g id="edge24" class="edge">
<title>Node1&#45;&gt;Node3</title>
<path fill="none" stroke="midnightblue" d="M329.47,-329.82C302.42,-306.39 251.39,-262.19 229.92,-243.59"/>
<polygon fill="midnightblue" stroke="midnightblue" points="327.18,-332.47 337.03,-336.37 331.77,-327.18 327.18,-332.47"/>
</g>
<!-- Node4 -->
<g id="node4" class="node">
<title>Node4</title>
<g id="a_node4"><a xlink:href="Attacker_8cpp.html" target="_top" xlink:title=" ">
<polygon fill="white" stroke="black" points="28,-168.5 28,-187.5 122,-187.5 122,-168.5 28,-168.5"/>
<text text-anchor="middle" x="75" y="-175.5" font-family="Helvetica,sans-Serif" font-size="10.00">src/Attacker.cpp</text>
</a>
</g>
</g>
<!-- Node1&#45;&gt;Node4 -->
<g id="edge25" class="edge">
<title>Node1&#45;&gt;Node4</title>
<path fill="none" stroke="midnightblue" d="M305.02,-336.59C253.11,-324.28 164.68,-296.85 108,-244 90.97,-228.12 81.37,-201.49 77.32,-187.76"/>
<polygon fill="midnightblue" stroke="midnightblue" points="304.37,-340.03 314.9,-338.85 305.93,-333.2 304.37,-340.03"/>
</g>
<!-- Node5 -->
<g id="node5" class="node">
<title>Node5</title>
<g id="a_node5"><a xlink:href="Player_8h.html" target="_top" xlink:title=" ">
<polygon fill="white" stroke="black" points="416.5,-168.5 416.5,-187.5 489.5,-187.5 489.5,-168.5 416.5,-168.5"/>
<text text-anchor="middle" x="453" y="-175.5" font-family="Helvetica,sans-Serif" font-size="10.00">src/Player.h</text>
</a>
</g>
</g>
<!-- Node1&#45;&gt;Node5 -->
<g id="edge26" class="edge">
<title>Node1&#45;&gt;Node5</title>
<path fill="none" stroke="midnightblue" d="M388.75,-336.53C435,-324.66 507.36,-298.17 540,-244 556.16,-217.19 514.78,-197.82 483.69,-187.51"/>
<polygon fill="midnightblue" stroke="midnightblue" points="387.9,-333.13 379.02,-338.91 389.56,-339.93 387.9,-333.13"/>
</g>
<!-- Node6 -->
<g id="node6" class="node">
<title>Node6</title>
<g id="a_node6"><a xlink:href="Enemy_8h.html" target="_top" xlink:title=" ">
<polygon fill="white" stroke="black" points="354.5,-112.5 354.5,-131.5 429.5,-131.5 429.5,-112.5 354.5,-112.5"/>
<text text-anchor="middle" x="392" y="-119.5" font-family="Helvetica,sans-Serif" font-size="10.00">src/Enemy.h</text>
</a>
</g>
</g>
<!-- Node1&#45;&gt;Node6 -->
<g id="edge27" class="edge">
<title>Node1&#45;&gt;Node6</title>
<path fill="none" stroke="midnightblue" d="M389.4,-340.38C423.9,-335.02 472.64,-323.67 509,-300 535.99,-282.43 544.14,-274.32 555,-244 576.98,-182.62 482.07,-146.76 427.73,-131.59"/>
<polygon fill="midnightblue" stroke="midnightblue" points="388.58,-336.96 379.18,-341.86 389.58,-343.89 388.58,-336.96"/>
</g>
<!-- Node8 -->
<g id="node8" class="node">
<title>Node8</title>
<g id="a_node8"><a xlink:href="Game_8h.html" target="_top" xlink:title=" ">
<polygon fill="white" stroke="black" points="404,-56.5 404,-75.5 476,-75.5 476,-56.5 404,-56.5"/>
<text text-anchor="middle" x="440" y="-63.5" font-family="Helvetica,sans-Serif" font-size="10.00">src/Game.h</text>
</a>
</g>
</g>
<!-- Node1&#45;&gt;Node8 -->
<g id="edge28" class="edge">
<title>Node1&#45;&gt;Node8</title>
<path fill="none" stroke="midnightblue" d="M389.45,-337.91C469.54,-323.33 635,-286.93 635,-235 635,-235 635,-235 635,-177 635,-104.9 532.61,-79.53 476.22,-71.03"/>
<polygon fill="midnightblue" stroke="midnightblue" points="388.43,-334.54 379.2,-339.74 389.66,-341.43 388.43,-334.54"/>
</g>
<!-- Node10 -->
<g id="node10" class="node">
<title>Node10</title>
<g id="a_node10"><a xlink:href="main_8cpp.html" target="_top" xlink:title=" ">
<polygon fill="white" stroke="black" points="129.5,-0.5 129.5,-19.5 208.5,-19.5 208.5,-0.5 129.5,-0.5"/>
<text text-anchor="middle" x="169" y="-7.5" font-family="Helvetica,sans-Serif" font-size="10.00">src/main.cpp</text>
</a>
</g>
</g>
<!-- Node1&#45;&gt;Node10 -->
<g id="edge29" class="edge">
<title>Node1&#45;&gt;Node10</title>
<path fill="none" stroke="midnightblue" d="M304.84,-340.63C212.39,-329.88 0,-298.29 0,-235 0,-235 0,-235 0,-121 0,-59.56 79.43,-30.66 129.38,-18.56"/>
<polygon fill="midnightblue" stroke="midnightblue" points="304.65,-344.13 314.98,-341.78 305.44,-337.17 304.65,-344.13"/>
</g>
<!-- Node15 -->
<g id="node15" class="node">
<title>Node15</title>
<g id="a_node15"><a xlink:href="Map_8cpp.html" target="_top" xlink:title=" ">
<polygon fill="white" stroke="black" points="455.5,-224.5 455.5,-243.5 530.5,-243.5 530.5,-224.5 455.5,-224.5"/>
<text text-anchor="middle" x="493" y="-231.5" font-family="Helvetica,sans-Serif" font-size="10.00">src/Map.cpp</text>
</a>
</g>
</g>
<!-- Node1&#45;&gt;Node15 -->
<g id="edge30" class="edge">
<title>Node1&#45;&gt;Node15</title>
<path fill="none" stroke="midnightblue" d="M366.75,-330.12C397.74,-306.77 456.81,-262.27 481.6,-243.59"/>
<polygon fill="midnightblue" stroke="midnightblue" points="364.34,-327.56 358.46,-336.37 368.55,-333.15 364.34,-327.56"/>
</g>
<!-- Node2&#45;&gt;Node1 -->
<g id="edge17" class="edge">
<title>Node2&#45;&gt;Node1</title>
<path fill="none" stroke="midnightblue" d="M353.46,-309.69C354.11,-318.64 353.68,-328.93 352.17,-336.08"/>
<polygon fill="midnightblue" stroke="midnightblue" points="356.92,-309.2 352.13,-299.75 349.98,-310.13 356.92,-309.2"/>
</g>
<!-- Node2&#45;&gt;Node3 -->
<g id="edge2" class="edge">
<title>Node2&#45;&gt;Node3</title>
<path fill="none" stroke="midnightblue" d="M317.61,-276.5C293.8,-266.38 260.89,-252.39 240.03,-243.52"/>
<polygon fill="midnightblue" stroke="midnightblue" points="316.3,-279.75 326.88,-280.44 319.04,-273.31 316.3,-279.75"/>
</g>
<!-- Node2&#45;&gt;Node4 -->
<g id="edge18" class="edge">
<title>Node2&#45;&gt;Node4</title>
<path fill="none" stroke="midnightblue" d="M301.9,-287.16C257.2,-283.61 188.06,-273.37 136,-244 110.93,-229.86 90.09,-201.95 80.56,-187.75"/>
<polygon fill="midnightblue" stroke="midnightblue" points="301.66,-290.65 311.88,-287.87 302.15,-283.66 301.66,-290.65"/>
</g>
<!-- Node2&#45;&gt;Node5 -->
<g id="edge19" class="edge">
<title>Node2&#45;&gt;Node5</title>
<path fill="none" stroke="midnightblue" d="M362.52,-272.9C385.31,-249.25 427.03,-205.95 444.72,-187.59"/>
<polygon fill="midnightblue" stroke="midnightblue" points="359.74,-270.74 355.32,-280.37 364.78,-275.6 359.74,-270.74"/>
</g>
<!-- Node2&#45;&gt;Node10 -->
<g id="edge22" class="edge">
<title>Node2&#45;&gt;Node10</title>
<path fill="none" stroke="midnightblue" d="M301.64,-289.49C261.64,-287.44 204.36,-278.09 169,-244 147.33,-223.11 150,-209.1 150,-179 150,-179 150,-179 150,-121 150,-82.82 161.25,-38.26 166.44,-19.75"/>
<polygon fill="midnightblue" stroke="midnightblue" points="301.55,-292.99 311.67,-289.87 301.81,-285.99 301.55,-292.99"/>
</g>
<!-- Node12 -->
<g id="node12" class="node">
<title>Node12</title>
<g id="a_node12"><a xlink:href="Tower_8h.html" target="_top" xlink:title=" ">
<polygon fill="white" stroke="black" points="293.5,-168.5 293.5,-187.5 364.5,-187.5 364.5,-168.5 293.5,-168.5"/>
<text text-anchor="middle" x="329" y="-175.5" font-family="Helvetica,sans-Serif" font-size="10.00">src/Tower.h</text>
</a>
</g>
</g>
<!-- Node2&#45;&gt;Node12 -->
<g id="edge20" class="edge">
<title>Node2&#45;&gt;Node12</title>
<path fill="none" stroke="midnightblue" d="M360.06,-271.58C368.25,-258.43 376.19,-239.99 370,-224 364.12,-208.82 350.48,-195.62 340.54,-187.51"/>
<polygon fill="midnightblue" stroke="midnightblue" points="356.99,-269.87 354.25,-280.11 362.77,-273.82 356.99,-269.87"/>
</g>
<!-- Node14 -->
<g id="node14" class="node">
<title>Node14</title>
<g id="a_node14"><a xlink:href="Entity_8cpp.html" target="_top" xlink:title=" ">
<polygon fill="white" stroke="black" points="279.5,-224.5 279.5,-243.5 360.5,-243.5 360.5,-224.5 279.5,-224.5"/>
<text text-anchor="middle" x="320" y="-231.5" font-family="Helvetica,sans-Serif" font-size="10.00">src/Entity.cpp</text>
</a>
</g>
</g>
<!-- Node2&#45;&gt;Node14 -->
<g id="edge21" class="edge">
<title>Node2&#45;&gt;Node14</title>
<path fill="none" stroke="midnightblue" d="M337.99,-270.98C333.41,-261.82 328.05,-251.09 324.38,-243.75"/>
<polygon fill="midnightblue" stroke="midnightblue" points="334.94,-272.7 342.54,-280.08 341.2,-269.57 334.94,-272.7"/>
</g>
<!-- Node2&#45;&gt;Node15 -->
<g id="edge23" class="edge">
<title>Node2&#45;&gt;Node15</title>
<path fill="none" stroke="midnightblue" d="M379.7,-276.91C407.15,-266.75 445.67,-252.51 469.97,-243.52"/>
<polygon fill="midnightblue" stroke="midnightblue" points="378.3,-273.69 370.13,-280.44 380.73,-280.26 378.3,-273.69"/>
</g>
<!-- Node3&#45;&gt;Node4 -->
<g id="edge3" class="edge">
<title>Node3&#45;&gt;Node4</title>
<path fill="none" stroke="midnightblue" d="M187.52,-220.91C160.26,-210.75 122.01,-196.51 97.87,-187.52"/>
<polygon fill="midnightblue" stroke="midnightblue" points="186.43,-224.23 197.02,-224.44 188.87,-217.67 186.43,-224.23"/>
</g>
<!-- Node3&#45;&gt;Node5 -->
<g id="edge4" class="edge">
<title>Node3&#45;&gt;Node5</title>
<path fill="none" stroke="midnightblue" d="M266.8,-222.15C310.83,-211.95 375.85,-196.88 416.25,-187.52"/>
<polygon fill="midnightblue" stroke="midnightblue" points="265.87,-218.78 256.92,-224.44 267.45,-225.6 265.87,-218.78"/>
</g>
<!-- Node3&#45;&gt;Node8 -->
<g id="edge15" class="edge">
<title>Node3&#45;&gt;Node8</title>
<path fill="none" stroke="midnightblue" d="M218.13,-214.01C216.64,-187.45 218.23,-139.4 245,-112 250.59,-106.28 348.88,-85.54 403.73,-74.32"/>
<polygon fill="midnightblue" stroke="midnightblue" points="214.66,-214.55 218.92,-224.25 221.64,-214.01 214.66,-214.55"/>
</g>
<!-- Node3&#45;&gt;Node10 -->
<g id="edge16" class="edge">
<title>Node3&#45;&gt;Node10</title>
<path fill="none" stroke="midnightblue" d="M215.7,-214.3C205.22,-168.64 178.62,-52.85 171.04,-19.88"/>
<polygon fill="midnightblue" stroke="midnightblue" points="212.35,-215.33 218,-224.3 219.17,-213.77 212.35,-215.33"/>
</g>
<!-- Node3&#45;&gt;Node12 -->
<g id="edge12" class="edge">
<title>Node3&#45;&gt;Node12</title>
<path fill="none" stroke="midnightblue" d="M246.52,-219.86C266.73,-209.85 293.99,-196.35 311.53,-187.65"/>
<polygon fill="midnightblue" stroke="midnightblue" points="244.92,-216.75 237.51,-224.32 248.03,-223.02 244.92,-216.75"/>
</g>
<!-- Node5&#45;&gt;Node6 -->
<g id="edge5" class="edge">
<title>Node5&#45;&gt;Node6</title>
<path fill="none" stroke="midnightblue" d="M435.53,-161.54C424.66,-151.91 411.06,-139.87 401.98,-131.83"/>
<polygon fill="midnightblue" stroke="midnightblue" points="433.39,-164.32 443.2,-168.32 438.03,-159.07 433.39,-164.32"/>
</g>
<!-- Node5&#45;&gt;Node8 -->
<g id="edge10" class="edge">
<title>Node5&#45;&gt;Node8</title>
<path fill="none" stroke="midnightblue" d="M492.89,-165.16C522.55,-154.15 555.43,-135.86 540,-112 525.94,-90.26 498.6,-78.92 476.05,-73.06"/>
<polygon fill="midnightblue" stroke="midnightblue" points="491.71,-161.87 483.43,-168.48 494.03,-168.47 491.71,-161.87"/>
</g>
<!-- Node11 -->
<g id="node11" class="node">
<title>Node11</title>
<g id="a_node11"><a xlink:href="Player_8cpp.html" target="_top" xlink:title=" ">
<polygon fill="white" stroke="black" points="447,-112.5 447,-131.5 531,-131.5 531,-112.5 447,-112.5"/>
<text text-anchor="middle" x="489" y="-119.5" font-family="Helvetica,sans-Serif" font-size="10.00">src/Player.cpp</text>
</a>
</g>
</g>
<!-- Node5&#45;&gt;Node11 -->
<g id="edge11" class="edge">
<title>Node5&#45;&gt;Node11</title>
<path fill="none" stroke="midnightblue" d="M464.62,-159.57C470.82,-150.27 478.17,-139.25 483.17,-131.75"/>
<polygon fill="midnightblue" stroke="midnightblue" points="461.58,-157.82 458.94,-168.08 467.4,-161.7 461.58,-157.82"/>
</g>
<!-- Node7 -->
<g id="node7" class="node">
<title>Node7</title>
<g id="a_node7"><a xlink:href="Enemy_8cpp.html" target="_top" xlink:title=" ">
<polygon fill="white" stroke="black" points="300,-56.5 300,-75.5 386,-75.5 386,-56.5 300,-56.5"/>
<text text-anchor="middle" x="343" y="-63.5" font-family="Helvetica,sans-Serif" font-size="10.00">src/Enemy.cpp</text>
</a>
</g>
</g>
<!-- Node6&#45;&gt;Node7 -->
<g id="edge6" class="edge">
<title>Node6&#45;&gt;Node7</title>
<path fill="none" stroke="midnightblue" d="M376.97,-104.43C368.38,-94.97 357.96,-83.48 350.94,-75.75"/>
<polygon fill="midnightblue" stroke="midnightblue" points="374.6,-107.03 383.91,-112.08 379.78,-102.33 374.6,-107.03"/>
</g>
<!-- Node6&#45;&gt;Node8 -->
<g id="edge7" class="edge">
<title>Node6&#45;&gt;Node8</title>
<path fill="none" stroke="midnightblue" d="M406.73,-104.43C415.14,-94.97 425.35,-83.48 432.22,-75.75"/>
<polygon fill="midnightblue" stroke="midnightblue" points="403.95,-102.28 399.93,-112.08 409.19,-106.93 403.95,-102.28"/>
</g>
<!-- Node9 -->
<g id="node9" class="node">
<title>Node9</title>
<g id="a_node9"><a xlink:href="Game_8cpp.html" target="_top" xlink:title=" ">
<polygon fill="white" stroke="black" points="398.5,-0.5 398.5,-19.5 481.5,-19.5 481.5,-0.5 398.5,-0.5"/>
<text text-anchor="middle" x="440" y="-7.5" font-family="Helvetica,sans-Serif" font-size="10.00">src/Game.cpp</text>
</a>
</g>
</g>
<!-- Node8&#45;&gt;Node9 -->
<g id="edge8" class="edge">
<title>Node8&#45;&gt;Node9</title>
<path fill="none" stroke="midnightblue" d="M440,-45.8C440,-36.91 440,-26.78 440,-19.75"/>
<polygon fill="midnightblue" stroke="midnightblue" points="436.5,-46.08 440,-56.08 443.5,-46.08 436.5,-46.08"/>
</g>
<!-- Node8&#45;&gt;Node10 -->
<g id="edge9" class="edge">
<title>Node8&#45;&gt;Node10</title>
<path fill="none" stroke="midnightblue" d="M393.67,-55.74C322.92,-41.62 251.7,-27.45 208.6,-18.87"/>
<polygon fill="midnightblue" stroke="midnightblue" points="393.16,-59.2 403.65,-57.73 394.53,-52.34 393.16,-59.2"/>
</g>
<!-- Node12&#45;&gt;Node6 -->
<g id="edge13" class="edge">
<title>Node12&#45;&gt;Node6</title>
<path fill="none" stroke="midnightblue" d="M347.04,-161.54C358.27,-151.91 372.32,-139.87 381.69,-131.83"/>
<polygon fill="midnightblue" stroke="midnightblue" points="344.44,-159.16 339.12,-168.32 348.99,-164.47 344.44,-159.16"/>
</g>
<!-- Node13 -->
<g id="node13" class="node">
<title>Node13</title>
<g id="a_node13"><a xlink:href="Tower_8cpp.html" target="_top" xlink:title=" ">
<polygon fill="white" stroke="black" points="254,-112.5 254,-131.5 336,-131.5 336,-112.5 254,-112.5"/>
<text text-anchor="middle" x="295" y="-119.5" font-family="Helvetica,sans-Serif" font-size="10.00">src/Tower.cpp</text>
</a>
</g>
</g>
<!-- Node12&#45;&gt;Node13 -->
<g id="edge14" class="edge">
<title>Node12&#45;&gt;Node13</title>
<path fill="none" stroke="midnightblue" d="M318.02,-159.57C312.17,-150.27 305.23,-139.25 300.51,-131.75"/>
<polygon fill="midnightblue" stroke="midnightblue" points="315.1,-161.49 323.39,-168.08 321.02,-157.76 315.1,-161.49"/>
</g>
</g>
</svg>
