<?xml version="1.0" encoding="UTF-8" standalone="no"?>
<!DOCTYPE svg PUBLIC "-//W3C//DTD SVG 1.1//EN"
 "http://www.w3.org/Graphics/SVG/1.1/DTD/svg11.dtd">
<!-- Generated by graphviz version 2.43.0 (0)
 -->
<!-- Title: src/Map.h Pages: 1 -->
<svg width="465pt" height="364pt"
 viewBox="0.00 0.00 465.38 364.00" xmlns="http://www.w3.org/2000/svg" xmlns:xlink="http://www.w3.org/1999/xlink">
<g id="graph0" class="graph" transform="scale(1 1) rotate(0) translate(4 360)">
<title>src/Map.h</title>
<polygon fill="white" stroke="transparent" points="-4,4 -4,-360 461.38,-360 461.38,4 -4,4"/>
<!-- Node1 -->
<g id="node1" class="node">
<title>Node1</title>
<g id="a_node1"><a xlink:title=" ">
<polygon fill="#bfbfbf" stroke="black" points="187,-336.5 187,-355.5 251,-355.5 251,-336.5 187,-336.5"/>
<text text-anchor="middle" x="219" y="-343.5" font-family="Helvetica,sans-Serif" font-size="10.00">src/Map.h</text>
</a>
</g>
</g>
<!-- Node2 -->
<g id="node2" class="node">
<title>Node2</title>
<g id="a_node2"><a xlink:href="Entity_8h.html" target="_top" xlink:title=" ">
<polygon fill="white" stroke="black" points="184,-280.5 184,-299.5 254,-299.5 254,-280.5 184,-280.5"/>
<text text-anchor="middle" x="219" y="-287.5" font-family="Helvetica,sans-Serif" font-size="10.00">src/Entity.h</text>
</a>
</g>
</g>
<!-- Node1&#45;&gt;Node2 -->
<g id="edge1" class="edge">
<title>Node1&#45;&gt;Node2</title>
<path fill="none" stroke="midnightblue" d="M212.53,-326.1C211.9,-317.14 212.34,-306.86 213.87,-299.75"/>
<polygon fill="midnightblue" stroke="midnightblue" points="209.07,-326.62 213.83,-336.08 216.01,-325.71 209.07,-326.62"/>
</g>
<!-- Node3 -->
<g id="node3" class="node">
<title>Node3</title>
<g id="a_node3"><a xlink:href="Attacker_8h.html" target="_top" xlink:title=" ">
<polygon fill="white" stroke="black" points="297.5,-224.5 297.5,-243.5 380.5,-243.5 380.5,-224.5 297.5,-224.5"/>
<text text-anchor="middle" x="339" y="-231.5" font-family="Helvetica,sans-Serif" font-size="10.00">src/Attacker.h</text>
</a>
</g>
</g>
<!-- Node1&#45;&gt;Node3 -->
<g id="edge21" class="edge">
<title>Node1&#45;&gt;Node3</title>
<path fill="none" stroke="midnightblue" d="M235.9,-329.51C261.54,-306.01 309.43,-262.11 329.63,-243.59"/>
<polygon fill="midnightblue" stroke="midnightblue" points="233.42,-327.03 228.42,-336.37 238.15,-332.19 233.42,-327.03"/>
</g>
<!-- Node5 -->
<g id="node5" class="node">
<title>Node5</title>
<g id="a_node5"><a xlink:href="Player_8h.html" target="_top" xlink:title=" ">
<polygon fill="white" stroke="black" points="128.5,-168.5 128.5,-187.5 201.5,-187.5 201.5,-168.5 128.5,-168.5"/>
<text text-anchor="middle" x="165" y="-175.5" font-family="Helvetica,sans-Serif" font-size="10.00">src/Player.h</text>
</a>
</g>
</g>
<!-- Node1&#45;&gt;Node5 -->
<g id="edge22" class="edge">
<title>Node1&#45;&gt;Node5</title>
<path fill="none" stroke="midnightblue" d="M179.9,-333.08C140.86,-318.85 83.02,-290.89 57,-244 39.27,-212.04 90.63,-194.12 128.49,-185.52"/>
<polygon fill="midnightblue" stroke="midnightblue" points="178.8,-336.4 189.39,-336.41 181.11,-329.8 178.8,-336.4"/>
</g>
<!-- Node6 -->
<g id="node6" class="node">
<title>Node6</title>
<g id="a_node6"><a xlink:href="Enemy_8h.html" target="_top" xlink:title=" ">
<polygon fill="white" stroke="black" points="267.5,-112.5 267.5,-131.5 342.5,-131.5 342.5,-112.5 267.5,-112.5"/>
<text text-anchor="middle" x="305" y="-119.5" font-family="Helvetica,sans-Serif" font-size="10.00">src/Enemy.h</text>
</a>
</g>
</g>
<!-- Node1&#45;&gt;Node6 -->
<g id="edge23" class="edge">
<title>Node1&#45;&gt;Node6</title>
<path fill="none" stroke="midnightblue" d="M261.12,-333.8C320.58,-315.22 425.12,-271.51 454,-188 456.91,-179.6 459.3,-175.14 454,-168 440.67,-150.05 382.3,-136.5 342.7,-129.16"/>
<polygon fill="midnightblue" stroke="midnightblue" points="259.84,-330.53 251.28,-336.77 261.86,-337.23 259.84,-330.53"/>
</g>
<!-- Node8 -->
<g id="node8" class="node">
<title>Node8</title>
<g id="a_node8"><a xlink:href="Game_8h.html" target="_top" xlink:title=" ">
<polygon fill="white" stroke="black" points="115,-56.5 115,-75.5 187,-75.5 187,-56.5 115,-56.5"/>
<text text-anchor="middle" x="151" y="-63.5" font-family="Helvetica,sans-Serif" font-size="10.00">src/Game.h</text>
</a>
</g>
</g>
<!-- Node1&#45;&gt;Node8 -->
<g id="edge24" class="edge">
<title>Node1&#45;&gt;Node8</title>
<path fill="none" stroke="midnightblue" d="M176.54,-342.34C112.85,-335.81 0,-313.19 0,-235 0,-235 0,-235 0,-177 0,-119.59 72.18,-88.98 116.74,-75.56"/>
<polygon fill="midnightblue" stroke="midnightblue" points="176.4,-345.85 186.69,-343.29 177.06,-338.88 176.4,-345.85"/>
</g>
<!-- Node15 -->
<g id="node15" class="node">
<title>Node15</title>
<g id="a_node15"><a xlink:href="Map_8cpp.html" target="_top" xlink:title=" ">
<polygon fill="white" stroke="black" points="66.5,-224.5 66.5,-243.5 141.5,-243.5 141.5,-224.5 66.5,-224.5"/>
<text text-anchor="middle" x="104" y="-231.5" font-family="Helvetica,sans-Serif" font-size="10.00">src/Map.cpp</text>
</a>
</g>
</g>
<!-- Node1&#45;&gt;Node15 -->
<g id="edge25" class="edge">
<title>Node1&#45;&gt;Node15</title>
<path fill="none" stroke="midnightblue" d="M202.49,-329.21C177.84,-305.63 132.26,-262.03 112.98,-243.59"/>
<polygon fill="midnightblue" stroke="midnightblue" points="200.33,-331.99 209.98,-336.37 205.17,-326.93 200.33,-331.99"/>
</g>
<!-- Node2&#45;&gt;Node1 -->
<g id="edge16" class="edge">
<title>Node2&#45;&gt;Node1</title>
<path fill="none" stroke="midnightblue" d="M225.46,-309.69C226.11,-318.64 225.68,-328.93 224.17,-336.08"/>
<polygon fill="midnightblue" stroke="midnightblue" points="228.92,-309.2 224.13,-299.75 221.98,-310.13 228.92,-309.2"/>
</g>
<!-- Node2&#45;&gt;Node3 -->
<g id="edge2" class="edge">
<title>Node2&#45;&gt;Node3</title>
<path fill="none" stroke="midnightblue" d="M247.37,-276.23C269.82,-266.13 300.54,-252.31 320.07,-243.52"/>
<polygon fill="midnightblue" stroke="midnightblue" points="245.7,-273.15 238.01,-280.44 248.57,-279.53 245.7,-273.15"/>
</g>
<!-- Node2&#45;&gt;Node5 -->
<g id="edge17" class="edge">
<title>Node2&#45;&gt;Node5</title>
<path fill="none" stroke="midnightblue" d="M235.74,-272.81C247.52,-259.38 259.61,-239.97 250,-224 238.89,-205.55 217.39,-194.26 198.8,-187.61"/>
<polygon fill="midnightblue" stroke="midnightblue" points="232.97,-270.64 228.64,-280.31 238.06,-275.45 232.97,-270.64"/>
</g>
<!-- Node12 -->
<g id="node12" class="node">
<title>Node12</title>
<g id="a_node12"><a xlink:href="Tower_8h.html" target="_top" xlink:title=" ">
<polygon fill="white" stroke="black" points="373.5,-168.5 373.5,-187.5 444.5,-187.5 444.5,-168.5 373.5,-168.5"/>
<text text-anchor="middle" x="409" y="-175.5" font-family="Helvetica,sans-Serif" font-size="10.00">src/Tower.h</text>
</a>
</g>
</g>
<!-- Node2&#45;&gt;Node12 -->
<g id="edge18" class="edge">
<title>Node2&#45;&gt;Node12</title>
<path fill="none" stroke="midnightblue" d="M264.38,-288.85C302.74,-286.27 356.62,-276.49 390,-244 405.67,-228.75 408.6,-201.35 409.03,-187.5"/>
<polygon fill="midnightblue" stroke="midnightblue" points="263.8,-285.38 254,-289.4 264.18,-292.37 263.8,-285.38"/>
</g>
<!-- Node14 -->
<g id="node14" class="node">
<title>Node14</title>
<g id="a_node14"><a xlink:href="Entity_8cpp.html" target="_top" xlink:title=" ">
<polygon fill="white" stroke="black" points="159.5,-224.5 159.5,-243.5 240.5,-243.5 240.5,-224.5 159.5,-224.5"/>
<text text-anchor="middle" x="200" y="-231.5" font-family="Helvetica,sans-Serif" font-size="10.00">src/Entity.cpp</text>
</a>
</g>
</g>
<!-- Node2&#45;&gt;Node14 -->
<g id="edge19" class="edge">
<title>Node2&#45;&gt;Node14</title>
<path fill="none" stroke="midnightblue" d="M212.45,-270.4C209.28,-261.36 205.61,-250.94 203.08,-243.75"/>
<polygon fill="midnightblue" stroke="midnightblue" points="209.24,-271.81 215.86,-280.08 215.85,-269.49 209.24,-271.81"/>
</g>
<!-- Node2&#45;&gt;Node15 -->
<g id="edge20" class="edge">
<title>Node2&#45;&gt;Node15</title>
<path fill="none" stroke="midnightblue" d="M191.52,-276.1C170.03,-266.01 140.78,-252.27 122.14,-243.52"/>
<polygon fill="midnightblue" stroke="midnightblue" points="190.24,-279.36 200.78,-280.44 193.21,-273.02 190.24,-279.36"/>
</g>
<!-- Node4 -->
<g id="node4" class="node">
<title>Node4</title>
<g id="a_node4"><a xlink:href="Attacker_8cpp.html" target="_top" xlink:title=" ">
<polygon fill="white" stroke="black" points="261,-168.5 261,-187.5 355,-187.5 355,-168.5 261,-168.5"/>
<text text-anchor="middle" x="308" y="-175.5" font-family="Helvetica,sans-Serif" font-size="10.00">src/Attacker.cpp</text>
</a>
</g>
</g>
<!-- Node3&#45;&gt;Node4 -->
<g id="edge3" class="edge">
<title>Node3&#45;&gt;Node4</title>
<path fill="none" stroke="midnightblue" d="M328.82,-215.27C323.53,-206.05 317.28,-195.17 313.02,-187.75"/>
<polygon fill="midnightblue" stroke="midnightblue" points="325.87,-217.15 333.88,-224.08 331.94,-213.67 325.87,-217.15"/>
</g>
<!-- Node3&#45;&gt;Node5 -->
<g id="edge4" class="edge">
<title>Node3&#45;&gt;Node5</title>
<path fill="none" stroke="midnightblue" d="M301.74,-221.44C268.93,-211.26 221.92,-196.66 192.44,-187.52"/>
<polygon fill="midnightblue" stroke="midnightblue" points="300.84,-224.82 311.43,-224.44 302.92,-218.14 300.84,-224.82"/>
</g>
<!-- Node3&#45;&gt;Node8 -->
<g id="edge15" class="edge">
<title>Node3&#45;&gt;Node8</title>
<path fill="none" stroke="midnightblue" d="M303,-220.45C285.91,-213.09 266.18,-202.37 252,-188 225.48,-161.11 238.53,-140.71 214,-112 200.73,-96.47 181.01,-83.52 167.17,-75.56"/>
<polygon fill="midnightblue" stroke="midnightblue" points="302.11,-223.87 312.7,-224.4 304.76,-217.39 302.11,-223.87"/>
</g>
<!-- Node3&#45;&gt;Node12 -->
<g id="edge12" class="edge">
<title>Node3&#45;&gt;Node12</title>
<path fill="none" stroke="midnightblue" d="M358.31,-218.1C370.91,-208.38 386.93,-196.03 397.55,-187.83"/>
<polygon fill="midnightblue" stroke="midnightblue" points="356.03,-215.44 350.25,-224.32 360.3,-220.99 356.03,-215.44"/>
</g>
<!-- Node5&#45;&gt;Node6 -->
<g id="edge5" class="edge">
<title>Node5&#45;&gt;Node6</title>
<path fill="none" stroke="midnightblue" d="M196.7,-164.77C223,-154.63 259.72,-140.47 282.92,-131.52"/>
<polygon fill="midnightblue" stroke="midnightblue" points="195.25,-161.58 187.18,-168.44 197.77,-168.11 195.25,-161.58"/>
</g>
<!-- Node5&#45;&gt;Node8 -->
<g id="edge10" class="edge">
<title>Node5&#45;&gt;Node8</title>
<path fill="none" stroke="midnightblue" d="M140.28,-162.9C129.47,-155.28 117.92,-144.79 112,-132 102.16,-110.74 124.86,-87.62 139.6,-75.5"/>
<polygon fill="midnightblue" stroke="midnightblue" points="138.38,-165.84 148.67,-168.39 142.21,-159.98 138.38,-165.84"/>
</g>
<!-- Node11 -->
<g id="node11" class="node">
<title>Node11</title>
<g id="a_node11"><a xlink:href="Player_8cpp.html" target="_top" xlink:title=" ">
<polygon fill="white" stroke="black" points="121,-112.5 121,-131.5 205,-131.5 205,-112.5 121,-112.5"/>
<text text-anchor="middle" x="163" y="-119.5" font-family="Helvetica,sans-Serif" font-size="10.00">src/Player.cpp</text>
</a>
</g>
</g>
<!-- Node5&#45;&gt;Node11 -->
<g id="edge11" class="edge">
<title>Node5&#45;&gt;Node11</title>
<path fill="none" stroke="midnightblue" d="M164.29,-157.8C163.96,-148.91 163.58,-138.78 163.32,-131.75"/>
<polygon fill="midnightblue" stroke="midnightblue" points="160.8,-158.22 164.67,-168.08 167.8,-157.96 160.8,-158.22"/>
</g>
<!-- Node7 -->
<g id="node7" class="node">
<title>Node7</title>
<g id="a_node7"><a xlink:href="Enemy_8cpp.html" target="_top" xlink:title=" ">
<polygon fill="white" stroke="black" points="262,-56.5 262,-75.5 348,-75.5 348,-56.5 262,-56.5"/>
<text text-anchor="middle" x="305" y="-63.5" font-family="Helvetica,sans-Serif" font-size="10.00">src/Enemy.cpp</text>
</a>
</g>
</g>
<!-- Node6&#45;&gt;Node7 -->
<g id="edge6" class="edge">
<title>Node6&#45;&gt;Node7</title>
<path fill="none" stroke="midnightblue" d="M305,-101.8C305,-92.91 305,-82.78 305,-75.75"/>
<polygon fill="midnightblue" stroke="midnightblue" points="301.5,-102.08 305,-112.08 308.5,-102.08 301.5,-102.08"/>
</g>
<!-- Node6&#45;&gt;Node8 -->
<g id="edge7" class="edge">
<title>Node6&#45;&gt;Node8</title>
<path fill="none" stroke="midnightblue" d="M270.89,-109.04C241.91,-98.88 201.04,-84.55 175.29,-75.52"/>
<polygon fill="midnightblue" stroke="midnightblue" points="270,-112.44 280.6,-112.44 272.32,-105.83 270,-112.44"/>
</g>
<!-- Node9 -->
<g id="node9" class="node">
<title>Node9</title>
<g id="a_node9"><a xlink:href="Game_8cpp.html" target="_top" xlink:title=" ">
<polygon fill="white" stroke="black" points="60.5,-0.5 60.5,-19.5 143.5,-19.5 143.5,-0.5 60.5,-0.5"/>
<text text-anchor="middle" x="102" y="-7.5" font-family="Helvetica,sans-Serif" font-size="10.00">src/Game.cpp</text>
</a>
</g>
</g>
<!-- Node8&#45;&gt;Node9 -->
<g id="edge8" class="edge">
<title>Node8&#45;&gt;Node9</title>
<path fill="none" stroke="midnightblue" d="M135.97,-48.43C127.38,-38.97 116.96,-27.48 109.94,-19.75"/>
<polygon fill="midnightblue" stroke="midnightblue" points="133.6,-51.03 142.91,-56.08 138.78,-46.33 133.6,-51.03"/>
</g>
<!-- Node10 -->
<g id="node10" class="node">
<title>Node10</title>
<g id="a_node10"><a xlink:href="main_8cpp.html" target="_top" xlink:title=" ">
<polygon fill="white" stroke="black" points="161.5,-0.5 161.5,-19.5 240.5,-19.5 240.5,-0.5 161.5,-0.5"/>
<text text-anchor="middle" x="201" y="-7.5" font-family="Helvetica,sans-Serif" font-size="10.00">src/main.cpp</text>
</a>
</g>
</g>
<!-- Node8&#45;&gt;Node10 -->
<g id="edge9" class="edge">
<title>Node8&#45;&gt;Node10</title>
<path fill="none" stroke="midnightblue" d="M166.08,-48.72C174.89,-39.2 185.67,-27.56 192.9,-19.75"/>
<polygon fill="midnightblue" stroke="midnightblue" points="163.48,-46.37 159.26,-56.08 168.62,-51.12 163.48,-46.37"/>
</g>
<!-- Node12&#45;&gt;Node6 -->
<g id="edge13" class="edge">
<title>Node12&#45;&gt;Node6</title>
<path fill="none" stroke="midnightblue" d="M383.17,-163.59C363.94,-153.61 338.26,-140.27 321.67,-131.65"/>
<polygon fill="midnightblue" stroke="midnightblue" points="381.8,-166.82 392.29,-168.32 385.03,-160.61 381.8,-166.82"/>
</g>
<!-- Node13 -->
<g id="node13" class="node">
<title>Node13</title>
<g id="a_node13"><a xlink:href="Tower_8cpp.html" target="_top" xlink:title=" ">
<polygon fill="white" stroke="black" points="368,-112.5 368,-131.5 450,-131.5 450,-112.5 368,-112.5"/>
<text text-anchor="middle" x="409" y="-119.5" font-family="Helvetica,sans-Serif" font-size="10.00">src/Tower.cpp</text>
</a>
</g>
</g>
<!-- Node12&#45;&gt;Node13 -->
<g id="edge14" class="edge">
<title>Node12&#45;&gt;Node13</title>
<path fill="none" stroke="midnightblue" d="M409,-157.8C409,-148.91 409,-138.78 409,-131.75"/>
<polygon fill="midnightblue" stroke="midnightblue" points="405.5,-158.08 409,-168.08 412.5,-158.08 405.5,-158.08"/>
</g>
</g>
</svg>
