<?xml version="1.0" encoding="UTF-8" standalone="no"?>
<!DOCTYPE svg PUBLIC "-//W3C//DTD SVG 1.1//EN"
 "http://www.w3.org/Graphics/SVG/1.1/DTD/svg11.dtd">
<!-- Generated by graphviz version 2.43.0 (0)
 -->
<!-- Title: src/Map.cpp Pages: 1 -->
<svg width="360pt" height="140pt"
 viewBox="0.00 0.00 359.50 140.00" xmlns="http://www.w3.org/2000/svg" xmlns:xlink="http://www.w3.org/1999/xlink">
<g id="graph0" class="graph" transform="scale(1 1) rotate(0) translate(4 136)">
<title>src/Map.cpp</title>
<polygon fill="white" stroke="transparent" points="-4,4 -4,-136 355.5,-136 355.5,4 -4,4"/>
<!-- Node1 -->
<g id="node1" class="node">
<title>Node1</title>
<g id="a_node1"><a xlink:title=" ">
<polygon fill="#bfbfbf" stroke="black" points="143.5,-112.5 143.5,-131.5 218.5,-131.5 218.5,-112.5 143.5,-112.5"/>
<text text-anchor="middle" x="181" y="-119.5" font-family="Helvetica,sans-Serif" font-size="10.00">src/Map.cpp</text>
</a>
</g>
</g>
<!-- Node2 -->
<g id="node2" class="node">
<title>Node2</title>
<g id="a_node2"><a xlink:title=" ">
<polygon fill="white" stroke="#bfbfbf" points="0,-56.5 0,-75.5 60,-75.5 60,-56.5 0,-56.5"/>
<text text-anchor="middle" x="30" y="-63.5" font-family="Helvetica,sans-Serif" font-size="10.00">iostream</text>
</a>
</g>
</g>
<!-- Node1&#45;&gt;Node2 -->
<g id="edge1" class="edge">
<title>Node1&#45;&gt;Node2</title>
<path fill="none" stroke="midnightblue" d="M157.07,-112.44C131.78,-103.4 91.7,-89.06 63.32,-78.92"/>
<polygon fill="midnightblue" stroke="midnightblue" points="64.41,-75.59 53.81,-75.52 62.05,-82.18 64.41,-75.59"/>
</g>
<!-- Node3 -->
<g id="node3" class="node">
<title>Node3</title>
<g id="a_node3"><a xlink:title=" ">
<polygon fill="white" stroke="#bfbfbf" points="78.5,-56.5 78.5,-75.5 133.5,-75.5 133.5,-56.5 78.5,-56.5"/>
<text text-anchor="middle" x="106" y="-63.5" font-family="Helvetica,sans-Serif" font-size="10.00">fstream</text>
</a>
</g>
</g>
<!-- Node1&#45;&gt;Node3 -->
<g id="edge2" class="edge">
<title>Node1&#45;&gt;Node3</title>
<path fill="none" stroke="midnightblue" d="M168.95,-112.32C157.54,-104.11 140.17,-91.6 126.57,-81.81"/>
<polygon fill="midnightblue" stroke="midnightblue" points="128.43,-78.84 118.27,-75.83 124.34,-84.52 128.43,-78.84"/>
</g>
<!-- Node4 -->
<g id="node4" class="node">
<title>Node4</title>
<g id="a_node4"><a xlink:title=" ">
<polygon fill="white" stroke="#bfbfbf" points="152,-56.5 152,-75.5 210,-75.5 210,-56.5 152,-56.5"/>
<text text-anchor="middle" x="181" y="-63.5" font-family="Helvetica,sans-Serif" font-size="10.00">memory</text>
</a>
</g>
</g>
<!-- Node1&#45;&gt;Node4 -->
<g id="edge3" class="edge">
<title>Node1&#45;&gt;Node4</title>
<path fill="none" stroke="midnightblue" d="M181,-112.08C181,-105.01 181,-94.86 181,-85.99"/>
<polygon fill="midnightblue" stroke="midnightblue" points="184.5,-85.75 181,-75.75 177.5,-85.75 184.5,-85.75"/>
</g>
<!-- Node5 -->
<g id="node5" class="node">
<title>Node5</title>
<g id="a_node5"><a xlink:href="logFile_8h.html" target="_top" xlink:title=" ">
<polygon fill="white" stroke="black" points="228,-56.5 228,-75.5 286,-75.5 286,-56.5 228,-56.5"/>
<text text-anchor="middle" x="257" y="-63.5" font-family="Helvetica,sans-Serif" font-size="10.00">logFile.h</text>
</a>
</g>
</g>
<!-- Node1&#45;&gt;Node5 -->
<g id="edge4" class="edge">
<title>Node1&#45;&gt;Node5</title>
<path fill="none" stroke="midnightblue" d="M193.21,-112.32C204.78,-104.11 222.38,-91.6 236.16,-81.81"/>
<polygon fill="midnightblue" stroke="midnightblue" points="238.44,-84.48 244.57,-75.83 234.39,-78.77 238.44,-84.48"/>
</g>
<!-- Node7 -->
<g id="node7" class="node">
<title>Node7</title>
<g id="a_node7"><a xlink:href="Map_8h.html" target="_top" xlink:title=" ">
<polygon fill="white" stroke="black" points="304.5,-56.5 304.5,-75.5 351.5,-75.5 351.5,-56.5 304.5,-56.5"/>
<text text-anchor="middle" x="328" y="-63.5" font-family="Helvetica,sans-Serif" font-size="10.00">Map.h</text>
</a>
</g>
</g>
<!-- Node1&#45;&gt;Node7 -->
<g id="edge6" class="edge">
<title>Node1&#45;&gt;Node7</title>
<path fill="none" stroke="midnightblue" d="M204.29,-112.44C228.81,-103.44 267.6,-89.19 295.2,-79.05"/>
<polygon fill="midnightblue" stroke="midnightblue" points="296.64,-82.25 304.82,-75.52 294.22,-75.68 296.64,-82.25"/>
</g>
<!-- Node6 -->
<g id="node6" class="node">
<title>Node6</title>
<g id="a_node6"><a xlink:title=" ">
<polygon fill="white" stroke="#bfbfbf" points="239,-0.5 239,-19.5 283,-19.5 283,-0.5 239,-0.5"/>
<text text-anchor="middle" x="261" y="-7.5" font-family="Helvetica,sans-Serif" font-size="10.00">string</text>
</a>
</g>
</g>
<!-- Node5&#45;&gt;Node6 -->
<g id="edge5" class="edge">
<title>Node5&#45;&gt;Node6</title>
<path fill="none" stroke="midnightblue" d="M257.66,-56.08C258.18,-49.01 258.94,-38.86 259.59,-29.99"/>
<polygon fill="midnightblue" stroke="midnightblue" points="263.1,-29.98 260.35,-19.75 256.12,-29.47 263.1,-29.98"/>
</g>
<!-- Node7&#45;&gt;Node6 -->
<g id="edge8" class="edge">
<title>Node7&#45;&gt;Node6</title>
<path fill="none" stroke="midnightblue" d="M317.24,-56.32C307.23,-48.26 292.11,-36.08 280.07,-26.37"/>
<polygon fill="midnightblue" stroke="midnightblue" points="281.94,-23.38 271.96,-19.83 277.55,-28.83 281.94,-23.38"/>
</g>
<!-- Node8 -->
<g id="node8" class="node">
<title>Node8</title>
<g id="a_node8"><a xlink:title=" ">
<polygon fill="white" stroke="#bfbfbf" points="304.5,-0.5 304.5,-19.5 351.5,-19.5 351.5,-0.5 304.5,-0.5"/>
<text text-anchor="middle" x="328" y="-7.5" font-family="Helvetica,sans-Serif" font-size="10.00">vector</text>
</a>
</g>
</g>
<!-- Node7&#45;&gt;Node8 -->
<g id="edge7" class="edge">
<title>Node7&#45;&gt;Node8</title>
<path fill="none" stroke="midnightblue" d="M328,-56.08C328,-49.01 328,-38.86 328,-29.99"/>
<polygon fill="midnightblue" stroke="midnightblue" points="331.5,-29.75 328,-19.75 324.5,-29.75 331.5,-29.75"/>
</g>
</g>
</svg>
