<?xml version="1.0" encoding="UTF-8" standalone="no"?>
<!DOCTYPE svg PUBLIC "-//W3C//DTD SVG 1.1//EN"
 "http://www.w3.org/Graphics/SVG/1.1/DTD/svg11.dtd">
<!-- Generated by graphviz version 2.43.0 (0)
 -->
<!-- Title: src/Map.h Pages: 1 -->
<svg width="437pt" height="140pt"
 viewBox="0.00 0.00 436.50 140.00" xmlns="http://www.w3.org/2000/svg" xmlns:xlink="http://www.w3.org/1999/xlink">
<g id="graph0" class="graph" transform="scale(1 1) rotate(0) translate(4 136)">
<title>src/Map.h</title>
<polygon fill="white" stroke="transparent" points="-4,4 -4,-136 432.5,-136 432.5,4 -4,4"/>
<!-- Node1 -->
<g id="node1" class="node">
<title>Node1</title>
<g id="a_node1"><a xlink:title=" ">
<polygon fill="#bfbfbf" stroke="black" points="165.5,-112.5 165.5,-131.5 229.5,-131.5 229.5,-112.5 165.5,-112.5"/>
<text text-anchor="middle" x="197.5" y="-119.5" font-family="Helvetica,sans-Serif" font-size="10.00">src/Map.h</text>
</a>
</g>
</g>
<!-- Node2 -->
<g id="node2" class="node">
<title>Node2</title>
<g id="a_node2"><a xlink:title=" ">
<polygon fill="white" stroke="#bfbfbf" points="0,-56.5 0,-75.5 47,-75.5 47,-56.5 0,-56.5"/>
<text text-anchor="middle" x="23.5" y="-63.5" font-family="Helvetica,sans-Serif" font-size="10.00">vector</text>
</a>
</g>
</g>
<!-- Node1&#45;&gt;Node2 -->
<g id="edge1" class="edge">
<title>Node1&#45;&gt;Node2</title>
<path fill="none" stroke="midnightblue" d="M169.93,-112.44C139.19,-102.9 89.48,-87.48 56.64,-77.29"/>
<polygon fill="midnightblue" stroke="midnightblue" points="57.62,-73.93 47.04,-74.3 55.55,-80.61 57.62,-73.93"/>
</g>
<!-- Node3 -->
<g id="node3" class="node">
<title>Node3</title>
<g id="a_node3"><a xlink:title=" ">
<polygon fill="white" stroke="#bfbfbf" points="65.5,-56.5 65.5,-75.5 109.5,-75.5 109.5,-56.5 65.5,-56.5"/>
<text text-anchor="middle" x="87.5" y="-63.5" font-family="Helvetica,sans-Serif" font-size="10.00">string</text>
</a>
</g>
</g>
<!-- Node1&#45;&gt;Node3 -->
<g id="edge2" class="edge">
<title>Node1&#45;&gt;Node3</title>
<path fill="none" stroke="midnightblue" d="M179.83,-112.32C162.11,-103.62 134.6,-90.12 114.21,-80.11"/>
<polygon fill="midnightblue" stroke="midnightblue" points="115.65,-76.92 105.13,-75.65 112.56,-83.2 115.65,-76.92"/>
</g>
<!-- Node4 -->
<g id="node4" class="node">
<title>Node4</title>
<g id="a_node4"><a xlink:title=" ">
<polygon fill="white" stroke="#bfbfbf" points="175.5,-0.5 175.5,-19.5 233.5,-19.5 233.5,-0.5 175.5,-0.5"/>
<text text-anchor="middle" x="204.5" y="-7.5" font-family="Helvetica,sans-Serif" font-size="10.00">memory</text>
</a>
</g>
</g>
<!-- Node1&#45;&gt;Node4 -->
<g id="edge3" class="edge">
<title>Node1&#45;&gt;Node4</title>
<path fill="none" stroke="midnightblue" d="M185.51,-112.44C170.31,-100.45 147.11,-77.67 156.5,-56 161.77,-43.84 172.12,-33.46 181.86,-25.74"/>
<polygon fill="midnightblue" stroke="midnightblue" points="184.14,-28.41 190.13,-19.67 180,-22.77 184.14,-28.41"/>
</g>
<!-- Node5 -->
<g id="node5" class="node">
<title>Node5</title>
<g id="a_node5"><a xlink:title=" ">
<polygon fill="white" stroke="#bfbfbf" points="166,-56.5 166,-75.5 229,-75.5 229,-56.5 166,-56.5"/>
<text text-anchor="middle" x="197.5" y="-63.5" font-family="Helvetica,sans-Serif" font-size="10.00">ncurses.h</text>
</a>
</g>
</g>
<!-- Node1&#45;&gt;Node5 -->
<g id="edge4" class="edge">
<title>Node1&#45;&gt;Node5</title>
<path fill="none" stroke="midnightblue" d="M197.5,-112.08C197.5,-105.01 197.5,-94.86 197.5,-85.99"/>
<polygon fill="midnightblue" stroke="midnightblue" points="201,-85.75 197.5,-75.75 194,-85.75 201,-85.75"/>
</g>
<!-- Node6 -->
<g id="node6" class="node">
<title>Node6</title>
<g id="a_node6"><a xlink:title=" ">
<polygon fill="white" stroke="#bfbfbf" points="247,-56.5 247,-75.5 312,-75.5 312,-56.5 247,-56.5"/>
<text text-anchor="middle" x="279.5" y="-63.5" font-family="Helvetica,sans-Serif" font-size="10.00">functional</text>
</a>
</g>
</g>
<!-- Node1&#45;&gt;Node6 -->
<g id="edge5" class="edge">
<title>Node1&#45;&gt;Node6</title>
<path fill="none" stroke="midnightblue" d="M210.67,-112.32C223.35,-103.98 242.73,-91.21 257.71,-81.35"/>
<polygon fill="midnightblue" stroke="midnightblue" points="259.93,-84.08 266.36,-75.65 256.08,-78.23 259.93,-84.08"/>
</g>
<!-- Node7 -->
<g id="node7" class="node">
<title>Node7</title>
<g id="a_node7"><a xlink:href="Entity_8h.html" target="_top" xlink:title=" ">
<polygon fill="white" stroke="black" points="330,-56.5 330,-75.5 383,-75.5 383,-56.5 330,-56.5"/>
<text text-anchor="middle" x="356.5" y="-63.5" font-family="Helvetica,sans-Serif" font-size="10.00">Entity.h</text>
</a>
</g>
</g>
<!-- Node1&#45;&gt;Node7 -->
<g id="edge6" class="edge">
<title>Node1&#45;&gt;Node7</title>
<path fill="none" stroke="midnightblue" d="M217.61,-112.44C243.42,-102.97 288.27,-87.7 320.09,-77.5"/>
<polygon fill="midnightblue" stroke="midnightblue" points="321.45,-80.75 329.93,-74.39 319.34,-74.07 321.45,-80.75"/>
</g>
<!-- Node7&#45;&gt;Node1 -->
<g id="edge8" class="edge">
<title>Node7&#45;&gt;Node1</title>
<path fill="none" stroke="midnightblue" d="M336.5,-75.52C311.69,-84.62 269.18,-99.13 237.61,-109.3"/>
<polygon fill="midnightblue" stroke="midnightblue" points="236.24,-106.07 227.78,-112.44 238.37,-112.74 236.24,-106.07"/>
</g>
<!-- Node7&#45;&gt;Node4 -->
<g id="edge10" class="edge">
<title>Node7&#45;&gt;Node4</title>
<path fill="none" stroke="midnightblue" d="M332.42,-56.44C306.96,-47.4 266.61,-33.06 238.04,-22.92"/>
<polygon fill="midnightblue" stroke="midnightblue" points="239.07,-19.57 228.47,-19.52 236.72,-26.16 239.07,-19.57"/>
</g>
<!-- Node8 -->
<g id="node8" class="node">
<title>Node8</title>
<g id="a_node8"><a xlink:href="constants_8h.html" target="_top" xlink:title=" ">
<polygon fill="white" stroke="black" points="277,-0.5 277,-19.5 350,-19.5 350,-0.5 277,-0.5"/>
<text text-anchor="middle" x="313.5" y="-7.5" font-family="Helvetica,sans-Serif" font-size="10.00">constants.h</text>
</a>
</g>
</g>
<!-- Node7&#45;&gt;Node8 -->
<g id="edge7" class="edge">
<title>Node7&#45;&gt;Node8</title>
<path fill="none" stroke="midnightblue" d="M349.4,-56.08C343.26,-48.38 334.23,-37.03 326.76,-27.65"/>
<polygon fill="midnightblue" stroke="midnightblue" points="329.44,-25.39 320.47,-19.75 323.96,-29.75 329.44,-25.39"/>
</g>
<!-- Node9 -->
<g id="node9" class="node">
<title>Node9</title>
<g id="a_node9"><a xlink:title=" ">
<polygon fill="white" stroke="#bfbfbf" points="368.5,-0.5 368.5,-19.5 428.5,-19.5 428.5,-0.5 368.5,-0.5"/>
<text text-anchor="middle" x="398.5" y="-7.5" font-family="Helvetica,sans-Serif" font-size="10.00">iostream</text>
</a>
</g>
</g>
<!-- Node7&#45;&gt;Node9 -->
<g id="edge9" class="edge">
<title>Node7&#45;&gt;Node9</title>
<path fill="none" stroke="midnightblue" d="M363.44,-56.08C369.43,-48.38 378.25,-37.03 385.55,-27.65"/>
<polygon fill="midnightblue" stroke="midnightblue" points="388.32,-29.79 391.69,-19.75 382.79,-25.5 388.32,-29.79"/>
</g>
</g>
</svg>
