<?xml version="1.0" encoding="UTF-8" standalone="no"?>
<!DOCTYPE svg PUBLIC "-//W3C//DTD SVG 1.1//EN"
 "http://www.w3.org/Graphics/SVG/1.1/DTD/svg11.dtd">
<!-- Generated by graphviz version 2.43.0 (0)
 -->
<!-- Title: src/Map.h Pages: 1 -->
<svg width="634pt" height="140pt"
 viewBox="0.00 0.00 634.00 140.00" xmlns="http://www.w3.org/2000/svg" xmlns:xlink="http://www.w3.org/1999/xlink">
<g id="graph0" class="graph" transform="scale(1 1) rotate(0) translate(4 136)">
<title>src/Map.h</title>
<polygon fill="white" stroke="transparent" points="-4,4 -4,-136 630,-136 630,4 -4,4"/>
<!-- Node1 -->
<g id="node1" class="node">
<title>Node1</title>
<g id="a_node1"><a xlink:title=" ">
<polygon fill="#bfbfbf" stroke="black" points="187,-112.5 187,-131.5 251,-131.5 251,-112.5 187,-112.5"/>
<text text-anchor="middle" x="219" y="-119.5" font-family="Helvetica,sans-Serif" font-size="10.00">src/Map.h</text>
</a>
</g>
</g>
<!-- Node2 -->
<g id="node2" class="node">
<title>Node2</title>
<g id="a_node2"><a xlink:title=" ">
<polygon fill="white" stroke="#bfbfbf" points="50.5,-56.5 50.5,-75.5 97.5,-75.5 97.5,-56.5 50.5,-56.5"/>
<text text-anchor="middle" x="74" y="-63.5" font-family="Helvetica,sans-Serif" font-size="10.00">vector</text>
</a>
</g>
</g>
<!-- Node1&#45;&gt;Node2 -->
<g id="edge1" class="edge">
<title>Node1&#45;&gt;Node2</title>
<path fill="none" stroke="midnightblue" d="M196.02,-112.44C171.84,-103.44 133.58,-89.19 106.35,-79.05"/>
<polygon fill="midnightblue" stroke="midnightblue" points="107.46,-75.73 96.87,-75.52 105.02,-82.29 107.46,-75.73"/>
</g>
<!-- Node3 -->
<g id="node3" class="node">
<title>Node3</title>
<g id="a_node3"><a xlink:title=" ">
<polygon fill="white" stroke="#bfbfbf" points="378,-0.5 378,-19.5 422,-19.5 422,-0.5 378,-0.5"/>
<text text-anchor="middle" x="400" y="-7.5" font-family="Helvetica,sans-Serif" font-size="10.00">string</text>
</a>
</g>
</g>
<!-- Node1&#45;&gt;Node3 -->
<g id="edge2" class="edge">
<title>Node1&#45;&gt;Node3</title>
<path fill="none" stroke="midnightblue" d="M226.94,-112.43C239.77,-98.97 266.33,-72.7 293,-56 316.7,-41.16 346.14,-29.19 368.14,-21.33"/>
<polygon fill="midnightblue" stroke="midnightblue" points="369.38,-24.61 377.67,-18.02 367.08,-18 369.38,-24.61"/>
</g>
<!-- Node4 -->
<g id="node4" class="node">
<title>Node4</title>
<g id="a_node4"><a xlink:title=" ">
<polygon fill="white" stroke="#bfbfbf" points="0,-0.5 0,-19.5 58,-19.5 58,-0.5 0,-0.5"/>
<text text-anchor="middle" x="29" y="-7.5" font-family="Helvetica,sans-Serif" font-size="10.00">memory</text>
</a>
</g>
</g>
<!-- Node1&#45;&gt;Node4 -->
<g id="edge3" class="edge">
<title>Node1&#45;&gt;Node4</title>
<path fill="none" stroke="midnightblue" d="M204.15,-112.37C182.71,-99.9 141.83,-76.15 107,-56 88.85,-45.5 68.3,-33.64 52.85,-24.74"/>
<polygon fill="midnightblue" stroke="midnightblue" points="54.37,-21.58 43.96,-19.62 50.88,-27.64 54.37,-21.58"/>
</g>
<!-- Node5 -->
<g id="node5" class="node">
<title>Node5</title>
<g id="a_node5"><a xlink:title=" ">
<polygon fill="white" stroke="#bfbfbf" points="76.5,-0.5 76.5,-19.5 139.5,-19.5 139.5,-0.5 76.5,-0.5"/>
<text text-anchor="middle" x="108" y="-7.5" font-family="Helvetica,sans-Serif" font-size="10.00">ncurses.h</text>
</a>
</g>
</g>
<!-- Node1&#45;&gt;Node5 -->
<g id="edge4" class="edge">
<title>Node1&#45;&gt;Node5</title>
<path fill="none" stroke="midnightblue" d="M210.29,-112.37C191.65,-93.89 147.65,-50.29 123.89,-26.74"/>
<polygon fill="midnightblue" stroke="midnightblue" points="126.24,-24.14 116.67,-19.59 121.31,-29.12 126.24,-24.14"/>
</g>
<!-- Node6 -->
<g id="node6" class="node">
<title>Node6</title>
<g id="a_node6"><a xlink:title=" ">
<polygon fill="white" stroke="#bfbfbf" points="398.5,-56.5 398.5,-75.5 463.5,-75.5 463.5,-56.5 398.5,-56.5"/>
<text text-anchor="middle" x="431" y="-63.5" font-family="Helvetica,sans-Serif" font-size="10.00">functional</text>
</a>
</g>
</g>
<!-- Node1&#45;&gt;Node6 -->
<g id="edge5" class="edge">
<title>Node1&#45;&gt;Node6</title>
<path fill="none" stroke="midnightblue" d="M251.2,-112.8C287.93,-103.44 348.14,-88.11 388.65,-77.79"/>
<polygon fill="midnightblue" stroke="midnightblue" points="389.67,-81.14 398.5,-75.28 387.94,-74.36 389.67,-81.14"/>
</g>
<!-- Node7 -->
<g id="node7" class="node">
<title>Node7</title>
<g id="a_node7"><a xlink:title=" ">
<polygon fill="white" stroke="#bfbfbf" points="481.5,-56.5 481.5,-75.5 528.5,-75.5 528.5,-56.5 481.5,-56.5"/>
<text text-anchor="middle" x="505" y="-63.5" font-family="Helvetica,sans-Serif" font-size="10.00">cmath</text>
</a>
</g>
</g>
<!-- Node1&#45;&gt;Node7 -->
<g id="edge6" class="edge">
<title>Node1&#45;&gt;Node7</title>
<path fill="none" stroke="midnightblue" d="M251.28,-116.33C297.88,-109.36 386.87,-95.2 471.3,-76.22"/>
<polygon fill="midnightblue" stroke="midnightblue" points="472.33,-79.58 481.3,-73.95 470.77,-72.75 472.33,-79.58"/>
</g>
<!-- Node8 -->
<g id="node8" class="node">
<title>Node8</title>
<g id="a_node8"><a xlink:href="Entity_8h.html" target="_top" xlink:title=" ">
<polygon fill="white" stroke="black" points="192.5,-56.5 192.5,-75.5 245.5,-75.5 245.5,-56.5 192.5,-56.5"/>
<text text-anchor="middle" x="219" y="-63.5" font-family="Helvetica,sans-Serif" font-size="10.00">Entity.h</text>
</a>
</g>
</g>
<!-- Node1&#45;&gt;Node8 -->
<g id="edge7" class="edge">
<title>Node1&#45;&gt;Node8</title>
<path fill="none" stroke="midnightblue" d="M213.83,-112.08C212.32,-104.93 211.89,-94.64 212.54,-85.69"/>
<polygon fill="midnightblue" stroke="midnightblue" points="216.02,-86.13 213.87,-75.75 209.08,-85.2 216.02,-86.13"/>
</g>
<!-- Node12 -->
<g id="node12" class="node">
<title>Node12</title>
<g id="a_node12"><a xlink:href="Definitions_8h.html" target="_top" xlink:title=" ">
<polygon fill="white" stroke="black" points="302,-56.5 302,-75.5 380,-75.5 380,-56.5 302,-56.5"/>
<text text-anchor="middle" x="341" y="-63.5" font-family="Helvetica,sans-Serif" font-size="10.00">Definitions.h</text>
</a>
</g>
</g>
<!-- Node1&#45;&gt;Node12 -->
<g id="edge14" class="edge">
<title>Node1&#45;&gt;Node12</title>
<path fill="none" stroke="midnightblue" d="M238.33,-112.44C258.32,-103.6 289.74,-89.69 312.56,-79.59"/>
<polygon fill="midnightblue" stroke="midnightblue" points="314.03,-82.76 321.76,-75.52 311.2,-76.36 314.03,-82.76"/>
</g>
<!-- Node8&#45;&gt;Node1 -->
<g id="edge9" class="edge">
<title>Node8&#45;&gt;Node1</title>
<path fill="none" stroke="midnightblue" d="M224.13,-75.75C225.66,-82.86 226.1,-93.14 225.47,-102.1"/>
<polygon fill="midnightblue" stroke="midnightblue" points="221.99,-101.71 224.17,-112.08 228.93,-102.62 221.99,-101.71"/>
</g>
<!-- Node8&#45;&gt;Node4 -->
<g id="edge11" class="edge">
<title>Node8&#45;&gt;Node4</title>
<path fill="none" stroke="midnightblue" d="M192.18,-57.38C159.83,-48.18 105.18,-32.65 68.13,-22.12"/>
<polygon fill="midnightblue" stroke="midnightblue" points="68.75,-18.66 58.18,-19.29 66.84,-25.39 68.75,-18.66"/>
</g>
<!-- Node8&#45;&gt;Node5 -->
<g id="edge13" class="edge">
<title>Node8&#45;&gt;Node5</title>
<path fill="none" stroke="midnightblue" d="M201.17,-56.32C183.28,-47.62 155.52,-34.12 134.95,-24.11"/>
<polygon fill="midnightblue" stroke="midnightblue" points="136.31,-20.88 125.79,-19.65 133.25,-27.18 136.31,-20.88"/>
</g>
<!-- Node9 -->
<g id="node9" class="node">
<title>Node9</title>
<g id="a_node9"><a xlink:href="constants_8h.html" target="_top" xlink:title=" ">
<polygon fill="white" stroke="black" points="286.5,-0.5 286.5,-19.5 359.5,-19.5 359.5,-0.5 286.5,-0.5"/>
<text text-anchor="middle" x="323" y="-7.5" font-family="Helvetica,sans-Serif" font-size="10.00">constants.h</text>
</a>
</g>
</g>
<!-- Node8&#45;&gt;Node9 -->
<g id="edge8" class="edge">
<title>Node8&#45;&gt;Node9</title>
<path fill="none" stroke="midnightblue" d="M235.71,-56.32C252.31,-47.7 278,-34.36 297.22,-24.39"/>
<polygon fill="midnightblue" stroke="midnightblue" points="299.07,-27.37 306.33,-19.65 295.84,-21.16 299.07,-27.37"/>
</g>
<!-- Node10 -->
<g id="node10" class="node">
<title>Node10</title>
<g id="a_node10"><a xlink:title=" ">
<polygon fill="white" stroke="#bfbfbf" points="208,-0.5 208,-19.5 268,-19.5 268,-0.5 208,-0.5"/>
<text text-anchor="middle" x="238" y="-7.5" font-family="Helvetica,sans-Serif" font-size="10.00">iostream</text>
</a>
</g>
</g>
<!-- Node8&#45;&gt;Node10 -->
<g id="edge10" class="edge">
<title>Node8&#45;&gt;Node10</title>
<path fill="none" stroke="midnightblue" d="M222.14,-56.08C224.68,-48.85 228.36,-38.41 231.53,-29.4"/>
<polygon fill="midnightblue" stroke="midnightblue" points="234.9,-30.35 234.92,-19.75 228.3,-28.02 234.9,-30.35"/>
</g>
<!-- Node11 -->
<g id="node11" class="node">
<title>Node11</title>
<g id="a_node11"><a xlink:title=" ">
<polygon fill="white" stroke="#bfbfbf" points="158,-0.5 158,-19.5 190,-19.5 190,-0.5 158,-0.5"/>
<text text-anchor="middle" x="174" y="-7.5" font-family="Helvetica,sans-Serif" font-size="10.00">set</text>
</a>
</g>
</g>
<!-- Node8&#45;&gt;Node11 -->
<g id="edge12" class="edge">
<title>Node8&#45;&gt;Node11</title>
<path fill="none" stroke="midnightblue" d="M211.57,-56.08C205.15,-48.38 195.69,-37.03 187.88,-27.65"/>
<polygon fill="midnightblue" stroke="midnightblue" points="190.38,-25.19 181.29,-19.75 185.01,-29.67 190.38,-25.19"/>
</g>
<!-- Node12&#45;&gt;Node3 -->
<g id="edge17" class="edge">
<title>Node12&#45;&gt;Node3</title>
<path fill="none" stroke="midnightblue" d="M350.48,-56.32C359.2,-48.34 372.34,-36.31 382.9,-26.65"/>
<polygon fill="midnightblue" stroke="midnightblue" points="385.33,-29.17 390.35,-19.83 380.61,-24 385.33,-29.17"/>
</g>
<!-- Node12&#45;&gt;Node9 -->
<g id="edge20" class="edge">
<title>Node12&#45;&gt;Node9</title>
<path fill="none" stroke="midnightblue" d="M338.03,-56.08C335.62,-48.85 332.14,-38.41 329.13,-29.4"/>
<polygon fill="midnightblue" stroke="midnightblue" points="332.4,-28.13 325.92,-19.75 325.76,-30.34 332.4,-28.13"/>
</g>
<!-- Node12&#45;&gt;Node10 -->
<g id="edge19" class="edge">
<title>Node12&#45;&gt;Node10</title>
<path fill="none" stroke="midnightblue" d="M324.45,-56.32C308.01,-47.7 282.57,-34.36 263.53,-24.39"/>
<polygon fill="midnightblue" stroke="midnightblue" points="264.99,-21.2 254.51,-19.65 261.74,-27.4 264.99,-21.2"/>
</g>
<!-- Node13 -->
<g id="node13" class="node">
<title>Node13</title>
<g id="a_node13"><a xlink:title=" ">
<polygon fill="white" stroke="#bfbfbf" points="440.5,-0.5 440.5,-19.5 495.5,-19.5 495.5,-0.5 440.5,-0.5"/>
<text text-anchor="middle" x="468" y="-7.5" font-family="Helvetica,sans-Serif" font-size="10.00">fstream</text>
</a>
</g>
</g>
<!-- Node12&#45;&gt;Node13 -->
<g id="edge15" class="edge">
<title>Node12&#45;&gt;Node13</title>
<path fill="none" stroke="midnightblue" d="M361.12,-56.44C382.02,-47.56 414.93,-33.56 438.72,-23.45"/>
<polygon fill="midnightblue" stroke="midnightblue" points="440.14,-26.65 447.97,-19.52 437.4,-20.21 440.14,-26.65"/>
</g>
<!-- Node14 -->
<g id="node14" class="node">
<title>Node14</title>
<g id="a_node14"><a xlink:title=" ">
<polygon fill="white" stroke="#bfbfbf" points="514,-0.5 514,-19.5 552,-19.5 552,-0.5 514,-0.5"/>
<text text-anchor="middle" x="533" y="-7.5" font-family="Helvetica,sans-Serif" font-size="10.00">map</text>
</a>
</g>
</g>
<!-- Node12&#45;&gt;Node14 -->
<g id="edge16" class="edge">
<title>Node12&#45;&gt;Node14</title>
<path fill="none" stroke="midnightblue" d="M373.79,-56.45C404.97,-48.22 453.41,-35.18 503.96,-20.22"/>
<polygon fill="midnightblue" stroke="midnightblue" points="505.17,-23.51 513.75,-17.31 503.17,-16.8 505.17,-23.51"/>
</g>
<!-- Node15 -->
<g id="node15" class="node">
<title>Node15</title>
<g id="a_node15"><a xlink:title=" ">
<polygon fill="white" stroke="#bfbfbf" points="570,-0.5 570,-19.5 626,-19.5 626,-0.5 570,-0.5"/>
<text text-anchor="middle" x="598" y="-7.5" font-family="Helvetica,sans-Serif" font-size="10.00">sstream</text>
</a>
</g>
</g>
<!-- Node12&#45;&gt;Node15 -->
<g id="edge18" class="edge">
<title>Node12&#45;&gt;Node15</title>
<path fill="none" stroke="midnightblue" d="M380.04,-57.47C422.03,-49.26 491,-35.5 559.62,-20.25"/>
<polygon fill="midnightblue" stroke="midnightblue" points="560.75,-23.58 569.74,-17.99 559.22,-16.75 560.75,-23.58"/>
</g>
</g>
</svg>
