<?xml version="1.0" encoding="UTF-8" standalone="no"?>
<!DOCTYPE svg PUBLIC "-//W3C//DTD SVG 1.1//EN"
 "http://www.w3.org/Graphics/SVG/1.1/DTD/svg11.dtd">
<!-- Generated by graphviz version 2.43.0 (0)
 -->
<!-- Title: src/Map.cpp Pages: 1 -->
<svg width="588pt" height="196pt"
 viewBox="0.00 0.00 587.70 196.00" xmlns="http://www.w3.org/2000/svg" xmlns:xlink="http://www.w3.org/1999/xlink">
<g id="graph0" class="graph" transform="scale(1 1) rotate(0) translate(4 192)">
<title>src/Map.cpp</title>
<polygon fill="white" stroke="transparent" points="-4,4 -4,-192 583.7,-192 583.7,4 -4,4"/>
<!-- Node1 -->
<g id="node1" class="node">
<title>Node1</title>
<g id="a_node1"><a xlink:title=" ">
<polygon fill="#bfbfbf" stroke="black" points="210.7,-168.5 210.7,-187.5 285.7,-187.5 285.7,-168.5 210.7,-168.5"/>
<text text-anchor="middle" x="248.2" y="-175.5" font-family="Helvetica,sans-Serif" font-size="10.00">src/Map.cpp</text>
</a>
</g>
</g>
<!-- Node2 -->
<g id="node2" class="node">
<title>Node2</title>
<g id="a_node2"><a xlink:title=" ">
<polygon fill="white" stroke="#bfbfbf" points="13.2,-56.5 13.2,-75.5 73.2,-75.5 73.2,-56.5 13.2,-56.5"/>
<text text-anchor="middle" x="43.2" y="-63.5" font-family="Helvetica,sans-Serif" font-size="10.00">iostream</text>
</a>
</g>
</g>
<!-- Node1&#45;&gt;Node2 -->
<g id="edge1" class="edge">
<title>Node1&#45;&gt;Node2</title>
<path fill="none" stroke="midnightblue" d="M229.91,-168.35C211.42,-159.51 182.1,-145.24 157.2,-132 125.38,-115.08 89.35,-94.25 66.47,-80.8"/>
<polygon fill="midnightblue" stroke="midnightblue" points="68.19,-77.76 57.8,-75.69 64.64,-83.79 68.19,-77.76"/>
</g>
<!-- Node3 -->
<g id="node3" class="node">
<title>Node3</title>
<g id="a_node3"><a xlink:title=" ">
<polygon fill="white" stroke="#bfbfbf" points="524.7,-112.5 524.7,-131.5 579.7,-131.5 579.7,-112.5 524.7,-112.5"/>
<text text-anchor="middle" x="552.2" y="-119.5" font-family="Helvetica,sans-Serif" font-size="10.00">fstream</text>
</a>
</g>
</g>
<!-- Node1&#45;&gt;Node3 -->
<g id="edge2" class="edge">
<title>Node1&#45;&gt;Node3</title>
<path fill="none" stroke="midnightblue" d="M286.03,-171C337.05,-162.8 430.67,-147.34 510.2,-132 511.66,-131.72 513.16,-131.42 514.66,-131.12"/>
<polygon fill="midnightblue" stroke="midnightblue" points="515.58,-134.51 524.67,-129.07 514.17,-127.65 515.58,-134.51"/>
</g>
<!-- Node4 -->
<g id="node4" class="node">
<title>Node4</title>
<g id="a_node4"><a xlink:title=" ">
<polygon fill="white" stroke="#bfbfbf" points="71.2,-0.5 71.2,-19.5 129.2,-19.5 129.2,-0.5 71.2,-0.5"/>
<text text-anchor="middle" x="100.2" y="-7.5" font-family="Helvetica,sans-Serif" font-size="10.00">memory</text>
</a>
</g>
</g>
<!-- Node1&#45;&gt;Node4 -->
<g id="edge3" class="edge">
<title>Node1&#45;&gt;Node4</title>
<path fill="none" stroke="midnightblue" d="M210.38,-174.35C153.68,-168.07 48.56,-146.94 4.2,-76 -12.65,-49.05 27.81,-30.62 61.3,-20.45"/>
<polygon fill="midnightblue" stroke="midnightblue" points="62.3,-23.8 70.95,-17.68 60.37,-17.07 62.3,-23.8"/>
</g>
<!-- Node5 -->
<g id="node5" class="node">
<title>Node5</title>
<g id="a_node5"><a xlink:href="logFile_8h.html" target="_top" xlink:title=" ">
<polygon fill="white" stroke="black" points="306.2,-112.5 306.2,-131.5 364.2,-131.5 364.2,-112.5 306.2,-112.5"/>
<text text-anchor="middle" x="335.2" y="-119.5" font-family="Helvetica,sans-Serif" font-size="10.00">logFile.h</text>
</a>
</g>
</g>
<!-- Node1&#45;&gt;Node5 -->
<g id="edge4" class="edge">
<title>Node1&#45;&gt;Node5</title>
<path fill="none" stroke="midnightblue" d="M262.18,-168.32C275.75,-159.9 296.58,-146.97 312.52,-137.07"/>
<polygon fill="midnightblue" stroke="midnightblue" points="314.6,-139.9 321.26,-131.65 310.91,-133.95 314.6,-139.9"/>
</g>
<!-- Node10 -->
<g id="node10" class="node">
<title>Node10</title>
<g id="a_node10"><a xlink:href="Entity_8h.html" target="_top" xlink:title=" ">
<polygon fill="white" stroke="black" points="166.7,-112.5 166.7,-131.5 219.7,-131.5 219.7,-112.5 166.7,-112.5"/>
<text text-anchor="middle" x="193.2" y="-119.5" font-family="Helvetica,sans-Serif" font-size="10.00">Entity.h</text>
</a>
</g>
</g>
<!-- Node1&#45;&gt;Node10 -->
<g id="edge10" class="edge">
<title>Node1&#45;&gt;Node10</title>
<path fill="none" stroke="midnightblue" d="M239.12,-168.08C231.03,-160.14 219,-148.34 209.29,-138.8"/>
<polygon fill="midnightblue" stroke="midnightblue" points="211.7,-136.26 202.11,-131.75 206.8,-141.25 211.7,-136.26"/>
</g>
<!-- Node12 -->
<g id="node12" class="node">
<title>Node12</title>
<g id="a_node12"><a xlink:href="Map_8h.html" target="_top" xlink:title=" ">
<polygon fill="white" stroke="black" points="221.7,-56.5 221.7,-75.5 268.7,-75.5 268.7,-56.5 221.7,-56.5"/>
<text text-anchor="middle" x="245.2" y="-63.5" font-family="Helvetica,sans-Serif" font-size="10.00">Map.h</text>
</a>
</g>
</g>
<!-- Node1&#45;&gt;Node12 -->
<g id="edge21" class="edge">
<title>Node1&#45;&gt;Node12</title>
<path fill="none" stroke="midnightblue" d="M247.96,-168.37C247.48,-150.62 246.36,-109.67 245.71,-85.6"/>
<polygon fill="midnightblue" stroke="midnightblue" points="249.2,-85.49 245.43,-75.59 242.21,-85.68 249.2,-85.49"/>
</g>
<!-- Node14 -->
<g id="node14" class="node">
<title>Node14</title>
<g id="a_node14"><a xlink:title=" ">
<polygon fill="white" stroke="#bfbfbf" points="452.7,-0.5 452.7,-19.5 515.7,-19.5 515.7,-0.5 452.7,-0.5"/>
<text text-anchor="middle" x="484.2" y="-7.5" font-family="Helvetica,sans-Serif" font-size="10.00">ncurses.h</text>
</a>
</g>
</g>
<!-- Node1&#45;&gt;Node14 -->
<g id="edge22" class="edge">
<title>Node1&#45;&gt;Node14</title>
<path fill="none" stroke="midnightblue" d="M286.11,-172.6C339.13,-164.2 433.79,-140.54 477.2,-76 486.21,-62.61 487.37,-44.04 486.62,-30.18"/>
<polygon fill="midnightblue" stroke="midnightblue" points="490.07,-29.5 485.67,-19.86 483.1,-30.13 490.07,-29.5"/>
</g>
<!-- Node6 -->
<g id="node6" class="node">
<title>Node6</title>
<g id="a_node6"><a xlink:title=" ">
<polygon fill="white" stroke="#bfbfbf" points="296.2,-0.5 296.2,-19.5 340.2,-19.5 340.2,-0.5 296.2,-0.5"/>
<text text-anchor="middle" x="318.2" y="-7.5" font-family="Helvetica,sans-Serif" font-size="10.00">string</text>
</a>
</g>
</g>
<!-- Node5&#45;&gt;Node6 -->
<g id="edge5" class="edge">
<title>Node5&#45;&gt;Node6</title>
<path fill="none" stroke="midnightblue" d="M330.58,-112.34C326.14,-103.49 319.74,-89.22 317.2,-76 314.23,-60.57 314.78,-42.7 315.91,-29.61"/>
<polygon fill="midnightblue" stroke="midnightblue" points="319.41,-29.82 316.97,-19.51 312.44,-29.09 319.41,-29.82"/>
</g>
<!-- Node7 -->
<g id="node7" class="node">
<title>Node7</title>
<g id="a_node7"><a xlink:title=" ">
<polygon fill="white" stroke="#bfbfbf" points="422.7,-56.5 422.7,-75.5 467.7,-75.5 467.7,-56.5 422.7,-56.5"/>
<text text-anchor="middle" x="445.2" y="-63.5" font-family="Helvetica,sans-Serif" font-size="10.00">utility</text>
</a>
</g>
</g>
<!-- Node5&#45;&gt;Node7 -->
<g id="edge6" class="edge">
<title>Node5&#45;&gt;Node7</title>
<path fill="none" stroke="midnightblue" d="M352.87,-112.32C370.59,-103.62 398.1,-90.12 418.49,-80.11"/>
<polygon fill="midnightblue" stroke="midnightblue" points="420.14,-83.2 427.57,-75.65 417.05,-76.92 420.14,-83.2"/>
</g>
<!-- Node8 -->
<g id="node8" class="node">
<title>Node8</title>
<g id="a_node8"><a xlink:href="exceptions_8h.html" target="_top" xlink:title=" ">
<polygon fill="white" stroke="black" points="325.7,-56.5 325.7,-75.5 404.7,-75.5 404.7,-56.5 325.7,-56.5"/>
<text text-anchor="middle" x="365.2" y="-63.5" font-family="Helvetica,sans-Serif" font-size="10.00">exceptions.h</text>
</a>
</g>
</g>
<!-- Node5&#45;&gt;Node8 -->
<g id="edge7" class="edge">
<title>Node5&#45;&gt;Node8</title>
<path fill="none" stroke="midnightblue" d="M340.15,-112.08C344.3,-104.61 350.35,-93.72 355.47,-84.52"/>
<polygon fill="midnightblue" stroke="midnightblue" points="358.54,-86.19 360.34,-75.75 352.42,-82.79 358.54,-86.19"/>
</g>
<!-- Node8&#45;&gt;Node6 -->
<g id="edge8" class="edge">
<title>Node8&#45;&gt;Node6</title>
<path fill="none" stroke="midnightblue" d="M357.44,-56.08C350.66,-48.3 340.66,-36.8 332.44,-27.37"/>
<polygon fill="midnightblue" stroke="midnightblue" points="335.02,-25 325.82,-19.75 329.74,-29.59 335.02,-25"/>
</g>
<!-- Node9 -->
<g id="node9" class="node">
<title>Node9</title>
<g id="a_node9"><a xlink:title=" ">
<polygon fill="white" stroke="#bfbfbf" points="358.7,-0.5 358.7,-19.5 423.7,-19.5 423.7,-0.5 358.7,-0.5"/>
<text text-anchor="middle" x="391.2" y="-7.5" font-family="Helvetica,sans-Serif" font-size="10.00">exception</text>
</a>
</g>
</g>
<!-- Node8&#45;&gt;Node9 -->
<g id="edge9" class="edge">
<title>Node8&#45;&gt;Node9</title>
<path fill="none" stroke="midnightblue" d="M369.49,-56.08C373.05,-48.69 378.22,-37.95 382.62,-28.81"/>
<polygon fill="midnightblue" stroke="midnightblue" points="385.8,-30.28 386.99,-19.75 379.49,-27.24 385.8,-30.28"/>
</g>
<!-- Node10&#45;&gt;Node2 -->
<g id="edge19" class="edge">
<title>Node10&#45;&gt;Node2</title>
<path fill="none" stroke="midnightblue" d="M169.43,-112.44C144.31,-103.4 104.49,-89.06 76.3,-78.92"/>
<polygon fill="midnightblue" stroke="midnightblue" points="77.45,-75.61 66.86,-75.52 75.08,-82.2 77.45,-75.61"/>
</g>
<!-- Node10&#45;&gt;Node4 -->
<g id="edge20" class="edge">
<title>Node10&#45;&gt;Node4</title>
<path fill="none" stroke="midnightblue" d="M192.45,-112.11C190.91,-98.68 186.35,-73 173.2,-56 162.44,-42.09 146.07,-31.44 131.55,-23.99"/>
<polygon fill="midnightblue" stroke="midnightblue" points="132.89,-20.75 122.36,-19.57 129.85,-27.06 132.89,-20.75"/>
</g>
<!-- Node11 -->
<g id="node11" class="node">
<title>Node11</title>
<g id="a_node11"><a xlink:href="constants_8h.html" target="_top" xlink:title=" ">
<polygon fill="white" stroke="black" points="91.7,-56.5 91.7,-75.5 164.7,-75.5 164.7,-56.5 91.7,-56.5"/>
<text text-anchor="middle" x="128.2" y="-63.5" font-family="Helvetica,sans-Serif" font-size="10.00">constants.h</text>
</a>
</g>
</g>
<!-- Node10&#45;&gt;Node11 -->
<g id="edge11" class="edge">
<title>Node10&#45;&gt;Node11</title>
<path fill="none" stroke="midnightblue" d="M182.76,-112.32C173.05,-104.26 158.38,-92.08 146.7,-82.37"/>
<polygon fill="midnightblue" stroke="midnightblue" points="148.76,-79.53 138.83,-75.83 144.29,-84.92 148.76,-79.53"/>
</g>
<!-- Node10&#45;&gt;Node12 -->
<g id="edge12" class="edge">
<title>Node10&#45;&gt;Node12</title>
<path fill="none" stroke="midnightblue" d="M196.62,-112.08C202.65,-104.06 213.83,-92.1 224.08,-82.51"/>
<polygon fill="midnightblue" stroke="midnightblue" points="226.52,-85.03 231.64,-75.75 221.86,-79.81 226.52,-85.03"/>
</g>
<!-- Node12&#45;&gt;Node4 -->
<g id="edge15" class="edge">
<title>Node12&#45;&gt;Node4</title>
<path fill="none" stroke="midnightblue" d="M222.22,-56.44C198.04,-47.44 159.78,-33.19 132.55,-23.05"/>
<polygon fill="midnightblue" stroke="midnightblue" points="133.66,-19.73 123.07,-19.52 131.22,-26.29 133.66,-19.73"/>
</g>
<!-- Node12&#45;&gt;Node6 -->
<g id="edge14" class="edge">
<title>Node12&#45;&gt;Node6</title>
<path fill="none" stroke="midnightblue" d="M256.93,-56.32C268.04,-48.11 284.94,-35.6 298.18,-25.81"/>
<polygon fill="midnightblue" stroke="midnightblue" points="300.3,-28.59 306.26,-19.83 296.14,-22.97 300.3,-28.59"/>
</g>
<!-- Node12&#45;&gt;Node10 -->
<g id="edge18" class="edge">
<title>Node12&#45;&gt;Node10</title>
<path fill="none" stroke="midnightblue" d="M241.84,-75.83C235.81,-83.87 224.56,-95.91 214.26,-105.54"/>
<polygon fill="midnightblue" stroke="midnightblue" points="211.79,-103.05 206.67,-112.32 216.46,-108.27 211.79,-103.05"/>
</g>
<!-- Node13 -->
<g id="node13" class="node">
<title>Node13</title>
<g id="a_node13"><a xlink:title=" ">
<polygon fill="white" stroke="#bfbfbf" points="147.7,-0.5 147.7,-19.5 194.7,-19.5 194.7,-0.5 147.7,-0.5"/>
<text text-anchor="middle" x="171.2" y="-7.5" font-family="Helvetica,sans-Serif" font-size="10.00">vector</text>
</a>
</g>
</g>
<!-- Node12&#45;&gt;Node13 -->
<g id="edge13" class="edge">
<title>Node12&#45;&gt;Node13</title>
<path fill="none" stroke="midnightblue" d="M233.31,-56.32C222.05,-48.11 204.91,-35.6 191.49,-25.81"/>
<polygon fill="midnightblue" stroke="midnightblue" points="193.45,-22.9 183.3,-19.83 189.32,-28.56 193.45,-22.9"/>
</g>
<!-- Node12&#45;&gt;Node14 -->
<g id="edge16" class="edge">
<title>Node12&#45;&gt;Node14</title>
<path fill="none" stroke="midnightblue" d="M268.99,-59.62C309.53,-50.47 392.48,-31.72 442.72,-20.37"/>
<polygon fill="midnightblue" stroke="midnightblue" points="443.64,-23.75 452.62,-18.14 442.09,-16.93 443.64,-23.75"/>
</g>
<!-- Node15 -->
<g id="node15" class="node">
<title>Node15</title>
<g id="a_node15"><a xlink:title=" ">
<polygon fill="white" stroke="#bfbfbf" points="212.7,-0.5 212.7,-19.5 277.7,-19.5 277.7,-0.5 212.7,-0.5"/>
<text text-anchor="middle" x="245.2" y="-7.5" font-family="Helvetica,sans-Serif" font-size="10.00">functional</text>
</a>
</g>
</g>
<!-- Node12&#45;&gt;Node15 -->
<g id="edge17" class="edge">
<title>Node12&#45;&gt;Node15</title>
<path fill="none" stroke="midnightblue" d="M245.2,-56.08C245.2,-49.01 245.2,-38.86 245.2,-29.99"/>
<polygon fill="midnightblue" stroke="midnightblue" points="248.7,-29.75 245.2,-19.75 241.7,-29.75 248.7,-29.75"/>
</g>
</g>
</svg>
