<?xml version="1.0" encoding="UTF-8" standalone="no"?>
<!DOCTYPE svg PUBLIC "-//W3C//DTD SVG 1.1//EN"
 "http://www.w3.org/Graphics/SVG/1.1/DTD/svg11.dtd">
<!-- Generated by graphviz version 2.43.0 (0)
 -->
<!-- Title: src/Map.h Pages: 1 -->
<svg width="269pt" height="140pt"
 viewBox="0.00 0.00 268.50 140.00" xmlns="http://www.w3.org/2000/svg" xmlns:xlink="http://www.w3.org/1999/xlink">
<g id="graph0" class="graph" transform="scale(1 1) rotate(0) translate(4 136)">
<title>src/Map.h</title>
<polygon fill="white" stroke="transparent" points="-4,4 -4,-136 264.5,-136 264.5,4 -4,4"/>
<!-- Node1 -->
<g id="node1" class="node">
<title>Node1</title>
<g id="a_node1"><a xlink:title=" ">
<polygon fill="#bfbfbf" stroke="black" points="88.5,-112.5 88.5,-131.5 152.5,-131.5 152.5,-112.5 88.5,-112.5"/>
<text text-anchor="middle" x="120.5" y="-119.5" font-family="Helvetica,sans-Serif" font-size="10.00">src/Map.h</text>
</a>
</g>
</g>
<!-- Node2 -->
<g id="node2" class="node">
<title>Node2</title>
<g id="a_node2"><a xlink:title=" ">
<polygon fill="white" stroke="#bfbfbf" points="0,-56.5 0,-75.5 47,-75.5 47,-56.5 0,-56.5"/>
<text text-anchor="middle" x="23.5" y="-63.5" font-family="Helvetica,sans-Serif" font-size="10.00">vector</text>
</a>
</g>
</g>
<!-- Node1&#45;&gt;Node2 -->
<g id="edge1" class="edge">
<title>Node1&#45;&gt;Node2</title>
<path fill="none" stroke="midnightblue" d="M104.92,-112.32C89.5,-103.74 65.69,-90.49 47.79,-80.52"/>
<polygon fill="midnightblue" stroke="midnightblue" points="49.49,-77.46 39.05,-75.65 46.08,-83.58 49.49,-77.46"/>
</g>
<!-- Node3 -->
<g id="node3" class="node">
<title>Node3</title>
<g id="a_node3"><a xlink:title=" ">
<polygon fill="white" stroke="#bfbfbf" points="65.5,-56.5 65.5,-75.5 109.5,-75.5 109.5,-56.5 65.5,-56.5"/>
<text text-anchor="middle" x="87.5" y="-63.5" font-family="Helvetica,sans-Serif" font-size="10.00">string</text>
</a>
</g>
</g>
<!-- Node1&#45;&gt;Node3 -->
<g id="edge2" class="edge">
<title>Node1&#45;&gt;Node3</title>
<path fill="none" stroke="midnightblue" d="M115.05,-112.08C110.49,-104.61 103.83,-93.72 98.21,-84.52"/>
<polygon fill="midnightblue" stroke="midnightblue" points="101.05,-82.46 92.85,-75.75 95.08,-86.11 101.05,-82.46"/>
</g>
<!-- Node4 -->
<g id="node4" class="node">
<title>Node4</title>
<g id="a_node4"><a xlink:href="Entity_8h.html" target="_top" xlink:title=" ">
<polygon fill="white" stroke="black" points="128,-56.5 128,-75.5 181,-75.5 181,-56.5 128,-56.5"/>
<text text-anchor="middle" x="154.5" y="-63.5" font-family="Helvetica,sans-Serif" font-size="10.00">Entity.h</text>
</a>
</g>
</g>
<!-- Node1&#45;&gt;Node4 -->
<g id="edge3" class="edge">
<title>Node1&#45;&gt;Node4</title>
<path fill="none" stroke="midnightblue" d="M120.95,-112.08C124.17,-104.38 130.94,-93.03 137.73,-83.65"/>
<polygon fill="midnightblue" stroke="midnightblue" points="140.49,-85.8 143.86,-75.75 134.96,-81.5 140.49,-85.8"/>
</g>
<!-- Node4&#45;&gt;Node1 -->
<g id="edge5" class="edge">
<title>Node4&#45;&gt;Node1</title>
<path fill="none" stroke="midnightblue" d="M154.12,-75.75C150.95,-83.4 144.2,-94.74 137.42,-104.14"/>
<polygon fill="midnightblue" stroke="midnightblue" points="134.63,-102.03 131.28,-112.08 140.17,-106.31 134.63,-102.03"/>
</g>
<!-- Node5 -->
<g id="node5" class="node">
<title>Node5</title>
<g id="a_node5"><a xlink:href="constants_8h.html" target="_top" xlink:title=" ">
<polygon fill="white" stroke="black" points="33,-0.5 33,-19.5 106,-19.5 106,-0.5 33,-0.5"/>
<text text-anchor="middle" x="69.5" y="-7.5" font-family="Helvetica,sans-Serif" font-size="10.00">constants.h</text>
</a>
</g>
</g>
<!-- Node4&#45;&gt;Node5 -->
<g id="edge4" class="edge">
<title>Node4&#45;&gt;Node5</title>
<path fill="none" stroke="midnightblue" d="M140.84,-56.32C127.58,-47.9 107.23,-34.97 91.65,-25.07"/>
<polygon fill="midnightblue" stroke="midnightblue" points="93.44,-22.06 83.12,-19.65 89.69,-27.97 93.44,-22.06"/>
</g>
<!-- Node6 -->
<g id="node6" class="node">
<title>Node6</title>
<g id="a_node6"><a xlink:title=" ">
<polygon fill="white" stroke="#bfbfbf" points="124.5,-0.5 124.5,-19.5 184.5,-19.5 184.5,-0.5 124.5,-0.5"/>
<text text-anchor="middle" x="154.5" y="-7.5" font-family="Helvetica,sans-Serif" font-size="10.00">iostream</text>
</a>
</g>
</g>
<!-- Node4&#45;&gt;Node6 -->
<g id="edge6" class="edge">
<title>Node4&#45;&gt;Node6</title>
<path fill="none" stroke="midnightblue" d="M154.5,-56.08C154.5,-49.01 154.5,-38.86 154.5,-29.99"/>
<polygon fill="midnightblue" stroke="midnightblue" points="158,-29.75 154.5,-19.75 151,-29.75 158,-29.75"/>
</g>
<!-- Node7 -->
<g id="node7" class="node">
<title>Node7</title>
<g id="a_node7"><a xlink:title=" ">
<polygon fill="white" stroke="#bfbfbf" points="202.5,-0.5 202.5,-19.5 260.5,-19.5 260.5,-0.5 202.5,-0.5"/>
<text text-anchor="middle" x="231.5" y="-7.5" font-family="Helvetica,sans-Serif" font-size="10.00">memory</text>
</a>
</g>
</g>
<!-- Node4&#45;&gt;Node7 -->
<g id="edge7" class="edge">
<title>Node4&#45;&gt;Node7</title>
<path fill="none" stroke="midnightblue" d="M166.87,-56.32C178.66,-48.06 196.63,-35.45 210.64,-25.63"/>
<polygon fill="midnightblue" stroke="midnightblue" points="212.98,-28.26 219.16,-19.65 208.96,-22.53 212.98,-28.26"/>
</g>
</g>
</svg>
