<?xml version="1.0" encoding="UTF-8" standalone="no"?>
<!DOCTYPE svg PUBLIC "-//W3C//DTD SVG 1.1//EN"
 "http://www.w3.org/Graphics/SVG/1.1/DTD/svg11.dtd">
<!-- Generated by graphviz version 2.43.0 (0)
 -->
<!-- Title: src/Map.cpp Pages: 1 -->
<svg width="925pt" height="252pt"
 viewBox="0.00 0.00 925.00 252.00" xmlns="http://www.w3.org/2000/svg" xmlns:xlink="http://www.w3.org/1999/xlink">
<g id="graph0" class="graph" transform="scale(1 1) rotate(0) translate(4 248)">
<title>src/Map.cpp</title>
<polygon fill="white" stroke="transparent" points="-4,4 -4,-248 921,-248 921,4 -4,4"/>
<!-- Node1 -->
<g id="node1" class="node">
<title>Node1</title>
<g id="a_node1"><a xlink:title=" ">
<polygon fill="#bfbfbf" stroke="black" points="573,-224.5 573,-243.5 648,-243.5 648,-224.5 573,-224.5"/>
<text text-anchor="middle" x="610.5" y="-231.5" font-family="Helvetica,sans-Serif" font-size="10.00">src/Map.cpp</text>
</a>
</g>
</g>
<!-- Node2 -->
<g id="node2" class="node">
<title>Node2</title>
<g id="a_node2"><a xlink:title=" ">
<polygon fill="white" stroke="#bfbfbf" points="594.5,-0.5 594.5,-19.5 654.5,-19.5 654.5,-0.5 594.5,-0.5"/>
<text text-anchor="middle" x="624.5" y="-7.5" font-family="Helvetica,sans-Serif" font-size="10.00">iostream</text>
</a>
</g>
</g>
<!-- Node1&#45;&gt;Node2 -->
<g id="edge1" class="edge">
<title>Node1&#45;&gt;Node2</title>
<path fill="none" stroke="midnightblue" d="M608.51,-224.43C606.53,-215.42 603.63,-200.8 602.5,-188 599.53,-154.35 597.51,-145.41 602.5,-112 604.97,-95.45 609.65,-92.28 613.5,-76 617.12,-60.67 620.03,-43.03 621.95,-30"/>
<polygon fill="midnightblue" stroke="midnightblue" points="625.44,-30.29 623.36,-19.9 618.51,-29.32 625.44,-30.29"/>
</g>
<!-- Node3 -->
<g id="node3" class="node">
<title>Node3</title>
<g id="a_node3"><a xlink:title=" ">
<polygon fill="white" stroke="#bfbfbf" points="783,-0.5 783,-19.5 838,-19.5 838,-0.5 783,-0.5"/>
<text text-anchor="middle" x="810.5" y="-7.5" font-family="Helvetica,sans-Serif" font-size="10.00">fstream</text>
</a>
</g>
</g>
<!-- Node1&#45;&gt;Node3 -->
<g id="edge2" class="edge">
<title>Node1&#45;&gt;Node3</title>
<path fill="none" stroke="midnightblue" d="M639.39,-224.36C661.5,-216.9 692.07,-204.67 715.5,-188 768.68,-150.15 789.16,-137.69 810.5,-76 815.64,-61.15 815.19,-43.23 813.71,-29.97"/>
<polygon fill="midnightblue" stroke="midnightblue" points="817.12,-29.12 812.26,-19.71 810.19,-30.1 817.12,-29.12"/>
</g>
<!-- Node4 -->
<g id="node4" class="node">
<title>Node4</title>
<g id="a_node4"><a xlink:title=" ">
<polygon fill="white" stroke="#bfbfbf" points="198.5,-56.5 198.5,-75.5 256.5,-75.5 256.5,-56.5 198.5,-56.5"/>
<text text-anchor="middle" x="227.5" y="-63.5" font-family="Helvetica,sans-Serif" font-size="10.00">memory</text>
</a>
</g>
</g>
<!-- Node1&#45;&gt;Node4 -->
<g id="edge3" class="edge">
<title>Node1&#45;&gt;Node4</title>
<path fill="none" stroke="midnightblue" d="M590.71,-224.42C527.68,-197.1 331.33,-112 256.69,-79.65"/>
<polygon fill="midnightblue" stroke="midnightblue" points="257.96,-76.39 247.4,-75.62 255.18,-82.81 257.96,-76.39"/>
</g>
<!-- Node5 -->
<g id="node5" class="node">
<title>Node5</title>
<g id="a_node5"><a xlink:href="logFile_8h.html" target="_top" xlink:title=" ">
<polygon fill="white" stroke="black" points="116.5,-112.5 116.5,-131.5 174.5,-131.5 174.5,-112.5 116.5,-112.5"/>
<text text-anchor="middle" x="145.5" y="-119.5" font-family="Helvetica,sans-Serif" font-size="10.00">logFile.h</text>
</a>
</g>
</g>
<!-- Node1&#45;&gt;Node5 -->
<g id="edge4" class="edge">
<title>Node1&#45;&gt;Node5</title>
<path fill="none" stroke="midnightblue" d="M572.69,-229.34C517.66,-223.5 412.59,-210.38 325.5,-188 271.17,-174.04 210.21,-150.22 175,-135.62"/>
<polygon fill="midnightblue" stroke="midnightblue" points="175.93,-132.21 165.35,-131.58 173.23,-138.67 175.93,-132.21"/>
</g>
<!-- Node10 -->
<g id="node10" class="node">
<title>Node10</title>
<g id="a_node10"><a xlink:href="Entity_8h.html" target="_top" xlink:title=" ">
<polygon fill="white" stroke="black" points="612,-168.5 612,-187.5 665,-187.5 665,-168.5 612,-168.5"/>
<text text-anchor="middle" x="638.5" y="-175.5" font-family="Helvetica,sans-Serif" font-size="10.00">Entity.h</text>
</a>
</g>
</g>
<!-- Node1&#45;&gt;Node10 -->
<g id="edge10" class="edge">
<title>Node1&#45;&gt;Node10</title>
<path fill="none" stroke="midnightblue" d="M615.12,-224.08C618.96,-216.69 624.52,-205.95 629.26,-196.81"/>
<polygon fill="midnightblue" stroke="midnightblue" points="632.47,-198.24 633.96,-187.75 626.25,-195.02 632.47,-198.24"/>
</g>
<!-- Node12 -->
<g id="node12" class="node">
<title>Node12</title>
<g id="a_node12"><a xlink:href="Map_8h.html" target="_top" xlink:title=" ">
<polygon fill="white" stroke="black" points="493,-112.5 493,-131.5 540,-131.5 540,-112.5 493,-112.5"/>
<text text-anchor="middle" x="516.5" y="-119.5" font-family="Helvetica,sans-Serif" font-size="10.00">Map.h</text>
</a>
</g>
</g>
<!-- Node1&#45;&gt;Node12 -->
<g id="edge31" class="edge">
<title>Node1&#45;&gt;Node12</title>
<path fill="none" stroke="midnightblue" d="M602.5,-224.5C594.13,-215.54 580.68,-200.97 569.5,-188 555.6,-171.87 540.28,-152.96 529.7,-139.7"/>
<polygon fill="midnightblue" stroke="midnightblue" points="532.18,-137.19 523.22,-131.54 526.7,-141.54 532.18,-137.19"/>
</g>
<!-- Node14 -->
<g id="node14" class="node">
<title>Node14</title>
<g id="a_node14"><a xlink:title=" ">
<polygon fill="white" stroke="#bfbfbf" points="738,-56.5 738,-75.5 801,-75.5 801,-56.5 738,-56.5"/>
<text text-anchor="middle" x="769.5" y="-63.5" font-family="Helvetica,sans-Serif" font-size="10.00">ncurses.h</text>
</a>
</g>
</g>
<!-- Node1&#45;&gt;Node14 -->
<g id="edge32" class="edge">
<title>Node1&#45;&gt;Node14</title>
<path fill="none" stroke="midnightblue" d="M628.23,-224.4C657.12,-209.52 714.35,-176.26 746.5,-132 756.6,-118.09 762.61,-99.33 765.94,-85.54"/>
<polygon fill="midnightblue" stroke="midnightblue" points="769.36,-86.25 768.06,-75.74 762.52,-84.77 769.36,-86.25"/>
</g>
<!-- Node21 -->
<g id="node21" class="node">
<title>Node21</title>
<g id="a_node21"><a xlink:title=" ">
<polygon fill="white" stroke="#bfbfbf" points="858,-168.5 858,-187.5 917,-187.5 917,-168.5 858,-168.5"/>
<text text-anchor="middle" x="887.5" y="-175.5" font-family="Helvetica,sans-Serif" font-size="10.00">complex</text>
</a>
</g>
</g>
<!-- Node1&#45;&gt;Node21 -->
<g id="edge33" class="edge">
<title>Node1&#45;&gt;Node21</title>
<path fill="none" stroke="midnightblue" d="M648.05,-225.88C694.13,-217.11 774.6,-201.7 843.5,-188 844.93,-187.71 846.39,-187.42 847.87,-187.13"/>
<polygon fill="midnightblue" stroke="midnightblue" points="848.58,-190.56 857.69,-185.14 847.19,-183.69 848.58,-190.56"/>
</g>
<!-- Node6 -->
<g id="node6" class="node">
<title>Node6</title>
<g id="a_node6"><a xlink:title=" ">
<polygon fill="white" stroke="#bfbfbf" points="205.5,-0.5 205.5,-19.5 249.5,-19.5 249.5,-0.5 205.5,-0.5"/>
<text text-anchor="middle" x="227.5" y="-7.5" font-family="Helvetica,sans-Serif" font-size="10.00">string</text>
</a>
</g>
</g>
<!-- Node5&#45;&gt;Node6 -->
<g id="edge5" class="edge">
<title>Node5&#45;&gt;Node6</title>
<path fill="none" stroke="midnightblue" d="M150.92,-112.39C158.95,-99.75 174.69,-75.55 189.5,-56 196.91,-46.22 205.72,-35.72 212.99,-27.32"/>
<polygon fill="midnightblue" stroke="midnightblue" points="215.68,-29.56 219.64,-19.74 210.42,-24.95 215.68,-29.56"/>
</g>
<!-- Node7 -->
<g id="node7" class="node">
<title>Node7</title>
<g id="a_node7"><a xlink:title=" ">
<polygon fill="white" stroke="#bfbfbf" points="97,-56.5 97,-75.5 142,-75.5 142,-56.5 97,-56.5"/>
<text text-anchor="middle" x="119.5" y="-63.5" font-family="Helvetica,sans-Serif" font-size="10.00">utility</text>
</a>
</g>
</g>
<!-- Node5&#45;&gt;Node7 -->
<g id="edge6" class="edge">
<title>Node5&#45;&gt;Node7</title>
<path fill="none" stroke="midnightblue" d="M141.21,-112.08C137.65,-104.69 132.48,-93.95 128.08,-84.81"/>
<polygon fill="midnightblue" stroke="midnightblue" points="131.21,-83.24 123.71,-75.75 124.9,-86.28 131.21,-83.24"/>
</g>
<!-- Node8 -->
<g id="node8" class="node">
<title>Node8</title>
<g id="a_node8"><a xlink:href="exceptions_8h.html" target="_top" xlink:title=" ">
<polygon fill="white" stroke="black" points="0,-56.5 0,-75.5 79,-75.5 79,-56.5 0,-56.5"/>
<text text-anchor="middle" x="39.5" y="-63.5" font-family="Helvetica,sans-Serif" font-size="10.00">exceptions.h</text>
</a>
</g>
</g>
<!-- Node5&#45;&gt;Node8 -->
<g id="edge7" class="edge">
<title>Node5&#45;&gt;Node8</title>
<path fill="none" stroke="midnightblue" d="M128.47,-112.32C111.47,-103.66 85.12,-90.24 65.51,-80.25"/>
<polygon fill="midnightblue" stroke="midnightblue" points="66.99,-77.08 56.49,-75.65 63.81,-83.31 66.99,-77.08"/>
</g>
<!-- Node8&#45;&gt;Node6 -->
<g id="edge8" class="edge">
<title>Node8&#45;&gt;Node6</title>
<path fill="none" stroke="midnightblue" d="M69.29,-56.44C103.78,-46.54 160.36,-30.28 195.69,-20.14"/>
<polygon fill="midnightblue" stroke="midnightblue" points="196.84,-23.45 205.49,-17.32 194.91,-16.72 196.84,-23.45"/>
</g>
<!-- Node9 -->
<g id="node9" class="node">
<title>Node9</title>
<g id="a_node9"><a xlink:title=" ">
<polygon fill="white" stroke="#bfbfbf" points="7,-0.5 7,-19.5 72,-19.5 72,-0.5 7,-0.5"/>
<text text-anchor="middle" x="39.5" y="-7.5" font-family="Helvetica,sans-Serif" font-size="10.00">exception</text>
</a>
</g>
</g>
<!-- Node8&#45;&gt;Node9 -->
<g id="edge9" class="edge">
<title>Node8&#45;&gt;Node9</title>
<path fill="none" stroke="midnightblue" d="M39.5,-56.08C39.5,-49.01 39.5,-38.86 39.5,-29.99"/>
<polygon fill="midnightblue" stroke="midnightblue" points="43,-29.75 39.5,-19.75 36,-29.75 43,-29.75"/>
</g>
<!-- Node10&#45;&gt;Node2 -->
<g id="edge27" class="edge">
<title>Node10&#45;&gt;Node2</title>
<path fill="none" stroke="midnightblue" d="M642.1,-168.22C645.56,-159.28 650.53,-144.94 652.5,-132 655.6,-111.6 648.76,-60.35 647.5,-56 644.73,-46.41 639.89,-36.46 635.35,-28.36"/>
<polygon fill="midnightblue" stroke="midnightblue" points="638.24,-26.37 630.14,-19.55 632.22,-29.94 638.24,-26.37"/>
</g>
<!-- Node10&#45;&gt;Node4 -->
<g id="edge28" class="edge">
<title>Node10&#45;&gt;Node4</title>
<path fill="none" stroke="midnightblue" d="M611.85,-169.87C541.24,-150.97 349.1,-99.54 266.31,-77.39"/>
<polygon fill="midnightblue" stroke="midnightblue" points="267.1,-73.98 256.54,-74.77 265.29,-80.74 267.1,-73.98"/>
</g>
<!-- Node11 -->
<g id="node11" class="node">
<title>Node11</title>
<g id="a_node11"><a xlink:href="constants_8h.html" target="_top" xlink:title=" ">
<polygon fill="white" stroke="black" points="673,-0.5 673,-19.5 746,-19.5 746,-0.5 673,-0.5"/>
<text text-anchor="middle" x="709.5" y="-7.5" font-family="Helvetica,sans-Serif" font-size="10.00">constants.h</text>
</a>
</g>
</g>
<!-- Node10&#45;&gt;Node11 -->
<g id="edge11" class="edge">
<title>Node10&#45;&gt;Node11</title>
<path fill="none" stroke="midnightblue" d="M644.93,-168.4C651.29,-159.6 660.99,-145.37 667.5,-132 684.47,-97.15 697.8,-53.67 704.58,-29.46"/>
<polygon fill="midnightblue" stroke="midnightblue" points="707.97,-30.36 707.23,-19.79 701.21,-28.51 707.97,-30.36"/>
</g>
<!-- Node10&#45;&gt;Node12 -->
<g id="edge12" class="edge">
<title>Node10&#45;&gt;Node12</title>
<path fill="none" stroke="midnightblue" d="M614.08,-168.44C592.35,-159.68 561.05,-145.94 539.7,-135.86"/>
<polygon fill="midnightblue" stroke="midnightblue" points="541.19,-132.69 530.66,-131.52 538.16,-139 541.19,-132.69"/>
</g>
<!-- Node10&#45;&gt;Node14 -->
<g id="edge30" class="edge">
<title>Node10&#45;&gt;Node14</title>
<path fill="none" stroke="midnightblue" d="M661.21,-168.44C679.43,-160.8 704.94,-148.31 723.5,-132 739.03,-118.36 752.11,-98.48 760.3,-84.31"/>
<polygon fill="midnightblue" stroke="midnightblue" points="763.37,-85.99 765.17,-75.55 757.25,-82.59 763.37,-85.99"/>
</g>
<!-- Node20 -->
<g id="node20" class="node">
<title>Node20</title>
<g id="a_node20"><a xlink:title=" ">
<polygon fill="white" stroke="#bfbfbf" points="611.5,-112.5 611.5,-131.5 643.5,-131.5 643.5,-112.5 611.5,-112.5"/>
<text text-anchor="middle" x="627.5" y="-119.5" font-family="Helvetica,sans-Serif" font-size="10.00">set</text>
</a>
</g>
</g>
<!-- Node10&#45;&gt;Node20 -->
<g id="edge29" class="edge">
<title>Node10&#45;&gt;Node20</title>
<path fill="none" stroke="midnightblue" d="M636.68,-168.08C635.23,-160.93 633.13,-150.64 631.31,-141.69"/>
<polygon fill="midnightblue" stroke="midnightblue" points="634.71,-140.85 629.28,-131.75 627.85,-142.25 634.71,-140.85"/>
</g>
<!-- Node12&#45;&gt;Node4 -->
<g id="edge15" class="edge">
<title>Node12&#45;&gt;Node4</title>
<path fill="none" stroke="midnightblue" d="M492.71,-116.86C448.76,-109.15 351.88,-91.96 270.5,-76 269.24,-75.75 267.95,-75.5 266.66,-75.24"/>
<polygon fill="midnightblue" stroke="midnightblue" points="267.12,-71.76 256.62,-73.2 265.73,-78.62 267.12,-71.76"/>
</g>
<!-- Node12&#45;&gt;Node6 -->
<g id="edge14" class="edge">
<title>Node12&#45;&gt;Node6</title>
<path fill="none" stroke="midnightblue" d="M492.73,-117.5C444.48,-110.14 336.81,-92.41 303.5,-76 279.06,-63.96 256.02,-42.25 241.85,-27.26"/>
<polygon fill="midnightblue" stroke="midnightblue" points="244.28,-24.72 234.94,-19.72 239.12,-29.46 244.28,-24.72"/>
</g>
<!-- Node12&#45;&gt;Node10 -->
<g id="edge19" class="edge">
<title>Node12&#45;&gt;Node10</title>
<path fill="none" stroke="midnightblue" d="M540.28,-131.3C561.9,-140 593.33,-153.79 614.88,-163.94"/>
<polygon fill="midnightblue" stroke="midnightblue" points="613.48,-167.16 624.01,-168.32 616.51,-160.84 613.48,-167.16"/>
</g>
<!-- Node13 -->
<g id="node13" class="node">
<title>Node13</title>
<g id="a_node13"><a xlink:title=" ">
<polygon fill="white" stroke="#bfbfbf" points="558,-56.5 558,-75.5 605,-75.5 605,-56.5 558,-56.5"/>
<text text-anchor="middle" x="581.5" y="-63.5" font-family="Helvetica,sans-Serif" font-size="10.00">vector</text>
</a>
</g>
</g>
<!-- Node12&#45;&gt;Node13 -->
<g id="edge13" class="edge">
<title>Node12&#45;&gt;Node13</title>
<path fill="none" stroke="midnightblue" d="M526.94,-112.32C536.65,-104.26 551.32,-92.08 563,-82.37"/>
<polygon fill="midnightblue" stroke="midnightblue" points="565.41,-84.92 570.87,-75.83 560.94,-79.53 565.41,-84.92"/>
</g>
<!-- Node12&#45;&gt;Node14 -->
<g id="edge16" class="edge">
<title>Node12&#45;&gt;Node14</title>
<path fill="none" stroke="midnightblue" d="M540.3,-115.92C583.29,-106.74 674.38,-87.3 727.87,-75.88"/>
<polygon fill="midnightblue" stroke="midnightblue" points="728.68,-79.29 737.73,-73.78 727.22,-72.45 728.68,-79.29"/>
</g>
<!-- Node15 -->
<g id="node15" class="node">
<title>Node15</title>
<g id="a_node15"><a xlink:title=" ">
<polygon fill="white" stroke="#bfbfbf" points="313,-56.5 313,-75.5 378,-75.5 378,-56.5 313,-56.5"/>
<text text-anchor="middle" x="345.5" y="-63.5" font-family="Helvetica,sans-Serif" font-size="10.00">functional</text>
</a>
</g>
</g>
<!-- Node12&#45;&gt;Node15 -->
<g id="edge17" class="edge">
<title>Node12&#45;&gt;Node15</title>
<path fill="none" stroke="midnightblue" d="M492.72,-113.49C464.11,-104.46 415.76,-89.19 382.32,-78.63"/>
<polygon fill="midnightblue" stroke="midnightblue" points="383.04,-75.19 372.45,-75.51 380.94,-81.86 383.04,-75.19"/>
</g>
<!-- Node16 -->
<g id="node16" class="node">
<title>Node16</title>
<g id="a_node16"><a xlink:title=" ">
<polygon fill="white" stroke="#bfbfbf" points="396,-56.5 396,-75.5 443,-75.5 443,-56.5 396,-56.5"/>
<text text-anchor="middle" x="419.5" y="-63.5" font-family="Helvetica,sans-Serif" font-size="10.00">cmath</text>
</a>
</g>
</g>
<!-- Node12&#45;&gt;Node16 -->
<g id="edge18" class="edge">
<title>Node12&#45;&gt;Node16</title>
<path fill="none" stroke="midnightblue" d="M500.92,-112.32C485.5,-103.74 461.69,-90.49 443.79,-80.52"/>
<polygon fill="midnightblue" stroke="midnightblue" points="445.49,-77.46 435.05,-75.65 442.08,-83.58 445.49,-77.46"/>
</g>
<!-- Node17 -->
<g id="node17" class="node">
<title>Node17</title>
<g id="a_node17"><a xlink:href="Definitions_8h.html" target="_top" xlink:title=" ">
<polygon fill="white" stroke="black" points="461.5,-56.5 461.5,-75.5 539.5,-75.5 539.5,-56.5 461.5,-56.5"/>
<text text-anchor="middle" x="500.5" y="-63.5" font-family="Helvetica,sans-Serif" font-size="10.00">Definitions.h</text>
</a>
</g>
</g>
<!-- Node12&#45;&gt;Node17 -->
<g id="edge20" class="edge">
<title>Node12&#45;&gt;Node17</title>
<path fill="none" stroke="midnightblue" d="M513.86,-112.08C511.71,-104.85 508.62,-94.41 505.95,-85.4"/>
<polygon fill="midnightblue" stroke="midnightblue" points="509.29,-84.34 503.09,-75.75 502.58,-86.33 509.29,-84.34"/>
</g>
<!-- Node17&#45;&gt;Node2 -->
<g id="edge25" class="edge">
<title>Node17&#45;&gt;Node2</title>
<path fill="none" stroke="midnightblue" d="M520.15,-56.44C540.46,-47.6 572.4,-33.69 595.6,-23.59"/>
<polygon fill="midnightblue" stroke="midnightblue" points="597.17,-26.72 604.94,-19.52 594.38,-20.3 597.17,-26.72"/>
</g>
<!-- Node17&#45;&gt;Node3 -->
<g id="edge21" class="edge">
<title>Node17&#45;&gt;Node3</title>
<path fill="none" stroke="midnightblue" d="M539.52,-57.63C542.56,-57.07 545.58,-56.52 548.5,-56 628.4,-41.65 722.18,-25.78 773.05,-17.25"/>
<polygon fill="midnightblue" stroke="midnightblue" points="773.65,-20.7 782.94,-15.59 772.5,-13.79 773.65,-20.7"/>
</g>
<!-- Node17&#45;&gt;Node6 -->
<g id="edge23" class="edge">
<title>Node17&#45;&gt;Node6</title>
<path fill="none" stroke="midnightblue" d="M461.39,-57.26C407.15,-46.54 310.13,-27.34 259.79,-17.39"/>
<polygon fill="midnightblue" stroke="midnightblue" points="260.28,-13.92 249.79,-15.41 258.92,-20.78 260.28,-13.92"/>
</g>
<!-- Node17&#45;&gt;Node11 -->
<g id="edge26" class="edge">
<title>Node17&#45;&gt;Node11</title>
<path fill="none" stroke="midnightblue" d="M533.62,-56.44C569.62,-47.14 627.27,-32.25 666.69,-22.06"/>
<polygon fill="midnightblue" stroke="midnightblue" points="667.73,-25.41 676.54,-19.52 665.98,-18.63 667.73,-25.41"/>
</g>
<!-- Node18 -->
<g id="node18" class="node">
<title>Node18</title>
<g id="a_node18"><a xlink:title=" ">
<polygon fill="white" stroke="#bfbfbf" points="509.5,-0.5 509.5,-19.5 547.5,-19.5 547.5,-0.5 509.5,-0.5"/>
<text text-anchor="middle" x="528.5" y="-7.5" font-family="Helvetica,sans-Serif" font-size="10.00">map</text>
</a>
</g>
</g>
<!-- Node17&#45;&gt;Node18 -->
<g id="edge22" class="edge">
<title>Node17&#45;&gt;Node18</title>
<path fill="none" stroke="midnightblue" d="M505.12,-56.08C508.96,-48.69 514.52,-37.95 519.26,-28.81"/>
<polygon fill="midnightblue" stroke="midnightblue" points="522.47,-30.24 523.96,-19.75 516.25,-27.02 522.47,-30.24"/>
</g>
<!-- Node19 -->
<g id="node19" class="node">
<title>Node19</title>
<g id="a_node19"><a xlink:title=" ">
<polygon fill="white" stroke="#bfbfbf" points="435.5,-0.5 435.5,-19.5 491.5,-19.5 491.5,-0.5 435.5,-0.5"/>
<text text-anchor="middle" x="463.5" y="-7.5" font-family="Helvetica,sans-Serif" font-size="10.00">sstream</text>
</a>
</g>
</g>
<!-- Node17&#45;&gt;Node19 -->
<g id="edge24" class="edge">
<title>Node17&#45;&gt;Node19</title>
<path fill="none" stroke="midnightblue" d="M494.39,-56.08C489.22,-48.53 481.65,-37.49 475.31,-28.23"/>
<polygon fill="midnightblue" stroke="midnightblue" points="478.04,-26.02 469.5,-19.75 472.26,-29.98 478.04,-26.02"/>
</g>
</g>
</svg>
