<?xml version="1.0" encoding="UTF-8" standalone="no"?>
<!DOCTYPE svg PUBLIC "-//W3C//DTD SVG 1.1//EN"
 "http://www.w3.org/Graphics/SVG/1.1/DTD/svg11.dtd">
<!-- Generated by graphviz version 2.43.0 (0)
 -->
<!-- Title: src/Map.cpp Pages: 1 -->
<svg width="985pt" height="252pt"
 viewBox="0.00 0.00 985.00 252.00" xmlns="http://www.w3.org/2000/svg" xmlns:xlink="http://www.w3.org/1999/xlink">
<g id="graph0" class="graph" transform="scale(1 1) rotate(0) translate(4 248)">
<title>src/Map.cpp</title>
<polygon fill="white" stroke="transparent" points="-4,4 -4,-248 981,-248 981,4 -4,4"/>
<!-- Node1 -->
<g id="node1" class="node">
<title>Node1</title>
<g id="a_node1"><a xlink:title=" ">
<polygon fill="#bfbfbf" stroke="black" points="539,-224.5 539,-243.5 614,-243.5 614,-224.5 539,-224.5"/>
<text text-anchor="middle" x="576.5" y="-231.5" font-family="Helvetica,sans-Serif" font-size="10.00">src/Map.cpp</text>
</a>
</g>
</g>
<!-- Node2 -->
<g id="node2" class="node">
<title>Node2</title>
<g id="a_node2"><a xlink:title=" ">
<polygon fill="white" stroke="#bfbfbf" points="254.5,-0.5 254.5,-19.5 314.5,-19.5 314.5,-0.5 254.5,-0.5"/>
<text text-anchor="middle" x="284.5" y="-7.5" font-family="Helvetica,sans-Serif" font-size="10.00">iostream</text>
</a>
</g>
</g>
<!-- Node1&#45;&gt;Node2 -->
<g id="edge1" class="edge">
<title>Node1&#45;&gt;Node2</title>
<path fill="none" stroke="midnightblue" d="M547.33,-224.36C491.41,-206.3 368.92,-159.14 303.5,-76 293.06,-62.73 288.35,-43.89 286.23,-29.91"/>
<polygon fill="midnightblue" stroke="midnightblue" points="289.7,-29.45 285.03,-19.94 282.75,-30.29 289.7,-29.45"/>
</g>
<!-- Node3 -->
<g id="node3" class="node">
<title>Node3</title>
<g id="a_node3"><a xlink:title=" ">
<polygon fill="white" stroke="#bfbfbf" points="806,-0.5 806,-19.5 861,-19.5 861,-0.5 806,-0.5"/>
<text text-anchor="middle" x="833.5" y="-7.5" font-family="Helvetica,sans-Serif" font-size="10.00">fstream</text>
</a>
</g>
</g>
<!-- Node1&#45;&gt;Node3 -->
<g id="edge2" class="edge">
<title>Node1&#45;&gt;Node3</title>
<path fill="none" stroke="midnightblue" d="M614.21,-231.28C657.04,-227.89 727.79,-217.83 780.5,-188 832.21,-158.73 843.36,-134.55 853.5,-76 855.02,-67.24 855.35,-64.7 853.5,-56 851.5,-46.59 847.4,-36.76 843.43,-28.7"/>
<polygon fill="midnightblue" stroke="midnightblue" points="846.39,-26.81 838.63,-19.59 840.19,-30.07 846.39,-26.81"/>
</g>
<!-- Node4 -->
<g id="node4" class="node">
<title>Node4</title>
<g id="a_node4"><a xlink:title=" ">
<polygon fill="white" stroke="#bfbfbf" points="622.5,-56.5 622.5,-75.5 680.5,-75.5 680.5,-56.5 622.5,-56.5"/>
<text text-anchor="middle" x="651.5" y="-63.5" font-family="Helvetica,sans-Serif" font-size="10.00">memory</text>
</a>
</g>
</g>
<!-- Node1&#45;&gt;Node4 -->
<g id="edge3" class="edge">
<title>Node1&#45;&gt;Node4</title>
<path fill="none" stroke="midnightblue" d="M572.8,-224.31C564.48,-203.29 546.64,-148.72 568.5,-112 578.17,-95.75 595.98,-85.01 612.63,-78.11"/>
<polygon fill="midnightblue" stroke="midnightblue" points="614.11,-81.29 622.23,-74.48 611.64,-74.74 614.11,-81.29"/>
</g>
<!-- Node5 -->
<g id="node5" class="node">
<title>Node5</title>
<g id="a_node5"><a xlink:href="logFile_8h.html" target="_top" xlink:title=" ">
<polygon fill="white" stroke="black" points="116.5,-112.5 116.5,-131.5 174.5,-131.5 174.5,-112.5 116.5,-112.5"/>
<text text-anchor="middle" x="145.5" y="-119.5" font-family="Helvetica,sans-Serif" font-size="10.00">logFile.h</text>
</a>
</g>
</g>
<!-- Node1&#45;&gt;Node5 -->
<g id="edge4" class="edge">
<title>Node1&#45;&gt;Node5</title>
<path fill="none" stroke="midnightblue" d="M538.85,-231.49C480.19,-228.24 364,-218.24 270.5,-188 232.08,-175.58 191.23,-152.14 167.06,-137.07"/>
<polygon fill="midnightblue" stroke="midnightblue" points="168.68,-133.95 158.36,-131.55 164.93,-139.86 168.68,-133.95"/>
</g>
<!-- Node10 -->
<g id="node10" class="node">
<title>Node10</title>
<g id="a_node10"><a xlink:href="Entity_8h.html" target="_top" xlink:title=" ">
<polygon fill="white" stroke="black" points="578,-168.5 578,-187.5 631,-187.5 631,-168.5 578,-168.5"/>
<text text-anchor="middle" x="604.5" y="-175.5" font-family="Helvetica,sans-Serif" font-size="10.00">Entity.h</text>
</a>
</g>
</g>
<!-- Node1&#45;&gt;Node10 -->
<g id="edge10" class="edge">
<title>Node1&#45;&gt;Node10</title>
<path fill="none" stroke="midnightblue" d="M581.12,-224.08C584.96,-216.69 590.52,-205.95 595.26,-196.81"/>
<polygon fill="midnightblue" stroke="midnightblue" points="598.47,-198.24 599.96,-187.75 592.25,-195.02 598.47,-198.24"/>
</g>
<!-- Node12 -->
<g id="node12" class="node">
<title>Node12</title>
<g id="a_node12"><a xlink:href="Map_8h.html" target="_top" xlink:title=" ">
<polygon fill="white" stroke="black" points="474,-112.5 474,-131.5 521,-131.5 521,-112.5 474,-112.5"/>
<text text-anchor="middle" x="497.5" y="-119.5" font-family="Helvetica,sans-Serif" font-size="10.00">Map.h</text>
</a>
</g>
</g>
<!-- Node1&#45;&gt;Node12 -->
<g id="edge32" class="edge">
<title>Node1&#45;&gt;Node12</title>
<path fill="none" stroke="midnightblue" d="M567.42,-224.18C558.69,-215.44 545.39,-201.45 535.5,-188 524.39,-172.89 513.8,-154.31 506.64,-140.89"/>
<polygon fill="midnightblue" stroke="midnightblue" points="509.61,-139.01 501.87,-131.77 503.4,-142.26 509.61,-139.01"/>
</g>
<!-- Node14 -->
<g id="node14" class="node">
<title>Node14</title>
<g id="a_node14"><a xlink:title=" ">
<polygon fill="white" stroke="#bfbfbf" points="782,-56.5 782,-75.5 845,-75.5 845,-56.5 782,-56.5"/>
<text text-anchor="middle" x="813.5" y="-63.5" font-family="Helvetica,sans-Serif" font-size="10.00">ncurses.h</text>
</a>
</g>
</g>
<!-- Node1&#45;&gt;Node14 -->
<g id="edge33" class="edge">
<title>Node1&#45;&gt;Node14</title>
<path fill="none" stroke="midnightblue" d="M614.42,-229.57C669.63,-222.31 770.44,-199.95 815.5,-132 824.46,-118.49 822.74,-99.68 819.5,-85.77"/>
<polygon fill="midnightblue" stroke="midnightblue" points="822.8,-84.56 816.75,-75.86 816.05,-86.43 822.8,-84.56"/>
</g>
<!-- Node22 -->
<g id="node22" class="node">
<title>Node22</title>
<g id="a_node22"><a xlink:title=" ">
<polygon fill="white" stroke="#bfbfbf" points="918,-168.5 918,-187.5 977,-187.5 977,-168.5 918,-168.5"/>
<text text-anchor="middle" x="947.5" y="-175.5" font-family="Helvetica,sans-Serif" font-size="10.00">complex</text>
</a>
</g>
</g>
<!-- Node1&#45;&gt;Node22 -->
<g id="edge34" class="edge">
<title>Node1&#45;&gt;Node22</title>
<path fill="none" stroke="midnightblue" d="M614.39,-228.6C675.44,-221.32 799.28,-205.81 903.5,-188 904.94,-187.75 906.41,-187.5 907.89,-187.23"/>
<polygon fill="midnightblue" stroke="midnightblue" points="908.55,-190.66 917.73,-185.36 907.25,-183.79 908.55,-190.66"/>
</g>
<!-- Node6 -->
<g id="node6" class="node">
<title>Node6</title>
<g id="a_node6"><a xlink:title=" ">
<polygon fill="white" stroke="#bfbfbf" points="167.5,-0.5 167.5,-19.5 211.5,-19.5 211.5,-0.5 167.5,-0.5"/>
<text text-anchor="middle" x="189.5" y="-7.5" font-family="Helvetica,sans-Serif" font-size="10.00">string</text>
</a>
</g>
</g>
<!-- Node5&#45;&gt;Node6 -->
<g id="edge5" class="edge">
<title>Node5&#45;&gt;Node6</title>
<path fill="none" stroke="midnightblue" d="M148.95,-112.37C156.12,-94.46 172.73,-52.92 182.32,-28.95"/>
<polygon fill="midnightblue" stroke="midnightblue" points="185.6,-30.18 186.06,-19.59 179.1,-27.58 185.6,-30.18"/>
</g>
<!-- Node7 -->
<g id="node7" class="node">
<title>Node7</title>
<g id="a_node7"><a xlink:title=" ">
<polygon fill="white" stroke="#bfbfbf" points="97,-56.5 97,-75.5 142,-75.5 142,-56.5 97,-56.5"/>
<text text-anchor="middle" x="119.5" y="-63.5" font-family="Helvetica,sans-Serif" font-size="10.00">utility</text>
</a>
</g>
</g>
<!-- Node5&#45;&gt;Node7 -->
<g id="edge6" class="edge">
<title>Node5&#45;&gt;Node7</title>
<path fill="none" stroke="midnightblue" d="M141.21,-112.08C137.65,-104.69 132.48,-93.95 128.08,-84.81"/>
<polygon fill="midnightblue" stroke="midnightblue" points="131.21,-83.24 123.71,-75.75 124.9,-86.28 131.21,-83.24"/>
</g>
<!-- Node8 -->
<g id="node8" class="node">
<title>Node8</title>
<g id="a_node8"><a xlink:href="exceptions_8h.html" target="_top" xlink:title=" ">
<polygon fill="white" stroke="black" points="0,-56.5 0,-75.5 79,-75.5 79,-56.5 0,-56.5"/>
<text text-anchor="middle" x="39.5" y="-63.5" font-family="Helvetica,sans-Serif" font-size="10.00">exceptions.h</text>
</a>
</g>
</g>
<!-- Node5&#45;&gt;Node8 -->
<g id="edge7" class="edge">
<title>Node5&#45;&gt;Node8</title>
<path fill="none" stroke="midnightblue" d="M128.47,-112.32C111.47,-103.66 85.12,-90.24 65.51,-80.25"/>
<polygon fill="midnightblue" stroke="midnightblue" points="66.99,-77.08 56.49,-75.65 63.81,-83.31 66.99,-77.08"/>
</g>
<!-- Node8&#45;&gt;Node6 -->
<g id="edge8" class="edge">
<title>Node8&#45;&gt;Node6</title>
<path fill="none" stroke="midnightblue" d="M63.27,-56.44C88.84,-47.24 129.62,-32.56 157.88,-22.38"/>
<polygon fill="midnightblue" stroke="midnightblue" points="159.09,-25.67 167.31,-18.99 156.72,-19.08 159.09,-25.67"/>
</g>
<!-- Node9 -->
<g id="node9" class="node">
<title>Node9</title>
<g id="a_node9"><a xlink:title=" ">
<polygon fill="white" stroke="#bfbfbf" points="7,-0.5 7,-19.5 72,-19.5 72,-0.5 7,-0.5"/>
<text text-anchor="middle" x="39.5" y="-7.5" font-family="Helvetica,sans-Serif" font-size="10.00">exception</text>
</a>
</g>
</g>
<!-- Node8&#45;&gt;Node9 -->
<g id="edge9" class="edge">
<title>Node8&#45;&gt;Node9</title>
<path fill="none" stroke="midnightblue" d="M39.5,-56.08C39.5,-49.01 39.5,-38.86 39.5,-29.99"/>
<polygon fill="midnightblue" stroke="midnightblue" points="43,-29.75 39.5,-19.75 36,-29.75 43,-29.75"/>
</g>
<!-- Node10&#45;&gt;Node2 -->
<g id="edge29" class="edge">
<title>Node10&#45;&gt;Node2</title>
<path fill="none" stroke="midnightblue" d="M577.62,-176.03C519.04,-172.43 379.09,-155.49 303.5,-76 291.74,-63.63 287.21,-44.38 285.49,-30.04"/>
<polygon fill="midnightblue" stroke="midnightblue" points="288.95,-29.48 284.63,-19.81 281.98,-30.07 288.95,-29.48"/>
</g>
<!-- Node10&#45;&gt;Node4 -->
<g id="edge30" class="edge">
<title>Node10&#45;&gt;Node4</title>
<path fill="none" stroke="midnightblue" d="M608.19,-168.37C615.84,-150.46 633.59,-108.92 643.83,-84.95"/>
<polygon fill="midnightblue" stroke="midnightblue" points="647.12,-86.16 647.83,-75.59 640.68,-83.41 647.12,-86.16"/>
</g>
<!-- Node11 -->
<g id="node11" class="node">
<title>Node11</title>
<g id="a_node11"><a xlink:href="constants_8h.html" target="_top" xlink:title=" ">
<polygon fill="white" stroke="black" points="657,-0.5 657,-19.5 730,-19.5 730,-0.5 657,-0.5"/>
<text text-anchor="middle" x="693.5" y="-7.5" font-family="Helvetica,sans-Serif" font-size="10.00">constants.h</text>
</a>
</g>
</g>
<!-- Node10&#45;&gt;Node11 -->
<g id="edge11" class="edge">
<title>Node10&#45;&gt;Node11</title>
<path fill="none" stroke="midnightblue" d="M615.32,-168.39C634.35,-152.49 673.35,-116.44 689.5,-76 695.34,-61.38 696.01,-43.44 695.41,-30.11"/>
<polygon fill="midnightblue" stroke="midnightblue" points="698.87,-29.5 694.65,-19.79 691.89,-30.02 698.87,-29.5"/>
</g>
<!-- Node10&#45;&gt;Node12 -->
<g id="edge12" class="edge">
<title>Node10&#45;&gt;Node12</title>
<path fill="none" stroke="midnightblue" d="M582.46,-168.44C563.51,-159.83 536.67,-146.43 518.14,-136.41"/>
<polygon fill="midnightblue" stroke="midnightblue" points="519.74,-133.29 509.3,-131.52 516.35,-139.42 519.74,-133.29"/>
</g>
<!-- Node10&#45;&gt;Node14 -->
<g id="edge27" class="edge">
<title>Node10&#45;&gt;Node14</title>
<path fill="none" stroke="midnightblue" d="M631.22,-173.99C677.8,-168.22 771.15,-154.17 794.5,-132 807.01,-120.12 811.42,-100.5 812.91,-85.91"/>
<polygon fill="midnightblue" stroke="midnightblue" points="816.43,-85.75 813.57,-75.54 809.44,-85.3 816.43,-85.75"/>
</g>
<!-- Node20 -->
<g id="node20" class="node">
<title>Node20</title>
<g id="a_node20"><a xlink:href="HelpStructs_8h.html" target="_top" xlink:title=" ">
<polygon fill="white" stroke="black" points="703.5,-112.5 703.5,-131.5 785.5,-131.5 785.5,-112.5 703.5,-112.5"/>
<text text-anchor="middle" x="744.5" y="-119.5" font-family="Helvetica,sans-Serif" font-size="10.00">HelpStructs.h</text>
</a>
</g>
</g>
<!-- Node10&#45;&gt;Node20 -->
<g id="edge28" class="edge">
<title>Node10&#45;&gt;Node20</title>
<path fill="none" stroke="midnightblue" d="M626.68,-168.44C649.93,-159.48 686.65,-145.31 712.92,-135.18"/>
<polygon fill="midnightblue" stroke="midnightblue" points="714.35,-138.38 722.42,-131.52 711.83,-131.85 714.35,-138.38"/>
</g>
<!-- Node21 -->
<g id="node21" class="node">
<title>Node21</title>
<g id="a_node21"><a xlink:title=" ">
<polygon fill="white" stroke="#bfbfbf" points="577.5,-112.5 577.5,-131.5 609.5,-131.5 609.5,-112.5 577.5,-112.5"/>
<text text-anchor="middle" x="593.5" y="-119.5" font-family="Helvetica,sans-Serif" font-size="10.00">set</text>
</a>
</g>
</g>
<!-- Node10&#45;&gt;Node21 -->
<g id="edge31" class="edge">
<title>Node10&#45;&gt;Node21</title>
<path fill="none" stroke="midnightblue" d="M602.68,-168.08C601.23,-160.93 599.13,-150.64 597.31,-141.69"/>
<polygon fill="midnightblue" stroke="midnightblue" points="600.71,-140.85 595.28,-131.75 593.85,-142.25 600.71,-140.85"/>
</g>
<!-- Node12&#45;&gt;Node4 -->
<g id="edge15" class="edge">
<title>Node12&#45;&gt;Node4</title>
<path fill="none" stroke="midnightblue" d="M521.23,-112.68C546.96,-103.66 588.27,-89.17 617.46,-78.93"/>
<polygon fill="midnightblue" stroke="midnightblue" points="618.96,-82.12 627.24,-75.51 616.64,-75.51 618.96,-82.12"/>
</g>
<!-- Node12&#45;&gt;Node6 -->
<g id="edge14" class="edge">
<title>Node12&#45;&gt;Node6</title>
<path fill="none" stroke="midnightblue" d="M473.85,-117.78C436.64,-112.22 362.58,-99.12 303.5,-76 269.16,-62.56 232.66,-40.13 210.47,-25.45"/>
<polygon fill="midnightblue" stroke="midnightblue" points="212.14,-22.35 201.89,-19.68 208.24,-28.16 212.14,-22.35"/>
</g>
<!-- Node12&#45;&gt;Node10 -->
<g id="edge19" class="edge">
<title>Node12&#45;&gt;Node10</title>
<path fill="none" stroke="midnightblue" d="M519.76,-131.65C538.61,-140.23 565.15,-153.48 583.6,-163.45"/>
<polygon fill="midnightblue" stroke="midnightblue" points="581.98,-166.56 592.42,-168.32 585.36,-160.43 581.98,-166.56"/>
</g>
<!-- Node13 -->
<g id="node13" class="node">
<title>Node13</title>
<g id="a_node13"><a xlink:title=" ">
<polygon fill="white" stroke="#bfbfbf" points="461,-56.5 461,-75.5 508,-75.5 508,-56.5 461,-56.5"/>
<text text-anchor="middle" x="484.5" y="-63.5" font-family="Helvetica,sans-Serif" font-size="10.00">vector</text>
</a>
</g>
</g>
<!-- Node12&#45;&gt;Node13 -->
<g id="edge13" class="edge">
<title>Node12&#45;&gt;Node13</title>
<path fill="none" stroke="midnightblue" d="M495.35,-112.08C493.63,-104.93 491.15,-94.64 489,-85.69"/>
<polygon fill="midnightblue" stroke="midnightblue" points="492.35,-84.65 486.61,-75.75 485.54,-86.29 492.35,-84.65"/>
</g>
<!-- Node12&#45;&gt;Node14 -->
<g id="edge16" class="edge">
<title>Node12&#45;&gt;Node14</title>
<path fill="none" stroke="midnightblue" d="M521.25,-116.94C574.52,-107.84 704.13,-85.69 771.41,-74.19"/>
<polygon fill="midnightblue" stroke="midnightblue" points="772.38,-77.58 781.65,-72.44 771.2,-70.68 772.38,-77.58"/>
</g>
<!-- Node15 -->
<g id="node15" class="node">
<title>Node15</title>
<g id="a_node15"><a xlink:title=" ">
<polygon fill="white" stroke="#bfbfbf" points="313,-56.5 313,-75.5 378,-75.5 378,-56.5 313,-56.5"/>
<text text-anchor="middle" x="345.5" y="-63.5" font-family="Helvetica,sans-Serif" font-size="10.00">functional</text>
</a>
</g>
</g>
<!-- Node12&#45;&gt;Node15 -->
<g id="edge17" class="edge">
<title>Node12&#45;&gt;Node15</title>
<path fill="none" stroke="midnightblue" d="M473.75,-112.56C448.36,-103.54 407.88,-89.16 379.19,-78.97"/>
<polygon fill="midnightblue" stroke="midnightblue" points="380.18,-75.61 369.58,-75.56 377.84,-82.2 380.18,-75.61"/>
</g>
<!-- Node16 -->
<g id="node16" class="node">
<title>Node16</title>
<g id="a_node16"><a xlink:title=" ">
<polygon fill="white" stroke="#bfbfbf" points="396,-56.5 396,-75.5 443,-75.5 443,-56.5 396,-56.5"/>
<text text-anchor="middle" x="419.5" y="-63.5" font-family="Helvetica,sans-Serif" font-size="10.00">cmath</text>
</a>
</g>
</g>
<!-- Node12&#45;&gt;Node16 -->
<g id="edge18" class="edge">
<title>Node12&#45;&gt;Node16</title>
<path fill="none" stroke="midnightblue" d="M484.97,-112.32C472.91,-103.98 454.47,-91.21 440.23,-81.35"/>
<polygon fill="midnightblue" stroke="midnightblue" points="442.22,-78.47 432,-75.65 438.23,-84.22 442.22,-78.47"/>
</g>
<!-- Node17 -->
<g id="node17" class="node">
<title>Node17</title>
<g id="a_node17"><a xlink:href="Definitions_8h.html" target="_top" xlink:title=" ">
<polygon fill="white" stroke="black" points="526.5,-56.5 526.5,-75.5 604.5,-75.5 604.5,-56.5 526.5,-56.5"/>
<text text-anchor="middle" x="565.5" y="-63.5" font-family="Helvetica,sans-Serif" font-size="10.00">Definitions.h</text>
</a>
</g>
</g>
<!-- Node12&#45;&gt;Node17 -->
<g id="edge20" class="edge">
<title>Node12&#45;&gt;Node17</title>
<path fill="none" stroke="midnightblue" d="M508.43,-112.32C518.67,-104.18 534.22,-91.84 546.5,-82.09"/>
<polygon fill="midnightblue" stroke="midnightblue" points="548.72,-84.79 554.38,-75.83 544.37,-79.31 548.72,-84.79"/>
</g>
<!-- Node17&#45;&gt;Node2 -->
<g id="edge25" class="edge">
<title>Node17&#45;&gt;Node2</title>
<path fill="none" stroke="midnightblue" d="M526.43,-57.49C473.16,-47.25 378.24,-29.01 324.49,-18.69"/>
<polygon fill="midnightblue" stroke="midnightblue" points="325.12,-15.24 314.64,-16.79 323.8,-22.12 325.12,-15.24"/>
</g>
<!-- Node17&#45;&gt;Node3 -->
<g id="edge21" class="edge">
<title>Node17&#45;&gt;Node3</title>
<path fill="none" stroke="midnightblue" d="M604.76,-57.09C656.17,-46.73 745.69,-28.69 796.14,-18.53"/>
<polygon fill="midnightblue" stroke="midnightblue" points="796.88,-21.95 805.99,-16.54 795.5,-15.09 796.88,-21.95"/>
</g>
<!-- Node17&#45;&gt;Node6 -->
<g id="edge23" class="edge">
<title>Node17&#45;&gt;Node6</title>
<path fill="none" stroke="midnightblue" d="M526.48,-57.65C523.11,-57.07 519.75,-56.51 516.5,-56 396.49,-37.02 365.71,-37.64 245.5,-20 237.71,-18.86 229.32,-17.55 221.47,-16.29"/>
<polygon fill="midnightblue" stroke="midnightblue" points="221.99,-12.83 211.55,-14.69 220.87,-19.74 221.99,-12.83"/>
</g>
<!-- Node17&#45;&gt;Node11 -->
<g id="edge26" class="edge">
<title>Node17&#45;&gt;Node11</title>
<path fill="none" stroke="midnightblue" d="M585.78,-56.44C606.85,-47.56 640.02,-33.56 663.99,-23.45"/>
<polygon fill="midnightblue" stroke="midnightblue" points="665.46,-26.63 673.31,-19.52 662.74,-20.18 665.46,-26.63"/>
</g>
<!-- Node18 -->
<g id="node18" class="node">
<title>Node18</title>
<g id="a_node18"><a xlink:title=" ">
<polygon fill="white" stroke="#bfbfbf" points="496.5,-0.5 496.5,-19.5 534.5,-19.5 534.5,-0.5 496.5,-0.5"/>
<text text-anchor="middle" x="515.5" y="-7.5" font-family="Helvetica,sans-Serif" font-size="10.00">map</text>
</a>
</g>
</g>
<!-- Node17&#45;&gt;Node18 -->
<g id="edge22" class="edge">
<title>Node17&#45;&gt;Node18</title>
<path fill="none" stroke="midnightblue" d="M557.24,-56.08C550.04,-48.3 539.39,-36.8 530.65,-27.37"/>
<polygon fill="midnightblue" stroke="midnightblue" points="532.97,-24.71 523.6,-19.75 527.83,-29.47 532.97,-24.71"/>
</g>
<!-- Node19 -->
<g id="node19" class="node">
<title>Node19</title>
<g id="a_node19"><a xlink:title=" ">
<polygon fill="white" stroke="#bfbfbf" points="552.5,-0.5 552.5,-19.5 608.5,-19.5 608.5,-0.5 552.5,-0.5"/>
<text text-anchor="middle" x="580.5" y="-7.5" font-family="Helvetica,sans-Serif" font-size="10.00">sstream</text>
</a>
</g>
</g>
<!-- Node17&#45;&gt;Node19 -->
<g id="edge24" class="edge">
<title>Node17&#45;&gt;Node19</title>
<path fill="none" stroke="midnightblue" d="M567.98,-56.08C569.99,-48.85 572.89,-38.41 575.39,-29.4"/>
<polygon fill="midnightblue" stroke="midnightblue" points="578.76,-30.32 578.07,-19.75 572.02,-28.45 578.76,-30.32"/>
</g>
</g>
</svg>
