<?xml version="1.0" encoding="UTF-8" standalone="no"?>
<!DOCTYPE svg PUBLIC "-//W3C//DTD SVG 1.1//EN"
 "http://www.w3.org/Graphics/SVG/1.1/DTD/svg11.dtd">
<!-- Generated by graphviz version 2.43.0 (0)
 -->
<!-- Title: src/Player.cpp Pages: 1 -->
<svg width="996pt" height="364pt"
 viewBox="0.00 0.00 995.50 364.00" xmlns="http://www.w3.org/2000/svg" xmlns:xlink="http://www.w3.org/1999/xlink">
<g id="graph0" class="graph" transform="scale(1 1) rotate(0) translate(4 360)">
<title>src/Player.cpp</title>
<polygon fill="white" stroke="transparent" points="-4,4 -4,-360 991.5,-360 991.5,4 -4,4"/>
<!-- Node1 -->
<g id="node1" class="node">
<title>Node1</title>
<g id="a_node1"><a xlink:title=" ">
<polygon fill="#bfbfbf" stroke="black" points="493.5,-336.5 493.5,-355.5 577.5,-355.5 577.5,-336.5 493.5,-336.5"/>
<text text-anchor="middle" x="535.5" y="-343.5" font-family="Helvetica,sans-Serif" font-size="10.00">src/Player.cpp</text>
</a>
</g>
</g>
<!-- Node2 -->
<g id="node2" class="node">
<title>Node2</title>
<g id="a_node2"><a xlink:href="Player_8h.html" target="_top" xlink:title=" ">
<polygon fill="white" stroke="black" points="507.5,-280.5 507.5,-299.5 563.5,-299.5 563.5,-280.5 507.5,-280.5"/>
<text text-anchor="middle" x="535.5" y="-287.5" font-family="Helvetica,sans-Serif" font-size="10.00">Player.h</text>
</a>
</g>
</g>
<!-- Node1&#45;&gt;Node2 -->
<g id="edge1" class="edge">
<title>Node1&#45;&gt;Node2</title>
<path fill="none" stroke="midnightblue" d="M535.5,-336.08C535.5,-329.01 535.5,-318.86 535.5,-309.99"/>
<polygon fill="midnightblue" stroke="midnightblue" points="539,-309.75 535.5,-299.75 532,-309.75 539,-309.75"/>
</g>
<!-- Node3 -->
<g id="node3" class="node">
<title>Node3</title>
<g id="a_node3"><a xlink:href="Entity_8h.html" target="_top" xlink:title=" ">
<polygon fill="white" stroke="black" points="320,-168.5 320,-187.5 373,-187.5 373,-168.5 320,-168.5"/>
<text text-anchor="middle" x="346.5" y="-175.5" font-family="Helvetica,sans-Serif" font-size="10.00">Entity.h</text>
</a>
</g>
</g>
<!-- Node2&#45;&gt;Node3 -->
<g id="edge2" class="edge">
<title>Node2&#45;&gt;Node3</title>
<path fill="none" stroke="midnightblue" d="M520.67,-280.37C487.96,-261.33 409.41,-215.62 369.95,-192.65"/>
<polygon fill="midnightblue" stroke="midnightblue" points="371.66,-189.6 361.26,-187.59 368.14,-195.65 371.66,-189.6"/>
</g>
<!-- Node5 -->
<g id="node5" class="node">
<title>Node5</title>
<g id="a_node5"><a xlink:href="Map_8h.html" target="_top" xlink:title=" ">
<polygon fill="white" stroke="black" points="183,-112.5 183,-131.5 230,-131.5 230,-112.5 183,-112.5"/>
<text text-anchor="middle" x="206.5" y="-119.5" font-family="Helvetica,sans-Serif" font-size="10.00">Map.h</text>
</a>
</g>
</g>
<!-- Node2&#45;&gt;Node5 -->
<g id="edge40" class="edge">
<title>Node2&#45;&gt;Node5</title>
<path fill="none" stroke="midnightblue" d="M507.35,-288.33C442.2,-286.22 283.66,-277.65 244.5,-244 214.4,-218.13 207.85,-168.7 206.61,-141.72"/>
<polygon fill="midnightblue" stroke="midnightblue" points="210.1,-141.57 206.35,-131.66 203.11,-141.75 210.1,-141.57"/>
</g>
<!-- Node6 -->
<g id="node6" class="node">
<title>Node6</title>
<g id="a_node6"><a xlink:title=" ">
<polygon fill="white" stroke="#bfbfbf" points="0,-56.5 0,-75.5 47,-75.5 47,-56.5 0,-56.5"/>
<text text-anchor="middle" x="23.5" y="-63.5" font-family="Helvetica,sans-Serif" font-size="10.00">vector</text>
</a>
</g>
</g>
<!-- Node2&#45;&gt;Node6 -->
<g id="edge42" class="edge">
<title>Node2&#45;&gt;Node6</title>
<path fill="none" stroke="midnightblue" d="M507.09,-286.95C440.37,-281.79 275.51,-267.05 225.5,-244 141.18,-205.14 65.82,-119.64 36.49,-83.57"/>
<polygon fill="midnightblue" stroke="midnightblue" points="39.04,-81.15 30.05,-75.53 33.57,-85.52 39.04,-81.15"/>
</g>
<!-- Node8 -->
<g id="node8" class="node">
<title>Node8</title>
<g id="a_node8"><a xlink:title=" ">
<polygon fill="white" stroke="#bfbfbf" points="332.5,-56.5 332.5,-75.5 390.5,-75.5 390.5,-56.5 332.5,-56.5"/>
<text text-anchor="middle" x="361.5" y="-63.5" font-family="Helvetica,sans-Serif" font-size="10.00">memory</text>
</a>
</g>
</g>
<!-- Node2&#45;&gt;Node8 -->
<g id="edge41" class="edge">
<title>Node2&#45;&gt;Node8</title>
<path fill="none" stroke="midnightblue" d="M507.22,-286.2C456.91,-279.51 353.13,-257.54 310.5,-188 303.48,-176.55 300.77,-141.23 314.5,-112 320.15,-99.98 330.52,-89.51 340.09,-81.7"/>
<polygon fill="midnightblue" stroke="midnightblue" points="342.32,-84.4 348.15,-75.55 338.07,-78.83 342.32,-84.4"/>
</g>
<!-- Node12 -->
<g id="node12" class="node">
<title>Node12</title>
<g id="a_node12"><a xlink:href="Definitions_8h.html" target="_top" xlink:title=" ">
<polygon fill="white" stroke="black" points="564.5,-56.5 564.5,-75.5 642.5,-75.5 642.5,-56.5 564.5,-56.5"/>
<text text-anchor="middle" x="603.5" y="-63.5" font-family="Helvetica,sans-Serif" font-size="10.00">Definitions.h</text>
</a>
</g>
</g>
<!-- Node2&#45;&gt;Node12 -->
<g id="edge39" class="edge">
<title>Node2&#45;&gt;Node12</title>
<path fill="none" stroke="midnightblue" d="M563.77,-285.06C638.56,-273.99 838.48,-239.97 875.5,-188 933.89,-106.04 746.13,-78.76 652.86,-70.39"/>
<polygon fill="midnightblue" stroke="midnightblue" points="653.05,-66.9 642.79,-69.53 652.45,-73.87 653.05,-66.9"/>
</g>
<!-- Node19 -->
<g id="node19" class="node">
<title>Node19</title>
<g id="a_node19"><a xlink:href="Attacker_8h.html" target="_top" xlink:title=" ">
<polygon fill="white" stroke="black" points="503,-224.5 503,-243.5 568,-243.5 568,-224.5 503,-224.5"/>
<text text-anchor="middle" x="535.5" y="-231.5" font-family="Helvetica,sans-Serif" font-size="10.00">Attacker.h</text>
</a>
</g>
</g>
<!-- Node2&#45;&gt;Node19 -->
<g id="edge24" class="edge">
<title>Node2&#45;&gt;Node19</title>
<path fill="none" stroke="midnightblue" d="M535.5,-280.08C535.5,-273.01 535.5,-262.86 535.5,-253.99"/>
<polygon fill="midnightblue" stroke="midnightblue" points="539,-253.75 535.5,-243.75 532,-253.75 539,-253.75"/>
</g>
<!-- Node22 -->
<g id="node22" class="node">
<title>Node22</title>
<g id="a_node22"><a xlink:title=" ">
<polygon fill="white" stroke="#bfbfbf" points="757,-168.5 757,-187.5 804,-187.5 804,-168.5 757,-168.5"/>
<text text-anchor="middle" x="780.5" y="-175.5" font-family="Helvetica,sans-Serif" font-size="10.00">queue</text>
</a>
</g>
</g>
<!-- Node2&#45;&gt;Node22 -->
<g id="edge45" class="edge">
<title>Node2&#45;&gt;Node22</title>
<path fill="none" stroke="midnightblue" d="M554.72,-280.37C597.66,-261.09 701.54,-214.45 752.01,-191.79"/>
<polygon fill="midnightblue" stroke="midnightblue" points="753.68,-194.88 761.36,-187.59 750.81,-188.49 753.68,-194.88"/>
</g>
<!-- Node24 -->
<g id="node24" class="node">
<title>Node24</title>
<g id="a_node24"><a xlink:title=" ">
<polygon fill="white" stroke="#bfbfbf" points="822,-168.5 822,-187.5 867,-187.5 867,-168.5 822,-168.5"/>
<text text-anchor="middle" x="844.5" y="-175.5" font-family="Helvetica,sans-Serif" font-size="10.00">utility</text>
</a>
</g>
</g>
<!-- Node2&#45;&gt;Node24 -->
<g id="edge44" class="edge">
<title>Node2&#45;&gt;Node24</title>
<path fill="none" stroke="midnightblue" d="M562.65,-280.47C590.38,-271.67 634.61,-257.37 672.5,-244 722.09,-226.5 779.08,-204.6 813.41,-191.22"/>
<polygon fill="midnightblue" stroke="midnightblue" points="814.85,-194.42 822.89,-187.52 812.3,-187.9 814.85,-194.42"/>
</g>
<!-- Node25 -->
<g id="node25" class="node">
<title>Node25</title>
<g id="a_node25"><a xlink:title=" ">
<polygon fill="white" stroke="#bfbfbf" points="923.5,-224.5 923.5,-243.5 987.5,-243.5 987.5,-224.5 923.5,-224.5"/>
<text text-anchor="middle" x="955.5" y="-231.5" font-family="Helvetica,sans-Serif" font-size="10.00">algorithm</text>
</a>
</g>
</g>
<!-- Node2&#45;&gt;Node25 -->
<g id="edge43" class="edge">
<title>Node2&#45;&gt;Node25</title>
<path fill="none" stroke="midnightblue" d="M563.75,-286.32C626.26,-280.22 780.95,-264.28 909.5,-244 910.77,-243.8 912.05,-243.59 913.35,-243.37"/>
<polygon fill="midnightblue" stroke="midnightblue" points="914.15,-246.79 923.38,-241.6 912.93,-239.89 914.15,-246.79"/>
</g>
<!-- Node4 -->
<g id="node4" class="node">
<title>Node4</title>
<g id="a_node4"><a xlink:href="constants_8h.html" target="_top" xlink:title=" ">
<polygon fill="white" stroke="black" points="715,-0.5 715,-19.5 788,-19.5 788,-0.5 715,-0.5"/>
<text text-anchor="middle" x="751.5" y="-7.5" font-family="Helvetica,sans-Serif" font-size="10.00">constants.h</text>
</a>
</g>
</g>
<!-- Node3&#45;&gt;Node4 -->
<g id="edge3" class="edge">
<title>Node3&#45;&gt;Node4</title>
<path fill="none" stroke="midnightblue" d="M349.88,-168.08C355.85,-153.63 369.76,-125.37 391.5,-112 490.87,-50.88 542.2,-116.77 651.5,-76 682.96,-64.27 714.69,-41.32 733.72,-26.07"/>
<polygon fill="midnightblue" stroke="midnightblue" points="736.01,-28.72 741.53,-19.67 731.58,-23.3 736.01,-28.72"/>
</g>
<!-- Node3&#45;&gt;Node5 -->
<g id="edge4" class="edge">
<title>Node3&#45;&gt;Node5</title>
<path fill="none" stroke="midnightblue" d="M319.9,-168.68C294.87,-159.8 257.89,-145.63 232.94,-135.43"/>
<polygon fill="midnightblue" stroke="midnightblue" points="234.27,-132.19 223.69,-131.6 231.59,-138.66 234.27,-132.19"/>
</g>
<!-- Node3&#45;&gt;Node8 -->
<g id="edge22" class="edge">
<title>Node3&#45;&gt;Node8</title>
<path fill="none" stroke="midnightblue" d="M338.55,-168.19C328.31,-155.72 312.69,-132.17 320.5,-112 324.95,-100.5 333.87,-90.13 342.25,-82.25"/>
<polygon fill="midnightblue" stroke="midnightblue" points="344.74,-84.73 349.96,-75.51 340.13,-79.46 344.74,-84.73"/>
</g>
<!-- Node9 -->
<g id="node9" class="node">
<title>Node9</title>
<g id="a_node9"><a xlink:title=" ">
<polygon fill="white" stroke="#bfbfbf" points="65,-56.5 65,-75.5 128,-75.5 128,-56.5 65,-56.5"/>
<text text-anchor="middle" x="96.5" y="-63.5" font-family="Helvetica,sans-Serif" font-size="10.00">ncurses.h</text>
</a>
</g>
</g>
<!-- Node3&#45;&gt;Node9 -->
<g id="edge19" class="edge">
<title>Node3&#45;&gt;Node9</title>
<path fill="none" stroke="midnightblue" d="M319.99,-173.84C284.86,-168.83 221.73,-156.97 173.5,-132 149.12,-119.38 125.69,-97.8 111.21,-83"/>
<polygon fill="midnightblue" stroke="midnightblue" points="113.57,-80.4 104.14,-75.57 108.5,-85.22 113.57,-80.4"/>
</g>
<!-- Node16 -->
<g id="node16" class="node">
<title>Node16</title>
<g id="a_node16"><a xlink:title=" ">
<polygon fill="white" stroke="#bfbfbf" points="432.5,-0.5 432.5,-19.5 492.5,-19.5 492.5,-0.5 432.5,-0.5"/>
<text text-anchor="middle" x="462.5" y="-7.5" font-family="Helvetica,sans-Serif" font-size="10.00">iostream</text>
</a>
</g>
</g>
<!-- Node3&#45;&gt;Node16 -->
<g id="edge21" class="edge">
<title>Node3&#45;&gt;Node16</title>
<path fill="none" stroke="midnightblue" d="M346.34,-168.4C346.47,-155.35 348.19,-130.16 358.5,-112 370.47,-90.91 381.94,-92.72 399.5,-76 416.47,-59.85 435.03,-40.47 447.59,-27.1"/>
<polygon fill="midnightblue" stroke="midnightblue" points="450.29,-29.33 454.56,-19.63 445.17,-24.55 450.29,-29.33"/>
</g>
<!-- Node17 -->
<g id="node17" class="node">
<title>Node17</title>
<g id="a_node17"><a xlink:href="HelpStructs_8h.html" target="_top" xlink:title=" ">
<polygon fill="white" stroke="black" points="400.5,-112.5 400.5,-131.5 482.5,-131.5 482.5,-112.5 400.5,-112.5"/>
<text text-anchor="middle" x="441.5" y="-119.5" font-family="Helvetica,sans-Serif" font-size="10.00">HelpStructs.h</text>
</a>
</g>
</g>
<!-- Node3&#45;&gt;Node17 -->
<g id="edge20" class="edge">
<title>Node3&#45;&gt;Node17</title>
<path fill="none" stroke="midnightblue" d="M361.76,-168.32C376.72,-159.82 399.75,-146.73 417.23,-136.8"/>
<polygon fill="midnightblue" stroke="midnightblue" points="419.31,-139.64 426.27,-131.65 415.85,-133.55 419.31,-139.64"/>
</g>
<!-- Node18 -->
<g id="node18" class="node">
<title>Node18</title>
<g id="a_node18"><a xlink:title=" ">
<polygon fill="white" stroke="#bfbfbf" points="500.5,-112.5 500.5,-131.5 532.5,-131.5 532.5,-112.5 500.5,-112.5"/>
<text text-anchor="middle" x="516.5" y="-119.5" font-family="Helvetica,sans-Serif" font-size="10.00">set</text>
</a>
</g>
</g>
<!-- Node3&#45;&gt;Node18 -->
<g id="edge23" class="edge">
<title>Node3&#45;&gt;Node18</title>
<path fill="none" stroke="midnightblue" d="M373.07,-169.14C400.36,-160.99 444.26,-147.64 490.76,-132.15"/>
<polygon fill="midnightblue" stroke="midnightblue" points="492.03,-135.41 500.4,-128.92 489.81,-128.77 492.03,-135.41"/>
</g>
<!-- Node5&#45;&gt;Node3 -->
<g id="edge11" class="edge">
<title>Node5&#45;&gt;Node3</title>
<path fill="none" stroke="midnightblue" d="M230.23,-130.3C255.25,-139.1 294.23,-154.01 320.16,-164.61"/>
<polygon fill="midnightblue" stroke="midnightblue" points="318.83,-167.85 329.41,-168.44 321.51,-161.38 318.83,-167.85"/>
</g>
<!-- Node5&#45;&gt;Node6 -->
<g id="edge5" class="edge">
<title>Node5&#45;&gt;Node6</title>
<path fill="none" stroke="midnightblue" d="M182.95,-114.05C150.92,-104.6 93.44,-87.64 56.95,-76.87"/>
<polygon fill="midnightblue" stroke="midnightblue" points="57.83,-73.48 47.25,-74.01 55.85,-80.2 57.83,-73.48"/>
</g>
<!-- Node7 -->
<g id="node7" class="node">
<title>Node7</title>
<g id="a_node7"><a xlink:title=" ">
<polygon fill="white" stroke="#bfbfbf" points="370.5,-0.5 370.5,-19.5 414.5,-19.5 414.5,-0.5 370.5,-0.5"/>
<text text-anchor="middle" x="392.5" y="-7.5" font-family="Helvetica,sans-Serif" font-size="10.00">string</text>
</a>
</g>
</g>
<!-- Node5&#45;&gt;Node7 -->
<g id="edge6" class="edge">
<title>Node5&#45;&gt;Node7</title>
<path fill="none" stroke="midnightblue" d="M221.5,-112.46C237.24,-103.46 262.68,-88.86 284.5,-76 314.03,-58.6 347.85,-38.16 369.66,-24.91"/>
<polygon fill="midnightblue" stroke="midnightblue" points="371.5,-27.89 378.23,-19.71 367.86,-21.91 371.5,-27.89"/>
</g>
<!-- Node5&#45;&gt;Node8 -->
<g id="edge7" class="edge">
<title>Node5&#45;&gt;Node8</title>
<path fill="none" stroke="midnightblue" d="M230.04,-112.8C255.99,-103.76 297.95,-89.14 327.47,-78.85"/>
<polygon fill="midnightblue" stroke="midnightblue" points="328.68,-82.14 336.97,-75.55 326.37,-75.53 328.68,-82.14"/>
</g>
<!-- Node5&#45;&gt;Node9 -->
<g id="edge8" class="edge">
<title>Node5&#45;&gt;Node9</title>
<path fill="none" stroke="midnightblue" d="M188.83,-112.32C171.11,-103.62 143.6,-90.12 123.21,-80.11"/>
<polygon fill="midnightblue" stroke="midnightblue" points="124.65,-76.92 114.13,-75.65 121.56,-83.2 124.65,-76.92"/>
</g>
<!-- Node10 -->
<g id="node10" class="node">
<title>Node10</title>
<g id="a_node10"><a xlink:title=" ">
<polygon fill="white" stroke="#bfbfbf" points="211,-56.5 211,-75.5 276,-75.5 276,-56.5 211,-56.5"/>
<text text-anchor="middle" x="243.5" y="-63.5" font-family="Helvetica,sans-Serif" font-size="10.00">functional</text>
</a>
</g>
</g>
<!-- Node5&#45;&gt;Node10 -->
<g id="edge9" class="edge">
<title>Node5&#45;&gt;Node10</title>
<path fill="none" stroke="midnightblue" d="M212.61,-112.08C217.78,-104.53 225.35,-93.49 231.69,-84.23"/>
<polygon fill="midnightblue" stroke="midnightblue" points="234.74,-85.98 237.5,-75.75 228.96,-82.02 234.74,-85.98"/>
</g>
<!-- Node11 -->
<g id="node11" class="node">
<title>Node11</title>
<g id="a_node11"><a xlink:title=" ">
<polygon fill="white" stroke="#bfbfbf" points="146,-56.5 146,-75.5 193,-75.5 193,-56.5 146,-56.5"/>
<text text-anchor="middle" x="169.5" y="-63.5" font-family="Helvetica,sans-Serif" font-size="10.00">cmath</text>
</a>
</g>
</g>
<!-- Node5&#45;&gt;Node11 -->
<g id="edge10" class="edge">
<title>Node5&#45;&gt;Node11</title>
<path fill="none" stroke="midnightblue" d="M200.39,-112.08C195.22,-104.53 187.65,-93.49 181.31,-84.23"/>
<polygon fill="midnightblue" stroke="midnightblue" points="184.04,-82.02 175.5,-75.75 178.26,-85.98 184.04,-82.02"/>
</g>
<!-- Node5&#45;&gt;Node12 -->
<g id="edge12" class="edge">
<title>Node5&#45;&gt;Node12</title>
<path fill="none" stroke="midnightblue" d="M230.15,-117.78C293.51,-109.17 468.12,-85.41 554.2,-73.71"/>
<polygon fill="midnightblue" stroke="midnightblue" points="554.81,-77.15 564.25,-72.34 553.87,-70.22 554.81,-77.15"/>
</g>
<!-- Node12&#45;&gt;Node4 -->
<g id="edge18" class="edge">
<title>Node12&#45;&gt;Node4</title>
<path fill="none" stroke="midnightblue" d="M626.95,-56.44C651.63,-47.44 690.69,-33.19 718.48,-23.05"/>
<polygon fill="midnightblue" stroke="midnightblue" points="719.96,-26.23 728.16,-19.52 717.56,-19.66 719.96,-26.23"/>
</g>
<!-- Node12&#45;&gt;Node7 -->
<g id="edge15" class="edge">
<title>Node12&#45;&gt;Node7</title>
<path fill="none" stroke="midnightblue" d="M567.54,-56.43C533.19,-48.15 479.74,-35.03 424.74,-20.27"/>
<polygon fill="midnightblue" stroke="midnightblue" points="425.39,-16.82 414.82,-17.59 423.57,-23.57 425.39,-16.82"/>
</g>
<!-- Node13 -->
<g id="node13" class="node">
<title>Node13</title>
<g id="a_node13"><a xlink:title=" ">
<polygon fill="white" stroke="#bfbfbf" points="511,-0.5 511,-19.5 566,-19.5 566,-0.5 511,-0.5"/>
<text text-anchor="middle" x="538.5" y="-7.5" font-family="Helvetica,sans-Serif" font-size="10.00">fstream</text>
</a>
</g>
</g>
<!-- Node12&#45;&gt;Node13 -->
<g id="edge13" class="edge">
<title>Node12&#45;&gt;Node13</title>
<path fill="none" stroke="midnightblue" d="M593.06,-56.32C583.35,-48.26 568.68,-36.08 557,-26.37"/>
<polygon fill="midnightblue" stroke="midnightblue" points="559.06,-23.53 549.13,-19.83 554.59,-28.92 559.06,-23.53"/>
</g>
<!-- Node14 -->
<g id="node14" class="node">
<title>Node14</title>
<g id="a_node14"><a xlink:title=" ">
<polygon fill="white" stroke="#bfbfbf" points="584.5,-0.5 584.5,-19.5 622.5,-19.5 622.5,-0.5 584.5,-0.5"/>
<text text-anchor="middle" x="603.5" y="-7.5" font-family="Helvetica,sans-Serif" font-size="10.00">map</text>
</a>
</g>
</g>
<!-- Node12&#45;&gt;Node14 -->
<g id="edge14" class="edge">
<title>Node12&#45;&gt;Node14</title>
<path fill="none" stroke="midnightblue" d="M603.5,-56.08C603.5,-49.01 603.5,-38.86 603.5,-29.99"/>
<polygon fill="midnightblue" stroke="midnightblue" points="607,-29.75 603.5,-19.75 600,-29.75 607,-29.75"/>
</g>
<!-- Node15 -->
<g id="node15" class="node">
<title>Node15</title>
<g id="a_node15"><a xlink:title=" ">
<polygon fill="white" stroke="#bfbfbf" points="640.5,-0.5 640.5,-19.5 696.5,-19.5 696.5,-0.5 640.5,-0.5"/>
<text text-anchor="middle" x="668.5" y="-7.5" font-family="Helvetica,sans-Serif" font-size="10.00">sstream</text>
</a>
</g>
</g>
<!-- Node12&#45;&gt;Node15 -->
<g id="edge16" class="edge">
<title>Node12&#45;&gt;Node15</title>
<path fill="none" stroke="midnightblue" d="M613.94,-56.32C623.65,-48.26 638.32,-36.08 650,-26.37"/>
<polygon fill="midnightblue" stroke="midnightblue" points="652.41,-28.92 657.87,-19.83 647.94,-23.53 652.41,-28.92"/>
</g>
<!-- Node12&#45;&gt;Node16 -->
<g id="edge17" class="edge">
<title>Node12&#45;&gt;Node16</title>
<path fill="none" stroke="midnightblue" d="M581.16,-56.44C557.75,-47.48 520.76,-33.31 494.31,-23.18"/>
<polygon fill="midnightblue" stroke="midnightblue" points="495.33,-19.82 484.74,-19.52 492.82,-26.36 495.33,-19.82"/>
</g>
<!-- Node19&#45;&gt;Node3 -->
<g id="edge25" class="edge">
<title>Node19&#45;&gt;Node3</title>
<path fill="none" stroke="midnightblue" d="M505.55,-224.44C472.39,-214.97 418.93,-199.69 383.26,-189.5"/>
<polygon fill="midnightblue" stroke="midnightblue" points="383.83,-186.03 373.25,-186.64 381.91,-192.76 383.83,-186.03"/>
</g>
<!-- Node19&#45;&gt;Node4 -->
<g id="edge26" class="edge">
<title>Node19&#45;&gt;Node4</title>
<path fill="none" stroke="midnightblue" d="M568.28,-232.28C603.63,-229.76 659.41,-220.44 693.5,-188 738.74,-144.96 748.73,-66.14 750.91,-30.01"/>
<polygon fill="midnightblue" stroke="midnightblue" points="754.41,-30.03 751.38,-19.88 747.42,-29.71 754.41,-30.03"/>
</g>
<!-- Node19&#45;&gt;Node5 -->
<g id="edge27" class="edge">
<title>Node19&#45;&gt;Node5</title>
<path fill="none" stroke="midnightblue" d="M502.79,-230.18C458.04,-225.51 375.85,-213.95 310.5,-188 278.44,-175.27 245.3,-152.62 225.29,-137.7"/>
<polygon fill="midnightblue" stroke="midnightblue" points="227.4,-134.9 217.32,-131.64 223.17,-140.48 227.4,-134.9"/>
</g>
<!-- Node19&#45;&gt;Node6 -->
<g id="edge33" class="edge">
<title>Node19&#45;&gt;Node6</title>
<path fill="none" stroke="midnightblue" d="M502.73,-230.15C451.62,-225.11 350.21,-212.76 267.5,-188 208.4,-170.31 195.74,-159.45 140.5,-132 107.4,-115.55 70.25,-94.44 46.88,-80.82"/>
<polygon fill="midnightblue" stroke="midnightblue" points="48.44,-77.68 38.04,-75.65 44.9,-83.72 48.44,-77.68"/>
</g>
<!-- Node19&#45;&gt;Node8 -->
<g id="edge35" class="edge">
<title>Node19&#45;&gt;Node8</title>
<path fill="none" stroke="midnightblue" d="M539.41,-224.24C548.42,-202.58 567.91,-145.82 541.5,-112 524.37,-90.06 448.34,-77.24 400.74,-71.22"/>
<polygon fill="midnightblue" stroke="midnightblue" points="401.1,-67.74 390.75,-70 400.26,-74.68 401.1,-67.74"/>
</g>
<!-- Node19&#45;&gt;Node12 -->
<g id="edge32" class="edge">
<title>Node19&#45;&gt;Node12</title>
<path fill="none" stroke="midnightblue" d="M568.05,-229.52C597.91,-224.77 641.75,-213.67 670.5,-188 690.97,-169.72 690.58,-158.8 696.5,-132 698.42,-123.32 701.22,-119.53 696.5,-112 686.62,-96.25 669.5,-85.87 652.61,-79.11"/>
<polygon fill="midnightblue" stroke="midnightblue" points="653.35,-75.65 642.75,-75.52 650.96,-82.23 653.35,-75.65"/>
</g>
<!-- Node19&#45;&gt;Node17 -->
<g id="edge31" class="edge">
<title>Node19&#45;&gt;Node17</title>
<path fill="none" stroke="midnightblue" d="M528.12,-224.37C512.47,-206.05 475.72,-163.05 455.48,-139.36"/>
<polygon fill="midnightblue" stroke="midnightblue" points="458,-136.92 448.84,-131.59 452.68,-141.47 458,-136.92"/>
</g>
<!-- Node19&#45;&gt;Node18 -->
<g id="edge34" class="edge">
<title>Node19&#45;&gt;Node18</title>
<path fill="none" stroke="midnightblue" d="M534.01,-224.37C530.94,-206.62 523.87,-165.67 519.71,-141.6"/>
<polygon fill="midnightblue" stroke="midnightblue" points="523.14,-140.85 517.98,-131.59 516.24,-142.04 523.14,-140.85"/>
</g>
<!-- Node20 -->
<g id="node20" class="node">
<title>Node20</title>
<g id="a_node20"><a xlink:href="exceptions_8h.html" target="_top" xlink:title=" ">
<polygon fill="white" stroke="black" points="583,-168.5 583,-187.5 662,-187.5 662,-168.5 583,-168.5"/>
<text text-anchor="middle" x="622.5" y="-175.5" font-family="Helvetica,sans-Serif" font-size="10.00">exceptions.h</text>
</a>
</g>
</g>
<!-- Node19&#45;&gt;Node20 -->
<g id="edge28" class="edge">
<title>Node19&#45;&gt;Node20</title>
<path fill="none" stroke="midnightblue" d="M549.48,-224.32C563.05,-215.9 583.88,-202.97 599.82,-193.07"/>
<polygon fill="midnightblue" stroke="midnightblue" points="601.91,-195.9 608.56,-187.65 598.21,-189.95 601.91,-195.9"/>
</g>
<!-- Node19&#45;&gt;Node22 -->
<g id="edge36" class="edge">
<title>Node19&#45;&gt;Node22</title>
<path fill="none" stroke="midnightblue" d="M568.17,-226.09C609,-217.42 680.99,-201.97 742.5,-188 743.95,-187.67 745.42,-187.33 746.91,-186.99"/>
<polygon fill="midnightblue" stroke="midnightblue" points="747.86,-190.36 756.8,-184.68 746.27,-183.55 747.86,-190.36"/>
</g>
<!-- Node23 -->
<g id="node23" class="node">
<title>Node23</title>
<g id="a_node23"><a xlink:title=" ">
<polygon fill="white" stroke="#bfbfbf" points="403,-168.5 403,-187.5 450,-187.5 450,-168.5 403,-168.5"/>
<text text-anchor="middle" x="426.5" y="-175.5" font-family="Helvetica,sans-Serif" font-size="10.00">deque</text>
</a>
</g>
</g>
<!-- Node19&#45;&gt;Node23 -->
<g id="edge37" class="edge">
<title>Node19&#45;&gt;Node23</title>
<path fill="none" stroke="midnightblue" d="M517.99,-224.32C500.43,-215.62 473.17,-202.12 452.97,-192.11"/>
<polygon fill="midnightblue" stroke="midnightblue" points="454.48,-188.96 443.97,-187.65 451.38,-195.23 454.48,-188.96"/>
</g>
<!-- Node19&#45;&gt;Node24 -->
<g id="edge38" class="edge">
<title>Node19&#45;&gt;Node24</title>
<path fill="none" stroke="midnightblue" d="M568.14,-228.92C618.39,-222.37 717.87,-208.36 811.89,-187.91"/>
<polygon fill="midnightblue" stroke="midnightblue" points="812.84,-191.28 821.85,-185.71 811.34,-184.45 812.84,-191.28"/>
</g>
<!-- Node20&#45;&gt;Node7 -->
<g id="edge29" class="edge">
<title>Node20&#45;&gt;Node7</title>
<path fill="none" stroke="midnightblue" d="M634.66,-168.34C650.99,-155.63 676.42,-131.37 662.5,-112 633.22,-71.25 602.6,-93.3 555.5,-76 508.59,-58.77 454.87,-36.93 422.33,-23.47"/>
<polygon fill="midnightblue" stroke="midnightblue" points="423.52,-20.17 412.95,-19.57 420.84,-26.64 423.52,-20.17"/>
</g>
<!-- Node21 -->
<g id="node21" class="node">
<title>Node21</title>
<g id="a_node21"><a xlink:title=" ">
<polygon fill="white" stroke="#bfbfbf" points="589,-112.5 589,-131.5 654,-131.5 654,-112.5 589,-112.5"/>
<text text-anchor="middle" x="621.5" y="-119.5" font-family="Helvetica,sans-Serif" font-size="10.00">exception</text>
</a>
</g>
</g>
<!-- Node20&#45;&gt;Node21 -->
<g id="edge30" class="edge">
<title>Node20&#45;&gt;Node21</title>
<path fill="none" stroke="midnightblue" d="M622.33,-168.08C622.2,-161.01 622.02,-150.86 621.85,-141.99"/>
<polygon fill="midnightblue" stroke="midnightblue" points="625.35,-141.68 621.66,-131.75 618.35,-141.81 625.35,-141.68"/>
</g>
</g>
</svg>
