<?xml version="1.0" encoding="UTF-8" standalone="no"?>
<!DOCTYPE svg PUBLIC "-//W3C//DTD SVG 1.1//EN"
 "http://www.w3.org/Graphics/SVG/1.1/DTD/svg11.dtd">
<!-- Generated by graphviz version 2.43.0 (0)
 -->
<!-- Title: src/Player.h Pages: 1 -->
<svg width="995pt" height="308pt"
 viewBox="0.00 0.00 995.00 308.00" xmlns="http://www.w3.org/2000/svg" xmlns:xlink="http://www.w3.org/1999/xlink">
<g id="graph0" class="graph" transform="scale(1 1) rotate(0) translate(4 304)">
<title>src/Player.h</title>
<polygon fill="white" stroke="transparent" points="-4,4 -4,-304 991,-304 991,4 -4,4"/>
<!-- Node1 -->
<g id="node1" class="node">
<title>Node1</title>
<g id="a_node1"><a xlink:title=" ">
<polygon fill="#bfbfbf" stroke="black" points="388.5,-280.5 388.5,-299.5 461.5,-299.5 461.5,-280.5 388.5,-280.5"/>
<text text-anchor="middle" x="425" y="-287.5" font-family="Helvetica,sans-Serif" font-size="10.00">src/Player.h</text>
</a>
</g>
</g>
<!-- Node2 -->
<g id="node2" class="node">
<title>Node2</title>
<g id="a_node2"><a xlink:href="Entity_8h.html" target="_top" xlink:title=" ">
<polygon fill="white" stroke="black" points="306.5,-168.5 306.5,-187.5 359.5,-187.5 359.5,-168.5 306.5,-168.5"/>
<text text-anchor="middle" x="333" y="-175.5" font-family="Helvetica,sans-Serif" font-size="10.00">Entity.h</text>
</a>
</g>
</g>
<!-- Node1&#45;&gt;Node2 -->
<g id="edge1" class="edge">
<title>Node1&#45;&gt;Node2</title>
<path fill="none" stroke="midnightblue" d="M417.78,-280.37C402.46,-262.05 366.5,-219.05 346.68,-195.36"/>
<polygon fill="midnightblue" stroke="midnightblue" points="349.29,-193.02 340.19,-187.59 343.92,-197.51 349.29,-193.02"/>
</g>
<!-- Node4 -->
<g id="node4" class="node">
<title>Node4</title>
<g id="a_node4"><a xlink:href="Map_8h.html" target="_top" xlink:title=" ">
<polygon fill="white" stroke="black" points="302.5,-112.5 302.5,-131.5 349.5,-131.5 349.5,-112.5 302.5,-112.5"/>
<text text-anchor="middle" x="326" y="-119.5" font-family="Helvetica,sans-Serif" font-size="10.00">Map.h</text>
</a>
</g>
</g>
<!-- Node1&#45;&gt;Node4 -->
<g id="edge40" class="edge">
<title>Node1&#45;&gt;Node4</title>
<path fill="none" stroke="midnightblue" d="M403.24,-280.43C371.32,-266.52 312.98,-235.69 289,-188 280.32,-170.74 294.23,-151.58 307.4,-138.57"/>
<polygon fill="midnightblue" stroke="midnightblue" points="309.91,-141.02 314.9,-131.67 305.17,-135.87 309.91,-141.02"/>
</g>
<!-- Node5 -->
<g id="node5" class="node">
<title>Node5</title>
<g id="a_node5"><a xlink:title=" ">
<polygon fill="white" stroke="#bfbfbf" points="159.5,-56.5 159.5,-75.5 206.5,-75.5 206.5,-56.5 159.5,-56.5"/>
<text text-anchor="middle" x="183" y="-63.5" font-family="Helvetica,sans-Serif" font-size="10.00">vector</text>
</a>
</g>
</g>
<!-- Node1&#45;&gt;Node5 -->
<g id="edge39" class="edge">
<title>Node1&#45;&gt;Node5</title>
<path fill="none" stroke="midnightblue" d="M392.9,-280.48C369.18,-273.21 336.83,-261.19 312,-244 256.64,-205.68 246.12,-188.82 210,-132 200.69,-117.35 193.4,-98.95 188.75,-85.47"/>
<polygon fill="midnightblue" stroke="midnightblue" points="192.05,-84.29 185.61,-75.88 185.4,-86.47 192.05,-84.29"/>
</g>
<!-- Node7 -->
<g id="node7" class="node">
<title>Node7</title>
<g id="a_node7"><a xlink:title=" ">
<polygon fill="white" stroke="#bfbfbf" points="670,-56.5 670,-75.5 728,-75.5 728,-56.5 670,-56.5"/>
<text text-anchor="middle" x="699" y="-63.5" font-family="Helvetica,sans-Serif" font-size="10.00">memory</text>
</a>
</g>
</g>
<!-- Node1&#45;&gt;Node7 -->
<g id="edge38" class="edge">
<title>Node1&#45;&gt;Node7</title>
<path fill="none" stroke="midnightblue" d="M461.54,-286.58C559.6,-279.24 824.57,-253.59 876,-188 919.39,-132.67 802.38,-93.11 738.05,-76.18"/>
<polygon fill="midnightblue" stroke="midnightblue" points="738.77,-72.75 728.22,-73.66 737.03,-79.53 738.77,-72.75"/>
</g>
<!-- Node11 -->
<g id="node11" class="node">
<title>Node11</title>
<g id="a_node11"><a xlink:href="Definitions_8h.html" target="_top" xlink:title=" ">
<polygon fill="white" stroke="black" points="63,-56.5 63,-75.5 141,-75.5 141,-56.5 63,-56.5"/>
<text text-anchor="middle" x="102" y="-63.5" font-family="Helvetica,sans-Serif" font-size="10.00">Definitions.h</text>
</a>
</g>
</g>
<!-- Node1&#45;&gt;Node11 -->
<g id="edge37" class="edge">
<title>Node1&#45;&gt;Node11</title>
<path fill="none" stroke="midnightblue" d="M388.24,-281.86C357.93,-275 314.46,-262.84 280,-244 212.2,-206.92 199.01,-189.16 147,-132 133.47,-117.13 120.7,-98 112.24,-84.35"/>
<polygon fill="midnightblue" stroke="midnightblue" points="115.06,-82.27 106.89,-75.52 109.08,-85.89 115.06,-82.27"/>
</g>
<!-- Node17 -->
<g id="node17" class="node">
<title>Node17</title>
<g id="a_node17"><a xlink:href="Attacker_8h.html" target="_top" xlink:title=" ">
<polygon fill="white" stroke="black" points="423.5,-224.5 423.5,-243.5 488.5,-243.5 488.5,-224.5 423.5,-224.5"/>
<text text-anchor="middle" x="456" y="-231.5" font-family="Helvetica,sans-Serif" font-size="10.00">Attacker.h</text>
</a>
</g>
</g>
<!-- Node1&#45;&gt;Node17 -->
<g id="edge22" class="edge">
<title>Node1&#45;&gt;Node17</title>
<path fill="none" stroke="midnightblue" d="M430.12,-280.08C434.41,-272.61 440.66,-261.72 445.94,-252.52"/>
<polygon fill="midnightblue" stroke="midnightblue" points="449.03,-254.17 450.98,-243.75 442.96,-250.68 449.03,-254.17"/>
</g>
<!-- Node18 -->
<g id="node18" class="node">
<title>Node18</title>
<g id="a_node18"><a xlink:title=" ">
<polygon fill="white" stroke="#bfbfbf" points="819.5,-168.5 819.5,-187.5 866.5,-187.5 866.5,-168.5 819.5,-168.5"/>
<text text-anchor="middle" x="843" y="-175.5" font-family="Helvetica,sans-Serif" font-size="10.00">queue</text>
</a>
</g>
</g>
<!-- Node1&#45;&gt;Node18 -->
<g id="edge42" class="edge">
<title>Node1&#45;&gt;Node18</title>
<path fill="none" stroke="midnightblue" d="M457.45,-280.46C535.1,-260.03 730.99,-208.48 809.6,-187.79"/>
<polygon fill="midnightblue" stroke="midnightblue" points="810.68,-191.13 819.46,-185.2 808.89,-184.36 810.68,-191.13"/>
</g>
<!-- Node24 -->
<g id="node24" class="node">
<title>Node24</title>
<g id="a_node24"><a xlink:title=" ">
<polygon fill="white" stroke="#bfbfbf" points="923,-224.5 923,-243.5 987,-243.5 987,-224.5 923,-224.5"/>
<text text-anchor="middle" x="955" y="-231.5" font-family="Helvetica,sans-Serif" font-size="10.00">algorithm</text>
</a>
</g>
</g>
<!-- Node1&#45;&gt;Node24 -->
<g id="edge41" class="edge">
<title>Node1&#45;&gt;Node24</title>
<path fill="none" stroke="midnightblue" d="M461.58,-286.86C542.52,-281.85 742.78,-267.93 909,-244 910.27,-243.82 911.56,-243.62 912.85,-243.42"/>
<polygon fill="midnightblue" stroke="midnightblue" points="913.63,-246.84 922.9,-241.71 912.45,-239.94 913.63,-246.84"/>
</g>
<!-- Node3 -->
<g id="node3" class="node">
<title>Node3</title>
<g id="a_node3"><a xlink:href="constants_8h.html" target="_top" xlink:title=" ">
<polygon fill="white" stroke="black" points="543.5,-0.5 543.5,-19.5 616.5,-19.5 616.5,-0.5 543.5,-0.5"/>
<text text-anchor="middle" x="580" y="-7.5" font-family="Helvetica,sans-Serif" font-size="10.00">constants.h</text>
</a>
</g>
</g>
<!-- Node2&#45;&gt;Node3 -->
<g id="edge2" class="edge">
<title>Node2&#45;&gt;Node3</title>
<path fill="none" stroke="midnightblue" d="M346.6,-168.37C360.6,-159.43 382.98,-144.98 402,-132 414.63,-123.38 416.54,-119.26 430,-112 469.01,-90.95 486.67,-101.39 523,-76 541.57,-63.02 558.05,-42.75 568.46,-28.3"/>
<polygon fill="midnightblue" stroke="midnightblue" points="571.55,-29.99 574.38,-19.78 565.8,-25.99 571.55,-29.99"/>
</g>
<!-- Node2&#45;&gt;Node4 -->
<g id="edge3" class="edge">
<title>Node2&#45;&gt;Node4</title>
<path fill="none" stroke="midnightblue" d="M326.68,-168.08C324.27,-161.01 322.51,-150.86 321.98,-141.99"/>
<polygon fill="midnightblue" stroke="midnightblue" points="325.48,-141.76 322,-131.75 318.48,-141.74 325.48,-141.76"/>
</g>
<!-- Node2&#45;&gt;Node7 -->
<g id="edge19" class="edge">
<title>Node2&#45;&gt;Node7</title>
<path fill="none" stroke="midnightblue" d="M351.6,-168.38C371.13,-159.32 402.72,-144.67 430,-132 449.12,-123.12 452.97,-118.55 473,-112 536.85,-91.13 614.18,-78.27 659.83,-71.9"/>
<polygon fill="midnightblue" stroke="midnightblue" points="660.46,-75.35 669.9,-70.53 659.51,-68.41 660.46,-75.35"/>
</g>
<!-- Node8 -->
<g id="node8" class="node">
<title>Node8</title>
<g id="a_node8"><a xlink:title=" ">
<polygon fill="white" stroke="#bfbfbf" points="450.5,-56.5 450.5,-75.5 513.5,-75.5 513.5,-56.5 450.5,-56.5"/>
<text text-anchor="middle" x="482" y="-63.5" font-family="Helvetica,sans-Serif" font-size="10.00">ncurses.h</text>
</a>
</g>
</g>
<!-- Node2&#45;&gt;Node8 -->
<g id="edge21" class="edge">
<title>Node2&#45;&gt;Node8</title>
<path fill="none" stroke="midnightblue" d="M340.91,-168.29C353.17,-155.11 377.87,-129.74 402,-112 418.48,-99.88 438.55,-88.6 454.46,-80.37"/>
<polygon fill="midnightblue" stroke="midnightblue" points="456.42,-83.3 463.76,-75.65 453.26,-77.05 456.42,-83.3"/>
</g>
<!-- Node15 -->
<g id="node15" class="node">
<title>Node15</title>
<g id="a_node15"><a xlink:title=" ">
<polygon fill="white" stroke="#bfbfbf" points="205,-0.5 205,-19.5 265,-19.5 265,-0.5 205,-0.5"/>
<text text-anchor="middle" x="235" y="-7.5" font-family="Helvetica,sans-Serif" font-size="10.00">iostream</text>
</a>
</g>
</g>
<!-- Node2&#45;&gt;Node15 -->
<g id="edge18" class="edge">
<title>Node2&#45;&gt;Node15</title>
<path fill="none" stroke="midnightblue" d="M324.31,-168.39C308.19,-151.93 273.63,-114.24 255,-76 247.73,-61.07 242.41,-42.93 239.09,-29.61"/>
<polygon fill="midnightblue" stroke="midnightblue" points="242.47,-28.67 236.78,-19.73 235.65,-30.27 242.47,-28.67"/>
</g>
<!-- Node16 -->
<g id="node16" class="node">
<title>Node16</title>
<g id="a_node16"><a xlink:title=" ">
<polygon fill="white" stroke="#bfbfbf" points="482,-112.5 482,-131.5 514,-131.5 514,-112.5 482,-112.5"/>
<text text-anchor="middle" x="498" y="-119.5" font-family="Helvetica,sans-Serif" font-size="10.00">set</text>
</a>
</g>
</g>
<!-- Node2&#45;&gt;Node16 -->
<g id="edge20" class="edge">
<title>Node2&#45;&gt;Node16</title>
<path fill="none" stroke="midnightblue" d="M359.14,-168.44C390.17,-158.29 441.56,-141.47 472.36,-131.39"/>
<polygon fill="midnightblue" stroke="midnightblue" points="473.54,-134.69 481.96,-128.25 471.36,-128.03 473.54,-134.69"/>
</g>
<!-- Node4&#45;&gt;Node2 -->
<g id="edge10" class="edge">
<title>Node4&#45;&gt;Node2</title>
<path fill="none" stroke="midnightblue" d="M332.27,-131.75C334.69,-138.78 336.45,-148.91 337,-157.8"/>
<polygon fill="midnightblue" stroke="midnightblue" points="333.5,-158.09 337.01,-168.08 340.5,-158.08 333.5,-158.09"/>
</g>
<!-- Node4&#45;&gt;Node5 -->
<g id="edge4" class="edge">
<title>Node4&#45;&gt;Node5</title>
<path fill="none" stroke="midnightblue" d="M303.34,-112.44C279.6,-103.48 242.09,-89.31 215.26,-79.18"/>
<polygon fill="midnightblue" stroke="midnightblue" points="216.14,-75.77 205.55,-75.52 213.67,-82.32 216.14,-75.77"/>
</g>
<!-- Node6 -->
<g id="node6" class="node">
<title>Node6</title>
<g id="a_node6"><a xlink:title=" ">
<polygon fill="white" stroke="#bfbfbf" points="400,-0.5 400,-19.5 444,-19.5 444,-0.5 400,-0.5"/>
<text text-anchor="middle" x="422" y="-7.5" font-family="Helvetica,sans-Serif" font-size="10.00">string</text>
</a>
</g>
</g>
<!-- Node4&#45;&gt;Node6 -->
<g id="edge5" class="edge">
<title>Node4&#45;&gt;Node6</title>
<path fill="none" stroke="midnightblue" d="M349.8,-112.64C366.94,-105.45 389.37,-93.45 403,-76 413.39,-62.69 418.11,-43.86 420.24,-29.89"/>
<polygon fill="midnightblue" stroke="midnightblue" points="423.72,-30.28 421.46,-19.93 416.77,-29.43 423.72,-30.28"/>
</g>
<!-- Node4&#45;&gt;Node7 -->
<g id="edge6" class="edge">
<title>Node4&#45;&gt;Node7</title>
<path fill="none" stroke="midnightblue" d="M349.62,-117.58C412.1,-108.54 582.23,-83.91 659.67,-72.69"/>
<polygon fill="midnightblue" stroke="midnightblue" points="660.56,-76.1 669.96,-71.2 659.56,-69.17 660.56,-76.1"/>
</g>
<!-- Node4&#45;&gt;Node8 -->
<g id="edge7" class="edge">
<title>Node4&#45;&gt;Node8</title>
<path fill="none" stroke="midnightblue" d="M349.69,-112.8C375.81,-103.76 418.04,-89.14 447.75,-78.85"/>
<polygon fill="midnightblue" stroke="midnightblue" points="449,-82.13 457.31,-75.55 446.71,-75.51 449,-82.13"/>
</g>
<!-- Node9 -->
<g id="node9" class="node">
<title>Node9</title>
<g id="a_node9"><a xlink:title=" ">
<polygon fill="white" stroke="#bfbfbf" points="263.5,-56.5 263.5,-75.5 328.5,-75.5 328.5,-56.5 263.5,-56.5"/>
<text text-anchor="middle" x="296" y="-63.5" font-family="Helvetica,sans-Serif" font-size="10.00">functional</text>
</a>
</g>
</g>
<!-- Node4&#45;&gt;Node9 -->
<g id="edge8" class="edge">
<title>Node4&#45;&gt;Node9</title>
<path fill="none" stroke="midnightblue" d="M321.05,-112.08C316.9,-104.61 310.85,-93.72 305.73,-84.52"/>
<polygon fill="midnightblue" stroke="midnightblue" points="308.78,-82.79 300.86,-75.75 302.66,-86.19 308.78,-82.79"/>
</g>
<!-- Node10 -->
<g id="node10" class="node">
<title>Node10</title>
<g id="a_node10"><a xlink:title=" ">
<polygon fill="white" stroke="#bfbfbf" points="346.5,-56.5 346.5,-75.5 393.5,-75.5 393.5,-56.5 346.5,-56.5"/>
<text text-anchor="middle" x="370" y="-63.5" font-family="Helvetica,sans-Serif" font-size="10.00">cmath</text>
</a>
</g>
</g>
<!-- Node4&#45;&gt;Node10 -->
<g id="edge9" class="edge">
<title>Node4&#45;&gt;Node10</title>
<path fill="none" stroke="midnightblue" d="M333.27,-112.08C339.54,-104.38 348.79,-93.03 356.43,-83.65"/>
<polygon fill="midnightblue" stroke="midnightblue" points="359.27,-85.71 362.87,-75.75 353.84,-81.29 359.27,-85.71"/>
</g>
<!-- Node4&#45;&gt;Node11 -->
<g id="edge11" class="edge">
<title>Node4&#45;&gt;Node11</title>
<path fill="none" stroke="midnightblue" d="M302.45,-115.32C265.72,-106.47 194.14,-89.21 147.21,-77.9"/>
<polygon fill="midnightblue" stroke="midnightblue" points="147.84,-74.45 137.3,-75.51 146.2,-81.26 147.84,-74.45"/>
</g>
<!-- Node11&#45;&gt;Node3 -->
<g id="edge17" class="edge">
<title>Node11&#45;&gt;Node3</title>
<path fill="none" stroke="midnightblue" d="M141.25,-57.37C144.21,-56.88 147.15,-56.42 150,-56 288.79,-35.76 454.07,-21.09 533.22,-14.65"/>
<polygon fill="midnightblue" stroke="midnightblue" points="533.66,-18.12 543.35,-13.83 533.1,-11.14 533.66,-18.12"/>
</g>
<!-- Node11&#45;&gt;Node6 -->
<g id="edge14" class="edge">
<title>Node11&#45;&gt;Node6</title>
<path fill="none" stroke="midnightblue" d="M141.02,-57.61C144.06,-57.06 147.08,-56.52 150,-56 236.47,-40.74 338.69,-24.24 389.68,-16.12"/>
<polygon fill="midnightblue" stroke="midnightblue" points="390.43,-19.54 399.76,-14.51 389.33,-12.63 390.43,-19.54"/>
</g>
<!-- Node12 -->
<g id="node12" class="node">
<title>Node12</title>
<g id="a_node12"><a xlink:title=" ">
<polygon fill="white" stroke="#bfbfbf" points="74.5,-0.5 74.5,-19.5 129.5,-19.5 129.5,-0.5 74.5,-0.5"/>
<text text-anchor="middle" x="102" y="-7.5" font-family="Helvetica,sans-Serif" font-size="10.00">fstream</text>
</a>
</g>
</g>
<!-- Node11&#45;&gt;Node12 -->
<g id="edge12" class="edge">
<title>Node11&#45;&gt;Node12</title>
<path fill="none" stroke="midnightblue" d="M102,-56.08C102,-49.01 102,-38.86 102,-29.99"/>
<polygon fill="midnightblue" stroke="midnightblue" points="105.5,-29.75 102,-19.75 98.5,-29.75 105.5,-29.75"/>
</g>
<!-- Node13 -->
<g id="node13" class="node">
<title>Node13</title>
<g id="a_node13"><a xlink:title=" ">
<polygon fill="white" stroke="#bfbfbf" points="148,-0.5 148,-19.5 186,-19.5 186,-0.5 148,-0.5"/>
<text text-anchor="middle" x="167" y="-7.5" font-family="Helvetica,sans-Serif" font-size="10.00">map</text>
</a>
</g>
</g>
<!-- Node11&#45;&gt;Node13 -->
<g id="edge13" class="edge">
<title>Node11&#45;&gt;Node13</title>
<path fill="none" stroke="midnightblue" d="M112.44,-56.32C122.15,-48.26 136.82,-36.08 148.5,-26.37"/>
<polygon fill="midnightblue" stroke="midnightblue" points="150.91,-28.92 156.37,-19.83 146.44,-23.53 150.91,-28.92"/>
</g>
<!-- Node14 -->
<g id="node14" class="node">
<title>Node14</title>
<g id="a_node14"><a xlink:title=" ">
<polygon fill="white" stroke="#bfbfbf" points="0,-0.5 0,-19.5 56,-19.5 56,-0.5 0,-0.5"/>
<text text-anchor="middle" x="28" y="-7.5" font-family="Helvetica,sans-Serif" font-size="10.00">sstream</text>
</a>
</g>
</g>
<!-- Node11&#45;&gt;Node14 -->
<g id="edge15" class="edge">
<title>Node11&#45;&gt;Node14</title>
<path fill="none" stroke="midnightblue" d="M90.11,-56.32C78.85,-48.11 61.71,-35.6 48.29,-25.81"/>
<polygon fill="midnightblue" stroke="midnightblue" points="50.25,-22.9 40.11,-19.83 46.12,-28.56 50.25,-22.9"/>
</g>
<!-- Node11&#45;&gt;Node15 -->
<g id="edge16" class="edge">
<title>Node11&#45;&gt;Node15</title>
<path fill="none" stroke="midnightblue" d="M123.07,-56.44C145.06,-47.52 179.73,-33.44 204.66,-23.32"/>
<polygon fill="midnightblue" stroke="midnightblue" points="206.08,-26.52 214.02,-19.52 203.44,-20.04 206.08,-26.52"/>
</g>
<!-- Node17&#45;&gt;Node2 -->
<g id="edge23" class="edge">
<title>Node17&#45;&gt;Node2</title>
<path fill="none" stroke="midnightblue" d="M436.51,-224.44C416.36,-215.6 384.68,-201.69 361.67,-191.59"/>
<polygon fill="midnightblue" stroke="midnightblue" points="362.96,-188.33 352.4,-187.52 360.15,-194.74 362.96,-188.33"/>
</g>
<!-- Node17&#45;&gt;Node3 -->
<g id="edge24" class="edge">
<title>Node17&#45;&gt;Node3</title>
<path fill="none" stroke="midnightblue" d="M488.76,-230.4C562.21,-224.25 734.98,-207.81 752,-188 790.49,-143.22 777.31,-99.15 737,-56 708.81,-25.83 661.89,-15.42 626.67,-12.06"/>
<polygon fill="midnightblue" stroke="midnightblue" points="626.86,-8.56 616.61,-11.25 626.3,-15.54 626.86,-8.56"/>
</g>
<!-- Node17&#45;&gt;Node4 -->
<g id="edge30" class="edge">
<title>Node17&#45;&gt;Node4</title>
<path fill="none" stroke="midnightblue" d="M423.43,-228.37C381.74,-221.71 313.08,-207.97 298,-188 286.84,-173.22 298.53,-153.31 310.03,-139.44"/>
<polygon fill="midnightblue" stroke="midnightblue" points="312.91,-141.47 316.96,-131.68 307.68,-136.81 312.91,-141.47"/>
</g>
<!-- Node17&#45;&gt;Node5 -->
<g id="edge25" class="edge">
<title>Node17&#45;&gt;Node5</title>
<path fill="none" stroke="midnightblue" d="M423.31,-229.88C387.92,-225.26 330.92,-214.12 289,-188 245.51,-160.9 209.91,-110.5 193.23,-84.11"/>
<polygon fill="midnightblue" stroke="midnightblue" points="196.19,-82.24 187.96,-75.56 190.23,-85.91 196.19,-82.24"/>
</g>
<!-- Node17&#45;&gt;Node7 -->
<g id="edge27" class="edge">
<title>Node17&#45;&gt;Node7</title>
<path fill="none" stroke="midnightblue" d="M488.6,-230.08C558.59,-223.48 718.21,-206.55 734,-188 759.75,-157.74 731.32,-109.49 712.65,-84.02"/>
<polygon fill="midnightblue" stroke="midnightblue" points="715.18,-81.57 706.32,-75.74 709.61,-85.82 715.18,-81.57"/>
</g>
<!-- Node17&#45;&gt;Node11 -->
<g id="edge35" class="edge">
<title>Node17&#45;&gt;Node11</title>
<path fill="none" stroke="midnightblue" d="M423.39,-229.81C383.33,-224.95 314.02,-213.41 260,-188 201.63,-160.55 144.37,-108.79 117.64,-82.77"/>
<polygon fill="midnightblue" stroke="midnightblue" points="119.93,-80.11 110.36,-75.58 115.01,-85.09 119.93,-80.11"/>
</g>
<!-- Node17&#45;&gt;Node16 -->
<g id="edge26" class="edge">
<title>Node17&#45;&gt;Node16</title>
<path fill="none" stroke="midnightblue" d="M441.69,-224.49C423.21,-212.37 394.87,-189.24 408,-168 415.31,-156.17 448.35,-141.64 472.29,-132.35"/>
<polygon fill="midnightblue" stroke="midnightblue" points="473.77,-135.53 481.88,-128.72 471.29,-128.99 473.77,-135.53"/>
</g>
<!-- Node17&#45;&gt;Node18 -->
<g id="edge28" class="edge">
<title>Node17&#45;&gt;Node18</title>
<path fill="none" stroke="midnightblue" d="M488.9,-229.91C550.99,-223.84 689.61,-209.05 805,-188 806.46,-187.73 807.95,-187.45 809.45,-187.15"/>
<polygon fill="midnightblue" stroke="midnightblue" points="810.33,-190.54 819.36,-185 808.85,-183.69 810.33,-190.54"/>
</g>
<!-- Node19 -->
<g id="node19" class="node">
<title>Node19</title>
<g id="a_node19"><a xlink:title=" ">
<polygon fill="white" stroke="#bfbfbf" points="513.5,-168.5 513.5,-187.5 560.5,-187.5 560.5,-168.5 513.5,-168.5"/>
<text text-anchor="middle" x="537" y="-175.5" font-family="Helvetica,sans-Serif" font-size="10.00">deque</text>
</a>
</g>
</g>
<!-- Node17&#45;&gt;Node19 -->
<g id="edge29" class="edge">
<title>Node17&#45;&gt;Node19</title>
<path fill="none" stroke="midnightblue" d="M469.01,-224.32C481.53,-215.98 500.68,-203.21 515.47,-193.35"/>
<polygon fill="midnightblue" stroke="midnightblue" points="517.64,-196.11 524.02,-187.65 513.76,-190.29 517.64,-196.11"/>
</g>
<!-- Node20 -->
<g id="node20" class="node">
<title>Node20</title>
<g id="a_node20"><a xlink:href="exceptions_8h.html" target="_top" xlink:title=" ">
<polygon fill="white" stroke="black" points="416.5,-168.5 416.5,-187.5 495.5,-187.5 495.5,-168.5 416.5,-168.5"/>
<text text-anchor="middle" x="456" y="-175.5" font-family="Helvetica,sans-Serif" font-size="10.00">exceptions.h</text>
</a>
</g>
</g>
<!-- Node17&#45;&gt;Node20 -->
<g id="edge31" class="edge">
<title>Node17&#45;&gt;Node20</title>
<path fill="none" stroke="midnightblue" d="M456,-224.08C456,-217.01 456,-206.86 456,-197.99"/>
<polygon fill="midnightblue" stroke="midnightblue" points="459.5,-197.75 456,-187.75 452.5,-197.75 459.5,-197.75"/>
</g>
<!-- Node22 -->
<g id="node22" class="node">
<title>Node22</title>
<g id="a_node22"><a xlink:href="HelpStructs_8h.html" target="_top" xlink:title=" ">
<polygon fill="white" stroke="black" points="579,-168.5 579,-187.5 661,-187.5 661,-168.5 579,-168.5"/>
<text text-anchor="middle" x="620" y="-175.5" font-family="Helvetica,sans-Serif" font-size="10.00">HelpStructs.h</text>
</a>
</g>
</g>
<!-- Node17&#45;&gt;Node22 -->
<g id="edge34" class="edge">
<title>Node17&#45;&gt;Node22</title>
<path fill="none" stroke="midnightblue" d="M481.99,-224.44C509.7,-215.32 553.75,-200.81 584.62,-190.65"/>
<polygon fill="midnightblue" stroke="midnightblue" points="585.73,-193.97 594.14,-187.52 583.54,-187.32 585.73,-193.97"/>
</g>
<!-- Node23 -->
<g id="node23" class="node">
<title>Node23</title>
<g id="a_node23"><a xlink:title=" ">
<polygon fill="white" stroke="#bfbfbf" points="679.5,-168.5 679.5,-187.5 724.5,-187.5 724.5,-168.5 679.5,-168.5"/>
<text text-anchor="middle" x="702" y="-175.5" font-family="Helvetica,sans-Serif" font-size="10.00">utility</text>
</a>
</g>
</g>
<!-- Node17&#45;&gt;Node23 -->
<g id="edge36" class="edge">
<title>Node17&#45;&gt;Node23</title>
<path fill="none" stroke="midnightblue" d="M488.78,-226.81C529.02,-219.07 599.52,-205 669.46,-188"/>
<polygon fill="midnightblue" stroke="midnightblue" points="670.44,-191.36 679.32,-185.58 668.78,-184.56 670.44,-191.36"/>
</g>
<!-- Node20&#45;&gt;Node6 -->
<g id="edge32" class="edge">
<title>Node20&#45;&gt;Node6</title>
<path fill="none" stroke="midnightblue" d="M478.79,-168.47C494.33,-161.32 513.71,-149.44 523,-132 538.89,-102.19 541.39,-84.33 523,-56 507.88,-32.72 477.62,-21.38 454.14,-15.92"/>
<polygon fill="midnightblue" stroke="midnightblue" points="454.74,-12.47 444.24,-13.86 453.32,-19.32 454.74,-12.47"/>
</g>
<!-- Node21 -->
<g id="node21" class="node">
<title>Node21</title>
<g id="a_node21"><a xlink:title=" ">
<polygon fill="white" stroke="#bfbfbf" points="570.5,-112.5 570.5,-131.5 635.5,-131.5 635.5,-112.5 570.5,-112.5"/>
<text text-anchor="middle" x="603" y="-119.5" font-family="Helvetica,sans-Serif" font-size="10.00">exception</text>
</a>
</g>
</g>
<!-- Node20&#45;&gt;Node21 -->
<g id="edge33" class="edge">
<title>Node20&#45;&gt;Node21</title>
<path fill="none" stroke="midnightblue" d="M479.29,-168.44C503.81,-159.44 542.6,-145.19 570.2,-135.05"/>
<polygon fill="midnightblue" stroke="midnightblue" points="571.64,-138.25 579.82,-131.52 569.22,-131.68 571.64,-138.25"/>
</g>
</g>
</svg>
