<?xml version="1.0" encoding="UTF-8" standalone="no"?>
<!DOCTYPE svg PUBLIC "-//W3C//DTD SVG 1.1//EN"
 "http://www.w3.org/Graphics/SVG/1.1/DTD/svg11.dtd">
<!-- Generated by graphviz version 2.43.0 (0)
 -->
<!-- Title: src/Player.cpp Pages: 1 -->
<svg width="1058pt" height="364pt"
 viewBox="0.00 0.00 1057.61 364.00" xmlns="http://www.w3.org/2000/svg" xmlns:xlink="http://www.w3.org/1999/xlink">
<g id="graph0" class="graph" transform="scale(1 1) rotate(0) translate(4 360)">
<title>src/Player.cpp</title>
<polygon fill="white" stroke="transparent" points="-4,4 -4,-360 1053.61,-360 1053.61,4 -4,4"/>
<!-- Node1 -->
<g id="node1" class="node">
<title>Node1</title>
<g id="a_node1"><a xlink:title=" ">
<polygon fill="#bfbfbf" stroke="black" points="736,-336.5 736,-355.5 820,-355.5 820,-336.5 736,-336.5"/>
<text text-anchor="middle" x="778" y="-343.5" font-family="Helvetica,sans-Serif" font-size="10.00">src/Player.cpp</text>
</a>
</g>
</g>
<!-- Node2 -->
<g id="node2" class="node">
<title>Node2</title>
<g id="a_node2"><a xlink:href="Player_8h.html" target="_top" xlink:title=" ">
<polygon fill="white" stroke="black" points="432,-280.5 432,-299.5 488,-299.5 488,-280.5 432,-280.5"/>
<text text-anchor="middle" x="460" y="-287.5" font-family="Helvetica,sans-Serif" font-size="10.00">Player.h</text>
</a>
</g>
</g>
<!-- Node1&#45;&gt;Node2 -->
<g id="edge1" class="edge">
<title>Node1&#45;&gt;Node2</title>
<path fill="none" stroke="midnightblue" d="M735.77,-337.83C673.61,-327.27 558.39,-307.71 498.46,-297.53"/>
<polygon fill="midnightblue" stroke="midnightblue" points="498.73,-294.03 488.29,-295.8 497.56,-300.93 498.73,-294.03"/>
</g>
<!-- Node24 -->
<g id="node24" class="node">
<title>Node24</title>
<g id="a_node24"><a xlink:title=" ">
<polygon fill="white" stroke="#bfbfbf" points="985.5,-168.5 985.5,-187.5 1030.5,-187.5 1030.5,-168.5 985.5,-168.5"/>
<text text-anchor="middle" x="1008" y="-175.5" font-family="Helvetica,sans-Serif" font-size="10.00">utility</text>
</a>
</g>
</g>
<!-- Node1&#45;&gt;Node24 -->
<g id="edge44" class="edge">
<title>Node1&#45;&gt;Node24</title>
<path fill="none" stroke="midnightblue" d="M790.04,-336.31C827.3,-309.42 941.01,-227.35 987.68,-193.67"/>
<polygon fill="midnightblue" stroke="midnightblue" points="990.02,-196.3 996.08,-187.61 985.92,-190.62 990.02,-196.3"/>
</g>
<!-- Node3 -->
<g id="node3" class="node">
<title>Node3</title>
<g id="a_node3"><a xlink:href="Entity_8h.html" target="_top" xlink:title=" ">
<polygon fill="white" stroke="black" points="433.5,-168.5 433.5,-187.5 486.5,-187.5 486.5,-168.5 433.5,-168.5"/>
<text text-anchor="middle" x="460" y="-175.5" font-family="Helvetica,sans-Serif" font-size="10.00">Entity.h</text>
</a>
</g>
</g>
<!-- Node2&#45;&gt;Node3 -->
<g id="edge2" class="edge">
<title>Node2&#45;&gt;Node3</title>
<path fill="none" stroke="midnightblue" d="M460,-280.37C460,-262.62 460,-221.67 460,-197.6"/>
<polygon fill="midnightblue" stroke="midnightblue" points="463.5,-197.59 460,-187.59 456.5,-197.59 463.5,-197.59"/>
</g>
<!-- Node5 -->
<g id="node5" class="node">
<title>Node5</title>
<g id="a_node5"><a xlink:href="Map_8h.html" target="_top" xlink:title=" ">
<polygon fill="white" stroke="black" points="291.5,-112.5 291.5,-131.5 338.5,-131.5 338.5,-112.5 291.5,-112.5"/>
<text text-anchor="middle" x="315" y="-119.5" font-family="Helvetica,sans-Serif" font-size="10.00">Map.h</text>
</a>
</g>
</g>
<!-- Node2&#45;&gt;Node5 -->
<g id="edge41" class="edge">
<title>Node2&#45;&gt;Node5</title>
<path fill="none" stroke="midnightblue" d="M431.65,-286.66C382.89,-281.98 286.38,-269.65 266,-244 240.28,-211.64 276.08,-163.97 298.79,-139.23"/>
<polygon fill="midnightblue" stroke="midnightblue" points="301.53,-141.44 305.89,-131.78 296.46,-136.61 301.53,-141.44"/>
</g>
<!-- Node6 -->
<g id="node6" class="node">
<title>Node6</title>
<g id="a_node6"><a xlink:title=" ">
<polygon fill="white" stroke="#bfbfbf" points="882.5,-56.5 882.5,-75.5 929.5,-75.5 929.5,-56.5 882.5,-56.5"/>
<text text-anchor="middle" x="906" y="-63.5" font-family="Helvetica,sans-Serif" font-size="10.00">vector</text>
</a>
</g>
</g>
<!-- Node2&#45;&gt;Node6 -->
<g id="edge40" class="edge">
<title>Node2&#45;&gt;Node6</title>
<path fill="none" stroke="midnightblue" d="M488.33,-288.65C594.72,-286.68 967.98,-273.67 1040,-188 1077.52,-143.37 989.77,-99.71 938.98,-79.18"/>
<polygon fill="midnightblue" stroke="midnightblue" points="940.25,-75.92 929.67,-75.5 937.68,-82.43 940.25,-75.92"/>
</g>
<!-- Node8 -->
<g id="node8" class="node">
<title>Node8</title>
<g id="a_node8"><a xlink:title=" ">
<polygon fill="white" stroke="#bfbfbf" points="447,-56.5 447,-75.5 505,-75.5 505,-56.5 447,-56.5"/>
<text text-anchor="middle" x="476" y="-63.5" font-family="Helvetica,sans-Serif" font-size="10.00">memory</text>
</a>
</g>
</g>
<!-- Node2&#45;&gt;Node8 -->
<g id="edge39" class="edge">
<title>Node2&#45;&gt;Node8</title>
<path fill="none" stroke="midnightblue" d="M454.25,-280.27C441.93,-260.47 414.87,-210.55 425,-168 432.55,-136.31 451.72,-103.28 464.29,-83.96"/>
<polygon fill="midnightblue" stroke="midnightblue" points="467.21,-85.9 469.85,-75.64 461.38,-82.01 467.21,-85.9"/>
</g>
<!-- Node12 -->
<g id="node12" class="node">
<title>Node12</title>
<g id="a_node12"><a xlink:href="Definitions_8h.html" target="_top" xlink:title=" ">
<polygon fill="white" stroke="black" points="82,-56.5 82,-75.5 160,-75.5 160,-56.5 82,-56.5"/>
<text text-anchor="middle" x="121" y="-63.5" font-family="Helvetica,sans-Serif" font-size="10.00">Definitions.h</text>
</a>
</g>
</g>
<!-- Node2&#45;&gt;Node12 -->
<g id="edge38" class="edge">
<title>Node2&#45;&gt;Node12</title>
<path fill="none" stroke="midnightblue" d="M431.67,-288.89C389.65,-287.47 309.76,-279.8 254,-244 190.71,-203.36 146.46,-121.43 129.13,-85.08"/>
<polygon fill="midnightblue" stroke="midnightblue" points="132.17,-83.33 124.79,-75.73 125.83,-86.27 132.17,-83.33"/>
</g>
<!-- Node18 -->
<g id="node18" class="node">
<title>Node18</title>
<g id="a_node18"><a xlink:href="Attacker_8h.html" target="_top" xlink:title=" ">
<polygon fill="white" stroke="black" points="588.5,-224.5 588.5,-243.5 653.5,-243.5 653.5,-224.5 588.5,-224.5"/>
<text text-anchor="middle" x="621" y="-231.5" font-family="Helvetica,sans-Serif" font-size="10.00">Attacker.h</text>
</a>
</g>
</g>
<!-- Node2&#45;&gt;Node18 -->
<g id="edge23" class="edge">
<title>Node2&#45;&gt;Node18</title>
<path fill="none" stroke="midnightblue" d="M485.51,-280.44C512.6,-271.36 555.59,-256.94 585.87,-246.78"/>
<polygon fill="midnightblue" stroke="midnightblue" points="587.24,-250.01 595.61,-243.52 585.01,-243.38 587.24,-250.01"/>
</g>
<!-- Node19 -->
<g id="node19" class="node">
<title>Node19</title>
<g id="a_node19"><a xlink:title=" ">
<polygon fill="white" stroke="#bfbfbf" points="920.5,-168.5 920.5,-187.5 967.5,-187.5 967.5,-168.5 920.5,-168.5"/>
<text text-anchor="middle" x="944" y="-175.5" font-family="Helvetica,sans-Serif" font-size="10.00">queue</text>
</a>
</g>
</g>
<!-- Node2&#45;&gt;Node19 -->
<g id="edge43" class="edge">
<title>Node2&#45;&gt;Node19</title>
<path fill="none" stroke="midnightblue" d="M488.26,-282.81C527.49,-274.21 600.68,-258.09 663,-244 771.1,-219.56 798.08,-213.22 906,-188 907.44,-187.66 908.92,-187.32 910.41,-186.97"/>
<polygon fill="midnightblue" stroke="midnightblue" points="911.36,-190.34 920.29,-184.64 909.75,-183.53 911.36,-190.34"/>
</g>
<!-- Node25 -->
<g id="node25" class="node">
<title>Node25</title>
<g id="a_node25"><a xlink:title=" ">
<polygon fill="white" stroke="#bfbfbf" points="275,-224.5 275,-243.5 339,-243.5 339,-224.5 275,-224.5"/>
<text text-anchor="middle" x="307" y="-231.5" font-family="Helvetica,sans-Serif" font-size="10.00">algorithm</text>
</a>
</g>
</g>
<!-- Node2&#45;&gt;Node25 -->
<g id="edge42" class="edge">
<title>Node2&#45;&gt;Node25</title>
<path fill="none" stroke="midnightblue" d="M435.76,-280.44C410.13,-271.4 369.51,-257.06 340.76,-246.92"/>
<polygon fill="midnightblue" stroke="midnightblue" points="341.72,-243.54 331.13,-243.52 339.39,-250.15 341.72,-243.54"/>
</g>
<!-- Node4 -->
<g id="node4" class="node">
<title>Node4</title>
<g id="a_node4"><a xlink:href="constants_8h.html" target="_top" xlink:title=" ">
<polygon fill="white" stroke="black" points="572.5,-0.5 572.5,-19.5 645.5,-19.5 645.5,-0.5 572.5,-0.5"/>
<text text-anchor="middle" x="609" y="-7.5" font-family="Helvetica,sans-Serif" font-size="10.00">constants.h</text>
</a>
</g>
</g>
<!-- Node3&#45;&gt;Node4 -->
<g id="edge3" class="edge">
<title>Node3&#45;&gt;Node4</title>
<path fill="none" stroke="midnightblue" d="M468.01,-168.08C491.97,-141.38 563.34,-61.87 594.35,-27.32"/>
<polygon fill="midnightblue" stroke="midnightblue" points="597.23,-29.35 601.31,-19.57 592.02,-24.67 597.23,-29.35"/>
</g>
<!-- Node3&#45;&gt;Node5 -->
<g id="edge4" class="edge">
<title>Node3&#45;&gt;Node5</title>
<path fill="none" stroke="midnightblue" d="M433.31,-168.92C407.44,-160.05 368.66,-145.7 342.53,-135.4"/>
<polygon fill="midnightblue" stroke="midnightblue" points="343.77,-132.13 333.18,-131.68 341.17,-138.63 343.77,-132.13"/>
</g>
<!-- Node3&#45;&gt;Node8 -->
<g id="edge20" class="edge">
<title>Node3&#45;&gt;Node8</title>
<path fill="none" stroke="midnightblue" d="M460.7,-168.14C461.75,-155.59 463.93,-131.97 467,-112 468.35,-103.23 470.22,-93.57 471.92,-85.46"/>
<polygon fill="midnightblue" stroke="midnightblue" points="475.36,-86.1 474.04,-75.59 468.52,-84.63 475.36,-86.1"/>
</g>
<!-- Node9 -->
<g id="node9" class="node">
<title>Node9</title>
<g id="a_node9"><a xlink:title=" ">
<polygon fill="white" stroke="#bfbfbf" points="365.5,-56.5 365.5,-75.5 428.5,-75.5 428.5,-56.5 365.5,-56.5"/>
<text text-anchor="middle" x="397" y="-63.5" font-family="Helvetica,sans-Serif" font-size="10.00">ncurses.h</text>
</a>
</g>
</g>
<!-- Node3&#45;&gt;Node9 -->
<g id="edge22" class="edge">
<title>Node3&#45;&gt;Node9</title>
<path fill="none" stroke="midnightblue" d="M455.06,-168.37C444.71,-150.3 420.58,-108.18 406.91,-84.31"/>
<polygon fill="midnightblue" stroke="midnightblue" points="409.93,-82.53 401.92,-75.59 403.85,-86.01 409.93,-82.53"/>
</g>
<!-- Node16 -->
<g id="node16" class="node">
<title>Node16</title>
<g id="a_node16"><a xlink:title=" ">
<polygon fill="white" stroke="#bfbfbf" points="204,-0.5 204,-19.5 264,-19.5 264,-0.5 204,-0.5"/>
<text text-anchor="middle" x="234" y="-7.5" font-family="Helvetica,sans-Serif" font-size="10.00">iostream</text>
</a>
</g>
</g>
<!-- Node3&#45;&gt;Node16 -->
<g id="edge19" class="edge">
<title>Node3&#45;&gt;Node16</title>
<path fill="none" stroke="midnightblue" d="M464.85,-168.21C477.88,-144.56 512.74,-81.01 514,-76 516.16,-67.38 519.8,-62.73 514,-56 480.45,-17.06 341.38,-28.71 274.3,-19.82"/>
<polygon fill="midnightblue" stroke="midnightblue" points="274.61,-16.33 264.18,-18.21 273.51,-23.24 274.61,-16.33"/>
</g>
<!-- Node17 -->
<g id="node17" class="node">
<title>Node17</title>
<g id="a_node17"><a xlink:title=" ">
<polygon fill="white" stroke="#bfbfbf" points="547,-112.5 547,-131.5 579,-131.5 579,-112.5 547,-112.5"/>
<text text-anchor="middle" x="563" y="-119.5" font-family="Helvetica,sans-Serif" font-size="10.00">set</text>
</a>
</g>
</g>
<!-- Node3&#45;&gt;Node17 -->
<g id="edge21" class="edge">
<title>Node3&#45;&gt;Node17</title>
<path fill="none" stroke="midnightblue" d="M476.55,-168.32C493.09,-159.65 518.74,-146.21 537.81,-136.21"/>
<polygon fill="midnightblue" stroke="midnightblue" points="539.6,-139.22 546.83,-131.48 536.35,-133.02 539.6,-139.22"/>
</g>
<!-- Node5&#45;&gt;Node3 -->
<g id="edge11" class="edge">
<title>Node5&#45;&gt;Node3</title>
<path fill="none" stroke="midnightblue" d="M338.91,-130.14C364.82,-138.94 405.73,-154.05 432.81,-164.73"/>
<polygon fill="midnightblue" stroke="midnightblue" points="431.53,-167.98 442.11,-168.44 434.12,-161.48 431.53,-167.98"/>
</g>
<!-- Node5&#45;&gt;Node6 -->
<g id="edge5" class="edge">
<title>Node5&#45;&gt;Node6</title>
<path fill="none" stroke="midnightblue" d="M338.53,-118.85C430.37,-110.46 764.84,-79.9 872.42,-70.07"/>
<polygon fill="midnightblue" stroke="midnightblue" points="872.76,-73.55 882.4,-69.16 872.12,-66.58 872.76,-73.55"/>
</g>
<!-- Node7 -->
<g id="node7" class="node">
<title>Node7</title>
<g id="a_node7"><a xlink:title=" ">
<polygon fill="white" stroke="#bfbfbf" points="282,-0.5 282,-19.5 326,-19.5 326,-0.5 282,-0.5"/>
<text text-anchor="middle" x="304" y="-7.5" font-family="Helvetica,sans-Serif" font-size="10.00">string</text>
</a>
</g>
</g>
<!-- Node5&#45;&gt;Node7 -->
<g id="edge6" class="edge">
<title>Node5&#45;&gt;Node7</title>
<path fill="none" stroke="midnightblue" d="M302.79,-112.24C292.65,-104.14 278.96,-91.11 273,-76 266.31,-59.02 277.33,-40.26 288.04,-27.28"/>
<polygon fill="midnightblue" stroke="midnightblue" points="290.8,-29.45 294.85,-19.66 285.58,-24.79 290.8,-29.45"/>
</g>
<!-- Node5&#45;&gt;Node8 -->
<g id="edge7" class="edge">
<title>Node5&#45;&gt;Node8</title>
<path fill="none" stroke="midnightblue" d="M338.76,-113.03C365.75,-103.98 410.06,-89.12 441.01,-78.74"/>
<polygon fill="midnightblue" stroke="midnightblue" points="442.18,-82.03 450.55,-75.54 439.96,-75.4 442.18,-82.03"/>
</g>
<!-- Node5&#45;&gt;Node9 -->
<g id="edge8" class="edge">
<title>Node5&#45;&gt;Node9</title>
<path fill="none" stroke="midnightblue" d="M328.17,-112.32C340.85,-103.98 360.23,-91.21 375.21,-81.35"/>
<polygon fill="midnightblue" stroke="midnightblue" points="377.43,-84.08 383.86,-75.65 373.58,-78.23 377.43,-84.08"/>
</g>
<!-- Node10 -->
<g id="node10" class="node">
<title>Node10</title>
<g id="a_node10"><a xlink:title=" ">
<polygon fill="white" stroke="#bfbfbf" points="282.5,-56.5 282.5,-75.5 347.5,-75.5 347.5,-56.5 282.5,-56.5"/>
<text text-anchor="middle" x="315" y="-63.5" font-family="Helvetica,sans-Serif" font-size="10.00">functional</text>
</a>
</g>
</g>
<!-- Node5&#45;&gt;Node10 -->
<g id="edge9" class="edge">
<title>Node5&#45;&gt;Node10</title>
<path fill="none" stroke="midnightblue" d="M315,-112.08C315,-105.01 315,-94.86 315,-85.99"/>
<polygon fill="midnightblue" stroke="midnightblue" points="318.5,-85.75 315,-75.75 311.5,-85.75 318.5,-85.75"/>
</g>
<!-- Node11 -->
<g id="node11" class="node">
<title>Node11</title>
<g id="a_node11"><a xlink:title=" ">
<polygon fill="white" stroke="#bfbfbf" points="178.5,-56.5 178.5,-75.5 225.5,-75.5 225.5,-56.5 178.5,-56.5"/>
<text text-anchor="middle" x="202" y="-63.5" font-family="Helvetica,sans-Serif" font-size="10.00">cmath</text>
</a>
</g>
</g>
<!-- Node5&#45;&gt;Node11 -->
<g id="edge10" class="edge">
<title>Node5&#45;&gt;Node11</title>
<path fill="none" stroke="midnightblue" d="M297.09,-112.44C278.75,-103.68 249.99,-89.94 228.91,-79.86"/>
<polygon fill="midnightblue" stroke="midnightblue" points="230.35,-76.67 219.82,-75.52 227.33,-82.99 230.35,-76.67"/>
</g>
<!-- Node5&#45;&gt;Node12 -->
<g id="edge12" class="edge">
<title>Node5&#45;&gt;Node12</title>
<path fill="none" stroke="midnightblue" d="M291.21,-114.38C258.91,-105.39 200.73,-89.19 161.49,-78.27"/>
<polygon fill="midnightblue" stroke="midnightblue" points="162.27,-74.86 151.7,-75.55 160.39,-81.6 162.27,-74.86"/>
</g>
<!-- Node12&#45;&gt;Node4 -->
<g id="edge18" class="edge">
<title>Node12&#45;&gt;Node4</title>
<path fill="none" stroke="midnightblue" d="M160.25,-57.36C163.21,-56.87 166.15,-56.41 169,-56 311.55,-35.38 481.43,-20.82 562.06,-14.51"/>
<polygon fill="midnightblue" stroke="midnightblue" points="562.67,-17.97 572.37,-13.71 562.13,-10.99 562.67,-17.97"/>
</g>
<!-- Node12&#45;&gt;Node7 -->
<g id="edge15" class="edge">
<title>Node12&#45;&gt;Node7</title>
<path fill="none" stroke="midnightblue" d="M150,-56.44C183.15,-46.66 237.28,-30.69 271.74,-20.52"/>
<polygon fill="midnightblue" stroke="midnightblue" points="273.16,-23.75 281.76,-17.56 271.18,-17.04 273.16,-23.75"/>
</g>
<!-- Node13 -->
<g id="node13" class="node">
<title>Node13</title>
<g id="a_node13"><a xlink:title=" ">
<polygon fill="white" stroke="#bfbfbf" points="130.5,-0.5 130.5,-19.5 185.5,-19.5 185.5,-0.5 130.5,-0.5"/>
<text text-anchor="middle" x="158" y="-7.5" font-family="Helvetica,sans-Serif" font-size="10.00">fstream</text>
</a>
</g>
</g>
<!-- Node12&#45;&gt;Node13 -->
<g id="edge13" class="edge">
<title>Node12&#45;&gt;Node13</title>
<path fill="none" stroke="midnightblue" d="M127.11,-56.08C132.28,-48.53 139.85,-37.49 146.19,-28.23"/>
<polygon fill="midnightblue" stroke="midnightblue" points="149.24,-29.98 152,-19.75 143.46,-26.02 149.24,-29.98"/>
</g>
<!-- Node14 -->
<g id="node14" class="node">
<title>Node14</title>
<g id="a_node14"><a xlink:title=" ">
<polygon fill="white" stroke="#bfbfbf" points="0,-0.5 0,-19.5 38,-19.5 38,-0.5 0,-0.5"/>
<text text-anchor="middle" x="19" y="-7.5" font-family="Helvetica,sans-Serif" font-size="10.00">map</text>
</a>
</g>
</g>
<!-- Node12&#45;&gt;Node14 -->
<g id="edge14" class="edge">
<title>Node12&#45;&gt;Node14</title>
<path fill="none" stroke="midnightblue" d="M104.61,-56.32C88.33,-47.7 63.13,-34.36 44.28,-24.39"/>
<polygon fill="midnightblue" stroke="midnightblue" points="45.82,-21.24 35.35,-19.65 42.55,-27.43 45.82,-21.24"/>
</g>
<!-- Node15 -->
<g id="node15" class="node">
<title>Node15</title>
<g id="a_node15"><a xlink:title=" ">
<polygon fill="white" stroke="#bfbfbf" points="56,-0.5 56,-19.5 112,-19.5 112,-0.5 56,-0.5"/>
<text text-anchor="middle" x="84" y="-7.5" font-family="Helvetica,sans-Serif" font-size="10.00">sstream</text>
</a>
</g>
</g>
<!-- Node12&#45;&gt;Node15 -->
<g id="edge16" class="edge">
<title>Node12&#45;&gt;Node15</title>
<path fill="none" stroke="midnightblue" d="M114.89,-56.08C109.72,-48.53 102.15,-37.49 95.81,-28.23"/>
<polygon fill="midnightblue" stroke="midnightblue" points="98.54,-26.02 90,-19.75 92.76,-29.98 98.54,-26.02"/>
</g>
<!-- Node12&#45;&gt;Node16 -->
<g id="edge17" class="edge">
<title>Node12&#45;&gt;Node16</title>
<path fill="none" stroke="midnightblue" d="M138.91,-56.44C157.25,-47.68 186.01,-33.94 207.09,-23.86"/>
<polygon fill="midnightblue" stroke="midnightblue" points="208.67,-26.99 216.18,-19.52 205.65,-20.67 208.67,-26.99"/>
</g>
<!-- Node18&#45;&gt;Node3 -->
<g id="edge24" class="edge">
<title>Node18&#45;&gt;Node3</title>
<path fill="none" stroke="midnightblue" d="M595.49,-224.44C568.4,-215.36 525.41,-200.94 495.13,-190.78"/>
<polygon fill="midnightblue" stroke="midnightblue" points="495.99,-187.38 485.39,-187.52 493.76,-194.01 495.99,-187.38"/>
</g>
<!-- Node18&#45;&gt;Node4 -->
<g id="edge25" class="edge">
<title>Node18&#45;&gt;Node4</title>
<path fill="none" stroke="midnightblue" d="M653.74,-225.18C655.52,-224.78 657.28,-224.38 659,-224 736.97,-206.8 784.52,-249.86 835,-188 897.25,-111.73 728.84,-47.77 648.7,-22.54"/>
<polygon fill="midnightblue" stroke="midnightblue" points="649.51,-19.13 638.92,-19.52 647.44,-25.81 649.51,-19.13"/>
</g>
<!-- Node18&#45;&gt;Node5 -->
<g id="edge31" class="edge">
<title>Node18&#45;&gt;Node5</title>
<path fill="none" stroke="midnightblue" d="M588.17,-228.62C548.47,-222.62 480.13,-210 425,-188 391.65,-174.69 356.49,-152.22 335.15,-137.5"/>
<polygon fill="midnightblue" stroke="midnightblue" points="337.09,-134.59 326.89,-131.72 333.08,-140.32 337.09,-134.59"/>
</g>
<!-- Node18&#45;&gt;Node6 -->
<g id="edge26" class="edge">
<title>Node18&#45;&gt;Node6</title>
<path fill="none" stroke="midnightblue" d="M653.72,-225.11C655.5,-224.73 657.27,-224.35 659,-224 751.35,-205.13 797.05,-250.05 868,-188 897.88,-161.87 904.52,-112.55 905.84,-85.65"/>
<polygon fill="midnightblue" stroke="midnightblue" points="909.33,-85.72 906.12,-75.63 902.34,-85.52 909.33,-85.72"/>
</g>
<!-- Node18&#45;&gt;Node8 -->
<g id="edge28" class="edge">
<title>Node18&#45;&gt;Node8</title>
<path fill="none" stroke="midnightblue" d="M606.63,-224.33C595.12,-216.47 579.81,-203.72 573,-188 559.31,-156.41 607.28,-140.52 588,-112 571.81,-88.04 540.53,-76.84 515.14,-71.6"/>
<polygon fill="midnightblue" stroke="midnightblue" points="515.49,-68.11 505.03,-69.76 514.24,-74.99 515.49,-68.11"/>
</g>
<!-- Node18&#45;&gt;Node12 -->
<g id="edge36" class="edge">
<title>Node18&#45;&gt;Node12</title>
<path fill="none" stroke="midnightblue" d="M588.14,-229.48C541.31,-223.87 453.05,-211.12 381,-188 290.24,-158.88 189.81,-105.64 144.94,-80.64"/>
<polygon fill="midnightblue" stroke="midnightblue" points="146.42,-77.46 135.99,-75.62 143,-83.57 146.42,-77.46"/>
</g>
<!-- Node18&#45;&gt;Node17 -->
<g id="edge27" class="edge">
<title>Node18&#45;&gt;Node17</title>
<path fill="none" stroke="midnightblue" d="M589.19,-224.38C571.05,-217.66 549.84,-206.31 539,-188 529.95,-172.71 539.33,-153.44 548.88,-139.86"/>
<polygon fill="midnightblue" stroke="midnightblue" points="551.7,-141.93 554.99,-131.86 546.14,-137.68 551.7,-141.93"/>
</g>
<!-- Node18&#45;&gt;Node19 -->
<g id="edge29" class="edge">
<title>Node18&#45;&gt;Node19</title>
<path fill="none" stroke="midnightblue" d="M653.63,-228.67C706.73,-221.44 815.08,-205.92 906,-188 907.46,-187.71 908.94,-187.41 910.44,-187.09"/>
<polygon fill="midnightblue" stroke="midnightblue" points="911.34,-190.48 920.34,-184.9 909.82,-183.65 911.34,-190.48"/>
</g>
<!-- Node20 -->
<g id="node20" class="node">
<title>Node20</title>
<g id="a_node20"><a xlink:title=" ">
<polygon fill="white" stroke="#bfbfbf" points="678.5,-168.5 678.5,-187.5 725.5,-187.5 725.5,-168.5 678.5,-168.5"/>
<text text-anchor="middle" x="702" y="-175.5" font-family="Helvetica,sans-Serif" font-size="10.00">deque</text>
</a>
</g>
</g>
<!-- Node18&#45;&gt;Node20 -->
<g id="edge30" class="edge">
<title>Node18&#45;&gt;Node20</title>
<path fill="none" stroke="midnightblue" d="M634.01,-224.32C646.53,-215.98 665.68,-203.21 680.47,-193.35"/>
<polygon fill="midnightblue" stroke="midnightblue" points="682.64,-196.11 689.02,-187.65 678.76,-190.29 682.64,-196.11"/>
</g>
<!-- Node21 -->
<g id="node21" class="node">
<title>Node21</title>
<g id="a_node21"><a xlink:href="exceptions_8h.html" target="_top" xlink:title=" ">
<polygon fill="white" stroke="black" points="581.5,-168.5 581.5,-187.5 660.5,-187.5 660.5,-168.5 581.5,-168.5"/>
<text text-anchor="middle" x="621" y="-175.5" font-family="Helvetica,sans-Serif" font-size="10.00">exceptions.h</text>
</a>
</g>
</g>
<!-- Node18&#45;&gt;Node21 -->
<g id="edge32" class="edge">
<title>Node18&#45;&gt;Node21</title>
<path fill="none" stroke="midnightblue" d="M621,-224.08C621,-217.01 621,-206.86 621,-197.99"/>
<polygon fill="midnightblue" stroke="midnightblue" points="624.5,-197.75 621,-187.75 617.5,-197.75 624.5,-197.75"/>
</g>
<!-- Node23 -->
<g id="node23" class="node">
<title>Node23</title>
<g id="a_node23"><a xlink:href="HelpStructs_8h.html" target="_top" xlink:title=" ">
<polygon fill="white" stroke="black" points="744,-168.5 744,-187.5 826,-187.5 826,-168.5 744,-168.5"/>
<text text-anchor="middle" x="785" y="-175.5" font-family="Helvetica,sans-Serif" font-size="10.00">HelpStructs.h</text>
</a>
</g>
</g>
<!-- Node18&#45;&gt;Node23 -->
<g id="edge35" class="edge">
<title>Node18&#45;&gt;Node23</title>
<path fill="none" stroke="midnightblue" d="M646.99,-224.44C674.7,-215.32 718.75,-200.81 749.62,-190.65"/>
<polygon fill="midnightblue" stroke="midnightblue" points="750.73,-193.97 759.14,-187.52 748.54,-187.32 750.73,-193.97"/>
</g>
<!-- Node18&#45;&gt;Node24 -->
<g id="edge37" class="edge">
<title>Node18&#45;&gt;Node24</title>
<path fill="none" stroke="midnightblue" d="M653.68,-230.59C715.05,-225.71 851.8,-213.07 975.4,-188.06"/>
<polygon fill="midnightblue" stroke="midnightblue" points="976.33,-191.44 985.42,-186 974.92,-184.59 976.33,-191.44"/>
</g>
<!-- Node21&#45;&gt;Node7 -->
<g id="edge33" class="edge">
<title>Node21&#45;&gt;Node7</title>
<path fill="none" stroke="midnightblue" d="M620.53,-168.26C619.45,-155.03 615.86,-129.61 604,-112 580.76,-77.49 567,-72.94 529,-56 464.33,-27.17 380.99,-16.68 336.09,-12.96"/>
<polygon fill="midnightblue" stroke="midnightblue" points="336.3,-9.47 326.06,-12.19 335.76,-16.45 336.3,-9.47"/>
</g>
<!-- Node22 -->
<g id="node22" class="node">
<title>Node22</title>
<g id="a_node22"><a xlink:title=" ">
<polygon fill="white" stroke="#bfbfbf" points="673.5,-112.5 673.5,-131.5 738.5,-131.5 738.5,-112.5 673.5,-112.5"/>
<text text-anchor="middle" x="706" y="-119.5" font-family="Helvetica,sans-Serif" font-size="10.00">exception</text>
</a>
</g>
</g>
<!-- Node21&#45;&gt;Node22 -->
<g id="edge34" class="edge">
<title>Node21&#45;&gt;Node22</title>
<path fill="none" stroke="midnightblue" d="M634.66,-168.32C647.92,-159.9 668.27,-146.97 683.85,-137.07"/>
<polygon fill="midnightblue" stroke="midnightblue" points="685.81,-139.97 692.38,-131.65 682.06,-134.06 685.81,-139.97"/>
</g>
</g>
</svg>
