<?xml version="1.0" encoding="UTF-8" standalone="no"?>
<!DOCTYPE svg PUBLIC "-//W3C//DTD SVG 1.1//EN"
 "http://www.w3.org/Graphics/SVG/1.1/DTD/svg11.dtd">
<!-- Generated by graphviz version 2.43.0 (0)
 -->
<!-- Title: src/Player.cpp Pages: 1 -->
<svg width="380pt" height="308pt"
 viewBox="0.00 0.00 379.50 308.00" xmlns="http://www.w3.org/2000/svg" xmlns:xlink="http://www.w3.org/1999/xlink">
<g id="graph0" class="graph" transform="scale(1 1) rotate(0) translate(4 304)">
<title>src/Player.cpp</title>
<polygon fill="white" stroke="transparent" points="-4,4 -4,-304 375.5,-304 375.5,4 -4,4"/>
<!-- Node1 -->
<g id="node1" class="node">
<title>Node1</title>
<g id="a_node1"><a xlink:title=" ">
<polygon fill="#bfbfbf" stroke="black" points="94.5,-280.5 94.5,-299.5 178.5,-299.5 178.5,-280.5 94.5,-280.5"/>
<text text-anchor="middle" x="136.5" y="-287.5" font-family="Helvetica,sans-Serif" font-size="10.00">src/Player.cpp</text>
</a>
</g>
</g>
<!-- Node2 -->
<g id="node2" class="node">
<title>Node2</title>
<g id="a_node2"><a xlink:href="Player_8h.html" target="_top" xlink:title=" ">
<polygon fill="white" stroke="black" points="108.5,-224.5 108.5,-243.5 164.5,-243.5 164.5,-224.5 108.5,-224.5"/>
<text text-anchor="middle" x="136.5" y="-231.5" font-family="Helvetica,sans-Serif" font-size="10.00">Player.h</text>
</a>
</g>
</g>
<!-- Node1&#45;&gt;Node2 -->
<g id="edge1" class="edge">
<title>Node1&#45;&gt;Node2</title>
<path fill="none" stroke="midnightblue" d="M136.5,-280.08C136.5,-273.01 136.5,-262.86 136.5,-253.99"/>
<polygon fill="midnightblue" stroke="midnightblue" points="140,-253.75 136.5,-243.75 133,-253.75 140,-253.75"/>
</g>
<!-- Node3 -->
<g id="node3" class="node">
<title>Node3</title>
<g id="a_node3"><a xlink:href="Entity_8h.html" target="_top" xlink:title=" ">
<polygon fill="white" stroke="black" points="165,-112.5 165,-131.5 218,-131.5 218,-112.5 165,-112.5"/>
<text text-anchor="middle" x="191.5" y="-119.5" font-family="Helvetica,sans-Serif" font-size="10.00">Entity.h</text>
</a>
</g>
</g>
<!-- Node2&#45;&gt;Node3 -->
<g id="edge2" class="edge">
<title>Node2&#45;&gt;Node3</title>
<path fill="none" stroke="midnightblue" d="M138.15,-224.2C140.79,-211.33 146.69,-186.85 156.5,-168 161.86,-157.7 169.65,-147.4 176.52,-139.25"/>
<polygon fill="midnightblue" stroke="midnightblue" points="179.24,-141.46 183.21,-131.64 173.98,-136.84 179.24,-141.46"/>
</g>
<!-- Node5 -->
<g id="node5" class="node">
<title>Node5</title>
<g id="a_node5"><a xlink:href="Map_8h.html" target="_top" xlink:title=" ">
<polygon fill="white" stroke="black" points="82,-56.5 82,-75.5 129,-75.5 129,-56.5 82,-56.5"/>
<text text-anchor="middle" x="105.5" y="-63.5" font-family="Helvetica,sans-Serif" font-size="10.00">Map.h</text>
</a>
</g>
</g>
<!-- Node2&#45;&gt;Node5 -->
<g id="edge21" class="edge">
<title>Node2&#45;&gt;Node5</title>
<path fill="none" stroke="midnightblue" d="M134.83,-224.08C129.95,-197.95 115.62,-121.21 108.97,-85.58"/>
<polygon fill="midnightblue" stroke="midnightblue" points="112.38,-84.76 107.1,-75.57 105.5,-86.04 112.38,-84.76"/>
</g>
<!-- Node6 -->
<g id="node6" class="node">
<title>Node6</title>
<g id="a_node6"><a xlink:title=" ">
<polygon fill="white" stroke="#bfbfbf" points="0,-0.5 0,-19.5 47,-19.5 47,-0.5 0,-0.5"/>
<text text-anchor="middle" x="23.5" y="-7.5" font-family="Helvetica,sans-Serif" font-size="10.00">vector</text>
</a>
</g>
</g>
<!-- Node2&#45;&gt;Node6 -->
<g id="edge20" class="edge">
<title>Node2&#45;&gt;Node6</title>
<path fill="none" stroke="midnightblue" d="M131.54,-224.26C118.2,-200.65 80.65,-133.47 52.5,-76 44.78,-60.24 36.7,-41.96 31.04,-28.81"/>
<polygon fill="midnightblue" stroke="midnightblue" points="34.21,-27.33 27.06,-19.5 27.77,-30.07 34.21,-27.33"/>
</g>
<!-- Node8 -->
<g id="node8" class="node">
<title>Node8</title>
<g id="a_node8"><a xlink:title=" ">
<polygon fill="white" stroke="#bfbfbf" points="313.5,-0.5 313.5,-19.5 371.5,-19.5 371.5,-0.5 313.5,-0.5"/>
<text text-anchor="middle" x="342.5" y="-7.5" font-family="Helvetica,sans-Serif" font-size="10.00">memory</text>
</a>
</g>
</g>
<!-- Node2&#45;&gt;Node8 -->
<g id="edge19" class="edge">
<title>Node2&#45;&gt;Node8</title>
<path fill="none" stroke="midnightblue" d="M160.34,-224.48C197.82,-210.14 271.26,-178.16 319.5,-132 342.17,-110.31 352.41,-105.71 362.5,-76 367.89,-60.14 361.16,-41.9 354.1,-28.79"/>
<polygon fill="midnightblue" stroke="midnightblue" points="356.93,-26.7 348.82,-19.88 350.91,-30.27 356.93,-26.7"/>
</g>
<!-- Node12 -->
<g id="node12" class="node">
<title>Node12</title>
<g id="a_node12"><a xlink:href="Attacker_8h.html" target="_top" xlink:title=" ">
<polygon fill="white" stroke="black" points="165,-168.5 165,-187.5 230,-187.5 230,-168.5 165,-168.5"/>
<text text-anchor="middle" x="197.5" y="-175.5" font-family="Helvetica,sans-Serif" font-size="10.00">Attacker.h</text>
</a>
</g>
</g>
<!-- Node2&#45;&gt;Node12 -->
<g id="edge13" class="edge">
<title>Node2&#45;&gt;Node12</title>
<path fill="none" stroke="midnightblue" d="M146.3,-224.32C155.32,-216.34 168.91,-204.31 179.82,-194.65"/>
<polygon fill="midnightblue" stroke="midnightblue" points="182.35,-197.08 187.52,-187.83 177.71,-191.84 182.35,-197.08"/>
</g>
<!-- Node4 -->
<g id="node4" class="node">
<title>Node4</title>
<g id="a_node4"><a xlink:href="constants_8h.html" target="_top" xlink:title=" ">
<polygon fill="white" stroke="black" points="264,-56.5 264,-75.5 337,-75.5 337,-56.5 264,-56.5"/>
<text text-anchor="middle" x="300.5" y="-63.5" font-family="Helvetica,sans-Serif" font-size="10.00">constants.h</text>
</a>
</g>
</g>
<!-- Node3&#45;&gt;Node4 -->
<g id="edge3" class="edge">
<title>Node3&#45;&gt;Node4</title>
<path fill="none" stroke="midnightblue" d="M209.01,-112.32C226.57,-103.62 253.83,-90.12 274.03,-80.11"/>
<polygon fill="midnightblue" stroke="midnightblue" points="275.62,-83.23 283.03,-75.65 272.52,-76.96 275.62,-83.23"/>
</g>
<!-- Node3&#45;&gt;Node5 -->
<g id="edge4" class="edge">
<title>Node3&#45;&gt;Node5</title>
<path fill="none" stroke="midnightblue" d="M172.57,-112.32C157.7,-104.11 137.46,-91.6 122.98,-81.81"/>
<polygon fill="midnightblue" stroke="midnightblue" points="124.62,-78.68 114.42,-75.83 120.62,-84.43 124.62,-78.68"/>
</g>
<!-- Node3&#45;&gt;Node8 -->
<g id="edge12" class="edge">
<title>Node3&#45;&gt;Node8</title>
<path fill="none" stroke="midnightblue" d="M198.64,-112.13C209.74,-98.74 232.3,-73.1 255.5,-56 273.05,-43.06 294.86,-31.79 312.24,-23.77"/>
<polygon fill="midnightblue" stroke="midnightblue" points="313.71,-26.95 321.39,-19.65 310.84,-20.56 313.71,-26.95"/>
</g>
<!-- Node11 -->
<g id="node11" class="node">
<title>Node11</title>
<g id="a_node11"><a xlink:title=" ">
<polygon fill="white" stroke="#bfbfbf" points="147.5,-56.5 147.5,-75.5 207.5,-75.5 207.5,-56.5 147.5,-56.5"/>
<text text-anchor="middle" x="177.5" y="-63.5" font-family="Helvetica,sans-Serif" font-size="10.00">iostream</text>
</a>
</g>
</g>
<!-- Node3&#45;&gt;Node11 -->
<g id="edge11" class="edge">
<title>Node3&#45;&gt;Node11</title>
<path fill="none" stroke="midnightblue" d="M189.19,-112.08C187.33,-104.93 184.66,-94.64 182.35,-85.69"/>
<polygon fill="midnightblue" stroke="midnightblue" points="185.67,-84.55 179.77,-75.75 178.89,-86.31 185.67,-84.55"/>
</g>
<!-- Node5&#45;&gt;Node3 -->
<g id="edge10" class="edge">
<title>Node5&#45;&gt;Node3</title>
<path fill="none" stroke="midnightblue" d="M124.39,-75.65C139.34,-83.91 159.73,-96.52 174.24,-106.34"/>
<polygon fill="midnightblue" stroke="midnightblue" points="172.6,-109.47 182.8,-112.32 176.6,-103.73 172.6,-109.47"/>
</g>
<!-- Node5&#45;&gt;Node6 -->
<g id="edge5" class="edge">
<title>Node5&#45;&gt;Node6</title>
<path fill="none" stroke="midnightblue" d="M92.33,-56.32C79.65,-47.98 60.27,-35.21 45.29,-25.35"/>
<polygon fill="midnightblue" stroke="midnightblue" points="46.92,-22.23 36.64,-19.65 43.07,-28.08 46.92,-22.23"/>
</g>
<!-- Node7 -->
<g id="node7" class="node">
<title>Node7</title>
<g id="a_node7"><a xlink:title=" ">
<polygon fill="white" stroke="#bfbfbf" points="229.5,-0.5 229.5,-19.5 273.5,-19.5 273.5,-0.5 229.5,-0.5"/>
<text text-anchor="middle" x="251.5" y="-7.5" font-family="Helvetica,sans-Serif" font-size="10.00">string</text>
</a>
</g>
</g>
<!-- Node5&#45;&gt;Node7 -->
<g id="edge6" class="edge">
<title>Node5&#45;&gt;Node7</title>
<path fill="none" stroke="midnightblue" d="M128.63,-56.44C153.27,-47.33 192.42,-32.85 219.89,-22.69"/>
<polygon fill="midnightblue" stroke="midnightblue" points="221.26,-25.91 229.43,-19.16 218.84,-19.35 221.26,-25.91"/>
</g>
<!-- Node5&#45;&gt;Node8 -->
<g id="edge7" class="edge">
<title>Node5&#45;&gt;Node8</title>
<path fill="none" stroke="midnightblue" d="M129.26,-58.37C132.36,-57.55 135.5,-56.74 138.5,-56 195.63,-41.92 262.29,-27.61 303.45,-19.02"/>
<polygon fill="midnightblue" stroke="midnightblue" points="304.26,-22.42 313.34,-16.96 302.84,-15.57 304.26,-22.42"/>
</g>
<!-- Node9 -->
<g id="node9" class="node">
<title>Node9</title>
<g id="a_node9"><a xlink:title=" ">
<polygon fill="white" stroke="#bfbfbf" points="65,-0.5 65,-19.5 128,-19.5 128,-0.5 65,-0.5"/>
<text text-anchor="middle" x="96.5" y="-7.5" font-family="Helvetica,sans-Serif" font-size="10.00">ncurses.h</text>
</a>
</g>
</g>
<!-- Node5&#45;&gt;Node9 -->
<g id="edge8" class="edge">
<title>Node5&#45;&gt;Node9</title>
<path fill="none" stroke="midnightblue" d="M104.01,-56.08C102.82,-48.93 101.11,-38.64 99.62,-29.69"/>
<polygon fill="midnightblue" stroke="midnightblue" points="103.05,-29.04 97.96,-19.75 96.15,-30.19 103.05,-29.04"/>
</g>
<!-- Node10 -->
<g id="node10" class="node">
<title>Node10</title>
<g id="a_node10"><a xlink:title=" ">
<polygon fill="white" stroke="#bfbfbf" points="146,-0.5 146,-19.5 211,-19.5 211,-0.5 146,-0.5"/>
<text text-anchor="middle" x="178.5" y="-7.5" font-family="Helvetica,sans-Serif" font-size="10.00">functional</text>
</a>
</g>
</g>
<!-- Node5&#45;&gt;Node10 -->
<g id="edge9" class="edge">
<title>Node5&#45;&gt;Node10</title>
<path fill="none" stroke="midnightblue" d="M117.23,-56.32C128.34,-48.11 145.24,-35.6 158.48,-25.81"/>
<polygon fill="midnightblue" stroke="midnightblue" points="160.6,-28.59 166.56,-19.83 156.44,-22.97 160.6,-28.59"/>
</g>
<!-- Node12&#45;&gt;Node3 -->
<g id="edge14" class="edge">
<title>Node12&#45;&gt;Node3</title>
<path fill="none" stroke="midnightblue" d="M196.51,-168.08C195.71,-160.93 194.57,-150.64 193.58,-141.69"/>
<polygon fill="midnightblue" stroke="midnightblue" points="197.06,-141.3 192.47,-131.75 190.1,-142.08 197.06,-141.3"/>
</g>
<!-- Node12&#45;&gt;Node4 -->
<g id="edge15" class="edge">
<title>Node12&#45;&gt;Node4</title>
<path fill="none" stroke="midnightblue" d="M205.58,-168.37C222.81,-149.97 263.35,-106.67 285.47,-83.05"/>
<polygon fill="midnightblue" stroke="midnightblue" points="288.18,-85.28 292.46,-75.59 283.07,-80.5 288.18,-85.28"/>
</g>
<!-- Node12&#45;&gt;Node5 -->
<g id="edge18" class="edge">
<title>Node12&#45;&gt;Node5</title>
<path fill="none" stroke="midnightblue" d="M189.13,-168.21C180.71,-159.26 167.42,-144.91 156.5,-132 142.95,-115.98 128.24,-97.05 118.11,-83.77"/>
<polygon fill="midnightblue" stroke="midnightblue" points="120.74,-81.43 111.91,-75.57 115.16,-85.66 120.74,-81.43"/>
</g>
<!-- Node12&#45;&gt;Node6 -->
<g id="edge16" class="edge">
<title>Node12&#45;&gt;Node6</title>
<path fill="none" stroke="midnightblue" d="M184.43,-168.32C160.51,-152.04 108.78,-115.03 72.5,-76 58.43,-60.86 44.44,-41.81 35.04,-28.25"/>
<polygon fill="midnightblue" stroke="midnightblue" points="37.84,-26.15 29.31,-19.86 32.06,-30.09 37.84,-26.15"/>
</g>
<!-- Node12&#45;&gt;Node8 -->
<g id="edge17" class="edge">
<title>Node12&#45;&gt;Node8</title>
<path fill="none" stroke="midnightblue" d="M222.72,-168.5C257.89,-155.11 320.29,-125.42 346.5,-76 354.11,-61.66 351.92,-42.95 348.53,-29.29"/>
<polygon fill="midnightblue" stroke="midnightblue" points="351.87,-28.23 345.73,-19.6 345.15,-30.18 351.87,-28.23"/>
</g>
</g>
</svg>
