<?xml version="1.0" encoding="UTF-8" standalone="no"?>
<!DOCTYPE svg PUBLIC "-//W3C//DTD SVG 1.1//EN"
 "http://www.w3.org/Graphics/SVG/1.1/DTD/svg11.dtd">
<!-- Generated by graphviz version 2.43.0 (0)
 -->
<!-- Title: src/Player.h Pages: 1 -->
<svg width="353pt" height="252pt"
 viewBox="0.00 0.00 353.00 252.00" xmlns="http://www.w3.org/2000/svg" xmlns:xlink="http://www.w3.org/1999/xlink">
<g id="graph0" class="graph" transform="scale(1 1) rotate(0) translate(4 248)">
<title>src/Player.h</title>
<polygon fill="white" stroke="transparent" points="-4,4 -4,-248 349,-248 349,4 -4,4"/>
<!-- Node1 -->
<g id="node1" class="node">
<title>Node1</title>
<g id="a_node1"><a xlink:title=" ">
<polygon fill="#bfbfbf" stroke="black" points="118,-224.5 118,-243.5 191,-243.5 191,-224.5 118,-224.5"/>
<text text-anchor="middle" x="154.5" y="-231.5" font-family="Helvetica,sans-Serif" font-size="10.00">src/Player.h</text>
</a>
</g>
</g>
<!-- Node2 -->
<g id="node2" class="node">
<title>Node2</title>
<g id="a_node2"><a xlink:href="Entity_8h.html" target="_top" xlink:title=" ">
<polygon fill="white" stroke="black" points="189,-112.5 189,-131.5 242,-131.5 242,-112.5 189,-112.5"/>
<text text-anchor="middle" x="215.5" y="-119.5" font-family="Helvetica,sans-Serif" font-size="10.00">Entity.h</text>
</a>
</g>
</g>
<!-- Node1&#45;&gt;Node2 -->
<g id="edge1" class="edge">
<title>Node1&#45;&gt;Node2</title>
<path fill="none" stroke="midnightblue" d="M164.94,-224.4C174.46,-216.03 188.25,-202.49 196.5,-188 204.68,-173.63 209.61,-155.44 212.39,-141.95"/>
<polygon fill="midnightblue" stroke="midnightblue" points="215.86,-142.39 214.24,-131.92 208.98,-141.12 215.86,-142.39"/>
</g>
<!-- Node4 -->
<g id="node4" class="node">
<title>Node4</title>
<g id="a_node4"><a xlink:href="Map_8h.html" target="_top" xlink:title=" ">
<polygon fill="white" stroke="black" points="298,-56.5 298,-75.5 345,-75.5 345,-56.5 298,-56.5"/>
<text text-anchor="middle" x="321.5" y="-63.5" font-family="Helvetica,sans-Serif" font-size="10.00">Map.h</text>
</a>
</g>
</g>
<!-- Node1&#45;&gt;Node4 -->
<g id="edge17" class="edge">
<title>Node1&#45;&gt;Node4</title>
<path fill="none" stroke="midnightblue" d="M167.53,-224.45C191.37,-208.38 242.72,-171.69 277.5,-132 290.51,-117.16 302.88,-98.3 311.18,-84.73"/>
<polygon fill="midnightblue" stroke="midnightblue" points="314.32,-86.29 316.44,-75.91 308.31,-82.7 314.32,-86.29"/>
</g>
<!-- Node5 -->
<g id="node5" class="node">
<title>Node5</title>
<g id="a_node5"><a xlink:title=" ">
<polygon fill="white" stroke="#bfbfbf" points="0,-0.5 0,-19.5 47,-19.5 47,-0.5 0,-0.5"/>
<text text-anchor="middle" x="23.5" y="-7.5" font-family="Helvetica,sans-Serif" font-size="10.00">vector</text>
</a>
</g>
</g>
<!-- Node1&#45;&gt;Node5 -->
<g id="edge16" class="edge">
<title>Node1&#45;&gt;Node5</title>
<path fill="none" stroke="midnightblue" d="M141.72,-224.36C129.89,-215.96 112.26,-202.41 99.5,-188 60.42,-143.89 47.09,-131.93 28.5,-76 23.53,-61.05 22.49,-43.13 22.57,-29.9"/>
<polygon fill="midnightblue" stroke="midnightblue" points="26.07,-29.77 22.86,-19.67 19.08,-29.57 26.07,-29.77"/>
</g>
<!-- Node8 -->
<g id="node8" class="node">
<title>Node8</title>
<g id="a_node8"><a xlink:title=" ">
<polygon fill="white" stroke="#bfbfbf" points="51.5,-56.5 51.5,-75.5 109.5,-75.5 109.5,-56.5 51.5,-56.5"/>
<text text-anchor="middle" x="80.5" y="-63.5" font-family="Helvetica,sans-Serif" font-size="10.00">memory</text>
</a>
</g>
</g>
<!-- Node1&#45;&gt;Node8 -->
<g id="edge15" class="edge">
<title>Node1&#45;&gt;Node8</title>
<path fill="none" stroke="midnightblue" d="M144.25,-224.38C134.93,-216 121.44,-202.45 113.5,-188 95.21,-154.72 86.53,-110.64 82.85,-85.91"/>
<polygon fill="midnightblue" stroke="midnightblue" points="86.28,-85.17 81.46,-75.74 79.34,-86.12 86.28,-85.17"/>
</g>
<!-- Node9 -->
<g id="node9" class="node">
<title>Node9</title>
<g id="a_node9"><a xlink:href="Attacker_8h.html" target="_top" xlink:title=" ">
<polygon fill="white" stroke="black" points="122,-168.5 122,-187.5 187,-187.5 187,-168.5 122,-168.5"/>
<text text-anchor="middle" x="154.5" y="-175.5" font-family="Helvetica,sans-Serif" font-size="10.00">Attacker.h</text>
</a>
</g>
</g>
<!-- Node1&#45;&gt;Node9 -->
<g id="edge9" class="edge">
<title>Node1&#45;&gt;Node9</title>
<path fill="none" stroke="midnightblue" d="M154.5,-224.08C154.5,-217.01 154.5,-206.86 154.5,-197.99"/>
<polygon fill="midnightblue" stroke="midnightblue" points="158,-197.75 154.5,-187.75 151,-197.75 158,-197.75"/>
</g>
<!-- Node3 -->
<g id="node3" class="node">
<title>Node3</title>
<g id="a_node3"><a xlink:href="constants_8h.html" target="_top" xlink:title=" ">
<polygon fill="white" stroke="black" points="128,-56.5 128,-75.5 201,-75.5 201,-56.5 128,-56.5"/>
<text text-anchor="middle" x="164.5" y="-63.5" font-family="Helvetica,sans-Serif" font-size="10.00">constants.h</text>
</a>
</g>
</g>
<!-- Node2&#45;&gt;Node3 -->
<g id="edge2" class="edge">
<title>Node2&#45;&gt;Node3</title>
<path fill="none" stroke="midnightblue" d="M207.08,-112.08C199.65,-104.22 188.65,-92.57 179.69,-83.08"/>
<polygon fill="midnightblue" stroke="midnightblue" points="182.18,-80.62 172.76,-75.75 177.09,-85.42 182.18,-80.62"/>
</g>
<!-- Node2&#45;&gt;Node4 -->
<g id="edge3" class="edge">
<title>Node2&#45;&gt;Node4</title>
<path fill="none" stroke="midnightblue" d="M227.42,-112.32C242.68,-103.59 269.1,-90 290.16,-79.98"/>
<polygon fill="midnightblue" stroke="midnightblue" points="291.83,-83.06 299.4,-75.65 288.86,-76.72 291.83,-83.06"/>
</g>
<!-- Node7 -->
<g id="node7" class="node">
<title>Node7</title>
<g id="a_node7"><a xlink:title=" ">
<polygon fill="white" stroke="#bfbfbf" points="219.5,-56.5 219.5,-75.5 279.5,-75.5 279.5,-56.5 219.5,-56.5"/>
<text text-anchor="middle" x="249.5" y="-63.5" font-family="Helvetica,sans-Serif" font-size="10.00">iostream</text>
</a>
</g>
</g>
<!-- Node2&#45;&gt;Node7 -->
<g id="edge7" class="edge">
<title>Node2&#45;&gt;Node7</title>
<path fill="none" stroke="midnightblue" d="M221.11,-112.08C225.87,-104.53 232.82,-93.49 238.65,-84.23"/>
<polygon fill="midnightblue" stroke="midnightblue" points="241.62,-86.08 243.99,-75.75 235.7,-82.35 241.62,-86.08"/>
</g>
<!-- Node2&#45;&gt;Node8 -->
<g id="edge8" class="edge">
<title>Node2&#45;&gt;Node8</title>
<path fill="none" stroke="midnightblue" d="M194.11,-112.44C171.79,-103.52 136.6,-89.44 111.29,-79.32"/>
<polygon fill="midnightblue" stroke="midnightblue" points="112.38,-75.98 101.79,-75.52 109.78,-82.48 112.38,-75.98"/>
</g>
<!-- Node4&#45;&gt;Node2 -->
<g id="edge6" class="edge">
<title>Node4&#45;&gt;Node2</title>
<path fill="none" stroke="midnightblue" d="M309.86,-75.52C294.61,-84.27 267.9,-98.01 246.69,-108.1"/>
<polygon fill="midnightblue" stroke="midnightblue" points="244.96,-105.04 237.38,-112.44 247.93,-111.38 244.96,-105.04"/>
</g>
<!-- Node4&#45;&gt;Node5 -->
<g id="edge4" class="edge">
<title>Node4&#45;&gt;Node5</title>
<path fill="none" stroke="midnightblue" d="M297.78,-58.23C294.67,-57.43 291.52,-56.67 288.5,-56 205.97,-37.78 107.57,-22.82 57.07,-15.62"/>
<polygon fill="midnightblue" stroke="midnightblue" points="57.44,-12.14 47.05,-14.21 56.46,-19.07 57.44,-12.14"/>
</g>
<!-- Node6 -->
<g id="node6" class="node">
<title>Node6</title>
<g id="a_node6"><a xlink:title=" ">
<polygon fill="white" stroke="#bfbfbf" points="299.5,-0.5 299.5,-19.5 343.5,-19.5 343.5,-0.5 299.5,-0.5"/>
<text text-anchor="middle" x="321.5" y="-7.5" font-family="Helvetica,sans-Serif" font-size="10.00">string</text>
</a>
</g>
</g>
<!-- Node4&#45;&gt;Node6 -->
<g id="edge5" class="edge">
<title>Node4&#45;&gt;Node6</title>
<path fill="none" stroke="midnightblue" d="M321.5,-56.08C321.5,-49.01 321.5,-38.86 321.5,-29.99"/>
<polygon fill="midnightblue" stroke="midnightblue" points="325,-29.75 321.5,-19.75 318,-29.75 325,-29.75"/>
</g>
<!-- Node9&#45;&gt;Node2 -->
<g id="edge10" class="edge">
<title>Node9&#45;&gt;Node2</title>
<path fill="none" stroke="midnightblue" d="M164.3,-168.32C173.32,-160.34 186.91,-148.31 197.82,-138.65"/>
<polygon fill="midnightblue" stroke="midnightblue" points="200.35,-141.08 205.52,-131.83 195.71,-135.84 200.35,-141.08"/>
</g>
<!-- Node9&#45;&gt;Node3 -->
<g id="edge11" class="edge">
<title>Node9&#45;&gt;Node3</title>
<path fill="none" stroke="midnightblue" d="M155.28,-168.37C156.9,-150.62 160.62,-109.67 162.81,-85.6"/>
<polygon fill="midnightblue" stroke="midnightblue" points="166.3,-85.87 163.72,-75.59 159.33,-85.23 166.3,-85.87"/>
</g>
<!-- Node9&#45;&gt;Node4 -->
<g id="edge14" class="edge">
<title>Node9&#45;&gt;Node4</title>
<path fill="none" stroke="midnightblue" d="M178.32,-168.39C198.66,-160.48 228.23,-147.63 251.5,-132 272.45,-117.93 293.22,-97.63 306.63,-83.47"/>
<polygon fill="midnightblue" stroke="midnightblue" points="309.38,-85.65 313.62,-75.94 304.25,-80.89 309.38,-85.65"/>
</g>
<!-- Node9&#45;&gt;Node5 -->
<g id="edge12" class="edge">
<title>Node9&#45;&gt;Node5</title>
<path fill="none" stroke="midnightblue" d="M140.91,-168.48C117.32,-152.99 68.82,-117.91 42.5,-76 33.61,-61.84 28.73,-43.36 26.16,-29.72"/>
<polygon fill="midnightblue" stroke="midnightblue" points="29.57,-28.91 24.49,-19.61 22.66,-30.05 29.57,-28.91"/>
</g>
<!-- Node9&#45;&gt;Node8 -->
<g id="edge13" class="edge">
<title>Node9&#45;&gt;Node8</title>
<path fill="none" stroke="midnightblue" d="M148.69,-168.37C136.48,-150.22 107.95,-107.8 91.93,-83.99"/>
<polygon fill="midnightblue" stroke="midnightblue" points="94.77,-81.94 86.28,-75.59 88.96,-85.84 94.77,-81.94"/>
</g>
</g>
</svg>
