<?xml version="1.0" encoding="UTF-8" standalone="no"?>
<!DOCTYPE svg PUBLIC "-//W3C//DTD SVG 1.1//EN"
 "http://www.w3.org/Graphics/SVG/1.1/DTD/svg11.dtd">
<!-- Generated by graphviz version 2.43.0 (0)
 -->
<!-- Title: src/Player.h Pages: 1 -->
<svg width="260pt" height="196pt"
 viewBox="0.00 0.00 260.00 196.00" xmlns="http://www.w3.org/2000/svg" xmlns:xlink="http://www.w3.org/1999/xlink">
<g id="graph0" class="graph" transform="scale(1 1) rotate(0) translate(4 192)">
<title>src/Player.h</title>
<polygon fill="white" stroke="transparent" points="-4,4 -4,-192 256,-192 256,4 -4,4"/>
<!-- Node1 -->
<g id="node1" class="node">
<title>Node1</title>
<g id="a_node1"><a xlink:title=" ">
<polygon fill="#bfbfbf" stroke="black" points="103.5,-168.5 103.5,-187.5 176.5,-187.5 176.5,-168.5 103.5,-168.5"/>
<text text-anchor="middle" x="140" y="-175.5" font-family="Helvetica,sans-Serif" font-size="10.00">src/Player.h</text>
</a>
</g>
</g>
<!-- Node2 -->
<g id="node2" class="node">
<title>Node2</title>
<g id="a_node2"><a xlink:href="Enemy_8h.html" target="_top" xlink:title=" ">
<polygon fill="white" stroke="black" points="36.5,-112.5 36.5,-131.5 111.5,-131.5 111.5,-112.5 36.5,-112.5"/>
<text text-anchor="middle" x="74" y="-119.5" font-family="Helvetica,sans-Serif" font-size="10.00">src/Enemy.h</text>
</a>
</g>
</g>
<!-- Node1&#45;&gt;Node2 -->
<g id="edge1" class="edge">
<title>Node1&#45;&gt;Node2</title>
<path fill="none" stroke="midnightblue" d="M121.45,-161.82C109.62,-152.15 94.71,-139.95 84.8,-131.83"/>
<polygon fill="midnightblue" stroke="midnightblue" points="119.44,-164.7 129.4,-168.32 123.87,-159.28 119.44,-164.7"/>
</g>
<!-- Node4 -->
<g id="node4" class="node">
<title>Node4</title>
<g id="a_node4"><a xlink:href="Game_8h.html" target="_top" xlink:title=" ">
<polygon fill="white" stroke="black" points="104,-56.5 104,-75.5 176,-75.5 176,-56.5 104,-56.5"/>
<text text-anchor="middle" x="140" y="-63.5" font-family="Helvetica,sans-Serif" font-size="10.00">src/Game.h</text>
</a>
</g>
</g>
<!-- Node1&#45;&gt;Node4 -->
<g id="edge6" class="edge">
<title>Node1&#45;&gt;Node4</title>
<path fill="none" stroke="midnightblue" d="M140,-158.35C140,-134.25 140,-93.31 140,-75.59"/>
<polygon fill="midnightblue" stroke="midnightblue" points="136.5,-158.37 140,-168.37 143.5,-158.37 136.5,-158.37"/>
</g>
<!-- Node7 -->
<g id="node7" class="node">
<title>Node7</title>
<g id="a_node7"><a xlink:href="Player_8cpp.html" target="_top" xlink:title=" ">
<polygon fill="white" stroke="black" points="168,-112.5 168,-131.5 252,-131.5 252,-112.5 168,-112.5"/>
<text text-anchor="middle" x="210" y="-119.5" font-family="Helvetica,sans-Serif" font-size="10.00">src/Player.cpp</text>
</a>
</g>
</g>
<!-- Node1&#45;&gt;Node7 -->
<g id="edge7" class="edge">
<title>Node1&#45;&gt;Node7</title>
<path fill="none" stroke="midnightblue" d="M159.31,-162.1C171.91,-152.38 187.93,-140.03 198.55,-131.83"/>
<polygon fill="midnightblue" stroke="midnightblue" points="157.03,-159.44 151.25,-168.32 161.3,-164.99 157.03,-159.44"/>
</g>
<!-- Node3 -->
<g id="node3" class="node">
<title>Node3</title>
<g id="a_node3"><a xlink:href="Enemy_8cpp.html" target="_top" xlink:title=" ">
<polygon fill="white" stroke="black" points="0,-56.5 0,-75.5 86,-75.5 86,-56.5 0,-56.5"/>
<text text-anchor="middle" x="43" y="-63.5" font-family="Helvetica,sans-Serif" font-size="10.00">src/Enemy.cpp</text>
</a>
</g>
</g>
<!-- Node2&#45;&gt;Node3 -->
<g id="edge2" class="edge">
<title>Node2&#45;&gt;Node3</title>
<path fill="none" stroke="midnightblue" d="M63.82,-103.27C58.53,-94.05 52.28,-83.17 48.02,-75.75"/>
<polygon fill="midnightblue" stroke="midnightblue" points="60.87,-105.15 68.88,-112.08 66.94,-101.67 60.87,-105.15"/>
</g>
<!-- Node2&#45;&gt;Node4 -->
<g id="edge3" class="edge">
<title>Node2&#45;&gt;Node4</title>
<path fill="none" stroke="midnightblue" d="M92.55,-105.82C104.38,-96.15 119.29,-83.95 129.2,-75.83"/>
<polygon fill="midnightblue" stroke="midnightblue" points="90.13,-103.28 84.6,-112.32 94.56,-108.7 90.13,-103.28"/>
</g>
<!-- Node5 -->
<g id="node5" class="node">
<title>Node5</title>
<g id="a_node5"><a xlink:href="Game_8cpp.html" target="_top" xlink:title=" ">
<polygon fill="white" stroke="black" points="49.5,-0.5 49.5,-19.5 132.5,-19.5 132.5,-0.5 49.5,-0.5"/>
<text text-anchor="middle" x="91" y="-7.5" font-family="Helvetica,sans-Serif" font-size="10.00">src/Game.cpp</text>
</a>
</g>
</g>
<!-- Node4&#45;&gt;Node5 -->
<g id="edge4" class="edge">
<title>Node4&#45;&gt;Node5</title>
<path fill="none" stroke="midnightblue" d="M124.97,-48.43C116.38,-38.97 105.96,-27.48 98.94,-19.75"/>
<polygon fill="midnightblue" stroke="midnightblue" points="122.6,-51.03 131.91,-56.08 127.78,-46.33 122.6,-51.03"/>
</g>
<!-- Node6 -->
<g id="node6" class="node">
<title>Node6</title>
<g id="a_node6"><a xlink:href="main_8cpp.html" target="_top" xlink:title=" ">
<polygon fill="white" stroke="black" points="150.5,-0.5 150.5,-19.5 229.5,-19.5 229.5,-0.5 150.5,-0.5"/>
<text text-anchor="middle" x="190" y="-7.5" font-family="Helvetica,sans-Serif" font-size="10.00">src/main.cpp</text>
</a>
</g>
</g>
<!-- Node4&#45;&gt;Node6 -->
<g id="edge5" class="edge">
<title>Node4&#45;&gt;Node6</title>
<path fill="none" stroke="midnightblue" d="M155.08,-48.72C163.89,-39.2 174.67,-27.56 181.9,-19.75"/>
<polygon fill="midnightblue" stroke="midnightblue" points="152.48,-46.37 148.26,-56.08 157.62,-51.12 152.48,-46.37"/>
</g>
</g>
</svg>
