<?xml version="1.0" encoding="UTF-8" standalone="no"?>
<!DOCTYPE svg PUBLIC "-//W3C//DTD SVG 1.1//EN"
 "http://www.w3.org/Graphics/SVG/1.1/DTD/svg11.dtd">
<!-- Generated by graphviz version 2.43.0 (0)
 -->
<!-- Title: src/Tower.h Pages: 1 -->
<svg width="365pt" height="252pt"
 viewBox="0.00 0.00 364.50 252.00" xmlns="http://www.w3.org/2000/svg" xmlns:xlink="http://www.w3.org/1999/xlink">
<g id="graph0" class="graph" transform="scale(1 1) rotate(0) translate(4 248)">
<title>src/Tower.h</title>
<polygon fill="white" stroke="transparent" points="-4,4 -4,-248 360.5,-248 360.5,4 -4,4"/>
<!-- Node1 -->
<g id="node1" class="node">
<title>Node1</title>
<g id="a_node1"><a xlink:title=" ">
<polygon fill="#bfbfbf" stroke="black" points="105.5,-224.5 105.5,-243.5 176.5,-243.5 176.5,-224.5 105.5,-224.5"/>
<text text-anchor="middle" x="141" y="-231.5" font-family="Helvetica,sans-Serif" font-size="10.00">src/Tower.h</text>
</a>
</g>
</g>
<!-- Node2 -->
<g id="node2" class="node">
<title>Node2</title>
<g id="a_node2"><a xlink:href="Entity_8h.html" target="_top" xlink:title=" ">
<polygon fill="white" stroke="black" points="120.5,-112.5 120.5,-131.5 173.5,-131.5 173.5,-112.5 120.5,-112.5"/>
<text text-anchor="middle" x="147" y="-119.5" font-family="Helvetica,sans-Serif" font-size="10.00">Entity.h</text>
</a>
</g>
</g>
<!-- Node1&#45;&gt;Node2 -->
<g id="edge1" class="edge">
<title>Node1&#45;&gt;Node2</title>
<path fill="none" stroke="midnightblue" d="M141.47,-224.37C142.44,-206.62 144.67,-165.67 145.99,-141.6"/>
<polygon fill="midnightblue" stroke="midnightblue" points="149.48,-141.77 146.53,-131.59 142.49,-141.39 149.48,-141.77"/>
</g>
<!-- Node7 -->
<g id="node7" class="node">
<title>Node7</title>
<g id="a_node7"><a xlink:title=" ">
<polygon fill="white" stroke="#bfbfbf" points="0,-0.5 0,-19.5 58,-19.5 58,-0.5 0,-0.5"/>
<text text-anchor="middle" x="29" y="-7.5" font-family="Helvetica,sans-Serif" font-size="10.00">memory</text>
</a>
</g>
</g>
<!-- Node1&#45;&gt;Node7 -->
<g id="edge18" class="edge">
<title>Node1&#45;&gt;Node7</title>
<path fill="none" stroke="midnightblue" d="M131.59,-224.25C108.58,-202.12 49.82,-141.05 29,-76 24.21,-61.04 24.63,-43.13 26.01,-29.9"/>
<polygon fill="midnightblue" stroke="midnightblue" points="29.52,-30.04 27.36,-19.67 22.58,-29.12 29.52,-30.04"/>
</g>
<!-- Node11 -->
<g id="node11" class="node">
<title>Node11</title>
<g id="a_node11"><a xlink:href="Attacker_8h.html" target="_top" xlink:title=" ">
<polygon fill="white" stroke="black" points="169.5,-168.5 169.5,-187.5 234.5,-187.5 234.5,-168.5 169.5,-168.5"/>
<text text-anchor="middle" x="202" y="-175.5" font-family="Helvetica,sans-Serif" font-size="10.00">Attacker.h</text>
</a>
</g>
</g>
<!-- Node1&#45;&gt;Node11 -->
<g id="edge12" class="edge">
<title>Node1&#45;&gt;Node11</title>
<path fill="none" stroke="midnightblue" d="M150.8,-224.32C159.82,-216.34 173.41,-204.31 184.32,-194.65"/>
<polygon fill="midnightblue" stroke="midnightblue" points="186.85,-197.08 192.02,-187.83 182.21,-191.84 186.85,-197.08"/>
</g>
<!-- Node3 -->
<g id="node3" class="node">
<title>Node3</title>
<g id="a_node3"><a xlink:href="constants_8h.html" target="_top" xlink:title=" ">
<polygon fill="white" stroke="black" points="231.5,-56.5 231.5,-75.5 304.5,-75.5 304.5,-56.5 231.5,-56.5"/>
<text text-anchor="middle" x="268" y="-63.5" font-family="Helvetica,sans-Serif" font-size="10.00">constants.h</text>
</a>
</g>
</g>
<!-- Node2&#45;&gt;Node3 -->
<g id="edge2" class="edge">
<title>Node2&#45;&gt;Node3</title>
<path fill="none" stroke="midnightblue" d="M166.17,-112.44C185.91,-103.64 216.89,-89.81 239.49,-79.72"/>
<polygon fill="midnightblue" stroke="midnightblue" points="241.21,-82.79 248.92,-75.52 238.36,-76.4 241.21,-82.79"/>
</g>
<!-- Node4 -->
<g id="node4" class="node">
<title>Node4</title>
<g id="a_node4"><a xlink:href="Map_8h.html" target="_top" xlink:title=" ">
<polygon fill="white" stroke="black" points="166.5,-56.5 166.5,-75.5 213.5,-75.5 213.5,-56.5 166.5,-56.5"/>
<text text-anchor="middle" x="190" y="-63.5" font-family="Helvetica,sans-Serif" font-size="10.00">Map.h</text>
</a>
</g>
</g>
<!-- Node2&#45;&gt;Node4 -->
<g id="edge3" class="edge">
<title>Node2&#45;&gt;Node4</title>
<path fill="none" stroke="midnightblue" d="M148.93,-112.08C153.54,-104.22 162.46,-92.57 170.96,-83.08"/>
<polygon fill="midnightblue" stroke="midnightblue" points="173.57,-85.42 177.9,-75.75 168.48,-80.61 173.57,-85.42"/>
</g>
<!-- Node2&#45;&gt;Node7 -->
<g id="edge11" class="edge">
<title>Node2&#45;&gt;Node7</title>
<path fill="none" stroke="midnightblue" d="M145.29,-112.37C142.2,-98.82 134.53,-72.43 119,-56 104.93,-41.11 84.86,-30.41 67.25,-23.2"/>
<polygon fill="midnightblue" stroke="midnightblue" points="68.35,-19.88 57.76,-19.55 65.84,-26.41 68.35,-19.88"/>
</g>
<!-- Node10 -->
<g id="node10" class="node">
<title>Node10</title>
<g id="a_node10"><a xlink:title=" ">
<polygon fill="white" stroke="#bfbfbf" points="50,-56.5 50,-75.5 110,-75.5 110,-56.5 50,-56.5"/>
<text text-anchor="middle" x="80" y="-63.5" font-family="Helvetica,sans-Serif" font-size="10.00">iostream</text>
</a>
</g>
</g>
<!-- Node2&#45;&gt;Node10 -->
<g id="edge10" class="edge">
<title>Node2&#45;&gt;Node10</title>
<path fill="none" stroke="midnightblue" d="M136.24,-112.32C126.23,-104.26 111.11,-92.08 99.07,-82.37"/>
<polygon fill="midnightblue" stroke="midnightblue" points="100.94,-79.38 90.96,-75.83 96.55,-84.83 100.94,-79.38"/>
</g>
<!-- Node4&#45;&gt;Node2 -->
<g id="edge9" class="edge">
<title>Node4&#45;&gt;Node2</title>
<path fill="none" stroke="midnightblue" d="M188.16,-75.75C183.62,-83.56 174.73,-95.2 166.22,-104.72"/>
<polygon fill="midnightblue" stroke="midnightblue" points="163.59,-102.41 159.27,-112.08 168.68,-107.21 163.59,-102.41"/>
</g>
<!-- Node5 -->
<g id="node5" class="node">
<title>Node5</title>
<g id="a_node5"><a xlink:title=" ">
<polygon fill="white" stroke="#bfbfbf" points="309.5,-0.5 309.5,-19.5 356.5,-19.5 356.5,-0.5 309.5,-0.5"/>
<text text-anchor="middle" x="333" y="-7.5" font-family="Helvetica,sans-Serif" font-size="10.00">vector</text>
</a>
</g>
</g>
<!-- Node4&#45;&gt;Node5 -->
<g id="edge4" class="edge">
<title>Node4&#45;&gt;Node5</title>
<path fill="none" stroke="midnightblue" d="M212.66,-56.44C236.4,-47.48 273.91,-33.31 300.74,-23.18"/>
<polygon fill="midnightblue" stroke="midnightblue" points="302.33,-26.32 310.45,-19.52 299.86,-19.77 302.33,-26.32"/>
</g>
<!-- Node6 -->
<g id="node6" class="node">
<title>Node6</title>
<g id="a_node6"><a xlink:title=" ">
<polygon fill="white" stroke="#bfbfbf" points="166,-0.5 166,-19.5 210,-19.5 210,-0.5 166,-0.5"/>
<text text-anchor="middle" x="188" y="-7.5" font-family="Helvetica,sans-Serif" font-size="10.00">string</text>
</a>
</g>
</g>
<!-- Node4&#45;&gt;Node6 -->
<g id="edge5" class="edge">
<title>Node4&#45;&gt;Node6</title>
<path fill="none" stroke="midnightblue" d="M189.67,-56.08C189.41,-49.01 189.03,-38.86 188.7,-29.99"/>
<polygon fill="midnightblue" stroke="midnightblue" points="192.19,-29.61 188.32,-19.75 185.2,-29.87 192.19,-29.61"/>
</g>
<!-- Node4&#45;&gt;Node7 -->
<g id="edge6" class="edge">
<title>Node4&#45;&gt;Node7</title>
<path fill="none" stroke="midnightblue" d="M166.24,-57.03C139.25,-47.98 94.94,-33.12 63.99,-22.74"/>
<polygon fill="midnightblue" stroke="midnightblue" points="65.04,-19.4 54.45,-19.54 62.82,-26.03 65.04,-19.4"/>
</g>
<!-- Node8 -->
<g id="node8" class="node">
<title>Node8</title>
<g id="a_node8"><a xlink:title=" ">
<polygon fill="white" stroke="#bfbfbf" points="228.5,-0.5 228.5,-19.5 291.5,-19.5 291.5,-0.5 228.5,-0.5"/>
<text text-anchor="middle" x="260" y="-7.5" font-family="Helvetica,sans-Serif" font-size="10.00">ncurses.h</text>
</a>
</g>
</g>
<!-- Node4&#45;&gt;Node8 -->
<g id="edge7" class="edge">
<title>Node4&#45;&gt;Node8</title>
<path fill="none" stroke="midnightblue" d="M201.25,-56.32C211.8,-48.18 227.8,-35.84 240.44,-26.09"/>
<polygon fill="midnightblue" stroke="midnightblue" points="242.77,-28.71 248.55,-19.83 238.49,-23.17 242.77,-28.71"/>
</g>
<!-- Node9 -->
<g id="node9" class="node">
<title>Node9</title>
<g id="a_node9"><a xlink:title=" ">
<polygon fill="white" stroke="#bfbfbf" points="82.5,-0.5 82.5,-19.5 147.5,-19.5 147.5,-0.5 82.5,-0.5"/>
<text text-anchor="middle" x="115" y="-7.5" font-family="Helvetica,sans-Serif" font-size="10.00">functional</text>
</a>
</g>
</g>
<!-- Node4&#45;&gt;Node9 -->
<g id="edge8" class="edge">
<title>Node4&#45;&gt;Node9</title>
<path fill="none" stroke="midnightblue" d="M177.95,-56.32C166.54,-48.11 149.17,-35.6 135.57,-25.81"/>
<polygon fill="midnightblue" stroke="midnightblue" points="137.43,-22.84 127.27,-19.83 133.34,-28.52 137.43,-22.84"/>
</g>
<!-- Node11&#45;&gt;Node2 -->
<g id="edge13" class="edge">
<title>Node11&#45;&gt;Node2</title>
<path fill="none" stroke="midnightblue" d="M192.92,-168.08C184.83,-160.14 172.8,-148.34 163.09,-138.8"/>
<polygon fill="midnightblue" stroke="midnightblue" points="165.5,-136.26 155.91,-131.75 160.6,-141.25 165.5,-136.26"/>
</g>
<!-- Node11&#45;&gt;Node3 -->
<g id="edge14" class="edge">
<title>Node11&#45;&gt;Node3</title>
<path fill="none" stroke="midnightblue" d="M207.18,-168.37C218.02,-150.3 243.29,-108.18 257.62,-84.31"/>
<polygon fill="midnightblue" stroke="midnightblue" points="260.7,-85.97 262.85,-75.59 254.7,-82.37 260.7,-85.97"/>
</g>
<!-- Node11&#45;&gt;Node4 -->
<g id="edge17" class="edge">
<title>Node11&#45;&gt;Node4</title>
<path fill="none" stroke="midnightblue" d="M201.06,-168.37C199.12,-150.62 194.65,-109.67 192.03,-85.6"/>
<polygon fill="midnightblue" stroke="midnightblue" points="195.5,-85.15 190.94,-75.59 188.54,-85.91 195.5,-85.15"/>
</g>
<!-- Node11&#45;&gt;Node5 -->
<g id="edge15" class="edge">
<title>Node11&#45;&gt;Node5</title>
<path fill="none" stroke="midnightblue" d="M215.59,-168.48C239.18,-152.99 287.68,-117.91 314,-76 322.89,-61.84 327.77,-43.36 330.34,-29.72"/>
<polygon fill="midnightblue" stroke="midnightblue" points="333.84,-30.05 332.01,-19.61 326.93,-28.91 333.84,-30.05"/>
</g>
<!-- Node11&#45;&gt;Node7 -->
<g id="edge16" class="edge">
<title>Node11&#45;&gt;Node7</title>
<path fill="none" stroke="midnightblue" d="M174.4,-168.48C136.95,-155.31 71.25,-126.15 41,-76 32.57,-62.03 29.8,-43.53 29.01,-29.83"/>
<polygon fill="midnightblue" stroke="midnightblue" points="32.5,-29.57 28.72,-19.67 25.51,-29.77 32.5,-29.57"/>
</g>
</g>
</svg>
