<?xml version="1.0" encoding="UTF-8" standalone="no"?>
<!DOCTYPE svg PUBLIC "-//W3C//DTD SVG 1.1//EN"
 "http://www.w3.org/Graphics/SVG/1.1/DTD/svg11.dtd">
<!-- Generated by graphviz version 2.43.0 (0)
 -->
<!-- Title: src/Tower.h Pages: 1 -->
<svg width="237pt" height="196pt"
 viewBox="0.00 0.00 237.00 196.00" xmlns="http://www.w3.org/2000/svg" xmlns:xlink="http://www.w3.org/1999/xlink">
<g id="graph0" class="graph" transform="scale(1 1) rotate(0) translate(4 192)">
<title>src/Tower.h</title>
<polygon fill="white" stroke="transparent" points="-4,4 -4,-192 233,-192 233,4 -4,4"/>
<!-- Node1 -->
<g id="node1" class="node">
<title>Node1</title>
<g id="a_node1"><a xlink:title=" ">
<polygon fill="#bfbfbf" stroke="black" points="103.5,-168.5 103.5,-187.5 174.5,-187.5 174.5,-168.5 103.5,-168.5"/>
<text text-anchor="middle" x="139" y="-175.5" font-family="Helvetica,sans-Serif" font-size="10.00">src/Tower.h</text>
</a>
</g>
</g>
<!-- Node2 -->
<g id="node2" class="node">
<title>Node2</title>
<g id="a_node2"><a xlink:href="Enemy_8h.html" target="_top" xlink:title=" ">
<polygon fill="white" stroke="black" points="53.5,-112.5 53.5,-131.5 128.5,-131.5 128.5,-112.5 53.5,-112.5"/>
<text text-anchor="middle" x="91" y="-119.5" font-family="Helvetica,sans-Serif" font-size="10.00">src/Enemy.h</text>
</a>
</g>
</g>
<!-- Node1&#45;&gt;Node2 -->
<g id="edge1" class="edge">
<title>Node1&#45;&gt;Node2</title>
<path fill="none" stroke="midnightblue" d="M124.27,-160.43C115.86,-150.97 105.65,-139.48 98.78,-131.75"/>
<polygon fill="midnightblue" stroke="midnightblue" points="121.81,-162.93 131.07,-168.08 127.05,-158.28 121.81,-162.93"/>
</g>
<!-- Node7 -->
<g id="node7" class="node">
<title>Node7</title>
<g id="a_node7"><a xlink:href="Tower_8cpp.html" target="_top" xlink:title=" ">
<polygon fill="white" stroke="black" points="147,-112.5 147,-131.5 229,-131.5 229,-112.5 147,-112.5"/>
<text text-anchor="middle" x="188" y="-119.5" font-family="Helvetica,sans-Serif" font-size="10.00">src/Tower.cpp</text>
</a>
</g>
</g>
<!-- Node1&#45;&gt;Node7 -->
<g id="edge6" class="edge">
<title>Node1&#45;&gt;Node7</title>
<path fill="none" stroke="midnightblue" d="M154.03,-160.43C162.62,-150.97 173.04,-139.48 180.06,-131.75"/>
<polygon fill="midnightblue" stroke="midnightblue" points="151.22,-158.33 147.09,-168.08 156.4,-163.03 151.22,-158.33"/>
</g>
<!-- Node3 -->
<g id="node3" class="node">
<title>Node3</title>
<g id="a_node3"><a xlink:href="Enemy_8cpp.html" target="_top" xlink:title=" ">
<polygon fill="white" stroke="black" points="0,-56.5 0,-75.5 86,-75.5 86,-56.5 0,-56.5"/>
<text text-anchor="middle" x="43" y="-63.5" font-family="Helvetica,sans-Serif" font-size="10.00">src/Enemy.cpp</text>
</a>
</g>
</g>
<!-- Node2&#45;&gt;Node3 -->
<g id="edge2" class="edge">
<title>Node2&#45;&gt;Node3</title>
<path fill="none" stroke="midnightblue" d="M76.27,-104.43C67.86,-94.97 57.65,-83.48 50.78,-75.75"/>
<polygon fill="midnightblue" stroke="midnightblue" points="73.81,-106.93 83.07,-112.08 79.05,-102.28 73.81,-106.93"/>
</g>
<!-- Node4 -->
<g id="node4" class="node">
<title>Node4</title>
<g id="a_node4"><a xlink:href="Game_8h.html" target="_top" xlink:title=" ">
<polygon fill="white" stroke="black" points="104,-56.5 104,-75.5 176,-75.5 176,-56.5 104,-56.5"/>
<text text-anchor="middle" x="140" y="-63.5" font-family="Helvetica,sans-Serif" font-size="10.00">src/Game.h</text>
</a>
</g>
</g>
<!-- Node2&#45;&gt;Node4 -->
<g id="edge3" class="edge">
<title>Node2&#45;&gt;Node4</title>
<path fill="none" stroke="midnightblue" d="M106.03,-104.43C114.62,-94.97 125.04,-83.48 132.06,-75.75"/>
<polygon fill="midnightblue" stroke="midnightblue" points="103.22,-102.33 99.09,-112.08 108.4,-107.03 103.22,-102.33"/>
</g>
<!-- Node5 -->
<g id="node5" class="node">
<title>Node5</title>
<g id="a_node5"><a xlink:href="Game_8cpp.html" target="_top" xlink:title=" ">
<polygon fill="white" stroke="black" points="48.5,-0.5 48.5,-19.5 131.5,-19.5 131.5,-0.5 48.5,-0.5"/>
<text text-anchor="middle" x="90" y="-7.5" font-family="Helvetica,sans-Serif" font-size="10.00">src/Game.cpp</text>
</a>
</g>
</g>
<!-- Node4&#45;&gt;Node5 -->
<g id="edge4" class="edge">
<title>Node4&#45;&gt;Node5</title>
<path fill="none" stroke="midnightblue" d="M124.92,-48.72C116.11,-39.2 105.33,-27.56 98.1,-19.75"/>
<polygon fill="midnightblue" stroke="midnightblue" points="122.38,-51.12 131.74,-56.08 127.52,-46.37 122.38,-51.12"/>
</g>
<!-- Node6 -->
<g id="node6" class="node">
<title>Node6</title>
<g id="a_node6"><a xlink:href="main_8cpp.html" target="_top" xlink:title=" ">
<polygon fill="white" stroke="black" points="149.5,-0.5 149.5,-19.5 228.5,-19.5 228.5,-0.5 149.5,-0.5"/>
<text text-anchor="middle" x="189" y="-7.5" font-family="Helvetica,sans-Serif" font-size="10.00">src/main.cpp</text>
</a>
</g>
</g>
<!-- Node4&#45;&gt;Node6 -->
<g id="edge5" class="edge">
<title>Node4&#45;&gt;Node6</title>
<path fill="none" stroke="midnightblue" d="M155.03,-48.43C163.62,-38.97 174.04,-27.48 181.06,-19.75"/>
<polygon fill="midnightblue" stroke="midnightblue" points="152.22,-46.33 148.09,-56.08 157.4,-51.03 152.22,-46.33"/>
</g>
</g>
</svg>
