<?xml version="1.0" encoding="UTF-8" standalone="no"?>
<!DOCTYPE svg PUBLIC "-//W3C//DTD SVG 1.1//EN"
 "http://www.w3.org/Graphics/SVG/1.1/DTD/svg11.dtd">
<!-- Generated by graphviz version 2.43.0 (0)
 -->
<!-- Title: src/Tower.cpp Pages: 1 -->
<svg width="743pt" height="364pt"
 viewBox="0.00 0.00 743.26 364.00" xmlns="http://www.w3.org/2000/svg" xmlns:xlink="http://www.w3.org/1999/xlink">
<g id="graph0" class="graph" transform="scale(1 1) rotate(0) translate(4 360)">
<title>src/Tower.cpp</title>
<polygon fill="white" stroke="transparent" points="-4,4 -4,-360 739.26,-360 739.26,4 -4,4"/>
<!-- Node1 -->
<g id="node1" class="node">
<title>Node1</title>
<g id="a_node1"><a xlink:title=" ">
<polygon fill="#bfbfbf" stroke="black" points="427.5,-336.5 427.5,-355.5 509.5,-355.5 509.5,-336.5 427.5,-336.5"/>
<text text-anchor="middle" x="468.5" y="-343.5" font-family="Helvetica,sans-Serif" font-size="10.00">src/Tower.cpp</text>
</a>
</g>
</g>
<!-- Node2 -->
<g id="node2" class="node">
<title>Node2</title>
<g id="a_node2"><a xlink:href="Tower_8h.html" target="_top" xlink:title=" ">
<polygon fill="white" stroke="black" points="442,-280.5 442,-299.5 495,-299.5 495,-280.5 442,-280.5"/>
<text text-anchor="middle" x="468.5" y="-287.5" font-family="Helvetica,sans-Serif" font-size="10.00">Tower.h</text>
</a>
</g>
</g>
<!-- Node1&#45;&gt;Node2 -->
<g id="edge1" class="edge">
<title>Node1&#45;&gt;Node2</title>
<path fill="none" stroke="midnightblue" d="M468.5,-336.08C468.5,-329.01 468.5,-318.86 468.5,-309.99"/>
<polygon fill="midnightblue" stroke="midnightblue" points="472,-309.75 468.5,-299.75 465,-309.75 472,-309.75"/>
</g>
<!-- Node3 -->
<g id="node3" class="node">
<title>Node3</title>
<g id="a_node3"><a xlink:href="Entity_8h.html" target="_top" xlink:title=" ">
<polygon fill="white" stroke="black" points="489,-168.5 489,-187.5 542,-187.5 542,-168.5 489,-168.5"/>
<text text-anchor="middle" x="515.5" y="-175.5" font-family="Helvetica,sans-Serif" font-size="10.00">Entity.h</text>
</a>
</g>
</g>
<!-- Node2&#45;&gt;Node3 -->
<g id="edge2" class="edge">
<title>Node2&#45;&gt;Node3</title>
<path fill="none" stroke="midnightblue" d="M472.19,-280.37C479.84,-262.46 497.59,-220.92 507.83,-196.95"/>
<polygon fill="midnightblue" stroke="midnightblue" points="511.12,-198.16 511.83,-187.59 504.68,-195.41 511.12,-198.16"/>
</g>
<!-- Node8 -->
<g id="node8" class="node">
<title>Node8</title>
<g id="a_node8"><a xlink:title=" ">
<polygon fill="white" stroke="#bfbfbf" points="658.5,-56.5 658.5,-75.5 716.5,-75.5 716.5,-56.5 658.5,-56.5"/>
<text text-anchor="middle" x="687.5" y="-63.5" font-family="Helvetica,sans-Serif" font-size="10.00">memory</text>
</a>
</g>
</g>
<!-- Node2&#45;&gt;Node8 -->
<g id="edge40" class="edge">
<title>Node2&#45;&gt;Node8</title>
<path fill="none" stroke="midnightblue" d="M491.68,-280.46C530.27,-265.55 609,-232.11 665.5,-188 691.57,-167.65 702.87,-162.96 714.5,-132 720.72,-115.46 711.29,-96.86 701.91,-83.81"/>
<polygon fill="midnightblue" stroke="midnightblue" points="704.54,-81.48 695.62,-75.75 699.02,-85.79 704.54,-81.48"/>
</g>
<!-- Node19 -->
<g id="node19" class="node">
<title>Node19</title>
<g id="a_node19"><a xlink:href="Attacker_8h.html" target="_top" xlink:title=" ">
<polygon fill="white" stroke="black" points="390,-224.5 390,-243.5 455,-243.5 455,-224.5 390,-224.5"/>
<text text-anchor="middle" x="422.5" y="-231.5" font-family="Helvetica,sans-Serif" font-size="10.00">Attacker.h</text>
</a>
</g>
</g>
<!-- Node2&#45;&gt;Node19 -->
<g id="edge24" class="edge">
<title>Node2&#45;&gt;Node19</title>
<path fill="none" stroke="midnightblue" d="M460.9,-280.08C454.27,-272.3 444.48,-260.8 436.44,-251.37"/>
<polygon fill="midnightblue" stroke="midnightblue" points="439.1,-249.09 429.95,-243.75 433.77,-253.63 439.1,-249.09"/>
</g>
<!-- Node20 -->
<g id="node20" class="node">
<title>Node20</title>
<g id="a_node20"><a xlink:href="exceptions_8h.html" target="_top" xlink:title=" ">
<polygon fill="white" stroke="black" points="45,-168.5 45,-187.5 124,-187.5 124,-168.5 45,-168.5"/>
<text text-anchor="middle" x="84.5" y="-175.5" font-family="Helvetica,sans-Serif" font-size="10.00">exceptions.h</text>
</a>
</g>
</g>
<!-- Node2&#45;&gt;Node20 -->
<g id="edge39" class="edge">
<title>Node2&#45;&gt;Node20</title>
<path fill="none" stroke="midnightblue" d="M441.8,-281.35C375.47,-262.35 202.89,-212.91 124.4,-190.43"/>
<polygon fill="midnightblue" stroke="midnightblue" points="124.99,-186.96 114.42,-187.57 123.06,-193.69 124.99,-186.96"/>
</g>
<!-- Node4 -->
<g id="node4" class="node">
<title>Node4</title>
<g id="a_node4"><a xlink:href="constants_8h.html" target="_top" xlink:title=" ">
<polygon fill="white" stroke="black" points="563,-0.5 563,-19.5 636,-19.5 636,-0.5 563,-0.5"/>
<text text-anchor="middle" x="599.5" y="-7.5" font-family="Helvetica,sans-Serif" font-size="10.00">constants.h</text>
</a>
</g>
</g>
<!-- Node3&#45;&gt;Node4 -->
<g id="edge3" class="edge">
<title>Node3&#45;&gt;Node4</title>
<path fill="none" stroke="midnightblue" d="M525.78,-168.3C535.18,-159.86 548.89,-146.28 557.5,-132 577.61,-98.64 589.86,-54.28 595.6,-29.59"/>
<polygon fill="midnightblue" stroke="midnightblue" points="599.03,-30.27 597.78,-19.75 592.2,-28.75 599.03,-30.27"/>
</g>
<!-- Node5 -->
<g id="node5" class="node">
<title>Node5</title>
<g id="a_node5"><a xlink:href="Map_8h.html" target="_top" xlink:title=" ">
<polygon fill="white" stroke="black" points="440,-112.5 440,-131.5 487,-131.5 487,-112.5 440,-112.5"/>
<text text-anchor="middle" x="463.5" y="-119.5" font-family="Helvetica,sans-Serif" font-size="10.00">Map.h</text>
</a>
</g>
</g>
<!-- Node3&#45;&gt;Node5 -->
<g id="edge4" class="edge">
<title>Node3&#45;&gt;Node5</title>
<path fill="none" stroke="midnightblue" d="M502.03,-168.32C492.98,-160.65 481.61,-149.25 473.38,-139.8"/>
<polygon fill="midnightblue" stroke="midnightblue" points="475.9,-137.36 466.86,-131.83 470.48,-141.79 475.9,-137.36"/>
</g>
<!-- Node3&#45;&gt;Node8 -->
<g id="edge22" class="edge">
<title>Node3&#45;&gt;Node8</title>
<path fill="none" stroke="midnightblue" d="M535.45,-168.46C554.12,-160.14 582.51,-146.64 605.5,-132 629.25,-116.88 654.3,-96.24 670.37,-82.31"/>
<polygon fill="midnightblue" stroke="midnightblue" points="672.69,-84.93 677.9,-75.7 668.07,-79.67 672.69,-84.93"/>
</g>
<!-- Node9 -->
<g id="node9" class="node">
<title>Node9</title>
<g id="a_node9"><a xlink:title=" ">
<polygon fill="white" stroke="#bfbfbf" points="470,-56.5 470,-75.5 533,-75.5 533,-56.5 470,-56.5"/>
<text text-anchor="middle" x="501.5" y="-63.5" font-family="Helvetica,sans-Serif" font-size="10.00">ncurses.h</text>
</a>
</g>
</g>
<!-- Node3&#45;&gt;Node9 -->
<g id="edge19" class="edge">
<title>Node3&#45;&gt;Node9</title>
<path fill="none" stroke="midnightblue" d="M514.4,-168.37C512.14,-150.62 506.93,-109.67 503.87,-85.6"/>
<polygon fill="midnightblue" stroke="midnightblue" points="507.33,-85.07 502.59,-75.59 500.38,-85.95 507.33,-85.07"/>
</g>
<!-- Node16 -->
<g id="node16" class="node">
<title>Node16</title>
<g id="a_node16"><a xlink:title=" ">
<polygon fill="white" stroke="#bfbfbf" points="434.5,-0.5 434.5,-19.5 494.5,-19.5 494.5,-0.5 434.5,-0.5"/>
<text text-anchor="middle" x="464.5" y="-7.5" font-family="Helvetica,sans-Serif" font-size="10.00">iostream</text>
</a>
</g>
</g>
<!-- Node3&#45;&gt;Node16 -->
<g id="edge21" class="edge">
<title>Node3&#45;&gt;Node16</title>
<path fill="none" stroke="midnightblue" d="M521.3,-168.45C534.57,-147.75 564.35,-93.84 542.5,-56 533.82,-40.98 518.01,-30.52 502.88,-23.5"/>
<polygon fill="midnightblue" stroke="midnightblue" points="504.19,-20.25 493.62,-19.56 501.45,-26.69 504.19,-20.25"/>
</g>
<!-- Node17 -->
<g id="node17" class="node">
<title>Node17</title>
<g id="a_node17"><a xlink:href="HelpStructs_8h.html" target="_top" xlink:title=" ">
<polygon fill="white" stroke="black" points="339.5,-112.5 339.5,-131.5 421.5,-131.5 421.5,-112.5 339.5,-112.5"/>
<text text-anchor="middle" x="380.5" y="-119.5" font-family="Helvetica,sans-Serif" font-size="10.00">HelpStructs.h</text>
</a>
</g>
</g>
<!-- Node3&#45;&gt;Node17 -->
<g id="edge20" class="edge">
<title>Node3&#45;&gt;Node17</title>
<path fill="none" stroke="midnightblue" d="M494.11,-168.44C471.79,-159.52 436.6,-145.44 411.29,-135.32"/>
<polygon fill="midnightblue" stroke="midnightblue" points="412.38,-131.98 401.79,-131.52 409.78,-138.48 412.38,-131.98"/>
</g>
<!-- Node18 -->
<g id="node18" class="node">
<title>Node18</title>
<g id="a_node18"><a xlink:title=" ">
<polygon fill="white" stroke="#bfbfbf" points="657.5,-112.5 657.5,-131.5 689.5,-131.5 689.5,-112.5 657.5,-112.5"/>
<text text-anchor="middle" x="673.5" y="-119.5" font-family="Helvetica,sans-Serif" font-size="10.00">set</text>
</a>
</g>
</g>
<!-- Node3&#45;&gt;Node18 -->
<g id="edge23" class="edge">
<title>Node3&#45;&gt;Node18</title>
<path fill="none" stroke="midnightblue" d="M540.54,-168.44C569.8,-158.44 618,-141.97 647.62,-131.84"/>
<polygon fill="midnightblue" stroke="midnightblue" points="648.93,-135.09 657.26,-128.55 646.67,-128.47 648.93,-135.09"/>
</g>
<!-- Node5&#45;&gt;Node3 -->
<g id="edge11" class="edge">
<title>Node5&#45;&gt;Node3</title>
<path fill="none" stroke="midnightblue" d="M477.06,-131.75C486.07,-139.4 497.38,-150.74 505.58,-160.14"/>
<polygon fill="midnightblue" stroke="midnightblue" points="503.03,-162.57 512.08,-168.08 508.45,-158.13 503.03,-162.57"/>
</g>
<!-- Node6 -->
<g id="node6" class="node">
<title>Node6</title>
<g id="a_node6"><a xlink:title=" ">
<polygon fill="white" stroke="#bfbfbf" points="122,-56.5 122,-75.5 169,-75.5 169,-56.5 122,-56.5"/>
<text text-anchor="middle" x="145.5" y="-63.5" font-family="Helvetica,sans-Serif" font-size="10.00">vector</text>
</a>
</g>
</g>
<!-- Node5&#45;&gt;Node6 -->
<g id="edge5" class="edge">
<title>Node5&#45;&gt;Node6</title>
<path fill="none" stroke="midnightblue" d="M439.79,-114.16C436.68,-113.38 433.52,-112.63 430.5,-112 321.9,-89.36 292.47,-96.8 183.5,-76 182.04,-75.72 180.56,-75.43 179.06,-75.12"/>
<polygon fill="midnightblue" stroke="midnightblue" points="179.67,-71.67 169.15,-72.94 178.16,-78.5 179.67,-71.67"/>
</g>
<!-- Node7 -->
<g id="node7" class="node">
<title>Node7</title>
<g id="a_node7"><a xlink:title=" ">
<polygon fill="white" stroke="#bfbfbf" points="143.5,-0.5 143.5,-19.5 187.5,-19.5 187.5,-0.5 143.5,-0.5"/>
<text text-anchor="middle" x="165.5" y="-7.5" font-family="Helvetica,sans-Serif" font-size="10.00">string</text>
</a>
</g>
</g>
<!-- Node5&#45;&gt;Node7 -->
<g id="edge6" class="edge">
<title>Node5&#45;&gt;Node7</title>
<path fill="none" stroke="midnightblue" d="M439.78,-114.23C436.67,-113.43 433.52,-112.66 430.5,-112 336.3,-91.29 299.42,-125.26 216.5,-76 197.68,-64.82 183.18,-43.88 174.53,-28.78"/>
<polygon fill="midnightblue" stroke="midnightblue" points="177.55,-27 169.71,-19.87 171.39,-30.33 177.55,-27"/>
</g>
<!-- Node5&#45;&gt;Node8 -->
<g id="edge7" class="edge">
<title>Node5&#45;&gt;Node8</title>
<path fill="none" stroke="midnightblue" d="M487.05,-115.32C525.45,-106.06 601.96,-87.62 648.55,-76.39"/>
<polygon fill="midnightblue" stroke="midnightblue" points="649.39,-79.79 658.29,-74.04 647.75,-72.98 649.39,-79.79"/>
</g>
<!-- Node5&#45;&gt;Node9 -->
<g id="edge8" class="edge">
<title>Node5&#45;&gt;Node9</title>
<path fill="none" stroke="midnightblue" d="M469.77,-112.08C475.14,-104.46 483.02,-93.26 489.58,-83.94"/>
<polygon fill="midnightblue" stroke="midnightblue" points="492.45,-85.94 495.34,-75.75 486.72,-81.91 492.45,-85.94"/>
</g>
<!-- Node10 -->
<g id="node10" class="node">
<title>Node10</title>
<g id="a_node10"><a xlink:title=" ">
<polygon fill="white" stroke="#bfbfbf" points="322,-56.5 322,-75.5 387,-75.5 387,-56.5 322,-56.5"/>
<text text-anchor="middle" x="354.5" y="-63.5" font-family="Helvetica,sans-Serif" font-size="10.00">functional</text>
</a>
</g>
</g>
<!-- Node5&#45;&gt;Node10 -->
<g id="edge9" class="edge">
<title>Node5&#45;&gt;Node10</title>
<path fill="none" stroke="midnightblue" d="M445.99,-112.32C428.43,-103.62 401.17,-90.12 380.97,-80.11"/>
<polygon fill="midnightblue" stroke="midnightblue" points="382.48,-76.96 371.97,-75.65 379.38,-83.23 382.48,-76.96"/>
</g>
<!-- Node11 -->
<g id="node11" class="node">
<title>Node11</title>
<g id="a_node11"><a xlink:title=" ">
<polygon fill="white" stroke="#bfbfbf" points="405,-56.5 405,-75.5 452,-75.5 452,-56.5 405,-56.5"/>
<text text-anchor="middle" x="428.5" y="-63.5" font-family="Helvetica,sans-Serif" font-size="10.00">cmath</text>
</a>
</g>
</g>
<!-- Node5&#45;&gt;Node11 -->
<g id="edge10" class="edge">
<title>Node5&#45;&gt;Node11</title>
<path fill="none" stroke="midnightblue" d="M457.72,-112.08C452.83,-104.53 445.67,-93.49 439.67,-84.23"/>
<polygon fill="midnightblue" stroke="midnightblue" points="442.55,-82.24 434.17,-75.75 436.67,-86.05 442.55,-82.24"/>
</g>
<!-- Node12 -->
<g id="node12" class="node">
<title>Node12</title>
<g id="a_node12"><a xlink:href="Definitions_8h.html" target="_top" xlink:title=" ">
<polygon fill="white" stroke="black" points="225.5,-56.5 225.5,-75.5 303.5,-75.5 303.5,-56.5 225.5,-56.5"/>
<text text-anchor="middle" x="264.5" y="-63.5" font-family="Helvetica,sans-Serif" font-size="10.00">Definitions.h</text>
</a>
</g>
</g>
<!-- Node5&#45;&gt;Node12 -->
<g id="edge12" class="edge">
<title>Node5&#45;&gt;Node12</title>
<path fill="none" stroke="midnightblue" d="M439.71,-114.51C436.61,-113.66 433.48,-112.81 430.5,-112 388.07,-100.46 339.52,-87.31 305.94,-78.21"/>
<polygon fill="midnightblue" stroke="midnightblue" points="306.59,-74.76 296.02,-75.53 304.76,-81.52 306.59,-74.76"/>
</g>
<!-- Node12&#45;&gt;Node4 -->
<g id="edge18" class="edge">
<title>Node12&#45;&gt;Node4</title>
<path fill="none" stroke="midnightblue" d="M303.52,-57.58C306.55,-57.04 309.58,-56.5 312.5,-56 396.96,-41.46 495.74,-26.4 552.63,-17.91"/>
<polygon fill="midnightblue" stroke="midnightblue" points="553.37,-21.34 562.75,-16.4 552.34,-14.42 553.37,-21.34"/>
</g>
<!-- Node12&#45;&gt;Node7 -->
<g id="edge15" class="edge">
<title>Node12&#45;&gt;Node7</title>
<path fill="none" stroke="midnightblue" d="M248.59,-56.32C232.86,-47.74 208.56,-34.49 190.29,-24.52"/>
<polygon fill="midnightblue" stroke="midnightblue" points="191.82,-21.37 181.37,-19.65 188.47,-27.52 191.82,-21.37"/>
</g>
<!-- Node13 -->
<g id="node13" class="node">
<title>Node13</title>
<g id="a_node13"><a xlink:title=" ">
<polygon fill="white" stroke="#bfbfbf" points="336,-0.5 336,-19.5 391,-19.5 391,-0.5 336,-0.5"/>
<text text-anchor="middle" x="363.5" y="-7.5" font-family="Helvetica,sans-Serif" font-size="10.00">fstream</text>
</a>
</g>
</g>
<!-- Node12&#45;&gt;Node13 -->
<g id="edge13" class="edge">
<title>Node12&#45;&gt;Node13</title>
<path fill="none" stroke="midnightblue" d="M280.41,-56.32C296.14,-47.74 320.44,-34.49 338.71,-24.52"/>
<polygon fill="midnightblue" stroke="midnightblue" points="340.53,-27.52 347.63,-19.65 337.18,-21.37 340.53,-27.52"/>
</g>
<!-- Node14 -->
<g id="node14" class="node">
<title>Node14</title>
<g id="a_node14"><a xlink:title=" ">
<polygon fill="white" stroke="#bfbfbf" points="205.5,-0.5 205.5,-19.5 243.5,-19.5 243.5,-0.5 205.5,-0.5"/>
<text text-anchor="middle" x="224.5" y="-7.5" font-family="Helvetica,sans-Serif" font-size="10.00">map</text>
</a>
</g>
</g>
<!-- Node12&#45;&gt;Node14 -->
<g id="edge14" class="edge">
<title>Node12&#45;&gt;Node14</title>
<path fill="none" stroke="midnightblue" d="M257.89,-56.08C252.24,-48.46 243.96,-37.26 237.05,-27.94"/>
<polygon fill="midnightblue" stroke="midnightblue" points="239.75,-25.7 230.98,-19.75 234.12,-29.87 239.75,-25.7"/>
</g>
<!-- Node15 -->
<g id="node15" class="node">
<title>Node15</title>
<g id="a_node15"><a xlink:title=" ">
<polygon fill="white" stroke="#bfbfbf" points="261.5,-0.5 261.5,-19.5 317.5,-19.5 317.5,-0.5 261.5,-0.5"/>
<text text-anchor="middle" x="289.5" y="-7.5" font-family="Helvetica,sans-Serif" font-size="10.00">sstream</text>
</a>
</g>
</g>
<!-- Node12&#45;&gt;Node15 -->
<g id="edge16" class="edge">
<title>Node12&#45;&gt;Node15</title>
<path fill="none" stroke="midnightblue" d="M268.63,-56.08C272.01,-48.77 276.92,-38.18 281.12,-29.1"/>
<polygon fill="midnightblue" stroke="midnightblue" points="284.42,-30.3 285.45,-19.75 278.07,-27.36 284.42,-30.3"/>
</g>
<!-- Node12&#45;&gt;Node16 -->
<g id="edge17" class="edge">
<title>Node12&#45;&gt;Node16</title>
<path fill="none" stroke="midnightblue" d="M296.19,-56.44C330.82,-47.09 386.4,-32.09 424.13,-21.9"/>
<polygon fill="midnightblue" stroke="midnightblue" points="425.52,-25.15 434.27,-19.16 423.7,-18.39 425.52,-25.15"/>
</g>
<!-- Node19&#45;&gt;Node3 -->
<g id="edge25" class="edge">
<title>Node19&#45;&gt;Node3</title>
<path fill="none" stroke="midnightblue" d="M437.44,-224.32C452.09,-215.82 474.63,-202.73 491.74,-192.8"/>
<polygon fill="midnightblue" stroke="midnightblue" points="493.7,-195.7 500.6,-187.65 490.19,-189.65 493.7,-195.7"/>
</g>
<!-- Node19&#45;&gt;Node4 -->
<g id="edge26" class="edge">
<title>Node19&#45;&gt;Node4</title>
<path fill="none" stroke="midnightblue" d="M455.07,-233.57C503.97,-233.04 597.83,-226.53 665.5,-188 694.24,-171.64 699.92,-161.69 714.5,-132 729.54,-101.36 745.16,-83.9 725.5,-56 707.62,-30.63 674.09,-19.49 646.11,-14.63"/>
<polygon fill="midnightblue" stroke="midnightblue" points="646.51,-11.15 636.09,-13.11 645.46,-18.07 646.51,-11.15"/>
</g>
<!-- Node19&#45;&gt;Node5 -->
<g id="edge27" class="edge">
<title>Node19&#45;&gt;Node5</title>
<path fill="none" stroke="midnightblue" d="M425.72,-224.37C432.36,-206.54 447.74,-165.3 456.69,-141.27"/>
<polygon fill="midnightblue" stroke="midnightblue" points="460.08,-142.18 460.3,-131.59 453.53,-139.74 460.08,-142.18"/>
</g>
<!-- Node19&#45;&gt;Node6 -->
<g id="edge33" class="edge">
<title>Node19&#45;&gt;Node6</title>
<path fill="none" stroke="midnightblue" d="M389.96,-231.56C329.28,-228.19 202.22,-217.69 171.5,-188 143.77,-161.21 142.14,-112.52 143.65,-85.8"/>
<polygon fill="midnightblue" stroke="midnightblue" points="147.16,-85.77 144.45,-75.52 140.18,-85.22 147.16,-85.77"/>
</g>
<!-- Node19&#45;&gt;Node8 -->
<g id="edge35" class="edge">
<title>Node19&#45;&gt;Node8</title>
<path fill="none" stroke="midnightblue" d="M455.46,-232.85C516.75,-230.51 646.71,-215.46 698.5,-132 707.25,-117.9 702.56,-98.91 696.84,-85.1"/>
<polygon fill="midnightblue" stroke="midnightblue" points="699.87,-83.31 692.48,-75.72 693.52,-86.26 699.87,-83.31"/>
</g>
<!-- Node19&#45;&gt;Node12 -->
<g id="edge32" class="edge">
<title>Node19&#45;&gt;Node12</title>
<path fill="none" stroke="midnightblue" d="M415.13,-224.46C404.25,-211.91 383.15,-187.84 364.5,-168 335.68,-137.34 300.89,-102.72 280.87,-83.01"/>
<polygon fill="midnightblue" stroke="midnightblue" points="283.07,-80.27 273.49,-75.77 278.17,-85.27 283.07,-80.27"/>
</g>
<!-- Node19&#45;&gt;Node17 -->
<g id="edge31" class="edge">
<title>Node19&#45;&gt;Node17</title>
<path fill="none" stroke="midnightblue" d="M419.31,-224.14C414.79,-211.6 406.19,-187.99 398.5,-168 395.06,-159.05 391.12,-149.16 387.8,-140.93"/>
<polygon fill="midnightblue" stroke="midnightblue" points="391.02,-139.55 384.02,-131.6 384.53,-142.18 391.02,-139.55"/>
</g>
<!-- Node19&#45;&gt;Node18 -->
<g id="edge34" class="edge">
<title>Node19&#45;&gt;Node18</title>
<path fill="none" stroke="midnightblue" d="M450.91,-224.48C477.37,-216.22 517.71,-202.79 551.5,-188 587.02,-172.45 626.29,-150.64 650.44,-136.67"/>
<polygon fill="midnightblue" stroke="midnightblue" points="652.34,-139.61 659.21,-131.55 648.81,-133.56 652.34,-139.61"/>
</g>
<!-- Node19&#45;&gt;Node20 -->
<g id="edge28" class="edge">
<title>Node19&#45;&gt;Node20</title>
<path fill="none" stroke="midnightblue" d="M389.69,-227.89C336.8,-219.63 229.41,-202.78 138.5,-188 137.03,-187.76 135.55,-187.52 134.04,-187.27"/>
<polygon fill="midnightblue" stroke="midnightblue" points="134.45,-183.79 124.01,-185.62 133.31,-190.7 134.45,-183.79"/>
</g>
<!-- Node22 -->
<g id="node22" class="node">
<title>Node22</title>
<g id="a_node22"><a xlink:title=" ">
<polygon fill="white" stroke="#bfbfbf" points="181,-168.5 181,-187.5 228,-187.5 228,-168.5 181,-168.5"/>
<text text-anchor="middle" x="204.5" y="-175.5" font-family="Helvetica,sans-Serif" font-size="10.00">queue</text>
</a>
</g>
</g>
<!-- Node19&#45;&gt;Node22 -->
<g id="edge36" class="edge">
<title>Node19&#45;&gt;Node22</title>
<path fill="none" stroke="midnightblue" d="M389.82,-225.48C354.56,-217.28 296.55,-203.54 238.02,-188.33"/>
<polygon fill="midnightblue" stroke="midnightblue" points="238.8,-184.92 228.24,-185.78 237.03,-191.69 238.8,-184.92"/>
</g>
<!-- Node23 -->
<g id="node23" class="node">
<title>Node23</title>
<g id="a_node23"><a xlink:title=" ">
<polygon fill="white" stroke="#bfbfbf" points="246,-168.5 246,-187.5 293,-187.5 293,-168.5 246,-168.5"/>
<text text-anchor="middle" x="269.5" y="-175.5" font-family="Helvetica,sans-Serif" font-size="10.00">deque</text>
</a>
</g>
</g>
<!-- Node19&#45;&gt;Node23 -->
<g id="edge37" class="edge">
<title>Node19&#45;&gt;Node23</title>
<path fill="none" stroke="midnightblue" d="M398.26,-224.44C372.48,-215.35 331.54,-200.9 302.76,-190.74"/>
<polygon fill="midnightblue" stroke="midnightblue" points="303.72,-187.37 293.13,-187.34 301.39,-193.97 303.72,-187.37"/>
</g>
<!-- Node24 -->
<g id="node24" class="node">
<title>Node24</title>
<g id="a_node24"><a xlink:title=" ">
<polygon fill="white" stroke="#bfbfbf" points="311,-168.5 311,-187.5 356,-187.5 356,-168.5 311,-168.5"/>
<text text-anchor="middle" x="333.5" y="-175.5" font-family="Helvetica,sans-Serif" font-size="10.00">utility</text>
</a>
</g>
</g>
<!-- Node19&#45;&gt;Node24 -->
<g id="edge38" class="edge">
<title>Node19&#45;&gt;Node24</title>
<path fill="none" stroke="midnightblue" d="M408.2,-224.32C394.32,-215.9 373.01,-202.97 356.7,-193.07"/>
<polygon fill="midnightblue" stroke="midnightblue" points="358.13,-189.85 347.76,-187.65 354.5,-195.83 358.13,-189.85"/>
</g>
<!-- Node20&#45;&gt;Node7 -->
<g id="edge29" class="edge">
<title>Node20&#45;&gt;Node7</title>
<path fill="none" stroke="midnightblue" d="M84.68,-168.4C85.46,-147.56 89.73,-93.38 112.5,-56 119.86,-43.92 131.59,-33.47 142.14,-25.69"/>
<polygon fill="midnightblue" stroke="midnightblue" points="144.4,-28.38 150.61,-19.8 140.4,-22.64 144.4,-28.38"/>
</g>
<!-- Node21 -->
<g id="node21" class="node">
<title>Node21</title>
<g id="a_node21"><a xlink:title=" ">
<polygon fill="white" stroke="#bfbfbf" points="0,-112.5 0,-131.5 65,-131.5 65,-112.5 0,-112.5"/>
<text text-anchor="middle" x="32.5" y="-119.5" font-family="Helvetica,sans-Serif" font-size="10.00">exception</text>
</a>
</g>
</g>
<!-- Node20&#45;&gt;Node21 -->
<g id="edge30" class="edge">
<title>Node20&#45;&gt;Node21</title>
<path fill="none" stroke="midnightblue" d="M75.91,-168.08C68.34,-160.22 57.12,-148.57 47.99,-139.08"/>
<polygon fill="midnightblue" stroke="midnightblue" points="50.38,-136.53 40.93,-131.75 45.34,-141.38 50.38,-136.53"/>
</g>
</g>
</svg>
