<?xml version="1.0" encoding="UTF-8" standalone="no"?>
<!DOCTYPE svg PUBLIC "-//W3C//DTD SVG 1.1//EN"
 "http://www.w3.org/Graphics/SVG/1.1/DTD/svg11.dtd">
<!-- Generated by graphviz version 2.43.0 (0)
 -->
<!-- Title: src/Tower.cpp Pages: 1 -->
<svg width="742pt" height="364pt"
 viewBox="0.00 0.00 741.64 364.00" xmlns="http://www.w3.org/2000/svg" xmlns:xlink="http://www.w3.org/1999/xlink">
<g id="graph0" class="graph" transform="scale(1 1) rotate(0) translate(4 360)">
<title>src/Tower.cpp</title>
<polygon fill="white" stroke="transparent" points="-4,4 -4,-360 737.64,-360 737.64,4 -4,4"/>
<!-- Node1 -->
<g id="node1" class="node">
<title>Node1</title>
<g id="a_node1"><a xlink:title=" ">
<polygon fill="#bfbfbf" stroke="black" points="475.5,-336.5 475.5,-355.5 557.5,-355.5 557.5,-336.5 475.5,-336.5"/>
<text text-anchor="middle" x="516.5" y="-343.5" font-family="Helvetica,sans-Serif" font-size="10.00">src/Tower.cpp</text>
</a>
</g>
</g>
<!-- Node2 -->
<g id="node2" class="node">
<title>Node2</title>
<g id="a_node2"><a xlink:href="Tower_8h.html" target="_top" xlink:title=" ">
<polygon fill="white" stroke="black" points="490,-280.5 490,-299.5 543,-299.5 543,-280.5 490,-280.5"/>
<text text-anchor="middle" x="516.5" y="-287.5" font-family="Helvetica,sans-Serif" font-size="10.00">Tower.h</text>
</a>
</g>
</g>
<!-- Node1&#45;&gt;Node2 -->
<g id="edge1" class="edge">
<title>Node1&#45;&gt;Node2</title>
<path fill="none" stroke="midnightblue" d="M516.5,-336.08C516.5,-329.01 516.5,-318.86 516.5,-309.99"/>
<polygon fill="midnightblue" stroke="midnightblue" points="520,-309.75 516.5,-299.75 513,-309.75 520,-309.75"/>
</g>
<!-- Node3 -->
<g id="node3" class="node">
<title>Node3</title>
<g id="a_node3"><a xlink:href="Entity_8h.html" target="_top" xlink:title=" ">
<polygon fill="white" stroke="black" points="569,-168.5 569,-187.5 622,-187.5 622,-168.5 569,-168.5"/>
<text text-anchor="middle" x="595.5" y="-175.5" font-family="Helvetica,sans-Serif" font-size="10.00">Entity.h</text>
</a>
</g>
</g>
<!-- Node2&#45;&gt;Node3 -->
<g id="edge2" class="edge">
<title>Node2&#45;&gt;Node3</title>
<path fill="none" stroke="midnightblue" d="M522.7,-280.37C535.74,-262.22 566.2,-219.8 583.3,-195.99"/>
<polygon fill="midnightblue" stroke="midnightblue" points="586.34,-197.76 589.33,-187.59 580.65,-193.67 586.34,-197.76"/>
</g>
<!-- Node8 -->
<g id="node8" class="node">
<title>Node8</title>
<g id="a_node8"><a xlink:title=" ">
<polygon fill="white" stroke="#bfbfbf" points="654.5,-56.5 654.5,-75.5 712.5,-75.5 712.5,-56.5 654.5,-56.5"/>
<text text-anchor="middle" x="683.5" y="-63.5" font-family="Helvetica,sans-Serif" font-size="10.00">memory</text>
</a>
</g>
</g>
<!-- Node2&#45;&gt;Node8 -->
<g id="edge38" class="edge">
<title>Node2&#45;&gt;Node8</title>
<path fill="none" stroke="midnightblue" d="M532.73,-280.27C560.47,-264.72 617.6,-229.88 654.5,-188 673.31,-166.66 678.38,-159.54 685.5,-132 687.72,-123.39 685.7,-120.89 685.5,-112 685.31,-103.39 684.91,-93.86 684.52,-85.8"/>
<polygon fill="midnightblue" stroke="midnightblue" points="688.01,-85.43 684,-75.62 681.02,-85.79 688.01,-85.43"/>
</g>
<!-- Node18 -->
<g id="node18" class="node">
<title>Node18</title>
<g id="a_node18"><a xlink:href="Attacker_8h.html" target="_top" xlink:title=" ">
<polygon fill="white" stroke="black" points="405,-224.5 405,-243.5 470,-243.5 470,-224.5 405,-224.5"/>
<text text-anchor="middle" x="437.5" y="-231.5" font-family="Helvetica,sans-Serif" font-size="10.00">Attacker.h</text>
</a>
</g>
</g>
<!-- Node2&#45;&gt;Node18 -->
<g id="edge23" class="edge">
<title>Node2&#45;&gt;Node18</title>
<path fill="none" stroke="midnightblue" d="M503.81,-280.32C491.6,-271.98 472.92,-259.21 458.5,-249.35"/>
<polygon fill="midnightblue" stroke="midnightblue" points="460.39,-246.41 450.16,-243.65 456.44,-252.19 460.39,-246.41"/>
</g>
<!-- Node21 -->
<g id="node21" class="node">
<title>Node21</title>
<g id="a_node21"><a xlink:href="exceptions_8h.html" target="_top" xlink:title=" ">
<polygon fill="white" stroke="black" points="24,-168.5 24,-187.5 103,-187.5 103,-168.5 24,-168.5"/>
<text text-anchor="middle" x="63.5" y="-175.5" font-family="Helvetica,sans-Serif" font-size="10.00">exceptions.h</text>
</a>
</g>
</g>
<!-- Node2&#45;&gt;Node21 -->
<g id="edge39" class="edge">
<title>Node2&#45;&gt;Node21</title>
<path fill="none" stroke="midnightblue" d="M489.85,-282.53C414.92,-264.33 201.74,-212.57 108.31,-189.88"/>
<polygon fill="midnightblue" stroke="midnightblue" points="109.13,-186.48 98.58,-187.52 107.47,-193.28 109.13,-186.48"/>
</g>
<!-- Node4 -->
<g id="node4" class="node">
<title>Node4</title>
<g id="a_node4"><a xlink:href="constants_8h.html" target="_top" xlink:title=" ">
<polygon fill="white" stroke="black" points="590,-0.5 590,-19.5 663,-19.5 663,-0.5 590,-0.5"/>
<text text-anchor="middle" x="626.5" y="-7.5" font-family="Helvetica,sans-Serif" font-size="10.00">constants.h</text>
</a>
</g>
</g>
<!-- Node3&#45;&gt;Node4 -->
<g id="edge3" class="edge">
<title>Node3&#45;&gt;Node4</title>
<path fill="none" stroke="midnightblue" d="M597.17,-168.08C602.05,-141.95 616.38,-65.21 623.03,-29.58"/>
<polygon fill="midnightblue" stroke="midnightblue" points="626.5,-30.04 624.9,-19.57 619.62,-28.76 626.5,-30.04"/>
</g>
<!-- Node5 -->
<g id="node5" class="node">
<title>Node5</title>
<g id="a_node5"><a xlink:href="Map_8h.html" target="_top" xlink:title=" ">
<polygon fill="white" stroke="black" points="475,-112.5 475,-131.5 522,-131.5 522,-112.5 475,-112.5"/>
<text text-anchor="middle" x="498.5" y="-119.5" font-family="Helvetica,sans-Serif" font-size="10.00">Map.h</text>
</a>
</g>
</g>
<!-- Node3&#45;&gt;Node5 -->
<g id="edge4" class="edge">
<title>Node3&#45;&gt;Node5</title>
<path fill="none" stroke="midnightblue" d="M574.8,-168.32C557.85,-159.9 534.32,-146.97 517.77,-137.07"/>
<polygon fill="midnightblue" stroke="midnightblue" points="519.29,-133.9 508.94,-131.65 515.63,-139.87 519.29,-133.9"/>
</g>
<!-- Node3&#45;&gt;Node8 -->
<g id="edge20" class="edge">
<title>Node3&#45;&gt;Node8</title>
<path fill="none" stroke="midnightblue" d="M605.38,-168.21C614.9,-159.49 629.46,-145.52 640.5,-132 652.9,-116.82 665.03,-98.01 673.23,-84.54"/>
<polygon fill="midnightblue" stroke="midnightblue" points="676.33,-86.18 678.45,-75.8 670.32,-82.59 676.33,-86.18"/>
</g>
<!-- Node9 -->
<g id="node9" class="node">
<title>Node9</title>
<g id="a_node9"><a xlink:title=" ">
<polygon fill="white" stroke="#bfbfbf" points="497,-56.5 497,-75.5 560,-75.5 560,-56.5 497,-56.5"/>
<text text-anchor="middle" x="528.5" y="-63.5" font-family="Helvetica,sans-Serif" font-size="10.00">ncurses.h</text>
</a>
</g>
</g>
<!-- Node3&#45;&gt;Node9 -->
<g id="edge22" class="edge">
<title>Node3&#45;&gt;Node9</title>
<path fill="none" stroke="midnightblue" d="M590.24,-168.37C579.23,-150.3 553.58,-108.18 539.04,-84.31"/>
<polygon fill="midnightblue" stroke="midnightblue" points="541.92,-82.31 533.73,-75.59 535.95,-85.95 541.92,-82.31"/>
</g>
<!-- Node16 -->
<g id="node16" class="node">
<title>Node16</title>
<g id="a_node16"><a xlink:title=" ">
<polygon fill="white" stroke="#bfbfbf" points="461.5,-0.5 461.5,-19.5 521.5,-19.5 521.5,-0.5 461.5,-0.5"/>
<text text-anchor="middle" x="491.5" y="-7.5" font-family="Helvetica,sans-Serif" font-size="10.00">iostream</text>
</a>
</g>
</g>
<!-- Node3&#45;&gt;Node16 -->
<g id="edge19" class="edge">
<title>Node3&#45;&gt;Node16</title>
<path fill="none" stroke="midnightblue" d="M595.91,-168.44C596.5,-147.23 595.31,-91.43 569.5,-56 558.9,-41.45 542.07,-30.89 526.74,-23.67"/>
<polygon fill="midnightblue" stroke="midnightblue" points="528.03,-20.41 517.47,-19.6 525.22,-26.82 528.03,-20.41"/>
</g>
<!-- Node17 -->
<g id="node17" class="node">
<title>Node17</title>
<g id="a_node17"><a xlink:title=" ">
<polygon fill="white" stroke="#bfbfbf" points="424.5,-112.5 424.5,-131.5 456.5,-131.5 456.5,-112.5 424.5,-112.5"/>
<text text-anchor="middle" x="440.5" y="-119.5" font-family="Helvetica,sans-Serif" font-size="10.00">set</text>
</a>
</g>
</g>
<!-- Node3&#45;&gt;Node17 -->
<g id="edge21" class="edge">
<title>Node3&#45;&gt;Node17</title>
<path fill="none" stroke="midnightblue" d="M570.55,-168.46C546.19,-160.11 507.86,-146.91 466.15,-132.2"/>
<polygon fill="midnightblue" stroke="midnightblue" points="467.22,-128.87 456.63,-128.84 464.89,-135.47 467.22,-128.87"/>
</g>
<!-- Node5&#45;&gt;Node3 -->
<g id="edge11" class="edge">
<title>Node5&#45;&gt;Node3</title>
<path fill="none" stroke="midnightblue" d="M519.16,-131.65C536.1,-140.07 559.62,-153 576.19,-162.9"/>
<polygon fill="midnightblue" stroke="midnightblue" points="574.68,-166.08 585.03,-168.32 578.33,-160.11 574.68,-166.08"/>
</g>
<!-- Node6 -->
<g id="node6" class="node">
<title>Node6</title>
<g id="a_node6"><a xlink:title=" ">
<polygon fill="white" stroke="#bfbfbf" points="131,-56.5 131,-75.5 178,-75.5 178,-56.5 131,-56.5"/>
<text text-anchor="middle" x="154.5" y="-63.5" font-family="Helvetica,sans-Serif" font-size="10.00">vector</text>
</a>
</g>
</g>
<!-- Node5&#45;&gt;Node6 -->
<g id="edge5" class="edge">
<title>Node5&#45;&gt;Node6</title>
<path fill="none" stroke="midnightblue" d="M474.8,-114.14C471.68,-113.36 468.53,-112.62 465.5,-112 350.77,-88.55 320.15,-94.38 204.5,-76 199.24,-75.16 193.69,-74.22 188.27,-73.27"/>
<polygon fill="midnightblue" stroke="midnightblue" points="188.58,-69.77 178.12,-71.46 187.35,-76.66 188.58,-69.77"/>
</g>
<!-- Node7 -->
<g id="node7" class="node">
<title>Node7</title>
<g id="a_node7"><a xlink:title=" ">
<polygon fill="white" stroke="#bfbfbf" points="170.5,-0.5 170.5,-19.5 214.5,-19.5 214.5,-0.5 170.5,-0.5"/>
<text text-anchor="middle" x="192.5" y="-7.5" font-family="Helvetica,sans-Serif" font-size="10.00">string</text>
</a>
</g>
</g>
<!-- Node5&#45;&gt;Node7 -->
<g id="edge6" class="edge">
<title>Node5&#45;&gt;Node7</title>
<path fill="none" stroke="midnightblue" d="M474.78,-114.21C471.67,-113.41 468.52,-112.65 465.5,-112 367.81,-90.82 329.58,-126.8 243.5,-76 224.65,-64.88 210.15,-43.92 201.52,-28.81"/>
<polygon fill="midnightblue" stroke="midnightblue" points="204.53,-27.02 196.7,-19.88 198.37,-30.34 204.53,-27.02"/>
</g>
<!-- Node5&#45;&gt;Node8 -->
<g id="edge7" class="edge">
<title>Node5&#45;&gt;Node8</title>
<path fill="none" stroke="midnightblue" d="M522.31,-114.05C553.17,-105.04 607.41,-89.21 644.37,-78.42"/>
<polygon fill="midnightblue" stroke="midnightblue" points="645.68,-81.68 654.3,-75.52 643.72,-74.96 645.68,-81.68"/>
</g>
<!-- Node5&#45;&gt;Node9 -->
<g id="edge8" class="edge">
<title>Node5&#45;&gt;Node9</title>
<path fill="none" stroke="midnightblue" d="M503.45,-112.08C507.6,-104.61 513.65,-93.72 518.77,-84.52"/>
<polygon fill="midnightblue" stroke="midnightblue" points="521.84,-86.19 523.64,-75.75 515.72,-82.79 521.84,-86.19"/>
</g>
<!-- Node10 -->
<g id="node10" class="node">
<title>Node10</title>
<g id="a_node10"><a xlink:title=" ">
<polygon fill="white" stroke="#bfbfbf" points="349,-56.5 349,-75.5 414,-75.5 414,-56.5 349,-56.5"/>
<text text-anchor="middle" x="381.5" y="-63.5" font-family="Helvetica,sans-Serif" font-size="10.00">functional</text>
</a>
</g>
</g>
<!-- Node5&#45;&gt;Node10 -->
<g id="edge9" class="edge">
<title>Node5&#45;&gt;Node10</title>
<path fill="none" stroke="midnightblue" d="M479.96,-112.44C460.88,-103.64 430.93,-89.81 409.06,-79.72"/>
<polygon fill="midnightblue" stroke="midnightblue" points="410.5,-76.53 399.95,-75.52 407.57,-82.88 410.5,-76.53"/>
</g>
<!-- Node11 -->
<g id="node11" class="node">
<title>Node11</title>
<g id="a_node11"><a xlink:title=" ">
<polygon fill="white" stroke="#bfbfbf" points="432,-56.5 432,-75.5 479,-75.5 479,-56.5 432,-56.5"/>
<text text-anchor="middle" x="455.5" y="-63.5" font-family="Helvetica,sans-Serif" font-size="10.00">cmath</text>
</a>
</g>
</g>
<!-- Node5&#45;&gt;Node11 -->
<g id="edge10" class="edge">
<title>Node5&#45;&gt;Node11</title>
<path fill="none" stroke="midnightblue" d="M491.4,-112.08C485.26,-104.38 476.23,-93.03 468.76,-83.65"/>
<polygon fill="midnightblue" stroke="midnightblue" points="471.44,-81.39 462.47,-75.75 465.96,-85.75 471.44,-81.39"/>
</g>
<!-- Node12 -->
<g id="node12" class="node">
<title>Node12</title>
<g id="a_node12"><a xlink:href="Definitions_8h.html" target="_top" xlink:title=" ">
<polygon fill="white" stroke="black" points="252.5,-56.5 252.5,-75.5 330.5,-75.5 330.5,-56.5 252.5,-56.5"/>
<text text-anchor="middle" x="291.5" y="-63.5" font-family="Helvetica,sans-Serif" font-size="10.00">Definitions.h</text>
</a>
</g>
</g>
<!-- Node5&#45;&gt;Node12 -->
<g id="edge12" class="edge">
<title>Node5&#45;&gt;Node12</title>
<path fill="none" stroke="midnightblue" d="M474.72,-114.47C471.62,-113.63 468.48,-112.79 465.5,-112 421.17,-100.22 370.38,-87.14 335.17,-78.12"/>
<polygon fill="midnightblue" stroke="midnightblue" points="335.77,-74.67 325.22,-75.58 334.04,-81.45 335.77,-74.67"/>
</g>
<!-- Node12&#45;&gt;Node4 -->
<g id="edge18" class="edge">
<title>Node12&#45;&gt;Node4</title>
<path fill="none" stroke="midnightblue" d="M330.52,-57.58C333.55,-57.04 336.58,-56.5 339.5,-56 423.96,-41.46 522.74,-26.4 579.63,-17.91"/>
<polygon fill="midnightblue" stroke="midnightblue" points="580.37,-21.34 589.75,-16.4 579.34,-14.42 580.37,-21.34"/>
</g>
<!-- Node12&#45;&gt;Node7 -->
<g id="edge15" class="edge">
<title>Node12&#45;&gt;Node7</title>
<path fill="none" stroke="midnightblue" d="M275.59,-56.32C259.86,-47.74 235.56,-34.49 217.29,-24.52"/>
<polygon fill="midnightblue" stroke="midnightblue" points="218.82,-21.37 208.37,-19.65 215.47,-27.52 218.82,-21.37"/>
</g>
<!-- Node13 -->
<g id="node13" class="node">
<title>Node13</title>
<g id="a_node13"><a xlink:title=" ">
<polygon fill="white" stroke="#bfbfbf" points="363,-0.5 363,-19.5 418,-19.5 418,-0.5 363,-0.5"/>
<text text-anchor="middle" x="390.5" y="-7.5" font-family="Helvetica,sans-Serif" font-size="10.00">fstream</text>
</a>
</g>
</g>
<!-- Node12&#45;&gt;Node13 -->
<g id="edge13" class="edge">
<title>Node12&#45;&gt;Node13</title>
<path fill="none" stroke="midnightblue" d="M307.41,-56.32C323.14,-47.74 347.44,-34.49 365.71,-24.52"/>
<polygon fill="midnightblue" stroke="midnightblue" points="367.53,-27.52 374.63,-19.65 364.18,-21.37 367.53,-27.52"/>
</g>
<!-- Node14 -->
<g id="node14" class="node">
<title>Node14</title>
<g id="a_node14"><a xlink:title=" ">
<polygon fill="white" stroke="#bfbfbf" points="232.5,-0.5 232.5,-19.5 270.5,-19.5 270.5,-0.5 232.5,-0.5"/>
<text text-anchor="middle" x="251.5" y="-7.5" font-family="Helvetica,sans-Serif" font-size="10.00">map</text>
</a>
</g>
</g>
<!-- Node12&#45;&gt;Node14 -->
<g id="edge14" class="edge">
<title>Node12&#45;&gt;Node14</title>
<path fill="none" stroke="midnightblue" d="M284.89,-56.08C279.24,-48.46 270.96,-37.26 264.05,-27.94"/>
<polygon fill="midnightblue" stroke="midnightblue" points="266.75,-25.7 257.98,-19.75 261.12,-29.87 266.75,-25.7"/>
</g>
<!-- Node15 -->
<g id="node15" class="node">
<title>Node15</title>
<g id="a_node15"><a xlink:title=" ">
<polygon fill="white" stroke="#bfbfbf" points="288.5,-0.5 288.5,-19.5 344.5,-19.5 344.5,-0.5 288.5,-0.5"/>
<text text-anchor="middle" x="316.5" y="-7.5" font-family="Helvetica,sans-Serif" font-size="10.00">sstream</text>
</a>
</g>
</g>
<!-- Node12&#45;&gt;Node15 -->
<g id="edge16" class="edge">
<title>Node12&#45;&gt;Node15</title>
<path fill="none" stroke="midnightblue" d="M295.63,-56.08C299.01,-48.77 303.92,-38.18 308.12,-29.1"/>
<polygon fill="midnightblue" stroke="midnightblue" points="311.42,-30.3 312.45,-19.75 305.07,-27.36 311.42,-30.3"/>
</g>
<!-- Node12&#45;&gt;Node16 -->
<g id="edge17" class="edge">
<title>Node12&#45;&gt;Node16</title>
<path fill="none" stroke="midnightblue" d="M323.19,-56.44C357.82,-47.09 413.4,-32.09 451.13,-21.9"/>
<polygon fill="midnightblue" stroke="midnightblue" points="452.52,-25.15 461.27,-19.16 450.7,-18.39 452.52,-25.15"/>
</g>
<!-- Node18&#45;&gt;Node3 -->
<g id="edge24" class="edge">
<title>Node18&#45;&gt;Node3</title>
<path fill="none" stroke="midnightblue" d="M462.54,-224.44C489.12,-215.36 531.31,-200.94 561.02,-190.78"/>
<polygon fill="midnightblue" stroke="midnightblue" points="562.25,-194.06 570.58,-187.52 559.99,-187.44 562.25,-194.06"/>
</g>
<!-- Node18&#45;&gt;Node4 -->
<g id="edge25" class="edge">
<title>Node18&#45;&gt;Node4</title>
<path fill="none" stroke="midnightblue" d="M470.33,-229.45C523.45,-223.17 625.26,-208.79 654.5,-188 708.12,-149.88 756.68,-111.59 721.5,-56 710.61,-38.8 691.18,-28.04 672.71,-21.38"/>
<polygon fill="midnightblue" stroke="midnightblue" points="673.78,-18.05 663.19,-18.26 671.6,-24.7 673.78,-18.05"/>
</g>
<!-- Node18&#45;&gt;Node5 -->
<g id="edge31" class="edge">
<title>Node18&#45;&gt;Node5</title>
<path fill="none" stroke="midnightblue" d="M442.29,-224.37C452.26,-206.38 475.46,-164.55 488.73,-140.63"/>
<polygon fill="midnightblue" stroke="midnightblue" points="491.95,-142.03 493.74,-131.59 485.83,-138.64 491.95,-142.03"/>
</g>
<!-- Node18&#45;&gt;Node6 -->
<g id="edge26" class="edge">
<title>Node18&#45;&gt;Node6</title>
<path fill="none" stroke="midnightblue" d="M404.93,-230.26C333.26,-223.89 166.91,-207.19 150.5,-188 125.88,-159.22 137.9,-111.02 147.18,-84.98"/>
<polygon fill="midnightblue" stroke="midnightblue" points="150.46,-86.19 150.75,-75.59 143.92,-83.69 150.46,-86.19"/>
</g>
<!-- Node18&#45;&gt;Node8 -->
<g id="edge28" class="edge">
<title>Node18&#45;&gt;Node8</title>
<path fill="none" stroke="midnightblue" d="M470.12,-233.35C511.69,-232.17 583.87,-224.47 631.5,-188 664.22,-162.94 676.64,-113.19 681.13,-85.93"/>
<polygon fill="midnightblue" stroke="midnightblue" points="684.63,-86.17 682.6,-75.77 677.71,-85.16 684.63,-86.17"/>
</g>
<!-- Node18&#45;&gt;Node12 -->
<g id="edge36" class="edge">
<title>Node18&#45;&gt;Node12</title>
<path fill="none" stroke="midnightblue" d="M429.65,-224.08C406.17,-197.38 336.24,-117.87 305.86,-83.32"/>
<polygon fill="midnightblue" stroke="midnightblue" points="308.27,-80.77 299.04,-75.57 303.01,-85.39 308.27,-80.77"/>
</g>
<!-- Node18&#45;&gt;Node17 -->
<g id="edge27" class="edge">
<title>Node18&#45;&gt;Node17</title>
<path fill="none" stroke="midnightblue" d="M437.74,-224.37C438.22,-206.62 439.34,-165.67 439.99,-141.6"/>
<polygon fill="midnightblue" stroke="midnightblue" points="443.49,-141.68 440.27,-131.59 436.49,-141.49 443.49,-141.68"/>
</g>
<!-- Node19 -->
<g id="node19" class="node">
<title>Node19</title>
<g id="a_node19"><a xlink:title=" ">
<polygon fill="white" stroke="#bfbfbf" points="504,-168.5 504,-187.5 551,-187.5 551,-168.5 504,-168.5"/>
<text text-anchor="middle" x="527.5" y="-175.5" font-family="Helvetica,sans-Serif" font-size="10.00">queue</text>
</a>
</g>
</g>
<!-- Node18&#45;&gt;Node19 -->
<g id="edge29" class="edge">
<title>Node18&#45;&gt;Node19</title>
<path fill="none" stroke="midnightblue" d="M451.96,-224.32C466,-215.9 487.55,-202.97 504.04,-193.07"/>
<polygon fill="midnightblue" stroke="midnightblue" points="506.3,-195.8 513.08,-187.65 502.7,-189.8 506.3,-195.8"/>
</g>
<!-- Node20 -->
<g id="node20" class="node">
<title>Node20</title>
<g id="a_node20"><a xlink:title=" ">
<polygon fill="white" stroke="#bfbfbf" points="160,-168.5 160,-187.5 207,-187.5 207,-168.5 160,-168.5"/>
<text text-anchor="middle" x="183.5" y="-175.5" font-family="Helvetica,sans-Serif" font-size="10.00">deque</text>
</a>
</g>
</g>
<!-- Node18&#45;&gt;Node20 -->
<g id="edge30" class="edge">
<title>Node18&#45;&gt;Node20</title>
<path fill="none" stroke="midnightblue" d="M404.78,-227.03C363.37,-219.32 289.66,-205.1 217.02,-188"/>
<polygon fill="midnightblue" stroke="midnightblue" points="217.78,-184.58 207.25,-185.68 216.17,-191.39 217.78,-184.58"/>
</g>
<!-- Node18&#45;&gt;Node21 -->
<g id="edge32" class="edge">
<title>Node18&#45;&gt;Node21</title>
<path fill="none" stroke="midnightblue" d="M404.75,-228.67C346.78,-220.95 222.3,-204.1 117.5,-188 116.03,-187.77 114.54,-187.54 113.04,-187.31"/>
<polygon fill="midnightblue" stroke="midnightblue" points="113.43,-183.82 103,-185.7 112.32,-190.74 113.43,-183.82"/>
</g>
<!-- Node23 -->
<g id="node23" class="node">
<title>Node23</title>
<g id="a_node23"><a xlink:href="HelpStructs_8h.html" target="_top" xlink:title=" ">
<polygon fill="white" stroke="black" points="225.5,-168.5 225.5,-187.5 307.5,-187.5 307.5,-168.5 225.5,-168.5"/>
<text text-anchor="middle" x="266.5" y="-175.5" font-family="Helvetica,sans-Serif" font-size="10.00">HelpStructs.h</text>
</a>
</g>
</g>
<!-- Node18&#45;&gt;Node23 -->
<g id="edge35" class="edge">
<title>Node18&#45;&gt;Node23</title>
<path fill="none" stroke="midnightblue" d="M410.4,-224.44C381.51,-215.32 335.58,-200.81 303.39,-190.65"/>
<polygon fill="midnightblue" stroke="midnightblue" points="304.06,-187.19 293.47,-187.52 301.95,-193.87 304.06,-187.19"/>
</g>
<!-- Node24 -->
<g id="node24" class="node">
<title>Node24</title>
<g id="a_node24"><a xlink:title=" ">
<polygon fill="white" stroke="#bfbfbf" points="326,-168.5 326,-187.5 371,-187.5 371,-168.5 326,-168.5"/>
<text text-anchor="middle" x="348.5" y="-175.5" font-family="Helvetica,sans-Serif" font-size="10.00">utility</text>
</a>
</g>
</g>
<!-- Node18&#45;&gt;Node24 -->
<g id="edge37" class="edge">
<title>Node18&#45;&gt;Node24</title>
<path fill="none" stroke="midnightblue" d="M423.2,-224.32C409.32,-215.9 388.01,-202.97 371.7,-193.07"/>
<polygon fill="midnightblue" stroke="midnightblue" points="373.13,-189.85 362.76,-187.65 369.5,-195.83 373.13,-189.85"/>
</g>
<!-- Node21&#45;&gt;Node7 -->
<g id="edge33" class="edge">
<title>Node21&#45;&gt;Node7</title>
<path fill="none" stroke="midnightblue" d="M65.8,-168.45C71.85,-147.27 89.93,-91.53 121.5,-56 133.27,-42.76 149.84,-31.95 164.02,-24.25"/>
<polygon fill="midnightblue" stroke="midnightblue" points="165.64,-27.35 172.91,-19.65 162.42,-21.14 165.64,-27.35"/>
</g>
<!-- Node22 -->
<g id="node22" class="node">
<title>Node22</title>
<g id="a_node22"><a xlink:title=" ">
<polygon fill="white" stroke="#bfbfbf" points="0,-112.5 0,-131.5 65,-131.5 65,-112.5 0,-112.5"/>
<text text-anchor="middle" x="32.5" y="-119.5" font-family="Helvetica,sans-Serif" font-size="10.00">exception</text>
</a>
</g>
</g>
<!-- Node21&#45;&gt;Node22 -->
<g id="edge34" class="edge">
<title>Node21&#45;&gt;Node22</title>
<path fill="none" stroke="midnightblue" d="M58.38,-168.08C54.09,-160.61 47.84,-149.72 42.56,-140.52"/>
<polygon fill="midnightblue" stroke="midnightblue" points="45.54,-138.68 37.52,-131.75 39.47,-142.17 45.54,-138.68"/>
</g>
</g>
</svg>
