<?xml version="1.0" encoding="UTF-8" standalone="no"?>
<!DOCTYPE svg PUBLIC "-//W3C//DTD SVG 1.1//EN"
 "http://www.w3.org/Graphics/SVG/1.1/DTD/svg11.dtd">
<!-- Generated by graphviz version 2.43.0 (0)
 -->
<!-- Title: src/Tower.cpp Pages: 1 -->
<svg width="313pt" height="308pt"
 viewBox="0.00 0.00 312.74 308.00" xmlns="http://www.w3.org/2000/svg" xmlns:xlink="http://www.w3.org/1999/xlink">
<g id="graph0" class="graph" transform="scale(1 1) rotate(0) translate(4 304)">
<title>src/Tower.cpp</title>
<polygon fill="white" stroke="transparent" points="-4,4 -4,-304 308.74,-304 308.74,4 -4,4"/>
<!-- Node1 -->
<g id="node1" class="node">
<title>Node1</title>
<g id="a_node1"><a xlink:title=" ">
<polygon fill="#bfbfbf" stroke="black" points="129.74,-280.5 129.74,-299.5 211.74,-299.5 211.74,-280.5 129.74,-280.5"/>
<text text-anchor="middle" x="170.74" y="-287.5" font-family="Helvetica,sans-Serif" font-size="10.00">src/Tower.cpp</text>
</a>
</g>
</g>
<!-- Node2 -->
<g id="node2" class="node">
<title>Node2</title>
<g id="a_node2"><a xlink:href="Tower_8h.html" target="_top" xlink:title=" ">
<polygon fill="white" stroke="black" points="144.24,-224.5 144.24,-243.5 197.24,-243.5 197.24,-224.5 144.24,-224.5"/>
<text text-anchor="middle" x="170.74" y="-231.5" font-family="Helvetica,sans-Serif" font-size="10.00">Tower.h</text>
</a>
</g>
</g>
<!-- Node1&#45;&gt;Node2 -->
<g id="edge1" class="edge">
<title>Node1&#45;&gt;Node2</title>
<path fill="none" stroke="midnightblue" d="M170.74,-280.08C170.74,-273.01 170.74,-262.86 170.74,-253.99"/>
<polygon fill="midnightblue" stroke="midnightblue" points="174.24,-253.75 170.74,-243.75 167.24,-253.75 174.24,-253.75"/>
</g>
<!-- Node3 -->
<g id="node3" class="node">
<title>Node3</title>
<g id="a_node3"><a xlink:href="Entity_8h.html" target="_top" xlink:title=" ">
<polygon fill="white" stroke="black" points="138.24,-112.5 138.24,-131.5 191.24,-131.5 191.24,-112.5 138.24,-112.5"/>
<text text-anchor="middle" x="164.74" y="-119.5" font-family="Helvetica,sans-Serif" font-size="10.00">Entity.h</text>
</a>
</g>
</g>
<!-- Node2&#45;&gt;Node3 -->
<g id="edge2" class="edge">
<title>Node2&#45;&gt;Node3</title>
<path fill="none" stroke="midnightblue" d="M170.27,-224.37C169.3,-206.62 167.06,-165.67 165.75,-141.6"/>
<polygon fill="midnightblue" stroke="midnightblue" points="169.25,-141.39 165.21,-131.59 162.26,-141.77 169.25,-141.39"/>
</g>
<!-- Node9 -->
<g id="node9" class="node">
<title>Node9</title>
<g id="a_node9"><a xlink:title=" ">
<polygon fill="white" stroke="#bfbfbf" points="246.74,-56.5 246.74,-75.5 304.74,-75.5 304.74,-56.5 246.74,-56.5"/>
<text text-anchor="middle" x="275.74" y="-63.5" font-family="Helvetica,sans-Serif" font-size="10.00">memory</text>
</a>
</g>
</g>
<!-- Node2&#45;&gt;Node9 -->
<g id="edge16" class="edge">
<title>Node2&#45;&gt;Node9</title>
<path fill="none" stroke="midnightblue" d="M176.38,-224.08C193.13,-197.61 242.71,-119.21 264.85,-84.21"/>
<polygon fill="midnightblue" stroke="midnightblue" points="267.93,-85.89 270.32,-75.57 262.01,-82.15 267.93,-85.89"/>
</g>
<!-- Node10 -->
<g id="node10" class="node">
<title>Node10</title>
<g id="a_node10"><a xlink:href="Attacker_8h.html" target="_top" xlink:title=" ">
<polygon fill="white" stroke="black" points="77.24,-168.5 77.24,-187.5 142.24,-187.5 142.24,-168.5 77.24,-168.5"/>
<text text-anchor="middle" x="109.74" y="-175.5" font-family="Helvetica,sans-Serif" font-size="10.00">Attacker.h</text>
</a>
</g>
</g>
<!-- Node2&#45;&gt;Node10 -->
<g id="edge10" class="edge">
<title>Node2&#45;&gt;Node10</title>
<path fill="none" stroke="midnightblue" d="M160.94,-224.32C151.92,-216.34 138.33,-204.31 127.42,-194.65"/>
<polygon fill="midnightblue" stroke="midnightblue" points="129.52,-191.84 119.72,-187.83 124.88,-197.08 129.52,-191.84"/>
</g>
<!-- Node4 -->
<g id="node4" class="node">
<title>Node4</title>
<g id="a_node4"><a xlink:href="constants_8h.html" target="_top" xlink:title=" ">
<polygon fill="white" stroke="black" points="12.24,-56.5 12.24,-75.5 85.24,-75.5 85.24,-56.5 12.24,-56.5"/>
<text text-anchor="middle" x="48.74" y="-63.5" font-family="Helvetica,sans-Serif" font-size="10.00">constants.h</text>
</a>
</g>
</g>
<!-- Node3&#45;&gt;Node4 -->
<g id="edge3" class="edge">
<title>Node3&#45;&gt;Node4</title>
<path fill="none" stroke="midnightblue" d="M146.36,-112.44C127.52,-103.68 98.01,-89.94 76.36,-79.86"/>
<polygon fill="midnightblue" stroke="midnightblue" points="77.57,-76.56 67.03,-75.52 74.62,-82.91 77.57,-76.56"/>
</g>
<!-- Node5 -->
<g id="node5" class="node">
<title>Node5</title>
<g id="a_node5"><a xlink:href="Map_8h.html" target="_top" xlink:title=" ">
<polygon fill="white" stroke="black" points="103.24,-56.5 103.24,-75.5 150.24,-75.5 150.24,-56.5 103.24,-56.5"/>
<text text-anchor="middle" x="126.74" y="-63.5" font-family="Helvetica,sans-Serif" font-size="10.00">Map.h</text>
</a>
</g>
</g>
<!-- Node3&#45;&gt;Node5 -->
<g id="edge4" class="edge">
<title>Node3&#45;&gt;Node5</title>
<path fill="none" stroke="midnightblue" d="M153.3,-112.08C146.46,-104.61 138.4,-93.72 132.7,-84.52"/>
<polygon fill="midnightblue" stroke="midnightblue" points="135.72,-82.75 127.76,-75.75 129.62,-86.18 135.72,-82.75"/>
</g>
<!-- Node8 -->
<g id="node8" class="node">
<title>Node8</title>
<g id="a_node8"><a xlink:title=" ">
<polygon fill="white" stroke="#bfbfbf" points="168.74,-56.5 168.74,-75.5 228.74,-75.5 228.74,-56.5 168.74,-56.5"/>
<text text-anchor="middle" x="198.74" y="-63.5" font-family="Helvetica,sans-Serif" font-size="10.00">iostream</text>
</a>
</g>
</g>
<!-- Node3&#45;&gt;Node8 -->
<g id="edge8" class="edge">
<title>Node3&#45;&gt;Node8</title>
<path fill="none" stroke="midnightblue" d="M170.35,-112.08C175.1,-104.53 182.06,-93.49 187.89,-84.23"/>
<polygon fill="midnightblue" stroke="midnightblue" points="190.86,-86.08 193.23,-75.75 184.94,-82.35 190.86,-86.08"/>
</g>
<!-- Node3&#45;&gt;Node9 -->
<g id="edge9" class="edge">
<title>Node3&#45;&gt;Node9</title>
<path fill="none" stroke="midnightblue" d="M182.57,-112.32C200.45,-103.62 228.21,-90.12 248.78,-80.11"/>
<polygon fill="midnightblue" stroke="midnightblue" points="250.49,-83.18 257.95,-75.65 247.42,-76.88 250.49,-83.18"/>
</g>
<!-- Node5&#45;&gt;Node3 -->
<g id="edge7" class="edge">
<title>Node5&#45;&gt;Node3</title>
<path fill="none" stroke="midnightblue" d="M138.03,-75.75C144.84,-83.17 152.91,-94.05 158.65,-103.27"/>
<polygon fill="midnightblue" stroke="midnightblue" points="155.66,-105.1 163.63,-112.08 161.75,-101.66 155.66,-105.1"/>
</g>
<!-- Node6 -->
<g id="node6" class="node">
<title>Node6</title>
<g id="a_node6"><a xlink:title=" ">
<polygon fill="white" stroke="#bfbfbf" points="0.24,-0.5 0.24,-19.5 47.24,-19.5 47.24,-0.5 0.24,-0.5"/>
<text text-anchor="middle" x="23.74" y="-7.5" font-family="Helvetica,sans-Serif" font-size="10.00">vector</text>
</a>
</g>
</g>
<!-- Node5&#45;&gt;Node6 -->
<g id="edge5" class="edge">
<title>Node5&#45;&gt;Node6</title>
<path fill="none" stroke="midnightblue" d="M110.19,-56.32C93.75,-47.7 68.3,-34.36 49.27,-24.39"/>
<polygon fill="midnightblue" stroke="midnightblue" points="50.73,-21.2 40.25,-19.65 47.48,-27.4 50.73,-21.2"/>
</g>
<!-- Node7 -->
<g id="node7" class="node">
<title>Node7</title>
<g id="a_node7"><a xlink:title=" ">
<polygon fill="white" stroke="#bfbfbf" points="104.74,-0.5 104.74,-19.5 148.74,-19.5 148.74,-0.5 104.74,-0.5"/>
<text text-anchor="middle" x="126.74" y="-7.5" font-family="Helvetica,sans-Serif" font-size="10.00">string</text>
</a>
</g>
</g>
<!-- Node5&#45;&gt;Node7 -->
<g id="edge6" class="edge">
<title>Node5&#45;&gt;Node7</title>
<path fill="none" stroke="midnightblue" d="M126.74,-56.08C126.74,-49.01 126.74,-38.86 126.74,-29.99"/>
<polygon fill="midnightblue" stroke="midnightblue" points="130.24,-29.75 126.74,-19.75 123.24,-29.75 130.24,-29.75"/>
</g>
<!-- Node10&#45;&gt;Node3 -->
<g id="edge11" class="edge">
<title>Node10&#45;&gt;Node3</title>
<path fill="none" stroke="midnightblue" d="M118.82,-168.08C126.91,-160.14 138.93,-148.34 148.65,-138.8"/>
<polygon fill="midnightblue" stroke="midnightblue" points="151.14,-141.25 155.82,-131.75 146.24,-136.26 151.14,-141.25"/>
</g>
<!-- Node10&#45;&gt;Node4 -->
<g id="edge12" class="edge">
<title>Node10&#45;&gt;Node4</title>
<path fill="none" stroke="midnightblue" d="M104.95,-168.37C94.97,-150.38 71.78,-108.55 58.51,-84.63"/>
<polygon fill="midnightblue" stroke="midnightblue" points="61.41,-82.64 53.5,-75.59 55.29,-86.03 61.41,-82.64"/>
</g>
<!-- Node10&#45;&gt;Node5 -->
<g id="edge15" class="edge">
<title>Node10&#45;&gt;Node5</title>
<path fill="none" stroke="midnightblue" d="M111.07,-168.37C113.81,-150.62 120.14,-109.67 123.86,-85.6"/>
<polygon fill="midnightblue" stroke="midnightblue" points="127.34,-86.01 125.41,-75.59 120.42,-84.94 127.34,-86.01"/>
</g>
<!-- Node10&#45;&gt;Node6 -->
<g id="edge13" class="edge">
<title>Node10&#45;&gt;Node6</title>
<path fill="none" stroke="midnightblue" d="M94.33,-168.26C69.51,-153.18 21.55,-119.63 2.74,-76 -4.06,-60.23 3.55,-41.49 11.45,-28.2"/>
<polygon fill="midnightblue" stroke="midnightblue" points="14.53,-29.89 17.05,-19.6 8.66,-26.07 14.53,-29.89"/>
</g>
<!-- Node10&#45;&gt;Node9 -->
<g id="edge14" class="edge">
<title>Node10&#45;&gt;Node9</title>
<path fill="none" stroke="midnightblue" d="M130.54,-168.34C149.3,-160.13 177.32,-146.87 199.74,-132 221.96,-117.26 244.87,-96.82 259.64,-82.82"/>
<polygon fill="midnightblue" stroke="midnightblue" points="262.18,-85.23 266.96,-75.78 257.33,-80.19 262.18,-85.23"/>
</g>
</g>
</svg>
